<svg xmlns="http://www.w3.org/2000/svg" xmlns:xlink="http://www.w3.org/1999/xlink" id="body_33" preserveAspectRatio="xMinYMin meet" viewBox="0 0 816 1056"><defs><clipPath id="1"><path id="" clip-rule="evenodd" transform="matrix(1 0 0 1 0 0)" d="M0 792L0 0L0 0L612 0L612 0L612 792L612 792L0 792z" /></clipPath><clipPath id="2"><path id="" clip-rule="evenodd" transform="matrix(1 0 0 1 0 0)" d="M46.5 726.5L587.87 726.5L587.87 726.5L587.87 42.20001L587.87 42.20001L46.5 42.20001z" /></clipPath><clipPath id="3"><path id="" clip-rule="evenodd" transform="matrix(1 0 0 1 0 0)" d="M121.5 284.2L490.5 284.2L490.5 284.2L490.5 42.20001L490.5 42.20001L121.5 42.20001z" /></clipPath><clipPath id="4"><path id="" clip-rule="evenodd" transform="matrix(1 0 0 1 0 0)" d="M121.5 284.2L490.5 284.2L490.5 284.2L490.5 42.20001L490.5 42.20001L121.5 42.20001z" /></clipPath><clipPath id="5"><path id="" clip-rule="evenodd" transform="matrix(1 0 0 1 0 0)" d="M121.5 284.2L490.5 284.2L490.5 284.2L490.5 42.20001L490.5 42.20001L121.5 42.20001z" /></clipPath><clipPath id="6"><path id="" clip-rule="evenodd" transform="matrix(1 0 0 1 0 0)" d="M121.5 284.2L490.5 284.2L490.5 284.2L490.5 42.20001L490.5 42.20001L121.5 42.20001z" /></clipPath></defs><g transform="matrix(1.333333 0 0 1.333333 0 0)"><g clip-path="url(#1)"><path id="1" transform="matrix(1 0 0 -1 0 792)" d="M54 39.5055L558 39.5055" stroke="#221E1F" stroke-width="0.5" fill="none" /><path id="30" transform="matrix(1 0 0 -1 0 792)" d="M46.5 65.5L587.87 65.5L587.87 749.8L46.5 749.8z" stroke="none" fill="#FFFFFF" fill-rule="nonzero" /><g clip-path="url(#2)"></g><path id="1372" transform="matrix(1 0 0 -1 0 792)" d="M463.25 309.7671L477.875 309.7671" stroke="#060606" stroke-width="0.281" stroke-linecap="square" fill="none" /><path id="1373" transform="matrix(1 0 0 -1 0 792)" d="M399.9375 293.5796L524.6875 293.5796" stroke="#060606" stroke-width="0.594" stroke-linecap="square" fill="none" /><path id="1903" transform="matrix(1 0 0 -1 0 792)" d="M318.0117 586.6199L371.1887 586.6199" stroke="#221E1F" stroke-width="1" stroke-dasharray="5,3" fill="none" /><path id="1923" transform="matrix(1 0 0 -1 0 792)" d="M342.5904 593.8055L342.7174 593.6785L342.7174 593.6785L342.8444 593.5515L342.8444 593.5515L342.9714 593.4245L342.9714 593.4245L343.0354 593.2965L343.0354 593.2965L343.0994 593.1065L343.0994 593.1065L343.1624 592.9785L343.1624 592.9785L343.2264 592.7245L343.2264 592.7245L343.2264 592.4065L343.2264 592.4065L343.2264 592.0885L343.2264 592.0885L343.1624 591.7705L343.1624 591.7705L343.0994 591.4525L343.0994 591.4525L343.0354 590.6895L343.0354 590.6895L343.0354 589.9265L343.0354 589.9265L343.0994 589.0995L343.0994 589.0995L343.1624 588.4005L343.1624 588.4005L343.2904 587.7005L343.2904 587.7005L343.4174 587.0015L343.4174 587.0015L343.6084 586.4295L343.6084 586.4295L343.7354 586.1115L343.7354 586.1115L343.8624 585.8575L343.8624 585.8575L343.9894 585.6025L343.9894 585.6025L344.1164 585.3485L344.1164 585.3485L344.2434 585.0935L344.2434 585.0935L344.3704 584.9035L344.3704 584.9035L344.5614 584.7125L344.5614 584.7125L344.6884 584.5855L344.6884 584.5855L344.8164 584.5215L344.8164 584.5215L344.9434 584.5215L344.9434 584.5215L345.1334 584.5215L345.1334 584.5215L345.2614 584.6485L345.2614 584.6485L345.3244 584.7125L345.3244 584.7125L345.3884 584.7766L345.3884 584.7766L345.4514 584.9035L345.4514 584.9035L345.5154 585.0305L345.5154 585.0305L345.5154 585.1575L345.5154 585.1575L345.5794 585.2845L345.5794 585.2845L345.6424 585.4755L345.6424 585.4755L345.7064 585.6665L345.7064 585.6665L345.7064 585.8575L345.7064 585.8575L345.7694 586.1115L345.7694 586.1115L345.8334 586.3655L345.8334 586.3655L345.8334 586.6205M342.5904 585.6665L342.5904 593.8055M438.0984 538.5485L448.9714 538.5485M438.0984 579.3715L438.0984 538.5485M369.6154 579.3715L438.0984 579.3715M365.7994 579.6255L365.8634 579.3715L365.8634 579.3715L365.8634 579.1176L365.8634 579.1176L365.9264 578.9265L365.9264 578.9265L366.0544 578.7355L366.0544 578.7355L366.1814 578.6085L366.1814 578.6085L366.3084 578.4805L366.3084 578.4805L366.4354 578.4175L366.4354 578.4175L366.6264 578.4175L366.6264 578.4175L366.8174 578.4175L366.8174 578.4175L366.9444 578.4805L366.9444 578.4805L367.0714 578.6085L367.0714 578.6085L367.1984 578.7355L367.1984 578.7355L367.2624 578.9265L367.2624 578.9265L367.3894 579.1176L367.3894 579.1176L367.3894 579.3715L367.3894 579.3715L367.4534 579.6255L367.4534 579.6255L367.4534 579.6895L367.4534 579.6895L367.4534 579.6255L367.4534 579.6255L367.4534 579.7525L367.4534 579.7525L367.5164 579.8165L367.5164 579.8165L367.5804 579.9435L367.5804 579.9435L367.6434 580.0075L367.6434 580.0075L367.7704 580.0705L367.7704 580.0705L367.8984 580.1345L367.8984 580.1345L368.0884 580.1975L368.0884 580.1975L368.2164 580.1975L368.2164 580.1975L368.4064 580.1975L368.4064 580.1975L368.5344 580.1345L368.5344 580.1345L368.6614 580.0705L368.6614 580.0705L368.7884 580.0075L368.7884 580.0075L368.9154 579.9435L368.9154 579.9435L368.9794 579.8165L368.9794 579.8165L369.0424 579.7525L369.0424 579.7525L369.0424 579.6255M359.4414 579.6255L359.4414 578.8625L359.4414 578.8625L359.4414 578.5445L359.4414 578.5445L359.5044 578.2265L359.5044 578.2265L359.5044 577.9085L359.5044 577.9085L359.5684 577.5905L359.5684 577.5905L359.5684 577.3365L359.5684 577.3365L359.6324 577.0825L359.6324 577.0825L359.6954 576.8275L359.6954 576.8275L359.7594 576.6375L359.7594 576.6375L359.8224 576.4465L359.8224 576.4465L359.8864 576.3195L359.8864 576.3195L359.9494 576.1915L359.9494 576.1915L360.0774 576.1285L360.0774 576.1285L360.1404 576.0645L360.1404 576.0645L360.2044 576.0645L360.2044 576.0645L360.3314 576.0645L360.3314 576.0645L360.3954 576.1285L360.3954 576.1285L360.4584 576.1915L360.4584 576.1915L360.5224 576.3195L360.5224 576.3195L360.5854 576.4465L360.5854 576.4465L360.6494 576.6375L360.6494 576.6375L360.7124 576.8275L360.7124 576.8275L360.7764 577.0825L360.7764 577.0825L360.8404 577.3365L360.8404 577.3365L360.9034 577.5905L360.9034 577.5905L360.9034 577.9085L360.9034 577.9085L360.9674 578.2265L360.9674 578.2265L360.9674 578.5445L360.9674 578.5445L361.0304 578.8625L361.0304 578.8625L361.0304 579.6255L361.0304 579.6255L361.0304 580.1975L361.0304 580.1975L361.0944 580.7705L361.0944 580.7705L361.0944 581.0245L361.0944 581.0245L361.1574 581.2785L361.1574 581.2785L361.2214 581.4695L361.2214 581.4695L361.2214 581.7245L361.2214 581.7245L361.2854 581.9146L361.2854 581.9146L361.3484 582.0415L361.3484 582.0415L361.4124 582.2325L361.4124 582.2325L361.4754 582.3595L361.4754 582.3595L361.6034 582.4235L361.6034 582.4235L361.6664 582.4865L361.6664 582.4865L361.7304 582.5505L361.7304 582.5505L361.7944 582.5505L361.7944 582.5505L361.9214 582.5505L361.9214 582.5505L361.9844 582.4865L361.9844 582.4865L362.0484 582.4235L362.0484 582.4235L362.1114 582.3595L362.1114 582.3595L362.1754 582.2325L362.1754 582.2325L362.2394 582.0415L362.2394 582.0415L362.3024 581.9146L362.3024 581.9146L362.3664 581.7245L362.3664 581.7245L362.4294 581.4695L362.4294 581.4695L362.4934 581.2785L362.4934 581.2785L362.4934 581.0245L362.4934 581.0245L362.5564 580.7705L362.5564 580.7705L362.6204 580.1975L362.6204 580.1975L362.6204 579.6255L362.6204 579.6255L362.6204 579.1176L362.6204 579.1176L362.6844 578.6715L362.6844 578.6715L362.7474 578.2905L362.7474 578.2905L362.8744 577.9085L362.8744 577.9085L362.9384 577.7815L362.9384 577.7815L362.9384 577.6545L362.9384 577.6545L363.0654 577.5275L363.0654 577.5275L363.1294 577.3995L363.1294 577.3995L363.1924 577.3365L363.1924 577.3365L363.2564 577.2725L363.2564 577.2725L363.3194 577.2095L363.3194 577.2095L363.4474 577.2095L363.4474 577.2095L363.5104 577.2095L363.5104 577.2095L363.5744 577.2725L363.5744 577.2725L363.6374 577.3365L363.6374 577.3365L363.7014 577.3995L363.7014 577.3995L363.8284 577.5275L363.8284 577.5275L363.8924 577.6545L363.8924 577.6545L363.9554 577.7815L363.9554 577.7815L364.0194 577.9085L364.0194 577.9085L364.0834 578.2905L364.0834 578.2905L364.1464 578.6715L364.1464 578.6715L364.2104 579.1176L364.2104 579.1176L364.2104 579.6255L364.2104 579.6255L364.2734 579.9435L364.2734 579.9435L364.2734 580.3255L364.2734 580.3255L364.3374 580.5795L364.3374 580.5795L364.4644 580.8335L364.4644 580.8335L364.5914 581.0875L364.5914 581.0875L364.7184 581.2155L364.7184 581.2155L364.7824 581.2785L364.7824 581.2785L364.8464 581.3425L364.8464 581.3425L364.9094 581.4065L364.9094 581.4065L365.0364 581.4065L365.0364 581.4065L365.1004 581.4065L365.1004 581.4065L365.1634 581.3425L365.1634 581.3425L365.2914 581.2785L365.2914 581.2785L365.3544 581.2155L365.3544 581.2155L365.4814 581.0875L365.4814 581.0875L365.6094 580.8335L365.6094 580.8335L365.6724 580.5795L365.6724 580.5795L365.7364 580.3255L365.7364 580.3255L365.7994 579.9435L365.7994 579.9435L365.7994 579.6255M359.4414 586.6205L359.4414 579.3715M345.8334 586.6205L359.4414 586.6205M342.5904 538.5485L342.5904 586.6205M293.9464 538.5485L342.5904 538.5485" stroke="#0A74BC" stroke-width="1.8" stroke-linecap="round" fill="none" /><path id="1961" transform="matrix(1 0 0 -1 0 792)" d="M390.3976 539.0972L374.4796 548.2642" stroke="#46785D" stroke-width="1" fill="none" /><path id="1962" transform="matrix(1 0 0 -1 0 792)" d="M373.5246 545.7734L370.6886 550.4474L376.1546 550.3404z" stroke="none" fill="#46785D" fill-rule="nonzero" /><path id="1989" transform="matrix(1 0 0 -1 0 792)" d="M327.584 610.6594L338.686 598.8204" stroke="#221E1F" stroke-width="1.017" fill="none" /><path id="1990" transform="matrix(1 0 0 -1 0 792)" d="M340.3357 600.9412L341.6997 595.6072L336.4647 597.3112z" stroke="none" fill="#221E1F" fill-rule="nonzero" /><path id="1991" transform="matrix(1 0 0 -1 0 792)" d="M376.2073 611.1044L355.8683 591.6514" stroke="#221E1F" stroke-width="1.017" fill="none" /><path id="1992" transform="matrix(1 0 0 -1 0 792)" d="M358.0038 590.0236L352.6858 588.6076L354.3368 593.8576z" stroke="none" fill="#221E1F" fill-rule="nonzero" /><path id="2032" transform="matrix(1 0 0 -1 0 792)" d="M178.0212 717.3995L178.0212 687.9635M183.3662 687.9635L172.4292 687.9635M172.4292 684.3165L183.3662 684.3165" stroke="#221E1F" stroke-width="1" fill="none" /><g clip-path="url(#3)"><path id="2033" transform="matrix(1 0 0 -1 0 792)" d="M180.0368 717.4C 180.0368 718.509 179.1318 719.416 178.0208 719.416C 176.9098 719.416 176.0048 718.509 176.0048 717.4C 176.0048 716.291 176.9098 715.384 178.0208 715.384C 179.1318 715.384 180.0368 716.291 180.0368 717.4" stroke="none" fill="#221E1F" fill-rule="evenodd" /><path id="2034" transform="matrix(1 0 0 -1 0 792)" d="M178.0208 684.3165L178.0208 654.4375" stroke="#221E1F" stroke-width="1" fill="none" /><path id="2035" transform="matrix(1 0 0 -1 0 792)" d="M180.0365 654.4376C 180.0365 653.3286 179.1315 652.4216 178.0205 652.4216C 176.9095 652.4216 176.0045 653.3286 176.0045 654.4376C 176.0045 655.5466 176.9095 656.4536 178.0205 656.4536C 179.1315 656.4536 180.0365 655.5466 180.0365 654.4376" stroke="none" fill="#221E1F" fill-rule="evenodd" /></g><g clip-path="url(#4)"><path id="2044" transform="matrix(1 0 0 -1 0 792)" d="M185.5944 707.9839L186.9114 707.8449L186.9114 707.8449L188.1594 707.6369L188.1594 707.6369L189.3384 707.3599L189.3384 707.3599L190.4474 707.0129L190.4474 707.0129L191.5564 706.6669L191.5564 706.6669L192.0414 706.4589L192.0414 706.4589L192.5274 706.2509L192.5274 706.2509L193.0124 706.0429L193.0124 706.0429L193.4284 705.7649L193.4284 705.7649L193.9134 705.5569L193.9134 705.5569L194.3304 705.2799L194.3304 705.2799L194.6764 705.0719L194.6764 705.0719L195.0924 704.7949L195.0924 704.7949L195.4394 704.5179L195.4394 704.5179L195.7164 704.1709L195.7164 704.1709L196.0634 703.8939L196.0634 703.8939L196.3404 703.6159L196.3404 703.6159L196.6174 703.2699L196.6174 703.2699L196.8254 702.9919L196.8254 702.9919L197.0334 702.6459L197.0334 702.6459L197.2414 702.2989L197.2414 702.2989L197.4494 701.9519L197.4494 701.9519L197.5884 701.6059L197.5884 701.6059L197.6574 701.2589L197.6574 701.2589L197.7964 700.9119L197.7964 700.9119L197.8654 700.5659L197.8654 700.5659L197.8654 700.1499" stroke="#221E1F" stroke-width="1" fill="none" /><path id="2045" transform="matrix(1 0 0 -1 0 792)" d="M186.2832 710.561L181.2442 708.442L181.2442 708.442L185.7322 705.3199z" stroke="none" fill="#221E1F" fill-rule="evenodd" /><path id="2046" transform="matrix(1 0 0 -1 0 792)" d="M196.152 674.5408L196.152 674.1248L196.152 674.1248L196.083 673.7088L196.083 673.7088L195.944 673.3628L195.944 673.3628L195.875 672.9468L195.875 672.9468L195.736 672.5998L195.736 672.5998L195.528 672.1838L195.528 672.1838L195.389 671.8368L195.389 671.8368L195.181 671.4908L195.181 671.4908L194.973 671.1438L194.973 671.1438L194.696 670.7968L194.696 670.7968L194.419 670.4507L194.419 670.4507L194.141 670.1038L194.141 670.1038L193.864 669.7578L193.864 669.7578L193.517 669.4798L193.517 669.4798L193.171 669.2028L193.171 669.2028L192.824 668.9258L192.824 668.9258L192.062 668.3708L192.062 668.3708L191.299 667.8857L191.299 667.8857L190.398 667.3998L190.398 667.3998L189.427 666.9838L189.427 666.9838L188.457 666.6378L188.457 666.6378L187.347 666.3608L187.347 666.3608L186.307 666.1518L186.307 666.1518L185.129 665.9438" stroke="#221E1F" stroke-width="1" fill="none" /><path id="2047" transform="matrix(1 0 0 -1 0 792)" d="M185.9958 663.4219L180.8208 665.1839L180.8208 665.1839L185.0798 668.6109z" stroke="none" fill="#221E1F" fill-rule="evenodd" /><path id="2048" transform="matrix(1 0 0 -1 0 792)" d="M347.5494 672.5222L347.5494 657.7502M241.2854 739.9442L226.6984 739.9442M259.2634 700.1172L259.2634 672.3232M256.3194 700.1172L256.3194 672.3232" stroke="#221E1F" stroke-width="1" fill="none" /><path id="2049" transform="matrix(1 0 0 -1 0 792)" d="M349.5656 672.522C 349.5656 673.631 348.6606 674.538 347.5496 674.538C 346.4386 674.538 345.5336 673.631 345.5336 672.522C 345.5336 671.413 346.4386 670.506 347.5496 670.506C 348.6606 670.506 349.5656 671.413 349.5656 672.522" stroke="none" fill="#221E1F" fill-rule="evenodd" /><path id="2050" transform="matrix(1 0 0 -1 0 792)" d="M242.5611 668.647L242.5611 659.174" stroke="#221E1F" stroke-width="1" fill="none" /><path id="2051" transform="matrix(1 0 0 -1 0 792)" d="M245.1959 659.5889L242.5609 654.799L242.5609 654.799L239.9259 659.5889z" stroke="none" fill="#221E1F" fill-rule="evenodd" /></g><g clip-path="url(#5)"><path id="2099" transform="matrix(1 0 0 -1 0 792)" d="M211.8849 606.7119L233.7879 606.7119L233.7879 606.7119L233.7879 624.8649L233.7879 624.8649L223.8489 624.8649M223.8489 630.8389L233.8489 630.8259L233.8489 630.8259L233.8489 624.3479M223.8489 636.791L233.8489 636.791L233.8489 636.791L233.8549 654.7979M223.8489 626.2399L223.8489 621.7399M223.8489 633.0889L223.8489 628.5889M223.8489 639.6649L223.8489 635.1649M220.5989 639.7399L220.5989 624.8649L220.5989 624.8649L211.9739 624.8649" stroke="#221E1F" stroke-width="1" fill="none" /><path id="2100" transform="matrix(1 0 0 -1 0 792)" d="M224.018 630.8157L230.599 632.2827L230.599 632.2827L230.6 629.3157z" stroke="none" fill="#221E1F" fill-rule="evenodd" /><path id="2101" transform="matrix(1 0 0 -1 0 792)" d="M224.018 630.8157L230.599 632.2827L230.599 632.2827L230.6 629.3157L230.6 629.3157L224.018 630.8157z" stroke="#221E1F" stroke-width="0.6" fill="none" /><path id="2102" transform="matrix(1 0 0 -1 0 792)" d="M233.8545 557.4991L233.8285 573.7951L233.8285 573.7951L238.2065 575.0921L238.2065 575.0921L229.4415 577.6901L229.4415 577.6901L238.2065 580.2891L238.2065 580.2891L229.4415 582.8851L229.4415 582.8851L238.2065 585.4831L238.2065 585.4831L229.4415 588.0811L229.4415 588.0811L233.8265 589.3791L233.8265 589.3791L233.8265 606.7111" stroke="#221E1F" stroke-width="1" fill="none" /><path id="2103" transform="matrix(1 0 0 -1 0 792)" d="M231.8104 606.7114C 231.8104 607.8204 232.7154 608.7274 233.8264 608.7274C 234.9374 608.7274 235.8424 607.8204 235.8424 606.7114C 235.8424 605.6024 234.9374 604.6954 233.8264 604.6954C 232.7154 604.6954 231.8104 605.6024 231.8104 606.7114" stroke="none" fill="#221E1F" fill-rule="evenodd" /><path id="2104" transform="matrix(1 0 0 -1 0 792)" d="M178.0208 655.0389L126.3498 655.0249L126.3498 655.0249L126.3488 678.9569L126.3488 678.9569L121.9718 680.2549L121.9718 680.2549L130.7358 682.8519L130.7358 682.8519L121.9718 685.4519L121.9718 685.4519L130.7358 688.0479L130.7358 688.0479L121.9718 690.6459L121.9718 690.6459L130.7358 693.2429L130.7358 693.2429L126.3508 694.5409L126.3508 694.5409L126.3508 717.6589L126.3508 717.6589L178.2128 717.6589M319.2598 672.6309L367.8578 672.6309L367.8578 672.6309L367.8588 678.9569L367.8588 678.9569L372.2358 680.2549L372.2358 680.2549L363.4708 682.8519L363.4708 682.8519L372.2358 685.4519L372.2358 685.4519L363.4708 688.0479L363.4708 688.0479L372.2358 690.6459L372.2358 690.6459L363.4708 693.2429L363.4708 693.2429L367.8568 694.5409L367.8568 694.5409L367.8568 700.1779L367.8568 700.1779L319.4008 700.1779" stroke="#221E1F" stroke-width="1" fill="none" /><path id="2105" transform="matrix(1 0 0 -1 0 792)" d="M353.9048 657.8433L341.2488 657.8433L341.2488 657.8433L347.5768 647.5773z" stroke="none" fill="#FFFFFF" fill-rule="evenodd" /><path id="2106" transform="matrix(1 0 0 -1 0 792)" d="M353.9048 657.8433L341.2488 657.8433L341.2488 657.8433L347.5768 647.5773L347.5768 647.5773L353.9048 657.8433z" stroke="#221E1F" stroke-width="1" fill="none" /><path id="2107" transform="matrix(1 0 0 -1 0 792)" d="M308.6084 700.1782L299.5984 695.8082L299.5984 695.8082L299.5984 704.5482z" stroke="none" fill="#221E1F" fill-rule="evenodd" /><path id="2108" transform="matrix(1 0 0 -1 0 792)" d="M204.2177 655.0392L213.2277 650.6692L213.2277 650.6692L213.2277 659.4092z" stroke="none" fill="#221E1F" fill-rule="evenodd" /><path id="2109" transform="matrix(1 0 0 -1 0 792)" d="M204.173 650.5997L204.173 659.3497M308.653 695.7386L308.653 704.4886M203.736 655.0387L178.021 655.0387M309.09 700.1777L326.918 700.1777" stroke="#221E1F" stroke-width="1" fill="none" /><path id="2110" transform="matrix(1 0 0 -1 0 792)" d="M233.8548 654.799L233.8548 672.6309L233.8548 672.6309L250.2528 672.6309C 252.1538 672.6309 253.7488 674.1729 253.7488 676.0729C 253.7488 677.9749 252.2068 679.5109 250.3058 679.5109C 252.2068 679.5109 253.7488 681.0479 253.7488 682.9479C 253.7488 684.8499 252.2068 686.3859 250.3058 686.3859C 252.2068 686.3859 253.7488 687.9229 253.7488 689.8229C 253.7488 691.7249 252.2068 693.2699 250.3058 693.2699C 252.2068 693.2699 253.7488 694.8139 253.7488 696.7159C 253.7488 698.6159 252.2068 700.1779 250.3058 700.1779L250.3058 700.1779L233.8548 700.1779L233.8548 700.1779L233.8548 739.9319M319.2598 672.6309L265.5068 672.6309C 263.6058 672.6309 262.0638 674.1729 262.0638 676.0729C 262.0638 677.9749 263.6058 679.5109 265.5068 679.5109C 263.6058 679.5109 262.0638 681.0479 262.0638 682.9479C 262.0638 684.8499 263.6058 686.3859 265.5068 686.3859C 263.6058 686.3859 262.0638 687.9229 262.0638 689.8229C 262.0638 691.7249 263.6058 693.2699 265.5068 693.2699C 263.6058 693.2699 262.0638 694.8139 262.0638 696.7159C 262.0638 698.6159 263.6058 700.1779 265.5068 700.1779L265.5068 700.1779L299.5988 700.1779" stroke="#221E1F" stroke-width="1" stroke-linecap="round" fill="none" /><path id="2111" transform="matrix(1 0 0 -1 0 792)" d="M331.2468 699.9278L331.2468 687.9668M336.7158 687.9658L325.7778 687.9658M230.0938 554.7658L237.7508 554.7658M232.8288 552.0298L235.0168 552.0298M227.3598 557.4988L240.4848 557.4988" stroke="#221E1F" stroke-width="1" fill="none" /><path id="2112" transform="matrix(1 0 0 -1 0 792)" d="M333.263 699.9279C 333.263 701.0369 332.358 701.9439 331.247 701.9439C 330.136 701.9439 329.231 701.0369 329.231 699.9279C 329.231 698.8189 330.136 697.9119 331.247 697.9119C 332.358 697.9119 333.263 698.8189 333.263 699.9279" stroke="none" fill="#221E1F" fill-rule="evenodd" /><path id="2113" transform="matrix(1 0 0 -1 0 792)" d="M331.247 684.3663L331.247 672.4053" stroke="#221E1F" stroke-width="1" fill="none" /><path id="2114" transform="matrix(1 0 0 -1 0 792)" d="M333.263 672.4048C 333.263 671.2958 332.358 670.3888 331.247 670.3888C 330.136 670.3888 329.231 671.2958 329.231 672.4048C 329.231 673.5138 330.136 674.4208 331.247 674.4208C 332.358 674.4208 333.263 673.5138 333.263 672.4048" stroke="none" fill="#221E1F" fill-rule="evenodd" /><path id="2115" transform="matrix(1 0 0 -1 0 792)" d="M336.7417 682.8359C 335.1257 683.7798 333.2447 684.3209 331.2367 684.3209C 329.2457 684.3209 327.3807 683.7899 325.7717 682.8599" stroke="#221E1F" stroke-width="1" fill="none" /><path id="2116" transform="matrix(1 0 0 -1 0 792)" d="M250.0332 698.1074C 250.8392 698.1074 251.4932 697.4534 251.4932 696.6474C 251.4932 695.8414 250.8392 695.1884 250.0332 695.1884C 249.2272 695.1884 248.5732 695.8414 248.5732 696.6474C 248.5732 697.4534 249.2272 698.1074 250.0332 698.1074" stroke="none" fill="#221E1F" fill-rule="evenodd" /><path id="2117" transform="matrix(1 0 0 -1 0 792)" d="M250.0332 698.1074C 250.8392 698.1074 251.4932 697.4534 251.4932 696.6474C 251.4932 695.8414 250.8392 695.1884 250.0332 695.1884C 249.2272 695.1884 248.5732 695.8414 248.5732 696.6474C 248.5732 697.4534 249.2272 698.1074 250.0332 698.1074z" stroke="#221E1F" stroke-width="1" fill="none" /><path id="2118" transform="matrix(1 0 0 -1 0 792)" d="M265.8282 677.4423C 266.6342 677.4423 267.2882 676.7883 267.2882 675.9823C 267.2882 675.1773 266.6342 674.5233 265.8282 674.5233C 265.0222 674.5233 264.3682 675.1773 264.3682 675.9823C 264.3682 676.7883 265.0222 677.4423 265.8282 677.4423" stroke="none" fill="#221E1F" fill-rule="evenodd" /><path id="2119" transform="matrix(1 0 0 -1 0 792)" d="M265.8282 677.4423C 266.6342 677.4423 267.2882 676.7883 267.2882 675.9823C 267.2882 675.1773 266.6342 674.5233 265.8282 674.5233C 265.0222 674.5233 264.3682 675.1773 264.3682 675.9823C 264.3682 676.7883 265.0222 677.4423 265.8282 677.4423z" stroke="#221E1F" stroke-width="1" fill="none" /><path id="2120" transform="matrix(1 0 0 -1 0 792)" d="M178.5055 717.6589L233.8545 717.6589" stroke="#221E1F" stroke-width="1" fill="none" /><path id="2121" transform="matrix(1 0 0 -1 0 792)" d="M233.8545 719.6749C 234.9635 719.6749 235.8705 718.7699 235.8705 717.6589C 235.8705 716.5479 234.9635 715.6429 233.8545 715.6429C 232.7455 715.6429 231.8385 716.5479 231.8385 717.6589C 231.8385 718.7699 232.7455 719.6749 233.8545 719.6749" stroke="none" fill="#221E1F" fill-rule="evenodd" /><path id="2122" transform="matrix(1 0 0 -1 0 792)" d="M233.8545 655.0388L213.1435 655.0488" stroke="#221E1F" stroke-width="1" fill="none" /><path id="2123" transform="matrix(1 0 0 -1 0 792)" d="M233.8537 653.0228C 234.9627 653.0219 235.8697 653.9268 235.8707 655.0378C 235.8707 656.1488 234.9647 657.0538 233.8557 657.0548C 232.7467 657.0558 231.8387 656.1508 231.8387 655.0399C 231.8377 653.9288 232.7447 653.0238 233.8537 653.0228" stroke="none" fill="#221E1F" fill-rule="evenodd" /><path id="2124" transform="matrix(1 0 0 -1 0 792)" d="M320.6667 551.6954L460.9677 551.6954" stroke="#46785D" stroke-width="1" stroke-dasharray="5,3" fill="none" /><path id="2125" transform="matrix(1 0 0 -1 0 792)" d="M441.6292 582.8469L456.0412 590.4109" stroke="#221E1F" stroke-width="1" fill="none" /><path id="2126" transform="matrix(1 0 0 -1 0 792)" d="M440.7726 585.3732L437.7556 580.8142L437.7556 580.8142L443.2216 580.7072z" stroke="none" fill="#221E1F" fill-rule="evenodd" /></g><g clip-path="url(#6)"><path id="2133" transform="matrix(1 0 0 -1 0 792)" d="M478.864 591.6904L489.672 591.6904" stroke="#221E1F" stroke-width="0.4" fill="none" /></g></g></g></svg>