<svg xmlns="http://www.w3.org/2000/svg" xmlns:xlink="http://www.w3.org/1999/xlink" id="body_20" preserveAspectRatio="xMinYMin meet" viewBox="0 0 816 1056"><defs><clipPath id="1"><path id="" clip-rule="evenodd" transform="matrix(1 0 0 1 0 0)" d="M0 792L0 0L0 0L612 0L612 0L612 792L612 792L0 792z" /></clipPath><clipPath id="2"><path id="" clip-rule="evenodd" transform="matrix(1 0 0 1 0 0)" d="M42 722L565.499 722L565.499 722L565.499 39.20099L565.499 39.20099L42 39.20099z" /></clipPath><clipPath id="3"><path id="" clip-rule="evenodd" transform="matrix(1 0 0 1 0 0)" d="M42 722L565.499 722L565.499 722L565.499 39.20099L565.499 39.20099L42 39.20099z" /></clipPath><clipPath id="4"><path id="" clip-rule="evenodd" transform="matrix(1 0 0 1 0 0)" d="M42 722L565.499 722L565.499 722L565.499 39.20099L565.499 39.20099L42 39.20099z" /></clipPath><clipPath id="5"><path id="" clip-rule="evenodd" transform="matrix(1 0 0 1 0 0)" d="M42 722L565.499 722L565.499 722L565.499 39.20099L565.499 39.20099L42 39.20099z" /></clipPath><clipPath id="6"><path id="" clip-rule="evenodd" transform="matrix(1 0 0 1 0 0)" d="M107.972 192.133L505.101 192.133L505.101 192.133L505.101 39.20099L505.101 39.20099L107.972 39.20099z" /></clipPath><clipPath id="7"><path id="" clip-rule="evenodd" transform="matrix(1 0 0 1 0 0)" d="M107.972 192.133L505.101 192.133L505.101 192.133L505.101 39.20099L505.101 39.20099L107.972 39.20099z" /></clipPath><clipPath id="8"><path id="" clip-rule="evenodd" transform="matrix(1 0 0 1 0 0)" d="M107.972 192.133L505.101 192.133L505.101 192.133L505.101 39.20099L505.101 39.20099L107.972 39.20099z" /></clipPath><clipPath id="9"><path id="" clip-rule="evenodd" transform="matrix(1 0 0 1 0 0)" d="M107.972 192.133L505.101 192.133L505.101 192.133L505.101 39.20099L505.101 39.20099L107.972 39.20099z" /></clipPath><clipPath id="10"><path id="" clip-rule="evenodd" transform="matrix(1 0 0 1 0 0)" d="M107.972 192.133L505.101 192.133L505.101 192.133L505.101 39.20099L505.101 39.20099L107.972 39.20099z" /></clipPath><clipPath id="11"><path id="" clip-rule="evenodd" transform="matrix(1 0 0 1 0 0)" d="M107.972 192.133L505.101 192.133L505.101 192.133L505.101 39.20099L505.101 39.20099L107.972 39.20099z" /></clipPath><clipPath id="12"><path id="" clip-rule="evenodd" transform="matrix(1 0 0 1 0 0)" d="M107.972 192.133L505.101 192.133L505.101 192.133L505.101 39.20099L505.101 39.20099L107.972 39.20099z" /></clipPath><clipPath id="13"><path id="" clip-rule="evenodd" transform="matrix(1 0 0 1 0 0)" d="M107.972 192.133L505.101 192.133L505.101 192.133L505.101 39.20099L505.101 39.20099L107.972 39.20099z" /></clipPath><clipPath id="14"><path id="" clip-rule="evenodd" transform="matrix(1 0 0 1 0 0)" d="M107.972 192.133L505.101 192.133L505.101 192.133L505.101 39.20099L505.101 39.20099L107.972 39.20099z" /></clipPath><clipPath id="15"><path id="" clip-rule="evenodd" transform="matrix(1 0 0 1 0 0)" d="M302.536 700L558.536 700L558.536 700L558.536 455L558.536 455L302.536 455z" /></clipPath></defs><g transform="matrix(1.333333 0 0 1.333333 0 0)"><g clip-path="url(#1)"><path id="1" transform="matrix(1 0 0 -1 0 792)" d="M54 39.5055L558 39.5055" stroke="#221E1F" stroke-width="0.5" fill="none" /><path id="30" transform="matrix(1 0 0 -1 0 792)" d="M42 70L565.499 70L565.499 752.799L42 752.799z" stroke="none" fill="#FFFFFF" fill-rule="nonzero" /><g clip-path="url(#2)"></g><g clip-path="url(#3)"></g><g clip-path="url(#4)"></g><g clip-path="url(#5)"></g><path id="1678" transform="matrix(1 0 0 -1 0 792)" d="M129.4693 675.9116L154.8713 675.9116L154.8713 728.9786L281.8813 728.9786L281.8813 673.5306L297.1383 673.5306L297.1383 746.6936L109.1393 746.6936L114.2123 740.8016L108.6323 734.2856L113.3923 728.7836L129.4693 728.7836z" stroke="none" fill="#D2D3D5" fill-rule="nonzero" /><g clip-path="url(#6)"><path id="1679" transform="matrix(1 0 0 -1 0 792)" d="M129.4693 675.9116L154.8713 675.9116L154.8713 675.9116L154.8713 728.9786L154.8713 728.9786L281.8813 728.9786L281.8813 728.9786L281.8813 673.5306L281.8813 673.5306L297.1383 673.5306L297.1383 673.5306L297.1383 746.6936L297.1383 746.6936L109.1393 746.6936L109.1393 746.6936L114.2123 740.8016L114.2123 740.8016L108.6323 734.2856L108.6323 734.2856L113.3923 728.7836L113.3923 728.7836L129.4693 728.7836L129.4693 728.7836L129.4693 675.9116z" stroke="#221E1F" stroke-width="1" fill="none" /></g><path id="1680" transform="matrix(1 0 0 -1 0 792)" d="M129.4693 675.9116L154.8713 675.9116L154.8713 728.9786L281.8813 728.9786L281.8813 673.5306L297.1383 673.5306L297.1383 746.6936L109.1393 746.6936L114.2123 740.8016L108.6323 734.2856L113.3923 728.7836L129.4693 728.7836z" stroke="none" fill="#D2D3D5" fill-rule="nonzero" /><g clip-path="url(#7)"><path id="1681" transform="matrix(1 0 0 -1 0 792)" d="M129.4693 675.9116L154.8713 675.9116L154.8713 675.9116L154.8713 728.9786L154.8713 728.9786L281.8813 728.9786L281.8813 728.9786L281.8813 673.5306L281.8813 673.5306L297.1383 673.5306L297.1383 673.5306L297.1383 746.6936L297.1383 746.6936L109.1393 746.6936L109.1393 746.6936L114.2123 740.8016L114.2123 740.8016L108.6323 734.2856L108.6323 734.2856L113.3923 728.7836L113.3923 728.7836L129.4693 728.7836L129.4693 728.7836L129.4693 675.9116z" stroke="#221E1F" stroke-width="1" fill="none" /></g><path id="1682" transform="matrix(1 0 0 -1 0 792)" d="M129.4693 671.1895L154.8713 671.1895L154.8713 618.0825L281.8813 618.0825L281.8813 673.5305L297.1383 673.5305L297.1383 600.3675L109.1393 600.3675L114.2123 606.2985L108.6323 612.7765L113.3923 618.2775L129.4693 618.2775z" stroke="none" fill="#D2D3D5" fill-rule="nonzero" /><g clip-path="url(#8)"><path id="1683" transform="matrix(1 0 0 -1 0 792)" d="M129.4693 671.1895L154.8713 671.1895L154.8713 671.1895L154.8713 618.0825L154.8713 618.0825L281.8813 618.0825L281.8813 618.0825L281.8813 673.5305L281.8813 673.5305L297.1383 673.5305L297.1383 673.5305L297.1383 600.3675L297.1383 600.3675L109.1393 600.3675L109.1393 600.3675L114.2123 606.2985L114.2123 606.2985L108.6323 612.7765L108.6323 612.7765L113.3923 618.2775L113.3923 618.2775L129.4693 618.2775L129.4693 618.2775L129.4693 671.1895z" stroke="#221E1F" stroke-width="1" fill="none" /></g><path id="1684" transform="matrix(1 0 0 -1 0 792)" d="M129.4693 671.1895L154.8713 671.1895L154.8713 618.0825L281.8813 618.0825L281.8813 673.5305L297.1383 673.5305L297.1383 600.3675L109.1393 600.3675L114.2123 606.2985L108.6323 612.7765L113.3923 618.2775L129.4693 618.2775z" stroke="none" fill="#D2D3D5" fill-rule="nonzero" /><g clip-path="url(#9)"><path id="1685" transform="matrix(1 0 0 -1 0 792)" d="M210.7863 623.9745L226.9023 623.9745L226.9023 623.9745L226.9023 724.2565L226.9023 724.2565L210.7863 724.2565zM231.6233 623.9745L252.8893 623.9745L252.8893 623.9745L252.8893 724.2565L252.8893 724.2565L231.6233 724.2565zM162.6363 623.9745L183.8633 623.9745L183.8633 623.9745L183.8633 724.2565L183.8633 724.2565L162.6363 724.2565zM188.9743 623.6625L205.0903 623.6625L205.0903 623.6625L205.0903 723.9445L205.0903 723.9445L188.9743 723.9445zM256.2453 623.3895L275.7173 623.3895L275.7173 623.3895L275.7173 723.6715L275.7173 723.6715L256.2453 723.6715zM129.4693 671.1895L154.8713 671.1895L154.8713 671.1895L154.8713 618.0825L154.8713 618.0825L281.8813 618.0825L281.8813 618.0825L281.8813 673.5305L281.8813 673.5305L297.1383 673.5305L297.1383 673.5305L297.1383 600.3675L297.1383 600.3675L109.1393 600.3675L109.1393 600.3675L114.2123 606.2985L114.2123 606.2985L108.6323 612.7765L108.6323 612.7765L113.3923 618.2775L113.3923 618.2775L129.4693 618.2775L129.4693 618.2775L129.4693 671.1895z" stroke="#221E1F" stroke-width="1" fill="none" /></g><path id="1686" transform="matrix(1 0 0 -1 0 792)" d="M336.9688 675.9116L362.3708 675.9116L362.3708 728.9786L489.3428 728.9786L489.3428 673.5306L504.5998 673.5306L504.5998 746.6936L316.6398 746.6936L321.7118 740.8016L316.1318 734.2856L320.8538 728.7836L336.9688 728.7836z" stroke="none" fill="#D2D3D5" fill-rule="nonzero" /><g clip-path="url(#10)"><path id="1687" transform="matrix(1 0 0 -1 0 792)" d="M336.9688 675.9116L362.3708 675.9116L362.3708 675.9116L362.3708 728.9786L362.3708 728.9786L489.3428 728.9786L489.3428 728.9786L489.3428 673.5306L489.3428 673.5306L504.5998 673.5306L504.5998 673.5306L504.5998 746.6936L504.5998 746.6936L316.6398 746.6936L316.6398 746.6936L321.7118 740.8016L321.7118 740.8016L316.1318 734.2856L316.1318 734.2856L320.8538 728.7836L320.8538 728.7836L336.9688 728.7836L336.9688 728.7836L336.9688 675.9116z" stroke="#221E1F" stroke-width="1" fill="none" /></g><path id="1688" transform="matrix(1 0 0 -1 0 792)" d="M336.9688 675.9116L362.3708 675.9116L362.3708 728.9786L489.3428 728.9786L489.3428 673.5306L504.5998 673.5306L504.5998 746.6936L316.6398 746.6936L321.7118 740.8016L316.1318 734.2856L320.8538 728.7836L336.9688 728.7836z" stroke="none" fill="#D2D3D5" fill-rule="nonzero" /><g clip-path="url(#11)"><path id="1689" transform="matrix(1 0 0 -1 0 792)" d="M336.9688 675.9116L362.3708 675.9116L362.3708 675.9116L362.3708 728.9786L362.3708 728.9786L489.3428 728.9786L489.3428 728.9786L489.3428 673.5306L489.3428 673.5306L504.5998 673.5306L504.5998 673.5306L504.5998 746.6936L504.5998 746.6936L316.6398 746.6936L316.6398 746.6936L321.7118 740.8016L321.7118 740.8016L316.1318 734.2856L316.1318 734.2856L320.8538 728.7836L320.8538 728.7836L336.9688 728.7836L336.9688 728.7836L336.9688 675.9116z" stroke="#221E1F" stroke-width="1" fill="none" /></g><path id="1690" transform="matrix(1 0 0 -1 0 792)" d="M336.9688 671.1895L362.3708 671.1895L362.3708 618.0825L489.3428 618.0825L489.3428 673.5305L504.5998 673.5305L504.5998 600.3675L316.6398 600.3675L321.7118 606.2985L316.1318 612.7765L320.8538 618.2775L336.9688 618.2775z" stroke="none" fill="#D2D3D5" fill-rule="nonzero" /><g clip-path="url(#12)"><path id="1691" transform="matrix(1 0 0 -1 0 792)" d="M336.9688 671.1895L362.3708 671.1895L362.3708 671.1895L362.3708 618.0825L362.3708 618.0825L489.3428 618.0825L489.3428 618.0825L489.3428 673.5305L489.3428 673.5305L504.5998 673.5305L504.5998 673.5305L504.5998 600.3675L504.5998 600.3675L316.6398 600.3675L316.6398 600.3675L321.7118 606.2985L321.7118 606.2985L316.1318 612.7765L316.1318 612.7765L320.8538 618.2775L320.8538 618.2775L336.9688 618.2775L336.9688 618.2775L336.9688 671.1895z" stroke="#221E1F" stroke-width="1" fill="none" /></g><path id="1692" transform="matrix(1 0 0 -1 0 792)" d="M336.9688 671.1895L362.3708 671.1895L362.3708 618.0825L489.3428 618.0825L489.3428 673.5305L504.5998 673.5305L504.5998 600.3675L316.6398 600.3675L321.7118 606.2985L316.1318 612.7765L320.8538 618.2775L336.9688 618.2775z" stroke="none" fill="#D2D3D5" fill-rule="nonzero" /><g clip-path="url(#13)"><path id="1693" transform="matrix(1 0 0 -1 0 792)" d="M442.6748 623.5455L458.7898 623.5455L458.7898 623.5455L458.7898 723.8275L458.7898 723.8275L442.6748 723.8275zM396.0448 623.9745L417.3118 623.9745L417.3118 623.9745L417.3118 724.2565L417.3118 724.2565L396.0448 724.2565zM370.0968 623.9745L391.3248 623.9745L391.3248 623.9745L391.3248 724.2565L391.3248 724.2565L370.0968 724.2565zM422.0338 623.9745L438.1488 623.9745L438.1488 623.9745L438.1488 724.2565L438.1488 724.2565L422.0338 724.2565zM463.7068 623.3895L483.1778 623.3895L483.1778 623.3895L483.1778 723.6715L483.1778 723.6715L463.7068 723.6715zM336.9688 671.1895L362.3708 671.1895L362.3708 671.1895L362.3708 618.0825L362.3708 618.0825L489.3428 618.0825L489.3428 618.0825L489.3428 673.5305L489.3428 673.5305L504.5998 673.5305L504.5998 673.5305L504.5998 600.3675L504.5998 600.3675L316.6398 600.3675L316.6398 600.3675L321.7118 606.2985L321.7118 606.2985L316.1318 612.7765L316.1318 612.7765L320.8538 618.2775L320.8538 618.2775L336.9688 618.2775L336.9688 618.2775L336.9688 671.1895z" stroke="#221E1F" stroke-width="1" fill="none" /></g><path id="1694" transform="matrix(1 0 0 -1 0 792)" d="M177.1593 654.6144L174.7293 654.6144L174.7293 654.6144L174.7293 655.4604C 174.7293 656.0364 174.7113 656.4864 174.6393 656.8104C 174.5913 657.0264 174.4893 657.2604 174.3333 657.4764C 174.1893 657.6924 173.9703 657.8814 173.6943 658.0254C 173.4303 658.1694 173.0913 658.2414 172.6953 658.2414C 172.1913 658.2414 171.7683 658.1124 171.4443 657.8724C 171.1203 657.6204 170.9103 657.3054 170.8143 656.9454C 170.7543 656.6934 170.7153 656.1894 170.7153 655.3974L170.7153 655.3974L170.7153 653.3094L170.7153 653.3094L177.1593 653.3094zM171.8043 655.2444C 171.8043 655.7004 171.8253 656.0154 171.8493 656.1714C 171.8853 656.3874 171.9933 656.5494 172.1373 656.6934C 172.2933 656.8254 172.4823 656.9004 172.7223 656.9004C 172.9143 656.9004 173.0733 656.8524 173.2173 656.7564C 173.3613 656.6484 173.4693 656.5194 173.5413 656.3514C 173.6133 656.1714 173.6403 655.8294 173.6403 655.3254L173.6403 655.3254L173.6403 654.6144L173.6403 654.6144L171.8043 654.6144z" stroke="none" fill="#070606" fill-rule="evenodd" /><path id="1695" transform="matrix(1 0 0 -1 0 792)" d="M175.7193 660.4824C 174.9273 660.4824 174.4053 660.5094 174.1533 660.5814C 173.9133 660.6534 173.7363 660.7494 173.6403 660.8694C 173.5443 660.9774 173.4963 661.1304 173.4963 661.3104C 173.4963 661.4904 173.5623 661.6794 173.6943 661.8954L173.6943 661.8954L172.6233 662.2734C 172.4793 662.0094 172.3893 661.7424 172.3893 661.4544C 172.3893 661.2504 172.4373 661.0674 172.5333 660.9234C 172.6413 660.7674 172.8423 660.5844 173.1543 660.3924L173.1543 660.3924L172.4883 660.3924L172.4883 660.3924L172.4883 659.2494L172.4883 659.2494L177.1593 659.2494L177.1593 659.2494L177.1593 660.4824z" stroke="none" fill="#070606" fill-rule="evenodd" /><path id="1696" transform="matrix(1 0 0 -1 0 792)" d="M171.8583 664.0374L170.7153 664.0374L170.7153 664.0374L170.7153 662.8044L170.7153 662.8044L171.8583 662.8044zM177.1593 664.0374L172.4883 664.0374L172.4883 664.0374L172.4883 662.8044L172.4883 662.8044L177.1593 662.8044z" stroke="none" fill="#070606" fill-rule="evenodd" /><path id="1697" transform="matrix(1 0 0 -1 0 792)" d="M177.1593 665.2164L177.1593 666.4494L177.1593 666.4494L174.8913 666.4494C 174.4473 666.4494 174.1323 666.4764 173.9283 666.5484C 173.7483 666.6084 173.5953 666.7164 173.4873 666.8724C 173.3913 667.0164 173.3343 667.1934 173.3343 667.3854C 173.3343 667.5414 173.3733 667.6674 173.4333 667.7634C 173.5053 667.8474 173.6013 667.9224 173.7213 667.9704C 173.8653 668.0064 174.1593 668.0334 174.6033 668.0334L174.6033 668.0334L177.1593 668.0334L177.1593 668.0334L177.1593 669.2664L177.1593 669.2664L174.9183 669.2664C 174.4863 669.2664 174.1713 669.2934 173.9553 669.3654C 173.7513 669.4374 173.6043 669.5424 173.4963 669.6984C 173.3883 669.8424 173.3343 670.0044 173.3343 670.1844C 173.3343 670.4244 173.4273 670.5954 173.5953 670.7154C 173.7393 670.7874 174.0273 670.8414 174.4953 670.8414L174.4953 670.8414L177.1593 670.8414L177.1593 670.8414L177.1593 672.0744L177.1593 672.0744L174.1803 672.0744C 173.7363 672.0744 173.4123 672.0204 173.2083 671.9484C 172.9443 671.8284 172.7403 671.6454 172.5963 671.4174C 172.4643 671.1654 172.3893 670.8804 172.3893 670.5444C 172.3893 670.2684 172.4583 670.0164 172.5783 669.7884C 172.6983 669.5364 172.8843 669.3264 173.1363 669.1224C 172.8843 668.9784 172.6983 668.7984 172.5783 668.5824C 172.4583 668.3544 172.3893 668.0964 172.3893 667.8084C 172.3893 667.2324 172.6353 666.7464 173.1273 666.3504L173.1273 666.3504L172.4883 666.3504L172.4883 666.3504L172.4883 665.2164z" stroke="none" fill="#070606" fill-rule="evenodd" /><path id="1698" transform="matrix(1 0 0 -1 0 792)" d="M173.4693 674.5224C 173.3853 674.6424 173.3343 674.8164 173.3343 675.0444C 173.3343 675.3684 173.3913 675.5814 173.4873 675.7014C 173.5953 675.8094 173.7603 675.8814 174.0003 675.8814L174.0003 675.8814L174.1263 675.8814C 174.2223 675.6534 174.3243 675.2604 174.4323 674.6844C 174.5163 674.2524 174.6123 673.9194 174.7203 673.7034C 174.8283 673.4754 174.9843 673.2924 175.1883 673.1724C 175.4043 673.0404 175.6353 672.9834 175.8993 672.9834C 176.2953 672.9834 176.6373 673.1094 176.8893 673.3974C 177.1533 673.6734 177.2763 674.0514 177.2763 674.5314C 177.2763 674.7954 177.2193 675.0444 177.1233 675.2964C 177.0153 675.5364 176.8713 675.7554 176.6553 675.9714C 176.6913 675.9714 176.7273 675.9924 176.7993 676.0164C 176.9673 676.0524 177.0873 676.0974 177.1593 676.1334L177.1593 676.1334L177.1593 677.3574C 176.9433 677.2494 176.7333 677.1774 176.5293 677.1414C 176.3493 677.0934 176.0373 677.0784 175.6293 677.0784L175.6293 677.0784L174.1893 677.0964C 173.6493 677.0964 173.2863 677.0424 173.0823 676.9344C 172.8903 676.8144 172.7193 676.6224 172.5873 676.3584C 172.4553 676.0824 172.3893 675.6744 172.3893 675.1344C 172.3893 674.5224 172.5063 674.0574 172.7223 673.7574C 172.9383 673.4454 173.2743 673.2294 173.7303 673.1094L173.7303 673.1094L173.9283 674.2254C 173.7123 674.2974 173.5533 674.4024 173.4693 674.5224zM175.1703 675.8814C 175.4703 675.8814 175.6653 675.8604 175.7733 675.8364C 175.9413 675.7764 176.0793 675.6834 176.1873 675.5394C 176.3313 675.3234 176.4033 675.1164 176.4033 674.9004C 176.4033 674.6964 176.3463 674.5374 176.2143 674.4054C 176.0943 674.2734 175.9443 674.2164 175.7643 674.2164C 175.5963 674.2164 175.4523 674.2914 175.3323 674.4594C 175.2603 674.5674 175.1883 674.7744 175.1163 675.1344C 175.0443 675.4704 174.9873 675.7134 174.9273 675.8814z" stroke="none" fill="#070606" fill-rule="evenodd" /><path id="1699" transform="matrix(1 0 0 -1 0 792)" d="M175.7193 679.4904C 174.9273 679.4904 174.4053 679.5174 174.1533 679.5894C 173.9133 679.6614 173.7363 679.7574 173.6403 679.8774C 173.5443 679.9854 173.4963 680.1384 173.4963 680.3184C 173.4963 680.4984 173.5623 680.6874 173.6943 680.9034L173.6943 680.9034L172.6233 681.2814C 172.4793 681.0174 172.3893 680.7504 172.3893 680.4624C 172.3893 680.2584 172.4373 680.0754 172.5333 679.9314C 172.6413 679.7754 172.8423 679.5924 173.1543 679.4004L173.1543 679.4004L172.4883 679.4004L172.4883 679.4004L172.4883 678.2574L172.4883 678.2574L177.1593 678.2574L177.1593 678.2574L177.1593 679.4904z" stroke="none" fill="#070606" fill-rule="evenodd" /><path id="1700" transform="matrix(1 0 0 -1 0 792)" d="M177.1683 683.0004C 177.4203 682.9164 177.6363 682.8204 177.8163 682.6764C 177.9843 682.5324 178.0683 682.3254 178.0683 682.0374C 178.0683 681.8814 178.0503 681.7074 178.0143 681.5154L178.0143 681.5154L178.9773 681.6234C 179.0133 681.8394 179.0493 682.0734 179.0493 682.3254C 179.0493 682.5534 179.0133 682.7634 178.9773 682.9554C 178.9173 683.1354 178.8423 683.2884 178.7703 683.4324C 178.6743 683.5524 178.5633 683.6574 178.4193 683.7654C 178.2753 683.8614 178.0623 683.9724 177.7983 684.0804L177.7983 684.0804L176.9793 684.3774L176.9793 684.3774L172.4883 686.0244L172.4883 686.0244L172.4883 684.7464L172.4883 684.7464L175.8003 683.6574L175.8003 683.6574L172.4883 682.5324L172.4883 682.5324L172.4883 681.2184z" stroke="none" fill="#070606" fill-rule="evenodd" /><path id="1702" transform="matrix(1 0 0 -1 0 792)" d="M170.7153 692.5494L170.7153 691.1724L170.7153 691.1724L177.1593 688.6704L177.1593 688.6704L177.1593 690.0474L177.1593 690.0474L175.6923 690.5874L175.6923 690.5874L175.6923 693.1704L175.6923 693.1704L177.1593 693.7284L177.1593 693.7284L177.1593 695.1324zM174.6033 690.9834L172.2183 691.8564L172.2183 691.8564L174.6033 692.7474z" stroke="none" fill="#070606" fill-rule="evenodd" /><path id="1703" transform="matrix(1 0 0 -1 0 792)" d="M383.8713 654.6144L381.4413 654.6144L381.4413 654.6144L381.4413 655.4604C 381.4413 656.0364 381.4233 656.4864 381.3513 656.8104C 381.3033 657.0264 381.2013 657.2604 381.0453 657.4764C 380.9013 657.6924 380.6823 657.8814 380.4063 658.0254C 380.1423 658.1694 379.8033 658.2414 379.4073 658.2414C 378.9033 658.2414 378.4803 658.1124 378.1563 657.8724C 377.8323 657.6204 377.6223 657.3054 377.5263 656.9454C 377.4663 656.6934 377.4273 656.1894 377.4273 655.3974L377.4273 655.3974L377.4273 653.3094L377.4273 653.3094L383.8713 653.3094zM378.5163 655.2444C 378.5163 655.7004 378.5373 656.0154 378.5613 656.1714C 378.5973 656.3874 378.7053 656.5494 378.8493 656.6934C 379.0053 656.8254 379.1943 656.9004 379.4343 656.9004C 379.6263 656.9004 379.7853 656.8524 379.9293 656.7564C 380.0733 656.6484 380.1813 656.5194 380.2533 656.3514C 380.3253 656.1714 380.3523 655.8294 380.3523 655.3254L380.3523 655.3254L380.3523 654.6144L380.3523 654.6144L378.5163 654.6144z" stroke="none" fill="#070606" fill-rule="evenodd" /><path id="1704" transform="matrix(1 0 0 -1 0 792)" d="M382.4313 660.4824C 381.6393 660.4824 381.1173 660.5094 380.8653 660.5814C 380.6253 660.6534 380.4483 660.7494 380.3523 660.8694C 380.2563 660.9774 380.2083 661.1304 380.2083 661.3104C 380.2083 661.4904 380.2743 661.6794 380.4063 661.8954L380.4063 661.8954L379.3353 662.2734C 379.1913 662.0094 379.1013 661.7424 379.1013 661.4544C 379.1013 661.2504 379.1493 661.0674 379.2453 660.9234C 379.3533 660.7674 379.5543 660.5844 379.8663 660.3924L379.8663 660.3924L379.2003 660.3924L379.2003 660.3924L379.2003 659.2494L379.2003 659.2494L383.8713 659.2494L383.8713 659.2494L383.8713 660.4824z" stroke="none" fill="#070606" fill-rule="evenodd" /><path id="1705" transform="matrix(1 0 0 -1 0 792)" d="M378.5703 664.0374L377.4273 664.0374L377.4273 664.0374L377.4273 662.8044L377.4273 662.8044L378.5703 662.8044zM383.8713 664.0374L379.2003 664.0374L379.2003 664.0374L379.2003 662.8044L379.2003 662.8044L383.8713 662.8044z" stroke="none" fill="#070606" fill-rule="evenodd" /><path id="1706" transform="matrix(1 0 0 -1 0 792)" d="M383.8713 665.2164L383.8713 666.4494L383.8713 666.4494L381.6033 666.4494C 381.1593 666.4494 380.8443 666.4764 380.6403 666.5484C 380.4603 666.6084 380.3073 666.7164 380.1993 666.8724C 380.1033 667.0164 380.0463 667.1934 380.0463 667.3854C 380.0463 667.5414 380.0853 667.6674 380.1453 667.7634C 380.2173 667.8474 380.3133 667.9224 380.4333 667.9704C 380.5773 668.0064 380.8713 668.0334 381.3153 668.0334L381.3153 668.0334L383.8713 668.0334L383.8713 668.0334L383.8713 669.2664L383.8713 669.2664L381.6303 669.2664C 381.1983 669.2664 380.8833 669.2934 380.6673 669.3654C 380.4633 669.4374 380.3163 669.5424 380.2083 669.6984C 380.1003 669.8424 380.0463 670.0044 380.0463 670.1844C 380.0463 670.4244 380.1393 670.5954 380.3073 670.7154C 380.4513 670.7874 380.7393 670.8414 381.2073 670.8414L381.2073 670.8414L383.8713 670.8414L383.8713 670.8414L383.8713 672.0744L383.8713 672.0744L380.8923 672.0744C 380.4483 672.0744 380.1243 672.0204 379.9203 671.9484C 379.6563 671.8284 379.4523 671.6454 379.3083 671.4174C 379.1763 671.1654 379.1013 670.8804 379.1013 670.5444C 379.1013 670.2684 379.1703 670.0164 379.2903 669.7884C 379.4103 669.5364 379.5963 669.3264 379.8483 669.1224C 379.5963 668.9784 379.4103 668.7984 379.2903 668.5824C 379.1703 668.3544 379.1013 668.0964 379.1013 667.8084C 379.1013 667.2324 379.3473 666.7464 379.8393 666.3504L379.8393 666.3504L379.2003 666.3504L379.2003 666.3504L379.2003 665.2164z" stroke="none" fill="#070606" fill-rule="evenodd" /><path id="1707" transform="matrix(1 0 0 -1 0 792)" d="M380.1813 674.5224C 380.0973 674.6424 380.0463 674.8164 380.0463 675.0444C 380.0463 675.3684 380.1033 675.5814 380.1993 675.7014C 380.3073 675.8094 380.4723 675.8814 380.7123 675.8814L380.7123 675.8814L380.8383 675.8814C 380.9343 675.6534 381.0363 675.2604 381.1443 674.6844C 381.2283 674.2524 381.3243 673.9194 381.4323 673.7034C 381.5403 673.4754 381.6963 673.2924 381.9003 673.1724C 382.1163 673.0404 382.3473 672.9834 382.6113 672.9834C 383.0073 672.9834 383.3493 673.1094 383.6013 673.3974C 383.8653 673.6734 383.9883 674.0514 383.9883 674.5314C 383.9883 674.7954 383.9313 675.0444 383.8353 675.2964C 383.7273 675.5364 383.5833 675.7554 383.3673 675.9714C 383.4033 675.9714 383.4393 675.9924 383.5113 676.0164C 383.6793 676.0524 383.7993 676.0974 383.8713 676.1334L383.8713 676.1334L383.8713 677.3574C 383.6553 677.2494 383.4453 677.1774 383.2413 677.1414C 383.0613 677.0934 382.7493 677.0784 382.3413 677.0784L382.3413 677.0784L380.9013 677.0964C 380.3613 677.0964 379.9983 677.0424 379.7943 676.9344C 379.6023 676.8144 379.4313 676.6224 379.2993 676.3584C 379.1673 676.0824 379.1013 675.6744 379.1013 675.1344C 379.1013 674.5224 379.2183 674.0574 379.4343 673.7574C 379.6503 673.4454 379.9863 673.2294 380.4423 673.1094L380.4423 673.1094L380.6403 674.2254C 380.4243 674.2974 380.2653 674.4024 380.1813 674.5224zM381.8823 675.8814C 382.1823 675.8814 382.3773 675.8604 382.4853 675.8364C 382.6533 675.7764 382.7913 675.6834 382.8993 675.5394C 383.0433 675.3234 383.1153 675.1164 383.1153 674.9004C 383.1153 674.6964 383.0583 674.5374 382.9263 674.4054C 382.8063 674.2734 382.6563 674.2164 382.4763 674.2164C 382.3083 674.2164 382.1643 674.2914 382.0443 674.4594C 381.9723 674.5674 381.9003 674.7744 381.8283 675.1344C 381.7563 675.4704 381.6993 675.7134 381.6393 675.8814z" stroke="none" fill="#070606" fill-rule="evenodd" /><path id="1708" transform="matrix(1 0 0 -1 0 792)" d="M382.4313 679.4904C 381.6393 679.4904 381.1173 679.5174 380.8653 679.5894C 380.6253 679.6614 380.4483 679.7574 380.3523 679.8774C 380.2563 679.9854 380.2083 680.1384 380.2083 680.3184C 380.2083 680.4984 380.2743 680.6874 380.4063 680.9034L380.4063 680.9034L379.3353 681.2814C 379.1913 681.0174 379.1013 680.7504 379.1013 680.4624C 379.1013 680.2584 379.1493 680.0754 379.2453 679.9314C 379.3533 679.7754 379.5543 679.5924 379.8663 679.4004L379.8663 679.4004L379.2003 679.4004L379.2003 679.4004L379.2003 678.2574L379.2003 678.2574L383.8713 678.2574L383.8713 678.2574L383.8713 679.4904z" stroke="none" fill="#070606" fill-rule="evenodd" /><path id="1709" transform="matrix(1 0 0 -1 0 792)" d="M383.8803 683.0004C 384.1323 682.9164 384.3483 682.8204 384.5283 682.6764C 384.6963 682.5324 384.7803 682.3254 384.7803 682.0374C 384.7803 681.8814 384.7623 681.7074 384.7263 681.5154L384.7263 681.5154L385.6893 681.6234C 385.7253 681.8394 385.7613 682.0734 385.7613 682.3254C 385.7613 682.5534 385.7253 682.7634 385.6893 682.9554C 385.6293 683.1354 385.5543 683.2884 385.4823 683.4324C 385.3863 683.5524 385.2753 683.6574 385.1313 683.7654C 384.9873 683.8614 384.7743 683.9724 384.5103 684.0804L384.5103 684.0804L383.6913 684.3774L383.6913 684.3774L379.2003 686.0244L379.2003 686.0244L379.2003 684.7464L379.2003 684.7464L382.5123 683.6574L382.5123 683.6574L379.2003 682.5324L379.2003 682.5324L379.2003 681.2184z" stroke="none" fill="#070606" fill-rule="evenodd" /><path id="1711" transform="matrix(1 0 0 -1 0 792)" d="M377.4273 692.5494L377.4273 691.1724L377.4273 691.1724L383.8713 688.6704L383.8713 688.6704L383.8713 690.0474L383.8713 690.0474L382.4043 690.5874L382.4043 690.5874L382.4043 693.1704L382.4043 693.1704L383.8713 693.7284L383.8713 693.7284L383.8713 695.1324zM381.3153 690.9834L378.9303 691.8564L378.9303 691.8564L381.3153 692.7474z" stroke="none" fill="#070606" fill-rule="evenodd" /><path id="1712" transform="matrix(1 0 0 -1 0 792)" d="M244.7673 654.6144L242.3373 654.6144L242.3373 654.6144L242.3373 655.4604C 242.3373 656.0364 242.3193 656.4864 242.2473 656.8104C 242.1993 657.0264 242.0973 657.2604 241.9413 657.4764C 241.7973 657.6924 241.5783 657.8814 241.3023 658.0254C 241.0383 658.1694 240.6993 658.2414 240.3033 658.2414C 239.7993 658.2414 239.3763 658.1124 239.0523 657.8724C 238.7283 657.6204 238.5183 657.3054 238.4223 656.9454C 238.3623 656.6934 238.3233 656.1894 238.3233 655.3974L238.3233 655.3974L238.3233 653.3094L238.3233 653.3094L244.7673 653.3094zM239.4123 655.2444C 239.4123 655.7004 239.4333 656.0154 239.4573 656.1714C 239.4933 656.3874 239.6013 656.5494 239.7453 656.6934C 239.9013 656.8254 240.0903 656.9004 240.3303 656.9004C 240.5223 656.9004 240.6813 656.8524 240.8253 656.7564C 240.9693 656.6484 241.0773 656.5194 241.1493 656.3514C 241.2213 656.1714 241.2483 655.8294 241.2483 655.3254L241.2483 655.3254L241.2483 654.6144L241.2483 654.6144L239.4123 654.6144z" stroke="none" fill="#070606" fill-rule="evenodd" /><path id="1713" transform="matrix(1 0 0 -1 0 792)" d="M243.3273 660.4824C 242.5353 660.4824 242.0133 660.5094 241.7613 660.5814C 241.5213 660.6534 241.3443 660.7494 241.2483 660.8694C 241.1523 660.9774 241.1043 661.1304 241.1043 661.3104C 241.1043 661.4904 241.1703 661.6794 241.3023 661.8954L241.3023 661.8954L240.2313 662.2734C 240.0873 662.0094 239.9973 661.7424 239.9973 661.4544C 239.9973 661.2504 240.0453 661.0674 240.1413 660.9234C 240.2493 660.7674 240.4503 660.5844 240.7623 660.3924L240.7623 660.3924L240.0963 660.3924L240.0963 660.3924L240.0963 659.2494L240.0963 659.2494L244.7673 659.2494L244.7673 659.2494L244.7673 660.4824z" stroke="none" fill="#070606" fill-rule="evenodd" /><path id="1714" transform="matrix(1 0 0 -1 0 792)" d="M239.4663 664.0374L238.3233 664.0374L238.3233 664.0374L238.3233 662.8044L238.3233 662.8044L239.4663 662.8044zM244.7673 664.0374L240.0963 664.0374L240.0963 664.0374L240.0963 662.8044L240.0963 662.8044L244.7673 662.8044z" stroke="none" fill="#070606" fill-rule="evenodd" /><path id="1715" transform="matrix(1 0 0 -1 0 792)" d="M244.7673 665.2164L244.7673 666.4494L244.7673 666.4494L242.4993 666.4494C 242.0553 666.4494 241.7403 666.4764 241.5363 666.5484C 241.3563 666.6084 241.2033 666.7164 241.0953 666.8724C 240.9993 667.0164 240.9423 667.1934 240.9423 667.3854C 240.9423 667.5414 240.9813 667.6674 241.0413 667.7634C 241.1133 667.8474 241.2093 667.9224 241.3293 667.9704C 241.4733 668.0064 241.7673 668.0334 242.2113 668.0334L242.2113 668.0334L244.7673 668.0334L244.7673 668.0334L244.7673 669.2664L244.7673 669.2664L242.5263 669.2664C 242.0943 669.2664 241.7793 669.2934 241.5633 669.3654C 241.3593 669.4374 241.2123 669.5424 241.1043 669.6984C 240.9963 669.8424 240.9423 670.0044 240.9423 670.1844C 240.9423 670.4244 241.0353 670.5954 241.2033 670.7154C 241.3473 670.7874 241.6353 670.8414 242.1033 670.8414L242.1033 670.8414L244.7673 670.8414L244.7673 670.8414L244.7673 672.0744L244.7673 672.0744L241.7883 672.0744C 241.3443 672.0744 241.0203 672.0204 240.8163 671.9484C 240.5523 671.8284 240.3483 671.6454 240.2043 671.4174C 240.0723 671.1654 239.9973 670.8804 239.9973 670.5444C 239.9973 670.2684 240.0663 670.0164 240.1863 669.7884C 240.3063 669.5364 240.4923 669.3264 240.7443 669.1224C 240.4923 668.9784 240.3063 668.7984 240.1863 668.5824C 240.0663 668.3544 239.9973 668.0964 239.9973 667.8084C 239.9973 667.2324 240.2433 666.7464 240.7353 666.3504L240.7353 666.3504L240.0963 666.3504L240.0963 666.3504L240.0963 665.2164z" stroke="none" fill="#070606" fill-rule="evenodd" /><path id="1716" transform="matrix(1 0 0 -1 0 792)" d="M241.0773 674.5224C 240.9933 674.6424 240.9423 674.8164 240.9423 675.0444C 240.9423 675.3684 240.9993 675.5814 241.0953 675.7014C 241.2033 675.8094 241.3683 675.8814 241.6083 675.8814L241.6083 675.8814L241.7343 675.8814C 241.8303 675.6534 241.9323 675.2604 242.0403 674.6844C 242.1243 674.2524 242.2203 673.9194 242.3283 673.7034C 242.4363 673.4754 242.5923 673.2924 242.7963 673.1724C 243.0123 673.0404 243.2433 672.9834 243.5073 672.9834C 243.9033 672.9834 244.2453 673.1094 244.4973 673.3974C 244.7613 673.6734 244.8843 674.0514 244.8843 674.5314C 244.8843 674.7954 244.8273 675.0444 244.7313 675.2964C 244.6233 675.5364 244.4793 675.7554 244.2633 675.9714C 244.2993 675.9714 244.3353 675.9924 244.4073 676.0164C 244.5753 676.0524 244.6953 676.0974 244.7673 676.1334L244.7673 676.1334L244.7673 677.3574C 244.5513 677.2494 244.3413 677.1774 244.1373 677.1414C 243.9573 677.0934 243.6453 677.0784 243.2373 677.0784L243.2373 677.0784L241.7973 677.0964C 241.2573 677.0964 240.8943 677.0424 240.6903 676.9344C 240.4983 676.8144 240.3273 676.6224 240.1953 676.3584C 240.0633 676.0824 239.9973 675.6744 239.9973 675.1344C 239.9973 674.5224 240.1143 674.0574 240.3303 673.7574C 240.5463 673.4454 240.8823 673.2294 241.3383 673.1094L241.3383 673.1094L241.5363 674.2254C 241.3203 674.2974 241.1613 674.4024 241.0773 674.5224zM242.7783 675.8814C 243.0783 675.8814 243.2733 675.8604 243.3813 675.8364C 243.5493 675.7764 243.6873 675.6834 243.7953 675.5394C 243.9393 675.3234 244.0113 675.1164 244.0113 674.9004C 244.0113 674.6964 243.9543 674.5374 243.8223 674.4054C 243.7023 674.2734 243.5523 674.2164 243.3723 674.2164C 243.2043 674.2164 243.0603 674.2914 242.9403 674.4594C 242.8683 674.5674 242.7963 674.7744 242.7243 675.1344C 242.6523 675.4704 242.5953 675.7134 242.5353 675.8814z" stroke="none" fill="#070606" fill-rule="evenodd" /><path id="1717" transform="matrix(1 0 0 -1 0 792)" d="M243.3273 679.4904C 242.5353 679.4904 242.0133 679.5174 241.7613 679.5894C 241.5213 679.6614 241.3443 679.7574 241.2483 679.8774C 241.1523 679.9854 241.1043 680.1384 241.1043 680.3184C 241.1043 680.4984 241.1703 680.6874 241.3023 680.9034L241.3023 680.9034L240.2313 681.2814C 240.0873 681.0174 239.9973 680.7504 239.9973 680.4624C 239.9973 680.2584 240.0453 680.0754 240.1413 679.9314C 240.2493 679.7754 240.4503 679.5924 240.7623 679.4004L240.7623 679.4004L240.0963 679.4004L240.0963 679.4004L240.0963 678.2574L240.0963 678.2574L244.7673 678.2574L244.7673 678.2574L244.7673 679.4904z" stroke="none" fill="#070606" fill-rule="evenodd" /><path id="1718" transform="matrix(1 0 0 -1 0 792)" d="M244.7763 683.0004C 245.0283 682.9164 245.2443 682.8204 245.4243 682.6764C 245.5923 682.5324 245.6763 682.3254 245.6763 682.0374C 245.6763 681.8814 245.6583 681.7074 245.6223 681.5154L245.6223 681.5154L246.5853 681.6234C 246.6213 681.8394 246.6573 682.0734 246.6573 682.3254C 246.6573 682.5534 246.6213 682.7634 246.5853 682.9554C 246.5253 683.1354 246.4503 683.2884 246.3783 683.4324C 246.2823 683.5524 246.1713 683.6574 246.0273 683.7654C 245.8833 683.8614 245.6703 683.9724 245.4063 684.0804L245.4063 684.0804L244.5873 684.3774L244.5873 684.3774L240.0963 686.0244L240.0963 686.0244L240.0963 684.7464L240.0963 684.7464L243.4083 683.6574L243.4083 683.6574L240.0963 682.5324L240.0963 682.5324L240.0963 681.2184z" stroke="none" fill="#070606" fill-rule="evenodd" /><path id="1720" transform="matrix(1 0 0 -1 0 792)" d="M244.7673 689.3274L244.7673 691.5234C 244.7673 692.3514 244.7583 692.8734 244.7223 693.0894C 244.6863 693.4374 244.5963 693.7224 244.4163 693.9624C 244.2603 694.1904 244.0383 694.3764 243.7503 694.5204C 243.4743 694.6524 243.1953 694.7274 242.8953 694.7274C 242.5353 694.7274 242.1993 694.6164 241.9233 694.4124C 241.6473 694.1964 241.4463 693.8964 241.3383 693.5124C 241.2183 693.7764 241.0233 694.0014 240.7713 694.1694C 240.5193 694.3254 240.2433 694.4124 239.9433 694.4124C 239.6673 694.4124 239.4153 694.3464 239.1873 694.2144C 238.9713 694.0704 238.7883 693.9114 238.6563 693.7194C 238.5243 693.5154 238.4343 693.2964 238.3863 693.0444C 238.3503 692.7924 238.3233 692.4054 238.3233 691.9014L238.3233 691.9014L238.3233 689.3274zM239.3943 691.3794C 239.3943 691.9914 239.4123 692.3544 239.4123 692.4864C 239.4483 692.7024 239.5293 692.8734 239.6373 692.9814C 239.7693 693.0894 239.9313 693.1434 240.1233 693.1434C 240.3393 693.1434 240.5073 693.0744 240.6273 692.9544C 240.7593 692.8224 240.8373 692.6484 240.8613 692.4324C 240.8733 692.3004 240.8793 691.9914 240.8793 691.4874L240.8793 691.4874L240.8793 690.6324L240.8793 690.6324L239.3943 690.6324zM241.9503 691.6854C 241.9503 692.2734 241.9803 692.6574 242.0403 692.8374C 242.1123 693.0174 242.2053 693.1464 242.3373 693.2424C 242.4813 693.3384 242.6403 693.3864 242.8323 693.3864C 243.0603 693.3864 243.2493 693.3144 243.3813 693.2064C 243.5253 693.0744 243.6063 692.9214 243.6423 692.7294C 243.6783 692.5974 243.6783 692.3064 243.6783 691.8384L243.6783 691.8384L243.6783 690.6324L243.6783 690.6324L241.9503 690.6324z" stroke="none" fill="#070606" fill-rule="evenodd" /><path id="1721" transform="matrix(1 0 0 -1 0 792)" d="M409.6023 654.6144L407.1723 654.6144L407.1723 654.6144L407.1723 655.4604C 407.1723 656.0364 407.1543 656.4864 407.0823 656.8104C 407.0343 657.0264 406.9323 657.2604 406.7763 657.4764C 406.6323 657.6924 406.4133 657.8814 406.1373 658.0254C 405.8733 658.1694 405.5343 658.2414 405.1383 658.2414C 404.6343 658.2414 404.2113 658.1124 403.8873 657.8724C 403.5633 657.6204 403.3533 657.3054 403.2573 656.9454C 403.1973 656.6934 403.1583 656.1894 403.1583 655.3974L403.1583 655.3974L403.1583 653.3094L403.1583 653.3094L409.6023 653.3094zM404.2473 655.2444C 404.2473 655.7004 404.2683 656.0154 404.2923 656.1714C 404.3283 656.3874 404.4363 656.5494 404.5803 656.6934C 404.7363 656.8254 404.9253 656.9004 405.1653 656.9004C 405.3573 656.9004 405.5163 656.8524 405.6603 656.7564C 405.8043 656.6484 405.9123 656.5194 405.9843 656.3514C 406.0563 656.1714 406.0833 655.8294 406.0833 655.3254L406.0833 655.3254L406.0833 654.6144L406.0833 654.6144L404.2473 654.6144z" stroke="none" fill="#070606" fill-rule="evenodd" /><path id="1722" transform="matrix(1 0 0 -1 0 792)" d="M408.1623 660.4824C 407.3703 660.4824 406.8483 660.5094 406.5963 660.5814C 406.3563 660.6534 406.1793 660.7494 406.0833 660.8694C 405.9873 660.9774 405.9393 661.1304 405.9393 661.3104C 405.9393 661.4904 406.0053 661.6794 406.1373 661.8954L406.1373 661.8954L405.0663 662.2734C 404.9223 662.0094 404.8323 661.7424 404.8323 661.4544C 404.8323 661.2504 404.8803 661.0674 404.9763 660.9234C 405.0843 660.7674 405.2853 660.5844 405.5973 660.3924L405.5973 660.3924L404.9313 660.3924L404.9313 660.3924L404.9313 659.2494L404.9313 659.2494L409.6023 659.2494L409.6023 659.2494L409.6023 660.4824z" stroke="none" fill="#070606" fill-rule="evenodd" /><path id="1723" transform="matrix(1 0 0 -1 0 792)" d="M404.3013 664.0374L403.1583 664.0374L403.1583 664.0374L403.1583 662.8044L403.1583 662.8044L404.3013 662.8044zM409.6023 664.0374L404.9313 664.0374L404.9313 664.0374L404.9313 662.8044L404.9313 662.8044L409.6023 662.8044z" stroke="none" fill="#070606" fill-rule="evenodd" /><path id="1724" transform="matrix(1 0 0 -1 0 792)" d="M409.6023 665.2164L409.6023 666.4494L409.6023 666.4494L407.3343 666.4494C 406.8903 666.4494 406.5753 666.4764 406.3713 666.5484C 406.1913 666.6084 406.0383 666.7164 405.9303 666.8724C 405.8343 667.0164 405.7773 667.1934 405.7773 667.3854C 405.7773 667.5414 405.8163 667.6674 405.8763 667.7634C 405.9483 667.8474 406.0443 667.9224 406.1643 667.9704C 406.3083 668.0064 406.6023 668.0334 407.0463 668.0334L407.0463 668.0334L409.6023 668.0334L409.6023 668.0334L409.6023 669.2664L409.6023 669.2664L407.3613 669.2664C 406.9293 669.2664 406.6143 669.2934 406.3983 669.3654C 406.1943 669.4374 406.0473 669.5424 405.9393 669.6984C 405.8313 669.8424 405.7773 670.0044 405.7773 670.1844C 405.7773 670.4244 405.8703 670.5954 406.0383 670.7154C 406.1823 670.7874 406.4703 670.8414 406.9383 670.8414L406.9383 670.8414L409.6023 670.8414L409.6023 670.8414L409.6023 672.0744L409.6023 672.0744L406.6233 672.0744C 406.1793 672.0744 405.8553 672.0204 405.6513 671.9484C 405.3873 671.8284 405.1833 671.6454 405.0393 671.4174C 404.9073 671.1654 404.8323 670.8804 404.8323 670.5444C 404.8323 670.2684 404.9013 670.0164 405.0213 669.7884C 405.1413 669.5364 405.3273 669.3264 405.5793 669.1224C 405.3273 668.9784 405.1413 668.7984 405.0213 668.5824C 404.9013 668.3544 404.8323 668.0964 404.8323 667.8084C 404.8323 667.2324 405.0783 666.7464 405.5703 666.3504L405.5703 666.3504L404.9313 666.3504L404.9313 666.3504L404.9313 665.2164z" stroke="none" fill="#070606" fill-rule="evenodd" /><path id="1725" transform="matrix(1 0 0 -1 0 792)" d="M405.9123 674.5224C 405.8283 674.6424 405.7773 674.8164 405.7773 675.0444C 405.7773 675.3684 405.8343 675.5814 405.9303 675.7014C 406.0383 675.8094 406.2033 675.8814 406.4433 675.8814L406.4433 675.8814L406.5693 675.8814C 406.6653 675.6534 406.7673 675.2604 406.8753 674.6844C 406.9593 674.2524 407.0553 673.9194 407.1633 673.7034C 407.2713 673.4754 407.4273 673.2924 407.6313 673.1724C 407.8473 673.0404 408.0783 672.9834 408.3423 672.9834C 408.7383 672.9834 409.0803 673.1094 409.3323 673.3974C 409.5963 673.6734 409.7193 674.0514 409.7193 674.5314C 409.7193 674.7954 409.6623 675.0444 409.5663 675.2964C 409.4583 675.5364 409.3143 675.7554 409.0983 675.9714C 409.1343 675.9714 409.1703 675.9924 409.2423 676.0164C 409.4103 676.0524 409.5303 676.0974 409.6023 676.1334L409.6023 676.1334L409.6023 677.3574C 409.3863 677.2494 409.1763 677.1774 408.9723 677.1414C 408.7923 677.0934 408.4803 677.0784 408.0723 677.0784L408.0723 677.0784L406.6323 677.0964C 406.0923 677.0964 405.7293 677.0424 405.5253 676.9344C 405.3333 676.8144 405.1623 676.6224 405.0303 676.3584C 404.8983 676.0824 404.8323 675.6744 404.8323 675.1344C 404.8323 674.5224 404.9493 674.0574 405.1653 673.7574C 405.3813 673.4454 405.7173 673.2294 406.1733 673.1094L406.1733 673.1094L406.3713 674.2254C 406.1553 674.2974 405.9963 674.4024 405.9123 674.5224zM407.6133 675.8814C 407.9133 675.8814 408.1083 675.8604 408.2163 675.8364C 408.3843 675.7764 408.5223 675.6834 408.6303 675.5394C 408.7743 675.3234 408.8463 675.1164 408.8463 674.9004C 408.8463 674.6964 408.7893 674.5374 408.6573 674.4054C 408.5373 674.2734 408.3873 674.2164 408.2073 674.2164C 408.0393 674.2164 407.8953 674.2914 407.7753 674.4594C 407.7033 674.5674 407.6313 674.7744 407.5593 675.1344C 407.4873 675.4704 407.4303 675.7134 407.3703 675.8814z" stroke="none" fill="#070606" fill-rule="evenodd" /><path id="1726" transform="matrix(1 0 0 -1 0 792)" d="M408.1623 679.4904C 407.3703 679.4904 406.8483 679.5174 406.5963 679.5894C 406.3563 679.6614 406.1793 679.7574 406.0833 679.8774C 405.9873 679.9854 405.9393 680.1384 405.9393 680.3184C 405.9393 680.4984 406.0053 680.6874 406.1373 680.9034L406.1373 680.9034L405.0663 681.2814C 404.9223 681.0174 404.8323 680.7504 404.8323 680.4624C 404.8323 680.2584 404.8803 680.0754 404.9763 679.9314C 405.0843 679.7754 405.2853 679.5924 405.5973 679.4004L405.5973 679.4004L404.9313 679.4004L404.9313 679.4004L404.9313 678.2574L404.9313 678.2574L409.6023 678.2574L409.6023 678.2574L409.6023 679.4904z" stroke="none" fill="#070606" fill-rule="evenodd" /><path id="1727" transform="matrix(1 0 0 -1 0 792)" d="M409.6113 683.0004C 409.8633 682.9164 410.0793 682.8204 410.2593 682.6764C 410.4273 682.5324 410.5113 682.3254 410.5113 682.0374C 410.5113 681.8814 410.4933 681.7074 410.4573 681.5154L410.4573 681.5154L411.4203 681.6234C 411.4563 681.8394 411.4923 682.0734 411.4923 682.3254C 411.4923 682.5534 411.4563 682.7634 411.4203 682.9554C 411.3603 683.1354 411.2853 683.2884 411.2133 683.4324C 411.1173 683.5524 411.0063 683.6574 410.8623 683.7654C 410.7183 683.8614 410.5053 683.9724 410.2413 684.0804L410.2413 684.0804L409.4223 684.3774L409.4223 684.3774L404.9313 686.0244L404.9313 686.0244L404.9313 684.7464L404.9313 684.7464L408.2433 683.6574L408.2433 683.6574L404.9313 682.5324L404.9313 682.5324L404.9313 681.2184z" stroke="none" fill="#070606" fill-rule="evenodd" /><path id="1729" transform="matrix(1 0 0 -1 0 792)" d="M409.6023 689.3274L409.6023 691.5234C 409.6023 692.3514 409.5933 692.8734 409.5573 693.0894C 409.5213 693.4374 409.4313 693.7224 409.2513 693.9624C 409.0953 694.1904 408.8733 694.3764 408.5853 694.5204C 408.3093 694.6524 408.0303 694.7274 407.7303 694.7274C 407.3703 694.7274 407.0343 694.6164 406.7583 694.4124C 406.4823 694.1964 406.2813 693.8964 406.1733 693.5124C 406.0533 693.7764 405.8583 694.0014 405.6063 694.1694C 405.3543 694.3254 405.0783 694.4124 404.7783 694.4124C 404.5023 694.4124 404.2503 694.3464 404.0223 694.2144C 403.8063 694.0704 403.6233 693.9114 403.4913 693.7194C 403.3593 693.5154 403.2693 693.2964 403.2213 693.0444C 403.1853 692.7924 403.1583 692.4054 403.1583 691.9014L403.1583 691.9014L403.1583 689.3274zM404.2293 691.3794C 404.2293 691.9914 404.2473 692.3544 404.2473 692.4864C 404.2833 692.7024 404.3643 692.8734 404.4723 692.9814C 404.6043 693.0894 404.7663 693.1434 404.9583 693.1434C 405.1743 693.1434 405.3423 693.0744 405.4623 692.9544C 405.5943 692.8224 405.6723 692.6484 405.6963 692.4324C 405.7083 692.3004 405.7143 691.9914 405.7143 691.4874L405.7143 691.4874L405.7143 690.6324L405.7143 690.6324L404.2293 690.6324zM406.7853 691.6854C 406.7853 692.2734 406.8153 692.6574 406.8753 692.8374C 406.9473 693.0174 407.0403 693.1464 407.1723 693.2424C 407.3163 693.3384 407.4753 693.3864 407.6673 693.3864C 407.8953 693.3864 408.0843 693.3144 408.2163 693.2064C 408.3603 693.0744 408.4413 692.9214 408.4773 692.7294C 408.5133 692.5974 408.5133 692.3064 408.5133 691.8384L408.5133 691.8384L408.5133 690.6324L408.5133 690.6324L406.7853 690.6324z" stroke="none" fill="#070606" fill-rule="evenodd" /><path id="1730" transform="matrix(1 0 0 -1 0 792)" d="M201.1623 666.0894L196.3473 667.3764L196.3473 667.3764L201.1623 668.6454L201.1623 668.6454L201.1623 670.0404L201.1623 670.0404L194.7183 671.5884L194.7183 671.5884L194.7183 670.2834L194.7183 670.2834L199.2183 669.3024L199.2183 669.3024L194.7183 668.1684L194.7183 668.1684L194.7183 666.6204L194.7183 666.6204L199.1463 665.4504L199.1463 665.4504L194.7183 664.4874L194.7183 664.4874L194.7183 663.1464L194.7183 663.1464L201.1623 664.6584z" stroke="none" fill="#070606" fill-rule="evenodd" /><path id="1731" transform="matrix(1 0 0 -1 0 792)" d="M200.0193 673.7124C 199.9113 673.7724 199.7973 673.8564 199.6773 673.9644C 199.5693 674.0724 199.3173 674.3154 198.9573 674.7114C 198.6093 675.0954 198.3303 675.3654 198.1383 675.5214C 197.8503 675.7374 197.5743 675.9084 197.3103 676.0164C 197.0583 676.1124 196.7703 676.1694 196.4823 676.1694C 195.9783 676.1694 195.5433 675.9804 195.1953 675.6204C 194.8593 675.2604 194.6823 674.7624 194.6823 674.1264C 194.6823 673.5384 194.8353 673.0614 195.1233 672.6774C 195.4233 672.2814 195.9183 672.0564 196.5903 671.9844L196.5903 671.9844L196.7163 673.2174C 196.3563 673.2414 196.0983 673.3224 195.9423 673.4784C 195.7983 673.6224 195.7083 673.8384 195.7083 674.0904C 195.7083 674.3424 195.7893 674.5584 195.9333 674.7024C 196.0773 674.8464 196.2993 674.9274 196.5633 674.9274C 196.8153 674.9274 197.0673 674.8434 197.3193 674.6754C 197.5113 674.5434 197.8653 674.2014 198.3813 673.6494C 199.0293 672.9534 199.5453 672.4914 199.9293 672.2634C 200.3253 672.0234 200.7303 671.8764 201.1623 671.8404L201.1623 671.8404L201.1623 676.1694L201.1623 676.1694L200.0193 676.1694z" stroke="none" fill="#070606" fill-rule="evenodd" /><path id="1733" transform="matrix(1 0 0 -1 0 792)" d="M194.7183 683.0004L194.7183 681.6234L194.7183 681.6234L201.1623 679.1214L201.1623 679.1214L201.1623 680.4984L201.1623 680.4984L199.6953 681.0384L199.6953 681.0384L199.6953 683.6214L199.6953 683.6214L201.1623 684.1794L201.1623 684.1794L201.1623 685.5834zM198.6063 681.4344L196.2213 682.3074L196.2213 682.3074L198.6063 683.1984z" stroke="none" fill="#070606" fill-rule="evenodd" /><path id="1734" transform="matrix(1 0 0 -1 0 792)" d="M433.6503 666.0894L428.8353 667.3764L428.8353 667.3764L433.6503 668.6454L433.6503 668.6454L433.6503 670.0404L433.6503 670.0404L427.2063 671.5884L427.2063 671.5884L427.2063 670.2834L427.2063 670.2834L431.7063 669.3024L431.7063 669.3024L427.2063 668.1684L427.2063 668.1684L427.2063 666.6204L427.2063 666.6204L431.6343 665.4504L431.6343 665.4504L427.2063 664.4874L427.2063 664.4874L427.2063 663.1464L427.2063 663.1464L433.6503 664.6584z" stroke="none" fill="#070606" fill-rule="evenodd" /><path id="1735" transform="matrix(1 0 0 -1 0 792)" d="M432.5073 673.7124C 432.3993 673.7724 432.2853 673.8564 432.1653 673.9644C 432.0573 674.0724 431.8053 674.3154 431.4453 674.7114C 431.0973 675.0954 430.8183 675.3654 430.6263 675.5214C 430.3383 675.7374 430.0623 675.9084 429.7983 676.0164C 429.5463 676.1124 429.2583 676.1694 428.9703 676.1694C 428.4663 676.1694 428.0313 675.9804 427.6833 675.6204C 427.3473 675.2604 427.1703 674.7624 427.1703 674.1264C 427.1703 673.5384 427.3233 673.0614 427.6113 672.6774C 427.9113 672.2814 428.4063 672.0564 429.0783 671.9844L429.0783 671.9844L429.2043 673.2174C 428.8443 673.2414 428.5863 673.3224 428.4303 673.4784C 428.2863 673.6224 428.1963 673.8384 428.1963 674.0904C 428.1963 674.3424 428.2773 674.5584 428.4213 674.7024C 428.5653 674.8464 428.7873 674.9274 429.0513 674.9274C 429.3033 674.9274 429.5553 674.8434 429.8073 674.6754C 429.9993 674.5434 430.3533 674.2014 430.8693 673.6494C 431.5173 672.9534 432.0333 672.4914 432.4173 672.2634C 432.8133 672.0234 433.2183 671.8764 433.6503 671.8404L433.6503 671.8404L433.6503 676.1694L433.6503 676.1694L432.5073 676.1694z" stroke="none" fill="#070606" fill-rule="evenodd" /><path id="1737" transform="matrix(1 0 0 -1 0 792)" d="M427.2063 683.0004L427.2063 681.6234L427.2063 681.6234L433.6503 679.1214L433.6503 679.1214L433.6503 680.4984L433.6503 680.4984L432.1833 681.0384L432.1833 681.0384L432.1833 683.6214L432.1833 683.6214L433.6503 684.1794L433.6503 684.1794L433.6503 685.5834zM431.0943 681.4344L428.7093 682.3074L428.7093 682.3074L431.0943 683.1984z" stroke="none" fill="#070606" fill-rule="evenodd" /><path id="1738" transform="matrix(1 0 0 -1 0 792)" d="M269.7333 670.5894L264.9183 671.8764L264.9183 671.8764L269.7333 673.1454L269.7333 673.1454L269.7333 674.5404L269.7333 674.5404L263.2893 676.0884L263.2893 676.0884L263.2893 674.7834L263.2893 674.7834L267.7893 673.8024L267.7893 673.8024L263.2893 672.6684L263.2893 672.6684L263.2893 671.1204L263.2893 671.1204L267.7173 669.9504L267.7173 669.9504L263.2893 668.9874L263.2893 668.9874L263.2893 667.6464L263.2893 667.6464L269.7333 669.1584z" stroke="none" fill="#070606" fill-rule="evenodd" /><path id="1739" transform="matrix(1 0 0 -1 0 792)" d="M269.3463 677.1234C 269.6823 677.5074 269.8503 677.9844 269.8503 678.5724C 269.8503 679.1844 269.6523 679.6914 269.2563 680.1114C 268.8603 680.5194 268.3833 680.7324 267.8073 680.7324C 267.4113 680.7324 267.0843 680.6154 266.8083 680.3994C 266.5323 680.1834 266.3493 679.8774 266.2773 679.5174C 265.9413 680.1294 265.4853 680.4444 264.9093 680.4444C 264.5133 680.4444 264.1623 680.2824 263.8383 679.9944C 263.4543 679.6224 263.2533 679.1364 263.2533 678.5364C 263.2533 678.1764 263.3193 677.8614 263.4513 677.5734C 263.5953 677.2854 263.7813 677.0634 264.0093 676.9074C 264.2493 676.7394 264.5613 676.6194 264.9453 676.5474L264.9453 676.5474L265.1433 677.6814C 264.8673 677.7174 264.6513 677.8074 264.4953 677.9514C 264.3513 678.0954 264.2793 678.2754 264.2793 678.4914C 264.2793 678.7074 264.3453 678.8694 264.4773 679.0134C 264.6093 679.1334 264.7743 679.2024 264.9903 679.2024C 265.2543 679.2024 265.4673 679.1094 265.6113 678.9414C 265.7673 678.7614 265.8393 678.5004 265.8273 678.1764L265.8273 678.1764L266.8263 678.0414C 266.7663 678.2574 266.7363 678.4404 266.7363 678.6084C 266.7363 678.8364 266.8263 679.0434 267.0063 679.2114C 267.1983 679.3794 267.4413 679.4634 267.7533 679.4634C 268.0773 679.4634 268.3443 679.3704 268.5363 679.2024C 268.7283 679.0224 268.8243 678.8154 268.8243 678.5634C 268.8243 678.3234 268.7493 678.1164 268.5813 677.9604C 268.4253 677.7924 268.1913 677.6904 267.8793 677.6544L267.8793 677.6544L268.0233 676.4574C 268.5753 676.5174 269.0223 676.7394 269.3463 677.1234z" stroke="none" fill="#070606" fill-rule="evenodd" /><path id="1740" transform="matrix(1 0 0 -1 0 792)" d="M476.7693 670.5894L471.9543 671.8764L471.9543 671.8764L476.7693 673.1454L476.7693 673.1454L476.7693 674.5404L476.7693 674.5404L470.3253 676.0884L470.3253 676.0884L470.3253 674.7834L470.3253 674.7834L474.8253 673.8024L474.8253 673.8024L470.3253 672.6684L470.3253 672.6684L470.3253 671.1204L470.3253 671.1204L474.7533 669.9504L474.7533 669.9504L470.3253 668.9874L470.3253 668.9874L470.3253 667.6464L470.3253 667.6464L476.7693 669.1584z" stroke="none" fill="#070606" fill-rule="evenodd" /><path id="1741" transform="matrix(1 0 0 -1 0 792)" d="M476.3823 677.1234C 476.7183 677.5074 476.8863 677.9844 476.8863 678.5724C 476.8863 679.1844 476.6883 679.6914 476.2923 680.1114C 475.8963 680.5194 475.4193 680.7324 474.8433 680.7324C 474.4473 680.7324 474.1203 680.6154 473.8443 680.3994C 473.5683 680.1834 473.3853 679.8774 473.3133 679.5174C 472.9773 680.1294 472.5213 680.4444 471.9453 680.4444C 471.5493 680.4444 471.1983 680.2824 470.8743 679.9944C 470.4903 679.6224 470.2893 679.1364 470.2893 678.5364C 470.2893 678.1764 470.3553 677.8614 470.4873 677.5734C 470.6313 677.2854 470.8173 677.0634 471.0453 676.9074C 471.2853 676.7394 471.5973 676.6194 471.9813 676.5474L471.9813 676.5474L472.1793 677.6814C 471.9033 677.7174 471.6873 677.8074 471.5313 677.9514C 471.3873 678.0954 471.3153 678.2754 471.3153 678.4914C 471.3153 678.7074 471.3813 678.8694 471.5133 679.0134C 471.6453 679.1334 471.8103 679.2024 472.0263 679.2024C 472.2903 679.2024 472.5033 679.1094 472.6473 678.9414C 472.8033 678.7614 472.8753 678.5004 472.8633 678.1764L472.8633 678.1764L473.8623 678.0414C 473.8023 678.2574 473.7723 678.4404 473.7723 678.6084C 473.7723 678.8364 473.8623 679.0434 474.0423 679.2114C 474.2343 679.3794 474.4773 679.4634 474.7893 679.4634C 475.1133 679.4634 475.3803 679.3704 475.5723 679.2024C 475.7643 679.0224 475.8603 678.8154 475.8603 678.5634C 475.8603 678.3234 475.7853 678.1164 475.6173 677.9604C 475.4613 677.7924 475.2273 677.6904 474.9153 677.6544L474.9153 677.6544L475.0593 676.4574C 475.6113 676.5174 476.0583 676.7394 476.3823 677.1234z" stroke="none" fill="#070606" fill-rule="evenodd" /><path id="1742" transform="matrix(1 0 0 -1 0 792)" d="M222.8523 666.0894L218.0373 667.3764L218.0373 667.3764L222.8523 668.6454L222.8523 668.6454L222.8523 670.0404L222.8523 670.0404L216.4083 671.5884L216.4083 671.5884L216.4083 670.2834L216.4083 670.2834L220.9083 669.3024L220.9083 669.3024L216.4083 668.1684L216.4083 668.1684L216.4083 666.6204L216.4083 666.6204L220.8363 665.4504L220.8363 665.4504L216.4083 664.4874L216.4083 664.4874L216.4083 663.1464L216.4083 663.1464L222.8523 664.6584z" stroke="none" fill="#070606" fill-rule="evenodd" /><path id="1743" transform="matrix(1 0 0 -1 0 792)" d="M221.7093 673.7124C 221.6013 673.7724 221.4873 673.8564 221.3673 673.9644C 221.2593 674.0724 221.0073 674.3154 220.6473 674.7114C 220.2993 675.0954 220.0203 675.3654 219.8283 675.5214C 219.5403 675.7374 219.2643 675.9084 219.0003 676.0164C 218.7483 676.1124 218.4603 676.1694 218.1723 676.1694C 217.6683 676.1694 217.2333 675.9804 216.8853 675.6204C 216.5493 675.2604 216.3723 674.7624 216.3723 674.1264C 216.3723 673.5384 216.5253 673.0614 216.8133 672.6774C 217.1133 672.2814 217.6083 672.0564 218.2803 671.9844L218.2803 671.9844L218.4063 673.2174C 218.0463 673.2414 217.7883 673.3224 217.6323 673.4784C 217.4883 673.6224 217.3983 673.8384 217.3983 674.0904C 217.3983 674.3424 217.4793 674.5584 217.6233 674.7024C 217.7673 674.8464 217.9893 674.9274 218.2533 674.9274C 218.5053 674.9274 218.7573 674.8434 219.0093 674.6754C 219.2013 674.5434 219.5553 674.2014 220.0713 673.6494C 220.7193 672.9534 221.2353 672.4914 221.6193 672.2634C 222.0153 672.0234 222.4203 671.8764 222.8523 671.8404L222.8523 671.8404L222.8523 676.1694L222.8523 676.1694L221.7093 676.1694z" stroke="none" fill="#070606" fill-rule="evenodd" /><path id="1745" transform="matrix(1 0 0 -1 0 792)" d="M222.8523 679.7784L222.8523 681.9744C 222.8523 682.8024 222.8433 683.3244 222.8073 683.5404C 222.7713 683.8884 222.6813 684.1734 222.5013 684.4134C 222.3453 684.6414 222.1233 684.8274 221.8353 684.9714C 221.5593 685.1034 221.2803 685.1784 220.9803 685.1784C 220.6203 685.1784 220.2843 685.0674 220.0083 684.8634C 219.7323 684.6474 219.5313 684.3474 219.4233 683.9634C 219.3033 684.2274 219.1083 684.4524 218.8563 684.6204C 218.6043 684.7764 218.3283 684.8634 218.0283 684.8634C 217.7523 684.8634 217.5003 684.7974 217.2723 684.6654C 217.0563 684.5214 216.8733 684.3624 216.7413 684.1704C 216.6093 683.9664 216.5193 683.7474 216.4713 683.4954C 216.4353 683.2434 216.4083 682.8564 216.4083 682.3524L216.4083 682.3524L216.4083 679.7784zM217.4793 681.8304C 217.4793 682.4424 217.4973 682.8054 217.4973 682.9374C 217.5333 683.1534 217.6143 683.3244 217.7223 683.4324C 217.8543 683.5404 218.0163 683.5944 218.2083 683.5944C 218.4243 683.5944 218.5923 683.5254 218.7123 683.4054C 218.8443 683.2734 218.9223 683.0994 218.9463 682.8834C 218.9583 682.7514 218.9643 682.4424 218.9643 681.9384L218.9643 681.9384L218.9643 681.0834L218.9643 681.0834L217.4793 681.0834zM220.0353 682.1364C 220.0353 682.7244 220.0653 683.1084 220.1253 683.2884C 220.1973 683.4684 220.2903 683.5974 220.4223 683.6934C 220.5663 683.7894 220.7253 683.8374 220.9173 683.8374C 221.1453 683.8374 221.3343 683.7654 221.4663 683.6574C 221.6103 683.5254 221.6913 683.3724 221.7273 683.1804C 221.7633 683.0484 221.7633 682.7574 221.7633 682.2894L221.7633 682.2894L221.7633 681.0834L221.7633 681.0834L220.0353 681.0834z" stroke="none" fill="#070606" fill-rule="evenodd" /><path id="1746" transform="matrix(1 0 0 -1 0 792)" d="M453.9543 666.0894L449.1393 667.3764L449.1393 667.3764L453.9543 668.6454L453.9543 668.6454L453.9543 670.0404L453.9543 670.0404L447.5103 671.5884L447.5103 671.5884L447.5103 670.2834L447.5103 670.2834L452.0103 669.3024L452.0103 669.3024L447.5103 668.1684L447.5103 668.1684L447.5103 666.6204L447.5103 666.6204L451.9383 665.4504L451.9383 665.4504L447.5103 664.4874L447.5103 664.4874L447.5103 663.1464L447.5103 663.1464L453.9543 664.6584z" stroke="none" fill="#070606" fill-rule="evenodd" /><path id="1747" transform="matrix(1 0 0 -1 0 792)" d="M452.8113 673.7124C 452.7033 673.7724 452.5893 673.8564 452.4693 673.9644C 452.3613 674.0724 452.1093 674.3154 451.7493 674.7114C 451.4013 675.0954 451.1223 675.3654 450.9303 675.5214C 450.6423 675.7374 450.3663 675.9084 450.1023 676.0164C 449.8503 676.1124 449.5623 676.1694 449.2743 676.1694C 448.7703 676.1694 448.3353 675.9804 447.9873 675.6204C 447.6513 675.2604 447.4743 674.7624 447.4743 674.1264C 447.4743 673.5384 447.6273 673.0614 447.9153 672.6774C 448.2153 672.2814 448.7103 672.0564 449.3823 671.9844L449.3823 671.9844L449.5083 673.2174C 449.1483 673.2414 448.8903 673.3224 448.7343 673.4784C 448.5903 673.6224 448.5003 673.8384 448.5003 674.0904C 448.5003 674.3424 448.5813 674.5584 448.7253 674.7024C 448.8693 674.8464 449.0913 674.9274 449.3553 674.9274C 449.6073 674.9274 449.8593 674.8434 450.1113 674.6754C 450.3033 674.5434 450.6573 674.2014 451.1733 673.6494C 451.8213 672.9534 452.3373 672.4914 452.7213 672.2634C 453.1173 672.0234 453.5223 671.8764 453.9543 671.8404L453.9543 671.8404L453.9543 676.1694L453.9543 676.1694L452.8113 676.1694z" stroke="none" fill="#070606" fill-rule="evenodd" /><path id="1749" transform="matrix(1 0 0 -1 0 792)" d="M453.9543 679.7784L453.9543 681.9744C 453.9543 682.8024 453.9453 683.3244 453.9093 683.5404C 453.8733 683.8884 453.7833 684.1734 453.6033 684.4134C 453.4473 684.6414 453.2253 684.8274 452.9373 684.9714C 452.6613 685.1034 452.3823 685.1784 452.0823 685.1784C 451.7223 685.1784 451.3863 685.0674 451.1103 684.8634C 450.8343 684.6474 450.6333 684.3474 450.5253 683.9634C 450.4053 684.2274 450.2103 684.4524 449.9583 684.6204C 449.7063 684.7764 449.4303 684.8634 449.1303 684.8634C 448.8543 684.8634 448.6023 684.7974 448.3743 684.6654C 448.1583 684.5214 447.9753 684.3624 447.8433 684.1704C 447.7113 683.9664 447.6213 683.7474 447.5733 683.4954C 447.5373 683.2434 447.5103 682.8564 447.5103 682.3524L447.5103 682.3524L447.5103 679.7784zM448.5813 681.8304C 448.5813 682.4424 448.5993 682.8054 448.5993 682.9374C 448.6353 683.1534 448.7163 683.3244 448.8243 683.4324C 448.9563 683.5404 449.1183 683.5944 449.3103 683.5944C 449.5263 683.5944 449.6943 683.5254 449.8143 683.4054C 449.9463 683.2734 450.0243 683.0994 450.0483 682.8834C 450.0603 682.7514 450.0663 682.4424 450.0663 681.9384L450.0663 681.9384L450.0663 681.0834L450.0663 681.0834L448.5813 681.0834zM451.1373 682.1364C 451.1373 682.7244 451.1673 683.1084 451.2273 683.2884C 451.2993 683.4684 451.3923 683.5974 451.5243 683.6934C 451.6683 683.7894 451.8273 683.8374 452.0193 683.8374C 452.2473 683.8374 452.4363 683.7654 452.5683 683.6574C 452.7123 683.5254 452.7933 683.3724 452.8293 683.1804C 452.8653 683.0484 452.8653 682.7574 452.8653 682.2894L452.8653 682.2894L452.8653 681.0834L452.8653 681.0834L451.1373 681.0834z" stroke="none" fill="#070606" fill-rule="evenodd" /><g clip-path="url(#14)"></g><path id="1752" transform="matrix(1 0 0 -1 0 792)" d="M481.1078 318.8763L499.2688 318.8763L499.2688 318.8763L517.8528 318.8763M444.7848 314.6173L454.0768 316.7473L454.0768 316.7473L462.9458 317.4563L462.9458 317.4563L481.1078 318.8763M408.0398 299.0013L412.6858 303.2603L412.6858 303.2603L417.3318 306.0993L417.3318 306.0993L421.9778 308.2293L421.9778 308.2293L426.6238 310.3583L426.6238 310.3583L435.4928 312.4883L435.4928 312.4883L444.7848 314.6173M371.2948 242.9253L375.0958 252.1533L375.0958 252.1533L379.3198 260.6713L379.3198 260.6713L383.5428 268.4793L383.5428 268.4793L388.6118 275.5773L388.6118 275.5773L393.2568 282.6753L393.2568 282.6753L398.3258 289.0643L398.3258 289.0643L403.3938 294.0333L403.3938 294.0333L408.0398 299.0013M353.5558 149.2293L355.6678 161.2963L355.6678 161.2963L357.3568 173.3633L357.3568 173.3633L361.1588 198.2073L361.1588 198.2073L363.2698 210.2733L363.2698 210.2733L365.3818 222.3413L365.3818 222.3413L368.3388 232.9883L368.3388 232.9883L371.2948 242.9253" stroke="#0060AF" stroke-width="2" stroke-linecap="round" fill="none" /><path id="1753" transform="matrix(1 0 0 -1 0 792)" d="M481.1078 311.7782L490.3998 311.7782L490.3998 311.7782L499.2688 311.0682L499.2688 311.0682L517.8528 309.6492M444.7848 308.9392L454.0768 310.3592L454.0768 310.3592L462.9458 311.0682L462.9458 311.0682L481.1078 311.7782M408.0398 296.1622L412.6858 299.7112L412.6858 299.7112L417.3318 302.5502L417.3318 302.5502L421.9778 303.9702L421.9778 303.9702L426.6238 305.3902L426.6238 305.3902L435.4928 307.5192L435.4928 307.5192L444.7848 308.9392M371.2948 245.0552L375.0958 253.5732L375.0958 253.5732L379.3198 261.3812L379.3198 261.3812L383.5428 269.1892L383.5428 269.1892L388.6118 275.5772L388.6118 275.5772L393.2568 281.9652L393.2568 281.9652L398.3258 286.9352L398.3258 286.9352L403.3938 291.9032L403.3938 291.9032L408.0398 296.1622M353.5558 152.0682L355.6678 164.1352L355.6678 164.1352L357.3568 176.2022L357.3568 176.2022L361.1588 201.0462L361.1588 201.0462L363.2698 213.1132L363.2698 213.1132L365.3818 224.4702L365.3818 224.4702L368.3388 235.1182L368.3388 235.1182L371.2948 245.0552" stroke="#EE1C23" stroke-width="2" stroke-linecap="round" fill="none" /><path id="1801" transform="matrix(1 0 0 -1 0 792)" d="M309.9544 207.6513L303.5106 207.6515L303.5106 207.6515L303.5107 212.4305L303.5107 212.4305L304.5997 212.4304L304.5997 212.4304L304.5996 208.9474L304.5996 208.9474L306.0305 208.9474L306.0305 208.9474L306.0307 212.1874L306.0307 212.1874L307.1107 212.1873L307.1107 212.1873L307.1105 208.9474L307.1105 208.9474L308.8655 208.9473L308.8655 208.9473L308.8656 212.5473L308.8656 212.5473L309.9546 212.5472z" stroke="none" fill="#221E1F" fill-rule="evenodd" /><path id="1802" transform="matrix(1 0 0 -1 0 792)" d="M305.2927 213.1054L305.2927 213.7894L305.2927 213.7894L304.9327 213.7894C 304.5488 213.7894 304.2518 213.8194 304.0598 213.9154C 303.8678 213.9874 303.7148 214.1464 303.5828 214.3744C 303.4748 214.5904 303.4028 214.8814 303.4028 215.2294C 303.4028 215.5774 303.4568 215.9194 303.5648 216.2554L303.5648 216.2554L304.4198 216.0934C 304.3838 215.8894 304.3568 215.7064 304.3568 215.5264C 304.3568 215.3464 304.4018 215.2114 304.4738 215.1394C 304.5698 215.0554 304.7198 215.0224 304.9598 215.0224L304.9598 215.0224L305.2928 215.0224L305.2928 215.0224L305.2928 215.9494L305.2928 215.9494L306.2558 215.9493L306.2558 215.9493L306.2558 215.0223L306.2558 215.0223L309.9547 215.0222L309.9547 215.0222L309.9546 213.7892L309.9546 213.7892L306.2557 213.7893L306.2557 213.7893L306.2557 213.1053z" stroke="none" fill="#221E1F" fill-rule="evenodd" /><path id="1803" transform="matrix(1 0 0 -1 0 792)" d="M305.2928 216.1023L305.2928 216.7863L305.2928 216.7863L304.9328 216.7863C 304.5489 216.7864 304.2519 216.8164 304.0599 216.9124C 303.8679 216.9844 303.7149 217.1434 303.5829 217.3714C 303.4749 217.5874 303.4029 217.8784 303.4029 218.2264C 303.403 218.5744 303.4569 218.9164 303.565 219.2524L303.565 219.2524L304.4199 219.0903C 304.3839 218.8864 304.3569 218.7034 304.3569 218.5233C 304.3569 218.3434 304.4019 218.2084 304.4739 218.1364C 304.5699 218.0524 304.7199 218.0193 304.9599 218.0193L304.9599 218.0193L305.2929 218.0193L305.2929 218.0193L305.2929 218.9463L305.2929 218.9463L306.2559 218.9463L306.2559 218.9463L306.2559 218.0193L306.2559 218.0193L309.9548 218.0192L309.9548 218.0192L309.9547 216.7862L309.9547 216.7862L306.2558 216.7863L306.2558 216.7863L306.2558 216.1023z" stroke="none" fill="#221E1F" fill-rule="evenodd" /><path id="1804" transform="matrix(1 0 0 -1 0 792)" d="M304.654 219.6393L303.511 219.6394L303.511 219.6394L303.511 220.8723L303.511 220.8723L304.654 220.8723zM309.9548 219.6392L305.2929 219.6393L305.2929 219.6393L305.293 220.8723L305.293 220.8723L309.9549 220.8721L309.9549 220.8721L309.9548 219.6392z" stroke="none" fill="#221E1F" fill-rule="evenodd" /><path id="1805" transform="matrix(1 0 0 -1 0 792)" d="M306.6701 226.2092L306.8861 224.9942C 306.6461 224.9462 306.4691 224.8592 306.3371 224.7152C 306.2171 224.5712 306.1571 224.3762 306.1571 224.1482C 306.157 223.8362 306.268 223.5902 306.472 223.4102C 306.688 223.2302 307.039 223.1402 307.543 223.1402C 308.095 223.1402 308.485 223.2272 308.713 223.4192C 308.941 223.5991 309.055 223.8421 309.055 224.1661C 309.055 224.3941 308.989 224.5861 308.857 224.7421C 308.725 224.8861 308.488 224.9851 308.1641 225.0572L308.1641 225.0572L308.3711 226.2721C 308.9351 226.1401 309.355 225.9031 309.631 225.5431C 309.919 225.1831 310.063 224.7031 310.063 224.1031C 310.063 223.4191 309.8469 222.8701 309.4149 222.4741C 308.9829 222.0662 308.3919 221.8712 307.624 221.8712C 306.868 221.8712 306.256 222.0663 305.824 222.4743C 305.4041 222.8823 305.1851 223.4343 305.1851 224.1303C 305.1851 224.6943 305.3051 225.1413 305.5451 225.4892C 305.7971 225.8132 306.1661 226.0652 306.6701 226.2092z" stroke="none" fill="#221E1F" fill-rule="evenodd" /><path id="1806" transform="matrix(1 0 0 -1 0 792)" d="M308.4702 229.8451L308.6772 231.0781C 309.1332 230.91 309.4752 230.6671 309.7032 230.331C 309.9552 229.983 310.0632 229.548 310.0631 229.044C 310.0631 228.2281 309.8021 227.6281 309.2621 227.2441C 308.8421 226.9321 308.3081 226.7851 307.6601 226.7852C 306.8921 226.7852 306.2742 226.9802 305.8422 227.3882C 305.4102 227.7842 305.1852 228.3032 305.1852 228.9272C 305.1853 229.6112 305.4133 230.1692 305.8693 230.5652C 306.3373 230.9612 307.0393 231.1531 307.9753 231.1411L307.9753 231.1411L307.9752 228.0451C 308.3471 228.0451 308.6382 228.1471 308.8301 228.3511C 309.0461 228.5311 309.1361 228.7741 309.1362 229.0621C 309.1362 229.2421 309.0912 229.4041 308.9832 229.5481C 308.8752 229.6801 308.7102 229.7731 308.4702 229.8451zM307.2192 229.9171C 306.8593 229.9051 306.5892 229.8181 306.4092 229.6382C 306.2292 229.4582 306.1302 229.2512 306.1302 228.9992C 306.1302 228.7232 306.2352 228.5012 306.4272 228.3332C 306.6192 228.1532 306.8952 228.0602 307.2192 228.0721L307.2192 228.0721L307.2192 229.9171z" stroke="none" fill="#221E1F" fill-rule="evenodd" /><path id="1807" transform="matrix(1 0 0 -1 0 792)" d="M309.9554 236.397L309.9554 235.155L309.9554 235.155L307.5704 235.1551C 307.0664 235.1551 306.7424 235.1191 306.5984 235.0831C 306.4544 235.0231 306.3434 234.9301 306.2474 234.8221C 306.1754 234.7021 306.1304 234.5581 306.1304 234.3901C 306.1304 234.1741 306.1934 233.9821 306.3014 233.8141C 306.4214 233.6341 306.5774 233.5351 306.7693 233.4631C 306.9734 233.4031 307.3243 233.3731 307.8403 233.3731L307.8403 233.3731L309.9553 233.373L309.9553 233.373L309.9552 232.14L309.9552 232.14L305.2933 232.1402L305.2933 232.1402L305.2934 233.2832L305.2934 233.2832L305.9774 233.2831C 305.4494 233.6911 305.1854 234.1982 305.1855 234.8221C 305.1855 235.0861 305.2335 235.3411 305.3295 235.5691C 305.4375 235.7851 305.5635 235.9621 305.7075 236.0821C 305.8635 236.1901 306.0375 236.2771 306.2295 236.3251C 306.4215 236.3611 306.6974 236.3971 307.0575 236.3971z" stroke="none" fill="#221E1F" fill-rule="evenodd" /><path id="1808" transform="matrix(1 0 0 -1 0 792)" d="M306.6706 241.716L306.8866 240.501C 306.6466 240.453 306.4696 240.366 306.3376 240.222C 306.2176 240.078 306.1576 239.8831 306.1576 239.6551C 306.1576 239.3431 306.2686 239.0971 306.4725 238.9171C 306.6885 238.737 307.0395 238.647 307.5435 238.647C 308.0955 238.647 308.4855 238.734 308.7135 238.926C 308.9415 239.106 309.0555 239.349 309.0555 239.673C 309.0555 239.901 308.9895 240.093 308.8575 240.249C 308.7256 240.393 308.4886 240.492 308.1646 240.564L308.1646 240.564L308.3716 241.779C 308.9356 241.6469 309.3556 241.4099 309.6316 241.0499C 309.9195 240.6899 310.0635 240.2099 310.0635 239.6099C 310.0635 238.9259 309.8474 238.377 309.4155 237.981C 308.9835 237.573 308.3925 237.378 307.6245 237.378C 306.8685 237.3781 306.2565 237.5731 305.8245 237.9811C 305.4045 238.3891 305.1856 238.9411 305.1856 239.6371C 305.1856 240.2011 305.3056 240.6481 305.5456 240.9961C 305.7976 241.3201 306.1667 241.572 306.6706 241.716z" stroke="none" fill="#221E1F" fill-rule="evenodd" /><path id="1809" transform="matrix(1 0 0 -1 0 792)" d="M305.2937 242.0671L305.2937 243.381L305.2937 243.381L308.6057 244.4969L308.6057 244.4969L305.2938 245.586L305.2938 245.586L305.2939 246.864L305.2939 246.864L309.7757 245.2169L309.7757 245.2169L310.5947 244.9198C 310.8586 244.8118 311.0716 244.7098 311.2156 244.6138C 311.3596 244.5058 311.4706 244.3918 311.5666 244.2718C 311.6506 244.1398 311.7256 243.9838 311.7736 243.8038C 311.8216 243.6118 311.8456 243.4018 311.8456 243.1738C 311.8456 242.9338 311.8216 242.6998 311.7736 242.4718L311.7736 242.4718L310.8106 242.3639C 310.8466 242.5559 310.8646 242.7299 310.8646 242.8859C 310.8646 243.1739 310.7806 243.3809 310.6126 243.5249C 310.4326 243.6569 310.2256 243.7679 309.9736 243.8399z" stroke="none" fill="#221E1F" fill-rule="evenodd" /><path id="1810" transform="matrix(1 0 0 -1 0 792)" d="M311.0359 252.2007L311.0359 251.3548C 310.3519 250.8988 309.6499 250.5568 308.9299 250.3288C 308.2099 250.0889 307.4989 249.9779 306.8149 249.9779C 305.9749 249.9779 305.1679 250.119 304.412 250.419C 303.764 250.659 303.158 250.977 302.5941 251.373L302.5941 251.373L302.5941 252.219C 303.494 251.811 304.238 251.535 304.862 251.391C 305.486 251.2349 306.146 251.1659 306.8419 251.1659C 307.3219 251.1659 307.8139 251.1959 308.3179 251.2919C 308.8219 251.3758 309.2929 251.5048 309.7489 251.6608C 310.0489 251.7688 310.4719 251.9488 311.0359 252.2007z" stroke="none" fill="#221E1F" fill-rule="evenodd" /><path id="1811" transform="matrix(1 0 0 -1 0 792)" d="M305.105 252.9029C 304.5291 252.903 304.1061 253.029 303.8181 253.281C 303.5541 253.533 303.4041 253.875 303.4041 254.307C 303.4041 254.751 303.5422 255.108 303.8182 255.36C 304.1062 255.6119 304.5292 255.7379 305.1052 255.7379C 305.6811 255.7379 306.1161 255.6119 306.3921 255.3599C 306.6681 255.1078 306.8061 254.7659 306.8061 254.3339C 306.8061 253.8779 306.668 253.5329 306.392 253.2809C 306.116 253.0289 305.681 252.9029 305.105 252.9029zM305.0961 253.8569C 305.5161 253.8569 305.7981 253.9049 305.9421 254.0009C 306.0501 254.0729 306.0951 254.1749 306.0951 254.3069C 306.0951 254.4389 306.0501 254.5409 305.9421 254.6129C 305.7981 254.7089 305.5161 254.7569 305.0961 254.7569C 304.6761 254.7569 304.4031 254.7089 304.2591 254.6129C 304.1511 254.5409 304.0971 254.4389 304.0971 254.3069C 304.0971 254.175 304.1421 254.073 304.2501 254.0009C 304.3941 253.9049 304.6761 253.8569 305.0961 253.8569zM310.199 255.2517L310.199 254.3337L310.199 254.3337L303.4043 257.7629L303.4043 257.7629L303.4043 258.6539L303.4043 258.6539L310.199 255.2517zM308.5071 257.2408C 307.9311 257.2408 307.5172 257.3638 307.2292 257.6278C 306.9532 257.8798 306.8062 258.2188 306.8062 258.6628C 306.8062 259.0948 306.9532 259.4548 307.2292 259.7068C 307.5172 259.9588 307.9312 260.0847 308.5072 260.0847C 309.0952 260.0847 309.5302 259.9587 309.7942 259.7067C 310.0702 259.4547 310.2171 259.1127 310.2171 258.6807C 310.2171 258.2247 310.0701 257.8797 309.7941 257.6277C 309.5301 257.3637 309.0951 257.2408 308.5071 257.2408zM308.5071 258.2038C 308.9272 258.2037 309.2001 258.2517 309.3441 258.3477C 309.4521 258.4197 309.5061 258.5217 309.5061 258.6537C 309.5062 258.7857 309.4612 258.8877 309.3531 258.9597C 309.2092 259.0557 308.9272 259.1037 308.5072 259.1038C 308.0872 259.1038 307.8052 259.0558 307.6612 258.9598C 307.5532 258.8878 307.5082 258.7858 307.5082 258.6538C 307.5082 258.5098 307.5532 258.4198 307.6612 258.3478C 307.8052 258.2518 308.0872 258.2038 308.5071 258.2038z" stroke="none" fill="#221E1F" fill-rule="evenodd" /><path id="1812" transform="matrix(1 0 0 -1 0 792)" d="M311.0362 260.8137C 310.5082 261.0537 310.1152 261.2187 309.8392 261.3267C 309.5512 261.4227 309.2362 261.5097 308.8763 261.6057C 308.5163 261.6777 308.1773 261.7497 307.8413 261.7857C 307.5173 261.8217 307.1903 261.8488 306.8423 261.8488C 306.1463 261.8488 305.4863 261.7678 304.8623 261.6238C 304.2383 261.4799 303.4944 261.2009 302.5944 260.8049L302.5944 260.8049L302.5944 261.6419C 303.2304 262.0739 303.8934 262.4159 304.6014 262.6678C 305.3094 262.9198 306.0234 263.0368 306.7433 263.0368C 307.3673 263.0367 308.0183 262.9287 308.7143 262.7487C 309.4943 262.5327 310.2802 262.1637 311.0362 261.6596z" stroke="none" fill="#221E1F" fill-rule="evenodd" /><g clip-path="url(#15)"><path id="1813" transform="matrix(1 0 0 -1 0 792)" d="M334.0927 151.5436C 407.8707 151.5576 481.6477 151.5706 555.4237 151.5836M334.0927 168.0556C 407.8707 168.0676 481.6467 168.0796 555.4237 168.0916M334.0927 184.5676C 407.8707 184.5786 481.6477 184.5886 555.4237 184.5996M334.0927 201.0786C 407.8707 201.0886 481.6477 201.0976 555.4237 201.1076M334.0927 217.5906C 407.8707 217.5996 481.6477 217.6076 555.4237 217.6166M334.0917 234.1236L555.4237 234.1236M334.0927 250.6146C 407.8697 250.6206 481.6467 250.6266 555.4237 250.6326M334.0927 267.1266C 407.8697 267.1316 481.6467 267.1366 555.4227 267.1416M334.0927 283.6386C 407.8697 283.6416 481.6467 283.6456 555.4237 283.6496M334.0927 300.1496C 407.8697 300.1526 481.6467 300.1546 555.4237 300.1576M334.0927 316.6616C 407.8697 316.6626 481.6467 316.6646 555.4227 316.6656" stroke="#949699" stroke-width="0.5" fill="none" /></g><path id="1814" transform="matrix(1 0 0 -1 0 792)" d="M334.0917 333.174L555.4227 333.174L555.4227 333.174L555.4227 135.032L555.4227 135.032L334.0917 135.032z" stroke="#221E1F" stroke-width="1" fill="none" /><path id="1815" transform="matrix(1 0 0 -1 0 792)" d="M370.981 333.174L370.981 135.032M407.87 333.174L407.87 135.032M444.758 333.174L444.758 135.032M481.646 333.174L481.646 135.032M518.535 333.174L518.535 135.032" stroke="#949699" stroke-width="0.5" fill="none" /><path id="1816" transform="matrix(1 0 0 -1 0 792)" d="M340.708 330.543L449.479 330.543L449.479 330.543L449.479 318.767L449.479 318.767L340.708 318.767z" stroke="none" fill="#FFFFFF" fill-rule="evenodd" /><path id="1817" transform="matrix(1 0 0 -1 0 792)" d="M451.504 301.062L530.999 301.062L530.999 301.062L530.999 274.745L530.999 274.745L451.504 274.745z" stroke="none" fill="#FFFFFF" fill-rule="evenodd" /><path id="1858" transform="matrix(1 0 0 -1 0 792)" d="M446.2914 320.0595L436.3914 326.0385" stroke="#221E1F" stroke-width="1" fill="none" /><path id="1859" transform="matrix(1 0 0 -1 0 792)" d="M444.5736 318.0188L450.0356 317.7978L450.0356 317.7978L447.2976 322.5298z" stroke="none" fill="#221E1F" fill-rule="evenodd" /><path id="1860" transform="matrix(1 0 0 -1 0 792)" d="M454.745 305.2638L468.456 293.5618" stroke="#221E1F" stroke-width="1" fill="none" /><path id="1861" transform="matrix(1 0 0 -1 0 792)" d="M456.7716 306.998L451.4176 308.104L451.4176 308.104L453.3506 302.99z" stroke="none" fill="#221E1F" fill-rule="evenodd" /></g></g></svg>