<svg xmlns="http://www.w3.org/2000/svg" xmlns:xlink="http://www.w3.org/1999/xlink" id="body_32" preserveAspectRatio="xMinYMin meet" viewBox="0 0 816 1056"><defs><clipPath id="1"><path id="" clip-rule="evenodd" transform="matrix(1 0 0 1 0 0)" d="M0 792L0 0L0 0L612 0L612 0L612 792L612 792L0 792z" /></clipPath><clipPath id="2"><path id="" clip-rule="evenodd" transform="matrix(1 0 0 1 0 0)" d="M63 727.5L567 727.5L567 727.5L567 43.20001L567 43.20001L63 43.20001z" /></clipPath><clipPath id="3"><path id="" clip-rule="evenodd" transform="matrix(1 0 0 1 0 0)" d="M100.5 344.201L512.499 344.201L512.499 344.201L512.499 43.20099L512.499 43.20099L100.5 43.20099z" /></clipPath><clipPath id="4"><path id="" clip-rule="evenodd" transform="matrix(1 0 0 1 0 0)" d="M100.5 344.201L512.499 344.201L512.499 344.201L512.499 43.20099L512.499 43.20099L100.5 43.20099z" /></clipPath><clipPath id="5"><path id="" clip-rule="evenodd" transform="matrix(1 0 0 1 0 0)" d="M100.5 344.201L512.499 344.201L512.499 344.201L512.499 43.20099L512.499 43.20099L100.5 43.20099z" /></clipPath><clipPath id="6"><path id="" clip-rule="evenodd" transform="matrix(1 0 0 1 0 0)" d="M105.42 690.2L493.422 690.2L493.422 690.2L493.422 363.199L493.422 363.199L105.42 363.199z" /></clipPath><clipPath id="7"><path id="" clip-rule="evenodd" transform="matrix(1 0 0 1 0 0)" d="M105.42 690.2L493.422 690.2L493.422 690.2L493.422 363.199L493.422 363.199L105.42 363.199z" /></clipPath><clipPath id="8"><path id="" clip-rule="evenodd" transform="matrix(1 0 0 1 0 0)" d="M105.42 690.2L493.422 690.2L493.422 690.2L493.422 363.199L493.422 363.199L105.42 363.199z" /></clipPath><clipPath id="9"><path id="" clip-rule="evenodd" transform="matrix(1 0 0 1 0 0)" d="M105.42 690.2L493.422 690.2L493.422 690.2L493.422 363.199L493.422 363.199L105.42 363.199z" /></clipPath></defs><g transform="matrix(1.333333 0 0 1.333333 0 0)"><g clip-path="url(#1)"><path id="1" transform="matrix(1 0 0 -1 0 792)" d="M54 39.5055L558 39.5055" stroke="#221E1F" stroke-width="0.5" fill="none" /><path id="30" transform="matrix(1 0 0 -1 0 792)" d="M63 64.5L567 64.5L567 748.8L63 748.8z" stroke="none" fill="#FFFFFF" fill-rule="nonzero" /><g clip-path="url(#2)"></g><path id="191" transform="matrix(1 0 0 -1 0 792)" d="M430.1148 687.0677L430.1148 672.2957M355.3218 736.8247L340.7348 736.8247M374.0438 714.6627L374.0438 686.8687M371.0998 714.6627L371.0998 686.8687" stroke="#221E1F" stroke-width="1" fill="none" /><g clip-path="url(#3)"><path id="192" transform="matrix(1 0 0 -1 0 792)" d="M432.1306 687.0676C 432.1306 688.1766 431.2256 689.0836 430.1146 689.0836C 429.0036 689.0836 428.0986 688.1766 428.0986 687.0676C 428.0986 685.9586 429.0036 685.0516 430.1146 685.0516C 431.2256 685.0516 432.1306 685.9586 432.1306 687.0676" stroke="none" fill="#221E1F" fill-rule="evenodd" /><path id="193" transform="matrix(1 0 0 -1 0 792)" d="M316.71 694.3279L348.635 694.3279L348.635 694.3279L348.635 707.6149L348.635 707.6149L316.71 707.6149z" stroke="#BCBDC0" stroke-width="1" stroke-dasharray="5,1" fill="none" /><path id="194" transform="matrix(1 0 0 -1 0 792)" d="M407.9151 723.163L417.3881 723.163" stroke="#221E1F" stroke-width="1" fill="none" /><path id="195" transform="matrix(1 0 0 -1 0 792)" d="M416.9732 725.7979L421.7632 723.1629L421.7632 723.1629L416.9732 720.5279z" stroke="none" fill="#221E1F" fill-rule="evenodd" /><path id="196" transform="matrix(1 0 0 -1 0 792)" d="M356.2402 679.731L356.2402 670.257M484.8322 723.163L498.6812 723.163M400.5482 542.3571L414.3962 542.3571M434.8862 723.163L448.7342 723.163" stroke="#221E1F" stroke-width="1" fill="none" /><path id="197" transform="matrix(1 0 0 -1 0 792)" d="M358.8754 670.6727L356.2404 665.8828L356.2404 665.8828L353.6054 670.6727z" stroke="none" fill="#221E1F" fill-rule="evenodd" /></g><g clip-path="url(#4)"><path id="254" transform="matrix(1 0 0 -1 0 792)" d="M348.6413 621.2575L348.6193 621.2575L348.6193 621.2575L348.6193 639.4105L348.6193 639.4105L338.6293 639.4105M338.6293 645.3855L348.6293 645.3855L348.6293 645.3855L348.6293 638.9075M338.6293 651.3365L348.6293 651.3365L348.6293 651.3365L348.6353 669.3445M338.6293 640.7855L338.6293 636.2855M338.6293 647.6345L338.6293 643.1345M338.6293 654.2105L338.6293 649.7105M335.3793 654.2855L335.3793 639.4105L335.3793 639.4105L326.7543 639.4105" stroke="#221E1F" stroke-width="1" fill="none" /><path id="255" transform="matrix(1 0 0 -1 0 792)" d="M338.7984 645.3613L345.3794 646.8283L345.3794 646.8283L345.3804 643.8613z" stroke="none" fill="#221E1F" fill-rule="evenodd" /><path id="256" transform="matrix(1 0 0 -1 0 792)" d="M338.7984 645.3613L345.3794 646.8283L345.3794 646.8283L345.3804 643.8613L345.3804 643.8613L338.7984 645.3613z" stroke="#221E1F" stroke-width="0.6" fill="none" /><path id="257" transform="matrix(1 0 0 -1 0 792)" d="M348.6349 572.0446L348.6089 588.3406L348.6089 588.3406L352.9869 589.6376L352.9869 589.6376L344.2219 592.2356L344.2219 592.2356L352.9869 594.8346L352.9869 594.8346L344.2219 597.4306L344.2219 597.4306L352.9869 600.0286L352.9869 600.0286L344.2219 602.6266L344.2219 602.6266L348.6069 603.9246L348.6069 603.9246L348.6069 621.2566" stroke="#221E1F" stroke-width="1" fill="none" /><path id="258" transform="matrix(1 0 0 -1 0 792)" d="M346.5909 621.257C 346.5909 622.366 347.4959 623.273 348.6069 623.273C 349.7179 623.273 350.6229 622.366 350.6229 621.257C 350.6229 620.148 349.7179 619.241 348.6069 619.241C 347.4959 619.241 346.5909 620.148 346.5909 621.257" stroke="none" fill="#221E1F" fill-rule="evenodd" /><path id="259" transform="matrix(1 0 0 -1 0 792)" d="M434.0403 687.1763L507.6113 687.1763L507.6113 687.1763L507.6123 693.5023L507.6123 693.5023L511.9893 694.8003L511.9893 694.8003L503.2253 697.3983L503.2253 697.3983L511.9893 699.9973L511.9893 699.9973L503.2253 702.5933L503.2253 702.5933L511.9893 705.1913L511.9893 705.1913L503.2253 707.7883L503.2253 707.7883L507.6103 709.0862L507.6103 709.0862L507.6103 714.7233L507.6103 714.7233L491.3703 714.7233" stroke="#221E1F" stroke-width="1" fill="none" /><path id="260" transform="matrix(1 0 0 -1 0 792)" d="M436.4698 672.3889L423.8138 672.3889L423.8138 672.3889L430.1418 662.1229z" stroke="none" fill="#FFFFFF" fill-rule="evenodd" /><path id="261" transform="matrix(1 0 0 -1 0 792)" d="M436.4698 672.3889L423.8138 672.3889L423.8138 672.3889L430.1418 662.1229L430.1418 662.1229L436.4698 672.3889z" stroke="#221E1F" stroke-width="1" fill="none" /><path id="262" transform="matrix(1 0 0 -1 0 792)" d="M413.7422 479.1304L401.0862 479.1304L401.0862 479.1304L407.4142 468.8644z" stroke="none" fill="#FFFFFF" fill-rule="evenodd" /><path id="263" transform="matrix(1 0 0 -1 0 792)" d="M413.7422 479.1304L401.0862 479.1304L401.0862 479.1304L407.4142 468.8644L407.4142 468.8644L413.7422 479.1304z" stroke="#221E1F" stroke-width="1" fill="none" /><path id="264" transform="matrix(1 0 0 -1 0 792)" d="M408.4049 714.7239L399.3949 710.3539L399.3949 710.3539L399.3949 719.0939z" stroke="none" fill="#221E1F" fill-rule="evenodd" /><path id="265" transform="matrix(1 0 0 -1 0 792)" d="M441.5323 714.7233L441.5323 702.5123M496.9473 702.5123L486.0093 702.5123M447.0013 702.5123L436.0623 702.5123M245.4813 569.3113L253.1373 569.3113M248.2153 566.5753L250.4043 566.5753M242.7463 572.0443L255.8713 572.0443M344.8743 569.3113L352.5313 569.3113M347.6083 566.5753L349.7973 566.5753M342.1403 572.0443L355.2653 572.0443M348.6353 669.3443L348.6353 687.1763L348.6353 687.1763L365.0333 687.1763C 366.9343 687.1763 368.5293 688.7183 368.5293 690.6193C 368.5293 692.5203 366.9873 694.0563 365.0863 694.0563C 366.9873 694.0563 368.5293 695.5933 368.5293 697.4933C 368.5293 699.3953 366.9873 700.9313 365.0863 700.9313C 366.9873 700.9313 368.5293 702.4683 368.5293 704.3693C 368.5293 706.2703 366.9873 707.8153 365.0863 707.8153C 366.9873 707.8153 368.5293 709.3604 368.5293 711.2614C 368.5293 713.1613 366.9873 714.7233 365.0863 714.7233L365.0863 714.7233L348.6353 714.7233L348.6353 714.7233L348.6353 736.8123M434.0403 687.1763L380.2873 687.1763C 378.3863 687.1763 376.8443 688.7183 376.8443 690.6193C 376.8443 692.5203 378.3863 694.0563 380.2873 694.0563C 378.3863 694.0563 376.8443 695.5933 376.8443 697.4933C 376.8443 699.3953 378.3863 700.9313 380.2873 700.9313C 378.3863 700.9313 376.8443 702.4683 376.8443 704.3693C 376.8443 706.2703 378.3863 707.8153 380.2873 707.8153C 378.3863 707.8153 376.8443 709.3604 376.8443 711.2614C 376.8443 713.1613 378.3863 714.7233 380.2873 714.7233L380.2873 714.7233L399.3953 714.7233M408.4493 710.2843L408.4493 719.0343M408.1373 714.7233L441.5733 714.7233" stroke="#221E1F" stroke-width="1" fill="none" /><path id="266" transform="matrix(1 0 0 -1 0 792)" d="M443.5483 714.7233C 443.5483 715.8323 442.6433 716.7393 441.5323 716.7393C 440.4213 716.7393 439.5163 715.8323 439.5163 714.7233C 439.5163 713.6143 440.4213 712.7073 441.5323 712.7073C 442.6433 712.7073 443.5483 713.6143 443.5483 714.7233" stroke="none" fill="#221E1F" fill-rule="evenodd" /><path id="267" transform="matrix(1 0 0 -1 0 792)" d="M491.4787 714.4734L491.4787 702.5124" stroke="#221E1F" stroke-width="1" fill="none" /><path id="268" transform="matrix(1 0 0 -1 0 792)" d="M493.4947 714.4734C 493.4947 715.5824 492.5897 716.4894 491.4787 716.4894C 490.3677 716.4894 489.4627 715.5824 489.4627 714.4734C 489.4627 713.3644 490.3677 712.4574 491.4787 712.4574C 492.5897 712.4574 493.4947 713.3644 493.4947 714.4734" stroke="none" fill="#221E1F" fill-rule="evenodd" /><path id="269" transform="matrix(1 0 0 -1 0 792)" d="M419.0564 714.4734L419.0564 702.5124" stroke="#221E1F" stroke-width="1" fill="none" /><path id="270" transform="matrix(1 0 0 -1 0 792)" d="M421.0724 714.4734C 421.0724 715.5824 420.1674 716.4894 419.0564 716.4894C 417.9454 716.4894 417.0404 715.5824 417.0404 714.4734C 417.0404 713.3644 417.9454 712.4574 419.0564 712.4574C 420.1674 712.4574 421.0724 713.3644 421.0724 714.4734" stroke="none" fill="#221E1F" fill-rule="evenodd" /><path id="271" transform="matrix(1 0 0 -1 0 792)" d="M329.6456 534.7523L329.6456 550.8193L329.6456 550.8193L356.5626 550.8193" stroke="#221E1F" stroke-width="1" fill="none" /><path id="272" transform="matrix(1 0 0 -1 0 792)" d="M327.6297 534.7523C 327.6297 533.6433 328.5347 532.7363 329.6457 532.7363C 330.7567 532.7363 331.6617 533.6433 331.6617 534.7523C 331.6617 535.8613 330.7567 536.7683 329.6457 536.7683C 328.5347 536.7683 327.6297 535.8613 327.6297 534.7523" stroke="none" fill="#221E1F" fill-rule="evenodd" /><path id="273" transform="matrix(1 0 0 -1 0 792)" d="M441.5323 698.9119L441.5323 686.9509" stroke="#221E1F" stroke-width="1" fill="none" /><path id="274" transform="matrix(1 0 0 -1 0 792)" d="M443.5483 686.9506C 443.5483 685.8416 442.6433 684.9346 441.5323 684.9346C 440.4213 684.9346 439.5163 685.8416 439.5163 686.9506C 439.5163 688.0596 440.4213 688.9666 441.5323 688.9666C 442.6433 688.9666 443.5483 688.0596 443.5483 686.9506" stroke="none" fill="#221E1F" fill-rule="evenodd" /><path id="275" transform="matrix(1 0 0 -1 0 792)" d="M491.4787 698.9119L491.4787 686.9509" stroke="#221E1F" stroke-width="1" fill="none" /><path id="276" transform="matrix(1 0 0 -1 0 792)" d="M493.4947 686.9506C 493.4947 685.8416 492.5897 684.9346 491.4787 684.9346C 490.3677 684.9346 489.4627 685.8416 489.4627 686.9506C 489.4627 688.0596 490.3677 688.9666 491.4787 688.9666C 492.5897 688.9666 493.4947 688.0596 493.4947 686.9506" stroke="none" fill="#221E1F" fill-rule="evenodd" /><path id="277" transform="matrix(1 0 0 -1 0 792)" d="M419.0564 698.9119L419.0564 686.9509" stroke="#221E1F" stroke-width="1" fill="none" /><path id="278" transform="matrix(1 0 0 -1 0 792)" d="M421.0724 686.9506C 421.0724 685.8416 420.1674 684.9346 419.0564 684.9346C 417.9454 684.9346 417.0404 685.8416 417.0404 686.9506C 417.0404 688.0596 417.9454 688.9666 419.0564 688.9666C 420.1674 688.9666 421.0724 688.0596 421.0724 686.9506" stroke="none" fill="#221E1F" fill-rule="evenodd" /><path id="279" transform="matrix(1 0 0 -1 0 792)" d="M375.443 534.7158L387.172 534.7158" stroke="#221E1F" stroke-width="1" fill="none" /><path id="280" transform="matrix(1 0 0 -1 0 792)" d="M387.1722 536.7319C 388.2812 536.7319 389.1882 535.8268 389.1882 534.7159C 389.1882 533.6049 388.2812 532.6999 387.1722 532.6999C 386.0632 532.6999 385.1562 533.6049 385.1562 534.7159C 385.1562 535.8268 386.0632 536.7319 387.1722 536.7319" stroke="none" fill="#221E1F" fill-rule="evenodd" /><path id="281" transform="matrix(1 0 0 -1 0 792)" d="M360.1632 550.8192L387.1792 550.8192L387.1792 550.8192L387.1722 512.8862" stroke="#221E1F" stroke-width="1" fill="none" /><path id="282" transform="matrix(1 0 0 -1 0 792)" d="M389.1883 512.886C 389.1883 511.777 388.2823 510.87 387.1723 510.87C 386.0613 510.871 385.1563 511.778 385.1563 512.887C 385.1563 513.995 386.0623 514.903 387.1723 514.902C 388.2833 514.902 389.1883 513.995 389.1883 512.886" stroke="none" fill="#221E1F" fill-rule="evenodd" /><path id="283" transform="matrix(1 0 0 -1 0 792)" d="M496.9729 697.3815C 495.3579 698.3254 493.4759 698.8665 491.4679 698.8665C 489.4769 698.8665 487.6129 698.3354 486.0039 697.4055M447.0269 697.3815C 445.4109 698.3254 443.5299 698.8665 441.5219 698.8665C 439.5309 698.8665 437.6659 698.3354 436.0569 697.4055" stroke="#221E1F" stroke-width="1" fill="none" /><path id="284" transform="matrix(1 0 0 -1 0 792)" d="M364.8137 712.6531C 365.6197 712.6531 366.2737 711.9991 366.2737 711.1941C 366.2737 710.3881 365.6197 709.7341 364.8137 709.7341C 364.0077 709.7341 363.3537 710.3881 363.3537 711.1941C 363.3537 711.9991 364.0077 712.6531 364.8137 712.6531" stroke="none" fill="#221E1F" fill-rule="evenodd" /><path id="285" transform="matrix(1 0 0 -1 0 792)" d="M364.8137 712.6531C 365.6197 712.6531 366.2737 711.9991 366.2737 711.1941C 366.2737 710.3881 365.6197 709.7341 364.8137 709.7341C 364.0077 709.7341 363.3537 710.3881 363.3537 711.1941C 363.3537 711.9991 364.0077 712.6531 364.8137 712.6531z" stroke="#221E1F" stroke-width="1" fill="none" /><path id="286" transform="matrix(1 0 0 -1 0 792)" d="M380.6087 691.988C 381.4147 691.988 382.0687 691.334 382.0687 690.528C 382.0687 689.723 381.4147 689.069 380.6087 689.069C 379.8027 689.069 379.1487 689.723 379.1487 690.528C 379.1487 691.334 379.8027 691.988 380.6087 691.988" stroke="none" fill="#221E1F" fill-rule="evenodd" /><path id="287" transform="matrix(1 0 0 -1 0 792)" d="M380.6087 691.988C 381.4147 691.988 382.0687 691.334 382.0687 690.528C 382.0687 689.723 381.4147 689.069 380.6087 689.069C 379.8027 689.069 379.1487 689.723 379.1487 690.528C 379.1487 691.334 379.8027 691.988 380.6087 691.988z" stroke="#221E1F" stroke-width="1" fill="none" /><path id="288" transform="matrix(1 0 0 -1 0 792)" d="M348.6351 669.3444L332.6691 669.3444L332.6691 669.3444L332.6691 694.3274M332.6691 707.6144L332.6691 714.7234L332.6691 714.7234L348.6351 714.7234" stroke="#BCBDC0" stroke-width="1" stroke-dasharray="5,1" fill="none" /><path id="289" transform="matrix(1 0 0 -1 0 792)" d="M249.3473 621.2574L249.3613 598.5804M419.0473 708.1244L419.0473 702.6573M230.6043 686.6274L230.6043 675.6904M254.8923 598.5804L243.9553 598.5804M356.5423 556.2794L356.5423 545.3424M371.7733 540.2344L371.7733 529.2964M424.5163 702.5323L413.5793 702.5323M234.2513 675.6904L234.2513 686.6274M243.9553 594.9333L254.8923 594.9333M360.1893 545.3424L360.1893 556.2794M375.4203 529.2964L375.4203 540.2344M413.5793 698.8854L424.5163 698.8854" stroke="#221E1F" stroke-width="1" fill="none" /><path id="290" transform="matrix(1 0 0 -1 0 792)" d="M251.3633 621.2581C 251.3623 622.3671 250.4563 623.2731 249.3463 623.2731C 248.2353 623.2721 247.3303 622.3641 247.3313 621.2561C 247.3323 620.1471 248.2383 619.2401 249.3483 619.2411C 250.4593 619.2411 251.3643 620.1491 251.3633 621.2581" stroke="none" fill="#221E1F" fill-rule="evenodd" /><path id="291" transform="matrix(1 0 0 -1 0 792)" d="M371.7736 534.7156L358.2036 534.7177L358.2036 534.7177L356.9066 539.0956L356.9066 539.0956L354.3086 530.3306L354.3086 530.3306L351.7096 539.0956L351.7096 539.0956L349.1136 530.3306L349.1136 530.3306L346.5146 539.0956L346.5146 539.0956L343.9176 530.3306L343.9176 530.3306L342.6196 534.7156L342.6196 534.7156L329.6456 534.7156L329.6456 534.7156L329.6456 502.3356M407.4136 513.2856L407.4156 520.7526L407.4156 520.7526L411.7936 522.0496L411.7936 522.0496L403.0286 524.6476L403.0286 524.6476L411.7936 527.2466L411.7936 527.2466L403.0286 529.8427L403.0286 529.8427L411.7936 532.4417L411.7936 532.4417L403.0286 535.0386L403.0286 535.0386L407.4136 536.3366L407.4136 536.3366L407.4136 542.5776M407.4136 479.0726L407.4156 486.7886L407.4156 486.7886L411.7936 488.0866L411.7936 488.0866L403.0286 490.6836L403.0286 490.6836L411.7936 493.2826L411.7936 493.2826L403.0286 495.8796L403.0286 495.8796L411.7936 498.4776L411.7936 498.4776L403.0286 501.0746L403.0286 501.0746L407.4136 502.3726L407.4136 502.3726L407.4136 512.8596M259.1056 647.2786L259.1076 648.2526L259.1076 648.2526L263.2976 649.5496L263.2976 649.5496L254.5326 652.1476L254.5326 652.1476L263.2976 654.7466L263.2976 654.7466L254.5326 657.3427L254.5326 657.3427L263.2976 659.9417L263.2976 659.9417L254.5326 662.5386L254.5326 662.5386L259.1056 663.8366L259.1056 663.8366L259.1056 664.9966M286.3886 700.2227L286.3906 701.1956L286.3906 701.1956L290.7686 702.4937L290.7686 702.4937L282.0036 705.0906L282.0036 705.0906L290.7686 707.6896L290.7686 707.6896L282.0036 710.2866L282.0036 710.2866L290.7686 712.8846L290.7686 712.8846L282.0036 715.4816L282.0036 715.4816L286.3886 716.7796L286.3886 716.7796L286.3886 717.9396M249.3616 594.9186L249.3476 572.0446M419.0476 698.9946L419.0476 693.5266" stroke="#221E1F" stroke-width="1" fill="none" /><path id="292" transform="matrix(1 0 0 -1 0 792)" d="M331.6617 502.3359C 331.6617 501.2269 330.7567 500.3199 329.6457 500.3199C 328.5347 500.3199 327.6297 501.2269 327.6297 502.3359C 327.6297 503.4449 328.5347 504.3519 329.6457 504.3519C 330.7567 504.3519 331.6617 503.4449 331.6617 502.3359" stroke="none" fill="#221E1F" fill-rule="evenodd" /><path id="293" transform="matrix(1 0 0 -1 0 792)" d="M441.5325 714.723L452.7345 714.723C 452.7345 716.624 454.2765 718.166 456.1775 718.166C 458.0785 718.166 459.6145 716.624 459.6145 714.723C 459.6145 716.624 461.1515 718.166 463.0515 718.166C 464.9535 718.166 466.4895 716.624 466.4895 714.723C 466.4895 716.624 468.0265 718.166 469.9275 718.166C 471.8285 718.166 473.3735 716.624 473.3735 714.723C 473.3735 716.624 474.9185 718.166 476.8195 718.166C 478.7195 718.166 480.2815 716.624 480.2815 714.723L480.2815 714.723L491.3995 714.723M353.3615 496.485L360.8795 496.485L360.8795 496.485L360.8795 496.622L360.8795 496.622L362.6575 507.422M366.3485 507.558L358.8295 507.558L358.8295 507.558L358.8295 507.422L358.8295 507.422L357.0525 496.622M160.3185 604.869L167.8365 604.869L167.8365 604.869L167.8365 605.006L167.8365 605.006L169.6145 615.805M173.3045 615.942L165.7865 615.942L165.7865 615.942L165.7865 615.805L165.7865 615.805L164.0095 605.006M182.9695 600.1479L193.4985 600.1479L193.4985 600.1479L193.4985 502.009L193.4985 502.009L268.9035 502.009M338.5305 502.335L375.4425 523.663L375.4425 523.663L375.4425 481.007L375.4425 481.007L338.5305 502.335zM145.4875 610.719L182.3995 632.046L182.3995 632.046L182.3995 589.39L182.3995 589.39L145.4875 610.719zM348.1315 621.217L325.1805 621.218L325.1805 621.218L323.8825 625.596L323.8825 625.596L321.2865 616.83L321.2865 616.83L318.6875 625.596L318.6875 625.596L316.0905 616.83L316.0905 616.83L313.4925 625.596L313.4925 625.596L310.8955 616.83L310.8955 616.83L309.4155 621.257L309.4155 621.257L182.1505 621.257" stroke="#221E1F" stroke-width="1" fill="none" /><path id="294" transform="matrix(1 0 0 -1 0 792)" d="M357.3611 619.5159L361.7361 619.5159L361.7361 619.5159L361.7361 628.481L361.7361 628.481L377.4421 636.369L377.4421 636.369L377.4421 619.5159L377.4421 619.5159L393.0041 619.5159" stroke="#0A74BC" stroke-width="1.5" fill="none" /><path id="295" transform="matrix(1 0 0 -1 0 792)" d="M348.6349 726.6398L286.3889 726.6398L286.3889 726.6398L286.3889 718.8428" stroke="#221E1F" stroke-width="1" stroke-dasharray="5,3" fill="none" /><path id="296" transform="matrix(1 0 0 -1 0 792)" d="M348.6349 724.6237C 349.7439 724.6237 350.6509 725.5287 350.6509 726.6397C 350.6509 727.7507 349.7439 728.6557 348.6349 728.6557C 347.5259 728.6557 346.6189 727.7507 346.6189 726.6397C 346.6189 725.5287 347.5259 724.6237 348.6349 724.6237" stroke="none" fill="#221E1F" fill-rule="evenodd" /><path id="297" transform="matrix(1 0 0 -1 0 792)" d="M286.3888 698.0923L286.3888 621.2574M236.1298 681.2294L259.1058 681.2294L259.1058 681.2294L259.1058 666.1494" stroke="#221E1F" stroke-width="1" stroke-dasharray="5,3" fill="none" /><path id="298" transform="matrix(1 0 0 -1 0 792)" d="M288.4047 621.257C 288.4047 620.148 287.4997 619.241 286.3887 619.241C 285.2777 619.241 284.3727 620.148 284.3727 621.257C 284.3727 622.366 285.2777 623.273 286.3887 623.273C 287.4997 623.273 288.4047 622.366 288.4047 621.257" stroke="none" fill="#221E1F" fill-rule="evenodd" /><path id="299" transform="matrix(1 0 0 -1 0 792)" d="M259.0868 645.6489L259.0868 621.2569" stroke="#221E1F" stroke-width="1" stroke-dasharray="5,3" fill="none" /><path id="300" transform="matrix(1 0 0 -1 0 792)" d="M261.1028 621.257C 261.1028 620.148 260.1978 619.241 259.0868 619.241C 257.9758 619.241 257.0708 620.148 257.0708 621.257C 257.0708 622.366 257.9758 623.273 259.0868 623.273C 260.1978 623.273 261.1028 622.366 261.1028 621.257" stroke="none" fill="#221E1F" fill-rule="evenodd" /><path id="301" transform="matrix(1 0 0 -1 0 792)" d="M319.3242 502.3357L338.5332 502.3357M125.2822 610.7197L145.4902 610.7197" stroke="#221E1F" stroke-width="1" fill="none" /><path id="302" transform="matrix(1 0 0 -1 0 792)" d="M259.087 561.208L421.882 561.208L421.882 561.208L421.882 448.8L421.882 448.8L259.087 448.8zM101.658 668.991L231.015 668.991L231.015 668.991L231.015 566.6671L231.015 566.6671L101.658 566.6671z" stroke="#48B84D" stroke-width="1" stroke-dasharray="5,3" fill="none" /><path id="303" transform="matrix(1 0 0 -1 0 792)" d="M156.6825 623.0796L156.6825 637.3306L156.6825 637.3306L146.6925 637.3306L146.6925 637.3306L146.6925 623.0796L146.6925 623.0796L126.7145 623.0796L126.7145 623.0796L126.7145 637.3306L126.7145 637.3306L116.7245 637.3306L116.7245 637.3306L116.7245 623.0796L116.7245 623.0796L106.7355 623.0796M137.3705 690.1116L154.4445 701.3276L154.4445 701.3276L157.1545 690.1116L157.1545 690.1116L173.8895 701.3276L173.8895 701.3276L176.6385 690.1116" stroke="#0A74BC" stroke-width="1.5" fill="none" /></g><g clip-path="url(#5)"><path id="308" transform="matrix(1 0 0 -1 0 792)" d="M184.4489 681.2294L231.3539 681.2294" stroke="#221E1F" stroke-width="1" stroke-dasharray="5,3" fill="none" /><path id="309" transform="matrix(1 0 0 -1 0 792)" d="M111.601 644.5731L105.986 644.5731" stroke="#221E1F" stroke-width="1" fill="none" /><path id="310" transform="matrix(1 0 0 -1 0 792)" d="M111.1858 641.9382L115.9758 644.5732L115.9758 644.5732L111.1858 647.2082z" stroke="none" fill="#221E1F" fill-rule="evenodd" /><path id="311" transform="matrix(1 0 0 -1 0 792)" d="M131.8381 644.5731L137.4531 644.5731" stroke="#221E1F" stroke-width="1" fill="none" /><path id="312" transform="matrix(1 0 0 -1 0 792)" d="M132.2534 647.2078L127.4634 644.5728L127.4634 644.5728L132.2534 641.9378z" stroke="none" fill="#221E1F" fill-rule="evenodd" /><path id="313" transform="matrix(1 0 0 -1 0 792)" d="M375.4433 512.8857L407.4153 512.8857M375.4433 491.6517L387.1723 491.6517L387.1723 491.6517L387.1723 472.1177M268.9033 516.0307L319.0253 516.0307L319.0253 516.0307L319.0253 487.3897L319.0253 487.3897L268.9033 487.3897zM491.4783 723.1627L491.4783 714.7227M441.5323 723.1627L441.5323 714.7227" stroke="#221E1F" stroke-width="1" fill="none" /><path id="314" transform="matrix(1 0 0 -1 0 792)" d="M407.415 514.902C 408.524 514.902 409.431 513.9969 409.431 512.886C 409.431 511.775 408.524 510.87 407.415 510.87C 406.306 510.87 405.399 511.775 405.399 512.886C 405.399 513.9969 406.306 514.902 407.415 514.902" stroke="none" fill="#221E1F" fill-rule="evenodd" /></g><path id="315" transform="matrix(1 0 0 -1 0 792)" d="M380.4475 254.8814L380.4475 255.7064L380.4475 255.7064L380.4015 256.5304L380.4015 256.5304L380.3095 257.3554L380.3095 257.3554L380.2185 258.0884L380.2185 258.0884L380.1265 258.8214L380.1265 258.8214L379.9895 259.5084L379.9895 259.5084L379.8975 259.8294L379.8975 259.8294L379.8065 260.1504L379.8065 260.1504L379.7145 260.4254L379.7145 260.4254L379.6225 260.6994L379.6225 260.6994L379.5315 260.9744L379.5315 260.9744L379.4395 261.2494L379.4395 261.2494L379.3475 261.4784L379.3475 261.4784L379.2565 261.7074L379.2565 261.7074L379.1185 261.9364L379.1185 261.9364L379.0275 262.1204L379.0275 262.1204L378.8895 262.3034L378.8895 262.3034L378.7525 262.4864L378.7525 262.4864L378.6605 262.6244L378.6605 262.6244L378.5235 262.7614L378.5235 262.7614L378.3855 262.8534L378.3855 262.8534L378.2485 262.9444L378.2485 262.9444L378.1105 263.0364L378.1105 263.0364L377.9735 263.0824L377.9735 263.0824L377.8355 263.1284L377.8355 263.1284L377.6985 263.1284L377.6985 263.1284L377.5605 263.1284L377.5605 263.1284L377.4235 263.0824L377.4235 263.0824L377.2865 263.0364L377.2865 263.0364L377.1485 262.9444L377.1485 262.9444L377.0115 262.8534L377.0115 262.8534L376.8735 262.7614L376.8735 262.7614L376.7365 262.6244L376.7365 262.6244L376.6445 262.4864L376.6445 262.4864L376.5075 262.3034L376.5075 262.3034L376.3695 262.1204L376.3695 262.1204L376.2785 261.9364L376.2785 261.9364L376.1865 261.7074L376.1865 261.7074L376.0495 261.4784L376.0495 261.4784L375.9575 261.2494L375.9575 261.2494L375.8655 260.9744L375.8655 260.9744L375.7745 260.6994L375.7745 260.6994L375.6825 260.4254L375.6825 260.4254L375.5905 260.1504L375.5905 260.1504L375.4995 259.8294L375.4995 259.8294L375.4075 259.5084L375.4075 259.5084L375.2705 258.8214L375.2705 258.8214L375.1785 258.0884L375.1785 258.0884L375.0865 257.3554L375.0865 257.3554L374.9955 256.5304L374.9955 256.5304L374.9495 255.7064L374.9495 255.7064L374.9495 254.8814L374.9495 254.8814L374.9495 254.0564L374.9495 254.0564L374.9955 253.2324L374.9955 253.2324L375.0865 252.4534L375.0865 252.4534L375.1785 251.6744L375.1785 251.6744L375.2705 250.9414L375.2705 250.9414L375.4075 250.2534L375.4075 250.2534L375.4995 249.9334L375.4995 249.9334L375.5905 249.6584L375.5905 249.6584L375.6825 249.3374L375.6825 249.3374L375.7745 249.0624L375.7745 249.0624L375.8655 248.7874L375.8655 248.7874L375.9575 248.5124L375.9575 248.5124L376.0495 248.2834L376.0495 248.2834L376.1865 248.0544L376.1865 248.0544L376.2785 247.8254L376.2785 247.8254L376.3695 247.6424L376.3695 247.6424L376.5075 247.4594L376.5075 247.4594L376.6445 247.2754L376.6445 247.2754L376.7365 247.1384L376.7365 247.1384L376.8735 247.0004L376.8735 247.0004L377.0115 246.9094L377.0115 246.9094L377.1485 246.8174L377.1485 246.8174L377.2865 246.7264L377.2865 246.7264L377.4235 246.6804L377.4235 246.6804L377.5605 246.6344L377.5605 246.6344L377.6985 246.6344L377.6985 246.6344L377.8355 246.6344L377.8355 246.6344L377.9735 246.6804L377.9735 246.6804L378.1105 246.7264L378.1105 246.7264L378.2485 246.8174L378.2485 246.8174L378.3855 246.9094L378.3855 246.9094L378.5235 247.0004L378.5235 247.0004L378.6605 247.1384L378.6605 247.1384L378.7525 247.2754L378.7525 247.2754L378.8895 247.4594L378.8895 247.4594L379.0275 247.6424L379.0275 247.6424L379.1185 247.8254L379.1185 247.8254L379.2565 248.0544L379.2565 248.0544L379.3475 248.2834L379.3475 248.2834L379.4395 248.5124L379.4395 248.5124L379.5315 248.7874L379.5315 248.7874L379.6225 249.0624L379.6225 249.0624L379.7145 249.3374L379.7145 249.3374L379.8065 249.6584L379.8065 249.6584L379.8975 249.9334L379.8975 249.9334L379.9895 250.2534L379.9895 250.2534L380.1265 250.9414L380.1265 250.9414L380.2185 251.6744L380.2185 251.6744L380.3095 252.4534L380.3095 252.4534L380.4015 253.2324L380.4015 253.2324L380.4475 254.0564L380.4475 254.0564L380.4475 254.8814" stroke="#221E1F" stroke-width="1" fill="none" /><g clip-path="url(#6)"><path id="316" transform="matrix(1 0 0 -1 0 792)" d="M221.483 102.4189L354.168 102.4189L354.168 102.4189L354.168 166.7639L354.168 166.7639L221.483 166.7639zM389.198 103.7339L490.91 103.7339L490.91 103.7339L490.91 220.8889L490.91 220.8889L389.198 220.8889z" stroke="#46785D" stroke-width="1" stroke-dasharray="5,3" fill="none" /></g><path id="317" transform="matrix(1 0 0 -1 0 792)" d="M149.521 409.6209L181.811 409.6209M398.02 137.8949L433.756 137.8949L433.756 137.8949L433.756 165.9799L433.756 165.9799L398.02 165.9799zM310.207 247.4769L365.858 247.4769L365.858 247.4769L365.858 302.4779L365.858 302.4779L310.207 302.4779zM395.774 283.6269L431.51 283.6269L431.51 283.6269L431.51 321.1029L431.51 321.1029L395.774 321.1029zM446.173 183.9039L481.909 183.9039L481.909 183.9039L481.909 211.9889L481.909 211.9889L446.173 211.9889zM221.578 180.2799L287.443 180.2799L287.443 180.2799L287.443 208.3649L287.443 208.3649L221.578 208.3649zM147.774 318.0689L186.26 318.0689L186.26 318.0689L186.26 350.9689L186.26 350.9689L147.774 350.9689z" stroke="#221E1F" stroke-width="1" fill="none" /><path id="318" transform="matrix(1 0 0 -1 0 792)" d="M181.3953 412.2553L186.1853 409.6203L181.3953 406.9853z" stroke="none" fill="#221E1F" fill-rule="nonzero" /><path id="319" transform="matrix(1 0 0 -1 0 792)" d="M181.4029 288.2411L166.2899 317.6181" stroke="#221E1F" stroke-width="1" fill="none" /><path id="320" transform="matrix(1 0 0 -1 0 792)" d="M178.8696 287.4051L183.4036 284.3511L183.5556 289.8161z" stroke="none" fill="#221E1F" fill-rule="nonzero" /><path id="321" transform="matrix(1 0 0 -1 0 792)" d="M201.0856 289.0081L219.1286 318.5421" stroke="#221E1F" stroke-width="1" fill="none" /><path id="322" transform="matrix(1 0 0 -1 0 792)" d="M199.0537 290.7364L198.8047 285.2754L203.5507 287.9894z" stroke="none" fill="#221E1F" fill-rule="nonzero" /><path id="323" transform="matrix(1 0 0 -1 0 792)" d="M365.9372 257.4598L388.5302 257.4598" stroke="#221E1F" stroke-width="1" fill="none" /><path id="324" transform="matrix(1 0 0 -1 0 792)" d="M388.1147 260.0947L392.9047 257.4597L388.1147 254.8247z" stroke="none" fill="#221E1F" fill-rule="nonzero" /><path id="325" transform="matrix(1 0 0 -1 0 792)" d="M431.8371 302.425L448.5831 302.425" stroke="#221E1F" stroke-width="1" fill="none" /><path id="326" transform="matrix(1 0 0 -1 0 792)" d="M448.1675 305.0598L452.9575 302.4248L448.1675 299.7898z" stroke="none" fill="#221E1F" fill-rule="nonzero" /><path id="327" transform="matrix(1 0 0 -1 0 792)" d="M337.8765 315.7603L337.8765 306.8523" stroke="#221E1F" stroke-width="1" fill="none" /><path id="328" transform="matrix(1 0 0 -1 0 792)" d="M340.5113 307.2673L337.8763 302.4773L335.2413 307.2673z" stroke="none" fill="#221E1F" fill-rule="nonzero" /><path id="329" transform="matrix(1 0 0 -1 0 792)" d="M176.0874 274.3929L169.2714 274.3929L169.2714 274.3929L169.0274 152.0109L169.0274 152.0109L242.5554 152.0109" stroke="#221E1F" stroke-width="1" fill="none" /><path id="330" transform="matrix(1 0 0 -1 0 792)" d="M175.6722 271.7581L180.4622 274.3931L175.6722 277.0281z" stroke="none" fill="#221E1F" fill-rule="nonzero" /><path id="331" transform="matrix(1 0 0 -1 0 792)" d="M339.0152 152.0737L398.4892 152.0737" stroke="#221E1F" stroke-width="1" fill="none" /><path id="332" transform="matrix(1 0 0 -1 0 792)" d="M339.4305 154.7085L334.6405 152.0735L339.4305 149.4385z" stroke="none" fill="#221E1F" fill-rule="nonzero" /><path id="333" transform="matrix(1 0 0 -1 0 792)" d="M304.5805 152.0112L320.9905 152.0112" stroke="#221E1F" stroke-width="1" fill="none" /><path id="334" transform="matrix(1 0 0 -1 0 792)" d="M304.9957 154.6461L300.2057 152.0111L304.9957 149.3761z" stroke="none" fill="#221E1F" fill-rule="nonzero" /><path id="335" transform="matrix(1 0 0 -1 0 792)" d="M259.8784 152.0112L276.2884 152.0112" stroke="#221E1F" stroke-width="1" fill="none" /><path id="336" transform="matrix(1 0 0 -1 0 792)" d="M260.2937 154.6461L255.5037 152.0111L260.2937 149.3761z" stroke="none" fill="#221E1F" fill-rule="nonzero" /><path id="337" transform="matrix(1 0 0 -1 0 792)" d="M221.9222 409.6205L277.1972 409.6205" stroke="#221E1F" stroke-width="1" fill="none" /><path id="338" transform="matrix(1 0 0 -1 0 792)" d="M276.7817 412.2553L281.5717 409.6203L276.7817 406.9853z" stroke="none" fill="#221E1F" fill-rule="nonzero" /><path id="339" transform="matrix(1 0 0 -1 0 792)" d="M337.8765 355.3438L337.8765 409.6568L337.8765 409.6568L281.1975 409.6208" stroke="#221E1F" stroke-width="1" fill="none" /><path id="340" transform="matrix(1 0 0 -1 0 792)" d="M335.2417 355.7592L337.8767 350.9692L340.5117 355.7592z" stroke="none" fill="#221E1F" fill-rule="nonzero" /><path id="341" transform="matrix(1 0 0 -1 0 792)" d="M275.169 380.811L275.169 355.981M195.221 318.369L301.78 318.369L301.78 318.369L301.78 350.861L301.78 350.861L195.221 350.861z" stroke="#221E1F" stroke-width="1" fill="none" /><g clip-path="url(#7)"><path id="342" transform="matrix(1 0 0 -1 0 792)" d="M277.1851 380.8109C 277.1851 381.9199 276.2801 382.8269 275.1691 382.8269C 274.0581 382.8269 273.1531 381.9199 273.1531 380.8109C 273.1531 379.7019 274.0581 378.7949 275.1691 378.7949C 276.2801 378.7949 277.1851 379.7019 277.1851 380.8109" stroke="none" fill="#221E1F" fill-rule="evenodd" /><path id="343" transform="matrix(1 0 0 -1 0 792)" d="M277.8039 356.3963L275.1689 351.6063L275.1689 351.6063L272.5339 356.3963z" stroke="none" fill="#221E1F" fill-rule="evenodd" /><path id="344" transform="matrix(1 0 0 -1 0 792)" d="M452.8786 302.3459L452.9246 302.9419L452.9246 302.9419L452.9706 303.5369L452.9706 303.5369L453.0156 304.1329L453.0156 304.1329L453.1076 304.7289L453.1076 304.7289L453.2456 305.2779L453.2456 305.2779L453.3826 305.8739L453.3826 305.8739L453.5656 306.4239L453.5656 306.4239L453.7946 306.9279L453.7946 306.9279L454.0236 307.4779L454.0236 307.4779L454.2526 307.9819L454.2526 307.9819L454.5276 308.4859L454.5276 308.4859L454.8486 308.9439L454.8486 308.9439L455.1696 309.4479L455.1696 309.4479L455.4896 309.8599L455.4896 309.8599L455.8566 310.3179L455.8566 310.3179L456.2236 310.7309L456.2236 310.7309L456.6356 311.0969L456.6356 311.0969L457.0476 311.4639L457.0476 311.4639L457.5056 311.8299L457.5056 311.8299L457.9186 312.1509L457.9186 312.1509L458.4226 312.4719L458.4226 312.4719L458.8806 312.7459L458.8806 312.7459L459.3846 313.0209L459.3846 313.0209L459.8886 313.2499L459.8886 313.2499L460.3926 313.4799L460.3926 313.4799L460.9416 313.6629L460.9416 313.6629L461.4916 313.7999L461.4916 313.7999L462.0416 313.9379L462.0416 313.9379L462.5916 314.0749L462.5916 314.0749L463.1876 314.1209L463.1876 314.1209L463.7366 314.1669L463.7366 314.1669L464.3326 314.1669L464.3326 314.1669L464.9286 314.1669L464.9286 314.1669L465.5236 314.1209L465.5236 314.1209L466.0736 314.0749L466.0736 314.0749L466.6696 313.9379L466.6696 313.9379L467.2196 313.7999L467.2196 313.7999L467.7686 313.6629L467.7686 313.6629L468.2726 313.4799L468.2726 313.4799L468.8226 313.2499L468.8226 313.2499L469.3266 313.0209L469.3266 313.0209L469.7846 312.7459L469.7846 312.7459L470.2886 312.4719L470.2886 312.4719L470.7466 312.1509L470.7466 312.1509L471.2046 311.8299L471.2046 311.8299L471.6176 311.4639L471.6176 311.4639L472.0296 311.0969L472.0296 311.0969L472.4416 310.7309L472.4416 310.7309L472.8086 310.3179L472.8086 310.3179L473.1746 309.8599L473.1746 309.8599L473.4956 309.4479L473.4956 309.4479L473.8166 308.9439L473.8166 308.9439L474.1376 308.4859L474.1376 308.4859L474.4116 307.9819L474.4116 307.9819L474.6406 307.4779L474.6406 307.4779L474.8706 306.9279L474.8706 306.9279L475.0996 306.4239L475.0996 306.4239L475.2826 305.8739L475.2826 305.8739L475.4196 305.2779L475.4196 305.2779L475.5576 304.7289L475.5576 304.7289L475.6486 304.1329L475.6486 304.1329L475.7406 303.5369L475.7406 303.5369L475.7866 302.9419L475.7866 302.9419L475.7866 302.3459L475.7866 302.3459L475.7866 301.7049L475.7866 301.7049L475.7406 301.1089L475.7406 301.1089L475.6486 300.5129L475.6486 300.5129L475.5576 299.9639L475.5576 299.9639L475.4196 299.3679L475.4196 299.3679L475.2826 298.8179L475.2826 298.8179L475.0996 298.2679L475.0996 298.2679L474.8706 297.7189L474.8706 297.7189L474.6406 297.2149L474.6406 297.2149L474.4116 296.6649L474.4116 296.6649L474.1376 296.2069L474.1376 296.2069L473.8166 295.7029L473.8166 295.7029L473.4956 295.2449L473.4956 295.2449L473.1746 294.7869L473.1746 294.7869L472.8086 294.3739L472.8086 294.3739L472.4416 293.9619L472.4416 293.9619L472.0296 293.5499L472.0296 293.5499L471.6176 293.1829L471.6176 293.1829L471.2046 292.8159L471.2046 292.8159L470.7466 292.4959L470.7466 292.4959L470.2886 292.1749L470.2886 292.1749L469.7846 291.8999L469.7846 291.8999L469.3266 291.6249L469.3266 291.6249L468.8226 291.3959L468.8226 291.3959L468.2726 291.2129L468.2726 291.2129L467.7686 291.0299L467.7686 291.0299L467.2196 290.8459L467.2196 290.8459L466.6696 290.7089L466.6696 290.7089L466.0736 290.6169L466.0736 290.6169L465.5236 290.5259L465.5236 290.5259L464.9286 290.4799L464.9286 290.4799L464.3326 290.4799L464.3326 290.4799L463.7366 290.4799L463.7366 290.4799L463.1876 290.5259L463.1876 290.5259L462.5916 290.6169L462.5916 290.6169L462.0416 290.7089L462.0416 290.7089L461.4916 290.8459L461.4916 290.8459L460.9416 291.0299L460.9416 291.0299L460.3926 291.2129L460.3926 291.2129L459.8886 291.3959L459.8886 291.3959L459.3846 291.6249L459.3846 291.6249L458.8806 291.8999L458.8806 291.8999L458.4226 292.1749L458.4226 292.1749L457.9186 292.4959L457.9186 292.4959L457.5056 292.8159L457.5056 292.8159L457.0476 293.1829L457.0476 293.1829L456.6356 293.5499L456.6356 293.5499L456.2236 293.9619L456.2236 293.9619L455.8566 294.3739L455.8566 294.3739L455.4896 294.7869L455.4896 294.7869L455.1696 295.2449L455.1696 295.2449L454.8486 295.7029L454.8486 295.7029L454.5276 296.2069L454.5276 296.2069L454.2526 296.6649L454.2526 296.6649L454.0236 297.2149L454.0236 297.2149L453.7946 297.7189L453.7946 297.7189L453.5656 298.2679L453.5656 298.2679L453.3826 298.8179L453.3826 298.8179L453.2456 299.3679L453.2456 299.3679L453.1076 299.9639L453.1076 299.9639L453.0156 300.5129L453.0156 300.5129L452.9706 301.1089L452.9706 301.1089L452.9246 301.7049z" stroke="none" fill="#FFFFFF" fill-rule="evenodd" /><path id="345" transform="matrix(1 0 0 -1 0 792)" d="M452.8786 302.3459L452.9246 302.9419L452.9246 302.9419L452.9706 303.5369L452.9706 303.5369L453.0156 304.1329L453.0156 304.1329L453.1076 304.7289L453.1076 304.7289L453.2456 305.2779L453.2456 305.2779L453.3826 305.8739L453.3826 305.8739L453.5656 306.4239L453.5656 306.4239L453.7946 306.9279L453.7946 306.9279L454.0236 307.4779L454.0236 307.4779L454.2526 307.9819L454.2526 307.9819L454.5276 308.4859L454.5276 308.4859L454.8486 308.9439L454.8486 308.9439L455.1696 309.4479L455.1696 309.4479L455.4896 309.8599L455.4896 309.8599L455.8566 310.3179L455.8566 310.3179L456.2236 310.7309L456.2236 310.7309L456.6356 311.0969L456.6356 311.0969L457.0476 311.4639L457.0476 311.4639L457.5056 311.8299L457.5056 311.8299L457.9186 312.1509L457.9186 312.1509L458.4226 312.4719L458.4226 312.4719L458.8806 312.7459L458.8806 312.7459L459.3846 313.0209L459.3846 313.0209L459.8886 313.2499L459.8886 313.2499L460.3926 313.4799L460.3926 313.4799L460.9416 313.6629L460.9416 313.6629L461.4916 313.7999L461.4916 313.7999L462.0416 313.9379L462.0416 313.9379L462.5916 314.0749L462.5916 314.0749L463.1876 314.1209L463.1876 314.1209L463.7366 314.1669L463.7366 314.1669L464.3326 314.1669L464.3326 314.1669L464.9286 314.1669L464.9286 314.1669L465.5236 314.1209L465.5236 314.1209L466.0736 314.0749L466.0736 314.0749L466.6696 313.9379L466.6696 313.9379L467.2196 313.7999L467.2196 313.7999L467.7686 313.6629L467.7686 313.6629L468.2726 313.4799L468.2726 313.4799L468.8226 313.2499L468.8226 313.2499L469.3266 313.0209L469.3266 313.0209L469.7846 312.7459L469.7846 312.7459L470.2886 312.4719L470.2886 312.4719L470.7466 312.1509L470.7466 312.1509L471.2046 311.8299L471.2046 311.8299L471.6176 311.4639L471.6176 311.4639L472.0296 311.0969L472.0296 311.0969L472.4416 310.7309L472.4416 310.7309L472.8086 310.3179L472.8086 310.3179L473.1746 309.8599L473.1746 309.8599L473.4956 309.4479L473.4956 309.4479L473.8166 308.9439L473.8166 308.9439L474.1376 308.4859L474.1376 308.4859L474.4116 307.9819L474.4116 307.9819L474.6406 307.4779L474.6406 307.4779L474.8706 306.9279L474.8706 306.9279L475.0996 306.4239L475.0996 306.4239L475.2826 305.8739L475.2826 305.8739L475.4196 305.2779L475.4196 305.2779L475.5576 304.7289L475.5576 304.7289L475.6486 304.1329L475.6486 304.1329L475.7406 303.5369L475.7406 303.5369L475.7866 302.9419L475.7866 302.9419L475.7866 302.3459L475.7866 302.3459L475.7866 301.7049L475.7866 301.7049L475.7406 301.1089L475.7406 301.1089L475.6486 300.5129L475.6486 300.5129L475.5576 299.9639L475.5576 299.9639L475.4196 299.3679L475.4196 299.3679L475.2826 298.8179L475.2826 298.8179L475.0996 298.2679L475.0996 298.2679L474.8706 297.7189L474.8706 297.7189L474.6406 297.2149L474.6406 297.2149L474.4116 296.6649L474.4116 296.6649L474.1376 296.2069L474.1376 296.2069L473.8166 295.7029L473.8166 295.7029L473.4956 295.2449L473.4956 295.2449L473.1746 294.7869L473.1746 294.7869L472.8086 294.3739L472.8086 294.3739L472.4416 293.9619L472.4416 293.9619L472.0296 293.5499L472.0296 293.5499L471.6176 293.1829L471.6176 293.1829L471.2046 292.8159L471.2046 292.8159L470.7466 292.4959L470.7466 292.4959L470.2886 292.1749L470.2886 292.1749L469.7846 291.8999L469.7846 291.8999L469.3266 291.6249L469.3266 291.6249L468.8226 291.3959L468.8226 291.3959L468.2726 291.2129L468.2726 291.2129L467.7686 291.0299L467.7686 291.0299L467.2196 290.8459L467.2196 290.8459L466.6696 290.7089L466.6696 290.7089L466.0736 290.6169L466.0736 290.6169L465.5236 290.5259L465.5236 290.5259L464.9286 290.4799L464.9286 290.4799L464.3326 290.4799L464.3326 290.4799L463.7366 290.4799L463.7366 290.4799L463.1876 290.5259L463.1876 290.5259L462.5916 290.6169L462.5916 290.6169L462.0416 290.7089L462.0416 290.7089L461.4916 290.8459L461.4916 290.8459L460.9416 291.0299L460.9416 291.0299L460.3926 291.2129L460.3926 291.2129L459.8886 291.3959L459.8886 291.3959L459.3846 291.6249L459.3846 291.6249L458.8806 291.8999L458.8806 291.8999L458.4226 292.1749L458.4226 292.1749L457.9186 292.4959L457.9186 292.4959L457.5056 292.8159L457.5056 292.8159L457.0476 293.1829L457.0476 293.1829L456.6356 293.5499L456.6356 293.5499L456.2236 293.9619L456.2236 293.9619L455.8566 294.3739L455.8566 294.3739L455.4896 294.7869L455.4896 294.7869L455.1696 295.2449L455.1696 295.2449L454.8486 295.7029L454.8486 295.7029L454.5276 296.2069L454.5276 296.2069L454.2526 296.6649L454.2526 296.6649L454.0236 297.2149L454.0236 297.2149L453.7946 297.7189L453.7946 297.7189L453.5656 298.2679L453.5656 298.2679L453.3826 298.8179L453.3826 298.8179L453.2456 299.3679L453.2456 299.3679L453.1076 299.9639L453.1076 299.9639L453.0156 300.5129L453.0156 300.5129L452.9706 301.1089L452.9706 301.1089L452.9246 301.7049L452.9246 301.7049L452.8786 302.3459z" stroke="#221E1F" stroke-width="1" fill="none" /><path id="346" transform="matrix(1 0 0 -1 0 792)" d="M452.8786 302.3459L452.9246 302.9419L452.9246 302.9419L452.9706 303.5369L452.9706 303.5369L453.0156 304.1329L453.0156 304.1329L453.1076 304.7289L453.1076 304.7289L453.2456 305.2779L453.2456 305.2779L453.3826 305.8739L453.3826 305.8739L453.5656 306.4239L453.5656 306.4239L453.7946 306.9279L453.7946 306.9279L454.0236 307.4779L454.0236 307.4779L454.2526 307.9819L454.2526 307.9819L454.5276 308.4859L454.5276 308.4859L454.8486 308.9439L454.8486 308.9439L455.1696 309.4479L455.1696 309.4479L455.4896 309.8599L455.4896 309.8599L455.8566 310.3179L455.8566 310.3179L456.2236 310.7309L456.2236 310.7309L456.6356 311.0969L456.6356 311.0969L457.0476 311.4639L457.0476 311.4639L457.5056 311.8299L457.5056 311.8299L457.9186 312.1509L457.9186 312.1509L458.4226 312.4719L458.4226 312.4719L458.8806 312.7459L458.8806 312.7459L459.3846 313.0209L459.3846 313.0209L459.8886 313.2499L459.8886 313.2499L460.3926 313.4799L460.3926 313.4799L460.9416 313.6629L460.9416 313.6629L461.4916 313.7999L461.4916 313.7999L462.0416 313.9379L462.0416 313.9379L462.5916 314.0749L462.5916 314.0749L463.1876 314.1209L463.1876 314.1209L463.7366 314.1669L463.7366 314.1669L464.3326 314.1669L464.3326 314.1669L464.9286 314.1669L464.9286 314.1669L465.5236 314.1209L465.5236 314.1209L466.0736 314.0749L466.0736 314.0749L466.6696 313.9379L466.6696 313.9379L467.2196 313.7999L467.2196 313.7999L467.7686 313.6629L467.7686 313.6629L468.2726 313.4799L468.2726 313.4799L468.8226 313.2499L468.8226 313.2499L469.3266 313.0209L469.3266 313.0209L469.7846 312.7459L469.7846 312.7459L470.2886 312.4719L470.2886 312.4719L470.7466 312.1509L470.7466 312.1509L471.2046 311.8299L471.2046 311.8299L471.6176 311.4639L471.6176 311.4639L472.0296 311.0969L472.0296 311.0969L472.4416 310.7309L472.4416 310.7309L472.8086 310.3179L472.8086 310.3179L473.1746 309.8599L473.1746 309.8599L473.4956 309.4479L473.4956 309.4479L473.8166 308.9439L473.8166 308.9439L474.1376 308.4859L474.1376 308.4859L474.4116 307.9819L474.4116 307.9819L474.6406 307.4779L474.6406 307.4779L474.8706 306.9279L474.8706 306.9279L475.0996 306.4239L475.0996 306.4239L475.2826 305.8739L475.2826 305.8739L475.4196 305.2779L475.4196 305.2779L475.5576 304.7289L475.5576 304.7289L475.6486 304.1329L475.6486 304.1329L475.7406 303.5369L475.7406 303.5369L475.7866 302.9419L475.7866 302.9419L475.7866 302.3459L475.7866 302.3459L475.7866 301.7049L475.7866 301.7049L475.7406 301.1089L475.7406 301.1089L475.6486 300.5129L475.6486 300.5129L475.5576 299.9639L475.5576 299.9639L475.4196 299.3679L475.4196 299.3679L475.2826 298.8179L475.2826 298.8179L475.0996 298.2679L475.0996 298.2679L474.8706 297.7189L474.8706 297.7189L474.6406 297.2149L474.6406 297.2149L474.4116 296.6649L474.4116 296.6649L474.1376 296.2069L474.1376 296.2069L473.8166 295.7029L473.8166 295.7029L473.4956 295.2449L473.4956 295.2449L473.1746 294.7869L473.1746 294.7869L472.8086 294.3739L472.8086 294.3739L472.4416 293.9619L472.4416 293.9619L472.0296 293.5499L472.0296 293.5499L471.6176 293.1829L471.6176 293.1829L471.2046 292.8159L471.2046 292.8159L470.7466 292.4959L470.7466 292.4959L470.2886 292.1749L470.2886 292.1749L469.7846 291.8999L469.7846 291.8999L469.3266 291.6249L469.3266 291.6249L468.8226 291.3959L468.8226 291.3959L468.2726 291.2129L468.2726 291.2129L467.7686 291.0299L467.7686 291.0299L467.2196 290.8459L467.2196 290.8459L466.6696 290.7089L466.6696 290.7089L466.0736 290.6169L466.0736 290.6169L465.5236 290.5259L465.5236 290.5259L464.9286 290.4799L464.9286 290.4799L464.3326 290.4799L464.3326 290.4799L463.7366 290.4799L463.7366 290.4799L463.1876 290.5259L463.1876 290.5259L462.5916 290.6169L462.5916 290.6169L462.0416 290.7089L462.0416 290.7089L461.4916 290.8459L461.4916 290.8459L460.9416 291.0299L460.9416 291.0299L460.3926 291.2129L460.3926 291.2129L459.8886 291.3959L459.8886 291.3959L459.3846 291.6249L459.3846 291.6249L458.8806 291.8999L458.8806 291.8999L458.4226 292.1749L458.4226 292.1749L457.9186 292.4959L457.9186 292.4959L457.5056 292.8159L457.5056 292.8159L457.0476 293.1829L457.0476 293.1829L456.6356 293.5499L456.6356 293.5499L456.2236 293.9619L456.2236 293.9619L455.8566 294.3739L455.8566 294.3739L455.4896 294.7869L455.4896 294.7869L455.1696 295.2449L455.1696 295.2449L454.8486 295.7029L454.8486 295.7029L454.5276 296.2069L454.5276 296.2069L454.2526 296.6649L454.2526 296.6649L454.0236 297.2149L454.0236 297.2149L453.7946 297.7189L453.7946 297.7189L453.5656 298.2679L453.5656 298.2679L453.3826 298.8179L453.3826 298.8179L453.2456 299.3679L453.2456 299.3679L453.1076 299.9639L453.1076 299.9639L453.0156 300.5129L453.0156 300.5129L452.9706 301.1089L452.9706 301.1089L452.9246 301.7049L452.9246 301.7049L452.8786 302.3459" stroke="#221E1F" stroke-width="1" fill="none" /><path id="347" transform="matrix(1 0 0 -1 0 792)" d="M242.297 138.754L255.309 138.754L255.309 138.754L255.309 162.258L255.309 162.258L242.297 162.258z" stroke="none" fill="#46785D" fill-rule="evenodd" /><path id="348" transform="matrix(1 0 0 -1 0 792)" d="M242.297 138.754L255.309 138.754L255.309 138.754L255.309 162.258L255.309 162.258L242.297 162.258z" stroke="#221E1F" stroke-width="1" fill="none" /><path id="349" transform="matrix(1 0 0 -1 0 792)" d="M320.775 138.754L333.787 138.754L333.787 138.754L333.787 162.258L333.787 162.258L320.775 162.258z" stroke="none" fill="#46785D" fill-rule="evenodd" /><path id="350" transform="matrix(1 0 0 -1 0 792)" d="M320.775 138.754L333.787 138.754L333.787 138.754L333.787 162.258L333.787 162.258L320.775 162.258z" stroke="#221E1F" stroke-width="1" fill="none" /><path id="351" transform="matrix(1 0 0 -1 0 792)" d="M276.3471 151.3698L276.3471 151.9658L276.3471 151.9658L276.3931 152.5608L276.3931 152.5608L276.4841 153.1568L276.4841 153.1568L276.5761 153.7528L276.5761 153.7528L276.7131 154.3478L276.7131 154.3478L276.8511 154.8978L276.8511 154.8978L277.0801 155.4478L277.0801 155.4478L277.2631 155.9968L277.2631 155.9968L277.4921 156.5018L277.4921 156.5018L277.7671 157.0048L277.7671 157.0048L278.0421 157.5088L278.0421 157.5088L278.3631 158.0128L278.3631 158.0128L278.6831 158.4708L278.6831 158.4708L279.0041 158.9298L279.0041 158.9298L279.3711 159.3418L279.3711 159.3418L279.7831 159.7538L279.7831 159.7538L280.1951 160.1668L280.1951 160.1668L280.6081 160.5328L280.6081 160.5328L281.0201 160.8538L281.0201 160.8538L281.4781 161.2198L281.4781 161.2198L281.9821 161.4948L281.9821 161.4948L282.4861 161.8158L282.4861 161.8158L282.9901 162.0448L282.9901 162.0448L283.4941 162.2738L283.4941 162.2738L283.9981 162.5028L283.9981 162.5028L284.5481 162.6868L284.5481 162.6868L285.0981 162.8698L285.0981 162.8698L285.6931 162.9608L285.6931 162.9608L286.2431 163.0988L286.2431 163.0988L286.8391 163.1448L286.8391 163.1448L287.4341 163.1898L287.4341 163.1898L288.0301 163.2358L288.0301 163.2358L288.6261 163.1898L288.6261 163.1898L289.2211 163.1448L289.2211 163.1448L289.8171 163.0988L289.8171 163.0988L290.3671 162.9608L290.3671 162.9608L290.9621 162.8698L290.9621 162.8698L291.5121 162.6868L291.5121 162.6868L292.0621 162.5028L292.0621 162.5028L292.5661 162.2738L292.5661 162.2738L293.1161 162.0448L293.1161 162.0448L293.6201 161.8158L293.6201 161.8158L294.0781 161.4948L294.0781 161.4948L294.5821 161.2198L294.5821 161.2198L295.0401 160.8538L295.0401 160.8538L295.4521 160.5328L295.4521 160.5328L295.9101 160.1668L295.9101 160.1668L296.2771 159.7538L296.2771 159.7538L296.6891 159.3418L296.6891 159.3418L297.0561 158.9298L297.0561 158.9298L297.3761 158.4708L297.3761 158.4708L297.7431 158.0128L297.7431 158.0128L298.0181 157.5088L298.0181 157.5088L298.2931 157.0048L298.2931 157.0048L298.5681 156.5018L298.5681 156.5018L298.7971 155.9968L298.7971 155.9968L299.0261 155.4478L299.0261 155.4478L299.2091 154.8978L299.2091 154.8978L299.3461 154.3478L299.3461 154.3478L299.4841 153.7528L299.4841 153.7528L299.5761 153.1568L299.5761 153.1568L299.6671 152.5608L299.6671 152.5608L299.7131 151.9658L299.7131 151.9658L299.7131 151.3698L299.7131 151.3698L299.7131 150.7738L299.7131 150.7738L299.6671 150.1788L299.6671 150.1788L299.5761 149.5828L299.5761 149.5828L299.4841 148.9868L299.4841 148.9868L299.3461 148.3918L299.3461 148.3918L299.2091 147.8418L299.2091 147.8418L299.0261 147.2918L299.0261 147.2918L298.7971 146.7418L298.7971 146.7418L298.5681 146.2388L298.5681 146.2388L298.2931 145.7348L298.2931 145.7348L298.0181 145.2308L298.0181 145.2308L297.7431 144.7268L297.7431 144.7268L297.3761 144.2688L297.3761 144.2688L297.0561 143.8098L297.0561 143.8098L296.6891 143.3978L296.6891 143.3978L296.2771 142.9858L296.2771 142.9858L295.9101 142.5728L295.9101 142.5728L295.4521 142.2068L295.4521 142.2068L295.0401 141.8858L295.0401 141.8858L294.5821 141.5198L294.5821 141.5198L294.0781 141.2448L294.0781 141.2448L293.6201 140.9238L293.6201 140.9238L293.1161 140.6948L293.1161 140.6948L292.5661 140.4658L292.5661 140.4658L292.0621 140.2368L292.0621 140.2368L291.5121 140.0538L291.5121 140.0538L290.9621 139.8698L290.9621 139.8698L290.3671 139.7328L290.3671 139.7328L289.8171 139.6408L289.8171 139.6408L289.2211 139.5948L289.2211 139.5948L288.6261 139.5498L288.6261 139.5498L288.0301 139.5038L288.0301 139.5038L287.4341 139.5498L287.4341 139.5498L286.8391 139.5948L286.8391 139.5948L286.2431 139.6408L286.2431 139.6408L285.6931 139.7328L285.6931 139.7328L285.0981 139.8698L285.0981 139.8698L284.5481 140.0538L284.5481 140.0538L283.9981 140.2368L283.9981 140.2368L283.4941 140.4658L283.4941 140.4658L282.9901 140.6948L282.9901 140.6948L282.4861 140.9238L282.4861 140.9238L281.9821 141.2448L281.9821 141.2448L281.4781 141.5198L281.4781 141.5198L281.0201 141.8858L281.0201 141.8858L280.6081 142.2068L280.6081 142.2068L280.1951 142.5728L280.1951 142.5728L279.7831 142.9858L279.7831 142.9858L279.3711 143.3978L279.3711 143.3978L279.0041 143.8098L279.0041 143.8098L278.6831 144.2688L278.6831 144.2688L278.3631 144.7268L278.3631 144.7268L278.0421 145.2308L278.0421 145.2308L277.7671 145.7348L277.7671 145.7348L277.4921 146.2388L277.4921 146.2388L277.2631 146.7418L277.2631 146.7418L277.0801 147.2918L277.0801 147.2918L276.8511 147.8418L276.8511 147.8418L276.7131 148.3918L276.7131 148.3918L276.5761 148.9868L276.5761 148.9868L276.4841 149.5828L276.4841 149.5828L276.3931 150.1788L276.3931 150.1788L276.3471 150.7738z" stroke="none" fill="#FFFFFF" fill-rule="evenodd" /><path id="352" transform="matrix(1 0 0 -1 0 792)" d="M276.3471 151.3698L276.3471 151.9658L276.3471 151.9658L276.3931 152.5608L276.3931 152.5608L276.4841 153.1568L276.4841 153.1568L276.5761 153.7528L276.5761 153.7528L276.7131 154.3478L276.7131 154.3478L276.8511 154.8978L276.8511 154.8978L277.0801 155.4478L277.0801 155.4478L277.2631 155.9968L277.2631 155.9968L277.4921 156.5018L277.4921 156.5018L277.7671 157.0048L277.7671 157.0048L278.0421 157.5088L278.0421 157.5088L278.3631 158.0128L278.3631 158.0128L278.6831 158.4708L278.6831 158.4708L279.0041 158.9298L279.0041 158.9298L279.3711 159.3418L279.3711 159.3418L279.7831 159.7538L279.7831 159.7538L280.1951 160.1668L280.1951 160.1668L280.6081 160.5328L280.6081 160.5328L281.0201 160.8538L281.0201 160.8538L281.4781 161.2198L281.4781 161.2198L281.9821 161.4948L281.9821 161.4948L282.4861 161.8158L282.4861 161.8158L282.9901 162.0448L282.9901 162.0448L283.4941 162.2738L283.4941 162.2738L283.9981 162.5028L283.9981 162.5028L284.5481 162.6868L284.5481 162.6868L285.0981 162.8698L285.0981 162.8698L285.6931 162.9608L285.6931 162.9608L286.2431 163.0988L286.2431 163.0988L286.8391 163.1448L286.8391 163.1448L287.4341 163.1898L287.4341 163.1898L288.0301 163.2358L288.0301 163.2358L288.6261 163.1898L288.6261 163.1898L289.2211 163.1448L289.2211 163.1448L289.8171 163.0988L289.8171 163.0988L290.3671 162.9608L290.3671 162.9608L290.9621 162.8698L290.9621 162.8698L291.5121 162.6868L291.5121 162.6868L292.0621 162.5028L292.0621 162.5028L292.5661 162.2738L292.5661 162.2738L293.1161 162.0448L293.1161 162.0448L293.6201 161.8158L293.6201 161.8158L294.0781 161.4948L294.0781 161.4948L294.5821 161.2198L294.5821 161.2198L295.0401 160.8538L295.0401 160.8538L295.4521 160.5328L295.4521 160.5328L295.9101 160.1668L295.9101 160.1668L296.2771 159.7538L296.2771 159.7538L296.6891 159.3418L296.6891 159.3418L297.0561 158.9298L297.0561 158.9298L297.3761 158.4708L297.3761 158.4708L297.7431 158.0128L297.7431 158.0128L298.0181 157.5088L298.0181 157.5088L298.2931 157.0048L298.2931 157.0048L298.5681 156.5018L298.5681 156.5018L298.7971 155.9968L298.7971 155.9968L299.0261 155.4478L299.0261 155.4478L299.2091 154.8978L299.2091 154.8978L299.3461 154.3478L299.3461 154.3478L299.4841 153.7528L299.4841 153.7528L299.5761 153.1568L299.5761 153.1568L299.6671 152.5608L299.6671 152.5608L299.7131 151.9658L299.7131 151.9658L299.7131 151.3698L299.7131 151.3698L299.7131 150.7738L299.7131 150.7738L299.6671 150.1788L299.6671 150.1788L299.5761 149.5828L299.5761 149.5828L299.4841 148.9868L299.4841 148.9868L299.3461 148.3918L299.3461 148.3918L299.2091 147.8418L299.2091 147.8418L299.0261 147.2918L299.0261 147.2918L298.7971 146.7418L298.7971 146.7418L298.5681 146.2388L298.5681 146.2388L298.2931 145.7348L298.2931 145.7348L298.0181 145.2308L298.0181 145.2308L297.7431 144.7268L297.7431 144.7268L297.3761 144.2688L297.3761 144.2688L297.0561 143.8098L297.0561 143.8098L296.6891 143.3978L296.6891 143.3978L296.2771 142.9858L296.2771 142.9858L295.9101 142.5728L295.9101 142.5728L295.4521 142.2068L295.4521 142.2068L295.0401 141.8858L295.0401 141.8858L294.5821 141.5198L294.5821 141.5198L294.0781 141.2448L294.0781 141.2448L293.6201 140.9238L293.6201 140.9238L293.1161 140.6948L293.1161 140.6948L292.5661 140.4658L292.5661 140.4658L292.0621 140.2368L292.0621 140.2368L291.5121 140.0538L291.5121 140.0538L290.9621 139.8698L290.9621 139.8698L290.3671 139.7328L290.3671 139.7328L289.8171 139.6408L289.8171 139.6408L289.2211 139.5948L289.2211 139.5948L288.6261 139.5498L288.6261 139.5498L288.0301 139.5038L288.0301 139.5038L287.4341 139.5498L287.4341 139.5498L286.8391 139.5948L286.8391 139.5948L286.2431 139.6408L286.2431 139.6408L285.6931 139.7328L285.6931 139.7328L285.0981 139.8698L285.0981 139.8698L284.5481 140.0538L284.5481 140.0538L283.9981 140.2368L283.9981 140.2368L283.4941 140.4658L283.4941 140.4658L282.9901 140.6948L282.9901 140.6948L282.4861 140.9238L282.4861 140.9238L281.9821 141.2448L281.9821 141.2448L281.4781 141.5198L281.4781 141.5198L281.0201 141.8858L281.0201 141.8858L280.6081 142.2068L280.6081 142.2068L280.1951 142.5728L280.1951 142.5728L279.7831 142.9858L279.7831 142.9858L279.3711 143.3978L279.3711 143.3978L279.0041 143.8098L279.0041 143.8098L278.6831 144.2688L278.6831 144.2688L278.3631 144.7268L278.3631 144.7268L278.0421 145.2308L278.0421 145.2308L277.7671 145.7348L277.7671 145.7348L277.4921 146.2388L277.4921 146.2388L277.2631 146.7418L277.2631 146.7418L277.0801 147.2918L277.0801 147.2918L276.8511 147.8418L276.8511 147.8418L276.7131 148.3918L276.7131 148.3918L276.5761 148.9868L276.5761 148.9868L276.4841 149.5828L276.4841 149.5828L276.3931 150.1788L276.3931 150.1788L276.3471 150.7738L276.3471 150.7738L276.3471 151.3698z" stroke="#221E1F" stroke-width="1" fill="none" /><path id="353" transform="matrix(1 0 0 -1 0 792)" d="M378.4001 246.6338L378.4001 194.2598L378.4001 194.2598L292.4381 194.2598M276.3471 151.3698L276.3471 151.9658L276.3471 151.9658L276.3931 152.5608L276.3931 152.5608L276.4841 153.1568L276.4841 153.1568L276.5761 153.7528L276.5761 153.7528L276.7131 154.3478L276.7131 154.3478L276.8511 154.8978L276.8511 154.8978L277.0801 155.4478L277.0801 155.4478L277.2631 155.9968L277.2631 155.9968L277.4921 156.5018L277.4921 156.5018L277.7671 157.0048L277.7671 157.0048L278.0421 157.5088L278.0421 157.5088L278.3631 158.0128L278.3631 158.0128L278.6831 158.4708L278.6831 158.4708L279.0041 158.9298L279.0041 158.9298L279.3711 159.3418L279.3711 159.3418L279.7831 159.7538L279.7831 159.7538L280.1951 160.1668L280.1951 160.1668L280.6081 160.5328L280.6081 160.5328L281.0201 160.8538L281.0201 160.8538L281.4781 161.2198L281.4781 161.2198L281.9821 161.4948L281.9821 161.4948L282.4861 161.8158L282.4861 161.8158L282.9901 162.0448L282.9901 162.0448L283.4941 162.2738L283.4941 162.2738L283.9981 162.5028L283.9981 162.5028L284.5481 162.6868L284.5481 162.6868L285.0981 162.8698L285.0981 162.8698L285.6931 162.9608L285.6931 162.9608L286.2431 163.0988L286.2431 163.0988L286.8391 163.1448L286.8391 163.1448L287.4341 163.1898L287.4341 163.1898L288.0301 163.2358L288.0301 163.2358L288.6261 163.1898L288.6261 163.1898L289.2211 163.1448L289.2211 163.1448L289.8171 163.0988L289.8171 163.0988L290.3671 162.9608L290.3671 162.9608L290.9621 162.8698L290.9621 162.8698L291.5121 162.6868L291.5121 162.6868L292.0621 162.5028L292.0621 162.5028L292.5661 162.2738L292.5661 162.2738L293.1161 162.0448L293.1161 162.0448L293.6201 161.8158L293.6201 161.8158L294.0781 161.4948L294.0781 161.4948L294.5821 161.2198L294.5821 161.2198L295.0401 160.8538L295.0401 160.8538L295.4521 160.5328L295.4521 160.5328L295.9101 160.1668L295.9101 160.1668L296.2771 159.7538L296.2771 159.7538L296.6891 159.3418L296.6891 159.3418L297.0561 158.9298L297.0561 158.9298L297.3761 158.4708L297.3761 158.4708L297.7431 158.0128L297.7431 158.0128L298.0181 157.5088L298.0181 157.5088L298.2931 157.0048L298.2931 157.0048L298.5681 156.5018L298.5681 156.5018L298.7971 155.9968L298.7971 155.9968L299.0261 155.4478L299.0261 155.4478L299.2091 154.8978L299.2091 154.8978L299.3461 154.3478L299.3461 154.3478L299.4841 153.7528L299.4841 153.7528L299.5761 153.1568L299.5761 153.1568L299.6671 152.5608L299.6671 152.5608L299.7131 151.9658L299.7131 151.9658L299.7131 151.3698L299.7131 151.3698L299.7131 150.7738L299.7131 150.7738L299.6671 150.1788L299.6671 150.1788L299.5761 149.5828L299.5761 149.5828L299.4841 148.9868L299.4841 148.9868L299.3461 148.3918L299.3461 148.3918L299.2091 147.8418L299.2091 147.8418L299.0261 147.2918L299.0261 147.2918L298.7971 146.7418L298.7971 146.7418L298.5681 146.2388L298.5681 146.2388L298.2931 145.7348L298.2931 145.7348L298.0181 145.2308L298.0181 145.2308L297.7431 144.7268L297.7431 144.7268L297.3761 144.2688L297.3761 144.2688L297.0561 143.8098L297.0561 143.8098L296.6891 143.3978L296.6891 143.3978L296.2771 142.9858L296.2771 142.9858L295.9101 142.5728L295.9101 142.5728L295.4521 142.2068L295.4521 142.2068L295.0401 141.8858L295.0401 141.8858L294.5821 141.5198L294.5821 141.5198L294.0781 141.2448L294.0781 141.2448L293.6201 140.9238L293.6201 140.9238L293.1161 140.6948L293.1161 140.6948L292.5661 140.4658L292.5661 140.4658L292.0621 140.2368L292.0621 140.2368L291.5121 140.0538L291.5121 140.0538L290.9621 139.8698L290.9621 139.8698L290.3671 139.7328L290.3671 139.7328L289.8171 139.6408L289.8171 139.6408L289.2211 139.5948L289.2211 139.5948L288.6261 139.5498L288.6261 139.5498L288.0301 139.5038L288.0301 139.5038L287.4341 139.5498L287.4341 139.5498L286.8391 139.5948L286.8391 139.5948L286.2431 139.6408L286.2431 139.6408L285.6931 139.7328L285.6931 139.7328L285.0981 139.8698L285.0981 139.8698L284.5481 140.0538L284.5481 140.0538L283.9981 140.2368L283.9981 140.2368L283.4941 140.4658L283.4941 140.4658L282.9901 140.6948L282.9901 140.6948L282.4861 140.9238L282.4861 140.9238L281.9821 141.2448L281.9821 141.2448L281.4781 141.5198L281.4781 141.5198L281.0201 141.8858L281.0201 141.8858L280.6081 142.2068L280.6081 142.2068L280.1951 142.5728L280.1951 142.5728L279.7831 142.9858L279.7831 142.9858L279.3711 143.3978L279.3711 143.3978L279.0041 143.8098L279.0041 143.8098L278.6831 144.2688L278.6831 144.2688L278.3631 144.7268L278.3631 144.7268L278.0421 145.2308L278.0421 145.2308L277.7671 145.7348L277.7671 145.7348L277.4921 146.2388L277.4921 146.2388L277.2631 146.7418L277.2631 146.7418L277.0801 147.2918L277.0801 147.2918L276.8511 147.8418L276.8511 147.8418L276.7131 148.3918L276.7131 148.3918L276.5761 148.9868L276.5761 148.9868L276.4841 149.5828L276.4841 149.5828L276.3931 150.1788L276.3931 150.1788L276.3471 150.7738L276.3471 150.7738L276.3471 151.3698" stroke="#221E1F" stroke-width="1" fill="none" /><path id="354" transform="matrix(1 0 0 -1 0 792)" d="M292.8536 191.625L288.0636 194.26L288.0636 194.26L292.8536 196.895z" stroke="none" fill="#221E1F" fill-rule="evenodd" /><path id="355" transform="matrix(1 0 0 -1 0 792)" d="M337.883 242.6525L337.883 224.7865L337.883 224.7865L337.998 176.7365L337.998 176.7365L377.685 176.8175L377.685 176.8175L464.293 176.8175" stroke="#221E1F" stroke-width="1" fill="none" /><path id="356" transform="matrix(1 0 0 -1 0 792)" d="M340.5179 242.2372L337.8829 247.0272L337.8829 247.0272L335.2479 242.2372z" stroke="none" fill="#221E1F" fill-rule="evenodd" /><path id="357" transform="matrix(1 0 0 -1 0 792)" d="M464.2926 178.8333C 465.4016 178.8333 466.3086 177.9283 466.3086 176.8173C 466.3086 175.7063 465.4016 174.8013 464.2926 174.8013C 463.1836 174.8013 462.2766 175.7063 462.2766 176.8173C 462.2766 177.9283 463.1836 178.8333 464.2926 178.8333" stroke="none" fill="#221E1F" fill-rule="evenodd" /><path id="358" transform="matrix(1 0 0 -1 0 792)" d="M464.291 183.155L464.291 152.147L464.291 152.147L437.834 152.147" stroke="#221E1F" stroke-width="1" fill="none" /><path id="359" transform="matrix(1 0 0 -1 0 792)" d="M438.2493 149.5125L433.4593 152.1475L433.4593 152.1475L438.2493 154.7825z" stroke="none" fill="#221E1F" fill-rule="evenodd" /><path id="360" transform="matrix(1 0 0 -1 0 792)" d="M365.9372 292.4933L391.4522 292.4933" stroke="#221E1F" stroke-width="1" fill="none" /><path id="361" transform="matrix(1 0 0 -1 0 792)" d="M391.0366 295.1281L395.8266 292.4931L395.8266 292.4931L391.0366 289.8581z" stroke="none" fill="#221E1F" fill-rule="evenodd" /></g><g clip-path="url(#8)"><path id="579" transform="matrix(1 0 0 -1 0 792)" d="M464.173 217.4339L464.173 253.0089M450.923 279.8879L477.802 279.8879L477.802 279.8879L477.802 253.0089L477.802 253.0089L450.923 253.0089z" stroke="#221E1F" stroke-width="1" fill="none" /><path id="580" transform="matrix(1 0 0 -1 0 792)" d="M461.5379 217.8496L464.1729 213.0596L464.1729 213.0596L466.8079 217.8496z" stroke="none" fill="#221E1F" fill-rule="evenodd" /><path id="581" transform="matrix(1 0 0 -1 0 792)" d="M464.1727 284.5121L464.1727 290.4791" stroke="#221E1F" stroke-width="1" fill="none" /><path id="582" transform="matrix(1 0 0 -1 0 792)" d="M461.5379 284.9273L464.1729 280.1373L464.1729 280.1373L466.8079 284.9273z" stroke="none" fill="#221E1F" fill-rule="evenodd" /><path id="583" transform="matrix(1 0 0 -1 0 792)" d="M203.465 274.7669L220.211 274.7669M221.922 390.4209L186.186 390.4209L186.186 390.4209L186.186 427.8969L186.186 427.8969L221.922 427.8969zM260.648 255.9059L224.912 255.9059L224.912 255.9059L224.912 293.3819L224.912 293.3819L260.648 293.3819z" stroke="#221E1F" stroke-width="1" fill="none" /><path id="584" transform="matrix(1 0 0 -1 0 792)" d="M219.7954 277.4019L224.5854 274.7669L224.5854 274.7669L219.7954 272.1319z" stroke="none" fill="#221E1F" fill-rule="evenodd" /><path id="585" transform="matrix(1 0 0 -1 0 792)" d="M180.4519 274.6256L180.4979 275.2216L180.4979 275.2216L180.5439 275.8166L180.5439 275.8166L180.5889 276.4126L180.5889 276.4126L180.6809 277.0086L180.6809 277.0086L180.8189 277.5576L180.8189 277.5576L180.9559 278.1536L180.9559 278.1536L181.1389 278.7036L181.1389 278.7036L181.3679 279.2076L181.3679 279.2076L181.5969 279.7576L181.5969 279.7576L181.8259 280.2616L181.8259 280.2616L182.1009 280.7656L182.1009 280.7656L182.4219 281.2236L182.4219 281.2236L182.7429 281.7276L182.7429 281.7276L183.0629 282.1396L183.0629 282.1396L183.4299 282.5976L183.4299 282.5976L183.7969 283.0106L183.7969 283.0106L184.2089 283.3766L184.2089 283.3766L184.6209 283.7436L184.6209 283.7436L185.0789 284.1096L185.0789 284.1096L185.4919 284.4306L185.4919 284.4306L185.9959 284.7516L185.9959 284.7516L186.4539 285.0256L186.4539 285.0256L186.9579 285.3006L186.9579 285.3006L187.4619 285.5296L187.4619 285.5296L187.9659 285.7596L187.9659 285.7596L188.5149 285.9426L188.5149 285.9426L189.0649 286.0796L189.0649 286.0796L189.6149 286.2176L189.6149 286.2176L190.1649 286.3546L190.1649 286.3546L190.7599 286.4006L190.7599 286.4006L191.3099 286.4466L191.3099 286.4466L191.9059 286.4466L191.9059 286.4466L192.5019 286.4466L192.5019 286.4466L193.0969 286.4006L193.0969 286.4006L193.6469 286.3546L193.6469 286.3546L194.2429 286.2176L194.2429 286.2176L194.7919 286.0796L194.7919 286.0796L195.3419 285.9426L195.3419 285.9426L195.8459 285.7596L195.8459 285.7596L196.3959 285.5296L196.3959 285.5296L196.8999 285.3006L196.8999 285.3006L197.3579 285.0256L197.3579 285.0256L197.8619 284.7516L197.8619 284.7516L198.3199 284.4306L198.3199 284.4306L198.7779 284.1096L198.7779 284.1096L199.1909 283.7436L199.1909 283.7436L199.6029 283.3766L199.6029 283.3766L200.0149 283.0106L200.0149 283.0106L200.3819 282.5976L200.3819 282.5976L200.7479 282.1396L200.7479 282.1396L201.0689 281.7276L201.0689 281.7276L201.3899 281.2236L201.3899 281.2236L201.7109 280.7656L201.7109 280.7656L201.9849 280.2616L201.9849 280.2616L202.2139 279.7576L202.2139 279.7576L202.4439 279.2076L202.4439 279.2076L202.6729 278.7036L202.6729 278.7036L202.8559 278.1536L202.8559 278.1536L202.9929 277.5576L202.9929 277.5576L203.1309 277.0086L203.1309 277.0086L203.2219 276.4126L203.2219 276.4126L203.3139 275.8166L203.3139 275.8166L203.3599 275.2216L203.3599 275.2216L203.3599 274.6256L203.3599 274.6256L203.3599 273.9846L203.3599 273.9846L203.3139 273.3886L203.3139 273.3886L203.2219 272.7926L203.2219 272.7926L203.1309 272.2436L203.1309 272.2436L202.9929 271.6476L202.9929 271.6476L202.8559 271.0976L202.8559 271.0976L202.6729 270.5476L202.6729 270.5476L202.4439 269.9986L202.4439 269.9986L202.2139 269.4946L202.2139 269.4946L201.9849 268.9446L201.9849 268.9446L201.7109 268.4866L201.7109 268.4866L201.3899 267.9826L201.3899 267.9826L201.0689 267.5246L201.0689 267.5246L200.7479 267.0666L200.7479 267.0666L200.3819 266.6536L200.3819 266.6536L200.0149 266.2416L200.0149 266.2416L199.6029 265.8296L199.6029 265.8296L199.1909 265.4626L199.1909 265.4626L198.7779 265.0956L198.7779 265.0956L198.3199 264.7756L198.3199 264.7756L197.8619 264.4546L197.8619 264.4546L197.3579 264.1796L197.3579 264.1796L196.8999 263.9046L196.8999 263.9046L196.3959 263.6756L196.3959 263.6756L195.8459 263.4926L195.8459 263.4926L195.3419 263.3096L195.3419 263.3096L194.7919 263.1256L194.7919 263.1256L194.2429 262.9886L194.2429 262.9886L193.6469 262.8966L193.6469 262.8966L193.0969 262.8056L193.0969 262.8056L192.5019 262.7596L192.5019 262.7596L191.9059 262.7596L191.9059 262.7596L191.3099 262.7596L191.3099 262.7596L190.7599 262.8056L190.7599 262.8056L190.1649 262.8966L190.1649 262.8966L189.6149 262.9886L189.6149 262.9886L189.0649 263.1256L189.0649 263.1256L188.5149 263.3096L188.5149 263.3096L187.9659 263.4926L187.9659 263.4926L187.4619 263.6756L187.4619 263.6756L186.9579 263.9046L186.9579 263.9046L186.4539 264.1796L186.4539 264.1796L185.9959 264.4546L185.9959 264.4546L185.4919 264.7756L185.4919 264.7756L185.0789 265.0956L185.0789 265.0956L184.6209 265.4626L184.6209 265.4626L184.2089 265.8296L184.2089 265.8296L183.7969 266.2416L183.7969 266.2416L183.4299 266.6536L183.4299 266.6536L183.0629 267.0666L183.0629 267.0666L182.7429 267.5246L182.7429 267.5246L182.4219 267.9826L182.4219 267.9826L182.1009 268.4866L182.1009 268.4866L181.8259 268.9446L181.8259 268.9446L181.5969 269.4946L181.5969 269.4946L181.3679 269.9986L181.3679 269.9986L181.1389 270.5476L181.1389 270.5476L180.9559 271.0976L180.9559 271.0976L180.8189 271.6476L180.8189 271.6476L180.6809 272.2436L180.6809 272.2436L180.5889 272.7926L180.5889 272.7926L180.5439 273.3886L180.5439 273.3886L180.4979 273.9846z" stroke="none" fill="#FFFFFF" fill-rule="evenodd" /><path id="586" transform="matrix(1 0 0 -1 0 792)" d="M180.4519 274.6256L180.4979 275.2216L180.4979 275.2216L180.5439 275.8166L180.5439 275.8166L180.5889 276.4126L180.5889 276.4126L180.6809 277.0086L180.6809 277.0086L180.8189 277.5576L180.8189 277.5576L180.9559 278.1536L180.9559 278.1536L181.1389 278.7036L181.1389 278.7036L181.3679 279.2076L181.3679 279.2076L181.5969 279.7576L181.5969 279.7576L181.8259 280.2616L181.8259 280.2616L182.1009 280.7656L182.1009 280.7656L182.4219 281.2236L182.4219 281.2236L182.7429 281.7276L182.7429 281.7276L183.0629 282.1396L183.0629 282.1396L183.4299 282.5976L183.4299 282.5976L183.7969 283.0106L183.7969 283.0106L184.2089 283.3766L184.2089 283.3766L184.6209 283.7436L184.6209 283.7436L185.0789 284.1096L185.0789 284.1096L185.4919 284.4306L185.4919 284.4306L185.9959 284.7516L185.9959 284.7516L186.4539 285.0256L186.4539 285.0256L186.9579 285.3006L186.9579 285.3006L187.4619 285.5296L187.4619 285.5296L187.9659 285.7596L187.9659 285.7596L188.5149 285.9426L188.5149 285.9426L189.0649 286.0796L189.0649 286.0796L189.6149 286.2176L189.6149 286.2176L190.1649 286.3546L190.1649 286.3546L190.7599 286.4006L190.7599 286.4006L191.3099 286.4466L191.3099 286.4466L191.9059 286.4466L191.9059 286.4466L192.5019 286.4466L192.5019 286.4466L193.0969 286.4006L193.0969 286.4006L193.6469 286.3546L193.6469 286.3546L194.2429 286.2176L194.2429 286.2176L194.7919 286.0796L194.7919 286.0796L195.3419 285.9426L195.3419 285.9426L195.8459 285.7596L195.8459 285.7596L196.3959 285.5296L196.3959 285.5296L196.8999 285.3006L196.8999 285.3006L197.3579 285.0256L197.3579 285.0256L197.8619 284.7516L197.8619 284.7516L198.3199 284.4306L198.3199 284.4306L198.7779 284.1096L198.7779 284.1096L199.1909 283.7436L199.1909 283.7436L199.6029 283.3766L199.6029 283.3766L200.0149 283.0106L200.0149 283.0106L200.3819 282.5976L200.3819 282.5976L200.7479 282.1396L200.7479 282.1396L201.0689 281.7276L201.0689 281.7276L201.3899 281.2236L201.3899 281.2236L201.7109 280.7656L201.7109 280.7656L201.9849 280.2616L201.9849 280.2616L202.2139 279.7576L202.2139 279.7576L202.4439 279.2076L202.4439 279.2076L202.6729 278.7036L202.6729 278.7036L202.8559 278.1536L202.8559 278.1536L202.9929 277.5576L202.9929 277.5576L203.1309 277.0086L203.1309 277.0086L203.2219 276.4126L203.2219 276.4126L203.3139 275.8166L203.3139 275.8166L203.3599 275.2216L203.3599 275.2216L203.3599 274.6256L203.3599 274.6256L203.3599 273.9846L203.3599 273.9846L203.3139 273.3886L203.3139 273.3886L203.2219 272.7926L203.2219 272.7926L203.1309 272.2436L203.1309 272.2436L202.9929 271.6476L202.9929 271.6476L202.8559 271.0976L202.8559 271.0976L202.6729 270.5476L202.6729 270.5476L202.4439 269.9986L202.4439 269.9986L202.2139 269.4946L202.2139 269.4946L201.9849 268.9446L201.9849 268.9446L201.7109 268.4866L201.7109 268.4866L201.3899 267.9826L201.3899 267.9826L201.0689 267.5246L201.0689 267.5246L200.7479 267.0666L200.7479 267.0666L200.3819 266.6536L200.3819 266.6536L200.0149 266.2416L200.0149 266.2416L199.6029 265.8296L199.6029 265.8296L199.1909 265.4626L199.1909 265.4626L198.7779 265.0956L198.7779 265.0956L198.3199 264.7756L198.3199 264.7756L197.8619 264.4546L197.8619 264.4546L197.3579 264.1796L197.3579 264.1796L196.8999 263.9046L196.8999 263.9046L196.3959 263.6756L196.3959 263.6756L195.8459 263.4926L195.8459 263.4926L195.3419 263.3096L195.3419 263.3096L194.7919 263.1256L194.7919 263.1256L194.2429 262.9886L194.2429 262.9886L193.6469 262.8966L193.6469 262.8966L193.0969 262.8056L193.0969 262.8056L192.5019 262.7596L192.5019 262.7596L191.9059 262.7596L191.9059 262.7596L191.3099 262.7596L191.3099 262.7596L190.7599 262.8056L190.7599 262.8056L190.1649 262.8966L190.1649 262.8966L189.6149 262.9886L189.6149 262.9886L189.0649 263.1256L189.0649 263.1256L188.5149 263.3096L188.5149 263.3096L187.9659 263.4926L187.9659 263.4926L187.4619 263.6756L187.4619 263.6756L186.9579 263.9046L186.9579 263.9046L186.4539 264.1796L186.4539 264.1796L185.9959 264.4546L185.9959 264.4546L185.4919 264.7756L185.4919 264.7756L185.0789 265.0956L185.0789 265.0956L184.6209 265.4626L184.6209 265.4626L184.2089 265.8296L184.2089 265.8296L183.7969 266.2416L183.7969 266.2416L183.4299 266.6536L183.4299 266.6536L183.0629 267.0666L183.0629 267.0666L182.7429 267.5246L182.7429 267.5246L182.4219 267.9826L182.4219 267.9826L182.1009 268.4866L182.1009 268.4866L181.8259 268.9446L181.8259 268.9446L181.5969 269.4946L181.5969 269.4946L181.3679 269.9986L181.3679 269.9986L181.1389 270.5476L181.1389 270.5476L180.9559 271.0976L180.9559 271.0976L180.8189 271.6476L180.8189 271.6476L180.6809 272.2436L180.6809 272.2436L180.5889 272.7926L180.5889 272.7926L180.5439 273.3886L180.5439 273.3886L180.4979 273.9846L180.4979 273.9846L180.4519 274.6256z" stroke="#221E1F" stroke-width="1" fill="none" /><path id="587" transform="matrix(1 0 0 -1 0 792)" d="M261.9359 274.3926L305.8329 274.3926M180.4519 274.6256L180.4979 275.2216L180.4979 275.2216L180.5439 275.8166L180.5439 275.8166L180.5889 276.4126L180.5889 276.4126L180.6809 277.0086L180.6809 277.0086L180.8189 277.5576L180.8189 277.5576L180.9559 278.1536L180.9559 278.1536L181.1389 278.7036L181.1389 278.7036L181.3679 279.2076L181.3679 279.2076L181.5969 279.7576L181.5969 279.7576L181.8259 280.2616L181.8259 280.2616L182.1009 280.7656L182.1009 280.7656L182.4219 281.2236L182.4219 281.2236L182.7429 281.7276L182.7429 281.7276L183.0629 282.1396L183.0629 282.1396L183.4299 282.5976L183.4299 282.5976L183.7969 283.0106L183.7969 283.0106L184.2089 283.3766L184.2089 283.3766L184.6209 283.7436L184.6209 283.7436L185.0789 284.1096L185.0789 284.1096L185.4919 284.4306L185.4919 284.4306L185.9959 284.7516L185.9959 284.7516L186.4539 285.0256L186.4539 285.0256L186.9579 285.3006L186.9579 285.3006L187.4619 285.5296L187.4619 285.5296L187.9659 285.7596L187.9659 285.7596L188.5149 285.9426L188.5149 285.9426L189.0649 286.0796L189.0649 286.0796L189.6149 286.2176L189.6149 286.2176L190.1649 286.3546L190.1649 286.3546L190.7599 286.4006L190.7599 286.4006L191.3099 286.4466L191.3099 286.4466L191.9059 286.4466L191.9059 286.4466L192.5019 286.4466L192.5019 286.4466L193.0969 286.4006L193.0969 286.4006L193.6469 286.3546L193.6469 286.3546L194.2429 286.2176L194.2429 286.2176L194.7919 286.0796L194.7919 286.0796L195.3419 285.9426L195.3419 285.9426L195.8459 285.7596L195.8459 285.7596L196.3959 285.5296L196.3959 285.5296L196.8999 285.3006L196.8999 285.3006L197.3579 285.0256L197.3579 285.0256L197.8619 284.7516L197.8619 284.7516L198.3199 284.4306L198.3199 284.4306L198.7779 284.1096L198.7779 284.1096L199.1909 283.7436L199.1909 283.7436L199.6029 283.3766L199.6029 283.3766L200.0149 283.0106L200.0149 283.0106L200.3819 282.5976L200.3819 282.5976L200.7479 282.1396L200.7479 282.1396L201.0689 281.7276L201.0689 281.7276L201.3899 281.2236L201.3899 281.2236L201.7109 280.7656L201.7109 280.7656L201.9849 280.2616L201.9849 280.2616L202.2139 279.7576L202.2139 279.7576L202.4439 279.2076L202.4439 279.2076L202.6729 278.7036L202.6729 278.7036L202.8559 278.1536L202.8559 278.1536L202.9929 277.5576L202.9929 277.5576L203.1309 277.0086L203.1309 277.0086L203.2219 276.4126L203.2219 276.4126L203.3139 275.8166L203.3139 275.8166L203.3599 275.2216L203.3599 275.2216L203.3599 274.6256L203.3599 274.6256L203.3599 273.9846L203.3599 273.9846L203.3139 273.3886L203.3139 273.3886L203.2219 272.7926L203.2219 272.7926L203.1309 272.2436L203.1309 272.2436L202.9929 271.6476L202.9929 271.6476L202.8559 271.0976L202.8559 271.0976L202.6729 270.5476L202.6729 270.5476L202.4439 269.9986L202.4439 269.9986L202.2139 269.4946L202.2139 269.4946L201.9849 268.9446L201.9849 268.9446L201.7109 268.4866L201.7109 268.4866L201.3899 267.9826L201.3899 267.9826L201.0689 267.5246L201.0689 267.5246L200.7479 267.0666L200.7479 267.0666L200.3819 266.6536L200.3819 266.6536L200.0149 266.2416L200.0149 266.2416L199.6029 265.8296L199.6029 265.8296L199.1909 265.4626L199.1909 265.4626L198.7779 265.0956L198.7779 265.0956L198.3199 264.7756L198.3199 264.7756L197.8619 264.4546L197.8619 264.4546L197.3579 264.1796L197.3579 264.1796L196.8999 263.9046L196.8999 263.9046L196.3959 263.6756L196.3959 263.6756L195.8459 263.4926L195.8459 263.4926L195.3419 263.3096L195.3419 263.3096L194.7919 263.1256L194.7919 263.1256L194.2429 262.9886L194.2429 262.9886L193.6469 262.8966L193.6469 262.8966L193.0969 262.8056L193.0969 262.8056L192.5019 262.7596L192.5019 262.7596L191.9059 262.7596L191.9059 262.7596L191.3099 262.7596L191.3099 262.7596L190.7599 262.8056L190.7599 262.8056L190.1649 262.8966L190.1649 262.8966L189.6149 262.9886L189.6149 262.9886L189.0649 263.1256L189.0649 263.1256L188.5149 263.3096L188.5149 263.3096L187.9659 263.4926L187.9659 263.4926L187.4619 263.6756L187.4619 263.6756L186.9579 263.9046L186.9579 263.9046L186.4539 264.1796L186.4539 264.1796L185.9959 264.4546L185.9959 264.4546L185.4919 264.7756L185.4919 264.7756L185.0789 265.0956L185.0789 265.0956L184.6209 265.4626L184.6209 265.4626L184.2089 265.8296L184.2089 265.8296L183.7969 266.2416L183.7969 266.2416L183.4299 266.6536L183.4299 266.6536L183.0629 267.0666L183.0629 267.0666L182.7429 267.5246L182.7429 267.5246L182.4219 267.9826L182.4219 267.9826L182.1009 268.4866L182.1009 268.4866L181.8259 268.9446L181.8259 268.9446L181.5969 269.4946L181.5969 269.4946L181.3679 269.9986L181.3679 269.9986L181.1389 270.5476L181.1389 270.5476L180.9559 271.0976L180.9559 271.0976L180.8189 271.6476L180.8189 271.6476L180.6809 272.2436L180.6809 272.2436L180.5889 272.7926L180.5889 272.7926L180.5439 273.3886L180.5439 273.3886L180.4979 273.9846L180.4979 273.9846L180.4519 274.6256" stroke="#221E1F" stroke-width="1" fill="none" /><path id="588" transform="matrix(1 0 0 -1 0 792)" d="M305.4173 277.0277L310.2073 274.3927L310.2073 274.3927L305.4173 271.7577z" stroke="none" fill="#221E1F" fill-rule="evenodd" /></g><g clip-path="url(#9)"><path id="594" transform="matrix(1 0 0 -1 0 792)" d="M221.5775 194.7592L192.2495 194.7592L192.2495 194.7592L192.2495 257.5042" stroke="#221E1F" stroke-width="1" fill="none" /><path id="595" transform="matrix(1 0 0 -1 0 792)" d="M189.6149 257.0894L192.2499 261.8794L192.2499 261.8794L194.8849 257.0894z" stroke="none" fill="#221E1F" fill-rule="evenodd" /><path id="596" transform="matrix(1 0 0 -1 0 792)" d="M464.1727 318.5414L464.1727 333.3094" stroke="#221E1F" stroke-width="1" fill="none" /><path id="597" transform="matrix(1 0 0 -1 0 792)" d="M461.5379 318.9566L464.1729 314.1666L464.1729 314.1666L466.8079 318.9566z" stroke="none" fill="#221E1F" fill-rule="evenodd" /><path id="598" transform="matrix(1 0 0 -1 0 792)" d="M287.4425 134.4249L287.4425 121.4809" stroke="#221E1F" stroke-width="1" fill="none" /><path id="599" transform="matrix(1 0 0 -1 0 792)" d="M290.0773 134.0096L287.4423 138.7996L287.4423 138.7996L284.8073 134.0096z" stroke="none" fill="#221E1F" fill-rule="evenodd" /><path id="600" transform="matrix(1 0 0 -1 0 792)" d="M205.7534 253.1429C 205.2964 224.2889 256.2974 213.7189 328.9364 215.2039" stroke="#0060AF" stroke-width="1.5" fill="none" /><path id="601" transform="matrix(1 0 0 -1 0 792)" d="M209.6502 252.4652L205.8562 259.6292L205.8562 259.6292L201.8372 252.5892z" stroke="none" fill="#0060AF" fill-rule="evenodd" /><path id="602" transform="matrix(1 0 0 -1 0 792)" d="M166.2898 355.3435L166.2898 380.8105L166.2898 380.8105L287.4428 380.8105L287.4428 380.8105L287.4428 409.6205" stroke="#221E1F" stroke-width="1" fill="none" /><path id="603" transform="matrix(1 0 0 -1 0 792)" d="M163.6549 355.7589L166.2899 350.9689L166.2899 350.9689L168.9249 355.7589z" stroke="none" fill="#221E1F" fill-rule="evenodd" /><path id="604" transform="matrix(1 0 0 -1 0 792)" d="M285.4265 409.6205C 285.4265 410.7295 286.3315 411.6365 287.4425 411.6365C 288.5535 411.6365 289.4585 410.7295 289.4585 409.6205C 289.4585 408.5115 288.5535 407.6045 287.4425 407.6045C 286.3315 407.6045 285.4265 408.5115 285.4265 409.6205" stroke="none" fill="#221E1F" fill-rule="evenodd" /><path id="605" transform="matrix(1 0 0 -1 0 792)" d="M463.8564 370.5359L463.8564 409.7779L463.8564 409.7779L337.8764 409.7779" stroke="#221E1F" stroke-width="1" fill="none" /><path id="606" transform="matrix(1 0 0 -1 0 792)" d="M461.2216 370.9511L463.8566 366.1611L463.8566 366.1611L466.4916 370.9511z" stroke="none" fill="#221E1F" fill-rule="evenodd" /><path id="607" transform="matrix(1 0 0 -1 0 792)" d="M337.8765 407.7621C 336.7675 407.7621 335.8605 408.6671 335.8605 409.7781C 335.8605 410.8891 336.7675 411.7941 337.8765 411.7941C 338.9855 411.7941 339.8925 410.8891 339.8925 409.7781C 339.8925 408.6671 338.9855 407.7621 337.8765 407.7621" stroke="none" fill="#221E1F" fill-rule="evenodd" /><path id="608" transform="matrix(1 0 0 -1 0 792)" d="M436.555 332.8559L492.443 332.8559L492.443 332.8559L492.443 365.8899L492.443 365.8899L436.555 365.8899zM310.191 317.8719L366.079 317.8719L366.079 317.8719L366.079 350.9059L366.079 350.9059L310.191 350.9059z" stroke="#EE1C23" stroke-width="1" fill="none" /></g></g></g></svg>