<svg xmlns="http://www.w3.org/2000/svg" xmlns:xlink="http://www.w3.org/1999/xlink" id="body_42" preserveAspectRatio="xMinYMin meet" viewBox="0 0 816 1056"><defs><clipPath id="1"><path id="" clip-rule="evenodd" transform="matrix(1 0 0 1 0 0)" d="M0 792L0 0L0 0L612 0L612 0L612 792L612 792L0 792z" /></clipPath><clipPath id="2"><path id="" clip-rule="evenodd" transform="matrix(1 0 0 1 0 0)" d="M41 722.5L566 722.5L566 722.5L566 38.19897L566 38.19897L41 38.19897z" /></clipPath></defs><g transform="matrix(1.333333 0 0 1.333333 0 0)"><g clip-path="url(#1)"><path id="1" transform="matrix(1 0 0 -1 0 792)" d="M54 39.5055L558 39.5055" stroke="#221E1F" stroke-width="0.5" fill="none" /><path id="30" transform="matrix(1 0 0 -1 0 792)" d="M41 69.5L566 69.5L566 753.801L41 753.801z" stroke="none" fill="#FFFFFF" fill-rule="nonzero" /><g clip-path="url(#2)"></g><path id="983" transform="matrix(1 0 0 -1 0 792)" d="M144.4434 325.8809L184.3814 325.8809" stroke="#060606" stroke-width="0.594" stroke-linecap="square" fill="none" /><path id="1048" transform="matrix(1 0 0 -1 0 792)" d="M133.0774 418.3704L146.9307 418.3704" stroke="#060606" stroke-width="0.2661731" stroke-linecap="square" fill="none" /><path id="1049" transform="matrix(1 0 0 -1 0 792)" d="M111.2614 433.4329L147.819 433.4329" stroke="#060606" stroke-width="0.2661731" stroke-linecap="square" fill="none" /><path id="1050" transform="matrix(1 0 0 -1 0 792)" d="M104.8084 400.6204L227.6231 400.6204" stroke="#060606" stroke-width="0.5626577" stroke-linecap="square" fill="none" /><path id="1051" transform="matrix(1 0 0 -1 0 792)" d="M242.2462 418.7767L279.8401 418.7767" stroke="#060606" stroke-width="0.5626577" stroke-linecap="square" fill="none" /><path id="1052" transform="matrix(1 0 0 -1 0 792)" d="M290.496 418.7767L354.8493 418.7767" stroke="#060606" stroke-width="0.5626577" stroke-linecap="square" fill="none" /><path id="1053" transform="matrix(1 0 0 -1 0 792)" d="M365.6828 418.7767L377.5526 418.7767" stroke="#060606" stroke-width="0.5626577" stroke-linecap="square" fill="none" /><path id="1054" transform="matrix(1 0 0 -1 0 792)" d="M469.6715 418.7767L507.3241 418.7767" stroke="#060606" stroke-width="0.5626577" stroke-linecap="square" fill="none" /><path id="1055" transform="matrix(1 0 0 -1 0 792)" d="M250.2385 382.2766L266.046 382.2766" stroke="#060606" stroke-width="0.5626577" stroke-linecap="square" fill="none" /><path id="1056" transform="matrix(1 0 0 -1 0 792)" d="M281.2013 382.2766L319.5937 382.2766" stroke="#060606" stroke-width="0.5626577" stroke-linecap="square" fill="none" /><path id="1223" transform="matrix(1 0 0 -1 0 792)" d="M52.4844 531.664L558.6444 531.664" stroke="#221E1F" stroke-width="0.5" fill="none" /><path id="1226" transform="matrix(1 0 0 -1 0 792)" d="M216.6396 502.3562L317.7646 502.3562" stroke="#060606" stroke-width="0.594" stroke-linecap="square" fill="none" /><path id="1227" transform="matrix(1 0 0 -1 0 792)" d="M351.1396 502.3562L365.9526 502.3562" stroke="#060606" stroke-width="0.594" stroke-linecap="square" fill="none" /></g></g></svg>