<svg xmlns="http://www.w3.org/2000/svg" xmlns:xlink="http://www.w3.org/1999/xlink" id="body_44" preserveAspectRatio="xMinYMin meet" viewBox="0 0 816 1056"><defs><clipPath id="1"><path id="" clip-rule="evenodd" transform="matrix(1 0 0 1 0 0)" d="M0 792L0 0L0 0L612 0L612 0L612 792L612 792L0 792z" /></clipPath></defs><g transform="matrix(1.333333 0 0 1.333333 0 0)"><g clip-path="url(#1)"><path id="1" transform="matrix(1 0 0 -1 0 792)" d="M54 331.9L558 331.9L558 332L54 332z" stroke="none" fill="#FFFFFF" fill-rule="nonzero" /><path id="2" transform="matrix(1 0 0 -1 0 792)" d="M54 344.5L558 344.5L558 344.6L54 344.6z" stroke="none" fill="#FFFFFF" fill-rule="nonzero" /><path id="3" transform="matrix(1 0 0 -1 0 792)" d="M54 375.1L558 375.1L558 375.2L54 375.2z" stroke="none" fill="#FFFFFF" fill-rule="nonzero" /><path id="4" transform="matrix(1 0 0 -1 0 792)" d="M54 414.7L558 414.7L558 414.8L54 414.8z" stroke="none" fill="#FFFFFF" fill-rule="nonzero" /><path id="5" transform="matrix(1 0 0 -1 0 792)" d="M54 481.3L558 481.3L558 481.4L54 481.4z" stroke="none" fill="#FFFFFF" fill-rule="nonzero" /><path id="6" transform="matrix(1 0 0 -1 0 792)" d="M54 511.9L558 511.9L558 512L54 512z" stroke="none" fill="#FFFFFF" fill-rule="nonzero" /><path id="7" transform="matrix(1 0 0 -1 0 792)" d="M54 551.5L558 551.5L558 551.6L54 551.6z" stroke="none" fill="#FFFFFF" fill-rule="nonzero" /><path id="8" transform="matrix(1 0 0 -1 0 792)" d="M54 600.1L558 600.1L558 600.2L54 600.2z" stroke="none" fill="#FFFFFF" fill-rule="nonzero" /><path id="9" transform="matrix(1 0 0 -1 0 792)" d="M54 630.7L558 630.7L558 630.8L54 630.8z" stroke="none" fill="#FFFFFF" fill-rule="nonzero" /><path id="10" transform="matrix(1 0 0 -1 0 792)" d="M54 661.3L558 661.3L558 661.4L54 661.4z" stroke="none" fill="#FFFFFF" fill-rule="nonzero" /><path id="3915" transform="matrix(1 0 0 -1 0 792)" d="M157.8 305.5L220.48 305.5" stroke="#0000FF" stroke-width="0.5" fill="none" /><path id="3965" transform="matrix(1 0 0 -1 0 792)" d="M404.7 305.5L505.6 305.5" stroke="#0000FF" stroke-width="0.5" fill="none" /><path id="3992" transform="matrix(1 0 0 -1 0 792)" d="M157.8 292.9L211.58 292.9" stroke="#0000FF" stroke-width="0.5" fill="none" /><path id="4036" transform="matrix(1 0 0 -1 0 792)" d="M404.7 292.9L485.16 292.9" stroke="#0000FF" stroke-width="0.5" fill="none" /><path id="4071" transform="matrix(1 0 0 -1 0 792)" d="M157.8 280.3L230.27 280.3" stroke="#0000FF" stroke-width="0.5" fill="none" /><path id="4115" transform="matrix(1 0 0 -1 0 792)" d="M404.7 280.3L502.94 280.3" stroke="#0000FF" stroke-width="0.5" fill="none" /><path id="4139" transform="matrix(1 0 0 -1 0 792)" d="M157.8 267.7L205.36 267.7" stroke="#0000FF" stroke-width="0.5" fill="none" /><path id="4174" transform="matrix(1 0 0 -1 0 792)" d="M404.7 267.7L472.27 267.7" stroke="#0000FF" stroke-width="0.5" fill="none" /><path id="4188" transform="matrix(1 0 0 -1 0 792)" d="M157.8 255.1L194.26 255.1" stroke="#0000FF" stroke-width="0.5" fill="none" /><path id="4220" transform="matrix(1 0 0 -1 0 792)" d="M404.7 255.1L479.82 255.1" stroke="#0000FF" stroke-width="0.5" fill="none" /><path id="4253" transform="matrix(1 0 0 -1 0 792)" d="M157.8 242.5L223.14 242.5" stroke="#0000FF" stroke-width="0.5" fill="none" /><path id="4279" transform="matrix(1 0 0 -1 0 792)" d="M404.7 242.5L475.37 242.5" stroke="#0000FF" stroke-width="0.5" fill="none" /><path id="4305" transform="matrix(1 0 0 -1 0 792)" d="M157.8 229.9L212.04 229.9" stroke="#0000FF" stroke-width="0.5" fill="none" /><path id="4333" transform="matrix(1 0 0 -1 0 792)" d="M404.7 229.9L475.37 229.9" stroke="#0000FF" stroke-width="0.5" fill="none" /><path id="4351" transform="matrix(1 0 0 -1 0 792)" d="M157.8 217.3L197.81 217.3" stroke="#0000FF" stroke-width="0.5" fill="none" /><path id="4409" transform="matrix(1 0 0 -1 0 792)" d="M404.7 217.3L531.84 217.3" stroke="#0000FF" stroke-width="0.5" fill="none" /><path id="4431" transform="matrix(1 0 0 -1 0 792)" d="M157.8 204.7L203.14 204.7" stroke="#0000FF" stroke-width="0.5" fill="none" /><path id="4480" transform="matrix(1 0 0 -1 0 792)" d="M404.7 204.7L486.94 204.7" stroke="#0000FF" stroke-width="0.5" fill="none" /><path id="4519" transform="matrix(1 0 0 -1 0 792)" d="M157.8 192.1L233.81 192.1" stroke="#0000FF" stroke-width="0.5" fill="none" /><path id="4551" transform="matrix(1 0 0 -1 0 792)" d="M404.7 192.1L466.93 192.1" stroke="#0000FF" stroke-width="0.5" fill="none" /><path id="4571" transform="matrix(1 0 0 -1 0 792)" d="M157.8 179.5L212.46 179.5" stroke="#0000FF" stroke-width="0.5" fill="none" /><path id="4607" transform="matrix(1 0 0 -1 0 792)" d="M157.8 166.9L220.92 166.9" stroke="#0000FF" stroke-width="0.5" fill="none" /><path id="4659" transform="matrix(1 0 0 -1 0 792)" d="M157.8 154.3L271.59 154.3" stroke="#0000FF" stroke-width="0.5" fill="none" /><path id="4692" transform="matrix(1 0 0 -1 0 792)" d="M404.7 141.7L441.6 141.7" stroke="#0000FF" stroke-width="0.5" fill="none" /></g></g></svg>