<svg xmlns="http://www.w3.org/2000/svg" xmlns:xlink="http://www.w3.org/1999/xlink" id="body_5" preserveAspectRatio="xMinYMin meet" viewBox="0 0 816 1056"><defs><clipPath id="1"><path id="" clip-rule="evenodd" transform="matrix(1 0 0 1 0 0)" d="M0 792L0 0L0 0L612 0L612 0L612 792L612 792L0 792z" /></clipPath><clipPath id="2"><path id="" clip-rule="evenodd" transform="matrix(1 0 0 1 0 0)" d="M45 727L565.5 727L565.5 727L565.5 38L565.5 38L45 38z" /></clipPath><clipPath id="3"><path id="" clip-rule="evenodd" transform="matrix(1 0 0 1 0 0)" d="M285.318 719.126L558.58 719.126L558.58 719.126L558.58 479.726L558.58 479.726L285.318 479.726z" /></clipPath></defs><g transform="matrix(1.333333 0 0 1.333333 0 0)"><g clip-path="url(#1)"><path id="1" transform="matrix(1 0 0 -1 0 792)" d="M54 39.5055L558 39.5055" stroke="#221E1F" stroke-width="0.5" fill="none" /><path id="29" transform="matrix(1 0 0 -1 0 792)" d="M45 65L565.5 65L565.5 754L45 754z" stroke="none" fill="#FFFFFF" fill-rule="nonzero" /><g clip-path="url(#2)"></g><path id="784" transform="matrix(1 0 0 -1 0 792)" d="M130.25 460.1537L176.563 460.1537" stroke="#060606" stroke-width="0.594" stroke-linecap="square" fill="none" /><path id="1049" transform="matrix(1 0 0 -1 0 792)" d="M141.75 314.8737L225.188 314.8737" stroke="#060606" stroke-width="0.594" stroke-linecap="square" fill="none" /><path id="1050" transform="matrix(1 0 0 -1 0 792)" d="M133.7812 308.3112L134.9372 310.0302" stroke="#060606" stroke-width="1" stroke-linecap="square" fill="none" /><path id="1051" transform="matrix(1 0 0 -1 0 792)" d="M134.9375 310.03L137.8435 297.061" stroke="#060606" stroke-width="1" stroke-linecap="square" fill="none" /><path id="1052" transform="matrix(1 0 0 -1 0 792)" d="M137.8437 297.0612L141.0627 331.1552" stroke="#060606" stroke-width="1" stroke-linecap="square" fill="none" /><path id="1053" transform="matrix(1 0 0 -1 0 792)" d="M141.0625 331.155L226.1255 331.155" stroke="#060606" stroke-width="1" stroke-linecap="square" fill="none" /><path id="1054" transform="matrix(1 0 0 -1 0 792)" d="M133.625 308.405L135.281 310.811L137.844 300.061L140.813 331.436L226.125 331.436L226.125 330.843L141.344 330.843L138.156 297.061L137.563 297.061L134.594 309.249L133.938 308.186z" stroke="none" fill="#060606" fill-rule="nonzero" /><path id="1120" transform="matrix(1 0 0 -1 0 792)" d="M133.0312 239.5938L191.6872 239.5938" stroke="#060606" stroke-width="0.594" stroke-linecap="square" fill="none" /><path id="2309" transform="matrix(1 0 0 -1 0 792)" d="M396.2675 415.1537L489.2675 415.1537" stroke="#060606" stroke-width="0.594" stroke-linecap="square" fill="none" /><path id="2473" transform="matrix(1 0 0 -1 0 792)" d="M311.4825 175.6901L305.0387 175.6903L305.0387 175.6903L305.0388 178.4478C 305.0388 179.1349 305.1108 179.6352 305.2188 179.9486C 305.3268 180.262 305.5428 180.5152 305.8308 180.708C 306.1308 180.8889 306.4638 180.9883 306.8478 180.9883C 307.3278 180.9883 307.7328 180.8436 308.0448 180.5543C 308.3687 180.265 308.5667 179.834 308.6387 179.2795C 308.8067 179.5567 308.9867 179.7948 309.1787 179.9756C 309.3827 180.1564 309.7307 180.4035 310.2227 180.7169L310.2227 180.7169L311.4827 181.5125L311.4827 181.5125L311.4827 179.9484L311.4827 179.9484L310.0787 179.0082C 309.5747 178.6586 309.2777 178.4326 309.1337 178.3121C 309.0017 178.1915 308.9237 178.0559 308.8637 177.9233C 308.8277 177.7787 308.7917 177.5526 308.7917 177.2633L308.7917 177.2633L308.7916 177.0011L308.7916 177.0011L311.4826 177.001zM307.7657 177.0012L307.7657 177.9686C 307.7657 178.5833 307.7447 178.9751 307.6847 179.1439C 307.6367 179.2885 307.5468 179.4091 307.4148 179.5055C 307.2948 179.5899 307.1328 179.6412 306.9288 179.6412C 306.7128 179.6412 306.5508 179.5688 306.4068 179.4604C 306.2748 179.3519 306.1908 179.1891 306.1548 178.9722C 306.1428 178.8637 306.1277 178.5442 306.1277 178.0138L306.1277 178.0138L306.1277 177.0012L306.1277 177.0012L307.7657 177.0012z" stroke="none" fill="#221E1F" fill-rule="evenodd" /><path id="2474" transform="matrix(1 0 0 -1 0 792)" d="M311.4828 182.2177L305.0389 182.2179L305.0389 182.2179L305.0389 183.5289L305.0389 183.5289L307.5769 183.5288L307.5769 183.5288L307.577 186.0874L307.577 186.0874L305.039 186.0875L305.039 186.0875L305.0391 187.3984L305.0391 187.3984L311.4829 187.3982L311.4829 187.3982L311.4829 186.0872L311.4829 186.0872L308.666 186.0873L308.666 186.0873L308.6659 183.5287L308.6659 183.5287L311.4828 183.5286z" stroke="none" fill="#221E1F" fill-rule="evenodd" /><path id="2475" transform="matrix(1 0 0 -1 0 792)" d="M311.483 188.7453L305.0391 188.7455L305.0391 188.7455L305.0392 190.843C 305.0392 191.6266 305.0782 192.1479 305.1382 192.389C 305.2462 192.7627 305.4442 193.0761 305.7682 193.3293C 306.0923 193.5704 306.5153 193.6999 307.0192 193.6999C 307.4152 193.6999 307.7542 193.6276 308.0182 193.4829C 308.2942 193.3382 308.5132 193.1484 308.6572 192.9314C 308.8132 192.7144 308.9152 192.4793 308.9631 192.2623C 309.0231 191.9369 309.0531 191.4848 309.0531 190.9062L309.0531 190.9062L309.0531 190.0473L309.0531 190.0473L311.483 190.0472zM306.1281 190.0474L307.9551 190.0473L307.9551 190.0473L307.9551 190.7616C 307.9551 191.2679 307.9281 191.6205 307.8561 191.8013C 307.7961 191.97 307.6852 192.0996 307.5412 192.2081C 307.3972 192.3046 307.2412 192.3528 307.0372 192.3528C 306.8092 192.3528 306.6172 192.2775 306.4612 192.1449C 306.3172 192.0002 306.2092 191.8254 306.1732 191.6205C 306.1492 191.4638 306.1282 191.1504 306.1281 190.6803L306.1281 190.6803L306.1281 190.0474z" stroke="none" fill="#221E1F" fill-rule="evenodd" /><path id="2476" transform="matrix(1 0 0 -1 0 792)" d="M311.4832 194.2151L310.3132 194.2151L310.3132 194.2151L306.1284 197.6147L306.1284 197.6147L306.1283 194.595L306.1283 194.595L305.0393 194.595L305.0393 194.595L305.0395 199.3325L305.0395 199.3325L306.0475 199.3325L306.0475 199.3325L310.3942 195.7883L310.3942 195.7883L310.3943 199.468L310.3943 199.468L311.4833 199.4679z" stroke="none" fill="#221E1F" fill-rule="evenodd" /><path id="2478" transform="matrix(1 0 0 -1 0 792)" d="M311.4834 202.8221L305.0396 202.8224L305.0396 202.8224L305.0397 207.2524L305.0397 207.2524L306.1287 207.2524L306.1287 207.2524L306.1286 204.1242L306.1286 204.1242L307.6586 204.1242L307.6586 204.1242L307.6587 206.8274L307.6587 206.8274L308.7476 206.8274L308.7476 206.8274L308.7475 204.1241L308.7475 204.1241L311.4835 204.124z" stroke="none" fill="#221E1F" fill-rule="evenodd" /><path id="2479" transform="matrix(1 0 0 -1 0 792)" d="M311.4836 209.5125L311.4836 208.2739L311.4836 208.2739L306.8217 208.274L306.8217 208.274L306.8217 209.4222L306.8217 209.4222L307.4787 209.4222C 307.1667 209.6151 306.9658 209.7989 306.8578 209.9556C 306.7618 210.1124 306.7138 210.2811 306.7138 210.4981C 306.7138 210.7754 306.7918 211.0466 306.9478 211.3118L306.9478 211.3118L308.0188 210.923C 307.8868 210.706 307.8208 210.5252 307.8208 210.3444C 307.8208 210.1636 307.8687 210.0219 307.9648 209.9014C 308.0607 209.7808 308.2257 209.6814 308.4777 209.6211C 308.7297 209.5487 309.2517 209.5126 310.0437 209.5125z" stroke="none" fill="#221E1F" fill-rule="evenodd" /><path id="2480" transform="matrix(1 0 0 -1 0 792)" d="M309.9989 214.5574L310.2059 215.796C 310.6619 215.6272 311.0039 215.3831 311.2318 215.0456C 311.4838 214.696 311.5918 214.259 311.5918 213.7527C 311.5918 212.933 311.3307 212.3303 310.7907 211.9445C 310.3708 211.6311 309.8368 211.4835 309.1888 211.4835C 308.4208 211.4835 307.8028 211.6794 307.3708 212.0893C 306.9388 212.4871 306.7139 213.0085 306.7139 213.6353C 306.7139 214.3224 306.9419 214.883 307.3979 215.2808C 307.8659 215.6786 308.5679 215.8714 309.5039 215.8593L309.5039 215.8593L309.5038 212.7492C 309.8758 212.7492 310.1668 212.8517 310.3588 213.0566C 310.5748 213.2374 310.6648 213.4815 310.6648 213.7708C 310.6648 213.9516 310.6198 214.1144 310.5118 214.259C 310.4038 214.3916 310.2389 214.4851 309.9989 214.5574zM308.7479 214.6298C 308.3879 214.6177 308.1179 214.5303 307.9379 214.3495C 307.7579 214.1687 307.6589 213.9608 307.6589 213.7076C 307.6589 213.4304 307.7639 213.2074 307.9558 213.0386C 308.1479 212.8578 308.4238 212.7643 308.7478 212.7764L308.7478 212.7764L308.7479 214.6298z" stroke="none" fill="#221E1F" fill-rule="evenodd" /><path id="2481" transform="matrix(1 0 0 -1 0 792)" d="M313.257 219.9367L310.908 219.9368C 311.124 219.768 311.292 219.5601 311.412 219.331C 311.52 219.0779 311.5919 218.8217 311.5919 218.5444C 311.5919 218.002 311.3969 217.571 310.9889 217.2335C 310.5329 216.8237 309.8909 216.6188 309.0989 216.6188C 308.3549 216.6188 307.764 216.8117 307.344 217.1975C 306.924 217.5712 306.7141 218.0383 306.7141 218.6169C 306.7141 218.9183 306.7801 219.1925 306.9121 219.4216C 307.0441 219.6506 307.2421 219.8465 307.5061 220.0273L307.5061 220.0273L306.8221 220.0273L306.8221 220.0273L306.8221 221.1755L306.8221 221.1755L313.257 221.1753zM309.0901 219.973C 308.6221 219.973 308.2681 219.8676 308.0281 219.6747C 307.8001 219.4818 307.6771 219.2317 307.6771 218.9424C 307.677 218.641 307.797 218.3848 308.037 218.192C 308.277 217.987 308.658 217.8846 309.162 217.8845C 309.678 217.8845 310.05 217.9779 310.278 218.1828C 310.506 218.3636 310.611 218.6078 310.611 218.8971C 310.611 219.1864 310.485 219.4305 310.233 219.6475C 309.981 219.8645 309.5941 219.973 309.0901 219.973z" stroke="none" fill="#221E1F" fill-rule="evenodd" /><path id="2482" transform="matrix(1 0 0 -1 0 792)" d="M311.4842 225.4789L310.7822 225.4789C 311.0342 225.2981 311.2322 225.0751 311.3762 224.8099C 311.5201 224.5205 311.5921 224.2252 311.5921 223.9238C 311.5921 223.5984 311.5171 223.3241 311.3851 223.083C 311.2531 222.8299 311.0521 222.64 310.8001 222.5315C 310.5601 222.4231 310.2061 222.3688 309.7741 222.3688L309.7741 222.3688L306.8222 222.3689L306.8222 222.3689L306.8222 223.6076L306.8222 223.6076L308.9642 223.6075C 309.6242 223.6075 310.0262 223.6195 310.1702 223.6798C 310.3141 223.7159 310.4372 223.8033 310.5211 223.9239C 310.6052 224.0323 310.6472 224.2041 310.6472 224.3849C 310.6472 224.6019 310.5962 224.7737 310.4762 224.9545C 310.3682 225.1233 310.2242 225.2258 310.0442 225.2981C 309.8762 225.3584 309.4562 225.3885 308.7842 225.3886L308.7842 225.3886L306.8223 225.3886L306.8223 225.3886L306.8223 226.6273L306.8223 226.6273L311.4842 226.6271z" stroke="none" fill="#221E1F" fill-rule="evenodd" /><path id="2483" transform="matrix(1 0 0 -1 0 792)" d="M309.9994 230.6323L310.2064 231.8709C 310.6624 231.7021 311.0044 231.458 311.2324 231.1205C 311.4844 230.7709 311.5923 230.3339 311.5923 229.8276C 311.5923 229.0079 311.3313 228.4052 310.7913 228.0194C 310.3713 227.706 309.8373 227.5584 309.1893 227.5584C 308.4213 227.5584 307.8033 227.7543 307.3714 228.1642C 306.9394 228.562 306.7144 229.0834 306.7144 229.7102C 306.7144 230.3974 306.9425 230.9579 307.3985 231.3557C 307.8665 231.7535 308.5685 231.9463 309.5045 231.9342L309.5045 231.9342L309.5043 228.8241C 309.8763 228.8241 310.1673 228.9266 310.3593 229.1315C 310.5753 229.3123 310.6653 229.5564 310.6653 229.8457C 310.6653 230.0265 310.6204 230.1893 310.5124 230.3339C 310.4044 230.4665 310.2394 230.56 309.9994 230.6323zM308.7484 230.7047C 308.3884 230.6926 308.1184 230.6052 307.9384 230.4244C 307.7584 230.2436 307.6594 230.0357 307.6594 229.7825C 307.6594 229.5053 307.7644 229.2823 307.9564 229.1135C 308.1484 228.9327 308.4244 228.8392 308.7484 228.8513L308.7484 228.8513L308.7484 230.7047z" stroke="none" fill="#221E1F" fill-rule="evenodd" /><path id="2484" transform="matrix(1 0 0 -1 0 792)" d="M311.4846 237.2141L311.4845 235.9664L311.4845 235.9664L309.0996 235.9665C 308.5956 235.9666 308.2716 235.9304 308.1276 235.8942C 307.9836 235.834 307.8726 235.7405 307.7766 235.632C 307.7046 235.5115 307.6596 235.3669 307.6596 235.1981C 307.6596 234.9811 307.7226 234.7882 307.8306 234.6195C 307.9506 234.4386 308.1066 234.3392 308.2986 234.2668C 308.5025 234.2066 308.8535 234.1764 309.3695 234.1764L309.3695 234.1764L311.4845 234.1763L311.4845 234.1763L311.4844 232.9377L311.4844 232.9377L306.8225 232.9379L306.8225 232.9379L306.8226 234.0861L306.8226 234.0861L307.5066 234.0861C 306.9786 234.4959 306.7146 235.0052 306.7146 235.6321C 306.7146 235.8973 306.7626 236.1535 306.8586 236.3825C 306.9666 236.5995 307.0927 236.7773 307.2367 236.8978C 307.3927 237.0063 307.5667 237.0937 307.7587 237.1419C 307.9507 237.1781 308.2267 237.2142 308.5866 237.2142z" stroke="none" fill="#221E1F" fill-rule="evenodd" /><path id="2485" transform="matrix(1 0 0 -1 0 792)" d="M308.1998 242.5574L308.4158 241.3369C 308.1758 241.2887 307.9988 241.2013 307.8668 241.0567C 307.7468 240.912 307.6868 240.7161 307.6868 240.4871C 307.6868 240.1737 307.7978 239.9265 308.0017 239.7457C 308.2177 239.5649 308.5687 239.4745 309.0727 239.4744C 309.6247 239.4744 310.0147 239.5618 310.2427 239.7547C 310.4707 239.9355 310.5847 240.1796 310.5847 240.5051C 310.5847 240.7341 310.5187 240.927 310.3867 241.0837C 310.2547 241.2283 310.0178 241.3278 309.6938 241.4001L309.6938 241.4001L309.9008 242.6207C 310.4648 242.4881 310.8848 242.25 311.1607 241.8883C 311.4487 241.5267 311.5927 241.0445 311.5927 240.4417C 311.5927 239.7546 311.3766 239.2031 310.9446 238.8053C 310.5126 238.3955 309.9216 238.1996 309.1537 238.1996C 308.3977 238.1997 307.7857 238.3956 307.3537 238.8055C 306.9337 239.2153 306.7148 239.7699 306.7148 240.469C 306.7148 241.0356 306.8348 241.4846 307.0748 241.8342C 307.3268 242.1597 307.6958 242.4128 308.1998 242.5574z" stroke="none" fill="#221E1F" fill-rule="evenodd" /><path id="2486" transform="matrix(1 0 0 -1 0 792)" d="M306.8229 242.9191L306.8229 244.2391L306.8229 244.2391L310.1349 245.3601L310.1349 245.3601L306.823 246.4542L306.823 246.4542L306.823 247.738L306.823 247.738L311.3049 246.0833L311.3049 246.0833L312.1238 245.7849C 312.3878 245.6764 312.6008 245.574 312.7448 245.4775C 312.8888 245.369 312.9998 245.2545 313.0958 245.134C 313.1798 245.0014 313.2548 244.8447 313.3028 244.6638C 313.3508 244.4709 313.3748 244.26 313.3748 244.0309C 313.3748 243.7899 313.3507 243.5548 313.3027 243.3258L313.3027 243.3258L312.3398 243.2173C 312.3758 243.4102 312.3938 243.585 312.3938 243.7417C 312.3938 244.031 312.3098 244.2389 312.1418 244.3836C 311.9618 244.5162 311.7548 244.6277 311.5028 244.7z" stroke="none" fill="#221E1F" fill-rule="evenodd" /><path id="2487" transform="matrix(1 0 0 -1 0 792)" d="M312.5651 253.3613L312.5651 252.5114C 311.8811 252.0534 311.1791 251.7099 310.4591 251.4808C 309.7391 251.2398 309.0281 251.1283 308.3441 251.1283C 307.5041 251.1283 306.6971 251.27 305.9412 251.5714C 305.2932 251.8125 304.6872 252.132 304.1233 252.5298L304.1233 252.5298L304.1233 253.3797C 305.0233 252.9698 305.7672 252.6925 306.3912 252.5478C 307.0152 252.3911 307.6752 252.3217 308.3712 252.3217C 308.8511 252.3217 309.3431 252.3518 309.8471 252.4482C 310.3511 252.5326 310.8221 252.6622 311.2781 252.8189C 311.5781 252.9274 312.0011 253.1082 312.5651 253.3613z" stroke="none" fill="#221E1F" fill-rule="evenodd" /><path id="2488" transform="matrix(1 0 0 -1 0 792)" d="M311.4851 254.0032L305.0413 254.0034L305.0413 254.0034L305.0413 255.2421L305.0413 255.2421L308.4612 255.242L308.4612 255.242L306.8233 256.6976L306.8233 256.6976L306.8234 258.2256L306.8234 258.2256L308.5243 256.6162L308.5243 256.6162L311.4853 258.3339L311.4853 258.3339L311.4852 256.9958L311.4852 256.9958L309.3882 255.8206L309.3882 255.8206L309.9912 255.2419L309.9912 255.2419L311.4852 255.2419z" stroke="none" fill="#221E1F" fill-rule="evenodd" /><path id="2489" transform="matrix(1 0 0 -1 0 792)" d="M311.4853 259.0843L305.0414 259.0845L305.0414 259.0845L305.0415 260.3954L305.0415 260.3954L307.5794 260.3954L307.5794 260.3954L307.5795 262.9539L307.5795 262.9539L305.0416 262.954L305.0416 262.954L305.0416 264.265L305.0416 264.265L311.4855 264.2648L311.4855 264.2648L311.4854 262.9538L311.4854 262.9538L308.6685 262.9539L308.6685 262.9539L308.6684 260.3953L308.6684 260.3953L311.4854 260.3952z" stroke="none" fill="#221E1F" fill-rule="evenodd" /><path id="2490" transform="matrix(1 0 0 -1 0 792)" d="M311.4855 265.1056L310.5225 265.1056L310.5225 265.1056L308.5156 266.8596C 308.1917 267.149 307.9577 267.3569 307.8137 267.5016C 307.8257 267.3569 307.8317 267.161 307.8317 266.932L307.8317 266.932L307.8406 265.2775L307.8406 265.2775L306.8236 265.2775L306.8236 265.2775L306.8238 269.1471L306.8238 269.1471L307.6967 269.1471L307.6967 269.1471L309.7486 267.3569L309.7486 267.3569L310.4326 266.724C 310.4086 267.0615 310.3966 267.2815 310.3966 267.3659L310.3966 267.3659L310.3967 269.2916L310.3967 269.2916L311.4857 269.2916z" stroke="none" fill="#221E1F" fill-rule="evenodd" /><path id="2491" transform="matrix(1 0 0 -1 0 792)" d="M312.5656 269.7798C 312.0377 270.0208 311.6447 270.1866 311.3687 270.2951C 311.0807 270.3916 310.7657 270.479 310.4057 270.5754C 310.0457 270.6478 309.7067 270.7201 309.3707 270.7563C 309.0468 270.7924 308.7198 270.8196 308.3718 270.8196C 307.6758 270.8196 307.0158 270.7383 306.3918 270.5936C 305.7678 270.449 305.0238 270.1688 304.1238 269.771L304.1238 269.771L304.1238 270.6118C 304.7599 271.0457 305.4229 271.3893 306.1308 271.6424C 306.8388 271.8955 307.5528 272.013 308.2728 272.013C 308.8968 272.013 309.5478 271.9045 310.2437 271.7236C 311.0237 271.5066 311.8097 271.1359 312.5656 270.6296z" stroke="none" fill="#221E1F" fill-rule="evenodd" /><path id="2510" transform="matrix(1 0 0 -1 0 792)" d="M337.3708 307.8226L339.5758 307.8226" stroke="#221E1F" stroke-width="1" fill="none" /><path id="2511" transform="matrix(1 0 0 -1 0 792)" d="M337.3699 251.4887L339.5749 251.4887M337.3739 279.6577L339.5789 279.6577M337.3699 166.9797L339.5749 166.9797M337.3699 195.1497L339.5749 195.1497M337.3699 223.3187L339.5749 223.3187" stroke="#221E1F" stroke-width="0.6" fill="none" /><path id="2512" transform="matrix(1 0 0 -1 0 792)" d="M339.5752 136.5287L339.5752 138.8117M337.3702 138.8117L339.5752 138.8117" stroke="#221E1F" stroke-width="1" fill="none" /><path id="2513" transform="matrix(1 0 0 -1 0 792)" d="M545.4337 136.4269L545.4337 138.6239M516.0277 136.4269L516.0277 138.6239M486.5997 136.4899L486.5997 138.6869M456.9737 136.5449L456.9737 138.7419M368.8767 136.3959L368.8767 138.5929M398.3817 136.4269L398.3817 138.6239M427.4737 136.4269L427.4737 138.6239" stroke="#221E1F" stroke-width="0.6" fill="none" /><path id="2514" transform="matrix(1 0 0 -1 0 792)" d="M557.3047 136.4617L557.3047 138.8137" stroke="#221E1F" stroke-width="1" fill="none" /><g clip-path="url(#3)"><path id="2515" transform="matrix(1 0 0 -1 0 792)" d="M545.4319 307.7923C 545.4319 251.4533 545.4329 195.1173 545.4329 138.7803M516.0049 307.7923C 516.0049 251.4533 516.0069 195.1173 516.0069 138.7803M486.5789 307.7923C 486.5789 251.4543 486.5809 195.1173 486.5809 138.7803M457.1529 307.7923C 457.1529 251.4543 457.1549 195.1173 457.1539 138.7803M427.7269 307.7923C 427.7269 251.4543 427.7289 195.1173 427.7289 138.7813M398.3009 307.7923C 398.3009 251.4543 398.3029 195.1173 398.3019 138.7813M368.8749 307.7933C 368.8749 251.4543 368.8769 195.1183 368.8769 138.7813M339.4489 307.7933C 339.4489 251.4543 339.4499 195.1183 339.4499 138.7813M339.5739 307.8223C 339.5739 251.4843 339.5749 195.1473 339.5749 138.8103M339.5839 138.8113L557.3049 138.8113M339.5839 166.9803C 404.8409 166.9803 492.0479 166.9813 557.3049 166.9803M339.5839 195.1493L557.3049 195.1493M339.5839 223.3193L557.3049 223.3193M339.5839 251.4883L557.3049 251.4883M339.5839 279.6573L557.3049 279.6573M339.5839 307.8263L557.3049 307.8263M557.3049 307.8213L557.3049 138.8113" stroke="#221E1F" stroke-width="0.6" fill="none" /><path id="2516" transform="matrix(1 0 0 -1 0 792)" d="M350.7341 166.5396C 418.8391 190.7916 489.2291 218.1106 557.3341 247.6786" stroke="#0060AF" stroke-width="2" stroke-dasharray="5.0005,1" fill="none" /><path id="2517" transform="matrix(1 0 0 -1 0 792)" d="M350.5933 152.8253C 419.8813 165.0763 489.2043 178.6023 557.1643 193.5103" stroke="#EE1C23" stroke-width="2" fill="none" /><path id="2518" transform="matrix(1 0 0 -1 0 792)" d="M339.575 307.8261L557.305 307.8261L557.305 307.8261L557.305 138.8111L557.305 138.8111L339.575 138.8111z" stroke="#221E1F" stroke-width="1" fill="none" /></g><path id="2519" transform="matrix(1 0 0 -1 0 792)" d="M496.463 179.5L535.413 179.5L535.413 179.5L535.413 170.902L535.413 170.902L496.463 170.902z" stroke="none" fill="#FFFFFF" fill-rule="evenodd" /><path id="2527" transform="matrix(1 0 0 -1 0 792)" d="M404.12 214.036L450.167 214.036L450.167 214.036L450.167 204.819L450.167 204.819L404.12 204.819z" stroke="none" fill="#FFFFFF" fill-rule="evenodd" /></g></g></svg>