<svg xmlns="http://www.w3.org/2000/svg" xmlns:xlink="http://www.w3.org/1999/xlink" id="body_23" preserveAspectRatio="xMinYMin meet" viewBox="0 0 816 1056"><defs><clipPath id="1"><path id="" clip-rule="evenodd" transform="matrix(1 0 0 1 0 0)" d="M0 792L0 0L0 0L612 0L612 0L612 792L612 792L0 792z" /></clipPath><clipPath id="2"><path id="" clip-rule="evenodd" transform="matrix(1 0 0 1 0 0)" d="M44.5 723.657L572.5 723.657L572.5 723.657L572.5 37.85797L572.5 37.85797L44.5 37.85797z" /></clipPath><clipPath id="3"><path id="" clip-rule="evenodd" transform="matrix(1 0 0 1 0 0)" d="M117.58 689.783L476.5 689.783L476.5 689.783L476.5 373.782L476.5 373.782L117.58 373.782z" /></clipPath></defs><g transform="matrix(1.333333 0 0 1.333333 0 0)"><g clip-path="url(#1)"><path id="1" transform="matrix(1 0 0 -1 0 792)" d="M54 39.5055L558 39.5055" stroke="#221E1F" stroke-width="0.5" fill="none" /><path id="30" transform="matrix(1 0 0 -1 0 792)" d="M44.5 68.343L572.5 68.343L572.5 754.142L44.5 754.142z" stroke="none" fill="#FFFFFF" fill-rule="nonzero" /><g clip-path="url(#2)"></g><path id="195" transform="matrix(1 0 0 -1 0 792)" d="M163.1562 673.2966L176.8442 673.2966" stroke="#060606" stroke-width="0.594" stroke-linecap="square" fill="none" /><path id="476" transform="matrix(1 0 0 -1 0 792)" d="M119.0625 516.0166L173.6565 516.0166" stroke="#060606" stroke-width="0.594" stroke-linecap="square" fill="none" /><path id="477" transform="matrix(1 0 0 -1 0 792)" d="M186.4062 516.0166L216.9692 516.0166" stroke="#060606" stroke-width="0.594" stroke-linecap="square" fill="none" /><path id="815" transform="matrix(1 0 0 -1 0 792)" d="M377.3925 659.2966L436.0485 659.2966" stroke="#060606" stroke-width="0.594" stroke-linecap="square" fill="none" /><path id="1379" transform="matrix(1 0 0 -1 0 792)" d="M221.5702 296.4268L285.5052 296.4268M234.1202 337.0428L259.1702 337.0428L259.1702 337.0428L259.1572 332.1628" stroke="#221E1F" stroke-width="1" fill="none" /><path id="1380" transform="matrix(1 0 0 -1 0 792)" d="M221.9859 299.0617L217.1959 296.4267L221.9859 293.7917z" stroke="none" fill="#221E1F" fill-rule="nonzero" /><path id="1381" transform="matrix(1 0 0 -1 0 792)" d="M285.0902 299.0617L289.8802 296.4267L285.0902 293.7917z" stroke="none" fill="#221E1F" fill-rule="nonzero" /><path id="1382" transform="matrix(1 0 0 -1 0 792)" d="M175.6204 137.0976L285.5064 137.0976" stroke="#221E1F" stroke-width="1" fill="none" /><path id="1383" transform="matrix(1 0 0 -1 0 792)" d="M176.0357 139.7324L171.2457 137.0974L176.0357 134.4624z" stroke="none" fill="#221E1F" fill-rule="nonzero" /><path id="1384" transform="matrix(1 0 0 -1 0 792)" d="M285.0916 139.7324L289.8816 137.0974L285.0916 134.4624z" stroke="none" fill="#221E1F" fill-rule="nonzero" /><path id="1385" transform="matrix(1 0 0 -1 0 792)" d="M257.1522 220.2585L285.5052 220.2585" stroke="#221E1F" stroke-width="1" fill="none" /><path id="1386" transform="matrix(1 0 0 -1 0 792)" d="M285.0902 222.8933L289.8802 220.2583L285.0902 217.6233z" stroke="none" fill="#221E1F" fill-rule="nonzero" /><path id="1387" transform="matrix(1 0 0 -1 0 792)" d="M299.9866 220.2585L328.3396 220.2585" stroke="#221E1F" stroke-width="1" fill="none" /><path id="1388" transform="matrix(1 0 0 -1 0 792)" d="M300.4019 222.8933L295.6119 220.2583L300.4019 217.6233z" stroke="none" fill="#221E1F" fill-rule="nonzero" /><path id="1389" transform="matrix(1 0 0 -1 0 792)" d="M166.0277 281.675L166.0317 341.063" stroke="#221E1F" stroke-width="1" fill="none" /><path id="1390" transform="matrix(1 0 0 -1 0 792)" d="M163.3969 340.6484L166.0319 345.4384L168.6669 340.6474z" stroke="none" fill="#221E1F" fill-rule="nonzero" /><path id="1391" transform="matrix(1 0 0 -1 0 792)" d="M166.0277 122.2206L166.0317 181.6086" stroke="#221E1F" stroke-width="1" fill="none" /><path id="1392" transform="matrix(1 0 0 -1 0 792)" d="M163.3969 181.194L166.0319 185.984L168.6669 181.193z" stroke="none" fill="#221E1F" fill-rule="nonzero" /><path id="1393" transform="matrix(1 0 0 -1 0 792)" d="M153.7951 289.1673L444.0481 289.1673" stroke="#221E1F" stroke-width="1" fill="none" /><path id="1394" transform="matrix(1 0 0 -1 0 792)" d="M443.6331 291.8018L448.4231 289.1668L443.6331 286.5318z" stroke="none" fill="#221E1F" fill-rule="nonzero" /><path id="1395" transform="matrix(1 0 0 -1 0 792)" d="M153.7951 201.6363L444.0481 201.6363" stroke="#221E1F" stroke-width="1" fill="none" /><path id="1396" transform="matrix(1 0 0 -1 0 792)" d="M443.6331 204.2708L448.4231 201.6358L443.6331 199.0008z" stroke="none" fill="#221E1F" fill-rule="nonzero" /><path id="1397" transform="matrix(1 0 0 -1 0 792)" d="M153.7948 360.6885L444.0358 360.6885" stroke="#221E1F" stroke-width="1" fill="none" /><path id="1398" transform="matrix(1 0 0 -1 0 792)" d="M443.6203 363.3234L448.4103 360.6884L443.6203 358.0534z" stroke="none" fill="#221E1F" fill-rule="nonzero" /><path id="1399" transform="matrix(1 0 0 -1 0 792)" d="M166.0277 353.1969L166.0317 412.6109" stroke="#221E1F" stroke-width="1" fill="none" /><path id="1400" transform="matrix(1 0 0 -1 0 792)" d="M163.3969 412.196L166.0319 416.986L168.6669 412.195z" stroke="none" fill="#221E1F" fill-rule="nonzero" /><path id="1401" transform="matrix(1 0 0 -1 0 792)" d="M166.0277 193.7424L166.0317 253.1564" stroke="#221E1F" stroke-width="1" fill="none" /><path id="1402" transform="matrix(1 0 0 -1 0 792)" d="M163.3969 252.7415L166.0319 257.5315L168.6669 252.7405z" stroke="none" fill="#221E1F" fill-rule="nonzero" /><path id="1403" transform="matrix(1 0 0 -1 0 792)" d="M171.3756 377.0249L210.6976 377.0249" stroke="#221E1F" stroke-width="1" fill="none" /><path id="1404" transform="matrix(1 0 0 -1 0 792)" d="M171.7908 379.6597L167.0008 377.0247L171.7908 374.3897z" stroke="none" fill="#221E1F" fill-rule="nonzero" /><path id="1405" transform="matrix(1 0 0 -1 0 792)" d="M210.2828 379.6597L215.0728 377.0247L210.2828 374.3897z" stroke="none" fill="#221E1F" fill-rule="nonzero" /><path id="1406" transform="matrix(1 0 0 -1 0 792)" d="M163.6224 360.6885L166.0274 360.6885L166.0274 360.6885L166.0274 395.8185L166.0274 395.8185L216.2324 405.8455M216.2324 360.6885L291.5394 360.6885M266.4364 360.6885L290.8464 360.6885L290.8464 360.6885L290.8464 395.7125L290.8464 395.7125L341.7434 405.8455M344.2674 360.6885L419.7734 360.6885M419.5744 395.8185L419.5744 360.6885M216.2324 405.8455L216.2324 360.6885L216.2324 360.6885L273.9414 360.6885M344.2674 405.8455L344.2674 360.6885L344.2674 360.6885L401.9764 360.6885M216.2324 339.3375L216.2324 289.1995L216.2324 289.1995L166.0274 289.1995M216.2324 339.3375L290.8464 326.9015L290.8464 326.9015L290.8464 289.1665M344.2674 339.3715L344.2674 289.1665L344.2674 289.1665L291.5184 289.1665M344.2674 338.8725L419.5744 326.3215L419.5744 326.3215L419.5744 289.1665" stroke="#0A74BC" stroke-width="2" stroke-linecap="round" fill="none" /><g clip-path="url(#3)"><path id="1407" transform="matrix(1 0 0 -1 0 792)" d="M226.2336 417.5555L226.2336 410.3775" stroke="#221E1F" stroke-width="1" fill="none" /></g><path id="1408" transform="matrix(1 0 0 -1 0 792)" d="M228.8684 410.7932L226.2334 406.0032L223.5984 410.7932z" stroke="none" fill="#221E1F" fill-rule="nonzero" /><path id="1409" transform="matrix(1 0 0 -1 0 792)" d="M226.2336 383.5273L226.2336 390.7053" stroke="#221E1F" stroke-width="1" fill="none" /><path id="1410" transform="matrix(1 0 0 -1 0 792)" d="M223.5988 390.2897L226.2338 395.0797L228.8688 390.2897z" stroke="none" fill="#221E1F" fill-rule="nonzero" /><path id="1411" transform="matrix(1 0 0 -1 0 792)" d="M222.5148 395.7523L231.2808 395.7523M222.5148 405.2483L231.2808 405.2483" stroke="#221E1F" stroke-width="1" fill="none" /><path id="1593" transform="matrix(1 0 0 -1 0 792)" d="M330.9609 405.834L360.6969 405.834M408.2119 177.125L434.9079 177.125M333.5419 314.29L435.1579 314.29M292.0439 400.839L339.9679 400.839" stroke="#221E1F" stroke-width="1" stroke-dasharray="5,1" fill="none" /><path id="1594" transform="matrix(1 0 0 -1 0 792)" d="M166.0323 201.6638L166.0323 242.9818L166.0323 242.9818L169.9303 245.5298L169.9303 245.5298L169.9303 201.6638L169.9303 201.6638L290.8473 201.6638L290.8473 201.6638L290.8473 242.9818L290.8473 242.9818L294.7443 245.5298L294.7443 245.5298L294.7443 201.6638L294.7443 201.6638L419.5743 201.6638L419.5743 201.6638L419.5743 236.6948" stroke="#0A74BC" stroke-width="2" stroke-linecap="round" fill="none" /><path id="1595" transform="matrix(1 0 0 -1 0 792)" d="M283.1955 246.778L335.3425 246.778" stroke="#221E1F" stroke-width="1" stroke-dasharray="5,1" fill="none" /><path id="1596" transform="matrix(1 0 0 -1 0 792)" d="M166.0323 130.013L169.9303 130.013L169.9303 130.013L169.9303 176.117L169.9303 176.117L290.8473 173.62L290.8473 173.62L290.8473 130.013L290.8473 130.013L294.7443 130.018L294.7443 130.018L294.7443 176.117L294.7443 176.117L415.6763 173.62L415.6763 173.62L415.6763 129.963L415.6763 129.963L419.5743 129.968L419.5743 129.968L419.5743 176.117" stroke="#0A74BC" stroke-width="2" stroke-linecap="round" fill="none" /></g></g></svg>