<svg xmlns="http://www.w3.org/2000/svg" xmlns:xlink="http://www.w3.org/1999/xlink" id="body_4" preserveAspectRatio="xMinYMin meet" viewBox="0 0 816 1056"><defs><clipPath id="1"><path id="" clip-rule="evenodd" transform="matrix(1 0 0 1 0 0)" d="M0 792L0 0L0 0L612 0L612 0L612 792L612 792L0 792z" /></clipPath><clipPath id="2"><path id="" clip-rule="evenodd" transform="matrix(1 0 0 1 0 0)" d="M41.702 738.5L570.345 738.5L570.345 738.5L570.345 37.99902L570.345 37.99902L41.702 37.99902z" /></clipPath><clipPath id="3"><path id="" clip-rule="evenodd" transform="matrix(1 0 0 1 0 0)" d="M41.702 738.5L570.345 738.5L570.345 738.5L570.345 37.99902L570.345 37.99902L41.702 37.99902z" /></clipPath><clipPath id="4"><path id="" clip-rule="evenodd" transform="matrix(1 0 0 1 0 0)" d="M89.151 270.126L180.151 270.126L180.151 270.126L180.151 236.127L180.151 236.127L89.151 236.127z" /></clipPath><clipPath id="5"><path id="" clip-rule="evenodd" transform="matrix(1 0 0 1 0 0)" d="M89.151 470.407L233.151 470.407L233.151 470.407L233.151 435.407L233.151 435.407L89.151 435.407z" /></clipPath><clipPath id="6"><path id="" clip-rule="evenodd" transform="matrix(1 0 0 1 0 0)" d="M54.231 699.376L568.18 699.376L568.18 699.376L568.18 503.675L568.18 503.675L54.231 503.675z" /></clipPath><clipPath id="7"><path id="" clip-rule="evenodd" transform="matrix(1 0 0 1 0 0)" d="M54.231 699.376L568.18 699.376L568.18 699.376L568.18 503.675L568.18 503.675L54.231 503.675z" /></clipPath><clipPath id="8"><path id="" clip-rule="evenodd" transform="matrix(1 0 0 1 0 0)" d="M54.231 699.376L568.18 699.376L568.18 699.376L568.18 503.675L568.18 503.675L54.231 503.675z" /></clipPath><clipPath id="9"><path id="" clip-rule="evenodd" transform="matrix(1 0 0 1 0 0)" d="M54.231 699.376L568.18 699.376L568.18 699.376L568.18 503.675L568.18 503.675L54.231 503.675z" /></clipPath></defs><g transform="matrix(1.333333 0 0 1.333333 0 0)"><g clip-path="url(#1)"><path id="1" transform="matrix(1 0 0 -1 0 792)" d="M54 39.5055L558 39.5055" stroke="#221E1F" stroke-width="0.5" fill="none" /><path id="29" transform="matrix(1 0 0 -1 0 792)" d="M41.702 53.5L570.345 53.5L570.345 754.001L41.702 754.001z" stroke="none" fill="#FFFFFF" fill-rule="nonzero" /><g clip-path="url(#2)"></g><g clip-path="url(#3)"></g><path id="1410" transform="matrix(1 0 0 -1 0 792)" d="M124.7134 657.1537L156.1824 657.1537" stroke="#060606" stroke-width="0.594" stroke-linecap="square" fill="none" /><path id="1608" transform="matrix(1 0 0 -1 0 792)" d="M117.0259 539.8739L148.1819 539.8739" stroke="#060606" stroke-width="0.594" stroke-linecap="square" fill="none" /><path id="1609" transform="matrix(1 0 0 -1 0 792)" d="M160.9321 539.8739L173.4631 539.8739" stroke="#060606" stroke-width="0.594" stroke-linecap="square" fill="none" /><g clip-path="url(#4)"></g><path id="2014" transform="matrix(1 0 0 -1 0 792)" d="M123.4322 340.5939L178.0262 340.5939" stroke="#060606" stroke-width="0.594" stroke-linecap="square" fill="none" /><path id="2015" transform="matrix(1 0 0 -1 0 792)" d="M190.7759 340.5939L226.2139 340.5939" stroke="#060606" stroke-width="0.594" stroke-linecap="square" fill="none" /><g clip-path="url(#5)"></g><path id="2151" transform="matrix(1 0 0 -1 0 792)" d="M525.6931 213.5889L525.6931 199.5569M91.1741 277.6409L77.31711 277.6409M472.6651 277.6409L458.8081 277.6409M104.4581 239.8049L104.4581 213.3999M485.9491 239.8049L485.9491 213.3999M101.6611 239.8049L101.6611 213.3999M483.1521 239.8049L483.1521 213.3999" stroke="#221E1F" stroke-width="0.95" fill="none" /><g clip-path="url(#6)"><path id="2152" transform="matrix(1 0 0 -1 0 792)" d="M527.6083 213.5894C 527.6083 214.6424 526.7483 215.5044 525.6933 215.5044C 524.6373 215.5044 523.7783 214.6424 523.7783 213.5894C 523.7783 212.5364 524.6373 211.6744 525.6933 211.6744C 526.7483 211.6744 527.6083 212.5364 527.6083 213.5894" stroke="none" fill="#221E1F" fill-rule="evenodd" /><path id="2153" transform="matrix(1 0 0 -1 0 792)" d="M144.202 213.5894L144.202 199.5564" stroke="#221E1F" stroke-width="0.95" fill="none" /><path id="2154" transform="matrix(1 0 0 -1 0 792)" d="M146.1172 213.5894C 146.1172 214.6424 145.2572 215.5044 144.2022 215.5044C 143.1462 215.5044 142.2872 214.6424 142.2872 213.5894C 142.2872 212.5364 143.1462 211.6744 144.2022 211.6744C 145.2572 211.6744 146.1172 212.5364 146.1172 213.5894" stroke="none" fill="#221E1F" fill-rule="evenodd" /><path id="2155" transform="matrix(1 0 0 -1 0 792)" d="M552.7391 233.9333L552.7391 224.0563" stroke="#221E1F" stroke-width="0.95" fill="none" /><path id="2156" transform="matrix(1 0 0 -1 0 792)" d="M555.2421 224.451L552.7391 219.901L552.7391 219.901L550.2361 224.451z" stroke="none" fill="#221E1F" fill-rule="evenodd" /><path id="2157" transform="matrix(1 0 0 -1 0 792)" d="M171.248 233.9333L171.248 224.0563" stroke="#221E1F" stroke-width="0.95" fill="none" /><path id="2158" transform="matrix(1 0 0 -1 0 792)" d="M173.7511 224.451L171.2481 219.901L171.2481 219.901L168.7451 224.451z" stroke="none" fill="#221E1F" fill-rule="evenodd" /><path id="2159" transform="matrix(1 0 0 -1 0 792)" d="M54.9729 239.8811L85.3009 239.8811L85.3009 239.8811L85.3009 252.5031L85.3009 252.5031L54.9729 252.5031zM436.4639 239.8811L466.7919 239.8811L466.7919 239.8811L466.7919 252.5031L466.7919 252.5031L436.4639 252.5031z" stroke="#BCBDC0" stroke-width="0.95" stroke-dasharray="4.75,0.95" fill="none" /></g><g clip-path="url(#7)"><path id="2234" transform="matrix(1 0 0 -1 0 792)" d="M63.4809 167.6761L83.8609 167.6761L83.8609 167.6761L83.8609 184.9221L83.8609 184.9221L74.31589 184.9221M444.9719 167.6761L465.3599 167.6761L465.3599 167.6761L465.3599 184.9221L465.3599 184.9221L455.8639 184.9221M81.0159 190.5981L83.87289 190.5981L83.87289 190.5981L83.87289 184.9181M462.5069 190.5981L465.3639 190.5981L465.3639 190.5981L465.3639 184.9181M74.37289 196.2511L83.87289 196.2511L83.87289 196.2511L83.8779 213.3591M455.8639 196.2511L465.3639 196.2511L465.3639 196.2511L465.3689 213.3591M74.37289 186.2281L74.37289 181.9531M455.8639 186.2281L455.8639 181.9531M74.37289 192.7351L74.37289 188.4601M455.8639 192.7351L455.8639 188.4601M74.37289 198.9831L74.37289 194.7081M455.8639 198.9831L455.8639 194.7081M71.6409 196.6811L71.6409 184.9221L71.6409 184.9221L63.44791 184.9221M453.1319 196.6811L453.1319 184.9221L453.1319 184.9221L444.9389 184.9221" stroke="#221E1F" stroke-width="0.95" fill="none" /><path id="2235" transform="matrix(1 0 0 -1 0 792)" d="M456.0245 190.5758L462.2765 191.9698L462.2765 191.9698L462.2775 189.1508z" stroke="none" fill="#221E1F" fill-rule="evenodd" /><path id="2236" transform="matrix(1 0 0 -1 0 792)" d="M456.0245 190.5758L462.2765 191.9698L462.2765 191.9698L462.2775 189.1508L462.2775 189.1508L456.0245 190.5758z" stroke="#221E1F" stroke-width="0.57" fill="none" /><path id="2237" transform="matrix(1 0 0 -1 0 792)" d="M74.5334 190.5758L80.7854 191.9698L80.7854 191.9698L80.7864 189.1508z" stroke="none" fill="#221E1F" fill-rule="evenodd" /><path id="2238" transform="matrix(1 0 0 -1 0 792)" d="M74.5334 190.5758L80.7854 191.9698L80.7854 191.9698L80.7864 189.1508L80.7864 189.1508L74.5334 190.5758z" stroke="#221E1F" stroke-width="0.57" fill="none" /><path id="2239" transform="matrix(1 0 0 -1 0 792)" d="M465.3691 120.9249L465.3441 136.4059L465.3441 136.4059L469.5031 137.6379L469.5031 137.6379L461.1771 140.1059L461.1771 140.1059L469.5031 142.5749L469.5031 142.5749L461.1771 145.0419L461.1771 145.0419L469.5031 147.5099L469.5031 147.5099L461.1771 149.9779L461.1771 149.9779L465.3431 151.2109L465.3431 151.2109L465.3421 167.6769" stroke="#221E1F" stroke-width="0.95" fill="none" /><path id="2240" transform="matrix(1 0 0 -1 0 792)" d="M463.4273 167.6766C 463.4273 168.7296 464.2873 169.5916 465.3423 169.5916C 466.3983 169.5916 467.2573 168.7296 467.2573 167.6766C 467.2573 166.6236 466.3983 165.7616 465.3423 165.7616C 464.2873 165.7616 463.4273 166.6236 463.4273 167.6766" stroke="none" fill="#221E1F" fill-rule="evenodd" /><path id="2241" transform="matrix(1 0 0 -1 0 792)" d="M83.8781 120.9249L83.8531 136.4059L83.8531 136.4059L88.0121 137.6379L88.0121 137.6379L79.6861 140.1059L79.6861 140.1059L88.0121 142.5749L88.0121 142.5749L79.6861 145.0419L79.6861 145.0419L88.0121 147.5099L88.0121 147.5099L79.6861 149.9779L79.6861 149.9779L83.8521 151.2109L83.8521 151.2109L83.8511 167.6769" stroke="#221E1F" stroke-width="0.95" fill="none" /><path id="2242" transform="matrix(1 0 0 -1 0 792)" d="M81.9362 167.6766C 81.9362 168.7296 82.7962 169.5916 83.8512 169.5916C 84.9072 169.5916 85.7662 168.7296 85.7662 167.6766C 85.7662 166.6236 84.9072 165.7616 83.8512 165.7616C 82.7962 165.7616 81.9362 166.6236 81.9362 167.6766" stroke="none" fill="#221E1F" fill-rule="evenodd" /><path id="2243" transform="matrix(1 0 0 -1 0 792)" d="M156.7096 213.6928L163.4946 213.6928L163.4946 213.6928L163.4956 219.7028L163.4956 219.7028L167.6536 220.9358L167.6536 220.9358L159.3276 223.4028L159.3276 223.4028L167.6536 225.8728L167.6536 225.8728L159.3276 228.3388L159.3276 228.3388L167.6536 230.8078L167.6536 230.8078L159.3276 233.2748L159.3276 233.2748L163.4936 234.5078L163.4936 234.5078L163.4936 239.8618L163.4936 239.8618L156.8436 239.8618M538.2006 213.6928L544.9856 213.6928L544.9856 213.6928L544.9866 219.7028L544.9866 219.7028L549.1456 220.9358L549.1456 220.9358L540.8186 223.4028L540.8186 223.4028L549.1456 225.8728L549.1456 225.8728L540.8186 228.3388L540.8186 228.3388L549.1456 230.8078L549.1456 230.8078L540.8186 233.2748L540.8186 233.2748L544.9846 234.5078L544.9846 234.5078L544.9846 239.8618L544.9846 239.8618L538.3346 239.8618" stroke="#221E1F" stroke-width="0.95" fill="none" /><path id="2244" transform="matrix(1 0 0 -1 0 792)" d="M531.7306 199.6447L519.7076 199.6447L519.7076 199.6447L525.7186 189.8927z" stroke="none" fill="#FFFFFF" fill-rule="evenodd" /><path id="2245" transform="matrix(1 0 0 -1 0 792)" d="M531.7306 199.6447L519.7076 199.6447L519.7076 199.6447L525.7186 189.8927L525.7186 189.8927L531.7306 199.6447z" stroke="#221E1F" stroke-width="0.95" fill="none" /><path id="2246" transform="matrix(1 0 0 -1 0 792)" d="M150.2395 199.6447L138.2165 199.6447L138.2165 199.6447L144.2275 189.8927z" stroke="none" fill="#FFFFFF" fill-rule="evenodd" /><path id="2247" transform="matrix(1 0 0 -1 0 792)" d="M150.2395 199.6447L138.2165 199.6447L138.2165 199.6447L144.2275 189.8927L144.2275 189.8927L150.2395 199.6447z" stroke="#221E1F" stroke-width="0.95" fill="none" /><path id="2248" transform="matrix(1 0 0 -1 0 792)" d="M509.8137 239.8628L501.2547 235.7108L501.2547 235.7108L501.2547 244.0138z" stroke="none" fill="#221E1F" fill-rule="evenodd" /><path id="2249" transform="matrix(1 0 0 -1 0 792)" d="M128.3227 239.8628L119.7637 235.7108L119.7637 235.7108L119.7637 244.0138z" stroke="none" fill="#221E1F" fill-rule="evenodd" /><path id="2250" transform="matrix(1 0 0 -1 0 792)" d="M128.3651 235.6453L128.3651 243.9583M509.8561 235.6453L509.8561 243.9583M128.5431 239.8623L156.8671 239.8623M510.0341 239.8623L538.3581 239.8623" stroke="#221E1F" stroke-width="0.95" fill="none" /><path id="2251" transform="matrix(1 0 0 -1 0 792)" d="M83.87863 213.6928L95.89761 213.6928C 97.70361 213.6928 99.21964 215.1578 99.21964 216.9628C 99.21964 218.7688 97.75461 220.2288 95.94861 220.2288C 97.75461 220.2288 99.21964 221.6888 99.21964 223.4938C 99.21964 225.3008 97.75461 226.7598 95.94861 226.7598C 97.75461 226.7598 99.21964 228.2198 99.21964 230.0258C 99.21964 231.8318 97.75461 233.2998 95.94861 233.2998C 97.75461 233.2998 99.21964 234.7668 99.21964 236.5738C 99.21964 238.3788 97.75461 239.8618 95.94861 239.8618L95.94861 239.8618L90.02863 239.8618L90.02863 239.8618L90.02863 259.0748L90.02863 259.0748L83.87863 259.0748L83.87863 259.0748L83.87863 277.6288M465.3696 213.6928L477.3886 213.6928C 479.1946 213.6928 480.7096 215.1578 480.7096 216.9628C 480.7096 218.7688 479.2456 220.2288 477.4396 220.2288C 479.2456 220.2288 480.7096 221.6888 480.7096 223.4938C 480.7096 225.3008 479.2456 226.7598 477.4396 226.7598C 479.2456 226.7598 480.7096 228.2198 480.7096 230.0258C 480.7096 231.8318 479.2456 233.2998 477.4396 233.2998C 479.2456 233.2998 480.7096 234.7668 480.7096 236.5738C 480.7096 238.3788 479.2456 239.8618 477.4396 239.8618L477.4396 239.8618L471.5196 239.8618L471.5196 239.8618L471.5196 259.0748L471.5196 259.0748L465.3696 259.0748L465.3696 259.0748L465.3696 277.6288M156.7096 213.6928L110.3896 213.6928C 108.5836 213.6928 107.1186 215.1578 107.1186 216.9628C 107.1186 218.7688 108.5836 220.2288 110.3896 220.2288C 108.5836 220.2288 107.1186 221.6888 107.1186 223.4938C 107.1186 225.3008 108.5836 226.7598 110.3896 226.7598C 108.5836 226.7598 107.1186 228.2198 107.1186 230.0258C 107.1186 231.8318 108.5836 233.2998 110.3896 233.2998C 108.5836 233.2998 107.1186 234.7668 107.1186 236.5738C 107.1186 238.3788 108.5836 239.8618 110.3896 239.8618L110.3896 239.8618L120.0006 239.8618M538.2006 213.6928L491.8806 213.6928C 490.0746 213.6928 488.6096 215.1578 488.6096 216.9628C 488.6096 218.7688 490.0746 220.2288 491.8806 220.2288C 490.0746 220.2288 488.6096 221.6888 488.6096 223.4938C 488.6096 225.3008 490.0746 226.7598 491.8806 226.7598C 490.0746 226.7598 488.6096 228.2198 488.6096 230.0258C 488.6096 231.8318 490.0746 233.2998 491.8806 233.2998C 490.0746 233.2998 488.6096 234.7668 488.6096 236.5738C 488.6096 238.3788 490.0746 239.8618 491.8806 239.8618L491.8806 239.8618L501.4916 239.8618" stroke="#221E1F" stroke-width="0.95" stroke-linecap="round" fill="none" /><path id="2252" transform="matrix(1 0 0 -1 0 792)" d="M516.8481 239.6246L516.8481 228.2626M140.5521 228.2616L130.1611 228.2616M522.0441 228.2616L511.6521 228.2616M80.30609 118.3276L87.5791 118.3276M82.90311 115.7296L84.98209 115.7296M77.7081 120.9246L90.17709 120.9246M461.7971 118.3276L469.0701 118.3276M464.3941 115.7296L466.4731 115.7296M459.1991 120.9246L471.6681 120.9246" stroke="#221E1F" stroke-width="0.95" fill="none" /><path id="2253" transform="matrix(1 0 0 -1 0 792)" d="M518.7637 239.625C 518.7637 240.678 517.9037 241.54 516.8487 241.54C 515.7927 241.54 514.9337 240.678 514.9337 239.625C 514.9337 238.572 515.7927 237.71 516.8487 237.71C 517.9037 237.71 518.7637 238.572 518.7637 239.625" stroke="none" fill="#221E1F" fill-rule="evenodd" /><path id="2254" transform="matrix(1 0 0 -1 0 792)" d="M135.3574 239.625L135.3574 228.262" stroke="#221E1F" stroke-width="0.95" fill="none" /><path id="2255" transform="matrix(1 0 0 -1 0 792)" d="M137.2726 239.625C 137.2726 240.678 136.4126 241.54 135.3576 241.54C 134.3016 241.54 133.4426 240.678 133.4426 239.625C 133.4426 238.572 134.3016 237.71 135.3576 237.71C 136.4126 237.71 137.2726 238.572 137.2726 239.625" stroke="none" fill="#221E1F" fill-rule="evenodd" /><path id="2256" transform="matrix(1 0 0 -1 0 792)" d="M516.8484 224.8415L516.8484 213.7155" stroke="#221E1F" stroke-width="0.95" fill="none" /><path id="2257" transform="matrix(1 0 0 -1 0 792)" d="M518.7637 213.7154C 518.7637 212.6624 517.9037 211.8004 516.8487 211.8004C 515.7927 211.8004 514.9337 212.6624 514.9337 213.7154C 514.9337 214.7684 515.7927 215.6304 516.8487 215.6304C 517.9037 215.6304 518.7637 214.7684 518.7637 213.7154" stroke="none" fill="#221E1F" fill-rule="evenodd" /><path id="2258" transform="matrix(1 0 0 -1 0 792)" d="M135.3574 224.8415L135.3574 213.7155" stroke="#221E1F" stroke-width="0.95" fill="none" /><path id="2259" transform="matrix(1 0 0 -1 0 792)" d="M137.2726 213.7154C 137.2726 212.6624 136.4126 211.8004 135.3576 211.8004C 134.3016 211.8004 133.4426 212.6624 133.4426 213.7154C 133.4426 214.7684 134.3016 215.6304 135.3576 215.6304C 136.4126 215.6304 137.2726 214.7684 137.2726 213.7154" stroke="none" fill="#221E1F" fill-rule="evenodd" /><path id="2260" transform="matrix(1 0 0 -1 0 792)" d="M140.5774 223.3876C 139.0424 224.2846 137.2554 224.7986 135.3474 224.7986C 133.4564 224.7986 131.6844 224.2936 130.1564 223.4106M522.0684 223.3876C 520.5334 224.2846 518.7464 224.7986 516.8384 224.7986C 514.9474 224.7986 513.1754 224.2936 511.6474 223.4106" stroke="#221E1F" stroke-width="0.95" fill="none" /><path id="2261" transform="matrix(1 0 0 -1 0 792)" d="M477.1802 237.8956C 477.9462 237.8956 478.5672 237.2746 478.5672 236.5086C 478.5672 235.7436 477.9462 235.1226 477.1802 235.1226C 476.4142 235.1226 475.7932 235.7436 475.7932 236.5086C 475.7932 237.2746 476.4142 237.8956 477.1802 237.8956" stroke="none" fill="#221E1F" fill-rule="evenodd" /><path id="2262" transform="matrix(1 0 0 -1 0 792)" d="M477.1802 237.8956C 477.9462 237.8956 478.5672 237.2746 478.5672 236.5086C 478.5672 235.7436 477.9462 235.1226 477.1802 235.1226C 476.4142 235.1226 475.7932 235.7436 475.7932 236.5086C 475.7932 237.2746 476.4142 237.8956 477.1802 237.8956z" stroke="#221E1F" stroke-width="0.95" fill="none" /><path id="2263" transform="matrix(1 0 0 -1 0 792)" d="M95.6892 237.8956C 96.4552 237.8956 97.0762 237.2746 97.0762 236.5086C 97.0762 235.7436 96.4552 235.1226 95.6892 235.1226C 94.9232 235.1226 94.3022 235.7436 94.3022 236.5086C 94.3022 237.2746 94.9232 237.8956 95.6892 237.8956" stroke="none" fill="#221E1F" fill-rule="evenodd" /><path id="2264" transform="matrix(1 0 0 -1 0 792)" d="M95.6892 237.8956C 96.4552 237.8956 97.0762 237.2746 97.0762 236.5086C 97.0762 235.7436 96.4552 235.1226 95.6892 235.1226C 94.9232 235.1226 94.3022 235.7436 94.3022 236.5086C 94.3022 237.2746 94.9232 237.8956 95.6892 237.8956z" stroke="#221E1F" stroke-width="0.95" fill="none" /><path id="2265" transform="matrix(1 0 0 -1 0 792)" d="M492.1854 218.2637C 492.9514 218.2637 493.5724 217.6427 493.5724 216.8767C 493.5724 216.1117 492.9514 215.4907 492.1854 215.4907C 491.4194 215.4907 490.7984 216.1117 490.7984 216.8767C 490.7984 217.6427 491.4194 218.2637 492.1854 218.2637" stroke="none" fill="#221E1F" fill-rule="evenodd" /><path id="2266" transform="matrix(1 0 0 -1 0 792)" d="M492.1854 218.2637C 492.9514 218.2637 493.5724 217.6427 493.5724 216.8767C 493.5724 216.1117 492.9514 215.4907 492.1854 215.4907C 491.4194 215.4907 490.7984 216.1117 490.7984 216.8767C 490.7984 217.6427 491.4194 218.2637 492.1854 218.2637z" stroke="#221E1F" stroke-width="0.95" fill="none" /><path id="2267" transform="matrix(1 0 0 -1 0 792)" d="M110.6944 218.2637C 111.4604 218.2637 112.0814 217.6427 112.0814 216.8767C 112.0814 216.1117 111.4604 215.4907 110.6944 215.4907C 109.9284 215.4907 109.3074 216.1117 109.3074 216.8767C 109.3074 217.6427 109.9284 218.2637 110.6944 218.2637" stroke="none" fill="#221E1F" fill-rule="evenodd" /><path id="2268" transform="matrix(1 0 0 -1 0 792)" d="M110.6944 218.2637C 111.4604 218.2637 112.0814 217.6427 112.0814 216.8767C 112.0814 216.1117 111.4604 215.4907 110.6944 215.4907C 109.9284 215.4907 109.3074 216.1117 109.3074 216.8767C 109.3074 217.6427 109.9284 218.2637 110.6944 218.2637z" stroke="#221E1F" stroke-width="0.95" fill="none" /><path id="2269" transform="matrix(1 0 0 -1 0 792)" d="M465.3687 213.6924L451.3877 213.6924L451.3877 213.6924L451.3877 239.9414M69.8967 252.8004L69.8967 259.0794L69.8967 259.0794L84.11569 259.0794M451.3877 252.8004L451.3877 259.0794L451.3877 259.0794L465.6067 259.0794" stroke="#BCBDC0" stroke-width="0.95" stroke-dasharray="4.75,0.95" fill="none" /><path id="2270" transform="matrix(1 0 0 -1 0 792)" d="M271.6029 213.5889L271.6029 199.5569M218.5749 277.6409L204.7179 277.6409M231.8589 239.8049L231.8589 213.3999M229.0619 239.8049L229.0619 213.3999" stroke="#221E1F" stroke-width="0.95" fill="none" /><path id="2271" transform="matrix(1 0 0 -1 0 792)" d="M273.5181 213.5894C 273.5181 214.6424 272.6581 215.5044 271.6031 215.5044C 270.5471 215.5044 269.6881 214.6424 269.6881 213.5894C 269.6881 212.5364 270.5471 211.6744 271.6031 211.6744C 272.6581 211.6744 273.5181 212.5364 273.5181 213.5894" stroke="none" fill="#221E1F" fill-rule="evenodd" /><path id="2272" transform="matrix(1 0 0 -1 0 792)" d="M298.6489 233.9333L298.6489 224.0563" stroke="#221E1F" stroke-width="0.95" fill="none" /><path id="2273" transform="matrix(1 0 0 -1 0 792)" d="M301.1521 224.451L298.6491 219.901L298.6491 219.901L296.1461 224.451z" stroke="none" fill="#221E1F" fill-rule="evenodd" /><path id="2274" transform="matrix(1 0 0 -1 0 792)" d="M182.3739 239.8811L212.7019 239.8811L212.7019 239.8811L212.7019 252.5031L212.7019 252.5031L182.3739 252.5031z" stroke="#BCBDC0" stroke-width="0.95" stroke-dasharray="4.75,0.95" fill="none" /><path id="2275" transform="matrix(1 0 0 -1 0 792)" d="M250.0389 247.8802L259.0389 247.8802" stroke="#221E1F" stroke-width="0.95" fill="none" /><path id="2276" transform="matrix(1 0 0 -1 0 792)" d="M258.6441 250.3832L263.1941 247.8802L263.1941 247.8802L258.6441 245.3772z" stroke="none" fill="#221E1F" fill-rule="evenodd" /></g><g clip-path="url(#8)"><path id="2296" transform="matrix(1 0 0 -1 0 792)" d="M190.8819 167.6761L211.2179 167.6761L211.2179 167.6761L211.2179 184.9221L211.2179 184.9221L201.7739 184.9221M208.4169 190.5981L211.2179 190.5981L211.2179 190.5981L211.2179 184.9181M201.7739 196.2511L211.2739 196.2511L211.2739 196.2511L211.2789 213.3591M201.7739 186.2281L201.7739 181.9531M201.7739 192.7351L201.7739 188.4601M201.7739 198.9831L201.7739 194.7081M199.0419 196.6811L199.0419 184.9221L199.0419 184.9221L190.8489 184.9221" stroke="#221E1F" stroke-width="0.95" fill="none" /><path id="2297" transform="matrix(1 0 0 -1 0 792)" d="M201.9343 190.5758L208.1863 191.9698L208.1863 191.9698L208.1873 189.1508z" stroke="none" fill="#221E1F" fill-rule="evenodd" /><path id="2298" transform="matrix(1 0 0 -1 0 792)" d="M201.9343 190.5758L208.1863 191.9698L208.1863 191.9698L208.1873 189.1508L208.1873 189.1508L201.9343 190.5758z" stroke="#221E1F" stroke-width="0.57" fill="none" /><path id="2299" transform="matrix(1 0 0 -1 0 792)" d="M211.279 120.9249L211.254 136.4059L211.254 136.4059L215.413 137.6379L215.413 137.6379L207.087 140.1059L207.087 140.1059L215.413 142.5749L215.413 142.5749L207.087 145.0419L207.087 145.0419L215.413 147.5099L215.413 147.5099L207.087 149.9779L207.087 149.9779L211.253 151.2109L211.253 151.2109L211.252 167.6769" stroke="#221E1F" stroke-width="0.95" fill="none" /><path id="2300" transform="matrix(1 0 0 -1 0 792)" d="M209.3371 167.6766C 209.3371 168.7296 210.1971 169.5916 211.2521 169.5916C 212.3081 169.5916 213.1671 168.7296 213.1671 167.6766C 213.1671 166.6236 212.3081 165.7616 211.2521 165.7616C 210.1971 165.7616 209.3371 166.6236 209.3371 167.6766" stroke="none" fill="#221E1F" fill-rule="evenodd" /><path id="2301" transform="matrix(1 0 0 -1 0 792)" d="M284.1105 213.6928L290.8955 213.6928L290.8955 213.6928L290.8965 219.7028L290.8965 219.7028L295.0555 220.9358L295.0555 220.9358L286.7285 223.4028L286.7285 223.4028L295.0555 225.8728L295.0555 225.8728L286.7285 228.3388L286.7285 228.3388L295.0555 230.8078L295.0555 230.8078L286.7285 233.2748L286.7285 233.2748L290.8945 234.5078L290.8945 234.5078L290.8945 239.8618L290.8945 239.8618L284.2445 239.8618" stroke="#221E1F" stroke-width="0.95" fill="none" /><path id="2302" transform="matrix(1 0 0 -1 0 792)" d="M277.6405 199.6447L265.6175 199.6447L265.6175 199.6447L271.6285 189.8927z" stroke="none" fill="#FFFFFF" fill-rule="evenodd" /><path id="2303" transform="matrix(1 0 0 -1 0 792)" d="M277.6405 199.6447L265.6175 199.6447L265.6175 199.6447L271.6285 189.8927L271.6285 189.8927L277.6405 199.6447z" stroke="#221E1F" stroke-width="0.95" fill="none" /><path id="2304" transform="matrix(1 0 0 -1 0 792)" d="M255.7237 239.8628L247.1647 235.7108L247.1647 235.7108L247.1647 244.0138z" stroke="none" fill="#221E1F" fill-rule="evenodd" /><path id="2305" transform="matrix(1 0 0 -1 0 792)" d="M255.7659 235.6453L255.7659 243.9583M255.9439 239.8623L284.2679 239.8623" stroke="#221E1F" stroke-width="0.95" fill="none" /><path id="2306" transform="matrix(1 0 0 -1 0 792)" d="M211.2795 213.6928L223.2985 213.6928C 225.1045 213.6928 226.6205 215.1578 226.6205 216.9628C 226.6205 218.7688 225.1555 220.2288 223.3495 220.2288C 225.1555 220.2288 226.6205 221.6888 226.6205 223.4938C 226.6205 225.3008 225.1555 226.7598 223.3495 226.7598C 225.1555 226.7598 226.6205 228.2198 226.6205 230.0258C 226.6205 231.8318 225.1555 233.2998 223.3495 233.2998C 225.1555 233.2998 226.6205 234.7668 226.6205 236.5738C 226.6205 238.3788 225.1555 239.8618 223.3495 239.8618L223.3495 239.8618L217.4295 239.8618L217.4295 239.8618L217.4295 259.0748L217.4295 259.0748L211.2795 259.0748L211.2795 259.0748L211.2795 277.6288M284.1105 213.6928L237.7905 213.6928C 235.9845 213.6928 234.5195 215.1578 234.5195 216.9628C 234.5195 218.7688 235.9845 220.2288 237.7905 220.2288C 235.9845 220.2288 234.5195 221.6888 234.5195 223.4938C 234.5195 225.3008 235.9845 226.7598 237.7905 226.7598C 235.9845 226.7598 234.5195 228.2198 234.5195 230.0258C 234.5195 231.8318 235.9845 233.2998 237.7905 233.2998C 235.9845 233.2998 234.5195 234.7668 234.5195 236.5738C 234.5195 238.3788 235.9845 239.8618 237.7905 239.8618L237.7905 239.8618L247.4015 239.8618" stroke="#221E1F" stroke-width="0.95" stroke-linecap="round" fill="none" /><path id="2307" transform="matrix(1 0 0 -1 0 792)" d="M262.758 239.6246L262.758 228.2626M267.954 228.2616L257.562 228.2616M207.707 118.3276L214.98 118.3276M210.304 115.7296L212.383 115.7296M205.109 120.9246L217.578 120.9246" stroke="#221E1F" stroke-width="0.95" fill="none" /><path id="2308" transform="matrix(1 0 0 -1 0 792)" d="M264.6735 239.625C 264.6735 240.678 263.8135 241.54 262.7585 241.54C 261.7025 241.54 260.8435 240.678 260.8435 239.625C 260.8435 238.572 261.7025 237.71 262.7585 237.71C 263.8135 237.71 264.6735 238.572 264.6735 239.625" stroke="none" fill="#221E1F" fill-rule="evenodd" /><path id="2309" transform="matrix(1 0 0 -1 0 792)" d="M262.7584 224.8415L262.7584 213.7155" stroke="#221E1F" stroke-width="0.95" fill="none" /><path id="2310" transform="matrix(1 0 0 -1 0 792)" d="M264.6735 213.7154C 264.6735 212.6624 263.8135 211.8004 262.7585 211.8004C 261.7025 211.8004 260.8435 212.6624 260.8435 213.7154C 260.8435 214.7684 261.7025 215.6304 262.7585 215.6304C 263.8135 215.6304 264.6735 214.7684 264.6735 213.7154" stroke="none" fill="#221E1F" fill-rule="evenodd" /><path id="2311" transform="matrix(1 0 0 -1 0 792)" d="M267.9783 223.3876C 266.4433 224.2846 264.6563 224.7986 262.7483 224.7986C 260.8573 224.7986 259.0853 224.2936 257.5573 223.4106" stroke="#221E1F" stroke-width="0.95" fill="none" /><path id="2312" transform="matrix(1 0 0 -1 0 792)" d="M223.0901 237.8956C 223.8561 237.8956 224.4771 237.2746 224.4771 236.5086C 224.4771 235.7436 223.8561 235.1226 223.0901 235.1226C 222.3241 235.1226 221.7031 235.7436 221.7031 236.5086C 221.7031 237.2746 222.3241 237.8956 223.0901 237.8956" stroke="none" fill="#221E1F" fill-rule="evenodd" /><path id="2313" transform="matrix(1 0 0 -1 0 792)" d="M223.0901 237.8956C 223.8561 237.8956 224.4771 237.2746 224.4771 236.5086C 224.4771 235.7436 223.8561 235.1226 223.0901 235.1226C 222.3241 235.1226 221.7031 235.7436 221.7031 236.5086C 221.7031 237.2746 222.3241 237.8956 223.0901 237.8956z" stroke="#221E1F" stroke-width="0.95" fill="none" /><path id="2314" transform="matrix(1 0 0 -1 0 792)" d="M238.0953 218.2637C 238.8613 218.2637 239.4823 217.6427 239.4823 216.8767C 239.4823 216.1117 238.8613 215.4907 238.0953 215.4907C 237.3293 215.4907 236.7083 216.1117 236.7083 216.8767C 236.7083 217.6427 237.3293 218.2637 238.0953 218.2637" stroke="none" fill="#221E1F" fill-rule="evenodd" /><path id="2315" transform="matrix(1 0 0 -1 0 792)" d="M238.0953 218.2637C 238.8613 218.2637 239.4823 217.6427 239.4823 216.8767C 239.4823 216.1117 238.8613 215.4907 238.0953 215.4907C 237.3293 215.4907 236.7083 216.1117 236.7083 216.8767C 236.7083 217.6427 237.3293 218.2637 238.0953 218.2637z" stroke="#221E1F" stroke-width="0.95" fill="none" /><path id="2316" transform="matrix(1 0 0 -1 0 792)" d="M211.2787 213.6924L197.2977 213.6924L197.2977 213.6924L197.2977 239.9414M197.2977 252.8004L197.2977 259.0794L197.2977 259.0794L211.5167 259.0794" stroke="#BCBDC0" stroke-width="0.95" stroke-dasharray="4.75,0.95" fill="none" /><path id="2317" transform="matrix(1 0 0 -1 0 792)" d="M397.5804 213.5889L397.5804 199.5569M344.5524 277.6409L330.6954 277.6409M357.8364 239.8049L357.8364 213.3999M355.0394 239.8049L355.0394 213.3999" stroke="#221E1F" stroke-width="0.95" fill="none" /><path id="2318" transform="matrix(1 0 0 -1 0 792)" d="M399.4956 213.5894C 399.4956 214.6424 398.6356 215.5044 397.5806 215.5044C 396.5246 215.5044 395.6656 214.6424 395.6656 213.5894C 395.6656 212.5364 396.5246 211.6744 397.5806 211.6744C 398.6356 211.6744 399.4956 212.5364 399.4956 213.5894" stroke="none" fill="#221E1F" fill-rule="evenodd" /><path id="2319" transform="matrix(1 0 0 -1 0 792)" d="M424.6264 233.9333L424.6264 224.0563" stroke="#221E1F" stroke-width="0.95" fill="none" /><path id="2320" transform="matrix(1 0 0 -1 0 792)" d="M427.1294 224.451L424.6264 219.901L424.6264 219.901L422.1234 224.451z" stroke="none" fill="#221E1F" fill-rule="evenodd" /><path id="2321" transform="matrix(1 0 0 -1 0 792)" d="M308.3519 239.8811L338.6799 239.8811L338.6799 239.8811L338.6799 252.5031L338.6799 252.5031L308.3519 252.5031z" stroke="#BCBDC0" stroke-width="0.95" stroke-dasharray="4.75,0.95" fill="none" /><path id="2322" transform="matrix(1 0 0 -1 0 792)" d="M376.0163 247.8802L385.0163 247.8802" stroke="#221E1F" stroke-width="0.95" fill="none" /><path id="2323" transform="matrix(1 0 0 -1 0 792)" d="M384.6215 250.3832L389.1725 247.8802L389.1725 247.8802L384.6215 245.3772z" stroke="none" fill="#221E1F" fill-rule="evenodd" /></g><g clip-path="url(#9)"><path id="2343" transform="matrix(1 0 0 -1 0 792)" d="M316.8603 167.6761L337.2513 167.6761L337.2513 167.6761L337.2513 184.9221L337.2513 184.9221L327.7513 184.9221M334.3943 190.5981L337.2513 190.5981L337.2513 190.5981L337.2513 184.9181M327.7513 196.2511L337.2513 196.2511L337.2513 196.2511L337.2563 213.3591M327.7513 186.2281L327.7513 181.9531M327.7513 192.7351L327.7513 188.4601M327.7513 198.9831L327.7513 194.7081M325.0193 196.6811L325.0193 184.9221L325.0193 184.9221L316.8263 184.9221" stroke="#221E1F" stroke-width="0.95" fill="none" /><path id="2344" transform="matrix(1 0 0 -1 0 792)" d="M327.9118 190.5758L334.1638 191.9698L334.1638 191.9698L334.1648 189.1508z" stroke="none" fill="#221E1F" fill-rule="evenodd" /><path id="2345" transform="matrix(1 0 0 -1 0 792)" d="M327.9118 190.5758L334.1638 191.9698L334.1638 191.9698L334.1648 189.1508L334.1648 189.1508L327.9118 190.5758z" stroke="#221E1F" stroke-width="0.57" fill="none" /><path id="2346" transform="matrix(1 0 0 -1 0 792)" d="M337.2565 120.9249L337.2315 136.4059L337.2315 136.4059L341.3905 137.6379L341.3905 137.6379L333.0645 140.1059L333.0645 140.1059L341.3905 142.5749L341.3905 142.5749L333.0645 145.0419L333.0645 145.0419L341.3905 147.5099L341.3905 147.5099L333.0645 149.9779L333.0645 149.9779L337.2305 151.2109L337.2305 151.2109L337.2295 167.6769" stroke="#221E1F" stroke-width="0.95" fill="none" /><path id="2347" transform="matrix(1 0 0 -1 0 792)" d="M335.3146 167.6766C 335.3146 168.7296 336.1746 169.5916 337.2296 169.5916C 338.2856 169.5916 339.1446 168.7296 339.1446 167.6766C 339.1446 166.6236 338.2856 165.7616 337.2296 165.7616C 336.1746 165.7616 335.3146 166.6236 335.3146 167.6766" stroke="none" fill="#221E1F" fill-rule="evenodd" /><path id="2348" transform="matrix(1 0 0 -1 0 792)" d="M410.0879 213.6928L416.8729 213.6928L416.8729 213.6928L416.8739 219.7028L416.8739 219.7028L421.0329 220.9358L421.0329 220.9358L412.7059 223.4028L412.7059 223.4028L421.0329 225.8728L421.0329 225.8728L412.7059 228.3388L412.7059 228.3388L421.0329 230.8078L421.0329 230.8078L412.7059 233.2748L412.7059 233.2748L416.8719 234.5078L416.8719 234.5078L416.8719 239.8618L416.8719 239.8618L410.2219 239.8618" stroke="#221E1F" stroke-width="0.95" fill="none" /><path id="2349" transform="matrix(1 0 0 -1 0 792)" d="M403.6179 199.6447L391.5949 199.6447L391.5949 199.6447L397.6059 189.8927z" stroke="none" fill="#FFFFFF" fill-rule="evenodd" /><path id="2350" transform="matrix(1 0 0 -1 0 792)" d="M403.6179 199.6447L391.5949 199.6447L391.5949 199.6447L397.6059 189.8927L397.6059 189.8927L403.6179 199.6447z" stroke="#221E1F" stroke-width="0.95" fill="none" /><path id="2351" transform="matrix(1 0 0 -1 0 792)" d="M381.7011 239.8628L373.1421 235.7108L373.1421 235.7108L373.1421 244.0138z" stroke="none" fill="#221E1F" fill-rule="evenodd" /><path id="2352" transform="matrix(1 0 0 -1 0 792)" d="M381.7434 235.6453L381.7434 243.9583M381.9214 239.8623L410.2454 239.8623" stroke="#221E1F" stroke-width="0.95" fill="none" /><path id="2353" transform="matrix(1 0 0 -1 0 792)" d="M337.2569 213.6928L349.2759 213.6928C 351.0819 213.6928 352.5979 215.1578 352.5979 216.9628C 352.5979 218.7688 351.1329 220.2288 349.3269 220.2288C 351.1329 220.2288 352.5979 221.6888 352.5979 223.4938C 352.5979 225.3008 351.1329 226.7598 349.3269 226.7598C 351.1329 226.7598 352.5979 228.2198 352.5979 230.0258C 352.5979 231.8318 351.1329 233.2998 349.3269 233.2998C 351.1329 233.2998 352.5979 234.7668 352.5979 236.5738C 352.5979 238.3788 351.1329 239.8618 349.3269 239.8618L349.3269 239.8618L343.4069 239.8618L343.4069 239.8618L343.4069 259.0748L343.4069 259.0748L337.2569 259.0748L337.2569 259.0748L337.2569 277.6288M410.0879 213.6928L363.7679 213.6928C 361.9619 213.6928 360.4969 215.1578 360.4969 216.9628C 360.4969 218.7688 361.9619 220.2288 363.7679 220.2288C 361.9619 220.2288 360.4969 221.6888 360.4969 223.4938C 360.4969 225.3008 361.9619 226.7598 363.7679 226.7598C 361.9619 226.7598 360.4969 228.2198 360.4969 230.0258C 360.4969 231.8318 361.9619 233.2998 363.7679 233.2998C 361.9619 233.2998 360.4969 234.7668 360.4969 236.5738C 360.4969 238.3788 361.9619 239.8618 363.7679 239.8618L363.7679 239.8618L373.3789 239.8618" stroke="#221E1F" stroke-width="0.95" stroke-linecap="round" fill="none" /><path id="2354" transform="matrix(1 0 0 -1 0 792)" d="M388.7355 239.6246L388.7355 228.2626M393.9315 228.2616L383.5395 228.2616M333.6845 118.3276L340.9575 118.3276M336.2815 115.7296L338.3605 115.7296M331.0865 120.9246L343.5555 120.9246" stroke="#221E1F" stroke-width="0.95" fill="none" /><path id="2355" transform="matrix(1 0 0 -1 0 792)" d="M390.651 239.625C 390.651 240.678 389.791 241.54 388.736 241.54C 387.68 241.54 386.821 240.678 386.821 239.625C 386.821 238.572 387.68 237.71 388.736 237.71C 389.791 237.71 390.651 238.572 390.651 239.625" stroke="none" fill="#221E1F" fill-rule="evenodd" /><path id="2356" transform="matrix(1 0 0 -1 0 792)" d="M388.7358 224.8415L388.7358 213.7155" stroke="#221E1F" stroke-width="0.95" fill="none" /><path id="2357" transform="matrix(1 0 0 -1 0 792)" d="M390.651 213.7154C 390.651 212.6624 389.791 211.8004 388.736 211.8004C 387.68 211.8004 386.821 212.6624 386.821 213.7154C 386.821 214.7684 387.68 215.6304 388.736 215.6304C 389.791 215.6304 390.651 214.7684 390.651 213.7154" stroke="none" fill="#221E1F" fill-rule="evenodd" /><path id="2358" transform="matrix(1 0 0 -1 0 792)" d="M393.9557 223.3876C 392.4207 224.2846 390.6337 224.7986 388.7257 224.7986C 386.8347 224.7986 385.0627 224.2936 383.5347 223.4106" stroke="#221E1F" stroke-width="0.95" fill="none" /><path id="2359" transform="matrix(1 0 0 -1 0 792)" d="M349.0676 237.8956C 349.8336 237.8956 350.4546 237.2746 350.4546 236.5086C 350.4546 235.7436 349.8336 235.1226 349.0676 235.1226C 348.3016 235.1226 347.6806 235.7436 347.6806 236.5086C 347.6806 237.2746 348.3016 237.8956 349.0676 237.8956" stroke="none" fill="#221E1F" fill-rule="evenodd" /><path id="2360" transform="matrix(1 0 0 -1 0 792)" d="M349.0676 237.8956C 349.8336 237.8956 350.4546 237.2746 350.4546 236.5086C 350.4546 235.7436 349.8336 235.1226 349.0676 235.1226C 348.3016 235.1226 347.6806 235.7436 347.6806 236.5086C 347.6806 237.2746 348.3016 237.8956 349.0676 237.8956z" stroke="#221E1F" stroke-width="0.95" fill="none" /><path id="2361" transform="matrix(1 0 0 -1 0 792)" d="M364.0728 218.2637C 364.8388 218.2637 365.4598 217.6427 365.4598 216.8767C 365.4598 216.1117 364.8388 215.4907 364.0728 215.4907C 363.3068 215.4907 362.6858 216.1117 362.6858 216.8767C 362.6858 217.6427 363.3068 218.2637 364.0728 218.2637" stroke="none" fill="#221E1F" fill-rule="evenodd" /><path id="2362" transform="matrix(1 0 0 -1 0 792)" d="M364.0728 218.2637C 364.8388 218.2637 365.4598 217.6427 365.4598 216.8767C 365.4598 216.1117 364.8388 215.4907 364.0728 215.4907C 363.3068 215.4907 362.6858 216.1117 362.6858 216.8767C 362.6858 217.6427 363.3068 218.2637 364.0728 218.2637z" stroke="#221E1F" stroke-width="0.95" fill="none" /><path id="2363" transform="matrix(1 0 0 -1 0 792)" d="M83.87808 213.6924L69.89708 213.6924L69.89708 213.6924L69.89708 239.9414M337.2561 213.6924L323.2751 213.6924L323.2751 213.6924L323.2751 239.9414M323.2751 252.8004L323.2751 259.0794L323.2751 259.0794L337.4941 259.0794" stroke="#BCBDC0" stroke-width="0.95" stroke-dasharray="4.75,0.95" fill="none" /><path id="2364" transform="matrix(1 0 0 -1 0 792)" d="M86.6472 274.5112C 91.0862 267.3752 87.6022 262.0932 87.4902 256.4732C 84.96021 233.6612 97.2412 247.2702 93.9332 219.3862C 90.22421 209.1882 88.5632 216.2122 88.3392 206.2382" stroke="#0060AF" stroke-width="0.95" fill="none" /><path id="2365" transform="matrix(1 0 0 -1 0 792)" d="M90.8509 206.576L88.2459 202.083L88.2459 202.083L85.8459 206.689z" stroke="none" fill="#0060AF" fill-rule="evenodd" /><path id="2366" transform="matrix(1 0 0 -1 0 792)" d="M87.6587 200.0004C 86.9847 195.2244 87.4107 191.6984 89.0077 188.7054C 102.1567 166.7904 90.9627 163.8234 91.5367 141.0954" stroke="#0060AF" stroke-width="0.95" fill="none" /><path id="2367" transform="matrix(1 0 0 -1 0 792)" d="M94.0287 141.5534L91.6407 136.9414L91.6407 136.9414L89.0237 141.4274z" stroke="none" fill="#0060AF" fill-rule="evenodd" /><path id="2368" transform="matrix(1 0 0 -1 0 792)" d="M144.1867 219.3865C 142.6837 222.4475 141.4417 226.1475 143.4717 229.1665C 145.5017 232.1855 146.4357 232.6665 149.5957 233.0235C 152.2947 233.3355 155.2537 231.5585 155.3517 227.3795" stroke="#0060AF" stroke-width="0.95" fill="none" /><path id="2369" transform="matrix(1 0 0 -1 0 792)" d="M157.8443 227.832L155.4483 223.224L155.4483 223.224L152.8393 227.715z" stroke="none" fill="#0060AF" fill-rule="evenodd" /><path id="2370" transform="matrix(1 0 0 -1 0 792)" d="M525.3776 219.3865C 524.5906 221.9605 524.6756 224.7445 525.2706 226.9885C 525.8817 230.6365 527.6886 232.6665 530.8496 233.0235C 533.5486 233.3355 536.5076 231.5585 536.6046 227.3795" stroke="#0060AF" stroke-width="0.95" fill="none" /><path id="2371" transform="matrix(1 0 0 -1 0 792)" d="M539.0982 227.832L536.7022 223.224L536.7022 223.224L534.0932 227.715z" stroke="none" fill="#0060AF" fill-rule="evenodd" /><path id="2372" transform="matrix(1 0 0 -1 0 792)" d="M203.3669 223.2653C 205.3119 220.4103 208.0019 218.0513 211.4359 217.8033C 216.0299 216.8513 221.2439 221.4863 220.3749 227.2383C 219.3809 231.1273 216.6499 234.0243 212.1809 235.8033" stroke="#EE1C23" stroke-width="0.95" fill="none" /><path id="2373" transform="matrix(1 0 0 -1 0 792)" d="M205.6581 224.3484L201.0281 226.7004L201.0281 226.7004L201.5201 221.5304z" stroke="none" fill="#EE1C23" fill-rule="evenodd" /><path id="2374" transform="matrix(1 0 0 -1 0 792)" d="M245.2073 217.8017C 248.5343 217.9567 250.3393 217.3387 253.8443 219.0137C 257.1903 221.3057 257.8463 230.1497 251.2543 233.2987C 248.4153 234.3727 245.6323 234.8787 241.2743 232.7547" stroke="#0060AF" stroke-width="0.95" fill="none" /><path id="2375" transform="matrix(1 0 0 -1 0 792)" d="M245.4849 220.3206L241.0559 217.6086L241.0559 217.6086L245.7179 215.3196z" stroke="none" fill="#0060AF" fill-rule="evenodd" /><path id="2376" transform="matrix(1 0 0 -1 0 792)" d="M370.9475 217.8017C 374.2745 217.9567 376.0795 217.3387 379.5855 219.0137C 382.9305 221.3057 383.5865 230.1497 376.9945 233.2987C 374.1555 234.3727 371.3725 234.8787 367.0145 232.7547" stroke="#0060AF" stroke-width="0.95" fill="none" /><path id="2377" transform="matrix(1 0 0 -1 0 792)" d="M371.2251 220.3206L366.7961 217.6086L366.7961 217.6086L371.4581 215.3196z" stroke="none" fill="#0060AF" fill-rule="evenodd" /><path id="2378" transform="matrix(1 0 0 -1 0 792)" d="M284.3856 220.49C 284.4276 229.842 277.7646 236.215 267.0056 235.884" stroke="#0060AF" stroke-width="0.95" fill="none" /><path id="2379" transform="matrix(1 0 0 -1 0 792)" d="M281.8845 220.8958L284.3675 216.3338L284.3675 216.3338L286.8905 220.8738z" stroke="none" fill="#0060AF" fill-rule="evenodd" /><path id="2380" transform="matrix(1 0 0 -1 0 792)" d="M386.1805 243.6003C 394.9585 240.4583 400.6005 249.7753 407.8885 238.0553C 410.8665 233.2903 413.1195 223.8733 407.1465 220.2643C 403.1265 218.3473 399.1065 218.6353 395.0865 218.9443" stroke="#0060AF" stroke-width="0.95" fill="none" /><path id="2381" transform="matrix(1 0 0 -1 0 792)" d="M395.2882 216.4183L390.9432 219.2633L390.9432 219.2633L395.6722 221.4103z" stroke="none" fill="#0060AF" fill-rule="evenodd" /></g></g></g></svg>