<svg xmlns="http://www.w3.org/2000/svg" xmlns:xlink="http://www.w3.org/1999/xlink" id="body_19" preserveAspectRatio="xMinYMin meet" viewBox="0 0 816 1056"><defs><clipPath id="1"><path id="" clip-rule="evenodd" transform="matrix(1 0 0 1 0 0)" d="M0 792L0 0L0 0L612 0L612 0L612 792L612 792L0 792z" /></clipPath><clipPath id="2"><path id="" clip-rule="evenodd" transform="matrix(1 0 0 1 0 0)" d="M45.5 736L567.5 736L567.5 736L567.5 38.19897L567.5 38.19897L45.5 38.19897z" /></clipPath><clipPath id="3"><path id="" clip-rule="evenodd" transform="matrix(1 0 0 1 0 0)" d="M45.5 736L567.5 736L567.5 736L567.5 38.19897L567.5 38.19897L45.5 38.19897z" /></clipPath><clipPath id="4"><path id="" clip-rule="evenodd" transform="matrix(1 0 0 1 0 0)" d="M45.5 736L567.5 736L567.5 736L567.5 38.19897L567.5 38.19897L45.5 38.19897z" /></clipPath><clipPath id="5"><path id="" clip-rule="evenodd" transform="matrix(1 0 0 1 0 0)" d="M169.46 701.102L458 701.102L458 701.102L458 471.102L458 471.102L169.46 471.102z" /></clipPath><clipPath id="6"><path id="" clip-rule="evenodd" transform="matrix(1 0 0 1 0 0)" d="M169.46 701.102L458 701.102L458 701.102L458 471.102L458 471.102L169.46 471.102z" /></clipPath></defs><g transform="matrix(1.333333 0 0 1.333333 0 0)"><g clip-path="url(#1)"><path id="1" transform="matrix(1 0 0 -1 0 792)" d="M54 39.5055L558 39.5055" stroke="#221E1F" stroke-width="0.5" fill="none" /><path id="30" transform="matrix(1 0 0 -1 0 792)" d="M45.5 56L567.5 56L567.5 753.801L45.5 753.801z" stroke="none" fill="#FFFFFF" fill-rule="nonzero" /><g clip-path="url(#2)"></g><path id="208" transform="matrix(1 0 0 -1 0 792)" d="M163.0625 669.9348L176.3755 669.9348" stroke="#060606" stroke-width="0.594" stroke-linecap="square" fill="none" /><path id="209" transform="matrix(1 0 0 -1 0 792)" d="M155.0937 664.1223L156.2497 665.7783" stroke="#060606" stroke-width="1" stroke-linecap="square" fill="none" /><path id="210" transform="matrix(1 0 0 -1 0 792)" d="M156.25 665.7786L159.156 653.3726" stroke="#060606" stroke-width="1" stroke-linecap="square" fill="none" /><path id="211" transform="matrix(1 0 0 -1 0 792)" d="M159.1562 653.3723L162.3752 686.0283" stroke="#060606" stroke-width="1" stroke-linecap="square" fill="none" /><path id="212" transform="matrix(1 0 0 -1 0 792)" d="M162.375 686.0286L177.313 686.0286" stroke="#060606" stroke-width="1" stroke-linecap="square" fill="none" /><path id="213" transform="matrix(1 0 0 -1 0 792)" d="M154.9375 664.2161L156.5935 666.5291L159.1565 656.2471L162.1255 686.3101L177.3125 686.3101L177.3125 685.7161L162.6565 685.7161L159.4685 653.3721L158.8755 653.3721L155.9065 665.0291L155.2505 663.9971z" stroke="none" fill="#060606" fill-rule="nonzero" /><path id="441" transform="matrix(1 0 0 -1 0 792)" d="M110.6875 537.6547L153.5315 537.6547" stroke="#060606" stroke-width="0.594" stroke-linecap="square" fill="none" /><g clip-path="url(#3)"></g><g clip-path="url(#4)"></g><path id="2023" transform="matrix(1 0 0 -1 0 792)" d="M191.6397 138.9843L192.7917 138.9843L192.7917 138.9843L192.7915 134.6553C 192.3595 134.6913 191.9545 134.8383 191.5585 135.0783C 191.1746 135.3063 190.6586 135.7684 190.0106 136.4644C 189.5067 137.0164 189.1497 137.3584 188.9577 137.4904C 188.7057 137.6584 188.4537 137.7424 188.2017 137.7424C 187.9377 137.7424 187.7157 137.6704 187.5717 137.5264C 187.4277 137.3704 187.3467 137.1575 187.3467 136.9055C 187.3467 136.6535 187.4367 136.4375 187.5807 136.2935C 187.7367 136.1375 187.9947 136.0444 188.3547 136.0324L188.3547 136.0324L188.2286 134.7994C 187.5566 134.8715 187.0737 135.0965 186.7617 135.4925C 186.4737 135.8765 186.3207 136.3535 186.3207 136.9415C 186.3208 137.5775 186.4978 138.0755 186.8338 138.4355C 187.1818 138.7954 187.6078 138.9844 188.1118 138.9844C 188.4118 138.9844 188.6877 138.9304 188.9397 138.8224C 189.2157 138.7144 189.4797 138.5524 189.7677 138.3363C 189.9597 138.1803 190.2387 137.9103 190.5867 137.5263C 190.9466 137.1303 191.1896 136.8843 191.2976 136.7883C 191.4296 136.6803 191.5316 136.5873 191.6396 136.5273z" stroke="none" fill="#221E1F" fill-rule="evenodd" /><path id="2024" transform="matrix(1 0 0 -1 0 792)" d="M186.3209 141.9004C 186.3209 142.5244 186.5519 143.0074 186.9959 143.3674C 187.5239 143.7874 188.3909 143.9973 189.6149 143.9973C 190.8389 143.9973 191.7148 143.7782 192.2428 143.3582C 192.6868 143.0102 192.8998 142.5242 192.8997 141.9002C 192.8997 141.2762 192.6717 140.7722 192.1797 140.3882C 191.6997 139.9923 190.8417 139.8123 189.6058 139.8123C 188.3938 139.8124 187.5178 140.0224 186.9778 140.4424C 186.5459 140.7904 186.3209 141.2764 186.3209 141.9004zM187.3469 141.9004C 187.3469 141.7564 187.3949 141.6124 187.4909 141.5044C 187.5988 141.3844 187.7518 141.2944 188.0038 141.2344C 188.3278 141.1384 188.8588 141.1084 189.6148 141.1083C 190.3708 141.1083 190.8958 141.1443 191.1718 141.2163C 191.4598 141.2883 191.6428 141.3843 191.7388 141.5043C 191.8348 141.6122 191.8738 141.7562 191.8738 141.9002C 191.8738 142.0443 191.8378 142.1852 191.7298 142.3053C 191.6458 142.4133 191.4778 142.5033 191.2258 142.5753C 190.9018 142.6473 190.3708 142.7013 189.6149 142.7013C 188.8589 142.7013 188.3459 142.6654 188.0579 142.5934C 187.7699 142.5094 187.5989 142.4134 187.4909 142.3054C 187.3949 142.1854 187.3469 142.0444 187.3469 141.9004z" stroke="none" fill="#221E1F" fill-rule="evenodd" /><path id="2025" transform="matrix(1 0 0 -1 0 792)" d="M192.7918 144.4922L190.3889 146.1752L190.3889 146.1752L188.1299 144.5643L188.1299 144.5643L188.13 146.0673L188.13 146.0673L189.408 146.8953L189.408 146.8953L188.1301 147.7683L188.1301 147.7683L188.1301 149.2173L188.1301 149.2173L190.335 147.6332L190.335 147.6332L192.792 149.3611L192.792 149.3611L192.7919 147.8401L192.7919 147.8401L191.343 146.8952L191.343 146.8952L192.7919 145.9322z" stroke="none" fill="#221E1F" fill-rule="evenodd" /><path id="2027" transform="matrix(1 0 0 -1 0 792)" d="M192.7921 152.6011L186.3483 152.6013L186.3483 152.6013L186.3483 154.6893C 186.3483 155.4693 186.3874 155.9883 186.4474 156.2283C 186.5554 156.6003 186.7534 156.9122 187.0774 157.1642C 187.4014 157.4042 187.8244 157.5332 188.3284 157.5332C 188.7244 157.5332 189.0634 157.4612 189.3273 157.3172C 189.6033 157.1732 189.8223 156.9841 189.9663 156.7681C 190.1223 156.5521 190.2243 156.3181 190.2723 156.1021C 190.3323 155.7781 190.3623 155.3281 190.3622 154.7522L190.3622 154.7522L190.3622 153.8972L190.3622 153.8972L192.7922 153.8971zM187.4373 153.8973L189.2642 153.8972L189.2642 153.8972L189.2643 154.6082C 189.2643 155.1122 189.2373 155.4632 189.1653 155.6432C 189.1053 155.8112 188.9943 155.9402 188.8503 156.0482C 188.7063 156.1442 188.5503 156.1922 188.3463 156.1922C 188.1183 156.1922 187.9263 156.1172 187.7703 155.9852C 187.6263 155.8412 187.5183 155.6672 187.4823 155.4632C 187.4583 155.3073 187.4373 154.9953 187.4373 154.5273L187.4373 154.5273L187.4373 153.8973z" stroke="none" fill="#221E1F" fill-rule="evenodd" /><path id="2028" transform="matrix(1 0 0 -1 0 792)" d="M192.7923 159.774L192.7923 158.541L192.7923 158.541L188.1304 158.5412L188.1304 158.5412L188.1304 159.6842L188.1304 159.6842L188.7874 159.6841C 188.4754 159.8762 188.2745 160.0592 188.1665 160.2152C 188.0705 160.3712 188.0225 160.5392 188.0225 160.7552C 188.0225 161.0312 188.1005 161.3011 188.2565 161.5651L188.2565 161.5651L189.3275 161.1781C 189.1955 160.9621 189.1295 160.7821 189.1295 160.6021C 189.1295 160.4221 189.1774 160.2811 189.2734 160.1611C 189.3694 160.0411 189.5344 159.9421 189.7864 159.8821C 190.0384 159.8101 190.5604 159.7741 191.3524 159.7741z" stroke="none" fill="#221E1F" fill-rule="evenodd" /><path id="2029" transform="matrix(1 0 0 -1 0 792)" d="M187.4915 162.0962L186.3486 162.0962L186.3486 162.0962L186.3486 163.3292L186.3486 163.3292L187.4916 163.3292zM192.7924 162.096L188.1305 162.0961L188.1305 162.0961L188.1306 163.3291L188.1306 163.3291L192.7925 163.329L192.7925 163.329L192.7924 162.096z" stroke="none" fill="#221E1F" fill-rule="evenodd" /><path id="2030" transform="matrix(1 0 0 -1 0 792)" d="M188.1306 164.5081L188.1306 165.6421L188.1306 165.6421L188.7606 165.6421C 188.2687 166.0381 188.0227 166.5241 188.0227 167.1001C 188.0227 167.3881 188.0827 167.6581 188.2027 167.8741C 188.3347 168.0901 188.5087 168.2701 188.7607 168.4141C 188.5087 168.6181 188.3347 168.8401 188.2028 169.0801C 188.0828 169.3081 188.0228 169.5601 188.0228 169.8361C 188.0228 170.1721 188.0978 170.4691 188.2298 170.709C 188.3738 170.937 188.5778 171.12 188.8418 171.24C 189.0458 171.324 189.3728 171.366 189.8048 171.366L189.8048 171.366L192.7927 171.3659L192.7927 171.3659L192.7927 170.1329L192.7927 170.1329L190.1288 170.133C 189.6608 170.133 189.3728 170.079 189.2288 170.007C 189.0488 169.887 188.9678 169.716 188.9678 169.476C 188.9678 169.296 189.0127 169.134 189.1207 168.99C 189.2287 168.834 189.3847 168.726 189.5887 168.666C 189.7927 168.594 190.1197 168.558 190.5517 168.558L190.5517 168.558L192.7926 168.5579L192.7926 168.5579L192.7926 167.3249L192.7926 167.3249L190.2367 167.325C 189.7807 167.325 189.4987 167.298 189.3547 167.2621C 189.2347 167.2141 189.1387 167.1391 189.0667 167.0551C 188.9947 166.9591 188.9677 166.8331 188.9677 166.6771C 188.9677 166.4851 189.0126 166.3081 189.1206 166.1641C 189.2286 166.0081 189.3816 165.9001 189.5616 165.8401C 189.7656 165.7681 190.0806 165.741 190.5246 165.741L190.5246 165.741L192.7925 165.741L192.7925 165.741L192.7925 164.508z" stroke="none" fill="#221E1F" fill-rule="evenodd" /><path id="2031" transform="matrix(1 0 0 -1 0 792)" d="M189.5529 173.517L189.3458 172.401C 188.9019 172.521 188.5629 172.737 188.3469 173.049C 188.1309 173.349 188.0229 173.805 188.0229 174.417C 188.023 174.969 188.089 175.374 188.221 175.65C 188.353 175.914 188.512 176.109 188.716 176.217C 188.92 176.325 189.283 176.388 189.823 176.3879L189.823 176.3879L191.2629 176.3699C 191.6709 176.3699 191.9829 176.3849 192.1629 176.4329C 192.3669 176.4688 192.5769 176.5408 192.7929 176.6488L192.7929 176.6488L192.7929 175.4338C 192.7209 175.3978 192.5889 175.3528 192.4329 175.3169C 192.3609 175.2809 192.3159 175.2719 192.2799 175.2719C 192.4959 175.0559 192.6398 174.8249 192.7478 174.5969C 192.8438 174.3448 192.9008 174.0869 192.9008 173.8229C 192.9008 173.3429 192.7688 172.9529 192.5048 172.6889C 192.2528 172.4009 191.9228 172.2749 191.5148 172.2749C 191.2628 172.2749 191.0288 172.3319 190.8128 172.4639C 190.6088 172.584 190.4558 172.7549 190.3358 172.9949C 190.2279 173.211 190.1319 173.5439 190.0479 173.976C 189.9399 174.5519 189.8469 174.9449 189.7509 175.1729L189.7509 175.1729L189.6249 175.1729C 189.3969 175.173 189.2289 175.101 189.1209 174.993C 189.0129 174.873 188.9679 174.66 188.9679 174.336C 188.9679 174.108 189.0219 173.931 189.0939 173.823C 189.1899 173.691 189.3369 173.589 189.5529 173.517zM190.5519 175.1729C 190.6119 175.0049 190.6689 174.7529 190.7409 174.4169C 190.8129 174.0689 190.8849 173.8589 190.9568 173.7509C 191.0768 173.5829 191.2208 173.5079 191.3888 173.5079C 191.5688 173.5079 191.7188 173.5649 191.8388 173.6969C 191.9708 173.8289 192.0278 173.9879 192.0278 174.1919C 192.0278 174.4079 191.9559 174.6149 191.8119 174.8309C 191.7039 174.9749 191.5659 175.0709 191.3979 175.1189C 191.3019 175.1549 191.0949 175.1729 190.7949 175.1729L190.7949 175.1729L190.5519 175.1729z" stroke="none" fill="#221E1F" fill-rule="evenodd" /><path id="2032" transform="matrix(1 0 0 -1 0 792)" d="M192.793 178.7818L192.7929 177.5488L192.7929 177.5488L188.131 177.549L188.131 177.549L188.1311 178.692L188.1311 178.692L188.7881 178.6919C 188.4761 178.8839 188.2751 179.067 188.1671 179.2229C 188.0711 179.379 188.0231 179.547 188.0231 179.763C 188.0231 180.0389 188.1011 180.3089 188.2571 180.5729L188.2571 180.5729L189.3281 180.1859C 189.1961 179.9699 189.1301 179.7899 189.1301 179.6099C 189.1301 179.4299 189.1781 179.2889 189.2741 179.1689C 189.3701 179.0489 189.5351 178.9499 189.787 178.8899C 190.039 178.8179 190.561 178.7819 191.353 178.7819z" stroke="none" fill="#221E1F" fill-rule="evenodd" /><path id="2033" transform="matrix(1 0 0 -1 0 792)" d="M188.1311 180.5189L188.1312 181.8329L188.1312 181.8329L191.4431 182.9488L191.4431 182.9488L188.1313 184.0379L188.1313 184.0379L188.1313 185.3159L188.1313 185.3159L192.6131 183.6688L192.6131 183.6688L193.4321 183.3717C 193.6961 183.2637 193.9091 183.1617 194.0531 183.0657C 194.1971 182.9577 194.3081 182.8437 194.4041 182.7237C 194.4881 182.5917 194.5631 182.4357 194.6111 182.2557C 194.6591 182.0637 194.683 181.8537 194.683 181.6257C 194.683 181.3857 194.659 181.1517 194.611 180.9237L194.611 180.9237L193.648 180.8158C 193.684 181.0078 193.702 181.1817 193.702 181.3377C 193.7021 181.6257 193.6181 181.8327 193.4501 181.9767C 193.2701 182.1087 193.0631 182.2198 192.8111 182.2918z" stroke="none" fill="#221E1F" fill-rule="evenodd" /><path id="2035" transform="matrix(1 0 0 -1 0 792)" d="M192.7933 188.6187L186.3495 188.6189L186.3495 188.6189L186.3495 191.3639C 186.3496 192.0479 186.4216 192.5459 186.5296 192.8578C 186.6376 193.1698 186.8536 193.4218 187.1416 193.6138C 187.4416 193.7938 187.7746 193.8928 188.1586 193.8928C 188.6386 193.8928 189.0436 193.7488 189.3555 193.4608C 189.6795 193.1727 189.8775 192.7437 189.9495 192.1917C 190.1175 192.4677 190.2975 192.7047 190.4895 192.8847C 190.6935 193.0647 191.0415 193.3107 191.5335 193.6227L191.5335 193.6227L192.7935 194.4146L192.7935 194.4146L192.7935 192.8577L192.7935 192.8577L191.3895 191.9217C 190.8855 191.5737 190.5885 191.3487 190.4444 191.2287C 190.3125 191.1087 190.2345 190.9738 190.1744 190.8418C 190.1384 190.6978 190.1024 190.4728 190.1024 190.1848L190.1024 190.1848L190.1024 189.9238L190.1024 189.9238L192.7934 189.9237zM189.0764 189.9238L189.0765 190.8868C 189.0765 191.4988 189.0555 191.8888 188.9955 192.0568C 188.9475 192.2008 188.8575 192.3208 188.7255 192.4168C 188.6055 192.5008 188.4435 192.5518 188.2395 192.5518C 188.0235 192.5518 187.8615 192.4798 187.7175 192.3718C 187.5855 192.2638 187.5015 192.1018 187.4655 191.8858C 187.4535 191.7778 187.4385 191.4598 187.4385 190.9319L187.4385 190.9319L187.4385 189.9239L187.4385 189.9239L189.0764 189.9238z" stroke="none" fill="#221E1F" fill-rule="evenodd" /><path id="2036" transform="matrix(1 0 0 -1 0 792)" d="M192.7935 195.0986L186.3497 195.0988L186.3497 195.0988L186.3497 197.0428L186.3497 197.0428L190.7417 198.2126L190.7417 198.2126L186.3498 199.3648L186.3498 199.3648L186.3499 201.3178L186.3499 201.3178L192.7937 201.3176L192.7937 201.3176L192.7937 200.1116L192.7937 200.1116L187.7178 200.1117L187.7178 200.1117L192.7937 198.8336L192.7937 198.8336L192.7936 197.5826L192.7936 197.5826L187.7177 196.3048L187.7177 196.3048L192.7936 196.3046z" stroke="none" fill="#221E1F" fill-rule="evenodd" /><path id="2037" transform="matrix(1 0 0 -1 0 792)" d="M190.6968 202.2806L190.5709 203.5496C 191.0029 203.6216 191.3118 203.7686 191.5159 204.0086C 191.7198 204.2366 191.8129 204.5576 191.8129 204.9536C 191.8129 205.3735 191.7229 205.6825 191.5429 205.8985C 191.3629 206.1145 191.1619 206.2225 190.9219 206.2226C 190.7779 206.2226 190.6429 206.1716 190.5349 206.0876C 190.4269 205.9916 190.3279 205.8356 190.2559 205.6196C 190.2079 205.4636 190.1119 205.1156 189.9679 204.5756C 189.7999 203.8796 189.5899 203.3846 189.3379 203.1086C 188.9779 202.7127 188.5459 202.5147 188.0419 202.5147C 187.7179 202.5147 187.4029 202.6017 187.1149 202.7937C 186.8389 202.9737 186.6229 203.2467 186.4669 203.5947C 186.323 203.9427 186.242 204.3597 186.242 204.8637C 186.242 205.6677 186.425 206.2827 186.773 206.6907C 187.1331 207.0987 187.6071 207.3027 188.195 207.3386L188.195 207.3386L188.249 206.0337C 187.925 205.9737 187.682 205.8537 187.538 205.6737C 187.394 205.4937 187.322 205.2147 187.322 204.8547C 187.322 204.4707 187.3999 204.1797 187.5559 203.9637C 187.6519 203.8197 187.7839 203.7567 187.9519 203.7567C 188.1079 203.7567 188.2309 203.8107 188.3389 203.9547C 188.4829 204.1107 188.6269 204.5067 188.771 205.1426C 188.927 205.7786 189.083 206.2466 189.239 206.5466C 189.395 206.8466 189.62 207.0866 189.896 207.2666C 190.172 207.4346 190.514 207.5186 190.922 207.5185C 191.282 207.5185 191.633 207.4165 191.957 207.2125C 192.2809 206.9965 192.5239 206.7115 192.6679 206.3395C 192.8359 205.9675 192.9109 205.4965 192.9109 204.9445C 192.9108 204.1165 192.7278 203.4955 192.3438 203.0635C 191.9718 202.6196 191.4168 202.3646 190.6968 202.2806z" stroke="none" fill="#221E1F" fill-rule="evenodd" /><path id="2039" transform="matrix(1 0 0 -1 0 792)" d="M190.4272 215.2405L190.8233 216.5005C 191.5313 216.2964 192.0532 215.9814 192.3892 215.5374C 192.7372 215.0814 192.9022 214.5114 192.9021 213.8274C 192.9021 212.9634 192.6171 212.2524 192.0291 211.7125C 191.4531 211.1605 190.6461 210.8845 189.6261 210.8846C 188.5582 210.8846 187.7332 211.1576 187.1332 211.7216C 186.5452 212.2616 186.2423 212.9996 186.2423 213.8996C 186.2423 214.6916 186.4763 215.3216 186.9444 215.8256C 187.2204 216.1136 187.6163 216.3386 188.1323 216.4825L188.1323 216.4825L188.4383 215.1955C 188.1023 215.1236 187.8383 214.9586 187.6463 214.7186C 187.4543 214.4666 187.3583 214.1726 187.3583 213.8366C 187.3583 213.3566 187.5232 212.9636 187.8712 212.6756C 188.2192 212.3756 188.7682 212.2256 189.5362 212.2255C 190.3522 212.2255 190.9371 212.3665 191.2731 212.6665C 191.6331 212.9545 191.7952 213.3414 191.7952 213.8094C 191.7952 214.1454 191.6782 214.4484 191.4622 214.7004C 191.2462 214.9525 190.8952 215.1325 190.4272 215.2405z" stroke="none" fill="#221E1F" fill-rule="evenodd" /><path id="2040" transform="matrix(1 0 0 -1 0 792)" d="M192.7944 220.6763L192.0924 220.6764C 192.3444 220.4964 192.5424 220.2744 192.6864 220.0103C 192.8304 219.7224 192.9023 219.4283 192.9023 219.1284C 192.9023 218.8044 192.8273 218.5314 192.6953 218.2914C 192.5633 218.0394 192.3623 217.8504 192.1103 217.7424C 191.8703 217.6344 191.5163 217.5804 191.0843 217.5804L191.0843 217.5804L188.1324 217.5805L188.1324 217.5805L188.1324 218.8135L188.1324 218.8135L190.2744 218.8134C 190.9344 218.8134 191.3363 218.8254 191.4803 218.8854C 191.6243 218.9214 191.7473 219.0084 191.8313 219.1284C 191.9153 219.2364 191.9574 219.4074 191.9574 219.5874C 191.9574 219.8034 191.9064 219.9744 191.7864 220.1544C 191.6784 220.3224 191.5344 220.4244 191.3544 220.4964C 191.1864 220.5564 190.7664 220.5864 190.0944 220.5864L190.0944 220.5864L188.1325 220.5865L188.1325 220.5865L188.1325 221.8195L188.1325 221.8195L192.7944 221.8193z" stroke="none" fill="#221E1F" fill-rule="evenodd" /><path id="2041" transform="matrix(1 0 0 -1 0 792)" d="M192.7945 224.2853L192.7945 223.0523L192.7945 223.0523L188.1326 223.0525L188.1326 223.0525L188.1326 224.1954L188.1326 224.1954L188.7896 224.1954C 188.4776 224.3875 188.2766 224.5704 188.1686 224.7264C 188.0726 224.8824 188.0246 225.0504 188.0246 225.2664C 188.0246 225.5424 188.1027 225.8124 188.2587 226.0764L188.2587 226.0764L189.3296 225.6894C 189.1976 225.4734 189.1316 225.2934 189.1316 225.1134C 189.1316 224.9334 189.1796 224.7924 189.2756 224.6724C 189.3716 224.5524 189.5366 224.4534 189.7886 224.3934C 190.0406 224.3214 190.5625 224.2854 191.3545 224.2853z" stroke="none" fill="#221E1F" fill-rule="evenodd" /><path id="2042" transform="matrix(1 0 0 -1 0 792)" d="M192.7946 227.7863L192.7946 226.5533L192.7946 226.5533L188.1327 226.5534L188.1327 226.5534L188.1327 227.6964L188.1327 227.6964L188.7897 227.6964C 188.4777 227.8884 188.2767 228.0714 188.1687 228.2274C 188.0727 228.3834 188.0247 228.5514 188.0247 228.7674C 188.0248 229.0434 188.1028 229.3134 188.2588 229.5774L188.2588 229.5774L189.3297 229.1904C 189.1977 228.9744 189.1317 228.7944 189.1317 228.6144C 189.1317 228.4344 189.1797 228.2934 189.2757 228.1734C 189.3717 228.0534 189.5367 227.9544 189.7887 227.8943C 190.0407 227.8224 190.5627 227.7863 191.3546 227.7863z" stroke="none" fill="#221E1F" fill-rule="evenodd" /><path id="2043" transform="matrix(1 0 0 -1 0 792)" d="M191.3098 232.8083L191.5168 234.0412C 191.9728 233.8732 192.3148 233.6302 192.5428 233.2942C 192.7948 232.9462 192.9028 232.5112 192.9028 232.0072C 192.9027 231.1912 192.6417 230.5912 192.1017 230.2073C 191.6817 229.8953 191.1477 229.7483 190.4997 229.7483C 189.7318 229.7483 189.1138 229.9434 188.6818 230.3514C 188.2498 230.7474 188.0248 231.2664 188.0249 231.8904C 188.0249 232.5744 188.2529 233.1324 188.7089 233.5283C 189.1769 233.9243 189.8789 234.1163 190.8149 234.1042L190.8149 234.1042L190.8148 231.0083C 191.1868 231.0083 191.4778 231.1103 191.6698 231.3143C 191.8858 231.4942 191.9758 231.7372 191.9758 232.0252C 191.9758 232.2052 191.9308 232.3672 191.8228 232.5112C 191.7148 232.6432 191.5498 232.7362 191.3098 232.8083zM190.0589 232.8803C 189.6989 232.8683 189.4289 232.7813 189.2489 232.6013C 189.0688 232.4213 188.9698 232.2143 188.9698 231.9623C 188.9698 231.6863 189.0748 231.4643 189.2668 231.2963C 189.4588 231.1163 189.7348 231.0233 190.0588 231.0353L190.0588 231.0353L190.0589 232.8803z" stroke="none" fill="#221E1F" fill-rule="evenodd" /><path id="2044" transform="matrix(1 0 0 -1 0 792)" d="M192.795 239.3601L192.795 238.1181L192.795 238.1181L190.41 238.1182C 189.906 238.1182 189.582 238.0822 189.438 238.0463C 189.294 237.9863 189.183 237.8933 189.087 237.7853C 189.015 237.6653 188.97 237.5213 188.97 237.3533C 188.97 237.1373 189.033 236.9453 189.141 236.7773C 189.261 236.5973 189.417 236.4983 189.609 236.4263C 189.813 236.3663 190.164 236.3362 190.6799 236.3362L190.6799 236.3362L192.7949 236.3362L192.7949 236.3362L192.7949 235.1032L192.7949 235.1032L188.133 235.1033L188.133 235.1033L188.133 236.2463L188.133 236.2463L188.817 236.2463C 188.289 236.6543 188.025 237.1613 188.0251 237.7853C 188.0251 238.0493 188.0731 238.3043 188.1691 238.5323C 188.2771 238.7483 188.4031 238.9253 188.5471 239.0453C 188.7031 239.1533 188.8771 239.2403 189.0691 239.2883C 189.2611 239.3242 189.5371 239.3602 189.8971 239.3602z" stroke="none" fill="#221E1F" fill-rule="evenodd" /><path id="2045" transform="matrix(1 0 0 -1 0 792)" d="M188.1332 242.7533L189.1142 242.7532L189.1142 242.7532L189.1142 241.9072L189.1142 241.9072L190.9951 241.9072C 191.3791 241.9071 191.6011 241.9131 191.6611 241.9251C 191.7331 241.9371 191.7781 241.9701 191.8141 242.0421C 191.8621 242.0901 191.8771 242.1651 191.8771 242.2491C 191.8771 242.3571 191.8441 242.5281 191.7601 242.7441L191.7601 242.7441L192.7141 242.8521C 192.8341 242.5641 192.9031 242.2311 192.9031 241.8711C 192.9031 241.6551 192.8581 241.4451 192.7861 241.2771C 192.7141 241.0971 192.6181 240.9531 192.4981 240.8811C 192.3901 240.7851 192.2251 240.7371 192.0211 240.7011C 191.8771 240.6772 191.5801 240.6652 191.1481 240.6652L191.1481 240.6652L189.1141 240.6652L189.1141 240.6652L189.1141 240.0982L189.1141 240.0982L188.1331 240.0983L188.1331 240.0983L188.1331 240.6653L188.1331 240.6653L187.1972 240.6653L187.1972 240.6653L186.4772 241.9073L186.4772 241.9073L188.1332 241.9073z" stroke="none" fill="#221E1F" fill-rule="evenodd" /><path id="2047" transform="matrix(1 0 0 -1 0 792)" d="M190.6983 245.7861L190.5723 247.0551C 191.0043 247.1271 191.3133 247.2741 191.5173 247.5141C 191.7213 247.7421 191.8143 248.063 191.8143 248.4591C 191.8143 248.8791 191.7243 249.188 191.5444 249.4041C 191.3644 249.6201 191.1634 249.7281 190.9234 249.7281C 190.7794 249.7281 190.6444 249.6771 190.5364 249.5931C 190.4284 249.4971 190.3294 249.3411 190.2574 249.1251C 190.2094 248.9691 190.1134 248.6211 189.9694 248.0811C 189.8013 247.3851 189.5913 246.8902 189.3393 246.6142C 188.9793 246.2182 188.5473 246.0202 188.0433 246.0202C 187.7193 246.0202 187.4043 246.1072 187.1164 246.2993C 186.8404 246.4792 186.6244 246.7523 186.4684 247.1003C 186.3244 247.4483 186.2434 247.8653 186.2435 248.3692C 186.2435 249.1732 186.4265 249.7882 186.7745 250.1962C 187.1345 250.6042 187.6085 250.8082 188.1965 250.8441L188.1965 250.8441L188.2504 249.5392C 187.9265 249.4792 187.6834 249.3592 187.5394 249.1792C 187.3954 248.9992 187.3234 248.7202 187.3234 248.3602C 187.3234 247.9762 187.4014 247.6852 187.5574 247.4692C 187.6534 247.3252 187.7854 247.2622 187.9534 247.2622C 188.1094 247.2622 188.2324 247.3162 188.3404 247.4602C 188.4844 247.6162 188.6284 248.0122 188.7724 248.6482C 188.9284 249.2841 189.0844 249.7521 189.2404 250.0521C 189.3964 250.3521 189.6214 250.5921 189.8974 250.7721C 190.1734 250.9401 190.5154 251.0241 190.9234 251.0241C 191.2834 251.024 191.6344 250.922 191.9584 250.718C 192.2824 250.502 192.5254 250.217 192.6694 249.845C 192.8373 249.473 192.9123 249.002 192.9123 248.45C 192.9123 247.622 192.7293 247.001 192.3452 246.5691C 191.9733 246.1251 191.4182 245.8701 190.6983 245.7861z" stroke="none" fill="#221E1F" fill-rule="evenodd" /><path id="2048" transform="matrix(1 0 0 -1 0 792)" d="M194.5685 255.1639L192.2195 255.164C 192.4355 254.996 192.6035 254.789 192.7235 254.561C 192.8315 254.309 192.9035 254.054 192.9035 253.778C 192.9035 253.238 192.7085 252.809 192.3004 252.473C 191.8445 252.065 191.2025 251.861 190.4105 251.8611C 189.6665 251.8611 189.0755 252.0531 188.6555 252.4371C 188.2355 252.8091 188.0256 253.2741 188.0256 253.8501C 188.0256 254.1501 188.0916 254.4231 188.2236 254.6511C 188.3556 254.8791 188.5536 255.0741 188.8176 255.2541L188.8176 255.2541L188.1336 255.2541L188.1336 255.2541L188.1337 256.3971L188.1337 256.3971L194.5685 256.3969zM190.4016 255.2C 189.9336 255.2 189.5796 255.0951 189.3396 254.9031C 189.1116 254.7111 188.9886 254.4621 188.9886 254.1741C 188.9886 253.8741 189.1086 253.6191 189.3485 253.4271C 189.5885 253.2231 189.9695 253.1211 190.4735 253.121C 190.9895 253.121 191.3615 253.214 191.5895 253.418C 191.8175 253.598 191.9225 253.841 191.9225 254.129C 191.9225 254.417 191.7965 254.66 191.5445 254.876C 191.2926 255.092 190.9056 255.2 190.4016 255.2z" stroke="none" fill="#221E1F" fill-rule="evenodd" /><path id="2049" transform="matrix(1 0 0 -1 0 792)" d="M192.7957 260.6809L192.0937 260.6809C 192.3457 260.5009 192.5437 260.2789 192.6877 260.0149C 192.8317 259.7269 192.9037 259.4329 192.9037 259.1329C 192.9036 258.8089 192.8286 258.5359 192.6966 258.2959C 192.5646 258.0439 192.3636 257.8549 192.1116 257.7469C 191.8716 257.6389 191.5176 257.585 191.0856 257.585L191.0856 257.585L188.1337 257.5851L188.1337 257.5851L188.1338 258.8181L188.1338 258.8181L190.2757 258.818C 190.9357 258.818 191.3377 258.83 191.4817 258.89C 191.6257 258.926 191.7487 259.0129 191.8327 259.1329C 191.9167 259.2409 191.9587 259.4119 191.9587 259.5919C 191.9587 259.8079 191.9077 259.9789 191.7877 260.1589C 191.6797 260.3269 191.5357 260.429 191.3557 260.5009C 191.1877 260.5609 190.7678 260.5909 190.0958 260.591L190.0958 260.591L188.1338 260.591L188.1338 260.591L188.1339 261.824L188.1339 261.824L192.7957 261.8239z" stroke="none" fill="#221E1F" fill-rule="evenodd" /><path id="2050" transform="matrix(1 0 0 -1 0 792)" d="M189.5559 264.029L189.3489 262.913C 188.9049 263.033 188.5659 263.249 188.3499 263.561C 188.1339 263.861 188.0259 264.317 188.026 264.929C 188.026 265.481 188.092 265.886 188.224 266.162C 188.356 266.426 188.515 266.621 188.719 266.7289C 188.923 266.8369 189.286 266.9 189.826 266.8999L189.826 266.8999L191.266 266.8819C 191.674 266.8818 191.9859 266.8969 192.1659 266.9448C 192.3699 266.9808 192.5799 267.0528 192.7959 267.1608L192.7959 267.1608L192.7959 265.9458C 192.7239 265.9099 192.5919 265.8648 192.4359 265.8289C 192.3639 265.7928 192.3189 265.7839 192.2829 265.7839C 192.4989 265.5679 192.6429 265.3369 192.7509 265.1088C 192.8468 264.8568 192.9038 264.5988 192.9038 264.3348C 192.9038 263.8549 192.7718 263.4648 192.5078 263.2009C 192.2558 262.9129 191.9258 262.7869 191.5178 262.7869C 191.2658 262.7869 191.0318 262.8439 190.8158 262.9759C 190.6118 263.0959 190.4588 263.2669 190.3389 263.507C 190.2309 263.723 190.1349 264.0559 190.0509 264.4879C 189.9429 265.0639 189.8499 265.4569 189.754 265.6849L189.754 265.6849L189.6279 265.6849C 189.3999 265.6849 189.2319 265.613 189.124 265.5049C 189.016 265.3849 188.9709 265.172 188.9709 264.848C 188.9709 264.62 189.0249 264.443 189.0969 264.335C 189.1929 264.203 189.3399 264.101 189.5559 264.029zM190.5549 265.6849C 190.6149 265.5169 190.6719 265.2649 190.7439 264.9289C 190.8159 264.5809 190.8879 264.3709 190.9599 264.2629C 191.0799 264.0949 191.2239 264.0199 191.3919 264.0199C 191.5719 264.0199 191.7218 264.0769 191.8419 264.2089C 191.9738 264.3409 192.0309 264.4999 192.0309 264.7039C 192.0309 264.9199 191.9589 265.1269 191.8149 265.3429C 191.7069 265.4869 191.5689 265.5829 191.4009 265.6309C 191.3049 265.6669 191.0979 265.6849 190.7979 265.6849L190.7979 265.6849L190.5549 265.6849z" stroke="none" fill="#221E1F" fill-rule="evenodd" /><path id="2051" transform="matrix(1 0 0 -1 0 792)" d="M192.796 269.2938L192.796 268.0608L192.796 268.0608L188.1341 268.061L188.1341 268.061L188.1341 269.2039L188.1341 269.2039L188.7911 269.2039C 188.4791 269.3959 188.2781 269.5789 188.1701 269.7349C 188.0741 269.8909 188.0261 270.059 188.0261 270.2749C 188.0262 270.5509 188.1042 270.8209 188.2602 271.0849L188.2602 271.0849L189.3311 270.6979C 189.1991 270.4819 189.1331 270.3019 189.1331 270.1219C 189.1331 269.9419 189.1811 269.8009 189.2771 269.6809C 189.3731 269.5609 189.5381 269.4619 189.7901 269.4019C 190.0421 269.3299 190.5641 269.2939 191.356 269.2938z" stroke="none" fill="#221E1F" fill-rule="evenodd" /><path id="2052" transform="matrix(1 0 0 -1 0 792)" d="M191.3112 274.3158L191.5182 275.5488C 191.9742 275.3807 192.3162 275.1378 192.5442 274.8018C 192.7962 274.4537 192.9042 274.0187 192.9041 273.5147C 192.9041 272.6988 192.6431 272.0988 192.1031 271.7148C 191.6831 271.4028 191.1491 271.2558 190.5011 271.2559C 189.7331 271.2559 189.1152 271.4509 188.6832 271.8589C 188.2512 272.2549 188.0262 272.7739 188.0262 273.3979C 188.0263 274.0819 188.2543 274.6399 188.7103 275.0359C 189.1783 275.4319 189.8803 275.6238 190.8163 275.6118L190.8163 275.6118L190.8161 272.5158C 191.1881 272.5158 191.4791 272.6178 191.6711 272.8218C 191.8871 273.0018 191.9771 273.2448 191.9772 273.5328C 191.9772 273.7128 191.9322 273.8748 191.8242 274.0188C 191.7162 274.1508 191.5512 274.2438 191.3112 274.3158zM190.0602 274.3878C 189.7002 274.3759 189.4302 274.2888 189.2502 274.1089C 189.0702 273.9289 188.9712 273.7219 188.9712 273.4698C 188.9712 273.1939 189.0762 272.9719 189.2682 272.8039C 189.4602 272.6238 189.7362 272.5309 190.0602 272.5428L190.0602 272.5428L190.0602 274.3878z" stroke="none" fill="#221E1F" fill-rule="evenodd" /><path id="2053" transform="matrix(1 0 0 -1 0 792)" d="M192.7964 280.8947L192.7963 279.7517L192.7963 279.7517L192.1124 279.7517C 192.3884 279.5597 192.5863 279.3287 192.7063 279.0767C 192.8263 278.8127 192.9043 278.5457 192.9043 278.2937C 192.9043 277.7537 192.6883 277.2887 192.2563 276.9167C 191.8243 276.5208 191.2273 276.3408 190.4473 276.3408C 189.6553 276.3408 189.0583 276.5269 188.6384 276.8989C 188.2424 277.2589 188.0264 277.7358 188.0264 278.3119C 188.0264 278.8279 188.2424 279.2778 188.6744 279.6618L188.6744 279.6618L186.3525 279.6619L186.3525 279.6619L186.3525 280.8949zM190.3663 277.6008C 190.8703 277.6008 191.2303 277.6638 191.4463 277.8077C 191.7703 277.9997 191.9233 278.2847 191.9233 278.6447C 191.9233 278.9207 191.8154 279.1577 191.5634 279.3737C 191.3234 279.5657 190.9634 279.6707 190.4834 279.6708C 189.9434 279.6708 189.5624 279.5658 189.3224 279.3738C 189.0944 279.1818 188.9714 278.9358 188.9714 278.6358C 188.9714 278.3358 189.0944 278.0898 189.3224 277.8978C 189.5504 277.6938 189.8983 277.6008 190.3663 277.6008z" stroke="none" fill="#221E1F" fill-rule="evenodd" /><path id="2054" transform="matrix(1 0 0 -1 0 792)" d="M194.3265 286.6276L194.3265 285.7816C 193.6425 285.3256 192.9405 284.9836 192.2205 284.7556C 191.5005 284.5157 190.7896 284.4047 190.1056 284.4047C 189.2656 284.4048 188.4586 284.5458 187.7026 284.8458C 187.0547 285.0858 186.4487 285.4038 185.8847 285.7998L185.8847 285.7998L185.8847 286.6458C 186.7847 286.2378 187.5287 285.9618 188.1526 285.8178C 188.7766 285.6617 189.4366 285.5927 190.1326 285.5927C 190.6126 285.5927 191.1046 285.6227 191.6086 285.7187C 192.1126 285.8026 192.5836 285.9316 193.0396 286.0876C 193.3396 286.1956 193.7625 286.3756 194.3265 286.6276z" stroke="none" fill="#221E1F" fill-rule="evenodd" /><path id="2055" transform="matrix(1 0 0 -1 0 792)" d="M192.4368 293.3955L192.4368 291.9825L192.4368 291.9825L190.9698 291.4156L190.9698 291.4156L190.9697 288.8416L190.9697 288.8416L192.4366 288.3106L192.4366 288.3106L192.4366 286.9336L192.4366 286.9336L185.9928 289.4448L185.9928 289.4448L185.9929 290.8218zM189.8898 291.0016L187.4958 290.1198L187.4958 290.1198L189.8897 289.2467L189.8897 289.2467L189.8898 291.0016z" stroke="none" fill="#221E1F" fill-rule="evenodd" /><path id="2056" transform="matrix(1 0 0 -1 0 792)" d="M194.3269 297.6344C 193.7989 297.8745 193.4059 298.0395 193.1299 298.1475C 192.8419 298.2435 192.527 298.3305 192.167 298.4265C 191.807 298.4985 191.468 298.5705 191.132 298.6065C 190.808 298.6425 190.481 298.6696 190.133 298.6696C 189.437 298.6696 188.7771 298.5886 188.1531 298.4446C 187.5291 298.3007 186.7851 298.0217 185.8851 297.6257L185.8851 297.6257L185.8851 298.4627C 186.5211 298.8947 187.1841 299.2366 187.8921 299.4886C 188.6001 299.7406 189.3141 299.8576 190.0341 299.8575C 190.6581 299.8575 191.309 299.7495 192.005 299.5695C 192.785 299.3535 193.571 298.9844 194.3269 298.4804z" stroke="none" fill="#221E1F" fill-rule="evenodd" /><path id="2057" transform="matrix(1 0 0 -1 0 792)" d="M186.8613 296.6981L187.7573 296.6981L187.7573 296.6981L187.7572 293.3312C 187.4212 293.3592 187.1062 293.4735 186.7982 293.6602C 186.4996 293.8375 186.0983 294.1969 185.5943 294.7382C 185.2023 295.1675 184.9247 295.4335 184.7754 295.5362C 184.5794 295.6669 184.3834 295.7322 184.1874 295.7322C 183.9821 295.7322 183.8094 295.6762 183.6974 295.5642C 183.5854 295.4429 183.5224 295.2773 183.5224 295.0813C 183.5224 294.8853 183.5924 294.7173 183.7044 294.6053C 183.8257 294.4839 184.0264 294.4116 184.3063 294.4023L184.3063 294.4023L184.2083 293.4433C 183.6857 293.4993 183.31 293.6743 183.0674 293.9823C 182.8434 294.281 182.7244 294.6519 182.7244 295.1093C 182.7244 295.6039 182.8621 295.9912 183.1234 296.2712C 183.3941 296.5512 183.7254 296.6982 184.1174 296.6982C 184.3507 296.6982 184.5654 296.6562 184.7614 296.5722C 184.976 296.4882 185.1814 296.3622 185.4053 296.1942C 185.5547 296.0728 185.7717 295.8628 186.0423 295.5642C 186.3223 295.2562 186.5113 295.0648 186.5953 294.9902C 186.698 294.9062 186.7773 294.8338 186.8613 294.7872z" stroke="none" fill="#221E1F" fill-rule="evenodd" /><path id="2058" transform="matrix(1 0 0 -1 0 792)" d="M443.4237 137.2636L443.2978 138.5326C 443.7298 138.6045 444.0388 138.7515 444.2428 138.9915C 444.4468 139.2195 444.5398 139.5405 444.5398 139.9365C 444.5398 140.3565 444.4498 140.6655 444.2698 140.8815C 444.0899 141.0975 443.8889 141.2055 443.6489 141.2055C 443.5049 141.2055 443.3699 141.1545 443.2619 141.0705C 443.1539 140.9745 443.0549 140.8185 442.9829 140.6025C 442.9349 140.4465 442.8389 140.0986 442.6949 139.5586C 442.5268 138.8626 442.3168 138.3676 442.0648 138.0916C 441.7048 137.6956 441.2728 137.4976 440.7688 137.4977C 440.4448 137.4977 440.1298 137.5847 439.8419 137.7767C 439.5659 137.9567 439.3499 138.2297 439.1939 138.5777C 439.0499 138.9257 438.9689 139.3427 438.9689 139.8467C 438.969 140.6507 439.152 141.2657 439.5 141.6736C 439.86 142.0816 440.334 142.2856 440.922 142.3216L440.922 142.3216L440.9759 141.0166C 440.6519 140.9566 440.4089 140.8366 440.2649 140.6566C 440.1209 140.4766 440.0489 140.1976 440.0489 139.8376C 440.0489 139.4537 440.1269 139.1627 440.2829 138.9467C 440.3789 138.8026 440.5109 138.7396 440.6789 138.7396C 440.8349 138.7396 440.9579 138.7936 441.0659 138.9376C 441.2099 139.0936 441.3539 139.4896 441.4979 140.1256C 441.6539 140.7616 441.8099 141.2296 441.9659 141.5296C 442.1219 141.8296 442.3469 142.0695 442.6229 142.2495C 442.8989 142.4175 443.2409 142.5015 443.6489 142.5015C 444.0089 142.5015 444.3599 142.3995 444.6839 142.1955C 445.0079 141.9795 445.2509 141.6945 445.3948 141.3224C 445.5628 140.9505 445.6378 140.4795 445.6378 139.9275C 445.6378 139.0995 445.4547 138.4785 445.0707 138.0465C 444.6987 137.6025 444.1437 137.3475 443.4237 137.2636z" stroke="none" fill="#221E1F" fill-rule="evenodd" /><path id="2059" transform="matrix(1 0 0 -1 0 792)" d="M444.036 146.2905L444.2431 147.5234C 444.6991 147.3554 445.041 147.1124 445.269 146.7764C 445.521 146.4284 445.629 145.9934 445.629 145.4894C 445.6289 144.6734 445.3679 144.0734 444.8279 143.6895C 444.4079 143.3775 443.8739 143.2305 443.226 143.2305C 442.458 143.2305 441.84 143.4256 441.408 143.8336C 440.976 144.2296 440.7511 144.7486 440.7511 145.3726C 440.7511 146.0565 440.9791 146.6145 441.4351 147.0105C 441.9031 147.4065 442.6051 147.5985 443.5411 147.5864L443.5411 147.5864L443.541 144.4905C 443.913 144.4905 444.204 144.5925 444.396 144.7964C 444.612 144.9764 444.702 145.2194 444.702 145.5074C 444.702 145.6874 444.657 145.8494 444.549 145.9934C 444.441 146.1254 444.276 146.2184 444.036 146.2905zM442.7851 146.3625C 442.4251 146.3505 442.1551 146.2635 441.9751 146.0835C 441.7951 145.9035 441.6961 145.6965 441.696 145.4445C 441.696 145.1685 441.801 144.9465 441.993 144.7785C 442.185 144.5985 442.461 144.5055 442.785 144.5175L442.785 144.5175L442.7851 146.3625z" stroke="none" fill="#221E1F" fill-rule="evenodd" /><path id="2060" transform="matrix(1 0 0 -1 0 792)" d="M442.2363 152.6624L442.4522 151.4474C 442.2122 151.3994 442.0352 151.3125 441.9033 151.1685C 441.7832 151.0245 441.7232 150.8295 441.7232 150.6015C 441.7232 150.2895 441.8342 150.0435 442.0382 149.8635C 442.2542 149.6835 442.6052 149.5935 443.1092 149.5934C 443.6612 149.5934 444.0511 149.6804 444.2791 149.8724C 444.5071 150.0524 444.6212 150.2954 444.6212 150.6194C 444.6212 150.8474 444.5552 151.0394 444.4232 151.1954C 444.2912 151.3394 444.0542 151.4384 443.7302 151.5104L443.7302 151.5104L443.9373 152.7254C 444.5012 152.5934 444.9212 152.3564 445.1972 151.9963C 445.4852 151.6363 445.6292 151.1563 445.6292 150.5564C 445.6291 149.8723 445.4131 149.3234 444.9811 148.9274C 444.5491 148.5194 443.9581 148.3244 443.1901 148.3244C 442.4341 148.3245 441.8222 148.5195 441.3902 148.9275C 440.9702 149.3355 440.7512 149.8875 440.7513 150.5835C 440.7513 151.1475 440.8713 151.5945 441.1113 151.9425C 441.3633 152.2665 441.7323 152.5184 442.2363 152.6624z" stroke="none" fill="#221E1F" fill-rule="evenodd" /><path id="2061" transform="matrix(1 0 0 -1 0 792)" d="M443.1183 153.3104C 442.7223 153.3104 442.3263 153.4004 441.9303 153.6164C 441.5464 153.8084 441.2614 154.0995 441.0574 154.4715C 440.8534 154.8315 440.7514 155.2455 440.7514 155.7134C 440.7514 156.4214 440.9795 156.9944 441.4355 157.4504C 441.9035 157.8944 442.4885 158.1254 443.1725 158.1253C 443.8924 158.1253 444.4714 157.8973 444.9274 157.4413C 445.3954 156.9853 445.6293 156.4063 445.6293 155.7223C 445.6293 155.2903 445.5333 154.8823 445.3413 154.4983C 445.1493 154.1023 444.8583 153.8083 444.4863 153.6163C 444.1263 153.4004 443.6583 153.3104 443.1183 153.3104zM443.1903 154.5794C 443.6583 154.5794 444.0123 154.6873 444.2523 154.9033C 444.5043 155.1193 444.6213 155.3983 444.6213 155.7223C 444.6213 156.0463 444.5044 156.3163 444.2524 156.5323C 444.0124 156.7483 443.6494 156.8563 443.1814 156.8564C 442.7254 156.8564 442.3714 156.7484 442.1194 156.5324C 441.8794 156.3164 441.7594 156.0464 441.7594 155.7224C 441.7594 155.3984 441.8794 155.1194 442.1194 154.9034C 442.3713 154.6874 442.7224 154.5794 443.1903 154.5794z" stroke="none" fill="#221E1F" fill-rule="evenodd" /><path id="2062" transform="matrix(1 0 0 -1 0 792)" d="M445.5216 163.3452L445.5215 162.1032L445.5215 162.1032L443.1366 162.1033C 442.6326 162.1033 442.3086 162.0673 442.1646 162.0313C 442.0206 161.9713 441.9096 161.8783 441.8136 161.7704C 441.7416 161.6503 441.6966 161.5063 441.6966 161.3384C 441.6966 161.1224 441.7596 160.9304 441.8676 160.7624C 441.9875 160.5824 442.1436 160.4834 442.3355 160.4113C 442.5396 160.3513 442.8905 160.3213 443.4065 160.3213L443.4065 160.3213L445.5215 160.3212L445.5215 160.3212L445.5214 159.0883L445.5214 159.0883L440.8595 159.0884L440.8595 159.0884L440.8596 160.2314L440.8596 160.2314L441.5435 160.2314C 441.0156 160.6394 440.7516 161.1464 440.7516 161.7704C 440.7516 162.0344 440.7997 162.2894 440.8957 162.5174C 441.0037 162.7334 441.1297 162.9104 441.2737 163.0303C 441.4297 163.1384 441.6037 163.2253 441.7957 163.2733C 441.9876 163.3093 442.2636 163.3453 442.6236 163.3453z" stroke="none" fill="#221E1F" fill-rule="evenodd" /><path id="2063" transform="matrix(1 0 0 -1 0 792)" d="M445.5218 168.8711L445.5217 167.7281L445.5217 167.7281L444.8377 167.7282C 445.1137 167.5362 445.3117 167.3052 445.4317 167.0532C 445.5517 166.7892 445.6297 166.5222 445.6297 166.2702C 445.6296 165.7302 445.4136 165.2652 444.9816 164.8932C 444.5496 164.4972 443.9526 164.3172 443.1727 164.3173C 442.3807 164.3173 441.7837 164.5033 441.3637 164.8753C 440.9677 165.2353 440.7518 165.7123 440.7518 166.2883C 440.7518 166.8043 440.9678 167.2543 441.3998 167.6383L441.3998 167.6383L439.0779 167.6384L439.0779 167.6384L439.0779 168.8714zM443.0917 165.5773C 443.5957 165.5772 443.9557 165.6402 444.1717 165.7842C 444.4957 165.9762 444.6487 166.2612 444.6487 166.6212C 444.6487 166.8972 444.5407 167.1342 444.2887 167.3502C 444.0487 167.5422 443.6888 167.6472 443.2088 167.6472C 442.6688 167.6472 442.2878 167.5423 442.0478 167.3503C 441.8198 167.1583 441.6968 166.9123 441.6968 166.6123C 441.6967 166.3123 441.8197 166.0663 442.0477 165.8743C 442.2757 165.6703 442.6237 165.5773 443.0917 165.5773z" stroke="none" fill="#221E1F" fill-rule="evenodd" /><path id="2064" transform="matrix(1 0 0 -1 0 792)" d="M442.2819 171.0132L442.0749 169.8972C 441.6309 170.0173 441.2919 170.2333 441.0759 170.5453C 440.8599 170.8453 440.752 171.3013 440.752 171.9133C 440.752 172.4653 440.818 172.8703 440.95 173.1462C 441.082 173.4102 441.241 173.6052 441.445 173.7132C 441.649 173.8212 442.012 173.8842 442.552 173.8842L442.552 173.8842L443.9919 173.8661C 444.3999 173.8661 444.7119 173.8811 444.8919 173.9291C 445.0959 173.9651 445.3059 174.0371 445.5219 174.1451L445.5219 174.1451L445.5219 172.9301C 445.4499 172.8941 445.3179 172.8491 445.1619 172.8131C 445.0899 172.7771 445.0449 172.7681 445.0089 172.7681C 445.2249 172.5521 445.3689 172.3211 445.4769 172.0931C 445.5728 171.8411 445.6299 171.5831 445.6298 171.3191C 445.6298 170.8391 445.4978 170.4491 445.2338 170.1851C 444.9818 169.8972 444.6518 169.7712 444.2438 169.7712C 443.9918 169.7712 443.7578 169.8282 443.5418 169.9602C 443.3378 170.0802 443.1848 170.2512 443.0648 170.4912C 442.9569 170.7072 442.8609 171.0402 442.7769 171.4722C 442.6689 172.0482 442.5759 172.4412 442.4799 172.6692L442.4799 172.6692L442.3539 172.6692C 442.1259 172.6692 441.9579 172.5972 441.8499 172.4892C 441.7419 172.3692 441.697 172.1562 441.6969 171.8322C 441.6969 171.6042 441.7509 171.4272 441.8229 171.3192C 441.9189 171.1872 442.0659 171.0852 442.2819 171.0132zM443.2809 172.6692C 443.3409 172.5012 443.3979 172.2492 443.4699 171.9132C 443.5419 171.5652 443.6139 171.3552 443.6859 171.2472C 443.8059 171.0792 443.9499 171.0042 444.1179 171.0042C 444.2979 171.0042 444.4478 171.0612 444.5678 171.1931C 444.6999 171.3251 444.7569 171.4841 444.7569 171.6881C 444.7569 171.9041 444.6849 172.1111 444.5409 172.3271C 444.4329 172.4711 444.2949 172.5671 444.1269 172.6151C 444.0309 172.6512 443.8239 172.6692 443.5239 172.6692L443.5239 172.6692L443.2809 172.6692z" stroke="none" fill="#221E1F" fill-rule="evenodd" /><path id="2065" transform="matrix(1 0 0 -1 0 792)" d="M445.522 176.2781L445.522 175.0451L445.522 175.0451L440.8601 175.0452L440.8601 175.0452L440.8601 176.1882L440.8601 176.1882L441.5171 176.1882C 441.2051 176.3802 441.0041 176.5632 440.8961 176.7192C 440.8001 176.8752 440.7521 177.0432 440.7521 177.2592C 440.7521 177.5352 440.8302 177.8052 440.9862 178.0692L440.9862 178.0692L442.0571 177.6822C 441.9251 177.4662 441.8591 177.2862 441.8591 177.1062C 441.8591 176.9262 441.9071 176.7852 442.0031 176.6652C 442.0991 176.5452 442.2641 176.4462 442.5161 176.3862C 442.7681 176.3141 443.29 176.2781 444.082 176.2781z" stroke="none" fill="#221E1F" fill-rule="evenodd" /><path id="2066" transform="matrix(1 0 0 -1 0 792)" d="M440.8602 178.0152L440.8602 179.3292L440.8602 179.3292L444.1722 180.4451L444.1722 180.4451L440.8603 181.5341L440.8603 181.5341L440.8603 182.8121L440.8603 182.8121L445.3422 181.165L445.3422 181.165L446.1611 180.868C 446.4251 180.76 446.6381 180.658 446.7821 180.562C 446.9261 180.454 447.0371 180.34 447.1331 180.22C 447.2171 180.088 447.2921 179.932 447.3401 179.752C 447.3881 179.56 447.412 179.35 447.412 179.122C 447.412 178.882 447.388 178.648 447.34 178.42L447.34 178.42L446.377 178.312C 446.4131 178.504 446.4311 178.678 446.4311 178.834C 446.4311 179.122 446.3471 179.329 446.1791 179.473C 445.9991 179.605 445.7921 179.716 445.5401 179.788z" stroke="none" fill="#221E1F" fill-rule="evenodd" /><path id="2068" transform="matrix(1 0 0 -1 0 792)" d="M445.5223 186.1149L439.0785 186.1152L439.0785 186.1152L439.0786 188.8601C 439.0786 189.5441 439.1506 190.0421 439.2586 190.3541C 439.3666 190.6661 439.5826 190.9181 439.8706 191.1101C 440.1706 191.2901 440.5036 191.3891 440.8876 191.389C 441.3676 191.389 441.7726 191.245 442.0846 190.957C 442.4085 190.669 442.6065 190.24 442.6785 189.688C 442.8465 189.964 443.0265 190.201 443.2185 190.381C 443.4225 190.561 443.7705 190.8069 444.2625 191.1189L444.2625 191.1189L445.5225 191.9109L445.5225 191.9109L445.5225 190.3539L445.5225 190.3539L444.1185 189.418C 443.6145 189.07 443.3175 188.845 443.1735 188.725C 443.0415 188.605 442.9635 188.47 442.9035 188.338C 442.8675 188.194 442.8315 187.969 442.8315 187.681L442.8315 187.681L442.8314 187.42L442.8314 187.42L445.5224 187.4199zM441.8055 187.4201L441.8055 188.383C 441.8055 188.995 441.7845 189.385 441.7245 189.553C 441.6765 189.697 441.5865 189.817 441.4546 189.913C 441.3346 189.997 441.1725 190.048 440.9686 190.0481C 440.7526 190.0481 440.5906 189.9761 440.4466 189.8681C 440.3146 189.7601 440.2306 189.5981 440.1945 189.3821C 440.1826 189.2741 440.1675 188.9561 440.1675 188.4281L440.1675 188.4281L440.1675 187.4201L440.1675 187.4201L441.8055 187.4201z" stroke="none" fill="#221E1F" fill-rule="evenodd" /><path id="2069" transform="matrix(1 0 0 -1 0 792)" d="M445.5226 192.5949L439.0787 192.5951L439.0787 192.5951L439.0788 194.5391L439.0788 194.5391L443.4707 195.7089L443.4707 195.7089L439.0788 196.8611L439.0788 196.8611L439.0789 198.814L439.0789 198.814L445.5228 198.8138L445.5228 198.8138L445.5227 197.6078L445.5227 197.6078L440.4468 197.608L440.4468 197.608L445.5227 196.3298L445.5227 196.3298L445.5226 195.0789L445.5226 195.0789L440.4467 193.801L440.4467 193.801L445.5226 193.8009z" stroke="none" fill="#221E1F" fill-rule="evenodd" /><path id="2070" transform="matrix(1 0 0 -1 0 792)" d="M443.4258 199.7769L443.2999 201.0459C 443.7319 201.1178 444.0409 201.2648 444.2449 201.5048C 444.4489 201.7328 444.5419 202.0538 444.5419 202.4498C 444.5419 202.8698 444.4519 203.1788 444.2719 203.3948C 444.0919 203.6108 443.891 203.7188 443.651 203.7188C 443.507 203.7188 443.3719 203.6678 443.264 203.5838C 443.156 203.4878 443.0569 203.3318 442.985 203.1158C 442.937 202.9598 442.8409 202.6119 442.6969 202.0719C 442.5289 201.3759 442.3189 200.8809 442.0669 200.6049C 441.7069 200.2089 441.2749 200.0109 440.7709 200.011C 440.4469 200.011 440.1319 200.098 439.8439 200.29C 439.5679 200.47 439.352 200.743 439.196 201.091C 439.052 201.439 438.971 201.856 438.971 202.36C 438.971 203.164 439.1541 203.779 439.5021 204.187C 439.8621 204.5949 440.3361 204.7989 440.924 204.8349L440.924 204.8349L440.978 203.5299C 440.654 203.4699 440.411 203.3499 440.267 203.1699C 440.123 202.99 440.051 202.711 440.051 202.351C 440.051 201.9669 440.129 201.676 440.285 201.46C 440.381 201.3159 440.5129 201.253 440.6809 201.2529C 440.8369 201.2529 440.9599 201.3069 441.0679 201.4509C 441.2119 201.6069 441.356 202.0029 441.5 202.6389C 441.656 203.2749 441.812 203.7429 441.968 204.0429C 442.124 204.3429 442.349 204.5829 442.625 204.7628C 442.901 204.9308 443.243 205.0148 443.651 205.0148C 444.011 205.0148 444.362 204.9128 444.686 204.7088C 445.0099 204.4928 445.2529 204.2078 445.3969 203.8358C 445.5649 203.4638 445.6399 202.9928 445.6399 202.4408C 445.6398 201.6128 445.4568 200.9918 445.0728 200.5598C 444.7008 200.1158 444.1458 199.8608 443.4258 199.7769z" stroke="none" fill="#221E1F" fill-rule="evenodd" /><path id="2072" transform="matrix(1 0 0 -1 0 792)" d="M443.1563 212.7367L443.5523 213.9967C 444.2603 213.7927 444.7823 213.4777 445.1182 213.0337C 445.4662 212.5777 445.6312 212.0077 445.6312 211.3237C 445.6311 210.4597 445.3461 209.7487 444.7581 209.2087C 444.1821 208.6567 443.3751 208.3808 442.3551 208.3808C 441.2872 208.3808 440.4622 208.6539 439.8622 209.2179C 439.2743 209.7579 438.9713 210.4959 438.9713 211.3959C 438.9713 212.1879 439.2054 212.8179 439.6734 213.3218C 439.9494 213.6098 440.3454 213.8348 440.8614 213.9788L440.8614 213.9788L441.1673 212.6918C 440.8313 212.6198 440.5673 212.4548 440.3753 212.2148C 440.1833 211.9628 440.0873 211.6689 440.0873 211.3329C 440.0873 210.8529 440.2523 210.4599 440.6003 210.1718C 440.9482 209.8718 441.4972 209.7218 442.2652 209.7218C 443.0812 209.7218 443.6662 209.8627 444.0022 210.1627C 444.3622 210.4507 444.5242 210.8377 444.5242 211.3057C 444.5242 211.6417 444.4072 211.9447 444.1912 212.1967C 443.9753 212.4487 443.6243 212.6287 443.1563 212.7367z" stroke="none" fill="#221E1F" fill-rule="evenodd" /><path id="2073" transform="matrix(1 0 0 -1 0 792)" d="M445.5234 218.1726L444.8214 218.1726C 445.0734 217.9926 445.2714 217.7706 445.4154 217.5066C 445.5594 217.2186 445.6313 216.9246 445.6313 216.6246C 445.6313 216.3006 445.5563 216.0276 445.4243 215.7876C 445.2923 215.5356 445.0913 215.3466 444.8393 215.2386C 444.5993 215.1306 444.2453 215.0767 443.8133 215.0767L443.8133 215.0767L440.8614 215.0768L440.8614 215.0768L440.8615 216.3098L440.8615 216.3098L443.0034 216.3097C 443.6634 216.3097 444.0654 216.3217 444.2094 216.3817C 444.3534 216.4177 444.4764 216.5047 444.5604 216.6246C 444.6444 216.7326 444.6864 216.9036 444.6864 217.0836C 444.6864 217.2996 444.6354 217.4706 444.5154 217.6506C 444.4074 217.8186 444.2634 217.9207 444.0834 217.9926C 443.9154 218.0526 443.4955 218.0827 442.8235 218.0827L442.8235 218.0827L440.8615 218.0827L440.8615 218.0827L440.8615 219.3157L440.8615 219.3157L445.5234 219.3156z" stroke="none" fill="#221E1F" fill-rule="evenodd" /><path id="2074" transform="matrix(1 0 0 -1 0 792)" d="M445.5235 221.7816L445.5235 220.5486L445.5235 220.5486L440.8616 220.5487L440.8616 220.5487L440.8616 221.6917L440.8616 221.6917L441.5186 221.6917C 441.2066 221.8837 441.0056 222.0667 440.8976 222.2227C 440.8016 222.3787 440.7537 222.5467 440.7537 222.7627C 440.7537 223.0387 440.8317 223.3087 440.9877 223.5727L440.9877 223.5727L442.0587 223.1857C 441.9266 222.9697 441.8606 222.7897 441.8606 222.6097C 441.8606 222.4297 441.9086 222.2887 442.0046 222.1687C 442.1006 222.0487 442.2656 221.9496 442.5176 221.8896C 442.7696 221.8176 443.2916 221.7816 444.0836 221.7816z" stroke="none" fill="#221E1F" fill-rule="evenodd" /><path id="2075" transform="matrix(1 0 0 -1 0 792)" d="M445.5236 225.2825L445.5236 224.0495L445.5236 224.0495L440.8617 224.0497L440.8617 224.0497L440.8617 225.1927L440.8617 225.1927L441.5187 225.1926C 441.2067 225.3847 441.0057 225.5677 440.8978 225.7237C 440.8018 225.8797 440.7538 226.0477 440.7538 226.2637C 440.7538 226.5397 440.8318 226.8096 440.9878 227.0737L440.9878 227.0737L442.0587 226.6866C 441.9268 226.4706 441.8607 226.2906 441.8607 226.1106C 441.8607 225.9306 441.9087 225.7896 442.0047 225.6696C 442.1007 225.5496 442.2657 225.4506 442.5177 225.3906C 442.7697 225.3186 443.2917 225.2826 444.0837 225.2826z" stroke="none" fill="#221E1F" fill-rule="evenodd" /><path id="2076" transform="matrix(1 0 0 -1 0 792)" d="M444.0388 230.3045L444.2459 231.5375C 444.7018 231.3695 445.0439 231.1265 445.2718 230.7905C 445.5238 230.4424 445.6318 230.0075 445.6318 229.5035C 445.6317 228.6875 445.3707 228.0875 444.8307 227.7035C 444.4107 227.3915 443.8767 227.2445 443.2288 227.2446C 442.4608 227.2446 441.8428 227.4396 441.4108 227.8476C 440.9788 228.2436 440.7538 228.7626 440.7539 229.3866C 440.7539 230.0706 440.9819 230.6286 441.4379 231.0246C 441.9059 231.4206 442.6079 231.6125 443.5439 231.6005L443.5439 231.6005L443.5438 228.5045C 443.9158 228.5045 444.2068 228.6065 444.3988 228.8105C 444.6148 228.9905 444.7048 229.2335 444.7048 229.5215C 444.7048 229.7015 444.6598 229.8635 444.5518 230.0075C 444.4438 230.1395 444.2788 230.2325 444.0388 230.3045zM442.7879 230.3766C 442.4279 230.3646 442.1579 230.2776 441.9779 230.0976C 441.7979 229.9176 441.6989 229.7106 441.6989 229.4586C 441.6989 229.1826 441.8038 228.9606 441.9958 228.7926C 442.1878 228.6126 442.4638 228.5196 442.7878 228.5316L442.7878 228.5316L442.7879 230.3766z" stroke="none" fill="#221E1F" fill-rule="evenodd" /><path id="2077" transform="matrix(1 0 0 -1 0 792)" d="M445.524 236.8564L445.524 235.6144L445.524 235.6144L443.139 235.6145C 442.635 235.6145 442.311 235.5785 442.1671 235.5425C 442.023 235.4825 441.912 235.3895 441.816 235.2815C 441.744 235.1615 441.699 235.0175 441.699 234.8495C 441.699 234.6335 441.762 234.4415 441.87 234.2735C 441.99 234.0935 442.146 233.9945 442.338 233.9225C 442.542 233.8625 442.893 233.8325 443.409 233.8325L443.409 233.8325L445.5239 233.8324L445.5239 233.8324L445.5239 232.5994L445.5239 232.5994L440.862 232.5996L440.862 232.5996L440.862 233.7426L440.862 233.7426L441.546 233.7426C 441.018 234.1506 440.7541 234.6576 440.7541 235.2816C 440.7541 235.5456 440.8021 235.8006 440.8981 236.0285C 441.0061 236.2445 441.1321 236.4215 441.2761 236.5415C 441.4321 236.6495 441.6061 236.7365 441.7981 236.7845C 441.9901 236.8205 442.2661 236.8565 442.6261 236.8565z" stroke="none" fill="#221E1F" fill-rule="evenodd" /><path id="2078" transform="matrix(1 0 0 -1 0 792)" d="M440.8622 240.2495L441.8432 240.2495L441.8432 240.2495L441.8432 239.4035L441.8432 239.4035L443.7242 239.4034C 444.1081 239.4034 444.3301 239.4094 444.3901 239.4214C 444.4621 239.4334 444.5071 239.4664 444.5431 239.5384C 444.5911 239.5864 444.6061 239.6614 444.6061 239.7454C 444.6061 239.8534 444.5732 240.0244 444.4892 240.2404L444.4892 240.2404L445.4431 240.3483C 445.5631 240.0603 445.6321 239.7274 445.6321 239.3674C 445.6321 239.1514 445.5871 238.9414 445.5151 238.7734C 445.4431 238.5934 445.3471 238.4494 445.2271 238.3774C 445.1191 238.2814 444.9541 238.2334 444.7501 238.1974C 444.6061 238.1734 444.3091 238.1614 443.8771 238.1614L443.8771 238.1614L441.8431 238.1615L441.8431 238.1615L441.8431 237.5945L441.8431 237.5945L440.8622 237.5945L440.8622 237.5945L440.8622 238.1615L440.8622 238.1615L439.9262 238.1616L439.9262 238.1616L439.2062 239.4036L439.2062 239.4036L440.8622 239.4035z" stroke="none" fill="#221E1F" fill-rule="evenodd" /><path id="2080" transform="matrix(1 0 0 -1 0 792)" d="M443.4273 243.2824L443.3013 244.5514C 443.7333 244.6234 444.0423 244.7703 444.2463 245.0103C 444.4503 245.2383 444.5433 245.5593 444.5433 245.9553C 444.5434 246.3753 444.4534 246.6843 444.2734 246.9003C 444.0934 247.1163 443.8924 247.2243 443.6524 247.2243C 443.5084 247.2243 443.3734 247.1733 443.2654 247.0893C 443.1574 246.9933 443.0584 246.8374 442.9864 246.6214C 442.9384 246.4654 442.8424 246.1174 442.6984 245.5774C 442.5304 244.8814 442.3203 244.3864 442.0683 244.1104C 441.7083 243.7144 441.2763 243.5164 440.7723 243.5165C 440.4484 243.5165 440.1334 243.6035 439.8454 243.7955C 439.5694 243.9755 439.3534 244.2485 439.1974 244.5965C 439.0534 244.9445 438.9724 245.3615 438.9725 245.8655C 438.9725 246.6695 439.1555 247.2845 439.5035 247.6925C 439.8635 248.1004 440.3375 248.3044 440.9255 248.3404L440.9255 248.3404L440.9795 247.0354C 440.6555 246.9754 440.4125 246.8554 440.2685 246.6754C 440.1245 246.4955 440.0525 246.2165 440.0524 245.8565C 440.0524 245.4725 440.1304 245.1815 440.2864 244.9655C 440.3824 244.8215 440.5144 244.7585 440.6824 244.7585C 440.8384 244.7585 440.9614 244.8125 441.0694 244.9565C 441.2134 245.1124 441.3574 245.5084 441.5014 246.1444C 441.6574 246.7804 441.8134 247.2484 441.9695 247.5484C 442.1255 247.8484 442.3505 248.0884 442.6265 248.2684C 442.9025 248.4363 443.2444 248.5203 443.6525 248.5203C 444.0125 248.5203 444.3634 248.4183 444.6874 248.2143C 445.0114 247.9983 445.2544 247.7133 445.3984 247.3413C 445.5663 246.9693 445.6413 246.4983 445.6413 245.9463C 445.6413 245.1183 445.4583 244.4973 445.0743 244.0653C 444.7023 243.6213 444.1473 243.3664 443.4273 243.2824z" stroke="none" fill="#221E1F" fill-rule="evenodd" /><path id="2081" transform="matrix(1 0 0 -1 0 792)" d="M447.2975 252.6602L444.9485 252.6602C 445.1646 252.4922 445.3326 252.2852 445.4525 252.0572C 445.5605 251.8052 445.6325 251.5502 445.6325 251.2742C 445.6325 250.7342 445.4375 250.3052 445.0295 249.9693C 444.5735 249.5613 443.9315 249.3573 443.1395 249.3573C 442.3955 249.3573 441.8045 249.5494 441.3846 249.9334C 440.9646 250.3054 440.7546 250.7704 440.7546 251.3464C 440.7546 251.6464 440.8206 251.9194 440.9526 252.1474C 441.0846 252.3754 441.2827 252.5703 441.5466 252.7503L441.5466 252.7503L440.8626 252.7504L440.8626 252.7504L440.8627 253.8933L440.8627 253.8933L447.2975 253.8931zM443.1306 252.6963C 442.6626 252.6963 442.3086 252.5913 442.0686 252.3993C 441.8406 252.2073 441.7176 251.9583 441.7176 251.6703C 441.7176 251.3704 441.8376 251.1153 442.0776 250.9233C 442.3176 250.7193 442.6985 250.6173 443.2025 250.6173C 443.7185 250.6173 444.0905 250.7103 444.3185 250.9143C 444.5465 251.0943 444.6515 251.3372 444.6515 251.6252C 444.6516 251.9132 444.5255 252.1563 444.2736 252.3723C 444.0216 252.5883 443.6346 252.6963 443.1306 252.6963z" stroke="none" fill="#221E1F" fill-rule="evenodd" /><path id="2082" transform="matrix(1 0 0 -1 0 792)" d="M445.5247 258.1772L444.8228 258.1772C 445.0747 257.9972 445.2727 257.7751 445.4167 257.5112C 445.5607 257.2231 445.6327 256.9292 445.6327 256.6292C 445.6327 256.3052 445.5576 256.0322 445.4257 255.7922C 445.2936 255.5402 445.0927 255.3512 444.8406 255.2432C 444.6006 255.1352 444.2466 255.0812 443.8147 255.0812L443.8147 255.0812L440.8627 255.0813L440.8627 255.0813L440.8628 256.3143L440.8628 256.3143L443.0047 256.3143C 443.6647 256.3142 444.0667 256.3262 444.2107 256.3862C 444.3547 256.4222 444.4777 256.5092 444.5617 256.6292C 444.6457 256.7372 444.6877 256.9082 444.6877 257.0882C 444.6877 257.3042 444.6367 257.4752 444.5167 257.6552C 444.4088 257.8232 444.2647 257.9252 444.0847 257.9972C 443.9168 258.0572 443.4968 258.0872 442.8248 258.0872L442.8248 258.0872L440.8628 258.0873L440.8628 258.0873L440.8629 259.3203L440.8629 259.3203L445.5248 259.3201z" stroke="none" fill="#221E1F" fill-rule="evenodd" /><path id="2083" transform="matrix(1 0 0 -1 0 792)" d="M442.2849 261.5252L442.0779 260.4092C 441.6339 260.5292 441.2949 260.7453 441.0789 261.0573C 440.8629 261.3573 440.755 261.8133 440.755 262.4253C 440.755 262.9772 440.821 263.3823 440.953 263.6582C 441.085 263.9222 441.244 264.1172 441.448 264.2252C 441.652 264.3332 442.015 264.3962 442.555 264.3962L442.555 264.3962L443.995 264.3781C 444.403 264.3781 444.715 264.3931 444.895 264.4411C 445.0989 264.4771 445.309 264.5491 445.525 264.6571L445.525 264.6571L445.5249 263.4421C 445.4529 263.4061 445.3209 263.3611 445.1649 263.3251C 445.0929 263.2891 445.0479 263.2801 445.0119 263.2801C 445.2279 263.0641 445.3719 262.8331 445.4799 262.6051C 445.5759 262.3531 445.6329 262.0951 445.6328 261.8311C 445.6328 261.3511 445.5008 260.9611 445.2368 260.6971C 444.9848 260.4091 444.6548 260.2831 444.2468 260.2832C 443.9948 260.2832 443.7608 260.3402 443.5449 260.4722C 443.3409 260.5922 443.1879 260.7632 443.0679 261.0032C 442.9599 261.2192 442.8639 261.5522 442.7799 261.9842C 442.6719 262.5602 442.5789 262.9532 442.483 263.1812L442.483 263.1812L442.357 263.1812C 442.129 263.1812 441.961 263.1092 441.853 263.0012C 441.745 262.8812 441.7 262.6682 441.7 262.3442C 441.7 262.1162 441.7539 261.9392 441.8259 261.8312C 441.9219 261.6992 442.0689 261.5972 442.2849 261.5252zM443.2839 263.1812C 443.3439 263.0132 443.4009 262.7612 443.4729 262.4252C 443.5449 262.0772 443.6169 261.8672 443.6889 261.7592C 443.8089 261.5912 443.9529 261.5162 444.1209 261.5162C 444.3009 261.5161 444.4509 261.5732 444.5709 261.7051C 444.7029 261.8371 444.7599 261.9961 444.7599 262.2001C 444.7599 262.4161 444.6879 262.6231 444.5439 262.8391C 444.4359 262.9832 444.2979 263.0791 444.1299 263.1271C 444.0339 263.1631 443.8269 263.1812 443.5269 263.1812L443.5269 263.1812L443.2839 263.1812z" stroke="none" fill="#221E1F" fill-rule="evenodd" /><path id="2084" transform="matrix(1 0 0 -1 0 792)" d="M445.525 266.79L445.525 265.5571L445.525 265.5571L440.8631 265.5572L440.8631 265.5572L440.8631 266.7002L440.8631 266.7002L441.5201 266.7002C 441.2081 266.8922 441.0071 267.0752 440.8991 267.2312C 440.8031 267.3872 440.7552 267.5552 440.7552 267.7712C 440.7552 268.0472 440.8332 268.3172 440.9892 268.5812L440.9892 268.5812L442.0602 268.1942C 441.9281 267.9781 441.8621 267.7982 441.8621 267.6182C 441.8621 267.4382 441.9101 267.2972 442.0061 267.1772C 442.1021 267.0572 442.2671 266.9582 442.5191 266.8982C 442.7711 266.8261 443.2931 266.7901 444.0851 266.7901z" stroke="none" fill="#221E1F" fill-rule="evenodd" /><path id="2085" transform="matrix(1 0 0 -1 0 792)" d="M444.0402 271.812L444.2473 273.045C 444.7032 272.877 445.0452 272.634 445.2732 272.298C 445.5252 271.95 445.6332 271.515 445.6331 271.011C 445.6331 270.195 445.3721 269.595 444.8321 269.2111C 444.4121 268.899 443.8781 268.7521 443.2301 268.7521C 442.4622 268.7521 441.8442 268.9471 441.4122 269.3552C 440.9802 269.7512 440.7552 270.2702 440.7552 270.8942C 440.7553 271.5782 440.9833 272.1362 441.4393 272.5321C 441.9073 272.9281 442.6093 273.1201 443.5453 273.108L443.5453 273.108L443.5452 270.0121C 443.9172 270.0121 444.2082 270.1141 444.4002 270.3181C 444.6161 270.498 444.7062 270.741 444.7062 271.0291C 444.7062 271.209 444.6612 271.371 444.5532 271.515C 444.4452 271.647 444.2802 271.7401 444.0402 271.812zM442.7892 271.8841C 442.4293 271.8721 442.1593 271.7851 441.9792 271.6051C 441.7993 271.4251 441.7003 271.2181 441.7003 270.9661C 441.7002 270.6901 441.8052 270.4681 441.9972 270.3001C 442.1892 270.1201 442.4652 270.0271 442.7892 270.0391L442.7892 270.0391L442.7892 271.8841z" stroke="none" fill="#221E1F" fill-rule="evenodd" /><path id="2086" transform="matrix(1 0 0 -1 0 792)" d="M445.5254 278.3909L445.5254 277.2479L445.5254 277.2479L444.8414 277.248C 445.1174 277.056 445.3154 276.825 445.4353 276.5729C 445.5553 276.309 445.6333 276.042 445.6333 275.79C 445.6333 275.2499 445.4173 274.785 444.9853 274.413C 444.5533 274.017 443.9563 273.837 443.1763 273.837C 442.3843 273.8371 441.7874 274.0231 441.3674 274.3951C 440.9714 274.7551 440.7554 275.2321 440.7554 275.8081C 440.7554 276.3241 440.9715 276.7741 441.4034 277.1581L441.4034 277.1581L439.0815 277.1581L439.0815 277.1581L439.0815 278.3911zM443.0953 275.097C 443.5993 275.097 443.9593 275.16 444.1753 275.304C 444.4993 275.496 444.6523 275.781 444.6523 276.141C 444.6524 276.417 444.5444 276.654 444.2924 276.87C 444.0524 277.062 443.6924 277.167 443.2124 277.167C 442.6724 277.1671 442.2914 277.062 442.0514 276.8701C 441.8234 276.6781 441.7004 276.4321 441.7004 276.1321C 441.7004 275.8321 441.8234 275.5861 442.0514 275.3941C 442.2794 275.1901 442.6273 275.097 443.0953 275.097z" stroke="none" fill="#221E1F" fill-rule="evenodd" /><path id="2087" transform="matrix(1 0 0 -1 0 792)" d="M447.0556 284.1238L447.0555 283.2778C 446.3716 282.8219 445.6696 282.4799 444.9496 282.2519C 444.2296 282.0119 443.5186 281.901 442.8346 281.901C 441.9946 281.901 441.1876 282.0421 440.4317 282.3421C 439.7837 282.5821 439.1777 282.9001 438.6137 283.2961L438.6137 283.2961L438.6138 284.1421C 439.5137 283.7341 440.2577 283.4581 440.8817 283.3141C 441.5057 283.158 442.1656 283.089 442.8616 283.089C 443.3416 283.089 443.8336 283.119 444.3376 283.2149C 444.8416 283.2989 445.3126 283.4279 445.7686 283.5839C 446.0686 283.6919 446.4916 283.8719 447.0556 284.1238z" stroke="none" fill="#221E1F" fill-rule="evenodd" /><path id="2088" transform="matrix(1 0 0 -1 0 792)" d="M445.1658 290.8918L445.1658 289.4788L445.1658 289.4788L443.6988 288.9119L443.6988 288.9119L443.6987 286.3379L443.6987 286.3379L445.1657 285.8069L445.1657 285.8069L445.1656 284.4299L445.1656 284.4299L438.7219 286.9411L438.7219 286.9411L438.7219 288.3181zM442.6188 288.4979L440.2249 287.616L440.2249 287.616L442.6188 286.743L442.6188 286.743L442.6188 288.4979z" stroke="none" fill="#221E1F" fill-rule="evenodd" /><path id="2089" transform="matrix(1 0 0 -1 0 792)" d="M447.0559 295.1307C 446.528 295.3707 446.135 295.5357 445.859 295.6437C 445.571 295.7397 445.256 295.8268 444.896 295.9228C 444.536 295.9948 444.1971 296.0668 443.8611 296.1028C 443.5371 296.1388 443.2101 296.1658 442.8621 296.1658C 442.1661 296.1659 441.5061 296.0849 440.8821 295.9409C 440.2581 295.7969 439.5141 295.5179 438.6141 295.122L438.6141 295.122L438.6142 295.959C 439.2502 296.391 439.9132 296.7329 440.6212 296.9849C 441.3292 297.2369 442.0432 297.3539 442.7631 297.3538C 443.3871 297.3538 444.0381 297.2458 444.7341 297.0658C 445.514 296.8497 446.3 296.4807 447.056 295.9767z" stroke="none" fill="#221E1F" fill-rule="evenodd" /><path id="2090" transform="matrix(1 0 0 -1 0 792)" d="M439.5903 294.1888L440.4863 294.1888L440.4863 294.1888L440.4862 290.8219C 440.1502 290.8499 439.8352 290.9643 439.5273 291.1509C 439.2286 291.3282 438.8273 291.6876 438.3233 292.2289C 437.9313 292.6583 437.6537 292.9243 437.5044 293.0269C 437.3084 293.1576 437.1124 293.2229 436.9164 293.2229C 436.7111 293.2229 436.5384 293.167 436.4264 293.055C 436.3144 292.9336 436.2514 292.768 436.2514 292.572C 436.2514 292.376 436.3214 292.208 436.4333 292.096C 436.5547 291.9746 436.7553 291.9023 437.0353 291.893L437.0353 291.893L436.9373 290.934C 436.4147 290.99 436.039 291.165 435.7964 291.473C 435.5724 291.7717 435.4534 292.1427 435.4534 292.6C 435.4534 293.0947 435.5911 293.482 435.8524 293.762C 436.1231 294.0419 436.4544 294.1889 436.8464 294.1889C 437.0797 294.1889 437.2944 294.1469 437.4904 294.0629C 437.705 293.9789 437.9104 293.8529 438.1344 293.6849C 438.2837 293.5636 438.5007 293.3535 438.7713 293.0549C 439.0513 292.7469 439.2403 292.5556 439.3243 292.4809C 439.4269 292.3969 439.5063 292.3246 439.5903 292.2779z" stroke="none" fill="#221E1F" fill-rule="evenodd" /><g clip-path="url(#5)"><path id="2091" transform="matrix(1 0 0 -1 0 792)" d="M257.7617 317.0718L257.7617 118.9298M296.8437 317.0708L296.8437 118.9288M335.9257 317.0698L335.9257 118.9288M375.0077 317.0698L375.0077 118.9278M218.6797 135.4418C 283.8167 135.4558 348.9537 135.4688 414.0897 135.4818M218.6797 151.9538C 283.8167 151.9658 348.9527 151.9778 414.0897 151.9898M218.6797 168.4658C 283.8167 168.4768 348.9537 168.4868 414.0897 168.4978M218.6797 184.9768C 283.8167 184.9868 348.9537 184.9958 414.0897 185.0058M218.6797 201.4888C 283.8167 201.4978 348.9537 201.5058 414.0897 201.5148M218.6787 218.0218L414.0897 218.0218M218.6797 234.5128C 283.8157 234.5188 348.9527 234.5248 414.0887 234.5308M218.6797 251.0248C 283.8157 251.0298 348.9527 251.0348 414.0887 251.0398M218.6797 267.5368C 283.8157 267.5398 348.9527 267.5438 414.0887 267.5478M218.6797 284.0478C 283.8157 284.0508 348.9527 284.0528 414.0887 284.0558M218.6797 300.5598C 283.8157 300.5608 348.9527 300.5628 414.0887 300.5638" stroke="#949699" stroke-width="0.5" fill="none" /></g><path id="2092" transform="matrix(1 0 0 -1 0 792)" d="M218.679 317.0721L414.089 317.0721L414.089 317.0721L414.089 118.9301L414.089 118.9301L218.679 118.9301z" stroke="#221E1F" stroke-width="1" fill="none" /><path id="2093" transform="matrix(1 0 0 -1 0 792)" d="M298.0674 282.3747L370.3694 282.3747L370.3694 282.3747L370.3694 260.8387L370.3694 260.8387L367.8724 253.4747L367.8724 253.4747L339.8584 253.4747L339.8584 253.4747L339.8584 263.5737L339.8584 263.5737L298.0674 263.5737z" stroke="none" fill="#FFFFFF" fill-rule="evenodd" /><path id="2094" transform="matrix(1 0 0 -1 0 792)" d="M298.0674 282.3747L370.3694 282.3747L370.3694 282.3747L370.3694 260.8387L370.3694 260.8387L367.8724 253.4747L367.8724 253.4747L339.8584 253.4747L339.8584 253.4747L339.8584 263.5737L339.8584 263.5737L298.0674 263.5737L298.0674 263.5737L298.0674 282.3747z" stroke="#FFFFFF" stroke-width="1" fill="none" /><g clip-path="url(#6)"><path id="2126" transform="matrix(1 0 0 -1 0 792)" d="M241.0595 151.5292C 252.2985 136.4392 272.5995 129.2482 318.7755 127.6072C 345.7355 127.7572 372.6955 127.6422 399.6565 129.4782" stroke="#EE1C23" stroke-width="2" stroke-linecap="round" fill="none" /><path id="2127" transform="matrix(1 0 0 -1 0 792)" d="M241.0595 137.875C 308.2025 142.067 348.2045 166.507 362.2755 217.772C 370.8715 250.789 376.7545 283.805 381.6575 316.823" stroke="#0060AF" stroke-width="2" stroke-linecap="round" stroke-dasharray="6.0005,2" fill="none" /></g><path id="2128" transform="matrix(1 0 0 -1 0 792)" d="M289.3616 182.6666L289.3616 118.6806" stroke="#EE1C23" stroke-width="1" stroke-dasharray="5,3" fill="none" /><path id="2129" transform="matrix(1 0 0 -1 0 792)" d="M307.238 150.363L412.169 150.363L412.169 150.363L412.169 130.403L412.169 130.403L307.238 130.403z" stroke="none" fill="#FFFFFF" fill-rule="evenodd" /><path id="2130" transform="matrix(1 0 0 -1 0 792)" d="M249.565 230.768L328.652 230.768L328.652 230.768L328.652 198.044L328.652 198.044L249.565 198.044z" stroke="none" fill="#FFFFFF" fill-rule="evenodd" /><path id="2199" transform="matrix(1 0 0 -1 0 792)" d="M289.1082 187.9201L289.1082 197.1661" stroke="#221E1F" stroke-width="1" fill="none" /><path id="2200" transform="matrix(1 0 0 -1 0 792)" d="M286.4734 188.3354L289.1084 183.5454L289.1084 183.5454L291.7434 188.3354z" stroke="none" fill="#221E1F" fill-rule="evenodd" /></g></g></svg>