<svg xmlns="http://www.w3.org/2000/svg" xmlns:xlink="http://www.w3.org/1999/xlink" id="body_31" preserveAspectRatio="xMinYMin meet" viewBox="0 0 816 1056"><defs><clipPath id="1"><path id="" clip-rule="evenodd" transform="matrix(1 0 0 1 0 0)" d="M0 792L0 0L0 0L612 0L612 0L612 792L612 792L0 792z" /></clipPath><clipPath id="2"><path id="" clip-rule="evenodd" transform="matrix(1 0 0 1 0 0)" d="M46 735L588.394 735L588.394 735L588.394 38.70001L588.394 38.70001L46 38.70001z" /></clipPath><clipPath id="3"><path id="" clip-rule="evenodd" transform="matrix(1 0 0 1 0 0)" d="M89.5 388.034L178.5 388.034L178.5 388.034L178.5 357.034L178.5 357.034L89.5 357.034z" /></clipPath><clipPath id="4"><path id="" clip-rule="evenodd" transform="matrix(1 0 0 1 0 0)" d="M47.42 670.357L301.421 670.357L301.421 670.357L301.421 446.357L301.421 446.357L47.42 446.357z" /></clipPath><clipPath id="5"><path id="" clip-rule="evenodd" transform="matrix(1 0 0 1 0 0)" d="M47.42 670.357L301.421 670.357L301.421 670.357L301.421 446.357L301.421 446.357L47.42 446.357z" /></clipPath><clipPath id="6"><path id="" clip-rule="evenodd" transform="matrix(1 0 0 1 0 0)" d="M314.42 670.357L567.42 670.357L567.42 670.357L567.42 446.357L567.42 446.357L314.42 446.357z" /></clipPath></defs><g transform="matrix(1.333333 0 0 1.333333 0 0)"><g clip-path="url(#1)"><path id="1" transform="matrix(1 0 0 -1 0 792)" d="M54 39.5055L558 39.5055" stroke="#221E1F" stroke-width="0.5" fill="none" /><path id="30" transform="matrix(1 0 0 -1 0 792)" d="M46 57L588.394 57L588.394 753.3L46 753.3z" stroke="none" fill="#FFFFFF" fill-rule="nonzero" /><g clip-path="url(#2)"></g><path id="885" transform="matrix(1 0 0 -1 0 792)" d="M142.8438 418.9653L173.0318 418.9653" stroke="#060606" stroke-width="0.594" stroke-linecap="square" fill="none" /><g clip-path="url(#3)"></g><path id="988" transform="matrix(1 0 0 -1 0 792)" d="M60.69702 206.3847L54.62659 206.3849L54.62659 206.3849L54.62664 207.6161L54.62664 207.6161L59.66253 207.616L59.66253 207.616L59.66264 210.6854L59.66264 210.6854L60.69717 210.6853z" stroke="none" fill="#221E1F" fill-rule="evenodd" /><path id="989" transform="matrix(1 0 0 -1 0 792)" d="M55.66131 211.5661L54.57547 211.5662L54.57547 211.5662L54.57552 212.7375L54.57552 212.7375L55.66135 212.7375zM60.6972 211.566L56.26836 211.5661L56.26836 211.5661L56.26839 212.7375L56.26839 212.7375L60.69724 212.7373L60.69724 212.7373L60.6972 211.566z" stroke="none" fill="#221E1F" fill-rule="evenodd" /><path id="990" transform="matrix(1 0 0 -1 0 792)" d="M60.69743 217.9784L60.69739 216.7985L60.69739 216.7985L58.43166 216.7986C 57.95287 216.7986 57.64507 216.7644 57.50827 216.7302C 57.37147 216.6732 57.26602 216.5849 57.17482 216.4823C 57.10641 216.3683 57.06366 216.2315 57.06366 216.0719C 57.06365 215.8667 57.12349 215.6843 57.22608 215.5247C 57.34008 215.3537 57.48827 215.2596 57.67067 215.1912C 57.86446 215.1342 58.19791 215.1057 58.6881 215.1057L58.6881 215.1057L60.69733 215.1056L60.69733 215.1056L60.69728 213.9343L60.69728 213.9343L56.26844 213.9344L56.26844 213.9344L56.26848 215.0203L56.26848 215.0203L56.91827 215.0203C 56.41669 215.4079 56.16591 215.8895 56.16593 216.4823C 56.16594 216.7331 56.21155 216.9754 56.30275 217.192C 56.40536 217.3972 56.52506 217.5653 56.66187 217.6793C 56.81007 217.7819 56.97537 217.8645 57.15777 217.9101C 57.34017 217.9443 57.60236 217.9785 57.94436 217.9785z" stroke="none" fill="#221E1F" fill-rule="evenodd" /><path id="991" transform="matrix(1 0 0 -1 0 792)" d="M59.28683 221.7319L59.48352 222.9032C 59.91671 222.7436 60.24159 222.5127 60.45818 222.1935C 60.69756 221.8629 60.80015 221.4497 60.80013 220.9709C 60.80011 220.1957 60.55214 219.6257 60.03913 219.2609C 59.64013 218.9645 59.13283 218.8249 58.51723 218.8249C 57.78764 218.825 57.20055 219.0102 56.79017 219.3978C 56.37979 219.774 56.16606 220.2671 56.16608 220.8599C 56.16611 221.5097 56.38272 222.0397 56.81593 222.4159C 57.26054 222.7921 57.92744 222.9745 58.81662 222.9631L58.81662 222.9631L58.81652 220.0219C 59.16992 220.0219 59.44637 220.1188 59.62877 220.3126C 59.83398 220.4836 59.91948 220.7144 59.91949 220.988C 59.9195 221.159 59.87675 221.3129 59.77416 221.4497C 59.67157 221.5751 59.51482 221.6635 59.28683 221.7319zM58.09839 221.8003C 57.7564 221.7889 57.4999 221.7063 57.32889 221.5353C 57.15789 221.3643 57.06383 221.1676 57.06382 220.9282C 57.06382 220.666 57.16356 220.4551 57.34595 220.2955C 57.52834 220.1245 57.79053 220.0362 58.09833 220.0476L58.09833 220.0476L58.09839 221.8003z" stroke="none" fill="#221E1F" fill-rule="evenodd" /><path id="993" transform="matrix(1 0 0 -1 0 792)" d="M60.69772 226.306L54.57599 226.3062L54.57599 226.3062L54.57608 228.9139C 54.57611 229.5637 54.64452 230.0368 54.74713 230.3332C 54.84974 230.6296 55.05495 230.869 55.32855 231.0514C 55.61355 231.2224 55.9299 231.3164 56.2947 231.3164C 56.75069 231.3164 57.13543 231.1796 57.43182 230.906C 57.73961 230.6324 57.92769 230.2248 57.99607 229.7004C 58.15568 229.9626 58.32668 230.1877 58.50909 230.3587C 58.70289 230.5297 59.0335 230.7634 59.5009 231.0598L59.5009 231.0598L60.69791 231.8121L60.69791 231.8121L60.69786 230.333L60.69786 230.333L59.36405 229.4439C 58.88524 229.1133 58.60308 228.8996 58.46629 228.7856C 58.34088 228.6716 58.26678 228.5433 58.20977 228.4179C 58.17557 228.2811 58.14136 228.0674 58.14135 227.7938L58.14135 227.7938L58.14134 227.5458L58.14134 227.5458L60.69777 227.5457zM57.16666 227.5459L57.16669 228.4607C 57.16671 229.0421 57.14677 229.4126 57.08978 229.5722C 57.04418 229.709 56.95869 229.823 56.83329 229.9142C 56.7193 229.994 56.5654 230.0424 56.3716 230.0425C 56.1664 230.0425 56.0125 229.9741 55.8757 229.8715C 55.7503 229.7689 55.67049 229.615 55.63629 229.4098C 55.62489 229.3072 55.61063 229.0051 55.61061 228.5035L55.61061 228.5035L55.61057 227.5459L55.61057 227.5459L57.16666 227.5459z" stroke="none" fill="#221E1F" fill-rule="evenodd" /><path id="994" transform="matrix(1 0 0 -1 0 792)" d="M59.28729 235.0355L59.48398 236.2068C 59.91717 236.0472 60.24206 235.8164 60.45864 235.4972C 60.69803 235.1665 60.80062 234.7533 60.8006 234.2745C 60.80057 233.4993 60.5526 232.9293 60.0396 232.5646C 59.64059 232.2682 59.13329 232.1285 58.5177 232.1286C 57.78811 232.1286 57.20102 232.3139 56.79064 232.7015C 56.38026 233.0777 56.16653 233.5707 56.16655 234.1635C 56.16657 234.8133 56.38319 235.3434 56.81639 235.7196C 57.26101 236.0958 57.9279 236.2781 58.81709 236.2667L58.81709 236.2667L58.81699 233.3255C 59.17038 233.3255 59.44683 233.4224 59.62924 233.6162C 59.83444 233.7872 59.91995 234.018 59.91996 234.2916C 59.91997 234.4626 59.87722 234.6165 59.77463 234.7533C 59.67204 234.8787 59.51529 234.9671 59.28729 235.0355zM58.09886 235.1039C 57.75686 235.0926 57.50036 235.0099 57.32936 234.8389C 57.15836 234.6679 57.0643 234.4713 57.06429 234.2319C 57.06428 233.9697 57.16402 233.7588 57.34642 233.5992C 57.52881 233.4282 57.791 233.3398 58.0988 233.3512L58.0988 233.3512L58.09886 235.1039z" stroke="none" fill="#221E1F" fill-rule="evenodd" /><path id="995" transform="matrix(1 0 0 -1 0 792)" d="M55.66221 237.1988L54.57637 237.1988L54.57637 237.1988L54.57642 238.3701L54.57642 238.3701L55.66225 238.3701zM56.26929 238.3701L60.56134 238.3699C 61.11994 238.3699 61.51893 238.3271 61.75833 238.2587C 61.98632 238.1789 62.16872 238.0364 62.30551 237.8312C 62.4309 237.626 62.49359 237.3467 62.49358 237.0275C 62.49357 236.9135 62.47932 236.7881 62.46791 236.6513C 62.43371 236.5145 62.40805 236.3749 62.37385 236.2153L62.37385 236.2153L61.37352 236.4205C 61.37352 236.4775 61.38777 236.5402 61.39917 236.5744C 61.39917 236.62 61.40773 236.6656 61.40773 236.7112C 61.40773 236.8252 61.37638 236.9307 61.33079 237.0105C 61.27379 237.0789 61.21109 237.133 61.1427 237.1558C 61.0743 237.1786 60.8463 237.1986 60.4929 237.1986L60.4929 237.1986L56.26926 237.1987L56.26926 237.1987L56.26929 238.3701z" stroke="none" fill="#221E1F" fill-rule="evenodd" /><path id="996" transform="matrix(1 0 0 -1 0 792)" d="M59.28754 242.1661L59.48423 243.3374C 59.91742 243.1778 60.24231 242.947 60.4589 242.6278C 60.69828 242.2972 60.80087 241.8839 60.80085 241.4051C 60.80082 240.6299 60.55286 240.06 60.03985 239.6952C 59.64084 239.3988 59.13354 239.2592 58.51795 239.2592C 57.78836 239.2592 57.20127 239.4445 56.79089 239.8321C 56.38051 240.2083 56.16678 240.7014 56.1668 241.2941C 56.16682 241.9439 56.38344 242.474 56.81665 242.8502C 57.26125 243.2264 57.92815 243.4088 58.81734 243.3973L58.81734 243.3973L58.81724 240.4562C 59.17064 240.4561 59.44709 240.553 59.62949 240.7468C 59.83469 240.9178 59.9202 241.1487 59.92021 241.4223C 59.92022 241.5933 59.87747 241.7472 59.77488 241.884C 59.67228 242.0094 59.51554 242.0977 59.28754 242.1661zM58.09911 242.2346C 57.75711 242.2232 57.50061 242.1405 57.32961 241.9695C 57.15861 241.7986 57.06455 241.6019 57.06454 241.3625C 57.06453 241.1003 57.16427 240.8894 57.34666 240.7298C 57.52906 240.5588 57.79125 240.4704 58.09905 240.4818L58.09905 240.4818L58.09911 242.2346z" stroke="none" fill="#221E1F" fill-rule="evenodd" /><path id="997" transform="matrix(1 0 0 -1 0 792)" d="M57.57777 248.2195L57.78293 247.0653C 57.55494 247.0197 57.38678 246.937 57.26138 246.8002C 57.14738 246.6635 57.09037 246.4782 57.09036 246.2616C 57.09035 245.9652 57.19579 245.7315 57.38958 245.5605C 57.59478 245.3895 57.92822 245.304 58.40701 245.304C 58.93141 245.3039 59.30191 245.3866 59.51851 245.569C 59.73512 245.74 59.84342 245.9708 59.84343 246.2786C 59.84344 246.4952 59.78075 246.6776 59.65535 246.8258C 59.52996 246.9626 59.30481 247.0567 58.99702 247.1251L58.99702 247.1251L59.19371 248.2793C 59.7295 248.1539 60.12849 247.9287 60.39067 247.5867C 60.66426 247.2447 60.80104 246.7887 60.80102 246.2187C 60.80099 245.5689 60.59578 245.0474 60.18537 244.6712C 59.77496 244.2836 59.21351 244.0984 58.48392 244.0984C 57.76573 244.0984 57.18434 244.2837 56.77396 244.6713C 56.37498 245.0589 56.16695 245.5833 56.16697 246.2445C 56.16699 246.7803 56.28101 247.205 56.50901 247.5356C 56.74842 247.8433 57.09898 248.0827 57.57777 248.2195z" stroke="none" fill="#221E1F" fill-rule="evenodd" /><path id="998" transform="matrix(1 0 0 -1 0 792)" d="M56.26974 251.1436L57.20168 251.1436L57.20168 251.1436L57.20166 250.3399L57.20166 250.3399L58.98858 250.3398C 59.35338 250.3398 59.56428 250.3455 59.62128 250.3569C 59.68968 250.3683 59.73243 250.3997 59.76663 250.468C 59.81223 250.5136 59.82648 250.5849 59.82648 250.6647C 59.82649 250.7673 59.79515 250.9297 59.71535 251.1349L59.71535 251.1349L60.62165 251.2375C 60.73563 250.9639 60.80117 250.6476 60.80116 250.3056C 60.80116 250.1004 60.7584 249.9009 60.68999 249.7413C 60.62159 249.5703 60.53038 249.4335 60.41638 249.3651C 60.31378 249.2739 60.15703 249.2283 59.96323 249.1941C 59.82643 249.1713 59.54428 249.1599 59.13389 249.1599L59.13389 249.1599L57.20161 249.16L57.20161 249.16L57.2016 248.6214L57.2016 248.6214L56.26965 248.6214L56.26965 248.6214L56.26968 249.16L56.26968 249.16L55.38049 249.1601L55.38049 249.1601L54.69653 250.34L54.69653 250.34L56.26971 250.3399z" stroke="none" fill="#221E1F" fill-rule="evenodd" /><path id="999" transform="matrix(1 0 0 -1 0 792)" d="M55.66273 251.9559L54.57689 251.9559L54.57689 251.9559L54.57693 253.1273L54.57693 253.1273L55.66277 253.1272zM60.69862 251.9557L56.26977 251.9559L56.26977 251.9559L56.26981 253.1272L56.26981 253.1272L60.69866 253.127L60.69866 253.127L60.69862 251.9557z" stroke="none" fill="#221E1F" fill-rule="evenodd" /><path id="1000" transform="matrix(1 0 0 -1 0 792)" d="M58.41587 254.0591C 58.03968 254.0591 57.66348 254.1446 57.2873 254.3498C 56.9225 254.5322 56.65177 254.8087 56.45798 255.1621C 56.2642 255.5041 56.16731 255.8974 56.16733 256.342C 56.16735 257.0146 56.38397 257.5589 56.81718 257.9921C 57.26179 258.4138 57.81754 258.6333 58.46733 258.6332C 59.15132 258.6332 59.70136 258.4166 60.13454 257.9834C 60.57912 257.5502 60.8014 257.0002 60.80137 256.3503C 60.80136 255.94 60.71015 255.5524 60.52774 255.1876C 60.34533 254.8114 60.06887 254.5321 59.71547 254.3497C 59.37346 254.1445 58.92886 254.059 58.41587 254.0591zM58.48431 255.2646C 58.92891 255.2646 59.26521 255.3672 59.49321 255.5724C 59.73262 255.7775 59.84377 256.0426 59.84378 256.3504C 59.8438 256.6582 59.73265 256.9147 59.49327 257.1199C 59.26527 257.3251 58.92043 257.4277 58.47584 257.4277C 58.04264 257.4277 57.70634 257.3251 57.46694 257.12C 57.23893 256.9148 57.12493 256.6583 57.12492 256.3505C 57.1249 256.0427 57.2389 255.7776 57.46688 255.5724C 57.70628 255.3672 58.03972 255.2646 58.48431 255.2646z" stroke="none" fill="#221E1F" fill-rule="evenodd" /><path id="1001" transform="matrix(1 0 0 -1 0 792)" d="M60.69903 263.5921L60.69899 262.4122L60.69899 262.4122L58.43327 262.4123C 57.95447 262.4123 57.64667 262.3781 57.50987 262.3439C 57.37307 262.287 57.26762 262.1986 57.17642 262.096C 57.10801 261.982 57.06526 261.8452 57.06525 261.6856C 57.06525 261.4804 57.12509 261.298 57.22768 261.1384C 57.34167 260.9674 57.48987 260.8734 57.67227 260.805C 57.86606 260.748 58.19951 260.7195 58.6897 260.7194L58.6897 260.7194L60.69893 260.7194L60.69893 260.7194L60.69889 259.548L60.69889 259.548L56.27004 259.5482L56.27004 259.5482L56.27008 260.634L56.27008 260.634L56.91987 260.634C 56.41829 261.0216 56.16751 261.5033 56.16753 262.096C 56.16754 262.3468 56.21315 262.5891 56.30435 262.8057C 56.40696 263.0109 56.52666 263.179 56.66347 263.293C 56.81167 263.3956 56.97697 263.4782 57.15937 263.5238C 57.34177 263.558 57.60397 263.5922 57.94596 263.5922z" stroke="none" fill="#221E1F" fill-rule="evenodd" /><path id="1003" transform="matrix(1 0 0 -1 0 792)" d="M62.4947 269.0982L62.49467 268.2945C 61.84486 267.8613 61.17796 267.5365 60.49396 267.3199C 59.80996 267.0919 59.13452 266.9865 58.48473 266.9865C 57.68673 266.9865 56.9201 267.1205 56.20192 267.4055C 55.58633 267.6335 55.01065 267.9357 54.47487 268.3119L54.47487 268.3119L54.4749 269.1156C 55.32987 268.7279 56.03666 268.4657 56.62944 268.3289C 57.22223 268.1807 57.84922 268.1151 58.51041 268.1151C 58.96641 268.1151 59.4338 268.1436 59.9126 268.2347C 60.3914 268.3145 60.83885 268.4371 61.27205 268.5852C 61.55705 268.6878 61.9589 268.8588 62.4947 269.0982z" stroke="none" fill="#221E1F" fill-rule="evenodd" /><path id="1004" transform="matrix(1 0 0 -1 0 792)" d="M60.6994 274.0657L60.69936 272.9799L60.69936 272.9799L60.04956 272.9799C 60.31176 272.7975 60.49985 272.5781 60.61384 272.3387C 60.72783 272.0879 60.80192 271.8342 60.80191 271.5948C 60.80189 271.0818 60.59668 270.6401 60.18627 270.2867C 59.77586 269.9105 59.20871 269.7396 58.46772 269.7396C 57.71533 269.7396 57.14819 269.9163 56.74921 270.2697C 56.37303 270.6118 56.16784 271.0649 56.16786 271.6121C 56.16788 272.1023 56.37309 272.5298 56.7835 272.8945L56.7835 272.8945L54.57763 272.8946L54.57763 272.8946L54.57767 274.0659zM58.39081 270.9366C 58.86961 270.9366 59.21161 270.9964 59.41681 271.1332C 59.72461 271.3156 59.86997 271.5863 59.86998 271.9283C 59.86999 272.1905 59.7674 272.4156 59.52801 272.6208C 59.30002 272.8033 58.95803 272.903 58.50203 272.903C 57.98904 272.903 57.62709 272.8033 57.39909 272.6209C 57.18248 272.4385 57.06562 272.2048 57.06561 271.9199C 57.06561 271.6349 57.18245 271.4012 57.39904 271.2188C 57.61563 271.0249 57.94622 270.9366 58.39081 270.9366z" stroke="none" fill="#221E1F" fill-rule="evenodd" /><path id="1005" transform="matrix(1 0 0 -1 0 792)" d="M54.57771 275.2373L54.5778 277.6826C 54.57781 278.1614 54.60347 278.529 54.63768 278.7684C 54.68329 279.0078 54.7688 279.2159 54.8942 279.4096C 55.03101 279.592 55.20201 279.7431 55.40721 279.8799C 55.62381 279.9939 55.86606 280.0679 56.11686 280.0679C 56.41326 280.0679 56.6726 279.9853 56.91199 279.8371C 57.15139 279.666 57.33662 279.4666 57.45061 279.2043C 57.55323 279.5805 57.74704 279.8627 57.99784 280.0679C 58.27144 280.2617 58.57924 280.3671 58.92124 280.3671C 59.20623 280.3671 59.47983 280.2958 59.74202 280.1704C 60.00422 280.0336 60.21796 279.8569 60.36615 279.6403C 60.53714 279.4123 60.62263 279.1415 60.65681 278.8109C 60.69101 278.6057 60.69954 278.1099 60.69951 277.3233L60.69951 277.3233L60.69944 275.2371zM55.59519 276.477L57.01447 276.477L57.01447 276.477L57.0145 277.2806C 57.01452 277.7594 57.01168 278.0615 56.98888 278.1869C 56.97749 278.3921 56.90055 278.5574 56.77515 278.6828C 56.66116 278.7968 56.50156 278.8624 56.29637 278.8624C 56.11397 278.8624 55.96007 278.8111 55.83467 278.7085C 55.72066 278.5945 55.65511 278.4435 55.6209 278.2383C 55.6095 278.1129 55.59524 277.768 55.59521 277.1866L55.59521 277.1866L55.59519 276.477zM58.03191 276.4769L59.66494 276.4769L59.66494 276.4769L59.66498 277.6226C 59.665 278.0671 59.66501 278.3436 59.63081 278.469C 59.59662 278.64 59.51968 278.7996 59.38288 278.9136C 59.25749 279.0276 59.08649 279.0931 58.8699 279.0931C 58.6875 279.0931 58.53645 279.0362 58.39965 278.9564C 58.27424 278.8538 58.18589 278.7312 58.11749 278.5717C 58.06048 278.4006 58.03197 278.0273 58.03195 277.4687L58.03195 277.4687L58.03191 276.4769z" stroke="none" fill="#221E1F" fill-rule="evenodd" /><path id="1006" transform="matrix(1 0 0 -1 0 792)" d="M62.49512 281.0766C 61.99353 281.3046 61.62019 281.4614 61.358 281.564C 61.08441 281.6552 60.78516 281.7379 60.44317 281.8291C 60.10118 281.8975 59.77913 281.9659 59.45994 282.0001C 59.15215 282.0343 58.8415 282.06 58.5109 282.06C 57.84971 282.06 57.22271 281.9831 56.62992 281.8463C 56.03712 281.7095 55.33032 281.4445 54.47532 281.0683L54.47532 281.0683L54.47534 281.8635C 55.07955 282.2739 55.7094 282.5987 56.382 282.8381C 57.0546 283.0775 57.7329 283.1886 58.41689 283.1886C 59.00969 283.1885 59.62812 283.0859 60.28931 282.9149C 61.0303 282.7097 61.77697 282.3591 62.49515 281.8803z" stroke="none" fill="#221E1F" fill-rule="evenodd" /><path id="1028" transform="matrix(1 0 0 -1 0 792)" d="M212.7021 149.9771L212.7021 152.3501M86.5681 305.6311L88.9401 305.6311M86.5681 275.0591L88.9401 275.0591M86.5681 244.4001L88.9401 244.4001M86.5681 213.8001L88.9401 213.8001M86.5681 183.1681L88.9401 183.1681" stroke="#949699" stroke-width="0.57" fill="none" /><path id="1029" transform="matrix(1 0 0 -1 0 792)" d="M293.5516 149.9774L293.5516 152.3494M86.5686 336.4624L88.9406 336.4624M86.5686 152.3494L88.9406 152.3494M88.9406 149.9774L88.9406 152.3494" stroke="#221E1F" stroke-width="0.95" fill="none" /><g clip-path="url(#4)"><path id="1030" transform="matrix(1 0 0 -1 0 792)" d="M88.8089 161.771C 117.2379 170.035 139.5989 174.096 176.8599 166.06C 203.8949 160.23 221.9329 147.617 252.4829 157.312C 264.3659 161.738 281.7079 168.253 293.9619 168.342" stroke="#0060AF" stroke-width="1.9" stroke-dasharray="5.000526,1" fill="none" /><path id="1031" transform="matrix(1 0 0 -1 0 792)" d="M88.8614 228.4763C 121.7044 238.2193 154.8414 237.3623 185.0794 220.1833C 195.2544 214.5993 206.7454 207.0613 219.3624 200.6633C 225.6824 197.4583 232.4154 193.9813 238.7294 191.1943C 249.0724 186.6283 257.7624 186.5433 266.5354 185.4633C 279.6004 183.8533 290.6674 178.0093 293.6654 175.5803" stroke="#B9681C" stroke-width="1.9" stroke-dasharray="5.000526,1" fill="none" /></g><path id="1032" transform="matrix(1 0 0 -1 0 792)" d="M88.941 336.4625L293.552 336.4625L293.552 336.4625L293.552 152.3495L293.552 152.3495L88.941 152.3495z" stroke="#221E1F" stroke-width="0.95" fill="none" /><path id="1033" transform="matrix(1 0 0 -1 0 792)" d="M88.9411 183.172L293.4121 183.172M88.9411 213.789L293.4291 213.789M88.9411 244.406L293.4461 244.406M88.9411 275.023L293.4631 275.023" stroke="#949699" stroke-width="0.57" fill="none" /><path id="1034" transform="matrix(1 0 0 -1 0 792)" d="M212.696 336.4224L212.696 152.3504M206.71 336.4224L206.71 152.3504M200.127 336.4224L200.127 152.3504M193.485 336.4224L193.485 152.3504M184.553 336.4624L184.553 152.3494M287.38 336.4624L287.38 152.3494M175.591 336.4624L175.591 152.3494M271.898 336.4624L271.898 152.3494M163.614 336.4624L163.614 152.3494M148.089 336.4624L148.089 152.3494M250.026 336.4624L250.026 152.3494M126.706 336.4624L126.706 152.3494" stroke="#949699" stroke-width="0.57" fill="none" /><path id="1035" transform="matrix(1 0 0 -1 0 792)" d="M93.712 252.119L185.278 252.119L185.278 252.119L185.278 236.783L185.278 236.783L93.712 236.783z" stroke="none" fill="#FFFFFF" fill-rule="evenodd" /><path id="1036" transform="matrix(1 0 0 -1 0 792)" d="M94.614 220.996L178.512 220.996L178.512 220.996L178.512 209.268L178.512 209.268L94.614 209.268z" stroke="none" fill="#FFFFFF" fill-rule="evenodd" /><path id="1037" transform="matrix(1 0 0 -1 0 792)" d="M97.32 184.46L181.218 184.46L181.218 184.46L181.218 172.732L181.218 172.732L97.32 172.732z" stroke="none" fill="#FFFFFF" fill-rule="evenodd" /><g clip-path="url(#5)"><path id="1086" transform="matrix(1 0 0 -1 0 792)" d="M88.7496 205.1815C 120.7006 212.4025 151.2856 215.5595 183.6706 198.2925C 209.4536 184.0125 240.1686 168.4875 260.4516 174.9165C 274.5326 181.1655 281.9486 178.9285 293.3686 178.7195" stroke="#EE1C23" stroke-width="1.9" fill="none" /></g><path id="1106" transform="matrix(1 0 0 -1 0 792)" d="M327.3779 206.3847L321.3075 206.3849L321.3075 206.3849L321.3075 207.6161L321.3075 207.6161L326.3434 207.616L326.3434 207.616L326.3435 210.6854L326.3435 210.6854L327.3781 210.6853z" stroke="none" fill="#221E1F" fill-rule="evenodd" /><path id="1107" transform="matrix(1 0 0 -1 0 792)" d="M322.3422 211.5661L321.2564 211.5662L321.2564 211.5662L321.2564 212.7375L321.2564 212.7375L322.3423 212.7375zM327.3781 211.566L322.9492 211.5661L322.9492 211.5661L322.9493 212.7375L322.9493 212.7375L327.3781 212.7373L327.3781 212.7373L327.3781 211.566z" stroke="none" fill="#221E1F" fill-rule="evenodd" /><path id="1108" transform="matrix(1 0 0 -1 0 792)" d="M327.3783 217.9784L327.3783 216.7985L327.3783 216.7985L325.1125 216.7986C 324.6338 216.7986 324.326 216.7644 324.1892 216.7302C 324.0524 216.6732 323.9469 216.5849 323.8557 216.4823C 323.7873 216.3683 323.7446 216.2315 323.7446 216.0719C 323.7445 215.8667 323.8044 215.6843 323.907 215.5247C 324.021 215.3537 324.1692 215.2596 324.3516 215.1912C 324.5453 215.1342 324.8788 215.1057 325.369 215.1057L325.369 215.1057L327.3782 215.1056L327.3782 215.1056L327.3782 213.9343L327.3782 213.9343L322.9493 213.9344L322.9493 213.9344L322.9494 215.0203L322.9494 215.0203L323.5992 215.0203C 323.0976 215.4079 322.8468 215.8895 322.8468 216.4823C 322.8468 216.7331 322.8925 216.9754 322.9836 217.192C 323.0863 217.3972 323.206 217.5653 323.3428 217.6793C 323.491 217.7819 323.6563 217.8645 323.8387 217.9101C 324.0211 217.9443 324.2833 217.9785 324.6253 217.9785z" stroke="none" fill="#221E1F" fill-rule="evenodd" /><path id="1109" transform="matrix(1 0 0 -1 0 792)" d="M325.9677 221.7319L326.1644 222.9032C 326.5976 222.7436 326.9225 222.5127 327.1391 222.1935C 327.3785 221.8629 327.481 221.4497 327.481 220.9709C 327.481 220.1957 327.233 219.6257 326.72 219.2609C 326.321 218.9645 325.8137 218.8249 325.1981 218.8249C 324.4685 218.825 323.8815 219.0102 323.4711 219.3978C 323.0607 219.774 322.847 220.2671 322.847 220.8599C 322.847 221.5097 323.0636 222.0397 323.4968 222.4159C 323.9414 222.7921 324.6083 222.9745 325.4975 222.9631L325.4975 222.9631L325.4974 220.0219C 325.8508 220.0219 326.1273 220.1188 326.3097 220.3126C 326.5149 220.4836 326.6004 220.7144 326.6004 220.988C 326.6004 221.159 326.5576 221.3129 326.455 221.4497C 326.3525 221.5751 326.1957 221.6635 325.9677 221.7319zM324.7793 221.8003C 324.4373 221.7889 324.1808 221.7063 324.0098 221.5353C 323.8388 221.3643 323.7447 221.1676 323.7447 220.9282C 323.7447 220.666 323.8445 220.4551 324.0269 220.2955C 324.2092 220.1245 324.4714 220.0362 324.7792 220.0476L324.7792 220.0476L324.7793 221.8003z" stroke="none" fill="#221E1F" fill-rule="evenodd" /><path id="1111" transform="matrix(1 0 0 -1 0 792)" d="M327.3786 226.306L321.2569 226.3062L321.2569 226.3062L321.257 228.9139C 321.257 229.5637 321.3254 230.0368 321.428 230.3332C 321.5306 230.6296 321.7358 230.869 322.0095 231.0514C 322.2945 231.2224 322.6108 231.3164 322.9756 231.3164C 323.4316 231.3164 323.8163 231.1796 324.1127 230.906C 324.4205 230.6324 324.6086 230.2248 324.677 229.7004C 324.8366 229.9626 325.0076 230.1877 325.19 230.3587C 325.3838 230.5297 325.7144 230.7634 326.1818 231.0598L326.1818 231.0598L327.3788 231.8121L327.3788 231.8121L327.3788 230.333L327.3788 230.333L326.045 229.4439C 325.5661 229.1133 325.284 228.8996 325.1472 228.7856C 325.0218 228.6716 324.9477 228.5433 324.8907 228.4179C 324.8565 228.2811 324.8223 228.0674 324.8223 227.7938L324.8223 227.7938L324.8222 227.5458L324.8222 227.5458L327.3787 227.5457zM323.8476 227.5459L323.8476 228.4607C 323.8476 229.0421 323.8277 229.4126 323.7707 229.5722C 323.7251 229.709 323.6396 229.823 323.5142 229.9142C 323.4002 229.994 323.2463 230.0424 323.0525 230.0425C 322.8473 230.0425 322.6934 229.9741 322.5566 229.8715C 322.4312 229.7689 322.3514 229.615 322.3172 229.4098C 322.3058 229.3072 322.2915 229.0051 322.2915 228.5035L322.2915 228.5035L322.2915 227.5459L322.2915 227.5459L323.8476 227.5459z" stroke="none" fill="#221E1F" fill-rule="evenodd" /><path id="1112" transform="matrix(1 0 0 -1 0 792)" d="M325.9682 235.0355L326.1649 236.2068C 326.5981 236.0472 326.923 235.8164 327.1396 235.4972C 327.3789 235.1665 327.4815 234.7533 327.4815 234.2745C 327.4815 233.4993 327.2335 232.9293 326.7205 232.5646C 326.3215 232.2682 325.8142 232.1285 325.1986 232.1286C 324.469 232.1286 323.8819 232.3139 323.4715 232.7015C 323.0612 233.0777 322.8474 233.5707 322.8474 234.1635C 322.8475 234.8133 323.0641 235.3434 323.4973 235.7196C 323.9419 236.0958 324.6088 236.2781 325.498 236.2667L325.498 236.2667L325.4979 233.3255C 325.8513 233.3255 326.1277 233.4224 326.3102 233.6162C 326.5154 233.7872 326.6009 234.018 326.6009 234.2916C 326.6009 234.4626 326.5581 234.6165 326.4555 234.7533C 326.3529 234.8787 326.1962 234.9671 325.9682 235.0355zM324.7798 235.1039C 324.4378 235.0926 324.1813 235.0099 324.0103 234.8389C 323.8393 234.6679 323.7452 234.4713 323.7452 234.2319C 323.7452 233.9697 323.8449 233.7588 324.0273 233.5992C 324.2097 233.4282 324.4719 233.3398 324.7797 233.3512L324.7797 233.3512L324.7798 235.1039z" stroke="none" fill="#221E1F" fill-rule="evenodd" /><path id="1113" transform="matrix(1 0 0 -1 0 792)" d="M322.3431 237.1988L321.2573 237.1988L321.2573 237.1988L321.2573 238.3701L321.2573 238.3701L322.3431 238.3701zM322.9502 238.3701L327.2422 238.3699C 327.8008 238.3699 328.1998 238.3271 328.4392 238.2587C 328.6672 238.1789 328.8496 238.0364 328.9864 237.8312C 329.1118 237.626 329.1745 237.3467 329.1745 237.0275C 329.1745 236.9135 329.1602 236.7881 329.1488 236.6513C 329.1146 236.5145 329.089 236.3749 329.0547 236.2153L329.0547 236.2153L328.0544 236.4205C 328.0544 236.4775 328.0687 236.5402 328.0801 236.5744C 328.0801 236.62 328.0886 236.6656 328.0886 236.7112C 328.0886 236.8252 328.0573 236.9307 328.0117 237.0105C 327.9547 237.0789 327.892 237.133 327.8236 237.1558C 327.7552 237.1786 327.5272 237.1986 327.1738 237.1986L327.1738 237.1986L322.9502 237.1987L322.9502 237.1987L322.9502 238.3701z" stroke="none" fill="#221E1F" fill-rule="evenodd" /><path id="1114" transform="matrix(1 0 0 -1 0 792)" d="M325.9684 242.1661L326.1651 243.3374C 326.5983 243.1778 326.9232 242.947 327.1398 242.6278C 327.3792 242.2972 327.4818 241.8839 327.4818 241.4051C 327.4817 240.6299 327.2338 240.06 326.7207 239.6952C 326.3217 239.3988 325.8145 239.2592 325.1989 239.2592C 324.4693 239.2592 323.8822 239.4445 323.4718 239.8321C 323.0614 240.2083 322.8477 240.7014 322.8477 241.2941C 322.8477 241.9439 323.0643 242.474 323.4976 242.8502C 323.9422 243.2264 324.609 243.4088 325.4982 243.3973L325.4982 243.3973L325.4981 240.4562C 325.8515 240.4561 326.128 240.553 326.3104 240.7468C 326.5156 240.9178 326.6011 241.1487 326.6011 241.4223C 326.6011 241.5933 326.5584 241.7472 326.4558 241.884C 326.3532 242.0094 326.1964 242.0977 325.9684 242.1661zM324.78 242.2346C 324.438 242.2232 324.1815 242.1405 324.0105 241.9695C 323.8395 241.7986 323.7455 241.6019 323.7455 241.3625C 323.7454 241.1003 323.8452 240.8894 324.0276 240.7298C 324.21 240.5588 324.4721 240.4704 324.7799 240.4818L324.7799 240.4818L324.78 242.2346z" stroke="none" fill="#221E1F" fill-rule="evenodd" /><path id="1115" transform="matrix(1 0 0 -1 0 792)" d="M324.2587 248.2195L324.4638 247.0653C 324.2358 247.0197 324.0677 246.937 323.9423 246.8002C 323.8283 246.6635 323.7713 246.4782 323.7713 246.2616C 323.7712 245.9652 323.8767 245.7315 324.0705 245.5605C 324.2757 245.3895 324.6091 245.304 325.0879 245.304C 325.6123 245.3039 325.9828 245.3866 326.1994 245.569C 326.416 245.74 326.5243 245.9708 326.5243 246.2786C 326.5244 246.4952 326.4616 246.6776 326.3362 246.8258C 326.2108 246.9626 325.9857 247.0567 325.6779 247.1251L325.6779 247.1251L325.8746 248.2793C 326.4104 248.1539 326.8094 247.9287 327.0716 247.5867C 327.3452 247.2447 327.4819 246.7887 327.4819 246.2187C 327.4819 245.5689 327.2767 245.0474 326.8663 244.6712C 326.4559 244.2836 325.8944 244.0984 325.1648 244.0984C 324.4466 244.0984 323.8652 244.2837 323.4549 244.6713C 323.0559 245.0589 322.8478 245.5833 322.8479 246.2445C 322.8479 246.7803 322.9619 247.205 323.1899 247.5356C 323.4293 247.8433 323.7799 248.0827 324.2587 248.2195z" stroke="none" fill="#221E1F" fill-rule="evenodd" /><path id="1116" transform="matrix(1 0 0 -1 0 792)" d="M322.9507 251.1436L323.8826 251.1436L323.8826 251.1436L323.8826 250.3399L323.8826 250.3399L325.6695 250.3398C 326.0343 250.3398 326.2452 250.3455 326.3022 250.3569C 326.3706 250.3683 326.4133 250.3997 326.4475 250.468C 326.4931 250.5136 326.5074 250.5849 326.5074 250.6647C 326.5074 250.7673 326.476 250.9297 326.3962 251.1349L326.3962 251.1349L327.3026 251.2375C 327.4165 250.9639 327.4821 250.6476 327.4821 250.3056C 327.4821 250.1004 327.4393 249.9009 327.3709 249.7413C 327.3025 249.5703 327.2113 249.4335 327.0973 249.3651C 326.9947 249.2739 326.8379 249.2283 326.6441 249.1941C 326.5073 249.1713 326.2252 249.1599 325.8148 249.1599L325.8148 249.1599L323.8825 249.16L323.8825 249.16L323.8825 248.6214L323.8825 248.6214L322.9506 248.6214L322.9506 248.6214L322.9506 249.16L322.9506 249.16L322.0614 249.1601L322.0614 249.1601L321.3774 250.34L321.3774 250.34L322.9506 250.3399z" stroke="none" fill="#221E1F" fill-rule="evenodd" /><path id="1117" transform="matrix(1 0 0 -1 0 792)" d="M322.3436 251.9559L321.2578 251.9559L321.2578 251.9559L321.2578 253.1273L321.2578 253.1273L322.3437 253.1272zM327.3795 251.9557L322.9507 251.9559L322.9507 251.9559L322.9507 253.1272L322.9507 253.1272L327.3795 253.127L327.3795 253.127L327.3795 251.9557z" stroke="none" fill="#221E1F" fill-rule="evenodd" /><path id="1118" transform="matrix(1 0 0 -1 0 792)" d="M325.0968 254.0591C 324.7206 254.0591 324.3444 254.1446 323.9682 254.3498C 323.6034 254.5322 323.3327 254.8087 323.1389 255.1621C 322.9451 255.5041 322.8482 255.8974 322.8482 256.342C 322.8483 257.0146 323.0649 257.5589 323.4981 257.9921C 323.9427 258.4138 324.4984 258.6333 325.1482 258.6332C 325.8322 258.6332 326.3823 258.4166 326.8154 257.9834C 327.26 257.5502 327.4823 257.0002 327.4823 256.3503C 327.4823 255.94 327.3911 255.5524 327.2086 255.1876C 327.0262 254.8114 326.7498 254.5321 326.3964 254.3497C 326.0544 254.1445 325.6098 254.059 325.0968 254.0591zM325.1652 255.2646C 325.6098 255.2646 325.9461 255.3672 326.1741 255.5724C 326.4135 255.7775 326.5247 256.0426 326.5247 256.3504C 326.5247 256.6582 326.4135 256.9147 326.1742 257.1199C 325.9462 257.3251 325.6013 257.4277 325.1567 257.4277C 324.7235 257.4277 324.3872 257.3251 324.1478 257.12C 323.9198 256.9148 323.8058 256.6583 323.8058 256.3505C 323.8058 256.0427 323.9198 255.7776 324.1478 255.5724C 324.3872 255.3672 324.7206 255.2646 325.1652 255.2646z" stroke="none" fill="#221E1F" fill-rule="evenodd" /><path id="1119" transform="matrix(1 0 0 -1 0 792)" d="M327.3799 263.5921L327.3799 262.4122L327.3799 262.4122L325.1142 262.4123C 324.6354 262.4123 324.3276 262.3781 324.1908 262.3439C 324.054 262.287 323.9485 262.1986 323.8573 262.096C 323.7889 261.982 323.7462 261.8452 323.7462 261.6856C 323.7462 261.4804 323.806 261.298 323.9086 261.1384C 324.0226 260.9674 324.1708 260.8734 324.3532 260.805C 324.547 260.748 324.8804 260.7195 325.3706 260.7194L325.3706 260.7194L327.3798 260.7194L327.3798 260.7194L327.3798 259.548L327.3798 259.548L322.9509 259.5482L322.9509 259.5482L322.951 260.634L322.951 260.634L323.6008 260.634C 323.0992 261.0216 322.8484 261.5033 322.8484 262.096C 322.8484 262.3468 322.894 262.5891 322.9853 262.8057C 323.0879 263.0109 323.2076 263.179 323.3444 263.293C 323.4926 263.3956 323.6579 263.4782 323.8403 263.5238C 324.0227 263.558 324.2849 263.5922 324.6269 263.5922z" stroke="none" fill="#221E1F" fill-rule="evenodd" /><path id="1121" transform="matrix(1 0 0 -1 0 792)" d="M329.1756 269.0982L329.1756 268.2945C 328.5258 267.8613 327.8589 267.5365 327.1749 267.3199C 326.4909 267.0919 325.8154 266.9865 325.1656 266.9865C 324.3676 266.9865 323.601 267.1205 322.8828 267.4055C 322.2672 267.6335 321.6916 267.9357 321.1558 268.3119L321.1558 268.3119L321.1558 269.1156C 322.0108 268.7279 322.7176 268.4657 323.3103 268.3289C 323.9031 268.1807 324.5301 268.1151 325.1913 268.1151C 325.6473 268.1151 326.1147 268.1436 326.5935 268.2347C 327.0723 268.3145 327.5197 268.4371 327.9529 268.5852C 328.2379 268.6878 328.6398 268.8588 329.1756 269.0982z" stroke="none" fill="#221E1F" fill-rule="evenodd" /><path id="1122" transform="matrix(1 0 0 -1 0 792)" d="M327.3803 274.0657L327.3802 272.9799L327.3802 272.9799L326.7305 272.9799C 326.9926 272.7975 327.1808 272.5781 327.2947 272.3387C 327.4087 272.0879 327.4828 271.8342 327.4828 271.5948C 327.4828 271.0818 327.2776 270.6401 326.8672 270.2867C 326.4568 269.9105 325.8896 269.7396 325.1486 269.7396C 324.3962 269.7396 323.8291 269.9163 323.4301 270.2697C 323.0539 270.6118 322.8488 271.0649 322.8488 271.6121C 322.8488 272.1023 323.054 272.5298 323.4644 272.8945L323.4644 272.8945L321.2585 272.8946L321.2585 272.8946L321.2586 274.0659zM325.0717 270.9366C 325.5505 270.9366 325.8925 270.9964 326.0977 271.1332C 326.4055 271.3156 326.5509 271.5863 326.5509 271.9283C 326.5509 272.1905 326.4483 272.4156 326.2089 272.6208C 325.9809 272.8033 325.6389 272.903 325.1829 272.903C 324.67 272.903 324.308 272.8033 324.08 272.6209C 323.8634 272.4385 323.7465 272.2048 323.7465 271.9199C 323.7465 271.6349 323.8633 271.4012 324.0799 271.2188C 324.2965 271.0249 324.6271 270.9366 325.0717 270.9366z" stroke="none" fill="#221E1F" fill-rule="evenodd" /><path id="1123" transform="matrix(1 0 0 -1 0 792)" d="M321.2586 275.2373L321.2587 277.6826C 321.2587 278.1614 321.2844 278.529 321.3186 278.7684C 321.3642 279.0078 321.4497 279.2159 321.5751 279.4096C 321.7119 279.592 321.8829 279.7431 322.0881 279.8799C 322.3047 279.9939 322.547 280.0679 322.7978 280.0679C 323.0941 280.0679 323.3535 279.9853 323.5929 279.8371C 323.8323 279.666 324.0175 279.4666 324.1315 279.2043C 324.2341 279.5805 324.4279 279.8627 324.6787 280.0679C 324.9523 280.2617 325.2601 280.3671 325.6021 280.3671C 325.8871 280.3671 326.1607 280.2958 326.4229 280.1704C 326.6851 280.0336 326.8989 279.8569 327.0471 279.6403C 327.218 279.4123 327.3035 279.1415 327.3377 278.8109C 327.3719 278.6057 327.3804 278.1099 327.3804 277.3233L327.3804 277.3233L327.3803 275.2371zM322.2761 276.477L323.6954 276.477L323.6954 276.477L323.6954 277.2806C 323.6954 277.7594 323.6926 278.0615 323.6698 278.1869C 323.6584 278.3921 323.5815 278.5574 323.4561 278.6828C 323.3421 278.7968 323.1825 278.8624 322.9773 278.8624C 322.7949 278.8624 322.641 278.8111 322.5156 278.7085C 322.4016 278.5945 322.336 278.4435 322.3018 278.2383C 322.2904 278.1129 322.2761 277.768 322.2761 277.1866L322.2761 277.1866L322.2761 276.477zM324.7128 276.4769L326.3459 276.4769L326.3459 276.4769L326.3459 277.6226C 326.3459 278.0671 326.3459 278.3436 326.3117 278.469C 326.2775 278.64 326.2006 278.7996 326.0638 278.9136C 325.9384 279.0276 325.7674 279.0931 325.5508 279.0931C 325.3684 279.0931 325.2173 279.0362 325.0805 278.9564C 324.9551 278.8538 324.8668 278.7312 324.7984 278.5717C 324.7414 278.4006 324.7129 278.0273 324.7129 277.4687L324.7129 277.4687L324.7128 276.4769z" stroke="none" fill="#221E1F" fill-rule="evenodd" /><path id="1124" transform="matrix(1 0 0 -1 0 792)" d="M329.176 281.0766C 328.6744 281.3046 328.3011 281.4614 328.0389 281.564C 327.7653 281.6552 327.4661 281.7379 327.1241 281.8291C 326.7821 281.8975 326.46 281.9659 326.1408 282.0001C 325.833 282.0343 325.5224 282.06 325.1918 282.06C 324.5306 282.06 323.9036 281.9831 323.3108 281.8463C 322.718 281.7095 322.0112 281.4445 321.1562 281.0683L321.1562 281.0683L321.1563 281.8635C 321.7604 282.2739 322.3903 282.5987 323.0629 282.8381C 323.7355 283.0775 324.4138 283.1886 325.0978 283.1886C 325.6906 283.1885 326.309 283.0859 326.9702 282.9149C 327.7112 282.7097 328.4579 282.3591 329.1761 281.8803z" stroke="none" fill="#221E1F" fill-rule="evenodd" /><path id="1149" transform="matrix(1 0 0 -1 0 792)" d="M479.4371 336.4221L479.4371 152.3501M473.4501 336.4221L473.4501 152.3501M466.8681 336.4221L466.8681 152.3501M460.2251 336.4221L460.2251 152.3501M451.2931 336.4621L451.2931 152.3501M554.1201 336.4621L554.1201 152.3501M442.3311 336.4621L442.3311 152.3501M538.6391 336.4621L538.6391 152.3501M430.3541 336.4621L430.3541 152.3501M414.8291 336.4621L414.8291 152.3501M516.7661 336.4621L516.7661 152.3501M393.4461 336.4621L393.4461 152.3501M479.3811 149.9771L479.3811 152.3501M353.2491 310.1671L355.6211 310.1671M353.2491 283.8371L355.6211 283.8371M353.2491 257.5941L355.6211 257.5941M353.2491 231.2651L355.6211 231.2651M353.2491 204.9631L355.6211 204.9631M353.2491 178.6601L355.6211 178.6601" stroke="#949699" stroke-width="0.57" fill="none" /><path id="1150" transform="matrix(1 0 0 -1 0 792)" d="M560.2326 149.9774L560.2326 152.3494M353.2496 336.4624L355.6216 336.4624M353.2496 152.3494L355.6216 152.3494M355.6216 149.9774L355.6216 152.3494" stroke="#221E1F" stroke-width="0.95" fill="none" /><path id="1151" transform="matrix(1 0 0 -1 0 792)" d="M355.6211 178.6522L560.0761 178.6522M355.6221 204.9532L560.0961 204.9532M355.6221 231.2552L560.1171 231.2552M355.6221 257.5572L560.1381 257.5572M355.6221 283.8582L560.1581 283.8582M355.6221 310.1602L560.1781 310.1602" stroke="#949699" stroke-width="0.57" fill="none" /><g clip-path="url(#6)"><path id="1152" transform="matrix(1 0 0 -1 0 792)" d="M355.4306 186.5027C 387.3816 193.7237 419.5086 196.8807 452.1896 187.3227C 479.1596 179.8617 505.1306 176.7887 525.4126 183.2187C 537.2956 187.6447 548.4486 190.7877 560.7016 190.8757" stroke="#EE1C23" stroke-width="1.9" fill="none" /><path id="1153" transform="matrix(1 0 0 -1 0 792)" d="M355.4306 166.574C 383.2016 173.239 403.3606 180.315 442.7106 179.105C 472.0326 178.204 495.2656 169.778 525.1526 179.252C 537.0366 183.678 548.4486 187.229 560.7016 187.317" stroke="#0060AF" stroke-width="1.9" stroke-dasharray="5.000526,1" fill="none" /><path id="1154" transform="matrix(1 0 0 -1 0 792)" d="M356.0168 197.6344C 388.1038 204.8564 420.8088 206.1944 452.7088 194.5604C 467.4578 190.4804 481.3898 183.5584 494.7738 182.9404C 505.8628 182.4274 516.2218 182.9154 525.4128 185.8284C 537.8148 189.9944 548.4489 192.0854 560.7018 190.8764" stroke="#B9681C" stroke-width="1.9" stroke-dasharray="5.000526,1" fill="none" /></g><path id="1155" transform="matrix(1 0 0 -1 0 792)" d="M388.988 245.3215L375.763 206.3215M355.622 336.4625L560.233 336.4625L560.233 336.4625L560.233 152.3495L560.233 152.3495L355.622 152.3495z" stroke="#221E1F" stroke-width="0.95" fill="none" /><path id="1156" transform="matrix(1 0 0 -1 0 792)" d="M378.2603 205.8914L374.4283 202.3854L374.4283 202.3854L373.5193 207.4994z" stroke="none" fill="#221E1F" fill-rule="evenodd" /><path id="1157" transform="matrix(1 0 0 -1 0 792)" d="M409.8191 197.968L419.2381 226.032" stroke="#221E1F" stroke-width="0.95" fill="none" /><path id="1158" transform="matrix(1 0 0 -1 0 792)" d="M407.5716 199.1386L408.4966 194.0276L408.4966 194.0276L412.3176 197.5456z" stroke="none" fill="#221E1F" fill-rule="evenodd" /><path id="1159" transform="matrix(1 0 0 -1 0 792)" d="M436.5619 184.8159L445.9809 212.8799" stroke="#221E1F" stroke-width="0.95" fill="none" /><path id="1160" transform="matrix(1 0 0 -1 0 792)" d="M434.3144 185.9864L435.2394 180.8754L435.2394 180.8754L439.0604 184.3934z" stroke="none" fill="#221E1F" fill-rule="evenodd" /><path id="1161" transform="matrix(1 0 0 -1 0 792)" d="M361.807 261.104L423.184 261.104L423.184 261.104L423.184 247.469L423.184 247.469L361.807 247.469z" stroke="none" fill="#FFFFFF" fill-rule="evenodd" /><path id="1162" transform="matrix(1 0 0 -1 0 792)" d="M396.441 240.937L457.818 240.937L457.818 240.937L457.818 227.302L457.818 227.302L396.441 227.302z" stroke="none" fill="#FFFFFF" fill-rule="evenodd" /><path id="1163" transform="matrix(1 0 0 -1 0 792)" d="M424.06 222.962L492.451 222.962L492.451 222.962L492.451 209.327L492.451 209.327L424.06 209.327z" stroke="none" fill="#FFFFFF" fill-rule="evenodd" /></g></g></svg>