<svg xmlns="http://www.w3.org/2000/svg" xmlns:xlink="http://www.w3.org/1999/xlink" id="body_6" preserveAspectRatio="xMinYMin meet" viewBox="0 0 816 1056"><defs><clipPath id="1"><path id="" clip-rule="evenodd" transform="matrix(1 0 0 1 0 0)" d="M0 792L0 0L0 0L612 0L612 0L612 792L612 792L0 792z" /></clipPath><clipPath id="2"><path id="" clip-rule="evenodd" transform="matrix(1 0 0 1 0 0)" d="M41.857 712.714L563.857 712.714L563.857 712.714L563.857 38.99896L563.857 38.99896L41.857 38.99896z" /></clipPath><clipPath id="3"><path id="" clip-rule="evenodd" transform="matrix(1 0 0 1 0 0)" d="M41.857 712.714L563.857 712.714L563.857 712.714L563.857 38.99896L563.857 38.99896L41.857 38.99896z" /></clipPath></defs><g transform="matrix(1.333333 0 0 1.333333 0 0)"><g clip-path="url(#1)"><path id="1" transform="matrix(1 0 0 -1 0 792)" d="M54 39.5055L558 39.5055" stroke="#221E1F" stroke-width="0.5" fill="none" /><path id="29" transform="matrix(1 0 0 -1 0 792)" d="M41.857 79.286L563.857 79.286L563.857 753.001L41.857 753.001z" stroke="none" fill="#FFFFFF" fill-rule="nonzero" /><g clip-path="url(#2)"></g><g clip-path="url(#3)"></g><path id="1148" transform="matrix(1 0 0 -1 0 792)" d="M53.3005 128.9305L558.3805 128.9305" stroke="#221E1F" stroke-width="0.5" fill="none" /><path id="1208" transform="matrix(1 0 0 -1 0 792)" d="M53.3004 484.7537L131.3004 484.7537" stroke="#221E1F" stroke-width="1" fill="none" /><path id="1209" transform="matrix(1 0 0 -1 0 792)" d="M53.8004 458.4812L53.8004 484.2532" stroke="#221E1F" stroke-width="1" fill="none" /><path id="1210" transform="matrix(1 0 0 -1 0 792)" d="M131.3004 484.7537L335.3794 484.7537" stroke="#221E1F" stroke-width="1" fill="none" /><path id="1211" transform="matrix(1 0 0 -1 0 792)" d="M131.3004 458.4812L131.3004 484.2532" stroke="#221E1F" stroke-width="1" fill="none" /><path id="1212" transform="matrix(1 0 0 -1 0 792)" d="M335.3794 484.7537L544.3804 484.7537" stroke="#221E1F" stroke-width="1" fill="none" /><path id="1213" transform="matrix(1 0 0 -1 0 792)" d="M335.3794 458.4812L335.3794 484.2532" stroke="#221E1F" stroke-width="1" fill="none" /><path id="1214" transform="matrix(1 0 0 -1 0 792)" d="M543.8805 458.4812L543.8805 484.2532" stroke="#221E1F" stroke-width="1" fill="none" /><path id="1215" transform="matrix(1 0 0 -1 0 792)" d="M53.3004 457.9812L131.3004 457.9812" stroke="#221E1F" stroke-width="1" fill="none" /><path id="1216" transform="matrix(1 0 0 -1 0 792)" d="M53.8004 359.5476L53.8004 457.4816" stroke="#221E1F" stroke-width="1" fill="none" /><path id="1217" transform="matrix(1 0 0 -1 0 792)" d="M131.3004 457.9812L335.3794 457.9812" stroke="#221E1F" stroke-width="1" fill="none" /><path id="1218" transform="matrix(1 0 0 -1 0 792)" d="M131.3004 359.5476L131.3004 457.4816" stroke="#221E1F" stroke-width="1" fill="none" /><path id="1219" transform="matrix(1 0 0 -1 0 792)" d="M335.3794 457.9812L544.3804 457.9812" stroke="#221E1F" stroke-width="1" fill="none" /><path id="1220" transform="matrix(1 0 0 -1 0 792)" d="M335.3794 359.5476L335.3794 457.4816" stroke="#221E1F" stroke-width="1" fill="none" /><path id="1221" transform="matrix(1 0 0 -1 0 792)" d="M543.8805 359.5476L543.8805 457.4816" stroke="#221E1F" stroke-width="1" fill="none" /><path id="1222" transform="matrix(1 0 0 -1 0 792)" d="M53.3004 359.0476L131.3004 359.0476" stroke="#221E1F" stroke-width="1" fill="none" /><path id="1223" transform="matrix(1 0 0 -1 0 792)" d="M53.8004 272.6141L53.8004 358.5481" stroke="#221E1F" stroke-width="1" fill="none" /><path id="1224" transform="matrix(1 0 0 -1 0 792)" d="M131.3004 359.0476L335.3794 359.0476" stroke="#221E1F" stroke-width="1" fill="none" /><path id="1225" transform="matrix(1 0 0 -1 0 792)" d="M131.3004 272.6141L131.3004 358.5481" stroke="#221E1F" stroke-width="1" fill="none" /><path id="1226" transform="matrix(1 0 0 -1 0 792)" d="M335.3794 359.0476L544.3804 359.0476" stroke="#221E1F" stroke-width="1" fill="none" /><path id="1227" transform="matrix(1 0 0 -1 0 792)" d="M335.3794 272.6141L335.3794 358.5481" stroke="#221E1F" stroke-width="1" fill="none" /><path id="1228" transform="matrix(1 0 0 -1 0 792)" d="M543.8805 272.6141L543.8805 358.5481" stroke="#221E1F" stroke-width="1" fill="none" /><path id="1229" transform="matrix(1 0 0 -1 0 792)" d="M53.3004 272.1141L131.3004 272.1141" stroke="#221E1F" stroke-width="1" fill="none" /><path id="1230" transform="matrix(1 0 0 -1 0 792)" d="M53.8004 137.6805L53.8004 271.6145" stroke="#221E1F" stroke-width="1" fill="none" /><path id="1231" transform="matrix(1 0 0 -1 0 792)" d="M131.3004 272.1141L335.3794 272.1141" stroke="#221E1F" stroke-width="1" fill="none" /><path id="1232" transform="matrix(1 0 0 -1 0 792)" d="M131.3004 137.6805L131.3004 271.6145" stroke="#221E1F" stroke-width="1" fill="none" /><path id="1233" transform="matrix(1 0 0 -1 0 792)" d="M335.3794 272.1141L544.3804 272.1141" stroke="#221E1F" stroke-width="1" fill="none" /><path id="1234" transform="matrix(1 0 0 -1 0 792)" d="M335.3794 137.6805L335.3794 271.6145" stroke="#221E1F" stroke-width="1" fill="none" /><path id="1235" transform="matrix(1 0 0 -1 0 792)" d="M543.8805 137.6805L543.8805 271.6145" stroke="#221E1F" stroke-width="1" fill="none" /><path id="1236" transform="matrix(1 0 0 -1 0 792)" d="M53.3004 137.1805L131.3004 137.1805" stroke="#221E1F" stroke-width="1" fill="none" /><path id="1237" transform="matrix(1 0 0 -1 0 792)" d="M131.3004 137.1805L335.3794 137.1805" stroke="#221E1F" stroke-width="1" fill="none" /><path id="1238" transform="matrix(1 0 0 -1 0 792)" d="M335.3794 137.1805L544.3804 137.1805" stroke="#221E1F" stroke-width="1" fill="none" /></g></g></svg>