<svg xmlns="http://www.w3.org/2000/svg" xmlns:xlink="http://www.w3.org/1999/xlink" id="body_30" preserveAspectRatio="xMinYMin meet" viewBox="0 0 816 1056"><defs><clipPath id="1"><path id="" clip-rule="evenodd" transform="matrix(1 0 0 1 0 0)" d="M0 792L0 0L0 0L612 0L612 0L612 792L612 792L0 792z" /></clipPath><clipPath id="2"><path id="" clip-rule="evenodd" transform="matrix(1 0 0 1 0 0)" d="M42 726L567 726L567 726L567 43.20001L567 43.20001L42 43.20001z" /></clipPath><clipPath id="3"><path id="" clip-rule="evenodd" transform="matrix(1 0 0 1 0 0)" d="M42 726L567 726L567 726L567 43.20001L567 43.20001L42 43.20001z" /></clipPath><clipPath id="4"><path id="" clip-rule="evenodd" transform="matrix(1 0 0 1 0 0)" d="M42 726L567 726L567 726L567 43.20001L567 43.20001L42 43.20001z" /></clipPath><clipPath id="5"><path id="" clip-rule="evenodd" transform="matrix(1 0 0 1 0 0)" d="M209.983 214.2L402.203 214.2L402.203 214.2L402.203 43.20001L402.203 43.20001L209.983 43.20001z" /></clipPath><clipPath id="6"><path id="" clip-rule="evenodd" transform="matrix(1 0 0 1 0 0)" d="M209.983 214.2L402.203 214.2L402.203 214.2L402.203 43.20001L402.203 43.20001L209.983 43.20001z" /></clipPath><clipPath id="7"><path id="" clip-rule="evenodd" transform="matrix(1 0 0 1 0 0)" d="M209.983 214.2L402.203 214.2L402.203 214.2L402.203 43.20001L402.203 43.20001L209.983 43.20001z" /></clipPath><clipPath id="8"><path id="" clip-rule="evenodd" transform="matrix(1 0 0 1 0 0)" d="M209.983 214.2L402.203 214.2L402.203 214.2L402.203 43.20001L402.203 43.20001L209.983 43.20001z" /></clipPath><clipPath id="9"><path id="" clip-rule="evenodd" transform="matrix(1 0 0 1 0 0)" d="M209.983 214.2L402.203 214.2L402.203 214.2L402.203 43.20001L402.203 43.20001L209.983 43.20001z" /></clipPath><clipPath id="10"><path id="" clip-rule="evenodd" transform="matrix(1 0 0 1 0 0)" d="M209.983 214.2L402.203 214.2L402.203 214.2L402.203 43.20001L402.203 43.20001L209.983 43.20001z" /></clipPath><clipPath id="11"><path id="" clip-rule="evenodd" transform="matrix(1 0 0 1 0 0)" d="M209.983 214.2L402.203 214.2L402.203 214.2L402.203 43.20001L402.203 43.20001L209.983 43.20001z" /></clipPath><clipPath id="12"><path id="" clip-rule="evenodd" transform="matrix(1 0 0 1 0 0)" d="M209.983 214.2L402.203 214.2L402.203 214.2L402.203 43.20001L402.203 43.20001L209.983 43.20001z" /></clipPath><clipPath id="13"><path id="" clip-rule="evenodd" transform="matrix(1 0 0 1 0 0)" d="M209.983 214.2L402.203 214.2L402.203 214.2L402.203 43.20001L402.203 43.20001L209.983 43.20001z" /></clipPath><clipPath id="14"><path id="" clip-rule="evenodd" transform="matrix(1 0 0 1 0 0)" d="M209.983 214.2L402.203 214.2L402.203 214.2L402.203 43.20001L402.203 43.20001L209.983 43.20001z" /></clipPath><clipPath id="15"><path id="" clip-rule="evenodd" transform="matrix(1 0 0 1 0 0)" d="M224.71 214.2L387.476 214.2L387.476 214.2L387.476 43.20001L387.476 43.20001L224.71 43.20001z" /></clipPath><clipPath id="16"><path id="" clip-rule="evenodd" transform="matrix(1 0 0 1 0 0)" d="M224.71 214.2L387.476 214.2L387.476 214.2L387.476 43.20001L387.476 43.20001L224.71 43.20001z" /></clipPath><clipPath id="17"><path id="" clip-rule="evenodd" transform="matrix(1 0 0 1 0 0)" d="M224.71 214.2L387.476 214.2L387.476 214.2L387.476 43.20001L387.476 43.20001L224.71 43.20001z" /></clipPath></defs><g transform="matrix(1.333333 0 0 1.333333 0 0)"><g clip-path="url(#1)"><path id="1" transform="matrix(1 0 0 -1 0 792)" d="M54 39.5055L558 39.5055" stroke="#221E1F" stroke-width="0.5" fill="none" /><path id="30" transform="matrix(1 0 0 -1 0 792)" d="M42 66L567 66L567 748.8L42 748.8z" stroke="none" fill="#FFFFFF" fill-rule="nonzero" /><g clip-path="url(#2)"></g><g clip-path="url(#3)"></g><g clip-path="url(#4)"></g><g clip-path="url(#5)"><path id="1643" transform="matrix(1 0 0 -1 0 792)" d="M267.9734 710.8224C 267.9734 714.3694 265.0954 717.2254 261.5694 717.2254C 258.0214 717.2254 255.1664 714.3694 255.1664 710.8224C 255.1664 707.2744 258.0214 704.4184 261.5694 704.4184C 265.0954 704.4184 267.9734 707.2744 267.9734 710.8224" stroke="#D2D3D5" stroke-width="0.847" fill="#FFFFFF" fill-rule="evenodd" /><path id="1644" transform="matrix(1 0 0 -1 0 792)" d="M267.9734 710.8224C 267.9734 714.3694 265.0954 717.2254 261.5694 717.2254C 258.0214 717.2254 255.1664 714.3694 255.1664 710.8224C 255.1664 707.2744 258.0214 704.4184 261.5694 704.4184C 265.0954 704.4184 267.9734 707.2744 267.9734 710.8224" stroke="#D2D3D5" stroke-width="0.847" stroke-linecap="round" fill="none" /><path id="1645" transform="matrix(1 0 0 -1 0 792)" d="M268.3079 697.6582C 268.3079 701.2062 265.4519 704.0622 261.9039 704.0622C 258.3569 704.0622 255.5009 701.2062 255.5009 697.6582C 255.5009 694.1322 258.3569 691.2542 261.9039 691.2542C 265.4519 691.2542 268.3079 694.1322 268.3079 697.6582" stroke="#D2D3D5" stroke-width="0.847" fill="#FFFFFF" fill-rule="evenodd" /><path id="1646" transform="matrix(1 0 0 -1 0 792)" d="M268.3079 697.6582C 268.3079 701.2062 265.4519 704.0622 261.9039 704.0622C 258.3569 704.0622 255.5009 701.2062 255.5009 697.6582C 255.5009 694.1322 258.3569 691.2542 261.9039 691.2542C 265.4519 691.2542 268.3079 694.1322 268.3079 697.6582" stroke="#D2D3D5" stroke-width="0.847" stroke-linecap="round" fill="none" /><path id="1647" transform="matrix(1 0 0 -1 0 792)" d="M268.3079 684.5163C 268.3079 688.0413 265.4519 690.9193 261.9039 690.9193C 258.3569 690.9193 255.5009 688.0413 255.5009 684.5163C 255.5009 680.9683 258.3569 678.0903 261.9039 678.0903C 265.4519 678.0903 268.3079 680.9683 268.3079 684.5163" stroke="#D2D3D5" stroke-width="0.847" fill="#FFFFFF" fill-rule="evenodd" /><path id="1648" transform="matrix(1 0 0 -1 0 792)" d="M268.3079 684.5163C 268.3079 688.0413 265.4519 690.9193 261.9039 690.9193C 258.3569 690.9193 255.5009 688.0413 255.5009 684.5163C 255.5009 680.9683 258.3569 678.0903 261.9039 678.0903C 265.4519 678.0903 268.3079 680.9683 268.3079 684.5163" stroke="#D2D3D5" stroke-width="0.847" stroke-linecap="round" fill="none" /><path id="1649" transform="matrix(1 0 0 -1 0 792)" d="M268.3079 671.3521C 268.3079 674.9001 265.4519 677.7561 261.9039 677.7561C 258.3569 677.7561 255.5009 674.9001 255.5009 671.3521C 255.5009 667.8041 258.3569 664.9481 261.9039 664.9481C 265.4519 664.9481 268.3079 667.8041 268.3079 671.3521" stroke="#D2D3D5" stroke-width="0.847" fill="#FFFFFF" fill-rule="evenodd" /><path id="1650" transform="matrix(1 0 0 -1 0 792)" d="M268.3079 671.3521C 268.3079 674.9001 265.4519 677.7561 261.9039 677.7561C 258.3569 677.7561 255.5009 674.9001 255.5009 671.3521C 255.5009 667.8041 258.3569 664.9481 261.9039 664.9481C 265.4519 664.9481 268.3079 667.8041 268.3079 671.3521" stroke="#D2D3D5" stroke-width="0.847" stroke-linecap="round" fill="none" /><path id="1651" transform="matrix(1 0 0 -1 0 792)" d="M268.3079 658.1877C 268.3079 661.7357 265.4519 664.6137 261.9039 664.6137C 258.3569 664.6137 255.5009 661.7357 255.5009 658.1877C 255.5009 654.6627 258.3569 651.7847 261.9039 651.7847C 265.4519 651.7847 268.3079 654.6627 268.3079 658.1877" stroke="#D2D3D5" stroke-width="0.847" fill="#FFFFFF" fill-rule="evenodd" /><path id="1652" transform="matrix(1 0 0 -1 0 792)" d="M268.3079 658.1877C 268.3079 661.7357 265.4519 664.6137 261.9039 664.6137C 258.3569 664.6137 255.5009 661.7357 255.5009 658.1877C 255.5009 654.6627 258.3569 651.7847 261.9039 651.7847C 265.4519 651.7847 268.3079 654.6627 268.3079 658.1877" stroke="#D2D3D5" stroke-width="0.847" stroke-linecap="round" fill="none" /><path id="1653" transform="matrix(1 0 0 -1 0 792)" d="M268.3079 644.7115C 268.3079 648.2365 265.4519 651.1145 261.9039 651.1145C 258.3569 651.1145 255.5009 648.2365 255.5009 644.7115C 255.5009 641.1635 258.3569 638.2855 261.9039 638.2855C 265.4519 638.2855 268.3079 641.1635 268.3079 644.7115" stroke="#D2D3D5" stroke-width="0.847" fill="#FFFFFF" fill-rule="evenodd" /><path id="1654" transform="matrix(1 0 0 -1 0 792)" d="M268.3079 644.7115C 268.3079 648.2365 265.4519 651.1145 261.9039 651.1145C 258.3569 651.1145 255.5009 648.2365 255.5009 644.7115C 255.5009 641.1635 258.3569 638.2855 261.9039 638.2855C 265.4519 638.2855 268.3079 641.1635 268.3079 644.7115" stroke="#D2D3D5" stroke-width="0.847" stroke-linecap="round" fill="none" /><path id="1655" transform="matrix(1 0 0 -1 0 792)" d="M268.3079 632.0599C 268.3079 635.5849 265.4519 638.4639 261.9039 638.4639C 258.3569 638.4639 255.5009 635.5849 255.5009 632.0599C 255.5009 628.5129 258.3569 625.6569 261.9039 625.6569C 265.4519 625.6569 268.3079 628.5129 268.3079 632.0599" stroke="#D2D3D5" stroke-width="0.847" fill="#FFFFFF" fill-rule="evenodd" /><path id="1656" transform="matrix(1 0 0 -1 0 792)" d="M268.3079 632.0599C 268.3079 635.5849 265.4519 638.4639 261.9039 638.4639C 258.3569 638.4639 255.5009 635.5849 255.5009 632.0599C 255.5009 628.5129 258.3569 625.6569 261.9039 625.6569C 265.4519 625.6569 268.3079 628.5129 268.3079 632.0599" stroke="#D2D3D5" stroke-width="0.847" stroke-linecap="round" fill="none" /><path id="1657" transform="matrix(1 0 0 -1 0 792)" d="M268.3079 618.8961C 268.3079 622.4441 265.4519 625.2991 261.9039 625.2991C 258.3569 625.2991 255.5009 622.4441 255.5009 618.8961C 255.5009 615.3711 258.3569 612.4931 261.9039 612.4931C 265.4519 612.4931 268.3079 615.3711 268.3079 618.8961" stroke="#D2D3D5" stroke-width="0.847" fill="#FFFFFF" fill-rule="evenodd" /><path id="1658" transform="matrix(1 0 0 -1 0 792)" d="M268.3079 618.8961C 268.3079 622.4441 265.4519 625.2991 261.9039 625.2991C 258.3569 625.2991 255.5009 622.4441 255.5009 618.8961C 255.5009 615.3711 258.3569 612.4931 261.9039 612.4931C 265.4519 612.4931 268.3079 615.3711 268.3079 618.8961" stroke="#D2D3D5" stroke-width="0.847" stroke-linecap="round" fill="none" /></g><path id="1659" transform="matrix(1 0 0 -1 0 792)" d="M234.572 748.2621L238.633 744.2231L238.633 744.2231L225.134 730.7251L225.134 730.7251L231.872 723.9641L231.872 723.9641L285.845 723.9641L285.845 723.9641L285.845 676.7521L285.845 676.7521L326.319 676.9751L326.319 676.9751L326.319 723.9641L326.319 723.9641L382.993 723.9641L382.993 723.9641L378.954 728.0251L378.954 728.0251L387.053 736.1241L387.053 736.1241L377.593 745.5621L377.593 745.5621L380.293 748.2621z" stroke="none" fill="#D2D3D5" fill-rule="evenodd" /><g clip-path="url(#6)"><path id="1660" transform="matrix(1 0 0 -1 0 792)" d="M356.686 710.8224C 356.686 714.3694 353.809 717.2254 350.283 717.2254C 346.735 717.2254 343.879 714.3694 343.879 710.8224C 343.879 707.2744 346.735 704.4184 350.283 704.4184C 353.809 704.4184 356.686 707.2744 356.686 710.8224" stroke="#D2D3D5" stroke-width="0.847" fill="#FFFFFF" fill-rule="evenodd" /><path id="1661" transform="matrix(1 0 0 -1 0 792)" d="M356.686 710.8224C 356.686 714.3694 353.809 717.2254 350.283 717.2254C 346.735 717.2254 343.879 714.3694 343.879 710.8224C 343.879 707.2744 346.735 704.4184 350.283 704.4184C 353.809 704.4184 356.686 707.2744 356.686 710.8224" stroke="#D2D3D5" stroke-width="0.847" stroke-linecap="round" fill="none" /><path id="1662" transform="matrix(1 0 0 -1 0 792)" d="M357.0204 697.6582C 357.0204 701.2062 354.1654 704.0622 350.6174 704.0622C 347.0694 704.0622 344.2134 701.2062 344.2134 697.6582C 344.2134 694.1322 347.0694 691.2542 350.6174 691.2542C 354.1654 691.2542 357.0204 694.1322 357.0204 697.6582" stroke="#D2D3D5" stroke-width="0.847" fill="#FFFFFF" fill-rule="evenodd" /><path id="1663" transform="matrix(1 0 0 -1 0 792)" d="M357.0204 697.6582C 357.0204 701.2062 354.1654 704.0622 350.6174 704.0622C 347.0694 704.0622 344.2134 701.2062 344.2134 697.6582C 344.2134 694.1322 347.0694 691.2542 350.6174 691.2542C 354.1654 691.2542 357.0204 694.1322 357.0204 697.6582" stroke="#D2D3D5" stroke-width="0.847" stroke-linecap="round" fill="none" /><path id="1664" transform="matrix(1 0 0 -1 0 792)" d="M357.0204 684.5163C 357.0204 688.0413 354.1654 690.9193 350.6174 690.9193C 347.0694 690.9193 344.2134 688.0413 344.2134 684.5163C 344.2134 680.9683 347.0694 678.0903 350.6174 678.0903C 354.1654 678.0903 357.0204 680.9683 357.0204 684.5163" stroke="#D2D3D5" stroke-width="0.847" fill="#FFFFFF" fill-rule="evenodd" /><path id="1665" transform="matrix(1 0 0 -1 0 792)" d="M357.0204 684.5163C 357.0204 688.0413 354.1654 690.9193 350.6174 690.9193C 347.0694 690.9193 344.2134 688.0413 344.2134 684.5163C 344.2134 680.9683 347.0694 678.0903 350.6174 678.0903C 354.1654 678.0903 357.0204 680.9683 357.0204 684.5163" stroke="#D2D3D5" stroke-width="0.847" stroke-linecap="round" fill="none" /><path id="1666" transform="matrix(1 0 0 -1 0 792)" d="M357.0204 671.3521C 357.0204 674.9001 354.1654 677.7561 350.6174 677.7561C 347.0694 677.7561 344.2134 674.9001 344.2134 671.3521C 344.2134 667.8041 347.0694 664.9481 350.6174 664.9481C 354.1654 664.9481 357.0204 667.8041 357.0204 671.3521" stroke="#D2D3D5" stroke-width="0.847" fill="#FFFFFF" fill-rule="evenodd" /><path id="1667" transform="matrix(1 0 0 -1 0 792)" d="M357.0204 671.3521C 357.0204 674.9001 354.1654 677.7561 350.6174 677.7561C 347.0694 677.7561 344.2134 674.9001 344.2134 671.3521C 344.2134 667.8041 347.0694 664.9481 350.6174 664.9481C 354.1654 664.9481 357.0204 667.8041 357.0204 671.3521" stroke="#D2D3D5" stroke-width="0.847" stroke-linecap="round" fill="none" /><path id="1668" transform="matrix(1 0 0 -1 0 792)" d="M357.0204 658.1877C 357.0204 661.7357 354.1654 664.6137 350.6174 664.6137C 347.0694 664.6137 344.2134 661.7357 344.2134 658.1877C 344.2134 654.6627 347.0694 651.7847 350.6174 651.7847C 354.1654 651.7847 357.0204 654.6627 357.0204 658.1877" stroke="#D2D3D5" stroke-width="0.847" fill="#FFFFFF" fill-rule="evenodd" /><path id="1669" transform="matrix(1 0 0 -1 0 792)" d="M357.0204 658.1877C 357.0204 661.7357 354.1654 664.6137 350.6174 664.6137C 347.0694 664.6137 344.2134 661.7357 344.2134 658.1877C 344.2134 654.6627 347.0694 651.7847 350.6174 651.7847C 354.1654 651.7847 357.0204 654.6627 357.0204 658.1877" stroke="#D2D3D5" stroke-width="0.847" stroke-linecap="round" fill="none" /><path id="1670" transform="matrix(1 0 0 -1 0 792)" d="M357.0204 644.7115C 357.0204 648.2365 354.1654 651.1145 350.6174 651.1145C 347.0694 651.1145 344.2134 648.2365 344.2134 644.7115C 344.2134 641.1635 347.0694 638.2855 350.6174 638.2855C 354.1654 638.2855 357.0204 641.1635 357.0204 644.7115" stroke="#D2D3D5" stroke-width="0.847" fill="#FFFFFF" fill-rule="evenodd" /><path id="1671" transform="matrix(1 0 0 -1 0 792)" d="M357.0204 644.7115C 357.0204 648.2365 354.1654 651.1145 350.6174 651.1145C 347.0694 651.1145 344.2134 648.2365 344.2134 644.7115C 344.2134 641.1635 347.0694 638.2855 350.6174 638.2855C 354.1654 638.2855 357.0204 641.1635 357.0204 644.7115" stroke="#D2D3D5" stroke-width="0.847" stroke-linecap="round" fill="none" /><path id="1672" transform="matrix(1 0 0 -1 0 792)" d="M357.0204 632.0599C 357.0204 635.5849 354.1654 638.4639 350.6174 638.4639C 347.0694 638.4639 344.2134 635.5849 344.2134 632.0599C 344.2134 628.5129 347.0694 625.6569 350.6174 625.6569C 354.1654 625.6569 357.0204 628.5129 357.0204 632.0599" stroke="#D2D3D5" stroke-width="0.847" fill="#FFFFFF" fill-rule="evenodd" /><path id="1673" transform="matrix(1 0 0 -1 0 792)" d="M357.0204 632.0599C 357.0204 635.5849 354.1654 638.4639 350.6174 638.4639C 347.0694 638.4639 344.2134 635.5849 344.2134 632.0599C 344.2134 628.5129 347.0694 625.6569 350.6174 625.6569C 354.1654 625.6569 357.0204 628.5129 357.0204 632.0599" stroke="#D2D3D5" stroke-width="0.847" stroke-linecap="round" fill="none" /><path id="1674" transform="matrix(1 0 0 -1 0 792)" d="M357.0204 618.8961C 357.0204 622.4441 354.1654 625.2991 350.6174 625.2991C 347.0694 625.2991 344.2134 622.4441 344.2134 618.8961C 344.2134 615.3711 347.0694 612.4931 350.6174 612.4931C 354.1654 612.4931 357.0204 615.3711 357.0204 618.8961" stroke="#D2D3D5" stroke-width="0.847" fill="#FFFFFF" fill-rule="evenodd" /><path id="1675" transform="matrix(1 0 0 -1 0 792)" d="M357.0204 618.8961C 357.0204 622.4441 354.1654 625.2991 350.6174 625.2991C 347.0694 625.2991 344.2134 622.4441 344.2134 618.8961C 344.2134 615.3711 347.0694 612.4931 350.6174 612.4931C 354.1654 612.4931 357.0204 615.3711 357.0204 618.8961" stroke="#D2D3D5" stroke-width="0.847" stroke-linecap="round" fill="none" /><path id="1676" transform="matrix(1 0 0 -1 0 792)" d="M342.5179 710.5768C 342.5179 713.9688 339.7739 716.7128 336.3819 716.7128C 332.9899 716.7128 330.2469 713.9688 330.2469 710.5768C 330.2469 707.1858 332.9899 704.4408 336.3819 704.4408C 339.7739 704.4408 342.5179 707.1858 342.5179 710.5768" stroke="#BCBDC0" stroke-width="0.847" fill="none" /></g><path id="1677" transform="matrix(1 0 0 -1 0 792)" d="M340.2416 714.414L332.5666 706.739M332.5446 714.459L340.2196 706.784" stroke="#BCBDC0" stroke-width="2.696" stroke-linecap="round" fill="none" /><g clip-path="url(#7)"><path id="1678" transform="matrix(1 0 0 -1 0 792)" d="M343.1877 697.5019C 343.1877 701.0269 340.3317 703.9059 336.7837 703.9059C 333.2367 703.9059 330.3807 701.0269 330.3807 697.5019C 330.3807 693.9549 333.2367 691.0759 336.7837 691.0759C 340.3317 691.0759 343.1877 693.9549 343.1877 697.5019" stroke="#BCBDC0" stroke-width="0.847" fill="#FFFFFF" fill-rule="evenodd" /><path id="1679" transform="matrix(1 0 0 -1 0 792)" d="M343.1877 697.5019C 343.1877 701.0269 340.3317 703.9059 336.7837 703.9059C 333.2367 703.9059 330.3807 701.0269 330.3807 697.5019C 330.3807 693.9549 333.2367 691.0759 336.7837 691.0759C 340.3317 691.0759 343.1877 693.9549 343.1877 697.5019" stroke="#BCBDC0" stroke-width="0.847" stroke-linecap="round" fill="none" /></g><path id="1680" transform="matrix(1 0 0 -1 0 792)" d="M340.8003 701.4962L332.7903 693.4852M332.7903 701.5402L340.8003 693.5302" stroke="#BCBDC0" stroke-width="2.696" stroke-linecap="round" fill="none" /><g clip-path="url(#8)"><path id="1681" transform="matrix(1 0 0 -1 0 792)" d="M343.1877 684.0032C 343.1877 687.5511 340.3317 690.4062 336.7837 690.4062C 333.2367 690.4062 330.3807 687.5511 330.3807 684.0032C 330.3807 680.4552 333.2367 677.5992 336.7837 677.5992C 340.3317 677.5992 343.1877 680.4552 343.1877 684.0032" stroke="#BCBDC0" stroke-width="0.847" fill="#FFFFFF" fill-rule="evenodd" /><path id="1682" transform="matrix(1 0 0 -1 0 792)" d="M343.1877 684.0032C 343.1877 687.5511 340.3317 690.4062 336.7837 690.4062C 333.2367 690.4062 330.3807 687.5511 330.3807 684.0032C 330.3807 680.4552 333.2367 677.5992 336.7837 677.5992C 340.3317 677.5992 343.1877 680.4552 343.1877 684.0032" stroke="#BCBDC0" stroke-width="0.847" stroke-linecap="round" fill="none" /></g><path id="1683" transform="matrix(1 0 0 -1 0 792)" d="M340.8003 687.9968L332.7903 679.9868M332.7903 688.0638L340.8003 680.0538" stroke="#BCBDC0" stroke-width="2.696" stroke-linecap="round" fill="none" /><g clip-path="url(#9)"><path id="1684" transform="matrix(1 0 0 -1 0 792)" d="M343.1877 670.5041C 343.1877 674.0521 340.3317 676.9081 336.7837 676.9081C 333.2367 676.9081 330.3807 674.0521 330.3807 670.5041C 330.3807 666.9791 333.2367 664.1011 336.7837 664.1011C 340.3317 664.1011 343.1877 666.9791 343.1877 670.5041" stroke="#BCBDC0" stroke-width="0.847" fill="#FFFFFF" fill-rule="evenodd" /></g><path id="1685" transform="matrix(1 0 0 -1 0 792)" d="M340.8003 674.5202L332.7903 666.5102M332.7903 674.5652L340.8003 666.5552" stroke="#BCBDC0" stroke-width="2.696" stroke-linecap="round" fill="none" /><g clip-path="url(#10)"><path id="1686" transform="matrix(1 0 0 -1 0 792)" d="M343.1877 657.6974C 343.1877 661.2224 340.3317 664.1004 336.7837 664.1004C 333.2367 664.1004 330.3807 661.2224 330.3807 657.6974C 330.3807 654.1494 333.2367 651.2934 336.7837 651.2934C 340.3317 651.2934 343.1877 654.1494 343.1877 657.6974" stroke="#BCBDC0" stroke-width="0.847" fill="none" /></g><path id="1687" transform="matrix(1 0 0 -1 0 792)" d="M340.8003 661.6907L332.7903 653.6807M332.7903 661.7357L340.8003 653.7257" stroke="#BCBDC0" stroke-width="2.696" stroke-linecap="round" fill="none" /><g clip-path="url(#11)"><path id="1688" transform="matrix(1 0 0 -1 0 792)" d="M343.1877 644.8672C 343.1877 648.4152 340.3317 651.2932 336.7837 651.2932C 333.2367 651.2932 330.3807 648.4152 330.3807 644.8672C 330.3807 641.3422 333.2367 638.4642 336.7837 638.4642C 340.3317 638.4642 343.1877 641.3422 343.1877 644.8672" stroke="#BCBDC0" stroke-width="0.847" fill="#FFFFFF" fill-rule="evenodd" /><path id="1689" transform="matrix(1 0 0 -1 0 792)" d="M343.1877 644.8672C 343.1877 648.4152 340.3317 651.2932 336.7837 651.2932C 333.2367 651.2932 330.3807 648.4152 330.3807 644.8672C 330.3807 641.3422 333.2367 638.4642 336.7837 638.4642C 340.3317 638.4642 343.1877 641.3422 343.1877 644.8672" stroke="#BCBDC0" stroke-width="0.847" stroke-linecap="round" fill="none" /></g><path id="1690" transform="matrix(1 0 0 -1 0 792)" d="M340.8003 648.8833L332.7903 640.8743M332.7903 648.9283L340.8003 640.9183" stroke="#BCBDC0" stroke-width="2.696" stroke-linecap="round" fill="none" /><g clip-path="url(#12)"><path id="1691" transform="matrix(1 0 0 -1 0 792)" d="M343.1877 632.0599C 343.1877 635.5849 340.3317 638.4639 336.7837 638.4639C 333.2367 638.4639 330.3807 635.5849 330.3807 632.0599C 330.3807 628.5129 333.2367 625.6569 336.7837 625.6569C 340.3317 625.6569 343.1877 628.5129 343.1877 632.0599" stroke="#BCBDC0" stroke-width="0.847" fill="#FFFFFF" fill-rule="evenodd" /><path id="1692" transform="matrix(1 0 0 -1 0 792)" d="M343.1877 632.0599C 343.1877 635.5849 340.3317 638.4639 336.7837 638.4639C 333.2367 638.4639 330.3807 635.5849 330.3807 632.0599C 330.3807 628.5129 333.2367 625.6569 336.7837 625.6569C 340.3317 625.6569 343.1877 628.5129 343.1877 632.0599" stroke="#BCBDC0" stroke-width="0.847" stroke-linecap="round" fill="none" /></g><path id="1693" transform="matrix(1 0 0 -1 0 792)" d="M340.8003 636.054L332.7903 628.045M332.7903 636.099L340.8003 628.089" stroke="#BCBDC0" stroke-width="2.696" stroke-linecap="round" fill="none" /><g clip-path="url(#13)"><path id="1694" transform="matrix(1 0 0 -1 0 792)" d="M343.1877 618.8961C 343.1877 622.4441 340.3317 625.2991 336.7837 625.2991C 333.2367 625.2991 330.3807 622.4441 330.3807 618.8961C 330.3807 615.3711 333.2367 612.4931 336.7837 612.4931C 340.3317 612.4931 343.1877 615.3711 343.1877 618.8961" stroke="#BCBDC0" stroke-width="0.847" fill="none" /></g><path id="1695" transform="matrix(1 0 0 -1 0 792)" d="M340.8003 622.9122L332.7903 614.9022M332.7903 622.9572L340.8003 614.9472" stroke="#BCBDC0" stroke-width="2.696" stroke-linecap="round" fill="none" /><g clip-path="url(#14)"><path id="1696" transform="matrix(1 0 0 -1 0 792)" d="M281.8069 710.3091C 281.8069 713.8571 278.9289 716.7121 275.4029 716.7121C 271.8549 716.7121 268.9769 713.8571 268.9769 710.3091C 268.9769 706.7831 271.8549 703.9051 275.4029 703.9051C 278.9289 703.9051 281.8069 706.7831 281.8069 710.3091" stroke="#BCBDC0" stroke-width="0.847" fill="none" /><path id="1697" transform="matrix(1 0 0 -1 0 792)" d="M277.5227 710.3091C 277.5227 711.4911 276.5857 712.4511 275.4037 712.4511C 274.2207 712.4511 273.2607 711.4911 273.2607 710.3091C 273.2607 709.1261 274.2207 708.1671 275.4037 708.1671C 276.5857 708.1671 277.5227 709.1261 277.5227 710.3091" stroke="#BCBDC0" stroke-width="0.847" fill="#BCBDC0" fill-rule="evenodd" /><path id="1698" transform="matrix(1 0 0 -1 0 792)" d="M277.5227 710.3091C 277.5227 711.4911 276.5857 712.4511 275.4037 712.4511C 274.2207 712.4511 273.2607 711.4911 273.2607 710.3091C 273.2607 709.1261 274.2207 708.1671 275.4037 708.1671C 276.5857 708.1671 277.5227 709.1261 277.5227 710.3091" stroke="#BCBDC0" stroke-width="0.293" stroke-linecap="round" fill="none" /><path id="1699" transform="matrix(1 0 0 -1 0 792)" d="M282.1414 697.1674C 282.1414 700.6924 279.2634 703.5704 275.7374 703.5704C 272.1904 703.5704 269.3344 700.6924 269.3344 697.1674C 269.3344 693.6194 272.1904 690.7414 275.7374 690.7414C 279.2634 690.7414 282.1414 693.6194 282.1414 697.1674" stroke="#BCBDC0" stroke-width="0.847" fill="none" /><path id="1700" transform="matrix(1 0 0 -1 0 792)" d="M277.8576 697.1674C 277.8576 698.3274 276.9206 699.2864 275.7376 699.2864C 274.5556 699.2864 273.5956 698.3274 273.5956 697.1674C 273.5956 695.9844 274.5556 695.0254 275.7376 695.0254C 276.9206 695.0254 277.8576 695.9844 277.8576 697.1674" stroke="#BCBDC0" stroke-width="0.847" fill="#221E1F" fill-rule="evenodd" /><path id="1701" transform="matrix(1 0 0 -1 0 792)" d="M277.8576 697.1674C 277.8576 698.3274 276.9206 699.2864 275.7376 699.2864C 274.5556 699.2864 273.5956 698.3274 273.5956 697.1674C 273.5956 695.9844 274.5556 695.0254 275.7376 695.0254C 276.9206 695.0254 277.8576 695.9844 277.8576 697.1674" stroke="#BCBDC0" stroke-width="0.293" fill="#BCBDC0" fill-rule="nonzero" /><path id="1702" transform="matrix(1 0 0 -1 0 792)" d="M282.1414 684.0032C 282.1414 687.5511 279.2634 690.4062 275.7374 690.4062C 272.1904 690.4062 269.3344 687.5511 269.3344 684.0032C 269.3344 680.4552 272.1904 677.5992 275.7374 677.5992C 279.2634 677.5992 282.1414 680.4552 282.1414 684.0032" stroke="#BCBDC0" stroke-width="0.847" fill="none" /><path id="1703" transform="matrix(1 0 0 -1 0 792)" d="M277.8576 684.0032C 277.8576 685.1852 276.9206 686.1452 275.7376 686.1452C 274.5556 686.1452 273.5956 685.1852 273.5956 684.0032C 273.5956 682.8202 274.5556 681.8611 275.7376 681.8611C 276.9206 681.8611 277.8576 682.8202 277.8576 684.0032" stroke="#BCBDC0" stroke-width="0.847" fill="#221E1F" fill-rule="evenodd" /><path id="1704" transform="matrix(1 0 0 -1 0 792)" d="M277.8576 684.0032C 277.8576 685.1852 276.9206 686.1452 275.7376 686.1452C 274.5556 686.1452 273.5956 685.1852 273.5956 684.0032C 273.5956 682.8202 274.5556 681.8611 275.7376 681.8611C 276.9206 681.8611 277.8576 682.8202 277.8576 684.0032" stroke="#BCBDC0" stroke-width="0.293" fill="#BCBDC0" fill-rule="nonzero" /><path id="1705" transform="matrix(1 0 0 -1 0 792)" d="M282.1414 670.839C 282.1414 674.387 279.2634 677.265 275.7374 677.265C 272.1904 677.265 269.3344 674.387 269.3344 670.839C 269.3344 667.313 272.1904 664.435 275.7374 664.435C 279.2634 664.435 282.1414 667.313 282.1414 670.839" stroke="#BCBDC0" stroke-width="0.847" fill="#FFFFFF" fill-rule="evenodd" /><path id="1706" transform="matrix(1 0 0 -1 0 792)" d="M277.8576 670.839C 277.8576 672.021 276.9206 672.981 275.7376 672.981C 274.5556 672.981 273.5956 672.021 273.5956 670.839C 273.5956 669.656 274.5556 668.719 275.7376 668.719C 276.9206 668.719 277.8576 669.656 277.8576 670.839" stroke="none" fill="#221E1F" fill-rule="evenodd" /><path id="1707" transform="matrix(1 0 0 -1 0 792)" d="M277.8576 670.839C 277.8576 672.021 276.9206 672.981 275.7376 672.981C 274.5556 672.981 273.5956 672.021 273.5956 670.839C 273.5956 669.656 274.5556 668.719 275.7376 668.719C 276.9206 668.719 277.8576 669.656 277.8576 670.839" stroke="#BCBDC0" stroke-width="0.293" fill="#BCBDC0" fill-rule="nonzero" /><path id="1708" transform="matrix(1 0 0 -1 0 792)" d="M282.1414 657.6974C 282.1414 661.2224 279.2634 664.1004 275.7374 664.1004C 272.1904 664.1004 269.3344 661.2224 269.3344 657.6974C 269.3344 654.1494 272.1904 651.2934 275.7374 651.2934C 279.2634 651.2934 282.1414 654.1494 282.1414 657.6974" stroke="#BCBDC0" stroke-width="0.847" fill="#FFFFFF" fill-rule="evenodd" /><path id="1709" transform="matrix(1 0 0 -1 0 792)" d="M277.8576 657.6974C 277.8576 658.8794 276.9206 659.8384 275.7376 659.8384C 274.5556 659.8384 273.5956 658.8794 273.5956 657.6974C 273.5956 656.5144 274.5556 655.5554 275.7376 655.5554C 276.9206 655.5554 277.8576 656.5144 277.8576 657.6974" stroke="none" fill="#221E1F" fill-rule="evenodd" /><path id="1710" transform="matrix(1 0 0 -1 0 792)" d="M277.8576 657.6974C 277.8576 658.8794 276.9206 659.8384 275.7376 659.8384C 274.5556 659.8384 273.5956 658.8794 273.5956 657.6974C 273.5956 656.5144 274.5556 655.5554 275.7376 655.5554C 276.9206 655.5554 277.8576 656.5144 277.8576 657.6974" stroke="#BCBDC0" stroke-width="0.293" fill="#BCBDC0" fill-rule="nonzero" /><path id="1711" transform="matrix(1 0 0 -1 0 792)" d="M282.1414 644.5328C 282.1414 648.0798 279.2634 650.9358 275.7374 650.9358C 272.1904 650.9358 269.3344 648.0798 269.3344 644.5328C 269.3344 641.0078 272.1904 638.1298 275.7374 638.1298C 279.2634 638.1298 282.1414 641.0078 282.1414 644.5328" stroke="#BCBDC0" stroke-width="0.847" stroke-linecap="round" fill="none" /><path id="1712" transform="matrix(1 0 0 -1 0 792)" d="M277.8576 644.5328C 277.8576 645.7158 276.9206 646.6748 275.7376 646.6748C 274.5556 646.6748 273.5956 645.7158 273.5956 644.5328C 273.5956 643.3508 274.5556 642.3907 275.7376 642.3907C 276.9206 642.3907 277.8576 643.3508 277.8576 644.5328" stroke="#BCBDC0" stroke-width="0.847" fill="#BCBDC0" fill-rule="evenodd" /><path id="1713" transform="matrix(1 0 0 -1 0 792)" d="M277.8576 644.5328C 277.8576 645.7158 276.9206 646.6748 275.7376 646.6748C 274.5556 646.6748 273.5956 645.7158 273.5956 644.5328C 273.5956 643.3508 274.5556 642.3907 275.7376 642.3907C 276.9206 642.3907 277.8576 643.3508 277.8576 644.5328" stroke="#BCBDC0" stroke-width="0.293" stroke-linecap="round" fill="none" /><path id="1714" transform="matrix(1 0 0 -1 0 792)" d="M285.8452 676.7516C 276.7192 676.7516 268.7092 672.6686 266.3222 666.8006" stroke="#EE1C23" stroke-width="1.27" fill="none" /><path id="1715" transform="matrix(1 0 0 -1 0 792)" d="M268.4662 666.8672L265.3532 663.2522L265.3532 663.2522L264.5842 667.3802z" stroke="none" fill="#EE1C23" fill-rule="evenodd" /><path id="1716" transform="matrix(1 0 0 -1 0 792)" d="M285.8676 650.1113C 274.6896 650.1113 265.6306 656.1573 265.6306 663.6093" stroke="#EE1C23" stroke-width="1.27" stroke-linecap="round" fill="none" /><path id="1717" transform="matrix(1 0 0 -1 0 792)" d="M288.5451 676.7516C 282.4761 676.7516 277.1431 672.6906 275.5371 666.8446" stroke="#EE1C23" stroke-width="1.27" fill="none" /><path id="1718" transform="matrix(1 0 0 -1 0 792)" d="M277.6311 666.9789L274.8871 663.2519L274.8871 663.2519L273.7151 667.3359z" stroke="none" fill="#EE1C23" fill-rule="evenodd" /><path id="1719" transform="matrix(1 0 0 -1 0 792)" d="M288.5899 649.754C 281.1379 649.754 275.0909 655.8 275.0909 663.252" stroke="#EE1C23" stroke-width="1.27" stroke-linecap="round" fill="none" /><path id="1720" transform="matrix(1 0 0 -1 0 792)" d="M291.245 676.7516C 287.92 676.7516 284.998 672.7136 284.105 666.8676" stroke="#EE1C23" stroke-width="1.27" fill="none" /><path id="1721" transform="matrix(1 0 0 -1 0 792)" d="M286.1826 667.0906L283.8056 663.2526L283.8056 663.2526L282.2666 667.2916z" stroke="none" fill="#EE1C23" fill-rule="evenodd" /><path id="1722" transform="matrix(1 0 0 -1 0 792)" d="M291.2892 649.754C 287.1842 649.754 283.8592 655.8 283.8592 663.252" stroke="#EE1C23" stroke-width="1.27" fill="none" /><path id="1723" transform="matrix(1 0 0 -1 0 792)" d="M294.6139 676.7516L294.6139 666.8676" stroke="#EE1C23" stroke-width="1.27" fill="none" /><path id="1724" transform="matrix(1 0 0 -1 0 792)" d="M296.6535 667.2018L294.6785 663.2518L294.6785 663.2518L292.7045 667.2018z" stroke="none" fill="#EE1C23" fill-rule="evenodd" /><path id="1725" transform="matrix(1 0 0 -1 0 792)" d="M294.6139 663.2523L294.6139 649.7543" stroke="#EE1C23" stroke-width="1.27" fill="none" /><path id="1726" transform="matrix(1 0 0 -1 0 792)" d="M302.7132 676.7516L302.7132 666.8676" stroke="#EE1C23" stroke-width="1.27" fill="none" /><path id="1727" transform="matrix(1 0 0 -1 0 792)" d="M304.7805 667.2018L302.8055 663.2518L302.8055 663.2518L300.8315 667.2018z" stroke="none" fill="#EE1C23" fill-rule="evenodd" /><path id="1728" transform="matrix(1 0 0 -1 0 792)" d="M302.7132 663.2523L302.7132 649.7543" stroke="#EE1C23" stroke-width="1.27" fill="none" /><path id="1729" transform="matrix(1 0 0 -1 0 792)" d="M309.4745 676.7516L309.4745 666.8676" stroke="#EE1C23" stroke-width="1.27" fill="none" /><path id="1730" transform="matrix(1 0 0 -1 0 792)" d="M311.2883 667.2018L309.3483 663.2518L309.3483 663.2518L307.3733 667.2018z" stroke="none" fill="#EE1C23" fill-rule="evenodd" /><path id="1731" transform="matrix(1 0 0 -1 0 792)" d="M309.4745 663.2523L309.4745 649.7543" stroke="#EE1C23" stroke-width="1.27" fill="none" /><path id="1732" transform="matrix(1 0 0 -1 0 792)" d="M325.9848 676.7516C 335.1328 676.7516 343.1208 672.6686 345.5308 666.8006" stroke="#EE1C23" stroke-width="1.27" fill="none" /><path id="1733" transform="matrix(1 0 0 -1 0 792)" d="M343.3977 666.8672L346.4777 663.2522L346.4777 663.2522L347.2467 667.3802z" stroke="none" fill="#EE1C23" fill-rule="evenodd" /><path id="1734" transform="matrix(1 0 0 -1 0 792)" d="M325.9848 650.1113C 337.1628 650.1113 346.2228 656.1573 346.2228 663.6093" stroke="#EE1C23" stroke-width="1.27" stroke-linecap="round" fill="none" /><path id="1735" transform="matrix(1 0 0 -1 0 792)" d="M323.2852 676.7516C 329.3762 676.7516 334.6872 672.6906 336.2922 666.8446" stroke="#EE1C23" stroke-width="1.27" fill="none" /><path id="1736" transform="matrix(1 0 0 -1 0 792)" d="M334.2332 666.9789L336.9762 663.2519L336.9762 663.2519L338.1482 667.3359z" stroke="none" fill="#EE1C23" fill-rule="evenodd" /><path id="1737" transform="matrix(1 0 0 -1 0 792)" d="M323.2632 649.754C 330.7152 649.754 336.7392 655.8 336.7392 663.252" stroke="#EE1C23" stroke-width="1.27" stroke-linecap="round" fill="none" /><path id="1738" transform="matrix(1 0 0 -1 0 792)" d="M320.5858 676.7516C 323.9318 676.7516 326.8548 672.7136 327.7478 666.8676" stroke="#EE1C23" stroke-width="1.27" fill="none" /><path id="1739" transform="matrix(1 0 0 -1 0 792)" d="M325.647 667.0906L328.058 663.2526L328.058 663.2526L329.596 667.2916z" stroke="none" fill="#EE1C23" fill-rule="evenodd" /><path id="1740" transform="matrix(1 0 0 -1 0 792)" d="M320.5629 649.754C 324.6469 649.754 327.9709 655.8 327.9709 663.252" stroke="#EE1C23" stroke-width="1.27" fill="none" /><path id="1741" transform="matrix(1 0 0 -1 0 792)" d="M317.2157 676.7516L317.2157 666.8676" stroke="#EE1C23" stroke-width="1.27" fill="none" /><path id="1742" transform="matrix(1 0 0 -1 0 792)" d="M315.1758 667.2018L317.1508 663.2518L317.1508 663.2518L319.1248 667.2018z" stroke="none" fill="#EE1C23" fill-rule="evenodd" /><path id="1743" transform="matrix(1 0 0 -1 0 792)" d="M317.2157 663.2523L317.2157 649.7543" stroke="#EE1C23" stroke-width="1.27" fill="none" /><path id="1744" transform="matrix(1 0 0 -1 0 792)" d="M282.476 631.5475C 282.476 635.0945 279.62 637.9505 276.073 637.9505C 272.525 637.9505 269.669 635.0945 269.669 631.5475C 269.669 627.9995 272.525 625.1435 276.073 625.1435C 279.62 625.1435 282.476 627.9995 282.476 631.5475" stroke="#BCBDC0" stroke-width="0.847" fill="#FFFFFF" fill-rule="evenodd" /><path id="1745" transform="matrix(1 0 0 -1 0 792)" d="M282.476 631.5475C 282.476 635.0945 279.62 637.9505 276.073 637.9505C 272.525 637.9505 269.669 635.0945 269.669 631.5475C 269.669 627.9995 272.525 625.1435 276.073 625.1435C 279.62 625.1435 282.476 627.9995 282.476 631.5475" stroke="#BCBDC0" stroke-width="0.847" stroke-linecap="round" fill="none" /><path id="1746" transform="matrix(1 0 0 -1 0 792)" d="M278.2144 631.5475C 278.2144 632.7295 277.2554 633.6885 276.0724 633.6885C 274.8904 633.6885 273.9304 632.7295 273.9304 631.5475C 273.9304 630.3645 274.8904 629.4055 276.0724 629.4055C 277.2554 629.4055 278.2144 630.3645 278.2144 631.5475" stroke="#BCBDC0" stroke-width="0.847" fill="#BCBDC0" fill-rule="evenodd" /><path id="1747" transform="matrix(1 0 0 -1 0 792)" d="M278.2144 631.5475C 278.2144 632.7295 277.2554 633.6885 276.0724 633.6885C 274.8904 633.6885 273.9304 632.7295 273.9304 631.5475C 273.9304 630.3645 274.8904 629.4055 276.0724 629.4055C 277.2554 629.4055 278.2144 630.3645 278.2144 631.5475" stroke="#BCBDC0" stroke-width="0.293" stroke-linecap="round" fill="none" /><path id="1748" transform="matrix(1 0 0 -1 0 792)" d="M282.476 618.3829C 282.476 621.9299 279.62 624.8089 276.073 624.8089C 272.525 624.8089 269.669 621.9299 269.669 618.3829C 269.669 614.8578 272.525 611.9789 276.073 611.9789C 279.62 611.9789 282.476 614.8578 282.476 618.3829" stroke="#BCBDC0" stroke-width="0.847" fill="#FFFFFF" fill-rule="evenodd" /><path id="1749" transform="matrix(1 0 0 -1 0 792)" d="M282.476 618.3829C 282.476 621.9299 279.62 624.8089 276.073 624.8089C 272.525 624.8089 269.669 621.9299 269.669 618.3829C 269.669 614.8578 272.525 611.9789 276.073 611.9789C 279.62 611.9789 282.476 614.8578 282.476 618.3829" stroke="#BCBDC0" stroke-width="0.847" stroke-linecap="round" fill="none" /><path id="1750" transform="matrix(1 0 0 -1 0 792)" d="M278.2144 618.3829C 278.2144 619.5649 277.2554 620.5249 276.0724 620.5249C 274.8904 620.5249 273.9304 619.5649 273.9304 618.3829C 273.9304 617.2229 274.8904 616.2629 276.0724 616.2629C 277.2554 616.2629 278.2144 617.2229 278.2144 618.3829" stroke="#BCBDC0" stroke-width="0.847" fill="#BCBDC0" fill-rule="evenodd" /><path id="1751" transform="matrix(1 0 0 -1 0 792)" d="M278.2144 618.3829C 278.2144 619.5649 277.2554 620.5249 276.0724 620.5249C 274.8904 620.5249 273.9304 619.5649 273.9304 618.3829C 273.9304 617.2229 274.8904 616.2629 276.0724 616.2629C 277.2554 616.2629 278.2144 617.2229 278.2144 618.3829" stroke="#BCBDC0" stroke-width="0.293" stroke-linecap="round" fill="none" /></g><path id="1752" transform="matrix(1 0 0 -1 0 792)" d="M231.6769 723.9882L285.3539 723.9882" stroke="#221E1F" stroke-width="0.847" stroke-dasharray="8.468,4.234" fill="none" /><g clip-path="url(#15)"><path id="1753" transform="matrix(1 0 0 -1 0 792)" d="M234.572 748.2621L238.633 744.2231L238.633 744.2231L225.134 730.7251L225.134 730.7251L231.872 723.9641" stroke="#221E1F" stroke-width="0.847" fill="none" /></g><path id="1754" transform="matrix(1 0 0 -1 0 792)" d="M326.4217 723.791L326.4217 676.975L326.4217 676.975L285.3537 676.975L285.3537 676.975L285.3537 724.388" stroke="#221E1F" stroke-width="0.847" fill="none" /><g clip-path="url(#16)"><path id="1755" transform="matrix(1 0 0 -1 0 792)" d="M326.3194 724.1291L382.3404 724.1291M236.1824 748.2621L380.1854 748.2621" stroke="#221E1F" stroke-width="0.847" stroke-dasharray="8.468,4.234" fill="none" /><path id="1756" transform="matrix(1 0 0 -1 0 792)" d="M380.6123 748.4957L377.5923 745.5617L377.5923 745.5617L387.0533 736.1237L387.0533 736.1237L378.9533 728.0247L378.9533 728.0247L382.9923 723.9647" stroke="#221E1F" stroke-width="0.847" fill="none" /></g><path id="1757" transform="matrix(1 0 0 -1 0 792)" d="M234.572 578.3368L238.633 582.3758L238.633 582.3758L225.134 595.8738L225.134 595.8738L231.872 602.6348L231.872 602.6348L285.845 602.6348L285.845 602.6348L285.845 649.8478L285.845 649.8478L326.319 649.6248L326.319 649.6248L326.319 602.6348L326.319 602.6348L382.993 602.6348L382.993 602.6348L378.954 598.5748L378.954 598.5748L387.053 590.4748L387.053 590.4748L377.593 581.0368L377.593 581.0368L380.293 578.3368z" stroke="none" fill="#D2D3D5" fill-rule="evenodd" /><path id="1758" transform="matrix(1 0 0 -1 0 792)" d="M326.4217 602.8083L326.4217 649.6243L326.4217 649.6243L285.3537 649.6243L285.3537 649.6243L285.3537 602.2113" stroke="#221E1F" stroke-width="0.847" fill="none" /><g clip-path="url(#17)"><path id="1759" transform="matrix(1 0 0 -1 0 792)" d="M326.3194 602.4698L382.3404 602.4698M231.6764 602.6108L285.3544 602.6108M236.1824 578.3368L380.1854 578.3368" stroke="#221E1F" stroke-width="0.847" stroke-dasharray="8.468,4.234" fill="none" /><path id="1760" transform="matrix(1 0 0 -1 0 792)" d="M380.612 578.1038L377.593 581.0368L377.593 581.0368L387.053 590.4748L387.053 590.4748L378.954 598.5748L378.954 598.5748L382.993 602.6348M234.572 578.3368L238.633 582.3758L238.633 582.3758L225.134 595.8738L225.134 595.8738L231.872 602.6348" stroke="#221E1F" stroke-width="0.847" fill="none" /></g></g></g></svg>