<svg xmlns="http://www.w3.org/2000/svg" xmlns:xlink="http://www.w3.org/1999/xlink" id="body_38" preserveAspectRatio="xMinYMin meet" viewBox="0 0 816 1056"><defs><clipPath id="1"><path id="" clip-rule="evenodd" transform="matrix(1 0 0 1 0 0)" d="M0 792L0 0L0 0L612 0L612 0L612 792L612 792L0 792z" /></clipPath><clipPath id="2"><path id="" clip-rule="evenodd" transform="matrix(1 0 0 1 0 0)" d="M42 727.5L566.714 727.5L566.714 727.5L566.714 43.20001L566.714 43.20001L42 43.20001z" /></clipPath><clipPath id="3"><path id="" clip-rule="evenodd" transform="matrix(1 0 0 1 0 0)" d="M319.949 352.961L526.949 352.961L526.949 352.961L526.949 242.96L526.949 242.96L319.949 242.96z" /></clipPath><clipPath id="4"><path id="" clip-rule="evenodd" transform="matrix(1 0 0 1 0 0)" d="M75.293 615.24L514.524 615.24L514.524 615.24L514.524 573.736L514.524 573.736L75.293 573.736z" /></clipPath><clipPath id="5"><path id="" clip-rule="evenodd" transform="matrix(1 0 0 1 0 0)" d="M106.024 155.2L515.025 155.2L515.025 155.2L515.025 43.20001L515.025 43.20001L106.024 43.20001z" /></clipPath><clipPath id="6"><path id="" clip-rule="evenodd" transform="matrix(1 0 0 1 0 0)" d="M111.944 510.677L492.944 510.677L492.944 510.677L492.944 381.677L492.944 381.677L111.944 381.677z" /></clipPath><clipPath id="7"><path id="" clip-rule="evenodd" transform="matrix(1 0 0 1 0 0)" d="M111.944 510.677L492.944 510.677L492.944 510.677L492.944 381.677L492.944 381.677L111.944 381.677z" /></clipPath></defs><g transform="matrix(1.333333 0 0 1.333333 0 0)"><g clip-path="url(#1)"><path id="1" transform="matrix(1 0 0 -1 0 792)" d="M54 39.5055L558 39.5055" stroke="#221E1F" stroke-width="0.5" fill="none" /><path id="30" transform="matrix(1 0 0 -1 0 792)" d="M42 64.5L566.714 64.5L566.714 748.8L42 748.8z" stroke="none" fill="#FFFFFF" fill-rule="nonzero" /><g clip-path="url(#2)"></g><g clip-path="url(#3)"></g><path id="465" transform="matrix(1 0 0 -1 0 792)" d="M364.0548 530.2897L431.2409 530.2897" stroke="#060606" stroke-width="0.2643937" stroke-linecap="square" fill="none" /><path id="468" transform="matrix(1 0 0 -1 0 792)" d="M350.7939 496.0398L417.98 496.0398" stroke="#060606" stroke-width="0.2643937" stroke-linecap="square" fill="none" /><path id="469" transform="matrix(1 0 0 -1 0 792)" d="M349.9119 513.3522L445.3552 513.3522" stroke="#060606" stroke-width="0.5588962" stroke-linecap="square" fill="none" /><path id="476" transform="matrix(1 0 0 -1 0 792)" d="M349.9119 458.6023L521.3915 458.6023" stroke="#060606" stroke-width="0.5588962" stroke-linecap="square" fill="none" /><g clip-path="url(#4)"></g><path id="556" transform="matrix(1 0 0 -1 0 792)" d="M130.3864 199.2626L209.1674 199.2626" stroke="#060606" stroke-width="0.594" stroke-linecap="square" fill="none" /><path id="557" transform="matrix(1 0 0 -1 0 792)" d="M221.9177 199.2626L280.5737 199.2626" stroke="#060606" stroke-width="0.594" stroke-linecap="square" fill="none" /><path id="558" transform="matrix(1 0 0 -1 0 792)" d="M296.5739 199.2626L336.2619 199.2626" stroke="#060606" stroke-width="0.594" stroke-linecap="square" fill="none" /><path id="559" transform="matrix(1 0 0 -1 0 792)" d="M347.5114 199.2626L362.3244 199.2626" stroke="#060606" stroke-width="0.594" stroke-linecap="square" fill="none" /><path id="560" transform="matrix(1 0 0 -1 0 792)" d="M372.4489 199.2626L431.1049 199.2626" stroke="#060606" stroke-width="0.594" stroke-linecap="square" fill="none" /><path id="561" transform="matrix(1 0 0 -1 0 792)" d="M462.6052 199.2626L502.3552 199.2626" stroke="#060606" stroke-width="0.594" stroke-linecap="square" fill="none" /><path id="642" transform="matrix(1 0 0 -1 0 792)" d="M53.4437 227.7601L559.6037 227.7601" stroke="#221E1F" stroke-width="0.5" fill="none" /><path id="643" transform="matrix(1 0 0 -1 0 792)" d="M136.9681 729.4623L136.9681 679.6773" stroke="#221E1F" stroke-width="1" fill="none" /><path id="644" transform="matrix(1 0 0 -1 0 792)" d="M139.6029 729.0471L136.9679 733.8371L134.3329 729.0471z" stroke="none" fill="#221E1F" fill-rule="nonzero" /><path id="645" transform="matrix(1 0 0 -1 0 792)" d="M139.6029 680.0928L136.9679 675.3028L134.3329 680.0928z" stroke="none" fill="#221E1F" fill-rule="nonzero" /><path id="646" transform="matrix(1 0 0 -1 0 792)" d="M203.1554 658.296L260.4504 658.296" stroke="#221E1F" stroke-width="1" fill="none" /><path id="647" transform="matrix(1 0 0 -1 0 792)" d="M203.5707 660.9308L198.7807 658.2958L203.5707 655.6608z" stroke="none" fill="#221E1F" fill-rule="nonzero" /><path id="648" transform="matrix(1 0 0 -1 0 792)" d="M260.0348 660.9308L264.8248 658.2958L260.0348 655.6608z" stroke="none" fill="#221E1F" fill-rule="nonzero" /><path id="649" transform="matrix(1 0 0 -1 0 792)" d="M294.4969 714.8821L294.4969 722.1371L294.4969 722.1371L284.0979 722.1371M384.3609 701.2441L374.6879 701.2441L374.6879 701.2441L374.6879 692.5781" stroke="#221E1F" stroke-width="1" fill="none" /><g clip-path="url(#5)"><path id="701" transform="matrix(1 0 0 -1 0 792)" d="M106.4514 703.6949L439.7874 703.6949" stroke="#EE1C23" stroke-width="1" stroke-dasharray="5,3" fill="none" /><path id="702" transform="matrix(1 0 0 -1 0 792)" d="M198.1214 684.9639L198.1214 652.6049M265.7504 748.6629L265.7504 654.3529M106.4514 674.3279L449.7974 674.3279" stroke="#221E1F" stroke-width="1" stroke-dasharray="5,3" fill="none" /><path id="703" transform="matrix(1 0 0 -1 0 792)" d="M173.8482 637.6437L198.1212 637.6437L198.1212 637.6437L198.1212 652.1537L198.1212 652.1537L265.7502 652.1537L265.7502 652.1537L265.7502 637.6437L265.7502 637.6437L354.0132 637.6437L354.0132 637.6437L354.0132 652.1537L354.0132 652.1537L378.3542 652.1537" stroke="#221E1F" stroke-width="1" fill="none" /><path id="704" transform="matrix(1 0 0 -1 0 792)" d="M106.4047 734.2507L452.7187 734.2507" stroke="#0060AF" stroke-width="1" fill="none" /></g><path id="705" transform="matrix(1 0 0 -1 0 792)" d="M354.6292 674.4806L422.5882 733.2325M198.1772 674.6846L120.0322 726.9166M354.5072 674.6436L266.1362 733.3956M198.1772 674.6846L266.1362 733.3956" stroke="#EE1C23" stroke-width="2" stroke-linecap="round" fill="none" /><path id="706" transform="matrix(1 0 0 -1 0 792)" d="M446.3186 703.6949L460.3976 703.6949" stroke="#EE1C23" stroke-width="1" fill="none" /><path id="707" transform="matrix(1 0 0 -1 0 792)" d="M446.7339 706.3297L441.9439 703.6947L446.7339 701.0597z" stroke="none" fill="#EE1C23" fill-rule="nonzero" /><path id="708" transform="matrix(1 0 0 -1 0 792)" d="M459.5544 734.1622L473.6334 734.1622" stroke="#221E1F" stroke-width="1" fill="none" /><path id="709" transform="matrix(1 0 0 -1 0 792)" d="M459.9697 736.7969L455.1797 734.1619L459.9697 731.5269z" stroke="none" fill="#221E1F" fill-rule="nonzero" /><path id="718" transform="matrix(1 0 0 -1 0 792)" d="M494.6241 734.376L505.9001 734.376" stroke="#221E1F" stroke-width="0.6" fill="none" /><path id="801" transform="matrix(1 0 0 -1 0 792)" d="M220.0754 302.8191L277.3704 302.8191" stroke="#221E1F" stroke-width="1" fill="none" /><path id="802" transform="matrix(1 0 0 -1 0 792)" d="M220.4907 305.4539L215.7007 302.8189L220.4907 300.1839z" stroke="none" fill="#221E1F" fill-rule="nonzero" /><path id="803" transform="matrix(1 0 0 -1 0 792)" d="M276.9548 305.4539L281.7448 302.8189L276.9548 300.1839z" stroke="none" fill="#221E1F" fill-rule="nonzero" /><path id="804" transform="matrix(1 0 0 -1 0 792)" d="M311.4169 359.4051L311.4169 366.6601L311.4169 366.6601L301.0179 366.6601M401.2809 345.7671L391.6079 345.7671L391.6079 345.7671L391.6079 337.1011" stroke="#221E1F" stroke-width="1" fill="none" /><path id="842" transform="matrix(1 0 0 -1 0 792)" d="M180.8098 348.218L456.7078 348.218" stroke="#EE1C23" stroke-width="1" stroke-dasharray="5,3" fill="none" /><path id="843" transform="matrix(1 0 0 -1 0 792)" d="M215.0414 329.487L215.0414 297.128M282.6704 393.186L282.6704 298.876M123.3714 318.851L466.7174 318.851" stroke="#221E1F" stroke-width="1" stroke-dasharray="5,3" fill="none" /><g clip-path="url(#6)"><path id="844" transform="matrix(1 0 0 -1 0 792)" d="M190.7683 282.1667L215.0413 282.1667L215.0413 282.1667L215.0413 296.6767L215.0413 296.6767L282.6703 296.6767L282.6703 296.6767L282.6703 282.1667L282.6703 282.1667L370.9333 282.1667L370.9333 282.1667L370.9333 296.6767L370.9333 296.6767L395.2743 296.6767" stroke="#221E1F" stroke-width="1" fill="none" /></g><path id="845" transform="matrix(1 0 0 -1 0 792)" d="M123.2045 377.705L454.5395 377.705" stroke="#0060AF" stroke-width="1" stroke-dasharray="5,3" fill="none" /><path id="846" transform="matrix(1 0 0 -1 0 792)" d="M123.2016 398.1389L473.2606 398.1389" stroke="#0060AF" stroke-width="1" fill="none" /><path id="847" transform="matrix(1 0 0 -1 0 792)" d="M370.9873 319.0036L438.9463 377.7556M214.9093 319.0826L136.3903 371.4396M370.8653 319.1676L282.4943 377.9186M215.0963 319.2076L282.4943 377.9186" stroke="#EE1C23" stroke-width="2" stroke-linecap="round" fill="none" /><path id="848" transform="matrix(1 0 0 -1 0 792)" d="M153.5771 397.6051L153.5771 382.6841" stroke="#0060AF" stroke-width="1" fill="none" /><path id="849" transform="matrix(1 0 0 -1 0 792)" d="M156.2119 383.0991L153.5769 378.3091L150.9419 383.0991z" stroke="none" fill="#0060AF" fill-rule="nonzero" /><g clip-path="url(#7)"></g><path id="879" transform="matrix(1 0 0 -1 0 792)" d="M155.4684 351.3848L148.9564 346.3198" stroke="#EE1C23" stroke-width="1" fill="none" /><path id="880" transform="matrix(1 0 0 -1 0 792)" d="M156.7582 349.0496L158.9212 354.0706L153.5232 353.2096z" stroke="none" fill="#EE1C23" fill-rule="nonzero" /></g></g></svg>