<svg xmlns="http://www.w3.org/2000/svg" xmlns:xlink="http://www.w3.org/1999/xlink" id="body_22" preserveAspectRatio="xMinYMin meet" viewBox="0 0 816 1056"><defs><clipPath id="1"><path id="" clip-rule="evenodd" transform="matrix(1 0 0 1 0 0)" d="M0 792L0 0L0 0L612 0L612 0L612 792L612 792L0 792z" /></clipPath><clipPath id="2"><path id="" clip-rule="evenodd" transform="matrix(1 0 0 1 0 0)" d="M41.143 729L563.143 729L563.143 729L563.143 43.20001L563.143 43.20001L41.143 43.20001z" /></clipPath><clipPath id="3"><path id="" clip-rule="evenodd" transform="matrix(1 0 0 1 0 0)" d="M67.667 313.2L542.585 313.2L542.585 313.2L542.585 43.20001L542.585 43.20001L67.667 43.20001z" /></clipPath><clipPath id="4"><path id="" clip-rule="evenodd" transform="matrix(1 0 0 1 0 0)" d="M67.667 313.2L542.585 313.2L542.585 313.2L542.585 43.20001L542.585 43.20001L67.667 43.20001z" /></clipPath><clipPath id="5"><path id="" clip-rule="evenodd" transform="matrix(1 0 0 1 0 0)" d="M67.667 313.2L542.585 313.2L542.585 313.2L542.585 43.20001L542.585 43.20001L67.667 43.20001z" /></clipPath><clipPath id="6"><path id="" clip-rule="evenodd" transform="matrix(1 0 0 1 0 0)" d="M101.166 486.229L520.586 486.229L520.586 486.229L520.586 374.229L520.586 374.229L101.166 374.229z" /></clipPath></defs><g transform="matrix(1.333333 0 0 1.333333 0 0)"><g clip-path="url(#1)"><path id="1" transform="matrix(1 0 0 -1 0 792)" d="M54 39.5055L558 39.5055" stroke="#221E1F" stroke-width="0.5" fill="none" /><path id="30" transform="matrix(1 0 0 -1 0 792)" d="M41.143 63L563.143 63L563.143 748.8L41.143 748.8z" stroke="none" fill="#FFFFFF" fill-rule="nonzero" /><g clip-path="url(#2)"></g><path id="964" transform="matrix(1 0 0 -1 0 792)" d="M128.4982 548.6679L117.2932 548.6679M128.5562 544.1689L150.9662 544.1689L150.9662 544.1689L150.9662 553.1209L150.9662 553.1209L128.5562 553.1209z" stroke="#221E1F" stroke-width="1" fill="none" /><path id="1034" transform="matrix(1 0 0 -1 0 792)" d="M488.001 669.0679L488.001 654.2959M386.232 736.4899L371.645 736.4899M404.21 696.6629L404.21 668.8689M401.266 696.6629L401.266 668.8689" stroke="#221E1F" stroke-width="1" fill="none" /><g clip-path="url(#3)"><path id="1035" transform="matrix(1 0 0 -1 0 792)" d="M490.0171 669.0677C 490.0171 670.1767 489.1121 671.0837 488.0011 671.0837C 486.8901 671.0837 485.9851 670.1767 485.9851 669.0677C 485.9851 667.9587 486.8901 667.0517 488.0011 667.0517C 489.1121 667.0517 490.0171 667.9587 490.0171 669.0677" stroke="none" fill="#221E1F" fill-rule="evenodd" /><path id="1036" transform="matrix(1 0 0 -1 0 792)" d="M346.8762 676.328L378.8012 676.328L378.8012 676.328L378.8012 689.615L378.8012 689.615L346.8762 689.615z" stroke="#221E1F" stroke-width="1" stroke-dasharray="5,1" fill="none" /><path id="1037" transform="matrix(1 0 0 -1 0 792)" d="M438.331 705.1631L447.804 705.1631" stroke="#221E1F" stroke-width="1" fill="none" /><path id="1038" transform="matrix(1 0 0 -1 0 792)" d="M447.3891 707.7979L452.1791 705.1629L452.1791 705.1629L447.3891 702.5279z" stroke="none" fill="#221E1F" fill-rule="evenodd" /><path id="1039" transform="matrix(1 0 0 -1 0 792)" d="M522.5653 689.8635L522.5653 680.3905" stroke="#221E1F" stroke-width="1" fill="none" /><path id="1040" transform="matrix(1 0 0 -1 0 792)" d="M525.2001 680.8053L522.5651 676.0153L522.5651 676.0153L519.9301 680.8053z" stroke="none" fill="#221E1F" fill-rule="evenodd" /></g><g clip-path="url(#4)"><path id="1088" transform="matrix(1 0 0 -1 0 792)" d="M378.8075 603.2575L378.7615 603.2575L378.7615 603.2575L378.7615 621.4105L378.7615 621.4105L368.7955 621.4105M368.7955 627.3845L378.7955 627.3845L378.7955 627.3845L378.7955 620.9065M368.7955 633.3365L378.7955 633.3365L378.7955 633.3365L378.8015 651.3445M368.7955 622.7855L368.7955 618.2855M368.7955 629.6345L368.7955 625.1345M368.7955 636.2105L368.7955 631.7105M365.5455 636.2855L365.5455 621.4105L365.5455 621.4105L356.9205 621.4105" stroke="#221E1F" stroke-width="1" fill="none" /><path id="1089" transform="matrix(1 0 0 -1 0 792)" d="M368.9646 627.3615L375.5456 628.8285L375.5456 628.8285L375.5466 625.8615z" stroke="none" fill="#221E1F" fill-rule="evenodd" /><path id="1090" transform="matrix(1 0 0 -1 0 792)" d="M368.9646 627.3615L375.5456 628.8285L375.5456 628.8285L375.5466 625.8615L375.5466 625.8615L368.9646 627.3615z" stroke="#221E1F" stroke-width="0.6" fill="none" /><path id="1091" transform="matrix(1 0 0 -1 0 792)" d="M378.8011 554.0448L378.7751 570.3408L378.7751 570.3408L383.1531 571.6378L383.1531 571.6378L374.3881 574.2358L374.3881 574.2358L383.1531 576.8348L383.1531 576.8348L374.3881 579.4308L374.3881 579.4308L383.1531 582.0288L383.1531 582.0288L374.3881 584.6268L374.3881 584.6268L378.7731 585.9248L378.7731 585.9248L378.7731 603.2568" stroke="#221E1F" stroke-width="1" fill="none" /><path id="1092" transform="matrix(1 0 0 -1 0 792)" d="M376.7571 603.257C 376.7571 604.366 377.6621 605.273 378.7731 605.273C 379.8841 605.273 380.7891 604.366 380.7891 603.257C 380.7891 602.148 379.8841 601.241 378.7731 601.241C 377.6621 601.241 376.7571 602.148 376.7571 603.257" stroke="none" fill="#221E1F" fill-rule="evenodd" /><path id="1093" transform="matrix(1 0 0 -1 0 792)" d="M464.2065 669.1765L512.8045 669.1765L512.8045 669.1765L512.8055 675.5025L512.8055 675.5025L517.1825 676.8005L517.1825 676.8005L508.4175 679.3975L508.4175 679.3975L517.1825 681.9975L517.1825 681.9975L508.4175 684.5935L508.4175 684.5935L517.1825 687.1915L517.1825 687.1915L508.4175 689.7885L508.4175 689.7885L512.8035 691.0865L512.8035 691.0865L512.8035 696.7235L512.8035 696.7235L464.3475 696.7235" stroke="#221E1F" stroke-width="1" fill="none" /><path id="1094" transform="matrix(1 0 0 -1 0 792)" d="M494.3563 654.389L481.7003 654.389L481.7003 654.389L488.0283 644.123z" stroke="none" fill="#FFFFFF" fill-rule="evenodd" /><path id="1095" transform="matrix(1 0 0 -1 0 792)" d="M494.3563 654.389L481.7003 654.389L481.7003 654.389L488.0283 644.123L488.0283 644.123L494.3563 654.389z" stroke="#221E1F" stroke-width="1" fill="none" /><path id="1096" transform="matrix(1 0 0 -1 0 792)" d="M438.5711 696.7238L429.5611 692.3538L429.5611 692.3538L429.5611 701.0938z" stroke="none" fill="#221E1F" fill-rule="evenodd" /><path id="1097" transform="matrix(1 0 0 -1 0 792)" d="M464.2065 696.4733L464.2065 684.5123M469.6755 684.5123L458.7375 684.5123M257.9165 551.3113L265.5725 551.3113M260.6505 548.5753L262.8395 548.5753M255.1815 554.0443L268.3065 554.0443M375.0405 551.3113L382.6975 551.3113M377.7745 548.5753L379.9635 548.5753M372.3065 554.0443L385.4315 554.0443M378.8015 651.3443L378.8015 669.1763L378.8015 669.1763L395.1995 669.1763C 397.1005 669.1763 398.6955 670.7183 398.6955 672.6193C 398.6955 674.5203 397.1535 676.0563 395.2525 676.0563C 397.1535 676.0563 398.6955 677.5933 398.6955 679.4933C 398.6955 681.3953 397.1535 682.9313 395.2525 682.9313C 397.1535 682.9313 398.6955 684.4683 398.6955 686.3693C 398.6955 688.2703 397.1535 689.8153 395.2525 689.8153C 397.1535 689.8153 398.6955 691.3604 398.6955 693.2614C 398.6955 695.1613 397.1535 696.7233 395.2525 696.7233L395.2525 696.7233L378.8015 696.7233L378.8015 696.7233L378.8015 736.4774M464.2065 669.1763L410.4535 669.1763C 408.5525 669.1763 407.0105 670.7183 407.0105 672.6193C 407.0105 674.5203 408.5525 676.0563 410.4535 676.0563C 408.5525 676.0563 407.0105 677.5933 407.0105 679.4933C 407.0105 681.3953 408.5525 682.9313 410.4535 682.9313C 408.5525 682.9313 407.0105 684.4683 407.0105 686.3693C 407.0105 688.2703 408.5525 689.8153 410.4535 689.8153C 408.5525 689.8153 407.0105 691.3604 407.0105 693.2614C 407.0105 695.1613 408.5525 696.7233 410.4535 696.7233L410.4535 696.7233L429.5615 696.7233M438.6155 692.2843L438.6155 701.0343M438.3035 696.7233L464.3725 696.7233" stroke="#221E1F" stroke-width="1" fill="none" /><path id="1098" transform="matrix(1 0 0 -1 0 792)" d="M466.2225 696.4736C 466.2225 697.5826 465.3175 698.4896 464.2065 698.4896C 463.0955 698.4896 462.1905 697.5826 462.1905 696.4736C 462.1905 695.3646 463.0955 694.4576 464.2065 694.4576C 465.3175 694.4576 466.2225 695.3646 466.2225 696.4736" stroke="none" fill="#221E1F" fill-rule="evenodd" /><path id="1099" transform="matrix(1 0 0 -1 0 792)" d="M464.2065 680.9119L464.2065 668.9509" stroke="#221E1F" stroke-width="1" fill="none" /><path id="1100" transform="matrix(1 0 0 -1 0 792)" d="M466.2225 668.9505C 466.2225 667.8415 465.3175 666.9345 464.2065 666.9345C 463.0955 666.9345 462.1905 667.8415 462.1905 668.9505C 462.1905 670.0595 463.0955 670.9665 464.2065 670.9665C 465.3175 670.9665 466.2225 670.0595 466.2225 668.9505" stroke="none" fill="#221E1F" fill-rule="evenodd" /><path id="1101" transform="matrix(1 0 0 -1 0 792)" d="M469.7012 679.3813C 468.0852 680.3253 466.2042 680.8663 464.1962 680.8663C 462.2052 680.8663 460.3402 680.3353 458.7312 679.4053" stroke="#221E1F" stroke-width="1" fill="none" /><path id="1102" transform="matrix(1 0 0 -1 0 792)" d="M394.9799 694.6532C 395.7859 694.6532 396.4399 693.9992 396.4399 693.1932C 396.4399 692.3872 395.7859 691.7342 394.9799 691.7342C 394.1739 691.7342 393.5199 692.3872 393.5199 693.1932C 393.5199 693.9992 394.1739 694.6532 394.9799 694.6532" stroke="none" fill="#221E1F" fill-rule="evenodd" /><path id="1103" transform="matrix(1 0 0 -1 0 792)" d="M394.9799 694.6532C 395.7859 694.6532 396.4399 693.9992 396.4399 693.1932C 396.4399 692.3872 395.7859 691.7342 394.9799 691.7342C 394.1739 691.7342 393.5199 692.3872 393.5199 693.1932C 393.5199 693.9992 394.1739 694.6532 394.9799 694.6532z" stroke="#221E1F" stroke-width="1" fill="none" /><path id="1104" transform="matrix(1 0 0 -1 0 792)" d="M410.7749 673.988C 411.5809 673.988 412.2349 673.334 412.2349 672.528C 412.2349 671.722 411.5809 671.069 410.7749 671.069C 409.9689 671.069 409.3149 671.722 409.3149 672.528C 409.3149 673.334 409.9689 673.988 410.7749 673.988" stroke="none" fill="#221E1F" fill-rule="evenodd" /><path id="1105" transform="matrix(1 0 0 -1 0 792)" d="M410.7749 673.988C 411.5809 673.988 412.2349 673.334 412.2349 672.528C 412.2349 671.722 411.5809 671.069 410.7749 671.069C 409.9689 671.069 409.3149 671.722 409.3149 672.528C 409.3149 673.334 409.9689 673.988 410.7749 673.988z" stroke="#221E1F" stroke-width="1" fill="none" /><path id="1106" transform="matrix(1 0 0 -1 0 792)" d="M362.8353 689.6145L362.8353 696.7235L362.8353 696.7235L378.8013 696.7235" stroke="#221E1F" stroke-width="1" stroke-dasharray="5,1" fill="none" /><path id="1107" transform="matrix(1 0 0 -1 0 792)" d="M378.8011 698.7392C 379.9101 698.7392 380.8171 697.8342 380.8171 696.7232C 380.8171 695.6122 379.9101 694.7072 378.8011 694.7072C 377.6921 694.7072 376.7851 695.6122 376.7851 696.7232C 376.7851 697.8342 377.6921 698.7392 378.8011 698.7392" stroke="none" fill="#221E1F" fill-rule="evenodd" /><path id="1108" transform="matrix(1 0 0 -1 0 792)" d="M378.8011 651.3443L362.8351 651.3443L362.8351 651.3443L362.8351 676.3283" stroke="#221E1F" stroke-width="1" stroke-dasharray="5,1" fill="none" /><path id="1109" transform="matrix(1 0 0 -1 0 792)" d="M378.8011 649.3282C 379.9101 649.3282 380.8171 650.2332 380.8171 651.3442C 380.8171 652.4552 379.9101 653.3602 378.8011 653.3602C 377.6921 653.3602 376.7851 652.4552 376.7851 651.3442C 376.7851 650.2332 377.6921 649.3282 378.8011 649.3282" stroke="none" fill="#221E1F" fill-rule="evenodd" /><path id="1110" transform="matrix(1 0 0 -1 0 792)" d="M185.7408 532.586L190.1098 523.577L190.1098 523.577L181.3708 523.577z" stroke="none" fill="#221E1F" fill-rule="evenodd" /><path id="1111" transform="matrix(1 0 0 -1 0 792)" d="M185.7408 532.586L190.1098 523.577L190.1098 523.577L181.3708 523.577L181.3708 523.577L185.7408 532.586z" stroke="#221E1F" stroke-width="1" fill="none" /><path id="1112" transform="matrix(1 0 0 -1 0 792)" d="M185.7379 532.6909L185.7379 548.9179M191.1859 530.5229L190.1039 533.3339L190.1039 533.3339L181.3669 533.3189L181.3669 533.3189L180.1379 536.3499" stroke="#221E1F" stroke-width="1" fill="none" /><path id="1113" transform="matrix(1 0 0 -1 0 792)" d="M183.7217 548.9175C 183.7217 550.0265 184.6267 550.9335 185.7377 550.9335C 186.8487 550.9335 187.7537 550.0265 187.7537 548.9175C 187.7537 547.8085 186.8487 546.9015 185.7377 546.9015C 184.6267 546.9015 183.7217 547.8085 183.7217 548.9175" stroke="none" fill="#221E1F" fill-rule="evenodd" /><path id="1114" transform="matrix(1 0 0 -1 0 792)" d="M165.8566 510.0094L185.7376 510.0094L185.7376 510.0094L185.7376 523.6944" stroke="#221E1F" stroke-width="1" fill="none" /><path id="1115" transform="matrix(1 0 0 -1 0 792)" d="M165.8566 512.0254C 164.7476 512.0254 163.8406 511.1204 163.8406 510.0094C 163.8406 508.8984 164.7476 507.9934 165.8566 507.9934C 166.9656 507.9934 167.8726 508.8984 167.8726 510.0094C 167.8726 511.1204 166.9656 512.0254 165.8566 512.0254" stroke="none" fill="#221E1F" fill-rule="evenodd" /><path id="1116" transform="matrix(1 0 0 -1 0 792)" d="M261.7824 603.257L261.7964 580.581M260.7704 668.6281L260.7704 657.69M267.3274 580.581L256.3904 580.581M264.4174 657.69L264.4174 668.6281M256.3904 576.934L267.3274 576.934" stroke="#221E1F" stroke-width="1" fill="none" /><path id="1117" transform="matrix(1 0 0 -1 0 792)" d="M263.7985 603.2583C 263.7975 604.3673 262.8915 605.2733 261.7815 605.2733C 260.6705 605.2723 259.7655 604.3643 259.7665 603.2563C 259.7675 602.1473 260.6735 601.2403 261.7835 601.2413C 262.8945 601.2413 263.7995 602.1493 263.7985 603.2583" stroke="none" fill="#221E1F" fill-rule="evenodd" /><path id="1118" transform="matrix(1 0 0 -1 0 792)" d="M165.8113 498.8114L165.8133 521.5114L165.8133 521.5114L170.1903 522.8094L170.1903 522.8094L161.4263 525.4074L161.4263 525.4074L170.1903 528.0064L170.1903 528.0064L161.4263 530.6024L161.4263 530.6024L170.1903 533.2004L170.1903 533.2004L161.4263 535.7974L161.4263 535.7974L165.8113 537.0954L165.8113 537.0954L165.8113 548.8314M289.2713 629.2794L289.2733 630.2524L289.2733 630.2524L293.4643 631.5504L293.4643 631.5504L284.6993 634.1474L284.6993 634.1474L293.4643 636.7464L293.4643 636.7464L284.6993 639.3434L284.6993 639.3434L293.4643 641.9414L293.4643 641.9414L284.6993 644.5384L284.6993 644.5384L289.2713 645.8364L289.2713 645.8364L289.2713 646.9964M316.5553 682.2224L316.5573 683.1954L316.5573 683.1954L320.9343 684.4934L320.9343 684.4934L312.1693 687.0904L312.1693 687.0904L320.9343 689.6904L320.9343 689.6904L312.1693 692.2864L312.1693 692.2864L320.9343 694.8844L320.9343 694.8844L312.1693 697.4814L312.1693 697.4814L316.5553 698.7794L316.5553 698.7794L316.5553 699.9404M261.7963 576.9184L261.7823 554.0444" stroke="#221E1F" stroke-width="1" fill="none" /><path id="1119" transform="matrix(1 0 0 -1 0 792)" d="M163.7953 548.831C 163.7953 549.94 164.7003 550.847 165.8113 550.847C 166.9223 550.847 167.8273 549.94 167.8273 548.831C 167.8273 547.722 166.9223 546.815 165.8113 546.815C 164.7003 546.815 163.7953 547.722 163.7953 548.831" stroke="none" fill="#221E1F" fill-rule="evenodd" /><path id="1120" transform="matrix(1 0 0 -1 0 792)" d="M162.1047 495.9511L169.7607 495.9511M164.8387 493.2151L167.0277 493.2151M159.3707 498.6841L172.4957 498.6841M163.0147 586.8691L170.5327 586.8691L170.5327 586.8691L170.5327 587.0061L170.5327 587.0061L172.3097 597.8051M176.0007 597.9421L168.4817 597.9421L168.4817 597.9421L168.4817 597.8051L168.4817 597.8051L166.7047 587.0061M185.0937 582.1481L199.0587 582.1481L199.0587 582.1481L199.0587 548.6681L199.0587 548.6681L150.9397 548.6681M148.1837 592.7191L185.0957 614.0461L185.0957 614.0461L185.0957 571.3901L185.0957 571.3901L148.1837 592.7191zM378.2977 603.2171L355.3467 603.2181L355.3467 603.2181L354.0487 607.5961L354.0487 607.5961L351.4527 598.8301L351.4527 598.8301L348.8537 607.5961L348.8537 607.5961L346.2567 598.8301L346.2567 598.8301L343.6587 607.5961L343.6587 607.5961L341.0617 598.8301L341.0617 598.8301L339.5817 603.2571L339.5817 603.2571L184.8457 603.2571" stroke="#221E1F" stroke-width="1" fill="none" /><path id="1121" transform="matrix(1 0 0 -1 0 792)" d="M392.9664 584.2921L397.3414 584.2921L397.3414 584.2921L397.3414 593.2571L397.3414 593.2571L413.0474 601.1451L413.0474 601.1451L413.0474 584.2921L413.0474 584.2921L428.6094 584.2921" stroke="#0A74BC" stroke-width="2" fill="none" /><path id="1122" transform="matrix(1 0 0 -1 0 792)" d="M316.5551 680.0925L316.5551 603.2575M266.2961 663.2295L289.2721 663.2295L289.2721 663.2295L289.2721 648.1495M378.8011 724.6635L316.5551 724.6635L316.5551 724.6635L316.5551 700.8435" stroke="#221E1F" stroke-width="1" stroke-dasharray="5,3" fill="none" /><path id="1123" transform="matrix(1 0 0 -1 0 792)" d="M318.5709 603.257C 318.5709 602.148 317.6659 601.241 316.5549 601.241C 315.4439 601.241 314.5389 602.148 314.5389 603.257C 314.5389 604.366 315.4439 605.273 316.5549 605.273C 317.6659 605.273 318.5709 604.366 318.5709 603.257" stroke="none" fill="#221E1F" fill-rule="evenodd" /><path id="1124" transform="matrix(1 0 0 -1 0 792)" d="M289.253 627.6489L289.253 603.2569" stroke="#221E1F" stroke-width="1" stroke-dasharray="5,3" fill="none" /><path id="1125" transform="matrix(1 0 0 -1 0 792)" d="M291.269 603.257C 291.269 602.148 290.364 601.241 289.253 601.241C 288.142 601.241 287.237 602.148 287.237 603.257C 287.237 604.366 288.142 605.273 289.253 605.273C 290.364 605.273 291.269 604.366 291.269 603.257" stroke="none" fill="#221E1F" fill-rule="evenodd" /><path id="1126" transform="matrix(1 0 0 -1 0 792)" d="M68.8838 650.9918L242.7178 650.9918L242.7178 650.9918L242.7178 479.9098L242.7178 479.9098L68.8838 479.9098zM127.9778 592.7198L148.1858 592.7198" stroke="#221E1F" stroke-width="1" fill="none" /><path id="1127" transform="matrix(1 0 0 -1 0 792)" d="M128.5561 596.0148L128.5561 610.2658L128.5561 610.2658L118.5671 610.2658L118.5671 610.2658L118.5671 596.0148L118.5671 596.0148L98.5881 596.0148L98.5881 596.0148L98.5881 610.2658L98.5881 610.2658L88.59909 610.2658L88.59909 610.2658L88.59909 596.0148L88.59909 596.0148L78.60909 596.0148M179.2741 672.1118L196.3481 683.3278L196.3481 683.3278L199.0581 672.1118L199.0581 672.1118L215.7931 683.3278L215.7931 683.3278L218.5421 672.1118" stroke="#0A74BC" stroke-width="2" fill="none" /></g><g clip-path="url(#5)"><path id="1130" transform="matrix(1 0 0 -1 0 792)" d="M229.599 663.2292L261.52 663.2292" stroke="#221E1F" stroke-width="1" stroke-dasharray="5,3" fill="none" /></g><path id="1131" transform="matrix(1 0 0 -1 0 792)" d="M132.1106 398.4331L132.1106 348.6481" stroke="#221E1F" stroke-width="1" fill="none" /><path id="1132" transform="matrix(1 0 0 -1 0 792)" d="M134.7454 398.0178L132.1104 402.8078L129.4754 398.0178z" stroke="none" fill="#221E1F" fill-rule="nonzero" /><path id="1133" transform="matrix(1 0 0 -1 0 792)" d="M134.7454 349.0634L132.1104 344.2734L129.4754 349.0634z" stroke="none" fill="#221E1F" fill-rule="nonzero" /><path id="1134" transform="matrix(1 0 0 -1 0 792)" d="M198.2979 327.2667L255.5929 327.2667" stroke="#221E1F" stroke-width="1" fill="none" /><path id="1135" transform="matrix(1 0 0 -1 0 792)" d="M198.7132 329.9015L193.9232 327.2665L198.7132 324.6315z" stroke="none" fill="#221E1F" fill-rule="nonzero" /><path id="1136" transform="matrix(1 0 0 -1 0 792)" d="M255.1773 329.9015L259.9673 327.2665L255.1773 324.6315z" stroke="none" fill="#221E1F" fill-rule="nonzero" /><path id="1137" transform="matrix(1 0 0 -1 0 792)" d="M289.6394 383.8527L289.6394 391.1077L289.6394 391.1077L279.2404 391.1077M379.5034 370.2147L369.8304 370.2147L369.8304 370.2147L369.8304 361.5487" stroke="#221E1F" stroke-width="1" fill="none" /><g clip-path="url(#6)"><path id="1189" transform="matrix(1 0 0 -1 0 792)" d="M101.5939 372.6656L434.9299 372.6656" stroke="#EE1C23" stroke-width="1" stroke-dasharray="5,3" fill="none" /><path id="1190" transform="matrix(1 0 0 -1 0 792)" d="M193.2639 353.9346L193.2639 321.5756M260.8929 417.6336L260.8929 323.3236M101.5939 343.2986L444.9399 343.2986" stroke="#221E1F" stroke-width="1" stroke-dasharray="5,3" fill="none" /><path id="1191" transform="matrix(1 0 0 -1 0 792)" d="M168.9907 306.6143L193.2637 306.6143L193.2637 306.6143L193.2637 321.1243L193.2637 321.1243L260.8927 321.1243L260.8927 321.1243L260.8927 306.6143L260.8927 306.6143L349.1557 306.6143L349.1557 306.6143L349.1557 321.1243L349.1557 321.1243L373.4967 321.1243" stroke="#221E1F" stroke-width="1" fill="none" /><path id="1192" transform="matrix(1 0 0 -1 0 792)" d="M101.5472 403.2214L447.8612 403.2214" stroke="#0060AF" stroke-width="1" fill="none" /></g><path id="1193" transform="matrix(1 0 0 -1 0 792)" d="M349.7717 343.4512L417.7307 402.2032M193.3197 343.6552L115.1747 395.8872M349.6497 343.6152L261.2787 402.3662M193.3197 343.6552L261.2787 402.3662" stroke="#EE1C23" stroke-width="2" stroke-linecap="round" fill="none" /><path id="1194" transform="matrix(1 0 0 -1 0 792)" d="M441.4611 372.6656L455.5401 372.6656" stroke="#EE1C23" stroke-width="1" fill="none" /><path id="1195" transform="matrix(1 0 0 -1 0 792)" d="M441.8764 375.3004L437.0864 372.6654L441.8764 370.0304z" stroke="none" fill="#EE1C23" fill-rule="nonzero" /><path id="1196" transform="matrix(1 0 0 -1 0 792)" d="M454.6969 403.1329L468.7759 403.1329" stroke="#221E1F" stroke-width="1" fill="none" /><path id="1197" transform="matrix(1 0 0 -1 0 792)" d="M455.1122 405.7677L450.3222 403.1327L455.1122 400.4977z" stroke="none" fill="#221E1F" fill-rule="nonzero" /><path id="1206" transform="matrix(1 0 0 -1 0 792)" d="M489.7666 403.3466L501.0426 403.3466" stroke="#221E1F" stroke-width="0.6" fill="none" /></g></g></svg>