<svg xmlns="http://www.w3.org/2000/svg" xmlns:xlink="http://www.w3.org/1999/xlink" id="body_41" preserveAspectRatio="xMinYMin meet" viewBox="0 0 816 1056"><defs><clipPath id="1"><path id="" clip-rule="evenodd" transform="matrix(1 0 0 1 0 0)" d="M0 792L0 0L0 0L612 0L612 0L612 792L612 792L0 792z" /></clipPath><clipPath id="2"><path id="" clip-rule="evenodd" transform="matrix(1 0 0 1 0 0)" d="M46 718.8L588.303 718.8L588.303 718.8L588.303 43.49896L588.303 43.49896L46 43.49896z" /></clipPath><clipPath id="3"><path id="" clip-rule="evenodd" transform="matrix(1 0 0 1 0 0)" d="M65.5 553.482L245.5 553.482L245.5 553.482L245.5 498.642L245.5 498.642L65.5 498.642z" /></clipPath><clipPath id="4"><path id="" clip-rule="evenodd" transform="matrix(1 0 0 1 0 0)" d="M348.58 562.042L497.58 562.042L497.58 562.042L497.58 525.042L497.58 525.042L348.58 525.042z" /></clipPath></defs><g transform="matrix(1.333333 0 0 1.333333 0 0)"><g clip-path="url(#1)"><path id="1" transform="matrix(1 0 0 -1 0 792)" d="M54 39.5055L558 39.5055" stroke="#221E1F" stroke-width="0.5" fill="none" /><path id="30" transform="matrix(1 0 0 -1 0 792)" d="M46 73.2L588.303 73.2L588.303 748.501L46 748.501z" stroke="none" fill="#FFFFFF" fill-rule="nonzero" /><g clip-path="url(#2)"></g><path id="535" transform="matrix(1 0 0 -1 0 792)" d="M131.375 255.9821L146 255.9821" stroke="#060606" stroke-width="0.594" stroke-linecap="square" fill="none" /><g clip-path="url(#3)"></g><path id="596" transform="matrix(1 0 0 -1 0 792)" d="M106.2187 180.5885L120.8437 180.5885" stroke="#060606" stroke-width="0.281" stroke-linecap="square" fill="none" /><path id="597" transform="matrix(1 0 0 -1 0 792)" d="M205 180.5885L219.625 180.5885" stroke="#060606" stroke-width="0.281" stroke-linecap="square" fill="none" /><path id="598" transform="matrix(1 0 0 -1 0 792)" d="M169.5937 147.5885L184.2187 147.5885" stroke="#060606" stroke-width="0.281" stroke-linecap="square" fill="none" /><path id="599" transform="matrix(1 0 0 -1 0 792)" d="M105.2812 162.8385L226.4372 162.8385" stroke="#060606" stroke-width="0.594" stroke-linecap="square" fill="none" /><path id="669" transform="matrix(1 0 0 -1 0 792)" d="M458.33 464.2682L472.955 464.2682" stroke="#060606" stroke-width="0.281" stroke-linecap="square" fill="none" /><path id="670" transform="matrix(1 0 0 -1 0 792)" d="M435.955 431.2682L450.58 431.2682" stroke="#060606" stroke-width="0.281" stroke-linecap="square" fill="none" /><path id="671" transform="matrix(1 0 0 -1 0 792)" d="M384.6737 446.5182L479.7677 446.5182" stroke="#060606" stroke-width="0.594" stroke-linecap="square" fill="none" /><path id="779" transform="matrix(1 0 0 -1 0 792)" d="M379.1112 356.2383L485.4862 356.2383" stroke="#060606" stroke-width="0.594" stroke-linecap="square" fill="none" /><path id="979" transform="matrix(1 0 0 -1 0 792)" d="M381.9862 248.9583L406.1742 248.9583" stroke="#060606" stroke-width="0.594" stroke-linecap="square" fill="none" /><g clip-path="url(#4)"></g><path id="982" transform="matrix(1 0 0 -1 0 792)" d="M417.6112 248.9583L494.1112 248.9583" stroke="#060606" stroke-width="0.594" stroke-linecap="square" fill="none" /><path id="1225" transform="matrix(1 0 0 -1 0 792)" d="M270.5258 694.8431L278.4978 694.8431" stroke="#221E1F" stroke-width="0.95" fill="none" /><path id="1226" transform="matrix(1 0 0 -1 0 792)" d="M270.9203 697.3461L266.3703 694.8431L270.9203 692.3401z" stroke="none" fill="#221E1F" fill-rule="nonzero" /><path id="1227" transform="matrix(1 0 0 -1 0 792)" d="M252.2778 694.8431L244.3058 694.8431" stroke="#221E1F" stroke-width="0.95" fill="none" /><path id="1228" transform="matrix(1 0 0 -1 0 792)" d="M251.8832 692.34L256.4332 694.843L251.8832 697.346z" stroke="none" fill="#221E1F" fill-rule="nonzero" /><path id="1229" transform="matrix(1 0 0 -1 0 792)" d="M220.2178 580.1733L275.1218 580.1733" stroke="#221E1F" stroke-width="0.95" fill="none" /><path id="1230" transform="matrix(1 0 0 -1 0 792)" d="M220.6123 582.6763L216.0623 580.1733L220.6123 577.6703z" stroke="none" fill="#221E1F" fill-rule="nonzero" /><path id="1231" transform="matrix(1 0 0 -1 0 792)" d="M274.7278 582.6763L279.2788 580.1733L274.7278 577.6703z" stroke="none" fill="#221E1F" fill-rule="nonzero" /><path id="1232" transform="matrix(1 0 0 -1 0 792)" d="M250.9495 597.0038L275.5265 597.0038M192.6135 722.7818L192.6135 597.1738M396.6335 666.2878L387.4435 666.2878L387.4435 666.2878L387.4435 658.0548" stroke="#221E1F" stroke-width="0.95" fill="none" /><path id="1233" transform="matrix(1 0 0 -1 0 792)" d="M251.3444 599.5073L246.7944 597.0043L251.3444 594.5013z" stroke="none" fill="#221E1F" fill-rule="nonzero" /><path id="1234" transform="matrix(1 0 0 -1 0 792)" d="M275.132 599.5073L279.682 597.0043L275.132 594.5013z" stroke="none" fill="#221E1F" fill-rule="nonzero" /><path id="1235" transform="matrix(1 0 0 -1 0 792)" d="M322.0399 580.1107L342.6089 580.1107" stroke="#221E1F" stroke-width="0.95" fill="none" /><path id="1236" transform="matrix(1 0 0 -1 0 792)" d="M322.4344 582.6138L317.8844 580.1108L322.4344 577.6078z" stroke="none" fill="#221E1F" fill-rule="nonzero" /><path id="1237" transform="matrix(1 0 0 -1 0 792)" d="M342.2141 582.6138L346.7641 580.1108L342.2141 577.6078z" stroke="none" fill="#221E1F" fill-rule="nonzero" /><path id="1238" transform="matrix(1 0 0 -1 0 792)" d="M197.2484 603.8353L210.9374 603.8353" stroke="#221E1F" stroke-width="0.95" fill="none" /><path id="1239" transform="matrix(1 0 0 -1 0 792)" d="M197.6429 606.3384L193.0929 603.8354L197.6429 601.3324z" stroke="none" fill="#221E1F" fill-rule="nonzero" /><path id="1240" transform="matrix(1 0 0 -1 0 792)" d="M210.543 606.3384L215.093 603.8354L210.543 601.3324z" stroke="none" fill="#221E1F" fill-rule="nonzero" /><path id="1241" transform="matrix(1 0 0 -1 0 792)" d="M184.5719 682.1407L184.5719 699.8838M308.5349 679.0068L308.5349 685.8988L308.5349 685.8988L298.6559 685.8988" stroke="#221E1F" stroke-width="0.95" fill="none" /><path id="1242" transform="matrix(1 0 0 -1 0 792)" d="M182.0692 699.4888L184.5722 704.0388L187.0752 699.4888z" stroke="none" fill="#221E1F" fill-rule="nonzero" /><path id="1243" transform="matrix(1 0 0 -1 0 792)" d="M139.773 704.303L373.283 704.303" stroke="#221E1F" stroke-width="0.95" stroke-dasharray="4.75,4.75" fill="none" /><path id="1244" transform="matrix(1 0 0 -1 0 792)" d="M437.2869 701.7061L437.2869 687.5311M311.3059 702.2421L471.5989 702.2421" stroke="#0060AF" stroke-width="0.95" fill="none" /><path id="1245" transform="matrix(1 0 0 -1 0 792)" d="M439.7904 687.9255L437.2874 683.3755L434.7844 687.9255z" stroke="none" fill="#0060AF" fill-rule="nonzero" /><path id="1246" transform="matrix(1 0 0 -1 0 792)" d="M270.5724 630.8251L275.4724 630.8251" stroke="#221E1F" stroke-width="0.95" fill="none" /><path id="1247" transform="matrix(1 0 0 -1 0 792)" d="M270.9669 633.3281L266.4169 630.8251L270.9669 628.3221z" stroke="none" fill="#221E1F" fill-rule="nonzero" /><path id="1248" transform="matrix(1 0 0 -1 0 792)" d="M275.0781 633.3281L279.6281 630.8251L275.0781 628.3221z" stroke="none" fill="#221E1F" fill-rule="nonzero" /><path id="1249" transform="matrix(1 0 0 -1 0 792)" d="M227.8347 693.9772L227.8347 697.4232L227.8347 697.4232L217.9557 697.4232" stroke="#221E1F" stroke-width="0.95" fill="none" /><path id="1405" transform="matrix(1 0 0 -1 0 792)" d="M206.7115 709.2673L223.1015 730.3213" stroke="#221E1F" stroke-width="0.95" fill="none" /><path id="1406" transform="matrix(1 0 0 -1 0 792)" d="M204.9789 711.1166L204.1589 705.9886L208.9289 708.0416z" stroke="none" fill="#221E1F" fill-rule="nonzero" /><path id="1420" transform="matrix(1 0 0 -1 0 792)" d="M145.7022 689.5833L180.8292 689.5833" stroke="#221E1F" stroke-width="0.57" fill="none" /><path id="1421" transform="matrix(1 0 0 -1 0 792)" d="M179.3117 682.7007L447.1017 682.7007" stroke="#221E1F" stroke-width="0.95" stroke-dasharray="4.75,2.85" fill="none" /><path id="1422" transform="matrix(1 0 0 -1 0 792)" d="M128.5863 669.743L475.3633 669.743" stroke="#EE1C23" stroke-width="0.95" stroke-dasharray="4.75,2.85" fill="none" /><path id="1423" transform="matrix(1 0 0 -1 0 792)" d="M347.6373 746.2588L347.6373 575.0038M316.9933 648.4448L316.9933 575.4468M246.4603 680.3198L246.4603 597.8458M215.6723 647.7378L215.6723 575.0038M279.9203 716.7928L279.9203 575.0038M256.8803 698.2058L256.8803 669.1838M265.8953 698.2058L265.8953 624.6948M128.5863 643.0898L477.2923 643.0898" stroke="#221E1F" stroke-width="0.95" stroke-dasharray="4.75,2.85" fill="none" /><path id="1424" transform="matrix(1 0 0 -1 0 792)" d="M192.6133 548.9283L215.6723 548.9283L215.6723 548.9283L215.5873 562.7123L215.5873 562.7123L279.9203 562.7123L279.9203 562.7123L279.9203 548.9283L279.9203 548.9283L363.7693 548.9283L363.7693 548.9283L363.7693 562.7123L363.7693 562.7123L386.8943 562.7123" stroke="#221E1F" stroke-width="0.95" fill="none" /><path id="1425" transform="matrix(1 0 0 -1 0 792)" d="M370.4359 642.9766L418.1779 684.2386M224.9369 643.1276L279.4989 690.3006" stroke="#EE1C23" stroke-width="0.95" fill="none" /><path id="1426" transform="matrix(1 0 0 -1 0 792)" d="M347.2844 703.7148L464.5174 658.0938M200.6114 703.7148L317.4364 658.3428M317.6924 658.2458L347.2464 703.7148" stroke="#221E1F" stroke-width="1.9" stroke-linecap="round" fill="none" /><path id="1427" transform="matrix(1 0 0 -1 0 792)" d="M167.4041 675.7109L215.9001 643.0899L215.9001 643.0899L279.5321 698.3429L279.5321 698.3429L362.7581 643.0899L362.7581 643.0899L412.2071 686.3019" stroke="#EE1C23" stroke-width="0.95" stroke-dasharray="4.75,0.95" fill="none" /><path id="1428" transform="matrix(1 0 0 -1 0 792)" d="M191.8728 704.0466L312.2538 657.0666" stroke="#221E1F" stroke-width="0.95" stroke-dasharray="4.75,2.85" fill="none" /><path id="1429" transform="matrix(1 0 0 -1 0 792)" d="M265.8953 682.8735L265.8953 687.0135L265.8953 687.0135L279.9203 687.0135L279.9203 687.0135L279.9203 672.4905L279.9203 672.4905L265.8953 672.4905L265.8953 672.4905L265.8953 674.3484" stroke="#0060AF" stroke-width="0.95" stroke-dasharray="1.9,0.95" fill="none" /><path id="1430" transform="matrix(1 0 0 -1 0 792)" d="M263.3922 683.2681L265.8952 678.7181L268.3982 683.2681z" stroke="none" fill="#0060AF" fill-rule="nonzero" /><path id="1431" transform="matrix(1 0 0 -1 0 792)" d="M263.3922 673.954L265.8952 678.504L268.3982 673.954z" stroke="none" fill="#0060AF" fill-rule="nonzero" /><path id="1432" transform="matrix(1 0 0 -1 0 792)" d="M262.9094 701.9316L277.8714 730.0306" stroke="#221E1F" stroke-width="0.95" fill="none" /><path id="1433" transform="matrix(1 0 0 -1 0 792)" d="M260.8854 703.4564L260.9564 698.2634L265.3044 701.1034z" stroke="none" fill="#221E1F" fill-rule="nonzero" /><path id="1434" transform="matrix(1 0 0 -1 0 792)" d="M203.8953 596.2996L203.8953 583.9136" stroke="#221E1F" stroke-width="0.95" fill="none" /><path id="1435" transform="matrix(1 0 0 -1 0 792)" d="M206.3983 595.9053L203.8953 600.4553L201.3923 595.9053z" stroke="none" fill="#221E1F" fill-rule="nonzero" /><path id="1436" transform="matrix(1 0 0 -1 0 792)" d="M252.8829 606.5225L273.5299 606.5225" stroke="#221E1F" stroke-width="0.95" fill="none" /></g></g></svg>