<svg xmlns="http://www.w3.org/2000/svg" xmlns:xlink="http://www.w3.org/1999/xlink" id="body_1" preserveAspectRatio="xMinYMin meet" viewBox="0 0 816 1056"><defs><clipPath id="1"><path id="" clip-rule="evenodd" transform="matrix(1 0 0 1 0 0)" d="M0 792L0 0L0 0L612 0L612 0L612 792L612 792L0 792z" /></clipPath><clipPath id="2"><path id="" clip-rule="evenodd" transform="matrix(1 0 0 1 0 0)" d="M197.875 150.48L413.875 150.48L413.875 150.48L413.875 43.19995L413.875 43.19995L197.875 43.19995z" /></clipPath><clipPath id="3"><path id="" clip-rule="evenodd" transform="matrix(1 0 0 1 0 0)" d="M235.92 731.236L379.92 731.236L379.92 731.236L379.92 682.579L379.92 682.579L235.92 682.579z" /></clipPath></defs><g transform="matrix(1.333333 0 0 1.333333 0 0)"><g clip-path="url(#1)"><path id="1" transform="matrix(1 0 0 -1 0 792)" d="M54 39.5055L558 39.5055" stroke="#221E1F" stroke-width="0.5" fill="none" /><g clip-path="url(#2)"><g transform="matrix(0.18 0 0 0.18 197.875 43.19995)"><g transform="matrix(1 0 0 1 0 0)"><image x="0" y="0" xlink:href="img_01.png" width="1200" height="601" /></g></g></g><g clip-path="url(#3)"><path id="32" transform="matrix(1 0 0 -1 0 792)" d="M281.2105 91.8756L281.2105 84.0466C 281.2105 83.2166 280.7885 83.0866 280.3805 82.9566L280.3805 82.9566L280.3805 82.6796L280.3805 82.6796L283.9945 82.6796L283.9945 82.6796L283.9945 82.9566C 283.5875 83.0866 283.1635 83.2166 283.1635 84.0466L283.1635 84.0466L283.1635 91.8756C 283.1635 92.3476 283.3105 92.4616 283.9285 92.4616C 285.6215 92.4616 286.4515 92.4286 287.0535 91.4856L287.0535 91.4856L287.2645 91.6146L287.2645 91.6146L286.5825 93.6166L286.5825 93.6166L277.7765 93.6166L277.7765 93.6166L277.0935 91.6146L277.0935 91.6146L277.3045 91.4856C 278.0375 92.41261 278.6075 92.4616 280.4455 92.4616C 281.0645 92.4616 281.2105 92.3476 281.2105 91.8756" stroke="none" fill="#221E1F" fill-rule="nonzero" /><path id="33" transform="matrix(1 0 0 -1 0 792)" d="M285.3287 90.7526C 285.8647 90.6066 286.1427 90.4766 286.1427 89.66261L286.1427 89.66261L286.1427 84.0466C 286.1427 83.2166 285.8647 83.0866 285.3287 82.9566L285.3287 82.9566L285.3287 82.6796L285.3287 82.6796L292.1477 82.6796L292.1477 82.6796L292.9287 84.6336L292.9287 84.6336L292.7167 84.7796C 292.0337 83.8846 291.3177 83.6726 290.3737 83.6726L290.3737 83.6726L288.6157 83.6726C 288.0627 83.6726 287.9327 83.6896 287.9327 84.2266L287.9327 84.2266L287.9327 86.5696L287.9327 86.5696L290.0647 86.5696C 290.8947 86.5696 291.0247 86.3746 291.1557 85.8866L291.1557 85.8866L291.4807 85.8866L291.4807 85.8866L291.4807 88.2306L291.4807 88.2306L291.1557 88.2306C 291.0247 87.7416 290.8947 87.5296 290.0647 87.5296L290.0647 87.5296L287.9327 87.5296L287.9327 87.5296L287.9327 89.4996C 287.9327 89.9056 288.0627 90.0366 288.6157 90.0366L288.6157 90.0366L290.1137 90.0366C 291.0737 90.0366 291.5777 89.7926 292.3097 89.0106L292.3097 89.0106L292.5217 89.1576L292.5217 89.1576L291.8387 91.0296L291.8387 91.0296L285.3287 91.0296z" stroke="none" fill="#221E1F" fill-rule="nonzero" /><path id="34" transform="matrix(1 0 0 -1 0 792)" d="M294.1002 89.7922L296.1842 86.8462L296.1842 86.8462L294.2142 84.0472C 293.6122 83.2012 293.2542 83.0872 292.7002 82.9572L292.7002 82.9572L292.7002 82.6802L292.7002 82.6802L295.8582 82.6802L295.8582 82.6802L295.8582 82.9572C 295.2562 83.0712 294.9952 83.2992 295.4022 83.9332L295.4022 83.9332L296.7822 86.0902L296.7822 86.0902L298.2352 83.9982C 298.7712 83.2342 298.2012 83.0212 297.7132 82.9572L297.7132 82.9572L297.7132 82.6802L297.7132 82.6802L303.4252 82.6802L303.4252 82.6802L303.4252 82.9572C 302.8562 83.0542 302.5952 83.2502 302.8882 84.0312L302.8882 84.0312L303.2612 85.0072L303.2612 85.0072L306.6802 85.0072L306.6802 85.0072L307.0392 84.0312C 307.2662 83.3962 307.1852 83.0542 306.5172 82.9572L306.5172 82.9572L306.5172 82.6802L306.5172 82.6802L310.0332 82.6802L310.0332 82.6802L310.0332 82.9572C 309.6262 83.0872 309.2522 83.4292 309.0732 83.9002L309.0732 83.9002L306.3552 91.0292L306.3552 91.0292L304.4992 91.0292L304.4992 91.0292L301.8952 84.3882C 301.6172 83.6992 301.3652 83.3742 301.0902 83.1872C 300.8742 83.3232 300.6772 83.5302 300.4142 83.9002L300.4142 83.9002L298.1262 87.1452L298.1262 87.1452L299.9762 89.7592C 300.4642 90.4592 300.8712 90.6062 301.3592 90.7522L301.3592 90.7522L301.3592 91.0292L301.3592 91.0292L298.3802 91.0292L298.3802 91.0292L298.3802 90.7522C 298.9992 90.7042 299.1782 90.3622 298.8202 89.8252L298.8202 89.8252L297.5292 87.9122L297.5292 87.9122L296.3632 89.6622C 295.8742 90.3782 296.2322 90.6712 296.7702 90.7522L296.7702 90.7522L296.7702 91.0292L296.7702 91.0292L292.8152 91.0292L292.8152 91.0292L292.8152 90.7522C 293.3672 90.6062 293.6442 90.4432 294.1002 89.7922M305.0042 89.5812L306.3412 85.9352L303.6142 85.9352z" stroke="none" fill="#221E1F" fill-rule="nonzero" /><path id="35" transform="matrix(1 0 0 -1 0 792)" d="M310.7977 82.68C 310.7977 82.81 310.9287 83.087 311.0907 83.087C 311.4647 82.908 312.0997 82.534 313.2717 82.534C 315.2407 82.534 316.6247 83.511 316.6247 85.17C 316.6247 86.733 315.7617 87.367 314.1017 87.742L314.1017 87.742L312.5877 88.084C 311.7247 88.279 311.4487 88.523 311.4487 89.06C 311.4487 89.679 311.9367 90.085 313.0117 90.085C 314.2147 90.085 315.1587 89.515 315.8427 88.735L315.8427 88.735L316.0547 88.881L316.0547 88.881L315.4357 91.029L315.4357 91.029L315.0447 91.029C 315.0447 90.851 314.9647 90.655 314.8017 90.655C 314.4427 90.851 313.8897 91.159 312.9457 91.159C 311.2537 91.159 309.9357 90.281 309.9357 88.685C 309.9357 87.465 310.6677 86.7 312.2617 86.342L312.2617 86.342L313.6947 86.016C 314.6557 85.805 314.9957 85.463 314.9957 84.861C 314.9957 84.031 314.3297 83.591 313.2387 83.591C 311.7087 83.591 310.7327 84.389 309.9357 85.316L309.9357 85.316L309.7237 85.17L309.7237 85.17L310.3907 82.68z" stroke="none" fill="#221E1F" fill-rule="nonzero" /><path id="36" transform="matrix(1 0 0 -1 0 792)" d="M280.3016 80.6422C 280.8056 80.49519 281.2126 80.3652 281.2126 79.55119L281.2126 79.55119L281.2126 71.3482C 281.2126 70.5182 280.8056 70.3892 280.3016 70.25819L280.3016 70.25819L280.3016 69.98219L280.3016 69.98219L284.0776 69.98219L284.0776 69.98219L284.0776 70.25819C 283.5726 70.3892 283.1656 70.5182 283.1656 71.3482L283.1656 71.3482L283.1656 79.55119C 283.1656 80.3652 283.5726 80.49519 284.0776 80.6422L284.0776 80.6422L284.0776 80.9182L284.0776 80.9182L280.3016 80.9182z" stroke="none" fill="#221E1F" fill-rule="nonzero" /><path id="37" transform="matrix(1 0 0 -1 0 792)" d="M290.6679 78.0546C 291.1569 77.9076 291.4339 77.7786 291.4339 76.96461L291.4339 76.96461L291.4339 73.5466L291.4339 73.5466L291.3849 73.5466L291.3849 73.5466L287.1849 78.3306L287.1849 78.3306L284.7279 78.3306L284.7279 78.3306L284.7279 78.0546C 285.2159 77.84261 285.5409 77.6796 285.5409 76.96461L285.5409 76.96461L285.5409 71.3486C 285.5409 70.5676 285.2649 70.3886 284.7279 70.25861L284.7279 70.25861L284.7279 69.98161L284.7279 69.98161L287.5109 69.98161L287.5109 69.98161L287.5109 70.25861C 287.0709 70.3886 286.6479 70.5676 286.6479 71.3486L286.6479 71.3486L286.6479 76.1986L286.6479 76.1986L286.6979 76.1986L286.6979 76.1986L292.2469 69.8676L292.2469 69.8676L292.5399 69.8676L292.5399 69.8676L292.5399 76.96461C 292.5399 77.7786 292.9469 77.9076 293.2729 78.0546L293.2729 78.0546L293.2729 78.3306L293.2729 78.3306L290.6679 78.3306z" stroke="none" fill="#221E1F" fill-rule="nonzero" /><path id="38" transform="matrix(1 0 0 -1 0 792)" d="M297.9427 75.0432L296.4297 75.3852C 295.5667 75.5802 295.2897 75.8242 295.2897 76.3612C 295.2897 76.98019 295.7787 77.3872 296.8527 77.3872C 298.0577 77.3872 299.0007 76.8172 299.6847 76.03619L299.6847 76.03619L299.8967 76.1822L299.8967 76.1822L299.2777 78.3312L299.2777 78.3312L298.8867 78.3312C 298.8867 78.1522 298.8057 77.9572 298.6427 77.9572C 298.2847 78.1522 297.7317 78.4612 296.7877 78.4612C 295.0957 78.4612 293.7767 77.5822 293.7767 75.9872C 293.7767 74.7672 294.5097 74.0022 296.1037 73.6442L296.1037 73.6442L297.5367 73.3182C 298.4967 73.1062 298.8387 72.7652 298.8387 72.1622C 298.8387 71.3332 298.1717 70.8932 297.0807 70.8932C 295.5507 70.8932 294.5747 71.6902 293.7767 72.61819L293.7767 72.61819L293.5657 72.4722L293.5657 72.4722L294.2327 69.9822L294.2327 69.9822L294.6397 69.9822C 294.6397 70.1122 294.7697 70.3892 294.9317 70.3892C 295.3067 70.2102 295.9417 69.8352 297.1137 69.8352C 299.0827 69.8352 300.4667 70.81219 300.4667 72.4722C 300.4667 74.03419 299.6027 74.6692 297.9427 75.0432" stroke="none" fill="#221E1F" fill-rule="nonzero" /><path id="39" transform="matrix(1 0 0 -1 0 792)" d="M300.9537 78.331L300.2867 76.183L300.2867 76.183L300.4977 76.037C 301.3927 77.224 301.6377 77.33801 302.8247 77.33801C 303.2317 77.33801 303.3627 77.306 303.3627 76.801L303.3627 76.801L303.3627 71.349C 303.3627 70.518 303.1187 70.389 302.4517 70.258L302.4517 70.258L302.4517 69.982L302.4517 69.982L306.0317 69.982L306.0317 69.982L306.0317 70.258C 305.3807 70.389 305.1197 70.518 305.1197 71.349L305.1197 71.349L305.1197 76.801C 305.1197 77.306 305.2507 77.33801 305.6577 77.33801C 306.8447 77.33801 307.1547 77.224 308.0497 76.037L308.0497 76.037L308.2617 76.183L308.2617 76.183L307.5947 78.331z" stroke="none" fill="#221E1F" fill-rule="nonzero" /><path id="40" transform="matrix(1 0 0 -1 0 792)" d="M315.4551 72.4562C 314.9501 73.2702 314.4291 73.6272 313.8271 73.7742L313.8271 73.7742L313.8271 73.8222C 315.2591 74.0512 316.0731 74.7992 316.0731 76.0202C 316.0731 77.6482 314.7711 78.3312 312.6711 78.3312L312.6711 78.3312L308.3911 78.3312L308.3911 78.3312L308.3911 78.0542C 308.9291 77.9082 309.2051 77.77821 309.2051 76.9642L309.2051 76.9642L309.2051 71.34821C 309.2051 70.5182 308.9291 70.38921 308.3911 70.2582L308.3911 70.2582L308.3911 69.9822L308.3911 69.9822L311.8911 69.9822L311.8911 69.9822L311.8911 70.2582C 311.3861 70.38921 311.0441 70.5182 311.0441 71.34821L311.0441 71.34821L311.0441 73.43221L311.0441 73.43221L311.9071 73.43221C 312.9161 73.43221 313.0631 73.0252 313.7141 71.6592C 314.2511 70.5352 314.9671 69.83521 316.3171 69.83521C 317.0011 69.83521 317.2781 69.9652 317.5541 70.11221L317.5541 70.11221L317.5541 70.3402C 316.4641 70.5032 316.1051 71.3982 315.4551 72.4562M312.4771 74.4092L311.0441 74.4092L311.0441 74.4092L311.0441 76.6222C 311.0441 77.1592 311.1741 77.30521 311.5811 77.30521L311.5811 77.30521L312.5091 77.30521C 313.5181 77.30521 314.1031 76.9152 314.1031 75.9382C 314.1031 74.9132 313.4371 74.4092 312.4771 74.4092" stroke="none" fill="#221E1F" fill-rule="nonzero" /><path id="41" transform="matrix(1 0 0 -1 0 792)" d="M322.8597 78.0546C 323.2817 77.9566 323.6897 77.7786 323.6897 76.96461L323.6897 76.96461L323.6897 72.8466C 323.6897 71.47961 323.1687 70.8766 321.6217 70.8766C 319.9787 70.8766 319.3917 71.47961 319.3917 72.8466L319.3917 72.8466L319.3917 76.96461C 319.3917 77.7786 319.7027 77.9566 320.2057 78.0546L320.2057 78.0546L320.2057 78.3306L320.2057 78.3306L316.7897 78.3306L316.7897 78.3306L316.7897 78.0546C 317.2927 77.9736 317.6187 77.7786 317.6187 76.96461L317.6187 76.96461L317.6187 72.71561C 317.6187 70.4866 319.5557 69.8356 321.3787 69.8356C 323.4127 69.8356 324.8617 70.5186 324.8617 72.8466L324.8617 72.8466L324.8617 76.96461C 324.8617 77.7786 325.1057 77.94061 325.6107 78.0546L325.6107 78.0546L325.6107 78.3306L325.6107 78.3306L322.8597 78.3306z" stroke="none" fill="#221E1F" fill-rule="nonzero" /><path id="42" transform="matrix(1 0 0 -1 0 792)" d="M331.5179 72.9113L329.1089 78.3313L329.1089 78.3313L326.1149 78.3313L326.1149 78.3313L326.1149 78.0543C 326.6519 77.9073 326.9279 77.7783 326.9279 76.9643L326.9279 76.9643L326.9279 71.3483C 326.9279 70.6173 326.6189 70.4213 326.1149 70.2583L326.1149 70.2583L326.1149 69.9823L326.1149 69.9823L328.7669 69.9823L328.7669 69.9823L328.7669 70.2583C 328.2139 70.4053 327.9699 70.6173 327.9699 71.3483L327.9699 71.3483L327.9699 76.5893L327.9699 76.5893L330.9809 69.8513L330.9809 69.8513L331.2089 69.8513L331.2089 69.8513L334.1379 76.5893L334.1379 76.5893L334.1379 71.3483C 334.1379 70.5183 333.7799 70.3723 333.3729 70.2583L333.3729 70.2583L333.3729 69.9823L333.3729 69.9823L336.7909 69.9823L336.7909 69.9823L336.7909 70.2583C 336.2539 70.3893 335.9769 70.5183 335.9769 71.3483L335.9769 71.3483L335.9769 76.9643C 335.9769 77.7783 336.2539 77.9073 336.7909 78.0543L336.7909 78.0543L336.7909 78.3313L336.7909 78.3313L333.8449 78.3313z" stroke="none" fill="#221E1F" fill-rule="nonzero" /><path id="43" transform="matrix(1 0 0 -1 0 792)" d="M342.4875 70.9746L340.7295 70.9746C 340.1765 70.9746 340.0465 70.9906 340.0465 71.5286L340.0465 71.5286L340.0465 73.87061L340.0465 73.87061L342.1775 73.87061C 343.0085 73.87061 343.1385 73.67661 343.2685 73.1886L343.2685 73.1886L343.5935 73.1886L343.5935 73.1886L343.5935 75.5316L343.5935 75.5316L343.2685 75.5316C 343.1385 75.0436 343.0085 74.8316 342.1775 74.8316L342.1775 74.8316L340.0465 74.8316L340.0465 74.8316L340.0465 76.80161C 340.0465 77.2076 340.1765 77.3386 340.7295 77.3386L340.7295 77.3386L342.2275 77.3386C 343.1865 77.3386 343.6905 77.09361 344.4235 76.3136L344.4235 76.3136L344.6355 76.4596L344.6355 76.4596L343.9515 78.3306L343.9515 78.3306L337.4415 78.3306L337.4415 78.3306L337.4415 78.0546C 337.9785 77.9076 338.2565 77.7786 338.2565 76.9646L338.2565 76.9646L338.2565 71.3486C 338.2565 70.5186 337.9785 70.3886 337.4415 70.2586L337.4415 70.2586L337.4415 69.98161L337.4415 69.98161L344.2605 69.98161L344.2605 69.98161L345.0425 71.9356L345.0425 71.9356L344.8305 72.0816C 344.1465 71.1866 343.4315 70.9746 342.4875 70.9746" stroke="none" fill="#221E1F" fill-rule="nonzero" /><path id="44" transform="matrix(1 0 0 -1 0 792)" d="M351.1789 78.0546C 351.6669 77.9076 351.9429 77.7786 351.9429 76.96461L351.9429 76.96461L351.9429 73.5466L351.9429 73.5466L351.8939 73.5466L351.8939 73.5466L347.6949 78.3306L347.6949 78.3306L345.2369 78.3306L345.2369 78.3306L345.2369 78.0546C 345.7259 77.84261 346.0519 77.6796 346.0519 76.96461L346.0519 76.96461L346.0519 71.3486C 346.0519 70.5676 345.7749 70.3886 345.2369 70.25861L345.2369 70.25861L345.2369 69.98161L345.2369 69.98161L348.0209 69.98161L348.0209 69.98161L348.0209 70.25861C 347.5809 70.3886 347.1579 70.5676 347.1579 71.3486L347.1579 71.3486L347.1579 76.1986L347.1579 76.1986L347.2059 76.1986L347.2059 76.1986L352.7559 69.8676L352.7559 69.8676L353.0499 69.8676L353.0499 69.8676L353.0499 76.96461C 353.0499 77.7786 353.4569 77.9076 353.7819 78.0546L353.7819 78.0546L353.7819 78.3306L353.7819 78.3306L351.1789 78.3306z" stroke="none" fill="#221E1F" fill-rule="nonzero" /><path id="45" transform="matrix(1 0 0 -1 0 792)" d="M354.5473 78.331L353.8793 76.183L353.8793 76.183L354.0903 76.037C 354.9853 77.224 355.2303 77.33801 356.4183 77.33801C 356.8253 77.33801 356.9553 77.306 356.9553 76.801L356.9553 76.801L356.9553 71.349C 356.9553 70.518 356.7103 70.389 356.0443 70.258L356.0443 70.258L356.0443 69.982L356.0443 69.982L359.6253 69.982L359.6253 69.982L359.6253 70.258C 358.9733 70.389 358.7133 70.518 358.7133 71.349L358.7133 71.349L358.7133 76.801C 358.7133 77.306 358.8433 77.33801 359.2503 77.33801C 360.4383 77.33801 360.7473 77.224 361.6433 76.037L361.6433 76.037L361.8543 76.183L361.8543 76.183L361.1873 78.331z" stroke="none" fill="#221E1F" fill-rule="nonzero" /><path id="46" transform="matrix(1 0 0 -1 0 792)" d="M366.4603 75.0432L364.9473 75.3852C 364.0843 75.5802 363.8073 75.8242 363.8073 76.3612C 363.8073 76.98019 364.2953 77.3872 365.3693 77.3872C 366.5733 77.3872 367.5183 76.8172 368.2013 76.03619L368.2013 76.03619L368.4133 76.1822L368.4133 76.1822L367.7943 78.3312L367.7943 78.3312L367.4043 78.3312C 367.4043 78.1522 367.3223 77.9572 367.1593 77.9572C 366.8013 78.1522 366.2483 78.4612 365.3033 78.4612C 363.6113 78.4612 362.2943 77.5822 362.2943 75.9872C 362.2943 74.7672 363.0263 74.0022 364.6213 73.6442L364.6213 73.6442L366.0533 73.3182C 367.0123 73.1062 367.3553 72.7652 367.3553 72.1622C 367.3553 71.3332 366.6883 70.8932 365.5973 70.8932C 364.0673 70.8932 363.0903 71.6902 362.2943 72.61819L362.2943 72.61819L362.0813 72.4722L362.0813 72.4722L362.7483 69.9822L362.7483 69.9822L363.1563 69.9822C 363.1563 70.1122 363.2863 70.3892 363.4483 70.3892C 363.8233 70.2102 364.4583 69.8352 365.6293 69.8352C 367.5983 69.8352 368.9833 70.81219 368.9833 72.4722C 368.9833 74.03419 368.1193 74.6692 366.4603 75.0432" stroke="none" fill="#221E1F" fill-rule="nonzero" /><path id="47" transform="matrix(1 0 0 -1 0 792)" d="M271.826 90.4216L271.826 93.62061L271.826 93.62061L266.697 93.62061L266.697 93.62061L266.051 90.3936L266.051 90.3936L267.896 90.3936L267.896 90.3936L267.304 87.4276L267.304 87.4276L265.459 87.4276L265.459 87.4276L264.819 84.2136C 264.77 83.99561 264.734 83.8376 264.711 83.6866C 264.56 82.70361 264.99 82.7516 266.37 82.7516L266.37 82.7516L265.739 79.59061L265.739 79.59061L263.325 79.59061C 261.043 79.59061 259.186 79.6146 259.669 81.9476C 259.744 82.3116 259.836 82.6656 259.902 83.0136L259.902 83.0136L260.765 87.4276L260.765 87.4276L258.991 87.4276L258.991 87.4276L259.584 90.3936L259.584 90.3936L261.357 90.3936L261.357 90.3936L262.003 93.62061L262.003 93.62061L260.343 93.62061L260.343 93.62061L260.343 98.4836L260.343 98.4836L254.203 98.4836L254.203 98.4836L254.203 88.5876L254.203 88.5876L246.857 88.5876C 247.039 86.02261 249.31 85.6496 250.137 83.8266C 250.707 82.5706 251.206 80.3626 252.871 80.3416C 254.147 80.3266 254.147 81.9916 255.787 81.9916C 257.427 81.9916 258.156 78.8756 259.614 76.3116C 260.708 74.2956 262.525 72.9446 264.171 72.8306C 265.521 72.7366 266.175 73.1966 266.175 73.1966C 265.811 73.9296 265.628 74.66161 265.628 75.7616C 265.628 77.4106 266.904 79.0576 268.362 80.1576C 270.367 81.6266 272.554 82.17561 273.283 82.35661L273.283 82.35661L273.283 87.4886C 273.283 87.4886 271.826 88.2686 271.826 90.4216M263.461 82.7516L265.617 93.62061L263.132 93.62061L260.977 82.7516zM266.284 97.0556L263.799 97.0556L263.324 94.6576L265.808 94.6576z" stroke="none" fill="#221E1F" fill-rule="nonzero" /></g></g></g></svg>