<svg xmlns="http://www.w3.org/2000/svg" xmlns:xlink="http://www.w3.org/1999/xlink" id="body_37" preserveAspectRatio="xMinYMin meet" viewBox="0 0 816 1056"><defs><clipPath id="1"><path id="" clip-rule="evenodd" transform="matrix(1 0 0 1 0 0)" d="M0 792L0 0L0 0L612 0L612 0L612 792L612 792L0 792z" /></clipPath><clipPath id="2"><path id="" clip-rule="evenodd" transform="matrix(1 0 0 1 0 0)" d="M45.428 736.657L587.795 736.657L587.795 736.657L587.795 38L587.795 38L45.428 38z" /></clipPath><clipPath id="3"><path id="" clip-rule="evenodd" transform="matrix(1 0 0 1 0 0)" d="M75.588 701.251L547.929 701.251L547.929 701.251L547.929 436.651L547.929 436.651L75.588 436.651z" /></clipPath><clipPath id="4"><path id="" clip-rule="evenodd" transform="matrix(1 0 0 1 0 0)" d="M75.588 701.251L547.929 701.251L547.929 701.251L547.929 436.651L547.929 436.651L75.588 436.651z" /></clipPath><clipPath id="5"><path id="" clip-rule="evenodd" transform="matrix(1 0 0 1 0 0)" d="M75.588 701.251L547.929 701.251L547.929 701.251L547.929 436.651L547.929 436.651L75.588 436.651z" /></clipPath></defs><g transform="matrix(1.333333 0 0 1.333333 0 0)"><g clip-path="url(#1)"><path id="1" transform="matrix(1 0 0 -1 0 792)" d="M54 39.5055L558 39.5055" stroke="#221E1F" stroke-width="0.5" fill="none" /><path id="30" transform="matrix(1 0 0 -1 0 792)" d="M45.428 55.343L587.795 55.343L587.795 754L45.428 754z" stroke="none" fill="#FFFFFF" fill-rule="nonzero" /><g clip-path="url(#2)"></g><path id="412" transform="matrix(1 0 0 -1 0 792)" d="M135.2036 159.2197L124.2236 159.2197M135.2606 154.8107L157.2216 154.8107L157.2216 154.8107L157.2216 163.5837L157.2216 163.5837L135.2606 163.5837z" stroke="#221E1F" stroke-width="0.98" fill="none" /><path id="486" transform="matrix(1 0 0 -1 0 792)" d="M487.5164 277.2114L487.5164 262.7354M387.7824 343.2854L373.4874 343.2854M405.4014 304.2544L405.4014 277.0164M402.5164 304.2544L402.5164 277.0164" stroke="#221E1F" stroke-width="0.98" fill="none" /><g clip-path="url(#3)"><path id="487" transform="matrix(1 0 0 -1 0 792)" d="M489.4925 277.2112C 489.4925 278.2982 488.6055 279.1872 487.5165 279.1872C 486.4285 279.1872 485.5415 278.2982 485.5415 277.2112C 485.5415 276.1242 486.4285 275.2352 487.5165 275.2352C 488.6055 275.2352 489.4925 276.1242 489.4925 277.2112" stroke="none" fill="#221E1F" fill-rule="evenodd" /><path id="488" transform="matrix(1 0 0 -1 0 792)" d="M349.2146 284.3257L380.5006 284.3257L380.5006 284.3257L380.5006 297.3467L380.5006 297.3467L349.2146 297.3467z" stroke="#221E1F" stroke-width="0.98" stroke-dasharray="4.9,0.98" fill="none" /><path id="489" transform="matrix(1 0 0 -1 0 792)" d="M438.8401 312.5847L448.1241 312.5847" stroke="#221E1F" stroke-width="0.98" fill="none" /><path id="490" transform="matrix(1 0 0 -1 0 792)" d="M447.7171 315.1667L452.4111 312.5847L452.4111 312.5847L447.7171 310.0027z" stroke="none" fill="#221E1F" fill-rule="evenodd" /><path id="491" transform="matrix(1 0 0 -1 0 792)" d="M521.3896 297.591L521.3896 288.307" stroke="#221E1F" stroke-width="0.98" fill="none" /><path id="492" transform="matrix(1 0 0 -1 0 792)" d="M523.9718 288.7141L521.3898 284.0201L521.3898 284.0201L518.8078 288.7141z" stroke="none" fill="#221E1F" fill-rule="evenodd" /></g><g clip-path="url(#4)"><path id="541" transform="matrix(1 0 0 -1 0 792)" d="M380.5073 212.7165L380.4623 212.7165L380.4623 212.7165L380.4623 230.5065L380.4623 230.5065L370.6953 230.5065M370.6953 236.3625L380.4953 236.3625L380.4953 236.3625L380.4953 230.0135M370.6953 242.1945L380.4953 242.1945L380.4953 242.1945L380.5013 259.8415M370.6953 231.8545L370.6953 227.4445M370.6953 238.5665L370.6953 234.1565M370.6953 245.0115L370.6953 240.6015M367.5103 245.0845L367.5103 230.5065L367.5103 230.5065L359.0583 230.5065" stroke="#221E1F" stroke-width="0.98" fill="none" /><path id="542" transform="matrix(1 0 0 -1 0 792)" d="M370.8611 236.339L377.3101 237.777L377.3101 237.777L377.3111 234.869z" stroke="none" fill="#221E1F" fill-rule="evenodd" /><path id="543" transform="matrix(1 0 0 -1 0 792)" d="M370.8611 236.339L377.3101 237.777L377.3101 237.777L377.3111 234.869L377.3111 234.869L370.8611 236.339z" stroke="#221E1F" stroke-width="0.588" fill="none" /><path id="544" transform="matrix(1 0 0 -1 0 792)" d="M380.5009 164.4886L380.4759 180.4586L380.4759 180.4586L384.7659 181.7296L384.7659 181.7296L376.1759 184.2756L376.1759 184.2756L384.7659 186.8226L384.7659 186.8226L376.1759 189.3666L376.1759 189.3666L384.7659 191.9136L384.7659 191.9136L376.1759 194.4586L376.1759 194.4586L380.4739 195.7306L380.4739 195.7306L380.4739 212.7166" stroke="#221E1F" stroke-width="0.98" fill="none" /><path id="545" transform="matrix(1 0 0 -1 0 792)" d="M378.4977 212.7167C 378.4977 213.8027 379.3847 214.6927 380.4737 214.6927C 381.5617 214.6927 382.4487 213.8037 382.4487 212.7167C 382.4487 211.6307 381.5617 210.7407 380.4737 210.7407C 379.3847 210.7407 378.4977 211.6297 378.4977 212.7167" stroke="none" fill="#221E1F" fill-rule="evenodd" /><path id="546" transform="matrix(1 0 0 -1 0 792)" d="M464.1981 277.3177L511.8241 277.3177L511.8241 277.3177L511.8251 283.5177L511.8251 283.5177L516.1151 284.7887L516.1151 284.7887L507.5251 287.3347L507.5251 287.3347L516.1151 289.8817L516.1151 289.8817L507.5251 292.4257L507.5251 292.4257L516.1151 294.9727L516.1151 294.9727L507.5251 297.5177L507.5251 297.5177L511.8231 298.7897L511.8231 298.7897L511.8231 304.3137L511.8231 304.3137L464.3361 304.3137" stroke="#221E1F" stroke-width="0.98" fill="none" /><path id="547" transform="matrix(1 0 0 -1 0 792)" d="M493.7449 262.826L481.3419 262.826L481.3419 262.826L487.5439 252.766z" stroke="none" fill="#FFFFFF" fill-rule="evenodd" /><path id="548" transform="matrix(1 0 0 -1 0 792)" d="M493.7449 262.826L481.3419 262.826L481.3419 262.826L487.5439 252.766L487.5439 252.766L493.7449 262.826z" stroke="#221E1F" stroke-width="0.98" fill="none" /><path id="549" transform="matrix(1 0 0 -1 0 792)" d="M439.0753 304.3142L430.2463 300.0312L430.2463 300.0312L430.2463 308.5962z" stroke="none" fill="#221E1F" fill-rule="evenodd" /><path id="550" transform="matrix(1 0 0 -1 0 792)" d="M464.1982 304.0686L464.1982 292.3476M469.5572 292.3466L458.8382 292.3466M262.0342 161.8096L269.5372 161.8096M264.7132 159.1286L266.8582 159.1286M259.3542 164.4886L272.2162 164.4886M376.8152 161.8096L384.3192 161.8096M379.4952 159.1286L381.6402 159.1286M374.1362 164.4886L386.9982 164.4886M380.5012 259.8426L380.5012 277.3176L380.5012 277.3176L396.5712 277.3176C 398.4342 277.3176 399.9972 278.8286 399.9972 280.6916C 399.9972 282.5546 398.4862 284.0596 396.6232 284.0596C 398.4862 284.0596 399.9972 285.5666 399.9972 287.4286C 399.9972 289.2916 398.4862 290.7976 396.6232 290.7976C 398.4862 290.7976 399.9972 292.3036 399.9972 294.1666C 399.9972 296.0296 398.4862 297.5436 396.6232 297.5436C 398.4862 297.5436 399.9972 299.0576 399.9972 300.9206C 399.9972 302.7836 398.4862 304.3136 396.6232 304.3136L396.6232 304.3136L380.5012 304.3136L380.5012 304.3136L380.5012 343.2726M464.1982 277.3176L411.5202 277.3176C 409.6572 277.3176 408.1462 278.8286 408.1462 280.6916C 408.1462 282.5546 409.6572 284.0596 411.5202 284.0596C 409.6572 284.0596 408.1462 285.5666 408.1462 287.4286C 408.1462 289.2916 409.6572 290.7976 411.5202 290.7976C 409.6572 290.7976 408.1462 292.3036 408.1462 294.1666C 408.1462 296.0296 409.6572 297.5436 411.5202 297.5436C 409.6572 297.5436 408.1462 299.0576 408.1462 300.9206C 408.1462 302.7836 409.6572 304.3136 411.5202 304.3136L411.5202 304.3136L430.2462 304.3136M439.1192 299.9636L439.1192 308.5386M438.8132 304.3136L464.3612 304.3136" stroke="#221E1F" stroke-width="0.98" fill="none" /><path id="551" transform="matrix(1 0 0 -1 0 792)" d="M466.1736 304.0689C 466.1736 305.1559 465.2866 306.0449 464.1976 306.0449C 463.1096 306.0449 462.2226 305.1559 462.2226 304.0689C 462.2226 302.9819 463.1096 302.0929 464.1976 302.0929C 465.2866 302.0929 466.1736 302.9819 466.1736 304.0689" stroke="none" fill="#221E1F" fill-rule="evenodd" /><path id="552" transform="matrix(1 0 0 -1 0 792)" d="M464.1981 288.8185L464.1981 277.0965" stroke="#221E1F" stroke-width="0.98" fill="none" /><path id="553" transform="matrix(1 0 0 -1 0 792)" d="M466.1736 277.0963C 466.1736 276.0093 465.2866 275.1203 464.1976 275.1203C 463.1096 275.1203 462.2226 276.0093 462.2226 277.0963C 462.2226 278.1833 463.1096 279.0723 464.1976 279.0723C 465.2866 279.0723 466.1736 278.1833 466.1736 277.0963" stroke="none" fill="#221E1F" fill-rule="evenodd" /><path id="554" transform="matrix(1 0 0 -1 0 792)" d="M469.5829 287.3186C 467.9999 288.2436 466.1559 288.7746 464.1879 288.7746C 462.2369 288.7746 460.4089 288.2536 458.8329 287.3416" stroke="#221E1F" stroke-width="0.98" fill="none" /><path id="555" transform="matrix(1 0 0 -1 0 792)" d="M396.356 302.2849C 397.146 302.2849 397.786 301.6439 397.786 300.8549C 397.786 300.0649 397.146 299.4239 396.356 299.4239C 395.566 299.4239 394.926 300.0649 394.926 300.8549C 394.926 301.6439 395.566 302.2849 396.356 302.2849" stroke="none" fill="#221E1F" fill-rule="evenodd" /><path id="556" transform="matrix(1 0 0 -1 0 792)" d="M396.356 302.2849C 397.146 302.2849 397.786 301.6439 397.786 300.8549C 397.786 300.0649 397.146 299.4239 396.356 299.4239C 395.566 299.4239 394.926 300.0649 394.926 300.8549C 394.926 301.6439 395.566 302.2849 396.356 302.2849z" stroke="#221E1F" stroke-width="0.98" fill="none" /><path id="557" transform="matrix(1 0 0 -1 0 792)" d="M411.8351 282.0331C 412.6251 282.0331 413.2651 281.3921 413.2651 280.6031C 413.2651 279.8131 412.6251 279.1721 411.8351 279.1721C 411.0451 279.1721 410.4051 279.8131 410.4051 280.6031C 410.4051 281.3921 411.0451 282.0331 411.8351 282.0331" stroke="none" fill="#221E1F" fill-rule="evenodd" /><path id="558" transform="matrix(1 0 0 -1 0 792)" d="M411.8351 282.0331C 412.6251 282.0331 413.2651 281.3921 413.2651 280.6031C 413.2651 279.8131 412.6251 279.1721 411.8351 279.1721C 411.0451 279.1721 410.4051 279.8131 410.4051 280.6031C 410.4051 281.3921 411.0451 282.0331 411.8351 282.0331z" stroke="#221E1F" stroke-width="0.98" fill="none" /><path id="559" transform="matrix(1 0 0 -1 0 792)" d="M364.8542 297.347L364.8542 304.314L364.8542 304.314L380.5012 304.314" stroke="#221E1F" stroke-width="0.98" stroke-dasharray="4.9,0.98" fill="none" /><path id="560" transform="matrix(1 0 0 -1 0 792)" d="M380.5009 306.2892C 381.5879 306.2892 382.4769 305.4022 382.4769 304.3132C 382.4769 303.2252 381.5879 302.3382 380.5009 302.3382C 379.4139 302.3382 378.5249 303.2252 378.5249 304.3132C 378.5249 305.4022 379.4139 306.2892 380.5009 306.2892" stroke="none" fill="#221E1F" fill-rule="evenodd" /><path id="561" transform="matrix(1 0 0 -1 0 792)" d="M380.5009 259.8422L364.8539 259.8422L364.8539 259.8422L364.8539 284.3262" stroke="#221E1F" stroke-width="0.98" stroke-dasharray="4.9,0.98" fill="none" /><path id="562" transform="matrix(1 0 0 -1 0 792)" d="M380.5009 257.8665C 381.5879 257.8665 382.4769 258.7535 382.4769 259.8425C 382.4769 260.9305 381.5879 261.8175 380.5009 261.8175C 379.4139 261.8175 378.5249 260.9305 378.5249 259.8425C 378.5249 258.7535 379.4139 257.8665 380.5009 257.8665" stroke="none" fill="#221E1F" fill-rule="evenodd" /><path id="563" transform="matrix(1 0 0 -1 0 792)" d="M191.3017 143.459L195.5837 134.63L195.5837 134.63L187.0187 134.63z" stroke="none" fill="#221E1F" fill-rule="evenodd" /><path id="564" transform="matrix(1 0 0 -1 0 792)" d="M191.3017 143.459L195.5837 134.63L195.5837 134.63L187.0187 134.63L187.0187 134.63L191.3017 143.459z" stroke="#221E1F" stroke-width="0.98" fill="none" /><path id="565" transform="matrix(1 0 0 -1 0 792)" d="M191.2989 143.5622L191.2989 159.4642M196.6379 141.4372L195.5779 144.1922L195.5779 144.1922L187.0149 144.1772L187.0149 144.1772L185.8109 147.1472" stroke="#221E1F" stroke-width="0.98" fill="none" /><path id="566" transform="matrix(1 0 0 -1 0 792)" d="M189.323 159.4639C 189.323 160.5509 190.21 161.4399 191.299 161.4399C 192.387 161.4399 193.274 160.5509 193.274 159.4639C 193.274 158.3769 192.387 157.4879 191.299 157.4879C 190.21 157.4879 189.323 158.3769 189.323 159.4639" stroke="none" fill="#221E1F" fill-rule="evenodd" /><path id="567" transform="matrix(1 0 0 -1 0 792)" d="M171.8152 121.334L191.2982 121.334L191.2982 121.334L191.2982 134.745" stroke="#221E1F" stroke-width="0.98" fill="none" /><path id="568" transform="matrix(1 0 0 -1 0 792)" d="M171.8152 123.3097C 170.7282 123.3097 169.8392 122.4227 169.8392 121.3337C 169.8392 120.2457 170.7282 119.3587 171.8152 119.3587C 172.9022 119.3587 173.7912 120.2457 173.7912 121.3337C 173.7912 122.4227 172.9022 123.3097 171.8152 123.3097" stroke="none" fill="#221E1F" fill-rule="evenodd" /><path id="569" transform="matrix(1 0 0 -1 0 792)" d="M265.8223 212.7171L265.8363 190.4941M264.8313 276.7801L264.8313 266.0611M271.2563 190.4941L260.5383 190.4941M268.4053 266.0611L268.4053 276.7801M260.5383 186.9201L271.2563 186.9201" stroke="#221E1F" stroke-width="0.98" fill="none" /><path id="570" transform="matrix(1 0 0 -1 0 792)" d="M267.7982 212.7178C 267.7972 213.8048 266.9102 214.6928 265.8212 214.6928C 264.7332 214.6918 263.8462 213.8018 263.8472 212.7158C 263.8472 211.6288 264.7352 210.7408 265.8232 210.7408C 266.9122 210.7418 267.7992 211.6318 267.7982 212.7178" stroke="none" fill="#221E1F" fill-rule="evenodd" /><path id="571" transform="matrix(1 0 0 -1 0 792)" d="M171.7712 110.3598L171.7732 132.6068L171.7732 132.6068L176.0632 133.8778L176.0632 133.8778L167.4732 136.4238L167.4732 136.4238L176.0632 138.9708L176.0632 138.9708L167.4732 141.5148L167.4732 141.5148L176.0632 144.0618L176.0632 144.0618L167.4732 146.6068L167.4732 146.6068L171.7712 147.8788L171.7712 147.8788L171.7712 159.3788M292.7622 238.2188L292.7642 239.1718L292.7642 239.1718L296.8702 240.4438L296.8702 240.4438L288.2812 242.9898L288.2812 242.9898L296.8702 245.5368L296.8702 245.5368L288.2812 248.0808L288.2812 248.0808L296.8702 250.6278L296.8702 250.6278L288.2812 253.1728L288.2812 253.1728L292.7622 254.4448L292.7622 254.4448L292.7622 255.5818M319.4992 290.1028L319.5012 291.0568L319.5012 291.0568L323.7912 292.3278L323.7912 292.3278L315.2022 294.8738L315.2022 294.8738L323.7912 297.4208L323.7912 297.4208L315.2022 299.9648L315.2022 299.9648L323.7912 302.5118L323.7912 302.5118L315.2022 305.0568L315.2022 305.0568L319.4992 306.3288L319.4992 306.3288L319.4992 307.4658M265.8362 186.9048L265.8222 164.4888" stroke="#221E1F" stroke-width="0.98" fill="none" /><path id="572" transform="matrix(1 0 0 -1 0 792)" d="M169.7951 159.3792C 169.7951 160.4662 170.6821 161.3552 171.7711 161.3552C 172.8591 161.3552 173.7461 160.4662 173.7461 159.3792C 173.7461 158.2922 172.8591 157.4032 171.7711 157.4032C 170.6821 157.4032 169.7951 158.2922 169.7951 159.3792" stroke="none" fill="#221E1F" fill-rule="evenodd" /><path id="573" transform="matrix(1 0 0 -1 0 792)" d="M168.1384 107.5565L175.6414 107.5565M170.8174 104.8755L172.9624 104.8755M165.4584 110.2355L178.3214 110.2355M169.0294 196.6565L176.3974 196.6565L176.3974 196.6565L176.3974 196.7905L176.3974 196.7905L178.1394 207.3745M181.7564 207.5075L174.3884 207.5075L174.3884 207.5075L174.3884 207.3745L174.3884 207.3745L172.6464 196.7905M190.6674 192.0305L204.3524 192.0305L204.3524 192.0305L204.3524 159.2195L204.3524 159.2195L157.1964 159.2195M154.4954 202.3895L190.6694 223.2905L190.6694 223.2905L190.6694 181.4875L190.6694 181.4875L154.4954 202.3895zM380.0074 212.6775L357.5154 212.6785L357.5154 212.6785L356.2434 216.9685L356.2434 216.9685L353.6994 208.3785L353.6994 208.3785L351.1524 216.9685L351.1524 216.9685L348.6074 208.3785L348.6074 208.3785L346.0614 216.9685L346.0614 216.9685L343.5164 208.3785L343.5164 208.3785L342.0654 212.7165L342.0654 212.7165L190.4244 212.7165" stroke="#221E1F" stroke-width="0.98" fill="none" /><path id="574" transform="matrix(1 0 0 -1 0 792)" d="M394.3829 194.1311L398.6699 194.1311L398.6699 194.1311L398.6699 202.9161L398.6699 202.9161L414.0619 210.6471L414.0619 210.6471L414.0619 194.1311L414.0619 194.1311L429.3129 194.1311" stroke="#0A74BC" stroke-width="1.96" fill="none" /><path id="575" transform="matrix(1 0 0 -1 0 792)" d="M319.4999 288.016L319.4999 212.717M270.2459 271.489L292.7619 271.489L292.7619 271.489L292.7619 256.711M380.5009 331.695L319.4999 331.695L319.4999 331.695L319.4999 308.351" stroke="#221E1F" stroke-width="0.98" stroke-dasharray="4.9,2.94" fill="none" /><path id="576" transform="matrix(1 0 0 -1 0 792)" d="M321.4752 212.7167C 321.4752 211.6297 320.5882 210.7407 319.4992 210.7407C 318.4112 210.7407 317.5242 211.6297 317.5242 212.7167C 317.5242 213.8037 318.4112 214.6927 319.4992 214.6927C 320.5882 214.6927 321.4752 213.8037 321.4752 212.7167" stroke="none" fill="#221E1F" fill-rule="evenodd" /><path id="577" transform="matrix(1 0 0 -1 0 792)" d="M292.7437 236.6207L292.7437 212.7167" stroke="#221E1F" stroke-width="0.98" stroke-dasharray="4.9,2.94" fill="none" /><path id="578" transform="matrix(1 0 0 -1 0 792)" d="M294.7194 212.7167C 294.7194 211.6297 293.8324 210.7407 292.7434 210.7407C 291.6554 210.7407 290.7684 211.6297 290.7684 212.7167C 290.7684 213.8037 291.6554 214.6927 292.7434 214.6927C 293.8324 214.6927 294.7194 213.8037 294.7194 212.7167" stroke="none" fill="#221E1F" fill-rule="evenodd" /><path id="579" transform="matrix(1 0 0 -1 0 792)" d="M76.782 259.4963L247.14 259.4963L247.14 259.4963L247.14 91.8363L247.14 91.8363L76.782 91.8363zM134.694 202.3903L154.497 202.3903" stroke="#221E1F" stroke-width="0.98" fill="none" /><path id="580" transform="matrix(1 0 0 -1 0 792)" d="M135.2604 205.6193L135.2604 219.5853L135.2604 219.5853L125.4714 219.5853L125.4714 219.5853L125.4714 205.6193L125.4714 205.6193L105.8924 205.6193L105.8924 205.6193L105.8924 219.5853L105.8924 219.5853L96.1024 219.5853L96.1024 219.5853L96.1024 205.6193L96.1024 205.6193L86.3134 205.6193M184.9644 280.1943L201.6974 291.1863L201.6974 291.1863L204.3524 280.1943L204.3524 280.1943L220.7534 291.1863L220.7534 291.1863L223.4464 280.1943" stroke="#0A74BC" stroke-width="1.96" fill="none" /></g><g clip-path="url(#5)"><path id="583" transform="matrix(1 0 0 -1 0 792)" d="M234.2828 271.4895L265.5658 271.4895" stroke="#221E1F" stroke-width="0.98" stroke-dasharray="4.9,2.94" fill="none" /></g></g></g></svg>