<svg xmlns="http://www.w3.org/2000/svg" xmlns:xlink="http://www.w3.org/1999/xlink" id="body_28" preserveAspectRatio="xMinYMin meet" viewBox="0 0 816 1056"><defs><clipPath id="1"><path id="" clip-rule="evenodd" transform="matrix(1 0 0 1 0 0)" d="M0 792L0 0L0 0L612 0L612 0L612 792L612 792L0 792z" /></clipPath><clipPath id="2"><path id="" clip-rule="evenodd" transform="matrix(1 0 0 1 0 0)" d="M41.5 630L565 630L565 630L565 43.20001L565 43.20001L41.5 43.20001z" /></clipPath><clipPath id="3"><path id="" clip-rule="evenodd" transform="matrix(1 0 0 1 0 0)" d="M41.5 630L565 630L565 630L565 43.20001L565 43.20001L41.5 43.20001z" /></clipPath><clipPath id="4"><path id="" clip-rule="evenodd" transform="matrix(1 0 0 1 0 0)" d="M94.525 312.2L517.525 312.2L517.525 312.2L517.525 43.20001L517.525 43.20001L94.525 43.20001z" /></clipPath><clipPath id="5"><path id="" clip-rule="evenodd" transform="matrix(1 0 0 1 0 0)" d="M94.525 312.2L517.525 312.2L517.525 312.2L517.525 43.20001L517.525 43.20001L94.525 43.20001z" /></clipPath><clipPath id="6"><path id="" clip-rule="evenodd" transform="matrix(1 0 0 1 0 0)" d="M94.525 312.2L517.525 312.2L517.525 312.2L517.525 43.20001L517.525 43.20001L94.525 43.20001z" /></clipPath><clipPath id="7"><path id="" clip-rule="evenodd" transform="matrix(1 0 0 1 0 0)" d="M94.525 312.2L517.525 312.2L517.525 312.2L517.525 43.20001L517.525 43.20001L94.525 43.20001z" /></clipPath><clipPath id="8"><path id="" clip-rule="evenodd" transform="matrix(1 0 0 1 0 0)" d="M94.525 312.2L517.525 312.2L517.525 312.2L517.525 43.20001L517.525 43.20001L94.525 43.20001z" /></clipPath><clipPath id="9"><path id="" clip-rule="evenodd" transform="matrix(1 0 0 1 0 0)" d="M94.525 312.2L517.525 312.2L517.525 312.2L517.525 43.20001L517.525 43.20001L94.525 43.20001z" /></clipPath></defs><g transform="matrix(1.333333 0 0 1.333333 0 0)"><g clip-path="url(#1)"><path id="1" transform="matrix(1 0 0 -1 0 792)" d="M54 39.5055L558 39.5055" stroke="#221E1F" stroke-width="0.5" fill="none" /><path id="30" transform="matrix(1 0 0 -1 0 792)" d="M41.5 162L565 162L565 748.8L41.5 748.8z" stroke="none" fill="#FFFFFF" fill-rule="nonzero" /><g clip-path="url(#2)"></g><g clip-path="url(#3)"></g><path id="931" transform="matrix(1 0 0 -1 0 792)" d="M146.827 606.9054L146.827 580.5214M209.4 591.9044L279.145 591.8834L279.145 591.8834L279.215 579.2524" stroke="#221E1F" stroke-width="1" fill="none" /><path id="932" transform="matrix(1 0 0 -1 0 792)" d="M149.4622 580.9372L146.8272 576.1472L144.1922 580.9372z" stroke="none" fill="#221E1F" fill-rule="nonzero" /><path id="933" transform="matrix(1 0 0 -1 0 792)" d="M262.4294 489.809L438.2104 489.809L438.2104 489.809L438.2104 720.213L438.2104 720.213L262.4294 720.213z" stroke="#221E1F" stroke-width="1" fill="none" /><path id="934" transform="matrix(1 0 0 -1 0 792)" d="M442.6508 502.2502L382.2118 524.2082" stroke="#EE1C23" stroke-width="1" fill="none" /><path id="935" transform="matrix(1 0 0 -1 0 792)" d="M381.7022 521.5896L378.1002 525.7016L383.5012 526.5426z" stroke="none" fill="#EE1C23" fill-rule="nonzero" /><g clip-path="url(#4)"><path id="936" transform="matrix(1 0 0 -1 0 792)" d="M384.0161 535.1991C 384.0161 542.2321 375.4821 547.9521 364.8861 547.9521C 354.3361 547.9521 345.7561 542.2321 345.7561 535.1991C 345.7561 528.1191 354.3361 522.4461 364.8861 522.4461C 375.4821 522.4461 384.0161 528.1191 384.0161 535.1991" stroke="#EE1C23" stroke-width="1" stroke-dasharray="5,1" fill="none" /></g><path id="937" transform="matrix(1 0 0 -1 0 792)" d="M228.1494 496.9622L235.9394 507.7402" stroke="#EE1C23" stroke-width="1" fill="none" /><path id="938" transform="matrix(1 0 0 -1 0 792)" d="M233.5605 508.9468L238.5015 511.2858L238.5015 511.2858L237.8315 505.8598z" stroke="none" fill="#EE1C23" fill-rule="evenodd" /><path id="939" transform="matrix(1 0 0 -1 0 792)" d="M267.1462 739.3621L254.3662 720.2701" stroke="#EE1C23" stroke-width="1" fill="none" /><path id="940" transform="matrix(1 0 0 -1 0 792)" d="M256.7867 719.15L251.9327 716.635L251.9327 716.635L252.4077 722.082z" stroke="none" fill="#EE1C23" fill-rule="evenodd" /><path id="941" transform="matrix(1 0 0 -1 0 792)" d="M447.0923 686.9521L417.4833 677.3841" stroke="#EE1C23" stroke-width="1" fill="none" /><path id="942" transform="matrix(1 0 0 -1 0 792)" d="M418.689 675.0049L413.321 676.0389L413.321 676.0389L417.068 680.0189z" stroke="none" fill="#EE1C23" fill-rule="evenodd" /><g clip-path="url(#5)"><path id="943" transform="matrix(1 0 0 -1 0 792)" d="M154.7787 506.1881L154.7767 539.8761L154.7767 539.8761L150.3987 541.1731L150.3987 541.1731L159.1637 543.7711L159.1637 543.7711L150.3987 546.3701L150.3987 546.3701L159.1637 548.9671L159.1637 548.9671L150.3987 551.5651L150.3987 551.5651L159.1637 554.1621L159.1637 554.1621L154.7787 555.4601L154.7787 555.4601L154.7757 591.9041M303.1567 635.8571L303.1587 641.0761L303.1587 641.0761L307.5357 642.3731L307.5357 642.3731L298.7717 644.9711L298.7717 644.9711L307.5357 647.5701L307.5357 647.5701L298.7717 650.1661L298.7717 650.1661L307.5357 652.7651L307.5357 652.7651L298.7717 655.3621L298.7717 655.3621L303.1567 656.6601L303.1567 656.6601L303.2137 669.5641M303.2137 669.5641L303.2137 684.7951L303.2137 684.7951L307.5357 686.0761L307.5357 686.0761L298.7717 688.6741L298.7717 688.6741L307.5357 691.2731L307.5357 691.2731L298.7717 693.8691L298.7717 693.8691L307.5357 696.4681L307.5357 696.4681L298.7717 699.0651L298.7717 699.0651L303.2137 700.4821L303.2137 700.4821L303.2137 711.1011L303.2137 711.1011L259.9317 711.1011M101.1247 575.6131L101.1247 564.2661M120.9577 575.6131L120.9577 564.2661M95.4507 564.2661L101.1247 564.2661M120.9577 564.2661L140.8377 564.2661M120.9577 585.5061L120.9577 575.6131M101.1247 575.6131L120.9577 585.5061" stroke="#221E1F" stroke-width="1" fill="none" /></g><path id="944" transform="matrix(1 0 0 -1 0 792)" d="M209.4 591.905L209.367 633.048L209.367 633.048L204.99 634.346L204.99 634.346L213.754 636.9431L213.754 636.9431L204.99 639.5421L204.99 639.5421L213.754 642.139L213.754 642.139L204.99 644.7371L204.99 644.7371L213.754 647.334L213.754 647.334L209.369 648.632L209.369 648.632L209.4 693.874" stroke="#0060AF" stroke-width="1" fill="none" /><path id="945" transform="matrix(1 0 0 -1 0 792)" d="M154.7754 591.9042L174.8954 591.9042L174.8954 591.9042L176.1934 596.3052L176.1934 596.3052L178.7894 587.5392L178.7894 587.5392L181.3884 596.3052L181.3884 596.3052L183.9854 587.5392L183.9854 587.5392L186.5834 596.3052L186.5834 596.3052L189.1804 587.5392L189.1804 587.5392L190.4734 591.9042L190.4734 591.9042L209.4004 591.9052M332.6124 579.8042L308.9294 579.7952L308.9294 579.7952L307.6314 575.4172L307.6314 575.4172L305.0364 584.1832L305.0364 584.1832L302.4374 575.4172L302.4374 575.4172L299.8404 584.1832L299.8404 584.1832L297.2424 575.4172L297.2424 575.4172L294.6454 584.1832L294.6454 584.1832L293.3454 579.7962L293.3454 579.7962L259.9324 579.7962" stroke="#221E1F" stroke-width="1" fill="none" /><g clip-path="url(#6)"><path id="946" transform="matrix(1 0 0 -1 0 792)" d="M154.7758 593.9203C 153.6668 593.9203 152.7598 593.0153 152.7598 591.9043C 152.7598 590.7933 153.6668 589.8883 154.7758 589.8883C 155.8848 589.8883 156.7918 590.7933 156.7918 591.9043C 156.7918 593.0153 155.8848 593.9203 154.7758 593.9203" stroke="none" fill="#221E1F" fill-rule="evenodd" /><path id="947" transform="matrix(1 0 0 -1 0 792)" d="M209.4 593.9207C 210.509 593.9207 211.416 593.0157 211.416 591.9047C 211.416 590.7937 210.509 589.8887 209.4 589.8887C 208.291 589.8887 207.384 590.7937 207.384 591.9047C 207.384 593.0157 208.291 593.9207 209.4 593.9207" stroke="none" fill="#221E1F" fill-rule="evenodd" /><path id="948" transform="matrix(1 0 0 -1 0 792)" d="M150.9936 502.9568L158.6506 502.9568M153.7286 500.2208L155.9166 500.2208M148.2596 505.6898L161.3846 505.6898M398.6166 535.1667L402.7346 535.1667M388.6276 669.5208L392.7456 669.5208M388.6276 680.2588L392.7456 680.2588M400.6716 554.2958L400.6716 558.4138M398.6166 556.3688L402.7346 556.3688M345.7786 648.7408L345.7786 652.8588M343.7236 650.8138L347.8416 650.8138M390.6826 656.9338L390.6826 661.0528M388.6276 659.0078L392.7456 659.0078M394.2846 535.2168L383.8666 535.2168M384.2956 659.0828L351.2436 659.1118L351.2436 659.1118L351.2436 598.0008M394.2766 556.3618L378.8626 556.3618M384.2866 680.2278L368.8736 680.2278M431.4446 545.7867L394.5326 567.1147L394.5326 567.1147L394.5326 524.4587L394.5326 524.4587L431.4446 545.7867zM421.4556 669.6528L384.5436 690.9808L384.5436 690.9808L384.5436 648.3248L384.5436 648.3248L421.4556 669.6528z" stroke="#221E1F" stroke-width="1" fill="none" /></g><g clip-path="url(#7)"><path id="970" transform="matrix(1 0 0 -1 0 792)" d="M357.1938 600.2469C 357.1938 613.4819 348.4568 624.2099 337.6918 624.2099C 326.9268 624.2099 318.1898 613.4819 318.1898 600.2469C 318.1898 587.0119 326.9268 576.2839 337.6918 576.2839C 348.4568 576.2839 357.1938 587.0119 357.1938 600.2469" stroke="#EE1C23" stroke-width="1" stroke-dasharray="5,1" fill="none" /><path id="971" transform="matrix(1 0 0 -1 0 792)" d="M449.8057 591.9044L361.5857 603.6254" stroke="#EE1C23" stroke-width="1" fill="none" /><path id="972" transform="matrix(1 0 0 -1 0 792)" d="M361.6508 600.9586L357.2498 604.2016L357.2498 604.2016L362.3448 606.1826z" stroke="none" fill="#EE1C23" fill-rule="evenodd" /></g><g clip-path="url(#8)"><path id="1172" transform="matrix(1 0 0 -1 0 792)" d="M154.7758 625.4531L144.7758 625.4531M144.7758 631.4271L154.7758 631.4271L154.7758 631.4271L154.7758 591.9052M144.7758 637.3792L154.7758 637.3792L154.7758 637.3792L154.7758 643.4531M144.7758 626.8281L144.7758 622.3281M144.7758 633.6771L144.7758 629.1771M144.7758 640.2531L144.7758 635.7531M141.5258 640.3281L141.5258 625.4231L141.5258 625.4231L128.3368 625.4591" stroke="#221E1F" stroke-width="1" fill="none" /><path id="1173" transform="matrix(1 0 0 -1 0 792)" d="M145.1947 631.404L151.7757 632.871L151.7757 632.871L151.7767 629.904z" stroke="none" fill="#221E1F" fill-rule="evenodd" /><path id="1174" transform="matrix(1 0 0 -1 0 792)" d="M145.1947 631.404L151.7757 632.871L151.7757 632.871L151.7767 629.904L151.7767 629.904L145.1947 631.404z" stroke="#221E1F" stroke-width="0.6" fill="none" /><path id="1175" transform="matrix(1 0 0 -1 0 792)" d="M317.6284 698.822L368.3944 698.822L368.3944 698.822L368.3944 675.215L368.3944 675.215L317.6284 675.215z" stroke="#221E1F" stroke-width="1" fill="none" /><path id="1176" transform="matrix(1 0 0 -1 0 792)" d="M332.3822 598.0005L378.3842 598.0005L378.3842 598.0005L378.3842 550.8495L378.3842 550.8495L267.1462 550.8495L267.1462 550.8495L267.1462 568.2735L267.1462 568.2735L332.3822 568.2735L332.3822 568.2735L332.3822 598.0005z" stroke="#949699" stroke-width="1" fill="none" /><path id="1177" transform="matrix(1 0 0 -1 0 792)" d="M372.7691 693.8743L393.4661 693.8743" stroke="#221E1F" stroke-width="1" fill="none" /><path id="1178" transform="matrix(1 0 0 -1 0 792)" d="M373.1844 696.5091L368.3944 693.8741L368.3944 693.8741L373.1844 691.2391z" stroke="none" fill="#221E1F" fill-rule="evenodd" /><path id="1179" transform="matrix(1 0 0 -1 0 792)" d="M327.6569 584.9281L327.6569 598.3261" stroke="#221E1F" stroke-width="1" fill="none" /><path id="1180" transform="matrix(1 0 0 -1 0 792)" d="M325.022 585.3433L327.657 580.5533L327.657 580.5533L330.292 585.3433z" stroke="none" fill="#221E1F" fill-rule="evenodd" /><path id="1181" transform="matrix(1 0 0 -1 0 792)" d="M279.1447 579.8042L279.1447 568.2732" stroke="#221E1F" stroke-width="1" fill="none" /><path id="1182" transform="matrix(1 0 0 -1 0 792)" d="M281.1607 579.8042C 281.1607 580.9132 280.2557 581.8202 279.1447 581.8202C 278.0337 581.8202 277.1287 580.9132 277.1287 579.8042C 277.1287 578.6952 278.0337 577.7882 279.1447 577.7882C 280.2557 577.7882 281.1607 578.6952 281.1607 579.8042" stroke="none" fill="#221E1F" fill-rule="evenodd" /><path id="1183" transform="matrix(1 0 0 -1 0 792)" d="M282.5803 551.1742L282.5803 539.6432" stroke="#808184" stroke-width="1" fill="none" /><path id="1184" transform="matrix(1 0 0 -1 0 792)" d="M332.6127 579.8042L351.2437 579.8042L351.2437 579.8042L351.2437 598.0002M279.1447 568.2732L279.1447 556.3622L279.1447 556.3622L378.8087 556.3752" stroke="#221E1F" stroke-width="1" stroke-dasharray="5,3" fill="none" /><path id="1185" transform="matrix(1 0 0 -1 0 792)" d="M303.2133 669.5641L384.5433 669.5641M351.1683 647.1001C 354.5533 647.1001 357.2983 644.3551 357.2983 640.9701C 357.2983 637.5841 354.5533 634.8391 351.1683 634.8391C 347.7833 634.8391 345.0373 637.5841 345.0373 640.9701C 345.0373 644.3551 347.7833 647.1001 351.1683 647.1001z" stroke="#221E1F" stroke-width="1" fill="none" /><path id="1186" transform="matrix(1 0 0 -1 0 792)" d="M303.2134 671.5803C 302.1044 671.5803 301.1974 670.6753 301.1974 669.5643C 301.1974 668.4533 302.1044 667.5483 303.2134 667.5483C 304.3224 667.5483 305.2294 668.4533 305.2294 669.5643C 305.2294 670.6753 304.3224 671.5803 303.2134 671.5803" stroke="none" fill="#221E1F" fill-rule="evenodd" /><path id="1187" transform="matrix(1 0 0 -1 0 792)" d="M336.7564 516.024L438.3774 516.024M259.9324 516.024L309.0924 516.024M309.0924 544.353L332.3814 544.353L332.3814 544.353L332.3814 508.523L332.3814 508.523L309.0924 508.523z" stroke="#221E1F" stroke-width="1" fill="none" /><path id="1188" transform="matrix(1 0 0 -1 0 792)" d="M337.1713 518.6584L332.3813 516.0234L332.3813 516.0234L337.1713 513.3884z" stroke="none" fill="#221E1F" fill-rule="evenodd" /><path id="1189" transform="matrix(1 0 0 -1 0 792)" d="M332.3822 536.8655L339.8742 536.8655L339.8742 536.8655L339.8742 546.4755" stroke="#221E1F" stroke-width="1" fill="none" /><path id="1190" transform="matrix(1 0 0 -1 0 792)" d="M337.2394 546.06L339.8744 550.85L339.8744 550.85L342.5094 546.06z" stroke="none" fill="#221E1F" fill-rule="evenodd" /><path id="1191" transform="matrix(1 0 0 -1 0 792)" d="M95.3928 564.2519L101.1418 564.2519L101.1418 564.2519L101.1418 575.6219L101.1418 575.6219L120.9668 585.4779L120.9668 585.4779L120.9668 564.2519L120.9668 564.2519L140.7928 564.2519" stroke="#0A74BC" stroke-width="1.5" fill="none" /></g><g clip-path="url(#9)"><path id="1194" transform="matrix(1 0 0 -1 0 792)" d="M202.6365 693.8743L216.5095 693.8743" stroke="#0060AF" stroke-width="1" fill="none" /><path id="1195" transform="matrix(1 0 0 -1 0 792)" d="M431.4368 545.7925L438.2098 545.7925M421.3028 669.5645L438.2098 669.5645M312.6338 720.2135L312.6338 711.1015L312.6338 711.1015L373.3888 711.1015L373.3888 711.1015L373.3888 720.2135" stroke="#221E1F" stroke-width="1" fill="none" /></g></g></g></svg>