<svg xmlns="http://www.w3.org/2000/svg" xmlns:xlink="http://www.w3.org/1999/xlink" id="body_24" preserveAspectRatio="xMinYMin meet" viewBox="0 0 816 1056"><defs><clipPath id="1"><path id="" clip-rule="evenodd" transform="matrix(1 0 0 1 0 0)" d="M0 792L0 0L0 0L612 0L612 0L612 792L612 792L0 792z" /></clipPath><clipPath id="2"><path id="" clip-rule="evenodd" transform="matrix(1 0 0 1 0 0)" d="M42 731.5L565.499 731.5L565.499 731.5L565.499 44.20001L565.499 44.20001L42 44.20001z" /></clipPath><clipPath id="3"><path id="" clip-rule="evenodd" transform="matrix(1 0 0 1 0 0)" d="M89.444 564.682L228.444 564.682L228.444 564.682L228.444 494.682L228.444 494.682L89.444 494.682z" /></clipPath><clipPath id="4"><path id="" clip-rule="evenodd" transform="matrix(1 0 0 1 0 0)" d="M42 731.5L565.499 731.5L565.499 731.5L565.499 44.20001L565.499 44.20001L42 44.20001z" /></clipPath><clipPath id="5"><path id="" clip-rule="evenodd" transform="matrix(1 0 0 1 0 0)" d="M42 731.5L565.499 731.5L565.499 731.5L565.499 44.20001L565.499 44.20001L42 44.20001z" /></clipPath><clipPath id="6"><path id="" clip-rule="evenodd" transform="matrix(1 0 0 1 0 0)" d="M117.104 172.963L503.443 172.963L503.443 172.963L503.443 44.20001L503.443 44.20001L117.104 44.20001z" /></clipPath></defs><g transform="matrix(1.333333 0 0 1.333333 0 0)"><g clip-path="url(#1)"><path id="1" transform="matrix(1 0 0 -1 0 792)" d="M54 39.5055L558 39.5055" stroke="#221E1F" stroke-width="0.5" fill="none" /><path id="30" transform="matrix(1 0 0 -1 0 792)" d="M42 60.5L565.499 60.5L565.499 747.8L42 747.8z" stroke="none" fill="#FFFFFF" fill-rule="nonzero" /><g clip-path="url(#2)"></g><g clip-path="url(#3)"></g><path id="815" transform="matrix(1 0 0 -1 0 792)" d="M141.3809 279.317L219.9439 279.317" stroke="#060606" stroke-width="0.594" stroke-linecap="square" fill="none" /><path id="816" transform="matrix(1 0 0 -1 0 792)" d="M115.8184 245.2545L131.8494 245.2545" stroke="#060606" stroke-width="0.594" stroke-linecap="square" fill="none" /><path id="819" transform="matrix(1 0 0 -1 0 792)" d="M143.0996 245.2545L221.6626 245.2545" stroke="#060606" stroke-width="0.594" stroke-linecap="square" fill="none" /><g clip-path="url(#4)"></g><g clip-path="url(#5)"></g><path id="2067" transform="matrix(1 0 0 -1 0 792)" d="M225.2351 640.5332L282.5301 640.5332" stroke="#221E1F" stroke-width="1" fill="none" /><path id="2068" transform="matrix(1 0 0 -1 0 792)" d="M225.6503 643.1681L220.8603 640.5331L225.6503 637.8981z" stroke="none" fill="#221E1F" fill-rule="nonzero" /><path id="2069" transform="matrix(1 0 0 -1 0 792)" d="M282.1145 643.1681L286.9045 640.5331L282.1145 637.8981z" stroke="none" fill="#221E1F" fill-rule="nonzero" /><path id="2070" transform="matrix(1 0 0 -1 0 792)" d="M316.5766 697.1192L316.5766 704.3742L316.5766 704.3742L306.1776 704.3742M406.4406 683.4812L396.7676 683.4812L396.7676 683.4812L396.7676 674.8152" stroke="#221E1F" stroke-width="1" fill="none" /><path id="2108" transform="matrix(1 0 0 -1 0 792)" d="M185.9695 685.9321L461.8675 685.9321" stroke="#EE1C23" stroke-width="1" stroke-dasharray="5,3" fill="none" /><path id="2109" transform="matrix(1 0 0 -1 0 792)" d="M220.2011 667.2011L220.2011 634.8421M287.8301 730.9001L287.8301 636.5901M128.5311 656.5651L471.8771 656.5651" stroke="#221E1F" stroke-width="1" stroke-dasharray="5,3" fill="none" /><g clip-path="url(#6)"><path id="2110" transform="matrix(1 0 0 -1 0 792)" d="M195.9279 619.8808L220.2009 619.8808L220.2009 619.8808L220.2009 634.3908L220.2009 634.3908L287.8299 634.3908L287.8299 634.3908L287.8299 619.8808L287.8299 619.8808L376.0929 619.8808L376.0929 619.8808L376.0929 634.3908L376.0929 634.3908L400.4339 634.3908" stroke="#221E1F" stroke-width="1" fill="none" /></g><path id="2111" transform="matrix(1 0 0 -1 0 792)" d="M128.3641 715.4192L459.6991 715.4192" stroke="#0060AF" stroke-width="1" stroke-dasharray="5,3" fill="none" /><path id="2112" transform="matrix(1 0 0 -1 0 792)" d="M128.3613 735.853L478.4203 735.853" stroke="#0060AF" stroke-width="1" fill="none" /><path id="2113" transform="matrix(1 0 0 -1 0 792)" d="M376.147 656.7177L444.106 715.4697M220.069 656.7967L141.55 709.1537M376.025 656.8807L287.654 715.6327M220.256 656.9217L287.654 715.6327" stroke="#EE1C23" stroke-width="2" stroke-linecap="round" fill="none" /><path id="2114" transform="matrix(1 0 0 -1 0 792)" d="M158.7368 735.3192L158.7368 720.3982" stroke="#0060AF" stroke-width="1" fill="none" /><path id="2115" transform="matrix(1 0 0 -1 0 792)" d="M161.3716 720.8132L158.7366 716.0232L156.1016 720.8132z" stroke="none" fill="#0060AF" fill-rule="nonzero" /><path id="2145" transform="matrix(1 0 0 -1 0 792)" d="M160.6281 689.099L154.1161 684.034" stroke="#EE1C23" stroke-width="1" fill="none" /><path id="2146" transform="matrix(1 0 0 -1 0 792)" d="M161.9178 686.7638L164.0808 691.7848L158.6828 690.9238z" stroke="none" fill="#EE1C23" fill-rule="nonzero" /><path id="2232" transform="matrix(1 0 0 -1 0 792)" d="M172.8471 130.9778L251.6281 130.9778" stroke="#060606" stroke-width="0.594" stroke-linecap="square" fill="none" /><path id="2233" transform="matrix(1 0 0 -1 0 792)" d="M172.8471 92.7591L231.5031 92.7591" stroke="#060606" stroke-width="0.594" stroke-linecap="square" fill="none" /><path id="2234" transform="matrix(1 0 0 -1 0 792)" d="M247.5034 92.7591L287.1914 92.7591" stroke="#060606" stroke-width="0.594" stroke-linecap="square" fill="none" /><path id="2235" transform="matrix(1 0 0 -1 0 792)" d="M298.4409 92.7591L313.2539 92.7591" stroke="#060606" stroke-width="0.594" stroke-linecap="square" fill="none" /><path id="2236" transform="matrix(1 0 0 -1 0 792)" d="M323.3784 92.7591L382.0344 92.7591" stroke="#060606" stroke-width="0.594" stroke-linecap="square" fill="none" /><path id="2308" transform="matrix(1 0 0 -1 0 792)" d="M53.4434 162.4121L559.6034 162.4121" stroke="#221E1F" stroke-width="0.5" fill="none" /></g></g></svg>