<svg xmlns="http://www.w3.org/2000/svg" xmlns:xlink="http://www.w3.org/1999/xlink" id="body_16" preserveAspectRatio="xMinYMin meet" viewBox="0 0 816 1056"><defs><clipPath id="1"><path id="" clip-rule="evenodd" transform="matrix(1 0 0 1 0 0)" d="M0 792L0 0L0 0L612 0L612 0L612 792L612 792L0 792z" /></clipPath><clipPath id="2"><path id="" clip-rule="evenodd" transform="matrix(1 0 0 1 0 0)" d="M42 725.143L568.5 725.143L568.5 725.143L568.5 45L568.5 45L42 45z" /></clipPath><clipPath id="3"><path id="" clip-rule="evenodd" transform="matrix(1 0 0 1 0 0)" d="M64.057 246.446L294.47 246.446L294.47 246.446L294.47 45.302L294.47 45.302L64.057 45.302z" /></clipPath><clipPath id="4"><path id="" clip-rule="evenodd" transform="matrix(1 0 0 1 0 0)" d="M48.236 262.572L294.524 262.572L294.524 262.572L294.524 45.03302L294.524 45.03302L48.236 45.03302z" /></clipPath><clipPath id="5"><path id="" clip-rule="evenodd" transform="matrix(1 0 0 1 0 0)" d="M329.081 246.06L558.99 246.06L558.99 246.06L558.99 45.03003L558.99 45.03003L329.081 45.03003z" /></clipPath><clipPath id="6"><path id="" clip-rule="evenodd" transform="matrix(1 0 0 1 0 0)" d="M313.315 262.539L559.604 262.539L559.604 262.539L559.604 45L559.604 45L313.315 45z" /></clipPath><clipPath id="7"><path id="" clip-rule="evenodd" transform="matrix(1 0 0 1 0 0)" d="M313.797 562.62L560.085 562.62L560.085 562.62L560.085 345.08L560.085 345.08L313.797 345.08z" /></clipPath></defs><g transform="matrix(1.333333 0 0 1.333333 0 0)"><g clip-path="url(#1)"><path id="1" transform="matrix(1 0 0 -1 0 792)" d="M54 39.5055L558 39.5055" stroke="#221E1F" stroke-width="0.5" fill="none" /><path id="30" transform="matrix(1 0 0 -1 0 792)" d="M42 66.857L568.5 66.857L568.5 747L42 747z" stroke="none" fill="#FFFFFF" fill-rule="nonzero" /><g clip-path="url(#2)"></g><g clip-path="url(#3)"><g transform="matrix(0.5751742 0 0 0.5752766 63.95647 45.16327)"><g transform="matrix(1 0 0 1 0 0)"><image x="0" y="0" xlink:href="img_18.png" width="401" height="350" /></g></g></g><g clip-path="url(#4)"><path id="686" transform="matrix(1 0 0 -1 0 792)" d="M293.8906 545.833L63.8676 545.833L63.8676 545.833L63.8676 746.492L63.8676 746.492L293.8906 746.492z" stroke="#1F1C1D" stroke-width="0.95" fill="none" /></g><path id="687" transform="matrix(1 0 0 -1 0 792)" d="M54.896 677.0324L54.896 665.8664L63.715 671.4904z" stroke="none" fill="#4C56A6" fill-rule="nonzero" /><path id="689" transform="matrix(1 0 0 -1 0 792)" d="M54.7968 701.969L54.7968 690.803L63.6158 696.427z" stroke="none" fill="#65BD45" fill-rule="nonzero" /><path id="690" transform="matrix(1 0 0 -1 0 792)" d="M57.55962 695.366C 57.59905 695.4336 57.65376 695.5047 57.72374 695.5792C 57.79357 695.6462 57.95079 695.8025 58.20633 696.0251C 58.45411 696.2404 58.62878 696.4135 58.73012 696.533C 58.87073 696.7125 58.98268 696.8849 59.05458 697.0507C 59.11872 697.2089 59.15865 697.3905 59.16249 697.5729C 59.1692 697.892 59.05532 698.17 58.83201 698.3951C 58.60854 698.6127 58.29557 698.7314 57.89286 698.7399C 57.52055 698.7477 57.21648 698.6572 56.9695 698.4799C 56.71476 698.2952 56.5657 697.9848 56.51115 697.5602L56.51115 697.5602L57.2902 697.4641C 57.31019 697.6917 57.36491 697.8539 57.46577 697.9507C 57.55887 698.0399 57.69684 698.094 57.8564 698.0906C 58.01596 698.0873 58.15165 698.0331 58.24091 697.9401C 58.33018 697.8469 58.37851 697.7053 58.37499 697.5381C 58.37163 697.3786 58.31509 697.2202 58.20535 697.0628C 58.11921 696.943 57.89795 696.7234 57.54155 696.4041C 57.09222 696.003 56.79281 695.6824 56.64333 695.4423C 56.48609 695.1948 56.38762 694.9403 56.35907 694.6672L56.35907 694.6672L59.10014 694.6096L59.10014 694.6096L59.11537 695.3333z" stroke="none" fill="#FFFFFF" fill-rule="evenodd" /><path id="691" transform="matrix(1 0 0 -1 0 792)" d="M54.6924 576.4742L54.6924 565.3082L63.5114 570.9322z" stroke="none" fill="#1F1C1D" fill-rule="nonzero" /><path id="692" transform="matrix(1 0 0 -1 0 792)" d="M58.43822 573.2322L57.80566 573.2455C 57.70921 572.9967 57.53369 572.7838 57.30191 572.6062C 57.05476 572.4213 56.83372 572.3025 56.62712 572.2384L56.62712 572.2384L56.61214 571.5261C 57.00237 571.6471 57.33879 571.83 57.63328 572.0975L57.63328 572.0975L57.57117 569.1456L57.57117 569.1456L58.35189 569.1292z" stroke="none" fill="#FFFFFF" fill-rule="evenodd" /><path id="693" transform="matrix(1 0 0 -1 0 792)" d="M238.9968 725.1818L219.6558 725.0278L219.5298 740.8478L238.8698 741.0018z" stroke="none" fill="#FFFFFF" fill-rule="nonzero" /><path id="694" transform="matrix(1 0 0 -1 0 792)" d="M253.8833 718.5226L206.5043 718.1456L206.4043 730.4696L253.7853 730.8466z" stroke="none" fill="#FFFFFF" fill-rule="nonzero" /><path id="709" transform="matrix(1 0 0 -1 0 792)" d="M216.1968 611.4988L196.8558 611.3438L196.7298 627.1638L216.0698 627.3188z" stroke="none" fill="#FFFFFF" fill-rule="nonzero" /><path id="710" transform="matrix(1 0 0 -1 0 792)" d="M231.0833 604.8392L183.7043 604.4622L183.6043 616.7862L230.9853 617.1631z" stroke="none" fill="#FFFFFF" fill-rule="nonzero" /><path id="726" transform="matrix(1 0 0 -1 0 792)" d="M214.6131 686.2319L195.2721 686.0779L195.1721 698.5029L214.5121 698.6569z" stroke="none" fill="#FFFFFF" fill-rule="nonzero" /><path id="727" transform="matrix(1 0 0 -1 0 792)" d="M229.4996 679.5725L182.1206 679.1955L182.0206 691.5195L229.4016 691.8965z" stroke="none" fill="#FFFFFF" fill-rule="nonzero" /><path id="757" transform="matrix(1 0 0 -1 0 792)" d="M220.3255 717.9352L213.9235 711.1562" stroke="#1F1C1D" stroke-width="0.95" fill="none" /><path id="758" transform="matrix(1 0 0 -1 0 792)" d="M213.3031 714.0721L208.7451 705.6291L216.9151 710.6621z" stroke="none" fill="#1F1C1D" fill-rule="nonzero" /><path id="759" transform="matrix(1 0 0 -1 0 792)" d="M187.9371 685.1705L181.5351 680.2745" stroke="#1F1C1D" stroke-width="0.95" fill="none" /><path id="760" transform="matrix(1 0 0 -1 0 792)" d="M181.3907 683.2519L175.5357 675.6489L184.4077 679.3059z" stroke="none" fill="#1F1C1D" fill-rule="nonzero" /><g clip-path="url(#5)"><g transform="matrix(0.5763429 0 0 0.5765983 329.0801 45.01599)"><g transform="matrix(1 0 0 1 0 0)"><image x="0" y="0" xlink:href="img_19.png" width="399" height="349" /></g></g></g><g clip-path="url(#6)"><path id="762" transform="matrix(1 0 0 -1 0 792)" d="M559.1286 545.866L329.1056 545.866L329.1056 545.866L329.1056 746.525L329.1056 746.525L559.1286 746.525z" stroke="#1F1C1D" stroke-width="0.95" fill="none" /></g><path id="763" transform="matrix(1 0 0 -1 0 792)" d="M320.1337 677.0657L320.1337 665.8997L328.9527 671.5237z" stroke="none" fill="#4C56A6" fill-rule="nonzero" /><path id="765" transform="matrix(1 0 0 -1 0 792)" d="M320.0345 702.0023L320.0345 690.8363L328.8535 696.4603z" stroke="none" fill="#65BD45" fill-rule="nonzero" /><path id="766" transform="matrix(1 0 0 -1 0 792)" d="M322.7973 695.3994C 322.8368 695.467 322.8915 695.5381 322.9615 695.6126C 323.0313 695.6796 323.1885 695.8359 323.444 696.0585C 323.6918 696.2738 323.8665 696.4468 323.9678 696.5663C 324.1084 696.7458 324.2204 696.9183 324.2923 697.084C 324.3564 697.2423 324.3964 697.4239 324.4002 697.6063C 324.4069 697.9254 324.293 698.2034 324.0697 698.4285C 323.8463 698.6461 323.5333 698.7648 323.1306 698.7733C 322.7583 698.7811 322.4542 698.6906 322.2072 698.5133C 321.9525 698.3286 321.8034 698.0182 321.7489 697.5936L321.7489 697.5936L322.5279 697.4974C 322.5479 697.725 322.6026 697.8873 322.7035 697.9841C 322.7966 698.0733 322.9345 698.1274 323.0941 698.124C 323.2537 698.1207 323.3894 698.0665 323.4786 697.9734C 323.5679 697.8803 323.6162 697.7387 323.6127 697.5715C 323.6093 697.412 323.5528 697.2535 323.4431 697.0962C 323.3569 696.9764 323.1357 696.7568 322.7793 696.4374C 322.3299 696.0364 322.0305 695.7158 321.881 695.4757C 321.7238 695.2281 321.6253 694.9737 321.5968 694.7006L321.5968 694.7006L324.3379 694.6429L324.3379 694.6429L324.3531 695.3667z" stroke="none" fill="#FFFFFF" fill-rule="evenodd" /><path id="767" transform="matrix(1 0 0 -1 0 792)" d="M319.9301 576.5075L319.9301 565.3415L328.7491 570.9655z" stroke="none" fill="#1F1C1D" fill-rule="nonzero" /><path id="768" transform="matrix(1 0 0 -1 0 792)" d="M323.6759 573.2656L323.0434 573.2789C 322.9469 573.03 322.7714 572.8171 322.5396 572.6395C 322.2925 572.4547 322.0714 572.3358 321.8648 572.2717L321.8648 572.2717L321.8499 571.5594C 322.2401 571.6804 322.5765 571.8633 322.871 572.1308L322.871 572.1308L322.8089 569.1789L322.8089 569.1789L323.5896 569.1625z" stroke="none" fill="#FFFFFF" fill-rule="evenodd" /><path id="769" transform="matrix(1 0 0 -1 0 792)" d="M521.9501 708.8903L463.6141 708.4263L463.5141 720.7503L521.8531 721.2143z" stroke="none" fill="#FFFFFF" fill-rule="nonzero" /><path id="785" transform="matrix(1 0 0 -1 0 792)" d="M481.4345 611.5321L462.0935 611.3771L461.9675 627.1971L481.3075 627.3521z" stroke="none" fill="#FFFFFF" fill-rule="nonzero" /><path id="786" transform="matrix(1 0 0 -1 0 792)" d="M496.321 604.8726L448.942 604.4956L448.842 616.8196L496.223 617.1966z" stroke="none" fill="#FFFFFF" fill-rule="nonzero" /><path id="802" transform="matrix(1 0 0 -1 0 792)" d="M522.6493 675.6903L469.7803 675.2693L469.6793 687.5933L522.5523 688.0153z" stroke="none" fill="#FFFFFF" fill-rule="nonzero" /><path id="816" transform="matrix(1 0 0 -1 0 792)" d="M461.5291 711.9322L455.1271 705.1532" stroke="#1F1C1D" stroke-width="0.95" fill="none" /><path id="817" transform="matrix(1 0 0 -1 0 792)" d="M454.5067 708.0692L449.9477 699.6262L458.1177 704.6592z" stroke="none" fill="#1F1C1D" fill-rule="nonzero" /><path id="818" transform="matrix(1 0 0 -1 0 792)" d="M470.0402 681.6854L463.3042 681.2194" stroke="#1F1C1D" stroke-width="0.95" fill="none" /><path id="819" transform="matrix(1 0 0 -1 0 792)" d="M464.8237 683.7835L455.7497 680.6665L465.1677 678.8275z" stroke="none" fill="#1F1C1D" fill-rule="nonzero" /><g transform="matrix(0.5743319 0 0 0.5746251 329.6754 345.2104)"><g transform="matrix(1 0 0 1 0 0)"><image x="0" y="0" xlink:href="img_20.png" width="400" height="350" /></g></g><g clip-path="url(#7)"><path id="838" transform="matrix(1 0 0 -1 0 792)" d="M559.6096 245.786L329.5866 245.786L329.5866 245.786L329.5866 446.445L329.5866 446.445L559.6096 446.445z" stroke="#1F1C1D" stroke-width="0.95" fill="none" /></g><path id="839" transform="matrix(1 0 0 -1 0 792)" d="M320.6149 376.9853L320.6149 365.8193L329.4339 371.4433z" stroke="none" fill="#4C56A6" fill-rule="nonzero" /><path id="841" transform="matrix(1 0 0 -1 0 792)" d="M320.5157 401.9219L320.5157 390.7559L329.3347 396.3799z" stroke="none" fill="#65BD45" fill-rule="nonzero" /><path id="842" transform="matrix(1 0 0 -1 0 792)" d="M323.2785 395.319C 323.3179 395.3866 323.3727 395.4576 323.4426 395.5322C 323.5125 395.5992 323.6697 395.7555 323.9252 395.9781C 324.173 396.1934 324.3477 396.3664 324.449 396.4859C 324.5896 396.6654 324.7016 396.8379 324.7735 397.0036C 324.8376 397.1619 324.8775 397.3435 324.8814 397.5258C 324.8881 397.845 324.7742 398.1229 324.5509 398.3481C 324.3274 398.5656 324.0145 398.6843 323.6118 398.6928C 323.2394 398.7007 322.9354 398.6101 322.6884 398.4329C 322.4337 398.2482 322.2846 397.9378 322.23 397.5132L322.23 397.5132L323.0091 397.417C 323.0291 397.6447 323.0838 397.8069 323.1847 397.9036C 323.2778 397.9929 323.4157 398.047 323.5753 398.0436C 323.7349 398.0403 323.8705 397.9861 323.9598 397.893C 324.0491 397.7999 324.0974 397.6583 324.0939 397.4911C 324.0905 397.3315 324.034 397.1731 323.9243 397.0158C 323.8381 396.896 323.6168 396.6764 323.2604 396.357C 322.8111 395.956 322.5117 395.6354 322.3622 395.3953C 322.205 395.1477 322.1065 394.8932 322.0779 394.6202L322.0779 394.6202L324.819 394.5625L324.819 394.5625L324.8343 395.2863z" stroke="none" fill="#FFFFFF" fill-rule="evenodd" /><path id="843" transform="matrix(1 0 0 -1 0 792)" d="M320.4114 276.4271L320.4114 265.2611L329.2304 270.8851z" stroke="none" fill="#1F1C1D" fill-rule="nonzero" /><path id="844" transform="matrix(1 0 0 -1 0 792)" d="M324.1571 273.1852L323.5246 273.1985C 323.4281 272.9496 323.2526 272.7367 323.0208 272.5591C 322.7737 272.3743 322.5526 272.2554 322.346 272.1913L322.346 272.1913L322.3311 271.479C 322.7213 271.6 323.0577 271.783 323.3522 272.0504L323.3522 272.0504L323.2901 269.0985L323.2901 269.0985L324.0708 269.0821z" stroke="none" fill="#FFFFFF" fill-rule="evenodd" /><path id="845" transform="matrix(1 0 0 -1 0 792)" d="M522.6697 426.332L469.3207 425.908L469.2067 439.922L522.5597 440.347z" stroke="none" fill="#FFFFFF" fill-rule="nonzero" /><path id="861" transform="matrix(1 0 0 -1 0 792)" d="M505.2411 304.8596L441.4161 304.3516L441.2981 318.7946L505.1271 319.3036z" stroke="none" fill="#FFFFFF" fill-rule="nonzero" /><path id="878" transform="matrix(1 0 0 -1 0 792)" d="M503.5757 367.4125L450.7047 366.9915L450.5797 382.2905L503.4537 382.7115z" stroke="none" fill="#FFFFFF" fill-rule="nonzero" /><path id="892" transform="matrix(1 0 0 -1 0 792)" d="M476.1986 424.4588L464.9626 415.1358" stroke="#1F1C1D" stroke-width="0.95" fill="none" /><path id="893" transform="matrix(1 0 0 -1 0 792)" d="M464.6998 418.1057L459.1528 410.2757L467.8718 414.2827z" stroke="none" fill="#1F1C1D" fill-rule="nonzero" /><path id="894" transform="matrix(1 0 0 -1 0 792)" d="M451.5993 378.0383L445.2513 386.3703" stroke="#1F1C1D" stroke-width="0.95" fill="none" /><path id="895" transform="matrix(1 0 0 -1 0 792)" d="M448.2287 386.5095L440.6367 392.3775L444.2777 383.4985z" stroke="none" fill="#1F1C1D" fill-rule="nonzero" /></g></g></svg>