<svg xmlns="http://www.w3.org/2000/svg" xmlns:xlink="http://www.w3.org/1999/xlink" id="body_27" preserveAspectRatio="xMinYMin meet" viewBox="0 0 816 1056"><defs><clipPath id="1"><path id="" clip-rule="evenodd" transform="matrix(1 0 0 1 0 0)" d="M0 792L0 0L0 0L612 0L612 0L612 792L612 792L0 792z" /></clipPath><clipPath id="2"><path id="" clip-rule="evenodd" transform="matrix(1 0 0 1 0 0)" d="M45.67 723L572.429 723L572.429 723L572.429 37.20001L572.429 37.20001L45.67 37.20001z" /></clipPath><clipPath id="3"><path id="" clip-rule="evenodd" transform="matrix(1 0 0 1 0 0)" d="M251.169 297.83L559.329 297.83L559.329 297.83L559.329 43.87L559.329 43.87L251.169 43.87z" /></clipPath><clipPath id="4"><path id="" clip-rule="evenodd" transform="matrix(1 0 0 1 0 0)" d="M251.169 297.83L559.329 297.83L559.329 297.83L559.329 43.87L559.329 43.87L251.169 43.87z" /></clipPath></defs><g transform="matrix(1.333333 0 0 1.333333 0 0)"><g clip-path="url(#1)"><path id="1" transform="matrix(1 0 0 -1 0 792)" d="M54 39.5055L558 39.5055" stroke="#221E1F" stroke-width="0.5" fill="none" /><path id="30" transform="matrix(1 0 0 -1 0 792)" d="M45.67 69L572.429 69L572.429 754.8L45.67 754.8z" stroke="none" fill="#FFFFFF" fill-rule="nonzero" /><g clip-path="url(#2)"></g><path id="2119" transform="matrix(1 0 0 -1 0 792)" d="M318.2495 250.6101L378.7695 250.6101" stroke="#221E1F" stroke-width="1" fill="none" /><path id="2120" transform="matrix(1 0 0 -1 0 792)" d="M318.7495 224.3377L318.7495 250.1097" stroke="#221E1F" stroke-width="1" fill="none" /><path id="2121" transform="matrix(1 0 0 -1 0 792)" d="M378.7694 250.6101L438.7894 250.6101" stroke="#221E1F" stroke-width="1" fill="none" /><path id="2122" transform="matrix(1 0 0 -1 0 792)" d="M438.7895 250.6101L498.8095 250.6101" stroke="#221E1F" stroke-width="1" fill="none" /><path id="2123" transform="matrix(1 0 0 -1 0 792)" d="M438.7895 224.3377L438.7895 250.1097" stroke="#221E1F" stroke-width="1" fill="none" /><path id="2124" transform="matrix(1 0 0 -1 0 792)" d="M498.8095 250.6101L559.3295 250.6101" stroke="#221E1F" stroke-width="1" fill="none" /><path id="2125" transform="matrix(1 0 0 -1 0 792)" d="M558.8295 224.3377L558.8295 250.1097" stroke="#221E1F" stroke-width="1" fill="none" /><path id="2126" transform="matrix(1 0 0 -1 0 792)" d="M318.2495 223.8377L378.7695 223.8377" stroke="#221E1F" stroke-width="1" fill="none" /><path id="2127" transform="matrix(1 0 0 -1 0 792)" d="M318.7495 197.5652L318.7495 223.3372" stroke="#221E1F" stroke-width="1" fill="none" /><path id="2128" transform="matrix(1 0 0 -1 0 792)" d="M378.7694 223.8377L438.7894 223.8377" stroke="#221E1F" stroke-width="1" fill="none" /><path id="2129" transform="matrix(1 0 0 -1 0 792)" d="M378.7694 197.5652L378.7694 223.3372" stroke="#221E1F" stroke-width="1" fill="none" /><path id="2130" transform="matrix(1 0 0 -1 0 792)" d="M438.7895 223.8377L498.8095 223.8377" stroke="#221E1F" stroke-width="1" fill="none" /><path id="2131" transform="matrix(1 0 0 -1 0 792)" d="M438.7895 197.5652L438.7895 223.3372" stroke="#221E1F" stroke-width="1" fill="none" /><path id="2132" transform="matrix(1 0 0 -1 0 792)" d="M498.8095 223.8377L559.3295 223.8377" stroke="#221E1F" stroke-width="1" fill="none" /><path id="2133" transform="matrix(1 0 0 -1 0 792)" d="M498.8095 197.5652L498.8095 223.3372" stroke="#221E1F" stroke-width="1" fill="none" /><path id="2134" transform="matrix(1 0 0 -1 0 792)" d="M558.8295 197.5652L558.8295 223.3372" stroke="#221E1F" stroke-width="1" fill="none" /><path id="2135" transform="matrix(1 0 0 -1 0 792)" d="M318.2495 197.0652L378.7695 197.0652" stroke="#221E1F" stroke-width="1" fill="none" /><path id="2136" transform="matrix(1 0 0 -1 0 792)" d="M318.7495 182.6316L318.7495 196.5656" stroke="#221E1F" stroke-width="1" fill="none" /><path id="2137" transform="matrix(1 0 0 -1 0 792)" d="M378.7694 197.0652L438.7894 197.0652" stroke="#221E1F" stroke-width="1" fill="none" /><path id="2138" transform="matrix(1 0 0 -1 0 792)" d="M378.7694 182.6316L378.7694 196.5656" stroke="#221E1F" stroke-width="1" fill="none" /><path id="2139" transform="matrix(1 0 0 -1 0 792)" d="M438.7895 197.0652L498.8095 197.0652" stroke="#221E1F" stroke-width="1" fill="none" /><path id="2140" transform="matrix(1 0 0 -1 0 792)" d="M438.7895 182.6316L438.7895 196.5656" stroke="#221E1F" stroke-width="1" fill="none" /><path id="2141" transform="matrix(1 0 0 -1 0 792)" d="M498.8095 197.0652L559.3295 197.0652" stroke="#221E1F" stroke-width="1" fill="none" /><path id="2142" transform="matrix(1 0 0 -1 0 792)" d="M498.8095 182.6316L498.8095 196.5656" stroke="#221E1F" stroke-width="1" fill="none" /><path id="2143" transform="matrix(1 0 0 -1 0 792)" d="M558.8295 182.6316L558.8295 196.5656" stroke="#221E1F" stroke-width="1" fill="none" /><path id="2144" transform="matrix(1 0 0 -1 0 792)" d="M318.2495 182.1316L378.7695 182.1316" stroke="#221E1F" stroke-width="1" fill="none" /><path id="2145" transform="matrix(1 0 0 -1 0 792)" d="M318.7495 167.698L318.7495 181.632" stroke="#221E1F" stroke-width="1" fill="none" /><path id="2146" transform="matrix(1 0 0 -1 0 792)" d="M378.7694 182.1316L438.7894 182.1316" stroke="#221E1F" stroke-width="1" fill="none" /><path id="2147" transform="matrix(1 0 0 -1 0 792)" d="M378.7694 167.698L378.7694 181.632" stroke="#221E1F" stroke-width="1" fill="none" /><path id="2148" transform="matrix(1 0 0 -1 0 792)" d="M438.7895 182.1316L498.8095 182.1316" stroke="#221E1F" stroke-width="1" fill="none" /><path id="2149" transform="matrix(1 0 0 -1 0 792)" d="M438.7895 167.698L438.7895 181.632" stroke="#221E1F" stroke-width="1" fill="none" /><path id="2150" transform="matrix(1 0 0 -1 0 792)" d="M498.8095 182.1316L559.3295 182.1316" stroke="#221E1F" stroke-width="1" fill="none" /><path id="2151" transform="matrix(1 0 0 -1 0 792)" d="M498.8095 167.698L498.8095 181.632" stroke="#221E1F" stroke-width="1" fill="none" /><path id="2152" transform="matrix(1 0 0 -1 0 792)" d="M558.8295 167.698L558.8295 181.632" stroke="#221E1F" stroke-width="1" fill="none" /><path id="2153" transform="matrix(1 0 0 -1 0 792)" d="M318.2495 167.198L378.7695 167.198" stroke="#221E1F" stroke-width="1" fill="none" /><path id="2154" transform="matrix(1 0 0 -1 0 792)" d="M318.7495 152.7644L318.7495 166.6984" stroke="#221E1F" stroke-width="1" fill="none" /><path id="2155" transform="matrix(1 0 0 -1 0 792)" d="M378.7694 167.198L438.7894 167.198" stroke="#221E1F" stroke-width="1" fill="none" /><path id="2156" transform="matrix(1 0 0 -1 0 792)" d="M378.7694 152.7644L378.7694 166.6984" stroke="#221E1F" stroke-width="1" fill="none" /><path id="2157" transform="matrix(1 0 0 -1 0 792)" d="M438.7895 167.198L498.8095 167.198" stroke="#221E1F" stroke-width="1" fill="none" /><path id="2158" transform="matrix(1 0 0 -1 0 792)" d="M438.7895 152.7644L438.7895 166.6984" stroke="#221E1F" stroke-width="1" fill="none" /><path id="2159" transform="matrix(1 0 0 -1 0 792)" d="M498.8095 167.198L559.3295 167.198" stroke="#221E1F" stroke-width="1" fill="none" /><path id="2160" transform="matrix(1 0 0 -1 0 792)" d="M498.8095 152.7644L498.8095 166.6984" stroke="#221E1F" stroke-width="1" fill="none" /><path id="2161" transform="matrix(1 0 0 -1 0 792)" d="M558.8295 152.7644L558.8295 166.6984" stroke="#221E1F" stroke-width="1" fill="none" /><path id="2162" transform="matrix(1 0 0 -1 0 792)" d="M318.2495 152.2644L378.7695 152.2644" stroke="#221E1F" stroke-width="1" fill="none" /><path id="2163" transform="matrix(1 0 0 -1 0 792)" d="M318.7495 136.4441L318.7495 151.7641" stroke="#221E1F" stroke-width="1" fill="none" /><path id="2164" transform="matrix(1 0 0 -1 0 792)" d="M378.7694 152.2644L438.7894 152.2644" stroke="#221E1F" stroke-width="1" fill="none" /><path id="2165" transform="matrix(1 0 0 -1 0 792)" d="M378.7694 136.4441L378.7694 151.7641" stroke="#221E1F" stroke-width="1" fill="none" /><path id="2166" transform="matrix(1 0 0 -1 0 792)" d="M438.7895 152.2644L498.8095 152.2644" stroke="#221E1F" stroke-width="1" fill="none" /><path id="2167" transform="matrix(1 0 0 -1 0 792)" d="M438.7895 136.4441L438.7895 151.7641" stroke="#221E1F" stroke-width="1" fill="none" /><path id="2168" transform="matrix(1 0 0 -1 0 792)" d="M498.8095 152.2644L559.3295 152.2644" stroke="#221E1F" stroke-width="1" fill="none" /><path id="2169" transform="matrix(1 0 0 -1 0 792)" d="M498.8095 136.4441L498.8095 151.7641" stroke="#221E1F" stroke-width="1" fill="none" /><path id="2170" transform="matrix(1 0 0 -1 0 792)" d="M558.8295 136.4441L558.8295 151.7641" stroke="#221E1F" stroke-width="1" fill="none" /><path id="2171" transform="matrix(1 0 0 -1 0 792)" d="M318.2495 135.9441L378.7695 135.9441" stroke="#221E1F" stroke-width="1" fill="none" /><path id="2172" transform="matrix(1 0 0 -1 0 792)" d="M378.7694 135.9441L438.7894 135.9441" stroke="#221E1F" stroke-width="1" fill="none" /><path id="2173" transform="matrix(1 0 0 -1 0 792)" d="M438.7895 135.9441L498.8095 135.9441" stroke="#221E1F" stroke-width="1" fill="none" /><path id="2174" transform="matrix(1 0 0 -1 0 792)" d="M498.8095 135.9441L559.3295 135.9441" stroke="#221E1F" stroke-width="1" fill="none" /><path id="2290" transform="matrix(1 0 0 -1 0 792)" d="M300.1773 691.9289L543.2873 691.9289M300.1773 655.8299L543.2873 655.8299M300.1773 619.7299L543.2873 619.7299M324.2373 727.5279L324.2373 583.1279M348.7993 727.5279L348.7993 583.1279M372.8593 727.5279L372.8593 583.1279M397.4213 727.5279L397.4213 583.1279M421.4823 727.5279L421.4823 583.1279M446.0433 727.5279L446.0433 583.1279M470.1043 727.5279L470.1043 583.1279M494.6663 727.5279L494.6663 583.1279M518.7253 727.5279L518.7253 583.1279" stroke="#221E1F" stroke-width="0.5" stroke-linecap="square" fill="none" /><path id="2321" transform="matrix(1 0 0 -1 0 792)" d="M539.2773 565.4957L539.2773 727.1077M525.2423 565.4957L525.2423 727.1077" stroke="#E18619" stroke-width="0.75" stroke-linecap="square" stroke-dasharray="4.75,4.25" fill="none" /><g clip-path="url(#3)"><path id="2322" transform="matrix(1 0 0 -1 0 792)" d="M524.4843 653.5874L526.3073 655.6284L526.3073 655.6284L528.0332 657.9204C 528.1582 658.0764 528.4102 658.1084 528.5982 657.9834C 528.7542 657.8574 528.8182 657.6064 528.6602 657.4174L528.6602 657.4174L526.9022 655.0944L526.9022 655.0944L525.0822 653.0544C 524.9242 652.8974 524.6742 652.8664 524.5182 653.0234C 524.3593 653.1804 524.3282 653.4314 524.4843 653.5874M530.1353 661.2474L530.1353 661.2474C 530.2312 661.4664 530.4812 661.5294 530.6702 661.4354C 530.8572 661.3414 530.9202 661.0904 530.8262 660.9014C 530.7322 660.6824 530.4812 660.6194 530.2932 660.7134C 530.1042 660.8074 530.0103 661.0594 530.1353 661.2474M531.9882 664.7944L531.9882 664.7944C 532.0822 664.9824 532.3322 665.0764 532.5222 664.9824C 532.7402 664.8884 532.8052 664.6684 532.7092 664.4494C 532.6152 664.2604 532.3952 664.1664 532.1762 664.2604C 531.9882 664.3554 531.8952 664.5744 531.9882 664.7944M533.6522 668.4354L534.2792 669.8794L534.2792 669.8794L535.5982 673.6774C 535.6602 673.8974 535.9122 673.9914 536.1002 673.9284C 536.3203 673.8654 536.4453 673.6144 536.3502 673.4264L536.3502 673.4264L535.0002 669.5334L535.0002 669.5334L534.4042 668.1214C 534.3112 667.9024 534.0592 667.8074 533.8712 667.9024C 533.6522 667.9964 533.5573 668.2474 533.6522 668.4354M536.8853 677.4444L536.8853 677.4444C 536.9472 677.6644 537.1353 677.7894 537.3562 677.7584C 537.5742 677.6954 537.7012 677.4754 537.6702 677.2554C 537.6062 677.0364 537.3872 676.9104 537.1662 676.9734C 536.9792 677.0044 536.8222 677.2244 536.8853 677.4444M537.9202 681.3364L537.9202 681.3364C 537.9512 681.5564 538.1722 681.6824 538.3912 681.6194C 538.6112 681.5874 538.7362 681.3684 538.7052 681.1484C 538.6432 680.9284 538.4242 680.8024 538.2032 680.8344C 537.9822 680.8974 537.8572 681.1164 537.9202 681.3364M538.8952 685.1974L539.9612 690.7224C 539.9922 690.9424 540.2112 691.0994 540.4323 691.0364C 540.6522 691.0044 540.7772 690.7844 540.7462 690.5654L540.7462 690.5654L539.7092 685.0404C 539.6472 684.8204 539.4262 684.6954 539.2382 684.7264C 539.0202 684.7894 538.8612 684.9784 538.8952 685.1974M540.5252 694.6464L540.5252 694.6464C 540.5252 694.8654 540.7462 695.0544 540.9652 695.0224C 541.1862 695.0224 541.3422 694.8344 541.3112 694.5834C 541.3112 694.3634 541.1212 694.2064 540.9022 694.2374C 540.6842 694.2374 540.4942 694.4264 540.5252 694.6464M540.9342 698.6644L540.9342 698.6644C 540.9652 698.8834 541.1542 699.0404 541.3732 699.0404C 541.5922 699.0084 541.7502 698.8204 541.7502 698.6014C 541.7192 698.3814 541.5292 698.1924 541.3112 698.2244C 541.0902 698.2554 540.9342 698.4444 540.9342 698.6644M541.2172 702.6504L541.3112 704.4704L541.3112 704.4704L541.3112 708.2694C 541.3112 708.4884 541.4672 708.6464 541.6882 708.6464C 541.9382 708.6464 542.0963 708.4884 542.0963 708.2694L542.0963 708.2694L542.0963 704.4394L542.0963 704.4394L542.0313 702.6184C 542.0313 702.3994 541.8442 702.2114 541.6252 702.2424C 541.4042 702.2424 541.2172 702.4304 541.2172 702.6504" stroke="none" fill="#EE1C23" fill-rule="nonzero" /><path id="2323" transform="matrix(1 0 0 -1 0 792)" d="M524.4843 653.5874L526.3073 655.6284L526.3073 655.6284L528.0332 657.9204C 528.1582 658.0764 528.4102 658.1084 528.5982 657.9834C 528.7542 657.8574 528.8182 657.6064 528.6602 657.4174L528.6602 657.4174L526.9022 655.0944L526.9022 655.0944L525.0822 653.0544C 524.9242 652.8974 524.6742 652.8664 524.5182 653.0234C 524.3593 653.1804 524.3282 653.4314 524.4843 653.5874zM530.1353 661.2474L530.1353 661.2474C 530.2312 661.4664 530.4812 661.5294 530.6702 661.4354C 530.8572 661.3414 530.9202 661.0904 530.8262 660.9014C 530.7322 660.6824 530.4812 660.6194 530.2932 660.7134C 530.1042 660.8074 530.0103 661.0594 530.1353 661.2474zM531.9882 664.7944L531.9882 664.7944C 532.0822 664.9824 532.3322 665.0764 532.5222 664.9824C 532.7402 664.8884 532.8052 664.6684 532.7092 664.4494C 532.6152 664.2604 532.3952 664.1664 532.1762 664.2604C 531.9882 664.3554 531.8952 664.5744 531.9882 664.7944zM533.6522 668.4354L534.2792 669.8794L534.2792 669.8794L535.5982 673.6774C 535.6602 673.8974 535.9122 673.9914 536.1002 673.9284C 536.3203 673.8654 536.4453 673.6144 536.3502 673.4264L536.3502 673.4264L535.0002 669.5334L535.0002 669.5334L534.4042 668.1214C 534.3112 667.9024 534.0592 667.8074 533.8712 667.9024C 533.6522 667.9964 533.5573 668.2474 533.6522 668.4354zM536.8853 677.4444L536.8853 677.4444C 536.9472 677.6644 537.1353 677.7894 537.3562 677.7584C 537.5742 677.6954 537.7012 677.4754 537.6702 677.2554C 537.6062 677.0364 537.3872 676.9104 537.1662 676.9734C 536.9792 677.0044 536.8222 677.2244 536.8853 677.4444zM537.9202 681.3364L537.9202 681.3364C 537.9512 681.5564 538.1722 681.6824 538.3912 681.6194C 538.6112 681.5874 538.7362 681.3684 538.7052 681.1484C 538.6432 680.9284 538.4242 680.8024 538.2032 680.8344C 537.9822 680.8974 537.8572 681.1164 537.9202 681.3364zM538.8952 685.1974L539.9612 690.7224C 539.9922 690.9424 540.2112 691.0994 540.4323 691.0364C 540.6522 691.0044 540.7772 690.7844 540.7462 690.5654L540.7462 690.5654L539.7092 685.0404C 539.6472 684.8204 539.4262 684.6954 539.2382 684.7264C 539.0202 684.7894 538.8612 684.9784 538.8952 685.1974zM540.5252 694.6464L540.5252 694.6464C 540.5252 694.8654 540.7462 695.0544 540.9652 695.0224C 541.1862 695.0224 541.3422 694.8344 541.3112 694.5834C 541.3112 694.3634 541.1212 694.2064 540.9022 694.2374C 540.6842 694.2374 540.4942 694.4264 540.5252 694.6464zM540.9342 698.6644L540.9342 698.6644C 540.9652 698.8834 541.1542 699.0404 541.3732 699.0404C 541.5922 699.0084 541.7502 698.8204 541.7502 698.6014C 541.7192 698.3814 541.5292 698.1924 541.3112 698.2244C 541.0902 698.2554 540.9342 698.4444 540.9342 698.6644zM541.2172 702.6504L541.3112 704.4704L541.3112 704.4704L541.3112 708.2694C 541.3112 708.4884 541.4672 708.6464 541.6882 708.6464C 541.9382 708.6464 542.0963 708.4884 542.0963 708.2694L542.0963 708.2694L542.0963 704.4394L542.0963 704.4394L542.0313 702.6184C 542.0313 702.3994 541.8442 702.2114 541.6252 702.2424C 541.4042 702.2424 541.2172 702.4304 541.2172 702.6504z" stroke="#EE1C23" stroke-width="1.107" fill="none" /><path id="2324" transform="matrix(1 0 0 -1 0 792)" d="M520.9713 651.4224L536.0373 656.0364" stroke="#0A74BC" stroke-width="1.5" stroke-linecap="round" fill="none" /><path id="2325" transform="matrix(1 0 0 -1 0 792)" d="M534.9383 656.0683L535.6603 656.2242L535.6603 656.2242L535.5353 656.1623L535.5353 656.1623L536.2253 656.6013L536.2253 656.6013L536.1313 656.5383L536.1313 656.5383L536.8223 657.2923L536.8223 657.2923L536.7913 657.2292L536.7913 657.2292L537.4183 658.2343L537.4183 658.2343L538.0143 659.4583L538.0143 659.4583L538.1723 659.8663C 538.2343 660.0543 538.4533 660.1803 538.6743 660.0853C 538.8953 660.0233 538.9883 659.7723 538.9263 659.5833L538.9263 659.5833L538.7363 659.1133L538.7363 659.1133L538.0783 657.8253L538.0783 657.8253L537.4493 656.8213C 537.4493 656.7903 537.4183 656.7583 537.4183 656.7583L537.4183 656.7583L536.7273 656.0052C 536.6953 655.9733 536.6643 655.9423 536.6333 655.9423L536.6333 655.9423L535.9433 655.5033C 535.9123 655.4713 535.8813 655.4402 535.8183 655.4402L535.8183 655.4402L535.0963 655.2833C 534.8753 655.2513 534.6563 655.3773 534.6253 655.5973C 534.5613 655.8173 534.7193 656.0363 534.9383 656.0683M539.3953 663.6333L539.6153 664.5433L539.6153 664.5433L540.0553 666.6463L540.0553 666.6463L540.4633 668.9383L540.4633 668.9383L540.4633 669.0953C 540.4943 669.3143 540.7153 669.4713 540.9343 669.4402C 541.1543 669.4083 541.3113 669.2203 541.2793 669.0002L541.2793 669.0002L541.2483 668.7803L541.2483 668.7803L540.8403 666.4893L540.8403 666.4893L540.4003 664.3243L540.4003 664.3243L540.1483 663.4443C 540.1173 663.2242 539.8983 663.0992 539.6783 663.1313C 539.4593 663.1943 539.3323 663.4133 539.3953 663.6333M540.9653 673.0813L541.0903 673.9913L541.0903 673.9913L541.4363 678.6683C 541.4363 678.8882 541.6253 679.0453 541.8443 679.0453C 542.0633 679.0143 542.2523 678.8253 542.2213 678.6063L542.2213 678.6063L541.8753 673.8973L541.8753 673.8973L541.7813 672.9872C 541.7503 672.7673 541.5293 672.6103 541.3113 672.6413C 541.0903 672.6733 540.9343 672.8613 540.9653 673.0813M541.5613 682.6553L541.6563 685.6053C 541.6563 685.8253 541.8443 686.0132 542.0633 685.9823C 542.2833 685.9823 542.4403 685.7943 542.4403 685.5743L542.4403 685.5743L542.3773 682.6553C 542.3773 682.4353 542.1903 682.2463 541.9693 682.2463C 541.7503 682.2463 541.5613 682.4353 541.5613 682.6553" stroke="none" fill="#EE1C23" fill-rule="nonzero" /><path id="2326" transform="matrix(1 0 0 -1 0 792)" d="M534.9383 656.0683L535.6603 656.2242L535.6603 656.2242L535.5353 656.1623L535.5353 656.1623L536.2253 656.6013L536.2253 656.6013L536.1313 656.5383L536.1313 656.5383L536.8223 657.2923L536.8223 657.2923L536.7913 657.2292L536.7913 657.2292L537.4183 658.2343L537.4183 658.2343L538.0143 659.4583L538.0143 659.4583L538.1723 659.8663C 538.2343 660.0543 538.4533 660.1803 538.6743 660.0853C 538.8953 660.0233 538.9883 659.7723 538.9263 659.5833L538.9263 659.5833L538.7363 659.1133L538.7363 659.1133L538.0783 657.8253L538.0783 657.8253L537.4493 656.8213C 537.4493 656.7903 537.4183 656.7583 537.4183 656.7583L537.4183 656.7583L536.7273 656.0052C 536.6953 655.9733 536.6643 655.9423 536.6333 655.9423L536.6333 655.9423L535.9433 655.5033C 535.9123 655.4713 535.8813 655.4402 535.8183 655.4402L535.8183 655.4402L535.0963 655.2833C 534.8753 655.2513 534.6563 655.3773 534.6253 655.5973C 534.5613 655.8173 534.7193 656.0363 534.9383 656.0683zM539.3953 663.6333L539.6153 664.5433L539.6153 664.5433L540.0553 666.6463L540.0553 666.6463L540.4633 668.9383L540.4633 668.9383L540.4633 669.0953C 540.4943 669.3143 540.7153 669.4713 540.9343 669.4402C 541.1543 669.4083 541.3113 669.2203 541.2793 669.0002L541.2793 669.0002L541.2483 668.7803L541.2483 668.7803L540.8403 666.4893L540.8403 666.4893L540.4003 664.3243L540.4003 664.3243L540.1483 663.4443C 540.1173 663.2242 539.8983 663.0992 539.6783 663.1313C 539.4593 663.1943 539.3323 663.4133 539.3953 663.6333zM540.9653 673.0813L541.0903 673.9913L541.0903 673.9913L541.4363 678.6683C 541.4363 678.8882 541.6253 679.0453 541.8443 679.0453C 542.0633 679.0143 542.2523 678.8253 542.2213 678.6063L542.2213 678.6063L541.8753 673.8973L541.8753 673.8973L541.7813 672.9872C 541.7503 672.7673 541.5293 672.6103 541.3113 672.6413C 541.0903 672.6733 540.9343 672.8613 540.9653 673.0813zM541.5613 682.6553L541.6563 685.6053C 541.6563 685.8253 541.8443 686.0132 542.0633 685.9823C 542.2833 685.9823 542.4403 685.7943 542.4403 685.5743L542.4403 685.5743L542.3773 682.6553C 542.3773 682.4353 542.1903 682.2463 541.9693 682.2463C 541.7503 682.2463 541.5613 682.4353 541.5613 682.6553z" stroke="#0A74BC" stroke-width="1.107" fill="none" /></g><path id="2364" transform="matrix(1 0 0 -1 0 792)" d="M274.8545 620.7197C 275.4425 621.2837 275.7365 622.0457 275.7365 623.0057C 275.7365 623.9537 275.4425 624.7067 274.8545 625.2827C 274.2665 625.8467 273.4505 626.1287 272.4065 626.1287C 271.3625 626.1287 270.5405 625.8377 269.9405 625.2737C 269.3645 624.6977 269.0585 623.9327 269.0585 622.9967C 269.0585 622.4567 269.1425 621.9977 269.3105 621.6017C 269.4425 621.3017 269.6435 621.0167 269.8955 620.7647C 270.1595 620.5127 270.4535 620.3147 270.7775 620.1707C 271.2335 619.9667 271.7855 619.8737 272.4335 619.8737C 273.4775 619.8737 274.2785 620.1437 274.8545 620.7197zM270.7235 621.7097C 270.3635 622.0337 270.1745 622.4657 270.1745 623.0057C 270.1745 623.5457 270.3635 623.9777 270.7235 624.3017C 271.0835 624.6257 271.6355 624.7877 272.3795 624.7877C 273.1355 624.7877 273.6905 624.6077 274.0625 624.2837C 274.4345 623.9477 274.6205 623.5217 274.6205 623.0057C 274.6205 622.4777 274.4375 622.0547 274.0535 621.7187C 273.6815 621.3827 273.1295 621.2147 272.3975 621.2147C 271.6535 621.2147 271.0955 621.3737 270.7235 621.7097z" stroke="none" fill="#221E1F" fill-rule="evenodd" /><path id="2365" transform="matrix(1 0 0 -1 0 792)" d="M275.6195 631.3667L270.9485 631.3667L270.9485 631.3667L270.9485 630.1337L270.9485 630.1337L272.9195 630.1337C 273.6035 630.1337 274.0205 630.1037 274.1885 630.0437C 274.3685 629.9717 274.5125 629.8607 274.6205 629.6927C 274.7405 629.5247 274.7915 629.3417 274.7915 629.1257C 274.7915 628.9457 274.7495 628.7867 274.6655 628.6667C 274.5815 628.5467 274.4615 628.4597 274.3055 628.4237C 274.1615 628.3757 273.7595 628.3517 273.0995 628.3517L273.0995 628.3517L270.9485 628.3517L270.9485 628.3517L270.9485 627.1187L270.9485 627.1187L273.9095 627.1187C 274.3535 627.1187 274.7045 627.1697 274.9445 627.2897C 275.1965 627.3977 275.3975 627.5777 275.5295 627.8297C 275.6615 628.0817 275.7365 628.3517 275.7365 628.6757C 275.7365 628.9757 275.6555 629.2727 275.5115 629.5487C 275.3675 629.8247 275.1695 630.0437 274.9175 630.2237L274.9175 630.2237L275.6195 630.2237z" stroke="none" fill="#221E1F" fill-rule="evenodd" /><path id="2366" transform="matrix(1 0 0 -1 0 792)" d="M270.9485 633.9227L269.2925 633.9227L269.2925 633.9227L270.0215 632.6897L270.0215 632.6897L270.9485 632.6897L270.9485 632.6897L270.9485 632.1227L270.9485 632.1227L271.9295 632.1227L271.9295 632.1227L271.9295 632.6897L271.9295 632.6897L273.9725 632.6897C 274.4165 632.6897 274.7015 632.6897 274.8455 632.7257C 275.0615 632.7617 275.2235 632.8097 275.3315 632.9057C 275.4515 632.9777 275.5475 633.1127 275.6195 633.2927C 275.6915 633.4727 275.7365 633.6677 275.7365 633.8957C 275.7365 634.2557 275.6675 634.5797 275.5475 634.8677L275.5475 634.8677L274.5935 634.7687C 274.6775 634.5407 274.7105 634.3727 274.7105 634.2647C 274.7105 634.1807 274.6955 634.1057 274.6475 634.0577C 274.6115 633.9977 274.5665 633.9497 274.4945 633.9497C 274.4345 633.9257 274.2155 633.9227 273.8195 633.9227L273.8195 633.9227L271.9295 633.9227L271.9295 633.9227L271.9295 634.7687L271.9295 634.7687L270.9485 634.7687z" stroke="none" fill="#221E1F" fill-rule="evenodd" /><path id="2367" transform="matrix(1 0 0 -1 0 792)" d="M277.3925 635.5967L277.3925 636.8297L277.3925 636.8297L275.0525 636.8297C 275.3045 637.0577 275.4875 637.2797 275.5835 637.4957C 275.6795 637.6997 275.7365 637.9337 275.7365 638.1977C 275.7365 638.7377 275.5205 639.1907 275.0885 639.5747C 274.6565 639.9587 274.0505 640.1507 273.2705 640.1507C 272.5145 640.1507 271.9205 639.9557 271.4885 639.5837C 271.0685 639.1997 270.8495 638.7467 270.8495 638.2067C 270.8495 637.8827 270.9215 637.6037 271.0655 637.3517C 271.2095 637.0997 271.4045 636.8927 271.6325 636.7487L271.6325 636.7487L270.9485 636.7487L270.9485 636.7487L270.9485 635.5967zM272.1725 637.1087C 271.9445 637.3007 271.8215 637.5557 271.8215 637.8557C 271.8215 638.1437 271.9415 638.3927 272.1815 638.5847C 272.4215 638.7767 272.7905 638.8817 273.2705 638.8817C 273.8105 638.8817 274.1855 638.7737 274.4135 638.5937C 274.6415 638.4017 274.7555 638.1707 274.7555 637.8827C 274.7555 637.5827 274.6295 637.3307 274.3775 637.1267C 274.1255 636.9107 273.7475 636.8117 273.2075 636.8117C 272.7515 636.8117 272.4125 636.9047 272.1725 637.1087z" stroke="none" fill="#221E1F" fill-rule="evenodd" /><path id="2368" transform="matrix(1 0 0 -1 0 792)" d="M275.6195 645.3617L270.9485 645.3617L270.9485 645.3617L270.9485 644.1287L270.9485 644.1287L272.9195 644.1287C 273.6035 644.1287 274.0205 644.0987 274.1885 644.0387C 274.3685 643.9667 274.5125 643.8557 274.6205 643.6877C 274.7405 643.5197 274.7915 643.3367 274.7915 643.1207C 274.7915 642.9407 274.7495 642.7817 274.6655 642.6617C 274.5815 642.5417 274.4615 642.4547 274.3055 642.4187C 274.1615 642.3707 273.7595 642.3467 273.0995 642.3467L273.0995 642.3467L270.9485 642.3467L270.9485 642.3467L270.9485 641.1137L270.9485 641.1137L273.9095 641.1137C 274.3535 641.1137 274.7045 641.1647 274.9445 641.2847C 275.1965 641.3927 275.3975 641.5727 275.5295 641.8247C 275.6615 642.0767 275.7365 642.3467 275.7365 642.6707C 275.7365 642.9707 275.6555 643.2677 275.5115 643.5437C 275.3675 643.8197 275.1695 644.0387 274.9175 644.2187L274.9175 644.2187L275.6195 644.2187z" stroke="none" fill="#221E1F" fill-rule="evenodd" /><path id="2369" transform="matrix(1 0 0 -1 0 792)" d="M270.9485 647.9177L269.2925 647.9177L269.2925 647.9177L270.0215 646.6847L270.0215 646.6847L270.9485 646.6847L270.9485 646.6847L270.9485 646.1177L270.9485 646.1177L271.9295 646.1177L271.9295 646.1177L271.9295 646.6847L271.9295 646.6847L273.9725 646.6847C 274.4165 646.6847 274.7015 646.6847 274.8455 646.7207C 275.0615 646.7567 275.2235 646.8047 275.3315 646.9007C 275.4515 646.9727 275.5475 647.1077 275.6195 647.2877C 275.6915 647.4677 275.7365 647.6627 275.7365 647.8907C 275.7365 648.2507 275.6675 648.5747 275.5475 648.8627L275.5475 648.8627L274.5935 648.7637C 274.6775 648.5357 274.7105 648.3677 274.7105 648.2597C 274.7105 648.1757 274.6955 648.1007 274.6475 648.0527C 274.6115 647.9927 274.5665 647.9447 274.4945 647.9447C 274.4345 647.9207 274.2155 647.9177 273.8195 647.9177L273.8195 647.9177L271.9295 647.9177L271.9295 647.9177L271.9295 648.7637L271.9295 648.7637L270.9485 648.7637z" stroke="none" fill="#221E1F" fill-rule="evenodd" /><path id="2371" transform="matrix(1 0 0 -1 0 792)" d="M274.2785 655.7207C 274.5065 655.4687 274.6115 655.1777 274.6115 654.8297C 274.6115 654.3617 274.4495 653.9747 274.0895 653.6867C 273.7535 653.3867 273.1805 653.2457 272.3525 653.2457C 271.5965 653.2457 271.0355 653.3957 270.6875 653.6957C 270.3515 653.9837 270.1745 654.3767 270.1745 654.8567C 270.1745 655.1927 270.2825 655.4867 270.4625 655.7387C 270.6665 655.9787 270.9305 656.1437 271.2545 656.2157L271.2545 656.2157L270.9485 657.5027C 270.4445 657.3587 270.0485 657.1337 269.7605 656.8457C 269.2925 656.3417 269.0585 655.7117 269.0585 654.9197C 269.0585 654.0197 269.3615 653.2847 269.9495 652.7327C 270.5495 652.1807 271.3835 651.9047 272.4515 651.9047C 273.4715 651.9047 274.2695 652.1807 274.8455 652.7327C 275.4335 653.2727 275.7275 653.9747 275.7275 654.8387C 275.7275 655.5227 275.5625 656.1017 275.2145 656.5577C 274.8665 657.0017 274.3505 657.3287 273.6305 657.5207L273.6305 657.5207L273.2435 656.2607C 273.7115 656.1527 274.0625 655.9727 274.2785 655.7207z" stroke="none" fill="#221E1F" fill-rule="evenodd" /><path id="2372" transform="matrix(1 0 0 -1 0 792)" d="M275.6195 662.8577L270.9485 662.8577L270.9485 662.8577L270.9485 661.6247L270.9485 661.6247L272.9195 661.6247C 273.6035 661.6247 274.0205 661.5947 274.1885 661.5347C 274.3685 661.4627 274.5125 661.3517 274.6205 661.1837C 274.7405 661.0157 274.7915 660.8327 274.7915 660.6167C 274.7915 660.4367 274.7495 660.2777 274.6655 660.1577C 274.5815 660.0377 274.4615 659.9507 274.3055 659.9147C 274.1615 659.8667 273.7595 659.8427 273.0995 659.8427L273.0995 659.8427L270.9485 659.8427L270.9485 659.8427L270.9485 658.6097L270.9485 658.6097L273.9095 658.6097C 274.3535 658.6097 274.7045 658.6607 274.9445 658.7807C 275.1965 658.8887 275.3975 659.0687 275.5295 659.3207C 275.6615 659.5727 275.7365 659.8427 275.7365 660.1667C 275.7365 660.4667 275.6555 660.7637 275.5115 661.0397C 275.3675 661.3157 275.1695 661.5347 274.9175 661.7147L274.9175 661.7147L275.6195 661.7147z" stroke="none" fill="#221E1F" fill-rule="evenodd" /><path id="2373" transform="matrix(1 0 0 -1 0 792)" d="M274.1795 665.3057C 273.3875 665.3057 272.8655 665.3327 272.6135 665.4047C 272.3735 665.4767 272.1965 665.5727 272.1005 665.6927C 272.0045 665.8007 271.9565 665.9537 271.9565 666.1337C 271.9565 666.3137 272.0225 666.5027 272.1545 666.7187L272.1545 666.7187L271.0835 667.0967C 270.9395 666.8327 270.8495 666.5657 270.8495 666.2777C 270.8495 666.0737 270.8975 665.8907 270.9935 665.7467C 271.1015 665.5907 271.3025 665.4077 271.6145 665.2157L271.6145 665.2157L270.9485 665.2157L270.9485 665.2157L270.9485 664.0727L270.9485 664.0727L275.6195 664.0727L275.6195 664.0727L275.6195 665.3057z" stroke="none" fill="#221E1F" fill-rule="evenodd" /><path id="2374" transform="matrix(1 0 0 -1 0 792)" d="M274.1795 668.8067C 273.3875 668.8067 272.8655 668.8337 272.6135 668.9057C 272.3735 668.9777 272.1965 669.0737 272.1005 669.1937C 272.0045 669.3017 271.9565 669.4547 271.9565 669.6347C 271.9565 669.8147 272.0225 670.0037 272.1545 670.2197L272.1545 670.2197L271.0835 670.5977C 270.9395 670.3337 270.8495 670.0667 270.8495 669.7787C 270.8495 669.5747 270.8975 669.3917 270.9935 669.2477C 271.1015 669.0917 271.3025 668.9087 271.6145 668.7167L271.6145 668.7167L270.9485 668.7167L270.9485 668.7167L270.9485 667.5737L270.9485 667.5737L275.6195 667.5737L275.6195 667.5737L275.6195 668.8067z" stroke="none" fill="#221E1F" fill-rule="evenodd" /><path id="2375" transform="matrix(1 0 0 -1 0 792)" d="M274.6475 673.5317C 274.7555 673.3877 274.8095 673.2257 274.8095 673.0457C 274.8095 672.7577 274.7195 672.5147 274.5035 672.3347C 274.2995 672.1427 274.0205 672.0377 273.6485 672.0377L273.6485 672.0377L273.6485 675.1247C 272.7125 675.1367 272.0105 674.9447 271.5425 674.5487C 271.0865 674.1527 270.8495 673.5947 270.8495 672.9107C 270.8495 672.2867 271.0745 671.7677 271.5065 671.3717C 271.9505 670.9637 272.5565 670.7687 273.3245 670.7687C 273.9725 670.7687 274.5155 670.9157 274.9355 671.2277C 275.4755 671.6237 275.7365 672.2117 275.7365 673.0277C 275.7365 673.5317 275.6255 673.9667 275.3855 674.3147C 275.1455 674.6507 274.8065 674.8937 274.3505 675.0617L274.3505 675.0617L274.1435 673.8287C 274.3835 673.7567 274.5515 673.6637 274.6475 673.5317zM272.8925 672.0557C 272.5565 672.0557 272.2955 672.1367 272.0915 672.3167C 271.8995 672.4967 271.7945 672.7067 271.7945 672.9827C 271.7945 673.2347 271.8935 673.4417 272.0735 673.6217C 272.2655 673.8017 272.5325 673.8887 272.8925 673.9007z" stroke="none" fill="#221E1F" fill-rule="evenodd" /><path id="2376" transform="matrix(1 0 0 -1 0 792)" d="M272.7215 680.3807C 272.3615 680.3807 272.0855 680.3447 271.8935 680.3087C 271.7015 680.2607 271.5275 680.1737 271.3715 680.0657C 271.2275 679.9457 271.1015 679.7687 270.9935 679.5527C 270.8975 679.3247 270.8495 679.0697 270.8495 678.8057C 270.8495 678.1817 271.1165 677.6537 271.6325 677.2577L271.6325 677.2577L270.9485 677.2577L270.9485 677.2577L270.9485 676.1147L270.9485 676.1147L275.6195 676.1147L275.6195 676.1147L275.6195 677.3477L275.6195 677.3477L273.5045 677.3477C 272.9885 677.3477 272.6375 677.3747 272.4335 677.4467C 272.2535 677.5067 272.0945 677.6177 271.9745 677.7977C 271.8665 677.9657 271.7945 678.1577 271.7945 678.3737C 271.7945 678.5417 271.8485 678.6857 271.9205 678.8057C 272.0045 678.9257 272.1185 679.0067 272.2625 679.0667C 272.4065 679.1147 272.7395 679.1477 273.2435 679.1477L273.2435 679.1477L275.6195 679.1477L275.6195 679.1477L275.6195 680.3807z" stroke="none" fill="#221E1F" fill-rule="evenodd" /><path id="2377" transform="matrix(1 0 0 -1 0 792)" d="M270.9485 682.9187L269.2925 682.9187L269.2925 682.9187L270.0215 681.6857L270.0215 681.6857L270.9485 681.6857L270.9485 681.6857L270.9485 681.1187L270.9485 681.1187L271.9295 681.1187L271.9295 681.1187L271.9295 681.6857L271.9295 681.6857L273.9725 681.6857C 274.4165 681.6857 274.7015 681.6857 274.8455 681.7217C 275.0615 681.7577 275.2235 681.8057 275.3315 681.9017C 275.4515 681.9737 275.5475 682.1087 275.6195 682.2887C 275.6915 682.4687 275.7365 682.6637 275.7365 682.8917C 275.7365 683.2517 275.6675 683.5757 275.5475 683.8637L275.5475 683.8637L274.5935 683.7647C 274.6775 683.5367 274.7105 683.3687 274.7105 683.2607C 274.7105 683.1767 274.6955 683.1017 274.6475 683.0537C 274.6115 682.9937 274.5665 682.9457 274.4945 682.9457C 274.4345 682.9217 274.2155 682.9187 273.8195 682.9187L273.8195 682.9187L271.9295 682.9187L271.9295 682.9187L271.9295 683.7647L271.9295 683.7647L270.9485 683.7647z" stroke="none" fill="#221E1F" fill-rule="evenodd" /><path id="2379" transform="matrix(1 0 0 -1 0 792)" d="M276.2225 688.6337C 275.7665 688.4777 275.2865 688.3487 274.7825 688.2647C 274.2785 688.1687 273.7985 688.1297 273.3065 688.1297C 272.6225 688.1297 271.9595 688.1987 271.3355 688.3547C 270.7115 688.4987 269.9675 688.7837 269.0675 689.1917L269.0675 689.1917L269.0675 688.3457C 269.6195 687.9497 270.2375 687.6347 270.8855 687.3827C 271.6415 687.0947 272.4365 686.9507 273.2885 686.9507C 273.9725 686.9507 274.6835 687.0617 275.4035 687.3017C 276.1235 687.5417 276.8255 687.8807 277.5095 688.3367L277.5095 688.3367L277.5095 689.1827C 276.9455 688.9187 276.5105 688.7417 276.2225 688.6337z" stroke="none" fill="#221E1F" fill-rule="evenodd" /><path id="2380" transform="matrix(1 0 0 -1 0 792)" d="M269.1755 693.3587L269.1755 691.9817L269.1755 691.9817L275.6195 689.4797L275.6195 689.4797L275.6195 690.8567L275.6195 690.8567L274.1525 691.3967L274.1525 691.3967L274.1525 693.9797L274.1525 693.9797L275.6195 694.5377L275.6195 694.5377L275.6195 695.9417zM273.0635 691.7927L270.6785 692.6657L270.6785 692.6657L273.0635 693.5567z" stroke="none" fill="#221E1F" fill-rule="evenodd" /><path id="2381" transform="matrix(1 0 0 -1 0 792)" d="M277.5095 697.1296C 276.7415 697.6337 275.9675 697.9907 275.1875 698.2187C 274.4915 698.3987 273.8285 698.5067 273.2165 698.5067C 272.4965 698.5067 271.7825 698.3777 271.0745 698.1376C 270.3665 697.8857 269.7035 697.5347 269.0675 697.1027L269.0675 697.1027L269.0675 696.2657C 269.9675 696.6617 270.7115 696.9377 271.3355 697.0937C 271.9595 697.2377 272.6225 697.3187 273.3065 697.3187C 273.6665 697.3187 273.9905 697.2917 274.3145 697.2557C 274.6385 697.2197 274.9895 697.1506 275.3495 697.0667C 275.7095 696.9827 276.0245 696.8837 276.3125 696.7877C 276.5885 696.6797 276.9815 696.5146 277.5095 696.2747z" stroke="none" fill="#221E1F" fill-rule="evenodd" /><path id="2382" transform="matrix(1 0 0 -1 0 792)" d="M543.7075 582.6675L300.1775 582.6675L300.1775 582.6675L300.1775 727.5275L300.1775 727.5275L543.7075 727.5275z" stroke="#221E1F" stroke-width="1.5" fill="none" /><path id="2383" transform="matrix(1 0 0 -1 0 792)" d="M494.401 684.649L417.812 684.649L417.812 695.497L494.401 695.497z" stroke="none" fill="#FFFFFF" fill-rule="nonzero" /><path id="2384" transform="matrix(1 0 0 -1 0 792)" d="M505.797 656.896L443.961 656.896L443.961 667.744L505.797 667.744z" stroke="none" fill="#FFFFFF" fill-rule="nonzero" /><path id="2400" transform="matrix(1 0 0 -1 0 792)" d="M506.232 657.113L442.01 657.113L442.01 668.395L506.232 668.395z" stroke="none" fill="#FFFFFF" fill-rule="nonzero" /><path id="2413" transform="matrix(1 0 0 -1 0 792)" d="M494.5523 689.1016L526.8803 674.5646" stroke="#221E1F" stroke-width="1" fill="none" /><path id="2414" transform="matrix(1 0 0 -1 0 792)" d="M524.1943 672.9411L534.1653 671.3231L526.3393 677.7091z" stroke="none" fill="#221E1F" fill-rule="nonzero" /><path id="2415" transform="matrix(1 0 0 -1 0 792)" d="M507.9673 661.6701L530.2933 660.7141" stroke="#221E1F" stroke-width="1" fill="none" /><path id="2416" transform="matrix(1 0 0 -1 0 792)" d="M528.4003 658.2104L538.2614 660.4044L528.6253 663.4344z" stroke="none" fill="#221E1F" fill-rule="nonzero" /><g clip-path="url(#4)"><path id="2417" transform="matrix(1 0 0 -1 0 792)" d="M300.0179 584.0287L300.0179 608.7007L300.0179 608.7007L357.3869 616.3127L357.3869 616.3127L377.0299 619.4247C 377.0299 619.4247 392.4239 622.3347 394.9229 622.5357C 397.4209 622.7377 413.7879 625.4527 413.7879 625.4527C 413.7879 625.4527 433.4309 629.1487 436.7369 630.1207C 440.0439 631.0937 459.1039 634.9837 459.1039 634.9837C 459.1039 634.9837 495.4749 643.1517 498.3919 644.3187L498.3919 644.3187L533.0109 655.2097" stroke="#0A74BC" stroke-width="1.5" stroke-linecap="round" fill="none" /></g></g></g></svg>