<svg xmlns="http://www.w3.org/2000/svg" xmlns:xlink="http://www.w3.org/1999/xlink" id="body_40" preserveAspectRatio="xMinYMin meet" viewBox="0 0 816 1056"><defs><clipPath id="1"><path id="" clip-rule="evenodd" transform="matrix(1 0 0 1 0 0)" d="M0 792L0 0L0 0L612 0L612 0L612 792L612 792L0 792z" /></clipPath><clipPath id="2"><path id="" clip-rule="evenodd" transform="matrix(1 0 0 1 0 0)" d="M41 738L566 738L566 738L566 37.20001L566 37.20001L41 37.20001z" /></clipPath><clipPath id="3"><path id="" clip-rule="evenodd" transform="matrix(1 0 0 1 0 0)" d="M118.324 422.502L494.324 422.502L494.324 422.502L494.324 237.5031L494.324 237.5031L118.324 237.5031z" /></clipPath><clipPath id="4"><path id="" clip-rule="evenodd" transform="matrix(1 0 0 1 0 0)" d="M118.324 422.502L494.324 422.502L494.324 422.502L494.324 237.5031L494.324 237.5031L118.324 237.5031z" /></clipPath><clipPath id="5"><path id="" clip-rule="evenodd" transform="matrix(1 0 0 1 0 0)" d="M118.324 422.502L494.324 422.502L494.324 422.502L494.324 237.5031L494.324 237.5031L118.324 237.5031z" /></clipPath></defs><g transform="matrix(1.333333 0 0 1.333333 0 0)"><g clip-path="url(#1)"><path id="1" transform="matrix(1 0 0 -1 0 792)" d="M54 39.5055L558 39.5055" stroke="#221E1F" stroke-width="0.5" fill="none" /><path id="30" transform="matrix(1 0 0 -1 0 792)" d="M41 54L566 54L566 754.8L41 754.8z" stroke="none" fill="#FFFFFF" fill-rule="nonzero" /><g clip-path="url(#2)"></g><path id="970" transform="matrix(1 0 0 -1 0 792)" d="M162.7611 307.4104L192.9491 307.4104" stroke="#060606" stroke-width="0.594" stroke-linecap="square" fill="none" /><path id="971" transform="matrix(1 0 0 -1 0 792)" d="M372.8861 307.4104L413.4171 307.4104" stroke="#060606" stroke-width="0.594" stroke-linecap="square" fill="none" /><path id="1055" transform="matrix(1 0 0 -1 0 792)" d="M146.3236 239.4904L204.9796 239.4904" stroke="#060606" stroke-width="0.594" stroke-linecap="square" fill="none" /><path id="1056" transform="matrix(1 0 0 -1 0 792)" d="M220.4174 258.9591L260.1054 258.9591" stroke="#060606" stroke-width="0.594" stroke-linecap="square" fill="none" /><path id="1057" transform="matrix(1 0 0 -1 0 792)" d="M271.3549 258.9591L286.1679 258.9591" stroke="#060606" stroke-width="0.594" stroke-linecap="square" fill="none" /><path id="1058" transform="matrix(1 0 0 -1 0 792)" d="M296.2924 258.9591L354.9484 258.9591" stroke="#060606" stroke-width="0.594" stroke-linecap="square" fill="none" /><path id="1059" transform="matrix(1 0 0 -1 0 792)" d="M386.6361 258.9591L399.1671 258.9591" stroke="#060606" stroke-width="0.594" stroke-linecap="square" fill="none" /><path id="1060" transform="matrix(1 0 0 -1 0 792)" d="M459.5736 258.9591L499.3236 258.9591" stroke="#060606" stroke-width="0.594" stroke-linecap="square" fill="none" /><path id="1061" transform="matrix(1 0 0 -1 0 792)" d="M228.8549 220.7716L245.5429 220.7716" stroke="#060606" stroke-width="0.594" stroke-linecap="square" fill="none" /><path id="1062" transform="matrix(1 0 0 -1 0 792)" d="M261.5424 220.7716L302.0734 220.7716" stroke="#060606" stroke-width="0.594" stroke-linecap="square" fill="none" /><path id="1063" transform="matrix(1 0 0 -1 0 792)" d="M313.3236 220.7716L371.9796 220.7716" stroke="#060606" stroke-width="0.594" stroke-linecap="square" fill="none" /><path id="1196" transform="matrix(1 0 0 -1 0 792)" d="M127.6199 169.3441L154.2703 169.3441" stroke="#060606" stroke-width="0.5243906" stroke-linecap="square" fill="none" /><path id="1197" transform="matrix(1 0 0 -1 0 792)" d="M336.2947 169.3441L372.076 169.3441" stroke="#060606" stroke-width="0.5243906" stroke-linecap="square" fill="none" /><path id="1295" transform="matrix(1 0 0 -1 0 792)" d="M108.8761 101.8694L167.5321 101.8694" stroke="#060606" stroke-width="0.594" stroke-linecap="square" fill="none" /><path id="1296" transform="matrix(1 0 0 -1 0 792)" d="M182.9698 121.3381L222.6578 121.3381" stroke="#060606" stroke-width="0.594" stroke-linecap="square" fill="none" /><path id="1297" transform="matrix(1 0 0 -1 0 792)" d="M233.9073 121.3381L248.7203 121.3381" stroke="#060606" stroke-width="0.594" stroke-linecap="square" fill="none" /><path id="1298" transform="matrix(1 0 0 -1 0 792)" d="M258.8448 121.3381L317.5008 121.3381" stroke="#060606" stroke-width="0.594" stroke-linecap="square" fill="none" /><path id="1299" transform="matrix(1 0 0 -1 0 792)" d="M349.1886 121.3381L361.7196 121.3381" stroke="#060606" stroke-width="0.594" stroke-linecap="square" fill="none" /><path id="1300" transform="matrix(1 0 0 -1 0 792)" d="M458.9698 121.3381L498.7198 121.3381" stroke="#060606" stroke-width="0.594" stroke-linecap="square" fill="none" /><path id="1301" transform="matrix(1 0 0 -1 0 792)" d="M191.4073 83.1506L208.0953 83.1506" stroke="#060606" stroke-width="0.594" stroke-linecap="square" fill="none" /><path id="1302" transform="matrix(1 0 0 -1 0 792)" d="M224.0948 83.1506L264.6258 83.1506" stroke="#060606" stroke-width="0.594" stroke-linecap="square" fill="none" /><path id="1303" transform="matrix(1 0 0 -1 0 792)" d="M275.8761 83.1506L334.5321 83.1506" stroke="#060606" stroke-width="0.594" stroke-linecap="square" fill="none" /><path id="1452" transform="matrix(1 0 0 -1 0 792)" d="M54.3237 334.6194L560.4837 334.6194" stroke="#221E1F" stroke-width="0.5" fill="none" /><path id="1453" transform="matrix(1 0 0 -1 0 792)" d="M217.2056 396.2786L274.9996 396.2786" stroke="#221E1F" stroke-width="1" fill="none" /><path id="1454" transform="matrix(1 0 0 -1 0 792)" d="M217.6209 398.9134L212.8309 396.2784L217.6209 393.6434z" stroke="none" fill="#221E1F" fill-rule="nonzero" /><path id="1455" transform="matrix(1 0 0 -1 0 792)" d="M274.5846 398.9134L279.3746 396.2784L274.5846 393.6434z" stroke="none" fill="#221E1F" fill-rule="nonzero" /><path id="1456" transform="matrix(1 0 0 -1 0 792)" d="M394.9149 469.4442L385.2419 469.4442L385.2419 469.4442L385.2419 460.7782" stroke="#221E1F" stroke-width="1" fill="none" /><path id="1457" transform="matrix(1 0 0 -1 0 792)" d="M212.6943 445.0594L280.0503 503.7004" stroke="#EE1C23" stroke-width="2" fill="none" /><g clip-path="url(#3)"><path id="1458" transform="matrix(1 0 0 -1 0 792)" d="M249.5553 419.739L275.4253 419.739M188.1483 553.884L188.1483 396.693" stroke="#221E1F" stroke-width="1" fill="none" /></g><path id="1459" transform="matrix(1 0 0 -1 0 792)" d="M249.9705 422.374L245.1805 419.739L249.9705 417.104z" stroke="none" fill="#221E1F" fill-rule="nonzero" /><path id="1460" transform="matrix(1 0 0 -1 0 792)" d="M275.01 422.374L279.8 419.739L275.01 417.104z" stroke="none" fill="#221E1F" fill-rule="nonzero" /><path id="1461" transform="matrix(1 0 0 -1 0 792)" d="M344.6207 396.4061L363.9977 396.4061" stroke="#221E1F" stroke-width="1" fill="none" /><path id="1462" transform="matrix(1 0 0 -1 0 792)" d="M345.036 399.0409L340.246 396.4059L345.036 393.7709z" stroke="none" fill="#221E1F" fill-rule="nonzero" /><path id="1463" transform="matrix(1 0 0 -1 0 792)" d="M363.5825 399.0409L368.3725 396.4059L363.5825 393.7709z" stroke="none" fill="#221E1F" fill-rule="nonzero" /><path id="1464" transform="matrix(1 0 0 -1 0 792)" d="M313.4175 481.3344L313.4175 488.5894L313.4175 488.5894L303.0185 488.5894" stroke="#221E1F" stroke-width="1" fill="none" /><path id="1465" transform="matrix(1 0 0 -1 0 792)" d="M280.4424 503.4505L368.3134 445.0255" stroke="#EE1C23" stroke-width="2" stroke-linecap="round" fill="none" /><path id="1466" transform="matrix(1 0 0 -1 0 792)" d="M179.684 488.1293L179.684 506.8063" stroke="#221E1F" stroke-width="1" fill="none" /><path id="1467" transform="matrix(1 0 0 -1 0 792)" d="M177.0492 506.3906L179.6842 511.1806L182.3192 506.3906z" stroke="none" fill="#221E1F" fill-rule="nonzero" /><path id="1468" transform="matrix(1 0 0 -1 0 792)" d="M132.5268 511.4582L405.7978 511.4582" stroke="#221E1F" stroke-width="1" stroke-dasharray="5,3" fill="none" /><path id="1469" transform="matrix(1 0 0 -1 0 792)" d="M162.7558 478.0694L212.6138 445.0194" stroke="#EE1C23" stroke-width="2" fill="none" /><path id="1470" transform="matrix(1 0 0 -1 0 792)" d="M368.313 445.0254L425.144 494.0704" stroke="#EE1C23" stroke-width="2" stroke-linecap="round" fill="none" /><path id="1471" transform="matrix(1 0 0 -1 0 792)" d="M445.6999 506.7269L445.6999 491.8059M120.7979 507.2909L491.1669 507.2909" stroke="#0060AF" stroke-width="1" fill="none" /><path id="1472" transform="matrix(1 0 0 -1 0 792)" d="M448.3347 492.2208L445.6997 487.4308L443.0647 492.2208z" stroke="none" fill="#0060AF" fill-rule="nonzero" /><path id="1473" transform="matrix(1 0 0 -1 0 792)" d="M270.2104 457.0882L275.3684 457.0882" stroke="#221E1F" stroke-width="1" fill="none" /><path id="1474" transform="matrix(1 0 0 -1 0 792)" d="M270.6257 459.723L265.8357 457.088L270.6257 454.453z" stroke="none" fill="#221E1F" fill-rule="nonzero" /><path id="1475" transform="matrix(1 0 0 -1 0 792)" d="M274.9533 459.723L279.7433 457.088L274.9533 454.453z" stroke="none" fill="#221E1F" fill-rule="nonzero" /><g clip-path="url(#4)"><path id="1476" transform="matrix(1 0 0 -1 0 792)" d="M180.893 461.9875L212.594 510.7305M337.054 462.5525L368.442 510.8595M368.459 510.8635L493.059 462.4305M212.781 510.7705L337.036 462.4305" stroke="#221E1F" stroke-width="2" stroke-linecap="round" fill="none" /></g><path id="1477" transform="matrix(1 0 0 -1 0 792)" d="M253.4432 495.8441L253.4432 499.4721L253.4432 499.4721L243.0442 499.4721" stroke="#221E1F" stroke-width="1" fill="none" /><path id="1569" transform="matrix(1 0 0 -1 0 792)" d="M220.5695 517.0203L237.1465 527.9223" stroke="#221E1F" stroke-width="1" fill="none" /><path id="1570" transform="matrix(1 0 0 -1 0 792)" d="M219.4688 519.4503L216.9148 514.6163L222.3648 515.0473z" stroke="none" fill="#221E1F" fill-rule="nonzero" /><path id="1584" transform="matrix(1 0 0 -1 0 792)" d="M138.7682 493.9658L175.9832 493.9658" stroke="#221E1F" stroke-width="0.6" fill="none" /><path id="1585" transform="matrix(1 0 0 -1 0 792)" d="M175.5928 486.7211L456.0298 486.7211" stroke="#221E1F" stroke-width="1" stroke-dasharray="5,3" fill="none" /><path id="1586" transform="matrix(1 0 0 -1 0 792)" d="M120.7514 473.0813L418.3524 473.0813" stroke="#EE1C23" stroke-width="1" stroke-dasharray="5,3" fill="none" /><path id="1587" transform="matrix(1 0 0 -1 0 792)" d="M265.2864 503.0424L265.2864 445.3504M120.7514 445.0254L483.3154 445.0254" stroke="#221E1F" stroke-width="1" stroke-dasharray="5,3" fill="none" /><path id="1588" transform="matrix(1 0 0 -1 0 792)" d="M265.2872 495.1442L265.2872 499.5022L265.2872 499.5022L280.0502 499.5022L280.0502 499.5022L280.0502 484.2152L280.0502 484.2152L265.2872 484.2152L265.2872 484.2152L265.2872 486.1702" stroke="#0060AF" stroke-width="1" stroke-dasharray="2,1" fill="none" /><path id="1589" transform="matrix(1 0 0 -1 0 792)" d="M262.6524 495.5595L265.2874 490.7695L267.9224 495.5595z" stroke="none" fill="#0060AF" fill-rule="nonzero" /><path id="1590" transform="matrix(1 0 0 -1 0 792)" d="M262.6524 485.755L265.2874 490.545L267.9224 485.755z" stroke="none" fill="#0060AF" fill-rule="nonzero" /><g clip-path="url(#5)"><path id="1591" transform="matrix(1 0 0 -1 0 792)" d="M368.313 553.6241L368.313 388.0761M339.303 450.6621L339.303 373.8221M244.83 484.2151L244.83 413.1341M212.421 449.9181L212.421 387.5651M280.05 522.6071L280.05 390.1221" stroke="#221E1F" stroke-width="1" stroke-dasharray="5,3" fill="none" /><path id="1592" transform="matrix(1 0 0 -1 0 792)" d="M252.1063 429.9223L275.7793 429.9223M188.1483 370.8813L212.4213 370.8813L212.4213 370.8813L212.3323 385.3913L212.3323 385.3913L280.0503 385.3913L280.0503 385.3913L280.0503 370.8813L280.0503 370.8813L368.3133 370.8813L368.3133 370.8813L368.3133 385.3913L368.3133 385.3913L392.6543 385.3913" stroke="#221E1F" stroke-width="1" fill="none" /></g></g></g></svg>