<svg xmlns="http://www.w3.org/2000/svg" xmlns:xlink="http://www.w3.org/1999/xlink" id="body_3" preserveAspectRatio="xMinYMin meet" viewBox="0 0 816 1056"><defs><clipPath id="1"><path id="" clip-rule="evenodd" transform="matrix(1 0 0 1 0 0)" d="M0 792L0 0L0 0L612 0L612 0L612 792L612 792L0 792z" /></clipPath><clipPath id="2"><path id="" clip-rule="evenodd" transform="matrix(1 0 0 1 0 0)" d="M43 736.5L570.999 736.5L570.999 736.5L570.999 38.20001L570.999 38.20001L43 38.20001z" /></clipPath><clipPath id="3"><path id="" clip-rule="evenodd" transform="matrix(1 0 0 1 0 0)" d="M52.715 456.225L563.815 456.225L563.815 456.225L563.815 239.627L563.815 239.627L52.715 239.627z" /></clipPath><clipPath id="4"><path id="" clip-rule="evenodd" transform="matrix(1 0 0 1 0 0)" d="M52.715 456.225L563.815 456.225L563.815 456.225L563.815 239.627L563.815 239.627L52.715 239.627z" /></clipPath><clipPath id="5"><path id="" clip-rule="evenodd" transform="matrix(1 0 0 1 0 0)" d="M52.715 456.225L562.755 456.225L562.755 456.225L562.755 239.627L562.755 239.627L52.715 239.627z" /></clipPath><clipPath id="6"><path id="" clip-rule="evenodd" transform="matrix(1 0 0 1 0 0)" d="M52.715 456.225L563.815 456.225L563.815 456.225L563.815 239.627L563.815 239.627L52.715 239.627z" /></clipPath><clipPath id="7"><path id="" clip-rule="evenodd" transform="matrix(1 0 0 1 0 0)" d="M52.715 456.225L563.815 456.225L563.815 456.225L563.815 239.627L563.815 239.627L52.715 239.627z" /></clipPath><clipPath id="8"><path id="" clip-rule="evenodd" transform="matrix(1 0 0 1 0 0)" d="M52.715 456.225L563.815 456.225L563.815 456.225L563.815 239.627L563.815 239.627L52.715 239.627z" /></clipPath><clipPath id="9"><path id="" clip-rule="evenodd" transform="matrix(1 0 0 1 0 0)" d="M52.715 708.515L545.533 708.515L545.533 708.515L545.533 499.126L545.533 499.126L52.715 499.126z" /></clipPath><clipPath id="10"><path id="" clip-rule="evenodd" transform="matrix(1 0 0 1 0 0)" d="M52.715 708.515L545.533 708.515L545.533 708.515L545.533 499.126L545.533 499.126L52.715 499.126z" /></clipPath><clipPath id="11"><path id="" clip-rule="evenodd" transform="matrix(1 0 0 1 0 0)" d="M52.715 708.515L545.533 708.515L545.533 708.515L545.533 499.126L545.533 499.126L52.715 499.126z" /></clipPath></defs><g transform="matrix(1.333333 0 0 1.333333 0 0)"><g clip-path="url(#1)"><path id="1" transform="matrix(1 0 0 -1 0 792)" d="M54 39.5055L558 39.5055" stroke="#221E1F" stroke-width="0.5" fill="none" /><g clip-path="url(#2)"></g><path id="986" transform="matrix(1 0 0 -1 0 792)" d="M99.1287 478.2259L98.1787 478.2259L98.1787 534.7649L99.1287 534.7649zM96.1507 534.3709L98.6537 538.9219L101.1567 534.3709z" stroke="none" fill="#1F1B1D" fill-rule="nonzero" /><path id="987" transform="matrix(1 0 0 -1 0 792)" d="M167.6128 380.0077L191.4098 380.0077L191.4098 380.0077L191.3978 375.0907M133.5898 439.6337L113.0148 439.6337L113.0148 439.6337L113.0258 434.8667" stroke="#1F1B1D" stroke-width="0.95" fill="none" /><path id="988" transform="matrix(1 0 0 -1 0 792)" d="M274.0473 502.5528L274.0473 497.5468L269.4973 500.0498zM334.3903 499.5748L273.6533 499.5748L273.6533 500.5248L334.3903 500.5248zM333.9963 502.5528L338.5473 500.0498L333.9963 497.5468z" stroke="none" fill="#1F1B1D" fill-rule="nonzero" /><path id="989" transform="matrix(1 0 0 -1 0 792)" d="M98.6494 525.909L98.6494 485.344" stroke="#0060AF" stroke-width="1.9" stroke-linecap="round" fill="none" /><path id="990" transform="matrix(1 0 0 -1 0 792)" d="M99.1272 399.0162L99.1222 342.5982L98.1762 342.5982L98.1802 399.0162zM96.1502 398.6222L98.6532 403.1722L101.1572 398.6212z" stroke="none" fill="#1F1B1D" fill-rule="nonzero" /><path id="991" transform="matrix(1 0 0 -1 0 792)" d="M362.7697 349.2426L87.02768 349.2426L87.02768 350.1886L362.7697 350.1886zM362.3747 352.2186L366.9247 349.7156L362.3747 347.2116z" stroke="none" fill="#1F1B1D" fill-rule="nonzero" /><path id="992" transform="matrix(1 0 0 -1 0 792)" d="M362.7563 417.1855L87.02832 417.1855L87.02832 418.1355L362.7563 418.1355zM362.3623 420.1635L366.9133 417.6605L362.3623 415.1575z" stroke="none" fill="#1F1B1D" fill-rule="nonzero" /><path id="993" transform="matrix(1 0 0 -1 0 792)" d="M99.1272 466.9865L99.1222 410.5425L98.1762 410.5425L98.1802 466.9865zM96.1502 466.5925L98.6532 471.1425L101.1572 466.5925z" stroke="none" fill="#1F1B1D" fill-rule="nonzero" /><path id="994" transform="matrix(1 0 0 -1 0 792)" d="M362.3346 484.8679L87.02759 484.8679L87.02759 485.8189L362.3346 485.8189zM361.9396 487.8469L366.4906 485.3439L361.9396 482.8409z" stroke="none" fill="#1F1B1D" fill-rule="nonzero" /><path id="995" transform="matrix(1 0 0 -1 0 792)" d="M339.5184 525.9089L339.5184 485.3439M281.6664 525.9089L339.5184 525.9089M278.5124 526.0979L278.5764 525.6569L278.5764 525.6569L278.7014 525.2779L278.7014 525.2779L278.9544 525.0259L278.9544 525.0259L279.2694 524.8999L279.2694 524.8999L279.5854 525.0259L279.5854 525.0259L279.8374 525.2779L279.8374 525.2779L280.0264 525.6569L280.0264 525.6569L280.0894 526.0979L280.0894 526.0979L280.0894 526.1619L280.0894 526.1619L280.0894 526.0979L280.0894 526.0979L280.1534 526.2879L280.1534 526.2879L280.3424 526.4769L280.3424 526.4769L280.5944 526.6029L280.5944 526.6029L280.8474 526.6659L280.8474 526.6659L281.1624 526.6029L281.1624 526.6029L281.4144 526.4769L281.4144 526.4769L281.6034 526.2879L281.6034 526.2879L281.6664 526.0979M272.1404 526.0979L272.2044 524.7109L272.2044 524.7109L272.2674 524.1419L272.2674 524.1419L272.3934 523.5749L272.3934 523.5749L272.4564 523.1329L272.4564 523.1329L272.6454 522.8179L272.6454 522.8179L272.7714 522.6289L272.7714 522.6289L272.8984 522.5659L272.8984 522.5659L273.0874 522.6289L273.0874 522.6289L273.2134 522.8179L273.2134 522.8179L273.4024 523.1329L273.4024 523.1329L273.4664 523.5749L273.4664 523.5749L273.5914 524.1419L273.5914 524.1419L273.6554 524.7109L273.6554 524.7109L273.7174 526.0979L273.7174 526.0979L273.7814 527.2339L273.7814 527.2339L273.8444 527.7389L273.8444 527.7389L273.9694 528.1799L273.9694 528.1799L274.0964 528.4959L274.0964 528.4959L274.2234 528.8109L274.2234 528.8109L274.3484 528.9369L274.3484 528.9369L274.5384 528.9999L274.5384 528.9999L274.6644 528.9369L274.6644 528.9369L274.8544 528.8109L274.8544 528.8109L274.9794 528.4959L274.9794 528.4959L275.1054 528.1799L275.1054 528.1799L275.1684 527.7389L275.1684 527.7389L275.2324 527.2339L275.2324 527.2339L275.2944 526.0979L275.2944 526.0979L275.3584 525.1519L275.3584 525.1519L275.5474 524.3949L275.5474 524.3949L275.6734 524.1419L275.6734 524.1419L275.8004 523.8899L275.8004 523.8899L275.9254 523.7639L275.9254 523.7639L276.1144 523.7639L276.1144 523.7639L276.2424 523.7639L276.2424 523.7639L276.4314 523.8899L276.4314 523.8899L276.5574 524.1419L276.5574 524.1419L276.6824 524.3949L276.6824 524.3949L276.8094 525.1519L276.8094 525.1519L276.8724 526.0979L276.8724 526.0979L276.9354 526.7919L276.9354 526.7919L277.1244 527.3599L277.1244 527.3599L277.3774 527.7389L277.3774 527.7389L277.5664 527.8019L277.5664 527.8019L277.6924 527.8649L277.6924 527.8649L277.8814 527.8019L277.8814 527.8019L278.0084 527.7389L278.0084 527.7389L278.2604 527.3599L278.2604 527.3599L278.4494 526.7919L278.4494 526.7919L278.5124 526.0979M272.1404 533.0379L272.1404 525.9089M267.9774 533.0379L272.1404 533.0379M267.9774 485.3439L267.9774 533.0379M218.0744 485.3439L268.2294 485.3439M217.8854 525.9089L217.8854 485.3439M160.3494 525.9089L217.8854 525.9089M157.1944 526.0979L157.2584 525.6569L157.2584 525.6569L157.3834 525.2779L157.3834 525.2779L157.6364 525.0259L157.6364 525.0259L157.9514 524.8999L157.9514 524.8999L158.2674 525.0259L158.2674 525.0259L158.5194 525.2779L158.5194 525.2779L158.7084 525.6569L158.7084 525.6569L158.7714 526.0979L158.7714 526.0979L158.7714 526.1619L158.7714 526.1619L158.7714 526.0979L158.7714 526.0979L158.8354 526.3509L158.8354 526.3509L159.0244 526.4769L159.0244 526.4769L159.2764 526.6029L159.2764 526.6029L159.5924 526.6659L159.5924 526.6659L159.8454 526.6029L159.8454 526.6029L160.0964 526.4769L160.0964 526.4769L160.2854 526.3509L160.2854 526.3509L160.3494 526.0979M150.8234 526.0979L150.8234 525.4039L150.8234 525.4039L150.8854 524.7109L150.8854 524.7109L150.9494 524.1419L150.9494 524.1419L151.0754 523.5749L151.0754 523.5749L151.2014 523.1959L151.2014 523.1959L151.3274 522.8179L151.3274 522.8179L151.4534 522.6289L151.4534 522.6289L151.6424 522.5659L151.6424 522.5659L151.7694 522.6289L151.7694 522.6289L151.8954 522.8179L151.8954 522.8179L152.0844 523.1959L152.0844 523.1959L152.1484 523.5749L152.1484 523.5749L152.2734 524.1419L152.2734 524.1419L152.3374 524.7109L152.3374 524.7109L152.4004 525.4039L152.4004 525.4039L152.4004 526.0979L152.4004 526.0979L152.4634 527.2339L152.4634 527.2339L152.5264 527.7389L152.5264 527.7389L152.6524 528.1799L152.6524 528.1799L152.7794 528.5589L152.7794 528.5589L152.9044 528.8109L152.9044 528.8109L153.0304 528.9999L153.0304 528.9999L153.2194 529.0629L153.2194 529.0629L153.3464 528.9999L153.3464 528.9999L153.5354 528.8109L153.5354 528.8109L153.6614 528.5589L153.6614 528.5589L153.7874 528.1799L153.7874 528.1799L153.8504 527.7389L153.8504 527.7389L153.9144 527.2339L153.9144 527.2339L153.9774 526.0979L153.9774 526.0979L154.0404 525.1519L154.0404 525.1519L154.2294 524.4579L154.2294 524.4579L154.3564 524.1419L154.3564 524.1419L154.4824 523.9539L154.4824 523.9539L154.6084 523.7639L154.6084 523.7639L154.7974 523.7639L154.7974 523.7639L154.9864 523.7639L154.9864 523.7639L155.1134 523.9539L155.1134 523.9539L155.2384 524.1419L155.2384 524.1419L155.3654 524.4579L155.3654 524.4579L155.5544 525.1519L155.5544 525.1519L155.6174 526.0979L155.6174 526.0979L155.6804 526.7919L155.6804 526.7919L155.8074 527.3599L155.8074 527.3599L156.0594 527.7389L156.0594 527.7389L156.2484 527.8019L156.2484 527.8019L156.3744 527.8649L156.3744 527.8649L156.5634 527.8019L156.5634 527.8019L156.6904 527.7389L156.6904 527.7389L156.9424 527.3599L156.9424 527.3599L157.1314 526.7919L157.1314 526.7919L157.1944 526.0979M150.8234 533.0379L150.8234 525.9089M146.6594 533.0379L150.8234 533.0379M146.6594 485.3439L146.6594 533.0379M98.6494 485.3439L146.6594 485.3439" stroke="#0D74BB" stroke-width="1.9" stroke-linecap="round" fill="none" /><path id="996" transform="matrix(1 0 0 -1 0 792)" d="M104.5749 509.657L104.5749 504.651L100.0249 507.154zM141.5369 506.679L104.1809 506.679L104.1809 507.629L141.5369 507.629zM141.1429 509.657L145.6929 507.154L141.1429 504.651z" stroke="none" fill="#1F1B1D" fill-rule="nonzero" /><path id="997" transform="matrix(1 0 0 -1 0 792)" d="M212.0609 520.2561L207.0539 520.2561L209.5579 524.8071zM209.0829 520.6501L210.0329 520.6501L210.0329 490.1251L209.0829 490.1251zM212.0609 490.5201L209.5579 485.9691L207.0539 490.5201z" stroke="none" fill="#1F1B1D" fill-rule="nonzero" /><path id="998" transform="matrix(1 0 0 -1 0 792)" d="M96.36398 417.659L98.64899 417.659L98.64899 417.659L98.64899 430.136L98.64899 430.136L146.344 441.324M146.344 441.324L146.344 417.659L146.344 417.659L201.167 417.659M146.344 417.659L217.885 417.659M194.039 417.659L219.785 417.659L219.785 417.659L219.785 430.136L219.785 430.136L267.479 441.324M267.977 441.324L267.977 417.659L267.977 417.659L322.8 417.659M267.977 417.659L339.708 417.659M339.519 438.923L339.519 417.659M146.344 383.672L218.835 367.824L218.835 367.824L218.835 349.738M146.344 383.672L146.344 349.738L146.344 349.738L98.64899 349.738M267.977 384.172L267.977 349.715L267.977 349.715L219.053 349.715M267.977 383.807L339.519 367.483L339.519 367.483L339.519 349.715" stroke="#0D74BB" stroke-width="1.9" stroke-linecap="round" fill="none" /><path id="999" transform="matrix(1 0 0 -1 0 792)" d="M438.2163 537.903L424.3593 537.903M455.2953 500.067L455.2953 473.663M452.4993 500.067L452.4993 473.663" stroke="#1F1B1D" stroke-width="0.95" fill="none" /><path id="1000" transform="matrix(1 0 0 -1 0 792)" d="M536.812 473.851L536.81 473.753L536.803 473.656L536.79 473.561L536.773 473.466L536.752 473.374L536.726 473.283L536.696 473.194L536.661 473.107L536.622 473.023L536.581 472.94L536.535 472.86L536.484 472.782L536.431 472.707L536.374 472.635L536.313 472.565L536.251 472.498L536.184 472.435L536.114 472.375L536.042 472.318L535.967 472.264L535.89 472.214L535.809 472.168L535.726 472.125L535.641 472.087L535.554 472.053L535.466 472.022L535.375 471.997L535.283 471.975L535.189 471.958L535.093 471.946L534.996 471.938L534.897 471.936L534.799 471.938L534.701 471.946L534.605 471.958L534.512 471.975L534.419 471.997L534.328 472.022L534.24 472.053L534.153 472.087L534.068 472.125L533.985 472.168L533.905 472.214L533.827 472.264L533.752 472.318L533.68 472.375L533.611 472.435L533.543 472.498L533.481 472.565L533.42 472.635L533.364 472.707L533.31 472.782L533.259 472.86L533.214 472.94L533.172 473.023L533.133 473.107L533.099 473.194L533.068 473.283L533.043 473.374L533.021 473.466L533.005 473.561L532.991 473.656L532.984 473.753L532.982 473.851L532.984 473.949L532.991 474.046L533.005 474.142L533.021 474.236L533.043 474.328L533.068 474.419L533.099 474.508L533.133 474.595L533.172 474.68L533.214 474.762L533.259 474.842L533.31 474.92L533.364 474.995L533.42 475.067L533.481 475.137L533.543 475.204L533.611 475.267L533.68 475.328L533.752 475.385L533.827 475.438L533.905 475.488L533.985 475.534L534.068 475.577L534.153 475.615L534.24 475.65L534.328 475.68L534.419 475.706L534.512 475.727L534.605 475.745L534.701 475.757L534.799 475.764L534.897 475.766L534.996 475.764L535.093 475.757L535.189 475.745L535.283 475.727L535.375 475.706L535.466 475.68L535.554 475.65L535.641 475.615L535.726 475.577L535.809 475.534L535.89 475.488L535.967 475.438L536.042 475.385L536.114 475.328L536.184 475.267L536.251 475.204L536.313 475.137L536.374 475.067L536.431 474.995L536.484 474.92L536.535 474.842L536.581 474.762L536.622 474.68L536.661 474.595L536.696 474.508L536.726 474.419L536.752 474.328L536.773 474.236L536.79 474.142L536.803 474.046L536.81 473.949zM534.422 473.851L535.372 473.851L535.372 459.819L534.422 459.819z" stroke="none" fill="#1F1B1D" fill-rule="nonzero" /><path id="1001" transform="matrix(1 0 0 -1 0 792)" d="M400.8286 480.7495L431.1566 480.7495L431.1566 480.7495L431.1566 493.3715L431.1566 493.3715L400.8286 493.3715z" stroke="#1F1B1D" stroke-width="0.95" stroke-dasharray="4.75,0.95" fill="none" /><path id="1002" transform="matrix(1 0 0 -1 0 792)" d="M496.7101 507.6675L487.7101 507.6675L487.7101 508.6175L496.7101 508.6175zM496.3161 510.6455L500.8661 508.1425L496.3161 505.6395z" stroke="none" fill="#1F1B1D" fill-rule="nonzero" /><path id="1003" transform="matrix(1 0 0 -1 0 792)" d="M438.9535 470.1701L439.9035 470.1701L439.9035 461.1711L438.9535 461.1711zM441.9315 461.5651L439.4285 457.0151L436.9255 461.5651z" stroke="none" fill="#1F1B1D" fill-rule="nonzero" /><path id="1004" transform="matrix(1 0 0 -1 0 792)" d="M152.9978 453.4088L153.9478 453.4088L153.9478 446.5898L152.9978 446.5898zM155.9758 446.9848L153.4728 442.4338L150.9688 446.9848z" stroke="none" fill="#1F1B1D" fill-rule="nonzero" /><path id="1005" transform="matrix(1 0 0 -1 0 792)" d="M138.1306 395.1187L139.0806 395.1187L139.0806 388.3007L138.1306 388.3007zM141.1096 388.6947L138.6066 384.1437L136.1036 388.6947z" stroke="none" fill="#1F1B1D" fill-rule="nonzero" /><path id="1006" transform="matrix(1 0 0 -1 0 792)" d="M153.9473 417.7628L152.9973 417.7628L152.9973 424.5808L153.9473 424.5808zM150.9693 424.1858L153.4723 428.7368L155.9763 424.1858z" stroke="none" fill="#1F1B1D" fill-rule="nonzero" /><path id="1007" transform="matrix(1 0 0 -1 0 792)" d="M139.0815 355.6764L138.1315 355.6764L138.1315 362.4954L139.0815 362.4954zM136.1035 362.1014L138.6065 366.6524L141.1095 362.1014z" stroke="none" fill="#1F1B1D" fill-rule="nonzero" /><path id="1008" transform="matrix(1 0 0 -1 0 792)" d="M135.0735 367.2901L143.4015 367.2901M149.9395 429.3761L158.2675 429.3761M135.0735 383.4271L143.4015 383.4271M149.9395 441.7171L158.2675 441.7171" stroke="#1F1B1D" stroke-width="0.95" fill="none" /><path id="1009" transform="matrix(1 0 0 -1 0 792)" d="M151.522 543.8055L151.522 538.7995L146.971 541.3025zM263.43 540.8275L151.127 540.8275L151.127 541.7775L263.43 541.7775zM263.036 543.8055L267.587 541.3025L263.036 538.7995z" stroke="none" fill="#1F1B1D" fill-rule="nonzero" /><g clip-path="url(#3)"></g><g clip-path="url(#4)"></g><path id="1149" transform="matrix(1 0 0 -1 0 792)" d="M410.2863 411.331L431.0873 411.331L431.0873 411.331L431.0873 428.577L431.0873 428.577L421.5563 428.577M421.6523 434.253L431.1523 434.253L431.1523 434.253L431.1523 428.1M421.6523 439.906L431.1523 439.906L431.1523 439.906L431.1563 457.014M421.6523 429.883L421.6523 425.608M421.6523 436.39L421.6523 432.116M421.6523 442.638L421.6523 438.363M418.5643 442.708L418.5643 428.577L418.5643 428.577L410.3703 428.577" stroke="#1F1B1D" stroke-width="0.95" fill="none" /><path id="1150" transform="matrix(1 0 0 -1 0 792)" d="M421.8124 434.2311L428.0644 435.6241L428.0654 432.8061z" stroke="none" fill="#1F1B1D" fill-rule="nonzero" /><path id="1151" transform="matrix(1 0 0 -1 0 792)" d="M421.8124 434.2311L428.0644 435.6241L428.0644 435.6241L428.0654 432.8061L428.0654 432.8061L421.8124 434.2311z" stroke="#1F1B1D" stroke-width="0.57" fill="none" /><path id="1152" transform="matrix(1 0 0 -1 0 792)" d="M430.9988 380.5153L431.6058 380.0603L431.6298 364.5803L430.6838 364.5803L430.6588 380.0603zM430.6588 380.0603L430.6578 380.4143L430.9988 380.5153zM435.4248 381.7483L435.4248 380.8393L431.2658 379.6063L430.9988 380.5153L435.1578 381.7483zM426.8308 384.2153L427.0978 384.2153L435.4248 381.7483L435.1578 380.8393L426.8308 383.3063zM435.4248 386.6843L435.4248 385.7753L427.0978 383.3063L426.8308 384.2153L435.1578 386.6843zM426.8308 389.1513L427.0978 389.1513L435.4248 386.6843L435.1578 385.7753L426.8308 388.2413zM435.4248 391.6193L435.4248 390.7103L427.0978 388.2413L426.8308 389.1513L435.1578 391.6193zM426.8308 394.0873L427.0978 394.0873L435.4248 391.6193L435.1578 390.7103L426.8308 393.1773zM431.6038 394.8653L431.2638 394.4123L427.0978 393.1773L426.8308 394.0873L430.9968 395.3203zM431.6038 394.8653L431.6038 394.5113L431.2638 394.4123zM431.6038 394.8653L430.6568 394.8653L430.6568 411.3313L431.6038 411.3313zM429.2148 411.3313L429.2178 411.4303L429.2248 411.5263L429.2368 411.6223L429.2538 411.7163L429.2748 411.8093L429.3008 411.8993L429.3318 411.9883L429.3658 412.0753L429.4038 412.1593L429.4468 412.2423L429.4928 412.3233L429.5438 412.4003L429.5958 412.4753L429.6538 412.5473L429.7138 412.6173L429.7768 412.6843L429.8438 412.7473L429.9128 412.8083L429.9848 412.8643L430.0608 412.9183L430.1378 412.9693L430.2188 413.0143L430.3008 413.0573L430.3848 413.0963L430.4728 413.1303L430.5618 413.1603L430.6528 413.1853L430.7438 413.2073L430.8398 413.2243L430.9338 413.2373L431.0318 413.2443L431.1308 413.2473L431.2288 413.2443L431.3268 413.2373L431.4208 413.2243L431.5158 413.2073L431.6078 413.1853L431.6988 413.1603L431.7888 413.1303L431.8748 413.0963L431.9598 413.0573L432.0418 413.0143L432.1218 412.9693L432.1998 412.9183L432.2758 412.8643L432.3478 412.8083L432.4168 412.7473L432.4828 412.6843L432.5478 412.6173L432.6068 412.5473L432.6638 412.4753L432.7178 412.4003L432.7678 412.3233L432.8148 412.2423L432.8558 412.1593L432.8948 412.0753L432.9288 411.9883L432.9588 411.8993L432.9858 411.8093L433.0058 411.7163L433.0238 411.6223L433.0348 411.5273L433.0428 411.4303L433.0448 411.3313L433.0428 411.2333L433.0348 411.1363L433.0238 411.0413L433.0058 410.9463L432.9858 410.8543L432.9588 410.7643L432.9288 410.6753L432.8948 410.5883L432.8558 410.5033L432.8148 410.4203L432.7678 410.3403L432.7178 410.2623L432.6638 410.1873L432.6068 410.1153L432.5478 410.0463L432.4838 409.9783L432.4168 409.9163L432.3478 409.8553L432.2758 409.7983L432.1998 409.7453L432.1218 409.6953L432.0418 409.6493L431.9598 409.6063L431.8748 409.5683L431.7888 409.5333L431.6988 409.5023L431.6078 409.4773L431.5158 409.4563L431.4208 409.4393L431.3268 409.4263L431.2288 409.4193L431.1308 409.4173L431.0318 409.4193L430.9338 409.4263L430.8398 409.4393L430.7438 409.4563L430.6528 409.4773L430.5618 409.5023L430.4728 409.5333L430.3848 409.5683L430.3008 409.6063L430.2188 409.6493L430.1378 409.6953L430.0608 409.7453L429.9848 409.7983L429.9128 409.8553L429.8438 409.9163L429.7768 409.9783L429.7138 410.0463L429.6538 410.1153L429.5958 410.1873L429.5438 410.2623L429.4928 410.3403L429.4468 410.4203L429.4038 410.5033L429.3658 410.5873L429.3318 410.6753L429.3018 410.7643L429.2758 410.8543L429.2538 410.9463L429.2368 411.0413L429.2248 411.1363L429.2178 411.2333z" stroke="none" fill="#1F1B1D" fill-rule="nonzero" /><g clip-path="url(#5)"><path id="1153" transform="matrix(1 0 0 -1 0 792)" d="M512.2922 473.955L558.4602 473.955L558.4602 473.955L558.4602 479.965L558.4602 479.965L562.6192 481.198L562.6192 481.198L554.2922 483.666L554.2922 483.666L562.6192 486.135L562.6192 486.135L554.2922 488.601L554.2922 488.601L562.6192 491.07L562.6192 491.07L554.2922 493.537L554.2922 493.537L558.4592 494.77L558.4592 494.77L558.4592 500.125L558.4592 500.125L512.4261 500.125" stroke="#1F1B1D" stroke-width="0.95" fill="none" /></g><path id="1154" transform="matrix(1 0 0 -1 0 792)" d="M540.9348 459.9068L528.9108 459.9068L534.9218 450.1538z" stroke="none" fill="#FFFFFF" fill-rule="nonzero" /><path id="1155" transform="matrix(1 0 0 -1 0 792)" d="M540.9348 459.9068L528.9108 459.9068L528.9108 459.9068L534.9218 450.1538L534.9218 450.1538L540.9348 459.9068z" stroke="#1F1B1D" stroke-width="0.95" fill="none" /><path id="1156" transform="matrix(1 0 0 -1 0 792)" d="M487.9381 500.125L479.3791 495.973L479.3791 504.277z" stroke="none" fill="#060606" fill-rule="nonzero" /><path id="1157" transform="matrix(1 0 0 -1 0 792)" d="M487.9804 495.9075L487.9804 504.2195M487.6844 500.1245L512.4504 500.1245" stroke="#1F1B1D" stroke-width="0.95" fill="none" /><g clip-path="url(#6)"><path id="1158" transform="matrix(1 0 0 -1 0 792)" d="M431.1562 457.015L431.1562 473.955L431.1562 473.955L446.7352 473.955C 448.5412 473.955 450.0562 475.42 450.0562 477.225C 450.0562 479.032 448.5912 480.491 446.7862 480.491C 448.5912 480.491 450.0562 481.951 450.0562 483.757C 450.0562 485.563 448.5912 487.022 446.7862 487.022C 448.5912 487.022 450.0562 488.482 450.0562 490.288C 450.0562 492.094 448.5912 493.562 446.7862 493.562C 448.5912 493.562 450.0562 495.029 450.0562 496.836C 450.0562 498.641 448.5912 500.125 446.7862 500.125L446.7862 500.125L431.1562 500.125L431.1562 500.125L431.1562 537.891M512.2922 473.955L461.2272 473.955C 459.4212 473.955 457.9562 475.42 457.9562 477.225C 457.9562 479.032 459.4212 480.491 461.2272 480.491C 459.4212 480.491 457.9562 481.951 457.9562 483.757C 457.9562 485.563 459.4212 487.022 461.2272 487.022C 459.4212 487.022 457.9562 488.482 457.9562 490.288C 457.9562 492.094 459.4212 493.562 461.2272 493.562C 459.4212 493.562 457.9562 495.029 457.9562 496.836C 457.9562 498.641 459.4212 500.125 461.2272 500.125L461.2272 500.125L479.3792 500.125" stroke="#1F1B1D" stroke-width="0.95" stroke-linecap="round" fill="none" /></g><path id="1159" transform="matrix(1 0 0 -1 0 792)" d="M517.4872 488.524L507.0962 488.524M427.5842 361.983L434.8582 361.983M430.1822 359.384L432.2612 359.384M424.9872 364.579L437.4562 364.579" stroke="#1F1B1D" stroke-width="0.95" fill="none" /><path id="1160" transform="matrix(1 0 0 -1 0 792)" d="M514.208 499.887L514.205 499.789L514.197 499.692L514.185 499.596L514.169 499.502L514.147 499.41L514.121 499.319L514.091 499.23L514.057 499.143L514.019 499.059L513.976 498.976L513.93 498.896L513.88 498.818L513.826 498.743L513.77 498.67L513.709 498.601L513.645 498.534L513.579 498.471L513.509 498.41L513.436 498.353L513.362 498.3L513.284 498.25L513.204 498.204L513.121 498.161L513.037 498.123L512.95 498.088L512.862 498.058L512.77 498.032L512.677 498.011L512.583 497.993L512.487 497.981L512.391 497.974L512.293 497.972L512.195 497.974L512.097 497.981L512.001 497.993L511.907 498.011L511.815 498.032L511.724 498.058L511.635 498.088L511.548 498.123L511.463 498.161L511.381 498.204L511.3 498.25L511.223 498.3L511.148 498.353L511.075 498.41L511.006 498.471L510.939 498.534L510.875 498.601L510.814 498.67L510.758 498.743L510.704 498.818L510.655 498.896L510.609 498.976L510.567 499.059L510.529 499.143L510.494 499.23L510.463 499.319L510.437 499.41L510.416 499.502L510.399 499.596L510.387 499.692L510.379 499.789L510.377 499.887L510.379 499.985L510.387 500.082L510.399 500.177L510.416 500.272L510.437 500.364L510.463 500.455L510.494 500.544L510.529 500.63L510.567 500.715L510.609 500.798L510.655 500.878L510.704 500.956L510.758 501.031L510.814 501.103L510.875 501.173L510.939 501.24L511.006 501.303L511.075 501.363L511.148 501.42L511.223 501.474L511.3 501.524L511.381 501.57L511.463 501.613L511.548 501.651L511.635 501.685L511.724 501.716L511.815 501.741L511.907 501.763L512.001 501.78L512.097 501.792L512.195 501.8L512.293 501.802L512.391 501.8L512.487 501.792L512.583 501.78L512.677 501.763L512.77 501.741L512.862 501.716L512.95 501.685L513.037 501.651L513.121 501.613L513.204 501.57L513.284 501.524L513.362 501.474L513.436 501.42L513.509 501.363L513.579 501.303L513.645 501.24L513.709 501.173L513.77 501.103L513.826 501.031L513.88 500.956L513.93 500.878L513.976 500.798L514.019 500.715L514.057 500.63L514.091 500.544L514.121 500.455L514.147 500.364L514.169 500.272L514.185 500.177L514.197 500.082L514.205 499.985zM511.817 499.887L512.768 499.887L512.768 488.524L511.817 488.524z" stroke="none" fill="#1F1B1D" fill-rule="nonzero" /><path id="1161" transform="matrix(1 0 0 -1 0 792)" d="M511.8165 485.1032L512.7675 485.1032L512.7675 473.7402L511.8165 473.7402zM514.2075 473.7402L514.2045 473.6422L514.1975 473.5452L514.1845 473.4502L514.1685 473.3562L514.1465 473.2632L514.1215 473.1722L514.0905 473.0842L514.0565 472.9972L514.0185 472.9122L513.9755 472.8292L513.9295 472.7492L513.8795 472.6712L513.8255 472.5962L513.7695 472.5242L513.7085 472.4542L513.6455 472.3872L513.5785 472.3242L513.5085 472.2642L513.4365 472.2072L513.3615 472.1532L513.2845 472.1042L513.2035 472.0572L513.1205 472.0142L513.0365 471.9762L512.9495 471.9422L512.8615 471.9112L512.7695 471.8862L512.6765 471.8642L512.5825 471.8472L512.4875 471.8352L512.3905 471.8282L512.2925 471.8252L512.1945 471.8282L512.0965 471.8352L512.0005 471.8472L511.9065 471.8642L511.8145 471.8862L511.7235 471.9112L511.6345 471.9422L511.5475 471.9762L511.4625 472.0142L511.3805 472.0572L511.2995 472.1042L511.2225 472.1532L511.1475 472.2072L511.0745 472.2642L511.0055 472.3242L510.9385 472.3872L510.8745 472.4542L510.8145 472.5242L510.7585 472.5962L510.7035 472.6712L510.6545 472.7492L510.6085 472.8292L510.5665 472.9122L510.5285 472.9972L510.4935 473.0842L510.4625 473.1722L510.4365 473.2632L510.4155 473.3562L510.3985 473.4502L510.3865 473.5452L510.3785 473.6422L510.3775 473.7402L510.3785 473.8382L510.3865 473.9352L510.3985 474.0312L510.4155 474.1252L510.4365 474.2172L510.4625 474.3082L510.4935 474.3972L510.5285 474.4842L510.5665 474.5692L510.6085 474.6512L510.6545 474.7322L510.7035 474.8092L510.7585 474.8842L510.8145 474.9572L510.8745 475.0262L510.9385 475.0932L511.0055 475.1572L511.0745 475.2172L511.1475 475.2742L511.2225 475.3272L511.2995 475.3782L511.3805 475.4232L511.4625 475.4662L511.5475 475.5052L511.6345 475.5392L511.7235 475.5692L511.8145 475.5952L511.9065 475.6162L512.0005 475.6342L512.0965 475.6462L512.1945 475.6532L512.2925 475.6552L512.3905 475.6532L512.4875 475.6462L512.5825 475.6342L512.6765 475.6162L512.7695 475.5952L512.8615 475.5692L512.9495 475.5392L513.0365 475.5052L513.1205 475.4662L513.2035 475.4232L513.2845 475.3782L513.3615 475.3272L513.4365 475.2742L513.5085 475.2172L513.5785 475.1572L513.6455 475.0932L513.7085 475.0262L513.7695 474.9572L513.8255 474.8842L513.8795 474.8092L513.9295 474.7322L513.9755 474.6512L514.0185 474.5692L514.0565 474.4842L514.0905 474.3972L514.1215 474.3082L514.1465 474.2172L514.1685 474.1252L514.1845 474.0312L514.1975 473.9352L514.2045 473.8382z" stroke="none" fill="#1F1B1D" fill-rule="nonzero" /><g clip-path="url(#7)"><path id="1162" transform="matrix(1 0 0 -1 0 792)" d="M517.5116 483.6498C 515.9776 484.5468 514.1896 485.0608 512.2816 485.0608C 510.3906 485.0608 508.6196 484.5558 507.0906 483.6728" stroke="#1F1B1D" stroke-width="0.95" fill="none" /><path id="1163" transform="matrix(1 0 0 -1 0 792)" d="M446.5276 495.3847C 447.2906 495.3847 447.9136 496.0077 447.9136 496.7707C 447.9136 497.5347 447.2906 498.1577 446.5276 498.1577C 445.7626 498.1577 445.1406 497.5347 445.1406 496.7707C 445.1406 496.0077 445.7626 495.3847 446.5276 495.3847" stroke="none" fill="#1F1B1D" fill-rule="evenodd" /><path id="1164" transform="matrix(1 0 0 -1 0 792)" d="M446.5276 495.3847C 447.2906 495.3847 447.9136 496.0077 447.9136 496.7707C 447.9136 497.5347 447.2906 498.1577 446.5276 498.1577C 445.7626 498.1577 445.1406 497.5347 445.1406 496.7707C 445.1406 496.0077 445.7626 495.3847 446.5276 495.3847z" stroke="#1F1B1D" stroke-width="0.95" fill="none" /><path id="1165" transform="matrix(1 0 0 -1 0 792)" d="M461.5309 475.7529C 462.2959 475.7529 462.9179 476.3759 462.9179 477.1399C 462.9179 477.9029 462.2959 478.5259 461.5309 478.5259C 460.7679 478.5259 460.1459 477.9029 460.1459 477.1399C 460.1459 476.3759 460.7679 475.7529 461.5309 475.7529" stroke="none" fill="#1F1B1D" fill-rule="evenodd" /><path id="1166" transform="matrix(1 0 0 -1 0 792)" d="M461.5309 475.7529C 462.2959 475.7529 462.9179 476.3759 462.9179 477.1399C 462.9179 477.9029 462.2959 478.5259 461.5309 478.5259C 460.7679 478.5259 460.1459 477.9029 460.1459 477.1399C 460.1459 476.3759 460.7679 475.7529 461.5309 475.7529z" stroke="#1F1B1D" stroke-width="0.95" fill="none" /><path id="1167" transform="matrix(1 0 0 -1 0 792)" d="M415.5136 498.1218L416.4636 498.1218L416.4636 493.3718L415.5136 493.3718zM415.9886 500.5998L416.4636 500.1248L416.4636 499.0718L415.5136 499.0718L415.5136 500.1248zM415.5136 500.1248L415.5136 500.5998L415.9886 500.5998zM419.6876 499.6498L415.9896 499.6498L415.9896 500.5998L419.6876 500.5998zM425.3876 499.6498L420.6376 499.6498L420.6376 500.5998L425.3876 500.5998zM431.0886 499.6498L426.3376 499.6498L426.3376 500.5998L431.0886 500.5998zM431.1566 502.0398L431.2546 502.0378L431.3526 502.0298L431.4486 502.0178L431.5416 502.0008L431.6346 501.9798L431.7246 501.9538L431.8126 501.9228L431.9006 501.8888L431.9846 501.8508L432.0676 501.8078L432.1486 501.7618L432.2266 501.7118L432.3016 501.6588L432.3736 501.6018L432.4426 501.5408L432.5106 501.4778L432.5726 501.4108L432.6336 501.3418L432.6896 501.2698L432.7436 501.1938L432.7936 501.1168L432.8396 501.0368L432.8826 500.9538L432.9206 500.8688L432.9546 500.7818L432.9866 500.6928L433.0116 500.6018L433.0326 500.5098L433.0496 500.4158L433.0626 500.3198L433.0696 500.2228L433.0716 500.1248L433.0696 500.0258L433.0626 499.9288L433.0496 499.8328L433.0326 499.7388L433.0116 499.6468L432.9866 499.5558L432.9546 499.4668L432.9206 499.3798L432.8826 499.2958L432.8396 499.2128L432.7936 499.1328L432.7436 499.0548L432.6896 498.9798L432.6336 498.9068L432.5726 498.8378L432.5106 498.7708L432.4426 498.7078L432.3736 498.6478L432.3016 498.5908L432.2266 498.5368L432.1486 498.4868L432.0676 498.4408L431.9846 498.3988L431.9006 498.3598L431.8126 498.3258L431.7246 498.2958L431.6346 498.2698L431.5416 498.2478L431.4486 498.2318L431.3526 498.2198L431.2546 498.2118L431.1566 498.2088L431.0586 498.2118L430.9616 498.2198L430.8656 498.2318L430.7726 498.2478L430.6796 498.2698L430.5886 498.2958L430.5006 498.3258L430.4136 498.3598L430.3296 498.3988L430.2466 498.4408L430.1656 498.4868L430.0876 498.5368L430.0126 498.5908L429.9406 498.6478L429.8706 498.7078L429.8036 498.7708L429.7406 498.8378L429.6806 498.9068L429.6246 498.9798L429.5706 499.0548L429.5196 499.1328L429.4736 499.2128L429.4306 499.2958L429.3926 499.3798L429.3586 499.4668L429.3276 499.5558L429.3026 499.6468L429.2806 499.7388L429.2646 499.8328L429.2516 499.9288L429.2446 500.0258L429.2416 500.1248L429.2446 500.2228L429.2516 500.3198L429.2646 500.4158L429.2806 500.5098L429.3026 500.6018L429.3276 500.6928L429.3586 500.7818L429.3926 500.8688L429.4306 500.9538L429.4736 501.0368L429.5196 501.1168L429.5706 501.1938L429.6246 501.2698L429.6806 501.3418L429.7406 501.4108L429.8036 501.4778L429.8706 501.5408L429.9406 501.6018L430.0126 501.6588L430.0876 501.7118L430.1656 501.7618L430.2466 501.8078L430.3296 501.8508L430.4136 501.8888L430.5006 501.9228L430.5886 501.9538L430.6796 501.9798L430.7726 502.0008L430.8656 502.0178L430.9616 502.0298L431.0586 502.0378z" stroke="none" fill="#1F1B1D" fill-rule="nonzero" /><path id="1168" transform="matrix(1 0 0 -1 0 792)" d="M431.157 455.098L431.059 455.101L430.962 455.109L430.866 455.121L430.773 455.137L430.68 455.159L430.589 455.185L430.501 455.215L430.414 455.249L430.33 455.288L430.247 455.33L430.166 455.377L430.088 455.427L430.013 455.48L429.941 455.537L429.871 455.597L429.804 455.661L429.741 455.727L429.681 455.797L429.625 455.87L429.57 455.945L429.52 456.022L429.474 456.102L429.431 456.185L429.393 456.27L429.359 456.356L429.328 456.445L429.303 456.537L429.281 456.629L429.265 456.723L429.252 456.819L429.245 456.916L429.242 457.014L429.245 457.112L429.252 457.209L429.265 457.305L429.281 457.399L429.303 457.492L429.328 457.583L429.359 457.672L429.393 457.759L429.431 457.843L429.474 457.926L429.52 458.006L429.57 458.084L429.625 458.159L429.681 458.231L429.741 458.301L429.804 458.368L429.871 458.431L429.941 458.491L430.013 458.548L430.088 458.601L430.166 458.651L430.247 458.697L430.33 458.74L430.414 458.778L430.501 458.813L430.589 458.843L430.68 458.869L430.773 458.89L430.866 458.907L430.962 458.919L431.059 458.927L431.157 458.929L431.255 458.927L431.353 458.919L431.449 458.907L431.542 458.89L431.635 458.869L431.725 458.843L431.813 458.813L431.901 458.778L431.985 458.74L432.068 458.697L432.149 458.651L432.227 458.601L432.302 458.548L432.374 458.491L432.443 458.431L432.511 458.368L432.573 458.301L432.634 458.231L432.69 458.159L432.744 458.084L432.794 458.006L432.84 457.926L432.883 457.843L432.921 457.759L432.955 457.672L432.987 457.583L433.012 457.492L433.033 457.399L433.05 457.305L433.063 457.209L433.07 457.112L433.072 457.014L433.07 456.916L433.063 456.819L433.05 456.723L433.033 456.629L433.012 456.537L432.987 456.445L432.955 456.356L432.921 456.27L432.883 456.185L432.84 456.102L432.794 456.022L432.744 455.945L432.69 455.87L432.634 455.797L432.573 455.727L432.511 455.661L432.443 455.597L432.374 455.537L432.302 455.48L432.227 455.427L432.149 455.377L432.068 455.33L431.985 455.288L431.901 455.249L431.813 455.215L431.725 455.185L431.635 455.159L431.542 455.137L431.449 455.121L431.353 455.109L431.255 455.101zM426.407 457.489L431.157 457.489L431.157 456.539L426.407 456.539zM420.707 457.489L425.457 457.489L425.457 456.539L420.707 456.539zM415.514 457.014L415.989 457.489L419.757 457.489L419.757 456.539L415.989 456.539zM415.989 456.539L415.514 456.539L415.514 457.014zM415.514 457.997L416.464 457.997L416.464 457.014L415.514 457.014zM415.514 463.698L416.464 463.698L416.464 458.948L415.514 458.948zM415.514 469.398L416.464 469.398L416.464 464.648L415.514 464.648zM415.514 475.098L416.464 475.098L416.464 470.347L415.514 470.347zM416.464 476.048L415.514 476.048L415.514 480.748L416.464 480.748z" stroke="none" fill="#1F1B1D" fill-rule="nonzero" /></g><g clip-path="url(#8)"><path id="1178" transform="matrix(1 0 0 -1 0 792)" d="M178.2761 505.8876L188.5451 505.8876" stroke="#1F1B1D" stroke-width="0.38" fill="none" /><path id="1179" transform="matrix(1 0 0 -1 0 792)" d="M254.7958 441.5648L283.0448 441.5648M255.9868 364.8028L354.3238 364.8028M204.5778 429.6958L250.1058 429.6958" stroke="#1F1B1D" stroke-width="0.95" stroke-dasharray="4.75,0.95" fill="none" /></g><path id="1233" transform="matrix(1 0 0 -1 0 792)" d="M353.3434 231.9535L353.3434 275.0915" stroke="#221E1F" stroke-width="0.973" fill="none" /><path id="1234" transform="matrix(1 0 0 -1 0 792)" d="M357.2381 273.9554L353.3561 280.6804L349.4721 273.9554z" stroke="none" fill="#221E1F" fill-rule="nonzero" /><path id="1235" transform="matrix(1 0 0 -1 0 792)" d="M357.9419 248.1597L385.5229 248.1597" stroke="#221E1F" stroke-width="0.973" fill="none" /><path id="1236" transform="matrix(1 0 0 -1 0 792)" d="M384.9549 246.2123L388.3179 248.1533L384.9549 250.0953z" stroke="none" fill="#221E1F" fill-rule="nonzero" /><path id="1237" transform="matrix(1 0 0 -1 0 792)" d="M358.5104 250.1071L355.1474 248.1661L358.5104 246.2241z" stroke="none" fill="#221E1F" fill-rule="nonzero" /><path id="1246" transform="matrix(1 0 0 -1 0 792)" d="M461.7724 111.1005L512.3944 111.1005M428.5134 258.2515L449.5644 258.2515" stroke="#221E1F" stroke-width="0.973" stroke-dasharray="4.868,2.92" fill="none" /><path id="1250" transform="matrix(1 0 0 -1 0 792)" d="M456.2614 207.9025L483.5174 207.9025" stroke="#221E1F" stroke-width="0.973" stroke-dasharray="4.868,2.92" fill="none" /><path id="1251" transform="matrix(1 0 0 -1 0 792)" d="M426.3038 279.9068L426.3038 91.5338" stroke="#221E1F" stroke-width="0.973" stroke-dasharray="4.868,2.921" fill="none" /><path id="1252" transform="matrix(1 0 0 -1 0 792)" d="M392.0065 279.4719L464.0995 279.4719" stroke="#221E1F" stroke-width="0.973" fill="none" /><path id="1253" transform="matrix(1 0 0 -1 0 792)" d="M463.531 277.5245L466.894 279.4655L463.531 281.4075z" stroke="none" fill="#221E1F" fill-rule="nonzero" /><path id="1254" transform="matrix(1 0 0 -1 0 792)" d="M392.575 281.4193L389.212 279.4783L392.575 277.5373z" stroke="none" fill="#221E1F" fill-rule="nonzero" /><g clip-path="url(#9)"></g><path id="1257" transform="matrix(1 0 0 -1 0 792)" d="M353.3434 165.0289L353.3434 208.1679" stroke="#221E1F" stroke-width="0.973" fill="none" /><path id="1258" transform="matrix(1 0 0 -1 0 792)" d="M357.2381 207.0313L353.3561 213.7563L349.4721 207.0313z" stroke="none" fill="#221E1F" fill-rule="nonzero" /><path id="1259" transform="matrix(1 0 0 -1 0 792)" d="M353.4251 93.9677L353.4251 148.9077" stroke="#221E1F" stroke-width="0.973" fill="none" /><path id="1260" transform="matrix(1 0 0 -1 0 792)" d="M357.3198 147.7708L353.4378 154.4958L349.5538 147.7708z" stroke="none" fill="#221E1F" fill-rule="nonzero" /><path id="1261" transform="matrix(1 0 0 -1 0 792)" d="M343.5038 236.6082L526.0668 236.6082" stroke="#221E1F" stroke-width="0.973" fill="none" /><path id="1262" transform="matrix(1 0 0 -1 0 792)" d="M524.9298 232.7135L531.6558 236.5955L524.9298 240.4785z" stroke="none" fill="#221E1F" fill-rule="nonzero" /><path id="1263" transform="matrix(1 0 0 -1 0 792)" d="M342.2062 172.3609L524.7692 172.3609" stroke="#221E1F" stroke-width="0.973" fill="none" /><path id="1264" transform="matrix(1 0 0 -1 0 792)" d="M523.6323 168.4661L530.3583 172.3491L523.6323 176.2311z" stroke="none" fill="#221E1F" fill-rule="nonzero" /><path id="1265" transform="matrix(1 0 0 -1 0 792)" d="M343.6615 100.006L521.8015 100.006" stroke="#221E1F" stroke-width="0.973" fill="none" /><path id="1266" transform="matrix(1 0 0 -1 0 792)" d="M520.6642 96.1113L527.3892 99.9933L520.6642 103.8763z" stroke="none" fill="#221E1F" fill-rule="nonzero" /><g clip-path="url(#10)"><path id="1267" transform="matrix(1 0 0 -1 0 792)" d="M511.0967 258.2877C 511.0967 254.1347 512.4137 250.7587 514.0867 250.6087M514.7127 236.6257L514.7127 250.1007M509.7217 265.0107L512.3217 252.1327M430.2147 258.3477C 430.2147 254.1947 431.5277 250.8177 433.2017 250.6687M505.1507 267.4007C 507.7217 267.4007 509.7817 265.6677 509.8127 263.5467M480.0827 267.4007L505.8677 267.3407M424.5677 267.4007C 427.1077 267.4007 429.1997 265.6677 429.2277 263.5467M433.8317 236.6857L433.8317 250.1607M428.8407 265.0707L431.4717 252.1927M477.6647 267.5497C 477.6647 267.0427 477.9297 266.6547 478.2607 266.6547C 478.5877 266.6547 478.8867 267.0427 478.8867 267.5497L478.8867 267.5497L478.8867 267.5797L478.8867 267.5797L478.8867 267.5497C 478.8867 267.7897 479.1567 267.9687 479.4857 267.9687C 479.8147 267.9687 480.0827 267.7897 480.0827 267.5497M472.8527 267.5497C 472.8527 266.0567 473.1227 264.8607 473.4497 264.8607C 473.7787 264.8607 474.0477 266.0567 474.0477 267.5497C 474.0477 268.7747 474.3157 269.7607 474.6447 269.7607C 475.0047 269.7607 475.2707 268.7747 475.2707 267.5497C 475.2707 266.5647 475.5407 265.7577 475.8717 265.7577C 476.1987 265.7577 476.4677 266.5647 476.4677 267.5497C 476.4677 268.2677 476.7367 268.8657 477.0657 268.8657C 477.3947 268.8657 477.6647 268.2677 477.6647 267.5497M472.8527 272.8097L472.8527 267.4007M469.6847 272.8097L472.8527 272.8097M469.6847 236.6857L469.6847 272.8097M433.8317 236.6857L479.8147 236.6857M353.4247 267.4007L353.4247 236.6857M399.4997 267.4007L425.2847 267.3407M397.0817 267.5497C 397.0817 267.0427 397.3477 266.6547 397.6767 266.6547C 398.0057 266.6547 398.2757 267.0427 398.2757 267.5497L398.2757 267.5497L398.2757 267.5797L398.2757 267.5797L398.2757 267.5497C 398.2757 267.7897 398.5437 267.9687 398.9037 267.9687C 399.2307 267.9687 399.4997 267.7897 399.4997 267.5497M392.2697 267.5497C 392.2697 266.0567 392.5377 264.8607 392.8667 264.8607C 393.1957 264.8607 393.4657 266.0567 393.4657 267.5497C 393.4657 268.7747 393.7337 269.7607 394.0627 269.7607C 394.3897 269.7607 394.6887 268.7747 394.6887 267.5497C 394.6887 266.5647 394.9577 265.7577 395.2867 265.7577C 395.6157 265.7577 395.8837 266.5647 395.8837 267.5497C 395.8837 268.2677 396.1547 268.8657 396.4817 268.8657C 396.8117 268.8657 397.0817 268.2677 397.0817 267.5497M392.2697 272.8097L392.2697 267.4007M389.1017 272.8097L392.2697 272.8097M389.1017 236.6857L389.1017 272.8097M353.4247 236.6857L389.7887 236.6857M388.6527 147.1677L425.7027 100.1987M388.6527 147.1677L388.6527 100.1987L388.6527 100.1987L352.5017 100.1987M507.3027 100.1987L517.8507 100.1987M469.9547 147.1677L507.0047 100.1987M425.9707 100.1987L443.6017 100.1987M469.9547 147.1677L469.9547 100.2587L469.9547 100.2587L443.3027 100.2587M434.1297 172.4757L469.6537 207.7027M469.6537 207.7027L469.6537 172.6247M389.2507 207.7027L389.1017 172.4757M353.4247 172.4757L389.2507 207.4937M469.9547 172.4757L511.5157 172.4757M389.1017 172.4757L434.9667 172.4757" stroke="#0A74BC" stroke-width="1.46" stroke-linecap="round" fill="none" /></g><path id="1281" transform="matrix(1 0 0 -1 0 792)" d="M423.0007 240.6962L423.0007 263.4102M410.5077 251.4042L419.5937 251.4042" stroke="#221E1F" stroke-width="0.973" fill="none" /><path id="1282" transform="matrix(1 0 0 -1 0 792)" d="M424.9487 262.8416L423.0067 266.2046L421.0647 262.8416z" stroke="none" fill="#221E1F" fill-rule="nonzero" /><path id="1283" transform="matrix(1 0 0 -1 0 792)" d="M421.053 241.2648L422.995 237.9018L424.936 241.2648z" stroke="none" fill="#221E1F" fill-rule="nonzero" /><path id="1292" transform="matrix(1 0 0 -1 0 792)" d="M168.5823 241.022L168.5823 263.191" stroke="#221E1F" stroke-width="1.143" fill="none" /><path id="1293" transform="matrix(1 0 0 -1 0 792)" d="M170.8689 262.5232L168.5899 266.4712L166.3099 262.5232z" stroke="none" fill="#221E1F" fill-rule="nonzero" /><path id="1294" transform="matrix(1 0 0 -1 0 792)" d="M166.2957 241.6893L168.5757 237.7413L170.8557 241.6893z" stroke="none" fill="#221E1F" fill-rule="nonzero" /><path id="1295" transform="matrix(1 0 0 -1 0 792)" d="M104.4148 245.2532L131.2168 245.2532" stroke="#221E1F" stroke-width="1.143" fill="none" /><path id="1296" transform="matrix(1 0 0 -1 0 792)" d="M130.5499 242.9669L134.4979 245.2459L130.5499 247.5249z" stroke="none" fill="#221E1F" fill-rule="nonzero" /><path id="1297" transform="matrix(1 0 0 -1 0 792)" d="M105.0822 247.5394L101.1342 245.2604L105.0822 242.9814z" stroke="none" fill="#221E1F" fill-rule="nonzero" /><path id="1298" transform="matrix(1 0 0 -1 0 792)" d="M139.2334 278.335L221.6424 278.335" stroke="#221E1F" stroke-width="1.143" fill="none" /><path id="1299" transform="matrix(1 0 0 -1 0 792)" d="M220.9758 276.0487L224.9238 278.3277L220.9758 280.6067z" stroke="none" fill="#221E1F" fill-rule="nonzero" /><path id="1300" transform="matrix(1 0 0 -1 0 792)" d="M139.9007 280.6212L135.9527 278.3422L139.9007 276.0632z" stroke="none" fill="#221E1F" fill-rule="nonzero" /><path id="1301" transform="matrix(1 0 0 -1 0 792)" d="M230.3491 183.24L277.7151 183.24" stroke="#221E1F" stroke-width="1.143" fill="none" /><path id="1302" transform="matrix(1 0 0 -1 0 792)" d="M277.048 180.9534L280.996 183.2324L277.048 185.5124z" stroke="none" fill="#221E1F" fill-rule="nonzero" /><path id="1303" transform="matrix(1 0 0 -1 0 792)" d="M231.0169 185.5267L227.0679 183.2477L231.0169 180.9677z" stroke="none" fill="#221E1F" fill-rule="nonzero" /><path id="1407" transform="matrix(1 0 0 -1 0 792)" d="M216.0361 111.304L265.2301 111.304M214.1491 213.758L240.6351 213.758M173.9401 258.427L194.3971 258.427" stroke="#221E1F" stroke-width="1.143" stroke-dasharray="5,3" fill="none" /><path id="1408" transform="matrix(1 0 0 -1 0 792)" d="M190.6232 267.0545L190.6232 124.9495M174.0112 267.4265L174.0112 125.3215" stroke="#221E1F" stroke-width="1.143" stroke-dasharray="5,3" fill="none" /><path id="1409" transform="matrix(1 0 0 -1 0 792)" d="M100.8923 233.8295L100.8923 264.2375" stroke="#221E1F" stroke-width="1.143" fill="none" /><path id="1410" transform="matrix(1 0 0 -1 0 792)" d="M103.7508 263.4035L100.9018 268.3385L98.0518 263.4035z" stroke="none" fill="#221E1F" fill-rule="nonzero" /><path id="1411" transform="matrix(1 0 0 -1 0 792)" d="M100.8923 167.6991L100.8923 207.3901" stroke="#221E1F" stroke-width="1.143" fill="none" /><path id="1412" transform="matrix(1 0 0 -1 0 792)" d="M103.7508 206.556L100.9018 211.492L98.0518 206.556z" stroke="none" fill="#221E1F" fill-rule="nonzero" /><path id="1413" transform="matrix(1 0 0 -1 0 792)" d="M100.6551 96.1696L100.6551 147.1686" stroke="#221E1F" stroke-width="1.143" fill="none" /><path id="1414" transform="matrix(1 0 0 -1 0 792)" d="M103.5132 146.3339L100.6642 151.2689L97.8142 146.3339z" stroke="none" fill="#221E1F" fill-rule="nonzero" /><path id="1415" transform="matrix(1 0 0 -1 0 792)" d="M90.3831 237.1111L284.1841 237.1111" stroke="#221E1F" stroke-width="1.143" fill="none" /><path id="1416" transform="matrix(1 0 0 -1 0 792)" d="M283.351 234.2525L288.286 237.1025L283.351 239.9515z" stroke="none" fill="#221E1F" fill-rule="nonzero" /><path id="1417" transform="matrix(1 0 0 -1 0 792)" d="M90.3831 172.9819L281.1521 172.9819" stroke="#221E1F" stroke-width="1.143" fill="none" /><path id="1418" transform="matrix(1 0 0 -1 0 792)" d="M280.3177 170.1229L285.2537 172.9729L280.3177 175.8229z" stroke="none" fill="#221E1F" fill-rule="nonzero" /><path id="1419" transform="matrix(1 0 0 -1 0 792)" d="M90.3831 100.5365L281.1521 100.5365" stroke="#221E1F" stroke-width="1.143" fill="none" /><path id="1420" transform="matrix(1 0 0 -1 0 792)" d="M280.3177 97.6785L285.2537 100.5275L280.3177 103.3775z" stroke="none" fill="#221E1F" fill-rule="nonzero" /><g clip-path="url(#11)"><path id="1421" transform="matrix(1 0 0 -1 0 792)" d="M280.9724 258.4879L280.9114 257.9379L280.9114 257.9379L280.9114 257.8529L280.9114 257.8529L280.8544 257.4179L280.8544 257.4179L280.7934 256.8699C 280.7634 256.8399 280.7634 256.8399 280.7634 256.8129L280.7634 256.8129L280.6744 256.1179L280.6744 256.1179L280.6744 256.0599L280.6744 256.0599L280.6144 255.7999L280.6144 255.7999L280.6144 255.7429L280.6144 255.7429L280.5554 255.4249L280.5554 255.4249L280.4964 254.9629C 280.4644 254.9339 280.4644 254.9039 280.4644 254.8759L280.4644 254.8759L280.4364 254.7029C 280.4364 254.6739 280.4364 254.6159 280.4074 254.5869L280.4074 254.5869L280.3474 254.2689C 280.3474 254.2119 280.3174 254.1539 280.3174 254.0959C 280.3174 254.0679 280.2874 254.0089 280.2874 253.9509L280.2874 253.9509L280.1984 253.5749C 280.1984 253.5189 280.1694 253.4609 280.1694 253.4029L280.1694 253.4029L280.1094 253.1709L280.1094 253.1709L280.0804 253.1139L280.0804 253.1139L279.9324 252.5069C 279.9324 252.5069 279.9024 252.4779 279.9024 252.4499L279.9024 252.4499L279.8724 252.3339C 279.8724 252.3039 279.8424 252.2759 279.8424 252.2469L279.8424 252.2469L279.8124 252.1889C 279.8124 252.1309 279.7844 252.1019 279.7844 252.0749L279.7844 252.0749L279.7234 251.9299L279.7234 251.9299L279.6644 251.7559L279.6644 251.7559L279.6334 251.7269C 279.6054 251.6399 279.5774 251.5819 279.5454 251.4959L279.5454 251.4959L279.5154 251.4389C 279.5154 251.4099 279.4874 251.4099 279.4874 251.3799C 279.4874 251.3519 279.4564 251.3219 279.4564 251.2929L279.4564 251.2929L279.4264 251.2639C 279.3974 251.2369 279.3974 251.2069 279.3974 251.1789L279.3974 251.1789L279.3094 251.0629C 279.2784 251.0049 279.2484 250.9749 279.2194 250.9169L279.2194 250.9169L279.1604 250.8599C 279.1304 250.8319 279.1014 250.8319 279.1014 250.8019C 279.0704 250.7739 279.0404 250.7739 279.0404 250.7449L279.0404 250.7449L279.0124 250.7449C 278.9814 250.7159 278.9514 250.7159 278.9514 250.6869L278.9514 250.6869L278.8914 250.6869C 278.8614 250.6579 278.8614 250.6579 278.8314 250.6579C 278.8034 250.6289 278.7734 250.6289 278.7734 250.6289L278.7734 250.6289L278.7144 250.6289M276.4854 258.4879L276.5454 257.9379L276.5454 257.9379L276.5454 257.8529L276.5454 257.8529L276.6054 257.4179L276.6054 257.4179L276.6664 256.8699C 276.6664 256.8399 276.6944 256.8399 276.6944 256.8129L276.6944 256.8129L276.7834 256.1179L276.7834 256.1179L276.7834 256.0599L276.7834 256.0599L276.8424 255.7999L276.8424 255.7999L276.8424 255.7429L276.8424 255.7429L276.9034 255.4249L276.9034 255.4249L276.9604 254.9629C 276.9604 254.9339 276.9914 254.9039 276.9914 254.8759L276.9914 254.8759L277.0194 254.7029C 277.0194 254.6739 277.0194 254.6159 277.0504 254.5869L277.0504 254.5869L277.1114 254.2689C 277.1114 254.2119 277.1414 254.1539 277.1414 254.0959C 277.1414 254.0679 277.1694 254.0089 277.1694 253.9509L277.1694 253.9509L277.2594 253.5749C 277.2594 253.5189 277.2894 253.4609 277.2894 253.4029L277.2894 253.4029L277.3484 253.1709L277.3484 253.1709L277.3774 253.1139L277.3774 253.1139L277.5264 252.5069C 277.5264 252.5069 277.5554 252.4779 277.5554 252.4499L277.5554 252.4499L277.5864 252.3339C 277.5864 252.3039 277.6164 252.2759 277.6164 252.2469L277.6164 252.2469L277.6444 252.1889C 277.6444 252.1309 277.6754 252.1019 277.6754 252.0749L277.6754 252.0749L277.7344 251.9299L277.7344 251.9299L277.7934 251.7559L277.7934 251.7559L277.8234 251.7269C 277.8524 251.6399 277.8834 251.5819 277.9114 251.4959L277.9114 251.4959L277.9414 251.4389C 277.9414 251.4099 277.9714 251.4099 277.9714 251.3799C 277.9714 251.3519 278.0024 251.3219 278.0024 251.2929L278.0024 251.2929L278.0314 251.2639C 278.0314 251.2369 278.0604 251.2069 278.0604 251.1789L278.0604 251.1789L278.1494 251.0629C 278.1794 251.0049 278.2094 250.9749 278.2384 250.9169L278.2384 250.9169L278.2964 250.8599C 278.3274 250.8319 278.3274 250.8319 278.3564 250.8019C 278.3864 250.7739 278.4184 250.7739 278.4184 250.7449L278.4184 250.7449L278.4474 250.7449C 278.4764 250.7159 278.5074 250.7159 278.5074 250.6869L278.5074 250.6869L278.5664 250.6869C 278.5954 250.6579 278.5954 250.6579 278.6264 250.6579C 278.6544 250.6289 278.6844 250.6289 278.6844 250.6289L278.6844 250.6289L278.7144 250.6289M272.0014 258.0529L272.0624 258.6319L272.0624 258.6319L272.0624 258.7199L272.0624 258.7199L272.1214 259.1519L272.1214 259.1519L272.1784 259.7009C 272.1784 259.7009 272.1784 259.7299 272.2094 259.7579L272.2094 259.7579L272.2994 260.4529L272.2994 260.4529L272.2994 260.4819L272.2994 260.4819L272.3274 260.7699C 272.3584 260.7999 272.3584 260.7999 272.3584 260.8279L272.3584 260.8279L272.4174 261.1459L272.4174 261.1459L272.4774 261.6079C 272.4774 261.6369 272.4774 261.6669 272.5074 261.6949L272.5074 261.6949L272.5374 261.8669L272.5374 261.8669L272.5374 261.9839L272.5374 261.9839L272.6244 262.3019C 272.6244 262.3589 272.6554 262.4169 272.6554 262.4459C 272.6554 262.5039 272.6554 262.5609 272.6864 262.6189L272.6864 262.6189L272.7444 262.9959C 272.7744 263.0519 272.7744 263.1099 272.8034 263.1389L272.8034 263.1389L272.8634 263.3999L272.8634 263.3999L272.8634 263.4569L272.8634 263.4569L273.0404 264.0349C 273.0404 264.0639 273.0404 264.0929 273.0714 264.1209L273.0714 264.1209L273.1004 264.2369C 273.1004 264.2669 273.1004 264.2949 273.1294 264.3239L273.1294 264.3239L273.1604 264.3819C 273.1604 264.4099 273.1604 264.4689 273.1904 264.4989L273.1904 264.4989L273.2194 264.6139L273.2194 264.6139L273.3104 264.7869L273.3104 264.7869L273.3104 264.8159L273.3104 264.8159L273.3104 264.8439C 273.3404 264.9309 273.3684 264.9879 273.3974 265.0449L273.3974 265.0449L273.4584 265.1339C 273.4584 265.1339 273.4584 265.1609 273.4864 265.1909C 273.4864 265.2189 273.4864 265.2489 273.5184 265.2769L273.5184 265.2769L273.5454 265.3069C 273.5454 265.3359 273.5754 265.3639 273.5754 265.3929L273.5754 265.3929L273.6664 265.5079C 273.6944 265.5659 273.7234 265.5959 273.7534 265.6539L273.7534 265.6539L273.8134 265.7109C 273.8444 265.7109 273.8444 265.7389 273.8734 265.7689C 273.9014 265.7689 273.9014 265.7979 273.9334 265.7979L273.9334 265.7979L273.9624 265.8269C 273.9904 265.8269 273.9904 265.8549 274.0224 265.8549L274.0224 265.8549L274.0804 265.8839C 274.0804 265.9129 274.1104 265.9129 274.1404 265.9129L274.1404 265.9129L274.1994 265.9129L274.1994 265.9129L274.2284 265.9129M276.4854 258.0529L276.4264 258.6319C 276.4264 258.6609 276.4264 258.6899 276.3974 258.7199L276.3974 258.7199L276.3674 259.1519L276.3674 259.1519L276.2784 259.7009L276.2784 259.7009L276.2784 259.7579L276.2784 259.7579L276.1884 260.4529L276.1884 260.4529L276.1604 260.4819L276.1604 260.4819L276.1304 260.7699L276.1304 260.7699L276.1304 260.8279L276.1304 260.8279L276.0704 261.1459L276.0704 261.1459L275.9824 261.6079L275.9824 261.6079L275.9824 261.6949L275.9824 261.6949L275.9504 261.8669C 275.9504 261.8969 275.9224 261.9259 275.9224 261.9839L275.9224 261.9839L275.8614 262.3019C 275.8314 262.3589 275.8314 262.4169 275.8314 262.4459C 275.8034 262.5039 275.8034 262.5609 275.8034 262.6189L275.8034 262.6189L275.7154 262.9959C 275.7154 263.0519 275.6854 263.1099 275.6854 263.1389L275.6854 263.1389L275.6244 263.3999L275.6244 263.3999L275.5944 263.4569L275.5944 263.4569L275.4464 264.0349C 275.4144 264.0639 275.4144 264.0929 275.4144 264.1209L275.4144 264.1209L275.3894 264.2369C 275.3894 264.2669 275.3584 264.2949 275.3584 264.3239L275.3584 264.3239L275.3284 264.3819C 275.3284 264.4099 275.2994 264.4689 275.2994 264.4989L275.2994 264.4989L275.2404 264.6139L275.2404 264.6139L275.1814 264.7869L275.1814 264.7869L275.1814 264.8159L275.1814 264.8159L275.1504 264.8439C 275.1204 264.9309 275.0894 264.9879 275.0594 265.0449L275.0594 265.0449L275.0314 265.1339C 275.0314 265.1339 275.0004 265.1609 275.0004 265.1909C 274.9714 265.2189 274.9714 265.2489 274.9714 265.2769L274.9714 265.2769L274.9424 265.3069C 274.9124 265.3359 274.9124 265.3639 274.8844 265.3929L274.8844 265.3929L274.8224 265.5079C 274.7944 265.5659 274.7344 265.5959 274.7054 265.6539L274.7054 265.6539L274.6744 265.7109C 274.6464 265.7109 274.6144 265.7389 274.6144 265.7689L274.6144 265.7689L274.5844 265.7689C 274.5844 265.7689 274.5574 265.7979 274.5264 265.7979L274.5264 265.7979L274.5264 265.8269C 274.4974 265.8269 274.4674 265.8549 274.4374 265.8549L274.4374 265.8549L274.4074 265.8839C 274.3794 265.9129 274.3484 265.9129 274.3484 265.9129L274.3484 265.9129L274.2584 265.9129L274.2584 265.9129L274.2284 265.9129M272.0014 258.4879L271.9434 257.9379C 271.9434 257.9099 271.9134 257.8819 271.9134 257.8529L271.9134 257.8529L271.8524 257.4179L271.8524 257.4179L271.7934 256.8699L271.7934 256.8699L271.7934 256.8129L271.7934 256.8129L271.6754 256.1179L271.6754 256.1179L271.6754 256.0599L271.6754 256.0599L271.6454 255.7999L271.6454 255.7999L271.6454 255.7429L271.6454 255.7429L271.5854 255.4249L271.5854 255.4249L271.4974 254.9629L271.4974 254.9629L271.4974 254.8759L271.4974 254.8759L271.4674 254.7029C 271.4384 254.6739 271.4384 254.6159 271.4384 254.5869L271.4384 254.5869L271.3764 254.2689C 271.3464 254.2119 271.3464 254.1539 271.3464 254.0959C 271.3194 254.0679 271.3194 254.0089 271.3194 253.9509L271.3194 253.9509L271.2304 253.5749C 271.2004 253.5189 271.2004 253.4609 271.2004 253.4029L271.2004 253.4029L271.1104 253.1709L271.1104 253.1709L271.1104 253.1139L271.1104 253.1139L270.9324 252.5069L270.9324 252.5069L270.9324 252.4499L270.9324 252.4499L270.9024 252.3339C 270.8724 252.3039 270.8724 252.2759 270.8724 252.2469L270.8724 252.2469L270.8424 252.1889C 270.8124 252.1309 270.8124 252.1019 270.8124 252.0749L270.8124 252.0749L270.7524 251.9299L270.7524 251.9299L270.6954 251.7559L270.6954 251.7559L270.6654 251.7559L270.6654 251.7559L270.6654 251.7269C 270.6374 251.6399 270.6074 251.5819 270.5764 251.4959L270.5764 251.4959L270.5464 251.4389C 270.5164 251.4099 270.5164 251.4099 270.5164 251.3799C 270.4864 251.3519 270.4864 251.3219 270.4564 251.2929L270.4564 251.2929L270.4564 251.2639C 270.4294 251.2369 270.4294 251.2069 270.3984 251.1789L270.3984 251.1789L270.3084 251.0629C 270.2784 251.0049 270.2504 250.9749 270.2214 250.9169L270.2214 250.9169L270.1604 250.8599C 270.1604 250.8319 270.1314 250.8319 270.1014 250.8019C 270.1014 250.7739 270.0724 250.7739 270.0414 250.7449C 270.0124 250.7159 269.9804 250.7159 269.9524 250.6869L269.9524 250.6869L269.9224 250.6869C 269.8934 250.6579 269.8644 250.6579 269.8334 250.6579C 269.8334 250.6289 269.8044 250.6289 269.7754 250.6289L269.7754 250.6289L269.7454 250.6289M267.5174 258.4879L267.5754 257.9379L267.5754 257.9379L267.5754 257.8529L267.5754 257.8529L267.6354 257.4179L267.6354 257.4179L267.6964 256.8699L267.6964 256.8699L267.6964 256.8129L267.6964 256.8129L267.8144 256.1179L267.8144 256.1179L267.8144 256.0599L267.8144 256.0599L267.8454 255.7999C 267.8454 255.7709 267.8744 255.7429 267.8744 255.7429L267.8744 255.7429L267.9054 255.4249L267.9054 255.4249L267.9944 254.9629L267.9944 254.9629L267.9944 254.8759L267.9944 254.8759L268.0214 254.7029C 268.0514 254.6739 268.0514 254.6159 268.0514 254.5869L268.0514 254.5869L268.1404 254.2689C 268.1404 254.2119 268.1404 254.1539 268.1704 254.0959C 268.1704 254.0679 268.1704 254.0089 268.2014 253.9509L268.2014 253.9509L268.2604 253.5749C 268.2904 253.5189 268.2904 253.4609 268.3184 253.4029L268.3184 253.4029L268.3784 253.1709L268.3784 253.1709L268.3784 253.1139L268.3784 253.1139L268.5554 252.5069L268.5554 252.5069L268.5554 252.4499L268.5554 252.4499L268.6154 252.3339C 268.6154 252.3039 268.6154 252.2759 268.6454 252.2469L268.6454 252.2469L268.6454 252.1889C 268.6764 252.1309 268.6764 252.1019 268.7064 252.0749L268.7064 252.0749L268.7364 251.9299L268.7364 251.9299L268.8234 251.7559L268.8234 251.7559L268.8234 251.7269C 268.8544 251.6399 268.8834 251.5819 268.9134 251.4959L268.9134 251.4959L268.9424 251.4389C 268.9724 251.4099 268.9724 251.4099 269.0024 251.3799C 269.0024 251.3519 269.0024 251.3219 269.0314 251.2929L269.0314 251.2929L269.0614 251.2639C 269.0614 251.2369 269.0924 251.2069 269.0924 251.1789L269.0924 251.1789L269.1804 251.0629C 269.2094 251.0049 269.2404 250.9749 269.2704 250.9169L269.2704 250.9169L269.3284 250.8599C 269.3284 250.8319 269.3584 250.8319 269.3874 250.8019C 269.4184 250.7739 269.4184 250.7739 269.4474 250.7449L269.4474 250.7449L269.4774 250.7449C 269.4774 250.7159 269.5074 250.7159 269.5374 250.6869L269.5374 250.6869L269.5974 250.6869C 269.5974 250.6579 269.6264 250.6579 269.6564 250.6579C 269.6844 250.6289 269.6844 250.6289 269.7154 250.6289L269.7154 250.6289L269.7454 250.6289M266.1214 264.6139L267.5174 258.1109M190.6854 258.4879L190.6254 257.9379L190.6254 257.9379L190.6254 257.8529L190.6254 257.8529L190.5674 257.4179L190.5674 257.4179L190.5064 256.8699L190.5064 256.8699L190.5064 256.8129L190.5064 256.8129L190.3884 256.1179L190.3884 256.1179L190.3884 256.0599L190.3884 256.0599L190.3584 255.7999C 190.3584 255.7709 190.3304 255.7429 190.3304 255.7429L190.3304 255.7429L190.2994 255.4249L190.2994 255.4249L190.2104 254.9629L190.2104 254.9629L190.2104 254.8759L190.2104 254.8759L190.1494 254.7029L190.1494 254.7029L190.1494 254.5869L190.1494 254.5869L190.0624 254.2689C 190.0624 254.2119 190.0624 254.1539 190.0324 254.0959C 190.0324 254.0679 190.0324 254.0089 190.0024 253.9509L190.0024 253.9509L189.9434 253.5749C 189.9134 253.5189 189.9134 253.4609 189.8844 253.4029L189.8844 253.4029L189.8224 253.1709L189.8224 253.1709L189.8224 253.1139L189.8224 253.1139L189.6454 252.5069L189.6454 252.5069L189.6454 252.4499L189.6454 252.4499L189.5864 252.3339C 189.5864 252.3039 189.5864 252.2759 189.5574 252.2469L189.5574 252.2469L189.5574 252.1889C 189.5264 252.1309 189.5264 252.1019 189.4964 252.0749L189.4964 252.0749L189.4684 251.9299L189.4684 251.9299L189.3794 251.7559L189.3794 251.7559L189.3794 251.7269C 189.3484 251.6399 189.3184 251.5819 189.2894 251.4959L189.2894 251.4959L189.2604 251.4389C 189.2304 251.4099 189.2304 251.4099 189.2004 251.3799C 189.2004 251.3519 189.2004 251.3219 189.1714 251.2929L189.1714 251.2929L189.1424 251.2639C 189.1424 251.2369 189.1124 251.2069 189.1124 251.1789L189.1124 251.1789L189.0214 251.0629C 188.9914 251.0049 188.9634 250.9749 188.9344 250.9169L188.9344 250.9169L188.8734 250.8599C 188.8734 250.8319 188.8434 250.8319 188.8144 250.8019C 188.7854 250.7739 188.7854 250.7739 188.7554 250.7449L188.7554 250.7449L188.7254 250.7449C 188.7254 250.7159 188.6954 250.7159 188.6654 250.6869L188.6654 250.6869L188.6064 250.6869C 188.6064 250.6579 188.5764 250.6579 188.5474 250.6579C 188.5174 250.6289 188.5174 250.6289 188.4874 250.6289L188.4874 250.6289L188.4584 250.6289M186.1994 258.4879L186.2594 257.9379C 186.2594 257.9099 186.2894 257.8819 186.2894 257.8529L186.2894 257.8529L186.3194 257.4179L186.3194 257.4179L186.4094 256.8699L186.4094 256.8699L186.4094 256.8129L186.4094 256.8129L186.4964 256.1179L186.4964 256.1179L186.5264 256.0599L186.5264 256.0599L186.5564 255.7999L186.5564 255.7999L186.5564 255.7429L186.5564 255.7429L186.6164 255.4249L186.6164 255.4249L186.7054 254.9629L186.7054 254.9629L186.7054 254.8759L186.7054 254.8759L186.7354 254.7029C 186.7644 254.6739 186.7644 254.6159 186.7644 254.5869L186.7644 254.5869L186.8244 254.2689C 186.8534 254.2119 186.8534 254.1539 186.8534 254.0959C 186.8844 254.0679 186.8844 254.0089 186.8844 253.9509L186.8844 253.9509L186.9714 253.5749C 186.9714 253.5189 187.0014 253.4609 187.0014 253.4029L187.0014 253.4029L187.0914 253.1709L187.0914 253.1709L187.0914 253.1139L187.0914 253.1139L187.2684 252.5069L187.2684 252.5069L187.2684 252.4499L187.2684 252.4499L187.2984 252.3339C 187.3294 252.3039 187.3294 252.2759 187.3294 252.2469L187.3294 252.2469L187.3584 252.1889C 187.3884 252.1309 187.3884 252.1019 187.3884 252.0749L187.3884 252.0749L187.4474 251.9299L187.4474 251.9299L187.5084 251.7559L187.5084 251.7559L187.5384 251.7559L187.5384 251.7559L187.5384 251.7269C 187.5674 251.6399 187.5964 251.5819 187.6254 251.4959L187.6254 251.4959L187.6554 251.4389C 187.6854 251.4099 187.6854 251.4099 187.6854 251.3799C 187.7154 251.3519 187.7154 251.3219 187.7454 251.2929L187.7454 251.2929L187.7454 251.2639C 187.7754 251.2369 187.7754 251.2069 187.8034 251.1789L187.8034 251.1789L187.8624 251.0629C 187.9234 251.0049 187.9524 250.9749 187.9824 250.9169L187.9824 250.9169L188.0114 250.8599C 188.0424 250.8319 188.0714 250.8319 188.1014 250.8019C 188.1014 250.7739 188.1304 250.7739 188.1614 250.7449C 188.1904 250.7159 188.2204 250.7159 188.2504 250.6869L188.2504 250.6869L188.2794 250.6869C 188.3094 250.6579 188.3394 250.6579 188.3684 250.6579C 188.3684 250.6289 188.3984 250.6289 188.4284 250.6289L188.4284 250.6289L188.4584 250.6289M181.7174 258.0529L181.7754 258.6319C 181.7754 258.6609 181.7754 258.6899 181.8044 258.7199L181.8044 258.7199L181.8344 259.1519L181.8344 259.1519L181.9244 259.7009L181.9244 259.7009L181.9244 259.7579L181.9244 259.7579L182.0124 260.4529L182.0124 260.4529L182.0124 260.4819L182.0124 260.4819L182.0724 260.7699L182.0724 260.7699L182.0724 260.8279L182.0724 260.8279L182.1324 261.1459L182.1324 261.1459L182.2214 261.6079L182.2214 261.6079L182.2214 261.6949L182.2214 261.6949L182.2504 261.8669C 182.2504 261.8969 182.2794 261.9259 182.2794 261.9839L182.2794 261.9839L182.3394 262.3019C 182.3694 262.3589 182.3694 262.4169 182.3694 262.4459C 182.3694 262.5039 182.3994 262.5609 182.3994 262.6189L182.3994 262.6189L182.4884 262.9959C 182.4884 263.0519 182.5184 263.1099 182.5184 263.1389L182.5184 263.1389L182.5774 263.3999L182.5774 263.3999L182.6074 263.4569L182.6074 263.4569L182.7554 264.0349C 182.7844 264.0639 182.7844 264.0929 182.7844 264.1209L182.7844 264.1209L182.8154 264.2369C 182.8154 264.2669 182.8444 264.2949 182.8444 264.3239L182.8444 264.3239L182.8744 264.3819C 182.8744 264.4099 182.9034 264.4689 182.9034 264.4989L182.9034 264.4989L182.9634 264.6139L182.9634 264.6139L183.0224 264.7869L183.0224 264.7869L183.0224 264.8159L183.0224 264.8159L183.0524 264.8439C 183.0824 264.9309 183.1114 264.9879 183.1414 265.0449L183.1414 265.0449L183.1714 265.1339C 183.1714 265.1339 183.2004 265.1609 183.2004 265.1909C 183.2304 265.2189 183.2304 265.2489 183.2304 265.2769L183.2304 265.2769L183.2604 265.3069C 183.2904 265.3359 183.2904 265.3639 183.3194 265.3929L183.3194 265.3929L183.3794 265.5079C 183.4084 265.5659 183.4394 265.5959 183.4994 265.6539L183.4994 265.6539L183.5284 265.7109C 183.5584 265.7109 183.5874 265.7389 183.5874 265.7689L183.5874 265.7689L183.6164 265.7689C 183.6164 265.7689 183.6464 265.7979 183.6764 265.7979L183.6764 265.7979L183.6764 265.8269C 183.7054 265.8269 183.7344 265.8549 183.7654 265.8549L183.7654 265.8549L183.7954 265.8839C 183.8234 265.9129 183.8544 265.9129 183.8544 265.9129L183.8544 265.9129L183.9434 265.9129L183.9434 265.9129L183.9744 265.9129M186.1994 258.0529L186.1414 258.6319L186.1414 258.6319L186.1414 258.7199L186.1414 258.7199L186.0814 259.1519L186.0814 259.1519L186.0224 259.7009C 186.0224 259.7009 186.0224 259.7299 185.9934 259.7579L185.9934 259.7579L185.9034 260.4529L185.9034 260.4529L185.9034 260.4819L185.9034 260.4819L185.8744 260.7699C 185.8444 260.7999 185.8444 260.7999 185.8444 260.8279L185.8444 260.8279L185.7844 261.1459L185.7844 261.1459L185.7254 261.6079C 185.7254 261.6369 185.7254 261.6669 185.6954 261.6949L185.6954 261.6949L185.6654 261.8669L185.6654 261.8669L185.6654 261.9839L185.6654 261.9839L185.5754 262.3019C 185.5754 262.3589 185.5484 262.4169 185.5484 262.4459C 185.5484 262.5039 185.5484 262.5609 185.5174 262.6189L185.5174 262.6189L185.4284 262.9959C 185.4284 263.0519 185.4284 263.1099 185.3984 263.1389L185.3984 263.1389L185.3394 263.3999L185.3394 263.3999L185.3394 263.4569L185.3394 263.4569L185.1624 264.0349C 185.1624 264.0639 185.1624 264.0929 185.1314 264.1209L185.1314 264.1209L185.1024 264.2369C 185.1024 264.2669 185.1024 264.2949 185.0724 264.3239L185.0724 264.3239L185.0424 264.3819C 185.0424 264.4099 185.0424 264.4689 185.0144 264.4989L185.0144 264.4989L184.9824 264.6139L184.9824 264.6139L184.8934 264.7869L184.8934 264.7869L184.8934 264.8159L184.8934 264.8159L184.8934 264.8439C 184.8644 264.9309 184.8344 264.9879 184.7754 265.0449L184.7754 265.0449L184.7454 265.1339C 184.7454 265.1339 184.7454 265.1609 184.7164 265.1909C 184.7164 265.2189 184.7164 265.2489 184.6874 265.2769L184.6874 265.2769L184.6564 265.3069C 184.6564 265.3359 184.6254 265.3639 184.6254 265.3929L184.6254 265.3929L184.5384 265.5079C 184.5084 265.5659 184.4784 265.5959 184.4484 265.6539L184.4484 265.6539L184.3904 265.7109C 184.3594 265.7109 184.3594 265.7389 184.3294 265.7689C 184.3004 265.7689 184.2714 265.7979 184.2714 265.7979L184.2714 265.7979L184.2414 265.8269C 184.2104 265.8269 184.2104 265.8549 184.1814 265.8549L184.1814 265.8549L184.1214 265.8839C 184.1214 265.9129 184.0924 265.9129 184.0624 265.9129L184.0624 265.9129L184.0034 265.9129L184.0034 265.9129L183.9744 265.9129M181.7174 258.4879L181.6564 257.9379L181.6564 257.9379L181.6564 257.8529L181.6564 257.8529L181.5984 257.4179L181.5984 257.4179L181.5374 256.8699C 181.5074 256.8399 181.5074 256.8399 181.5074 256.8129L181.5074 256.8129L181.4194 256.1179L181.4194 256.1179L181.4194 256.0599L181.4194 256.0599L181.3594 255.7999L181.3594 255.7999L181.3594 255.7429L181.3594 255.7429L181.3004 255.4249L181.3004 255.4249L181.2414 254.9629C 181.2414 254.9339 181.2114 254.9039 181.2114 254.8759L181.2114 254.8759L181.1814 254.7029C 181.1814 254.6739 181.1814 254.6159 181.1514 254.5869L181.1514 254.5869L181.0924 254.2689C 181.0924 254.2119 181.0614 254.1539 181.0614 254.0959C 181.0614 254.0679 181.0324 254.0089 181.0324 253.9509L181.0324 253.9509L180.9444 253.5749C 180.9444 253.5189 180.9134 253.4609 180.9134 253.4029L180.9134 253.4029L180.8544 253.1709L180.8544 253.1709L180.8254 253.1139L180.8254 253.1139L180.6754 252.5069C 180.6754 252.5069 180.6464 252.4779 180.6464 252.4499L180.6464 252.4499L180.6184 252.3339C 180.6184 252.3039 180.5874 252.2759 180.5874 252.2469L180.5874 252.2469L180.5574 252.1889C 180.5574 252.1309 180.5284 252.1019 180.5284 252.0749L180.5284 252.0749L180.4684 251.9299L180.4684 251.9299L180.4094 251.7559L180.4094 251.7559L180.3794 251.7269C 180.3504 251.6399 180.3204 251.5819 180.2914 251.4959L180.2914 251.4959L180.2604 251.4389C 180.2604 251.4099 180.2314 251.4099 180.2314 251.3799C 180.2314 251.3519 180.2014 251.3219 180.2014 251.2929L180.2014 251.2929L180.1714 251.2639C 180.1714 251.2369 180.1414 251.2069 180.1414 251.1789L180.1414 251.1789L180.0534 251.0629C 180.0234 251.0049 179.9944 250.9749 179.9624 250.9169L179.9624 250.9169L179.9054 250.8599C 179.8754 250.8319 179.8454 250.8319 179.8454 250.8019C 179.8144 250.7739 179.7854 250.7739 179.7854 250.7449L179.7854 250.7449L179.7564 250.7449C 179.7274 250.7159 179.6974 250.7159 179.6974 250.6869L179.6974 250.6869L179.6364 250.6869C 179.6064 250.6579 179.6064 250.6579 179.5794 250.6579C 179.5484 250.6289 179.5184 250.6289 179.5184 250.6289L179.5184 250.6289L179.4884 250.6289M177.2314 258.4879L177.2904 257.9379L177.2904 257.9379L177.2904 257.8529L177.2904 257.8529L177.3514 257.4179L177.3514 257.4179L177.4094 256.8699C 177.4384 256.8399 177.4384 256.8399 177.4384 256.8129L177.4384 256.8129L177.5294 256.1179L177.5294 256.1179L177.5294 256.0599L177.5294 256.0599L177.5874 255.7999L177.5874 255.7999L177.5874 255.7429L177.5874 255.7429L177.6474 255.4249L177.6474 255.4249L177.7074 254.9629C 177.7354 254.9339 177.7354 254.9039 177.7354 254.8759L177.7354 254.8759L177.7654 254.7029C 177.7654 254.6739 177.7654 254.6159 177.7954 254.5869L177.7954 254.5869L177.8554 254.2689C 177.8554 254.2119 177.8844 254.1539 177.8844 254.0959C 177.8844 254.0679 177.9144 254.0089 177.9144 253.9509L177.9144 253.9509L178.0044 253.5749C 178.0044 253.5189 178.0334 253.4609 178.0334 253.4029L178.0334 253.4029L178.0924 253.1709L178.0924 253.1709L178.1234 253.1139L178.1234 253.1139L178.2714 252.5069C 178.2714 252.5069 178.3004 252.4779 178.3004 252.4499L178.3004 252.4499L178.3294 252.3339C 178.3294 252.3039 178.3604 252.2759 178.3604 252.2469L178.3604 252.2469L178.3894 252.1889C 178.3894 252.1309 178.4194 252.1019 178.4194 252.0749L178.4194 252.0749L178.4794 251.9299L178.4794 251.9299L178.5384 251.7559L178.5384 251.7559L178.5674 251.7269C 178.5984 251.6399 178.6264 251.5819 178.6564 251.4959L178.6564 251.4959L178.6864 251.4389C 178.6864 251.4099 178.7154 251.4099 178.7154 251.3799C 178.7154 251.3519 178.7454 251.3219 178.7454 251.2929L178.7454 251.2929L178.7754 251.2639C 178.8054 251.2369 178.8054 251.2069 178.8054 251.1789L178.8054 251.1789L178.8954 251.0629C 178.9254 251.0049 178.9534 250.9749 178.9834 250.9169L178.9834 250.9169L179.0424 250.8599C 179.0734 250.8319 179.1024 250.8319 179.1024 250.8019C 179.1314 250.7739 179.1604 250.7739 179.1604 250.7449L179.1604 250.7449L179.1914 250.7449C 179.2224 250.7159 179.2524 250.7159 179.2524 250.6869L179.2524 250.6869L179.3094 250.6869C 179.3394 250.6579 179.3394 250.6579 179.3704 250.6579C 179.4004 250.6289 179.4284 250.6289 179.4284 250.6289L179.4284 250.6289L179.4884 250.6289M261.7854 266.8669C 264.3104 266.8669 266.3874 265.1909 266.3874 263.1389M280.6444 237.1659L280.6444 259.0079M266.0034 264.6139L267.7534 258.3429M236.8684 266.8669L262.4684 266.8079M171.6174 266.8669C 174.1714 266.8669 176.2204 265.1909 176.2514 263.1389M190.4764 237.1659L190.4764 259.0079M175.8644 264.6139L177.2314 258.1109M234.4614 267.0109C 234.4614 266.5189 234.7294 266.1439 235.0554 266.1439C 235.3814 266.1439 235.6494 266.5189 235.6494 267.0109L235.6494 267.0109L235.6494 267.0389L235.6494 267.0389L235.6494 267.0109C 235.6494 267.2419 235.9184 267.4159 236.2444 267.4159C 236.6004 267.4159 236.8684 267.2419 236.8684 267.0109M229.6804 267.0109C 229.6804 265.5659 229.9494 264.4099 230.2734 264.4099C 230.6014 264.4099 230.8674 265.5659 230.8674 267.0109C 230.8674 268.1949 231.1354 269.1479 231.4634 269.1479C 231.7894 269.1479 232.0564 268.1949 232.0564 267.0109C 232.0564 266.0569 232.3254 265.2769 232.6804 265.2769C 233.0064 265.2769 233.2754 266.0569 233.2754 267.0109C 233.2754 267.7039 233.5414 268.2819 233.8694 268.2819C 234.1964 268.2819 234.4614 267.7039 234.4614 267.0109M229.6804 272.0959L229.6804 266.8669M226.5334 272.0959L229.6804 272.0959M190.8624 237.1659L226.5334 237.1659M100.9044 266.8669L100.9044 237.1659M146.7014 266.8669L172.3314 266.8079M144.2944 267.0109C 144.2944 266.5189 144.5614 266.1439 144.8894 266.1439C 145.2444 266.1439 145.5134 266.5189 145.5134 267.0109L145.5134 267.0109L145.5134 267.0389L145.5134 267.0389L145.5134 267.0109C 145.5134 267.2419 145.7794 267.4159 146.1064 267.4159C 146.4334 267.4159 146.7014 267.2419 146.7014 267.0109M139.5134 267.0109C 139.5134 265.5659 139.7804 264.4099 140.1084 264.4099C 140.4344 264.4099 140.7014 265.5659 140.7014 267.0109C 140.7014 268.1949 140.9694 269.1479 141.2954 269.1479C 141.6514 269.1479 141.9194 268.1949 141.9194 267.0109C 141.9194 266.0569 142.1854 265.2769 142.5134 265.2769C 142.8404 265.2769 143.1074 266.0569 143.1074 267.0109C 143.1074 267.7039 143.3734 268.2819 143.7014 268.2819C 144.0274 268.2819 144.2944 267.7039 144.2944 267.0109M139.5134 272.0959L139.5134 266.8669M136.3654 272.0959L139.5134 272.0959M136.3654 237.1659L136.3654 272.0959M100.9044 237.1659L137.0484 237.1659M226.5334 237.1659L226.5334 272.0959M136.3654 154.2329L172.7474 100.5609M135.9194 154.1749L135.9194 100.5609L135.9194 100.5609L100.0134 100.5609M263.3004 100.5609L277.7934 100.5609M226.6204 154.2329L262.9744 100.5609M173.0134 100.5609L190.5364 100.5609M226.1754 154.2329L226.1754 100.6199L226.1754 100.6199L190.2394 100.6199M190.6854 172.8359L226.0284 213.6189M226.0284 213.6189L226.0284 172.9849M136.5434 213.6189L136.3654 172.8359M100.9044 172.8359L136.5434 213.6189M226.0284 172.8359L280.7634 172.8359M136.3654 172.8359L190.2394 172.8359" stroke="#0A74BC" stroke-width="1.947" stroke-linecap="round" fill="none" /></g><path id="1422" transform="matrix(1 0 0 -1 0 792)" d="M177.9663 160.2542L187.1113 160.2542" stroke="#221E1F" stroke-width="1.143" fill="none" /><path id="1423" transform="matrix(1 0 0 -1 0 792)" d="M186.2775 157.3952L191.2125 160.2452L186.2775 163.0942z" stroke="none" fill="#221E1F" fill-rule="nonzero" /><path id="1424" transform="matrix(1 0 0 -1 0 792)" d="M178.8005 163.1122L173.8655 160.2632L178.8005 157.4142z" stroke="none" fill="#221E1F" fill-rule="nonzero" /><path id="1434" transform="matrix(1 0 0 -1 0 792)" d="M139.2657 247.259L149.3957 247.259" stroke="#201E19" stroke-width="0.387" fill="none" /></g></g></svg>