<svg xmlns="http://www.w3.org/2000/svg" xmlns:xlink="http://www.w3.org/1999/xlink" id="body_17" preserveAspectRatio="xMinYMin meet" viewBox="0 0 816 1056"><defs><clipPath id="1"><path id="" clip-rule="evenodd" transform="matrix(1 0 0 1 0 0)" d="M0 792L0 0L0 0L612 0L612 0L612 792L612 792L0 792z" /></clipPath><clipPath id="2"><path id="" clip-rule="evenodd" transform="matrix(1 0 0 1 0 0)" d="M49 721.5L569.715 721.5L569.715 721.5L569.715 33L569.715 33L49 33z" /></clipPath><clipPath id="3"><path id="" clip-rule="evenodd" transform="matrix(1 0 0 1 0 0)" d="M58.868 501.512L290.675 501.512L290.675 501.512L290.675 299.062L290.675 299.062L58.868 299.062z" /></clipPath><clipPath id="4"><path id="" clip-rule="evenodd" transform="matrix(1 0 0 1 0 0)" d="M57.406 519.749L555.754 519.749L555.754 519.749L555.754 42.94995L555.754 42.94995L57.406 42.94995z" /></clipPath><clipPath id="5"><path id="" clip-rule="evenodd" transform="matrix(1 0 0 1 0 0)" d="M57.406 519.749L555.754 519.749L555.754 519.749L555.754 42.94995L555.754 42.94995L57.406 42.94995z" /></clipPath></defs><g transform="matrix(1.333333 0 0 1.333333 0 0)"><g clip-path="url(#1)"><path id="1" transform="matrix(1 0 0 -1 0 792)" d="M54 39.5055L558 39.5055" stroke="#221E1F" stroke-width="0.5" fill="none" /><path id="30" transform="matrix(1 0 0 -1 0 792)" d="M49 70.5L569.715 70.5L569.715 759L49 759z" stroke="none" fill="#FFFFFF" fill-rule="nonzero" /><g clip-path="url(#2)"></g><g clip-path="url(#3)"><g transform="matrix(0.4794237 0 0 0.4790871 58.71388 298.8905)"><g transform="matrix(1 0 0 1 0 0)"><image x="0" y="0" xlink:href="img_22.png" width="484" height="423" /></g></g></g><g clip-path="url(#4)"><path id="642" transform="matrix(1 0 0 -1 0 792)" d="M291.215 291.1515L58.452 291.1515L58.452 291.1515L58.452 493.2135L58.452 493.2135L291.215 493.2135z" stroke="#201C1D" stroke-width="1.224" fill="none" /></g><path id="643" transform="matrix(1 0 0 -1 0 792)" d="M182.173 324.383L164.214 324.383L164.214 336.628L182.173 336.628z" stroke="none" fill="#FFFFFF" fill-rule="nonzero" /><g transform="matrix(0.479567 0 0 0.4793434 57.39146 43.66168)"><g transform="matrix(1 0 0 1 0 0)"><image x="0" y="0" xlink:href="img_23.png" width="486" height="424" /></g></g><g clip-path="url(#5)"><path id="645" transform="matrix(1 0 0 -1 0 792)" d="M290.332 546.0275L58.41901 546.0275L58.41901 546.0275L58.41901 747.8055L58.41901 747.8055L290.332 747.8055z" stroke="#201C1D" stroke-width="1.224" fill="none" /></g><path id="646" transform="matrix(1 0 0 -1 0 792)" d="M185.436 548.053L117.274 548.053L117.274 559.89L185.436 559.89z" stroke="none" fill="#FFFFFF" fill-rule="nonzero" /><g transform="matrix(0.4798503 0 0 0.4794345 317.027 298.5967)"><g transform="matrix(1 0 0 1 0 0)"><image x="0" y="0" xlink:href="img_24.png" width="490" height="423" /></g></g><path id="648" transform="matrix(1 0 0 -1 0 792)" d="M551.687 290.6085L316.418 290.6085L316.418 290.6085L316.418 493.2185L316.418 493.2185L551.687 493.2185z" stroke="#201C1D" stroke-width="1.224" fill="none" /><g transform="matrix(0.4791461 0 0 0.4796501 316.7331 42.92865)"><g transform="matrix(1 0 0 1 0 0)"><image x="0" y="0" xlink:href="img_25.png" width="499" height="432" /></g></g><path id="650" transform="matrix(1 0 0 -1 0 792)" d="M550.221 545.4625L317.749 545.4625L317.749 545.4625L317.749 747.4845L317.749 747.4845L550.221 747.4845z" stroke="#201C1D" stroke-width="1.224" fill="none" /><path id="703" transform="matrix(1 0 0 -1 0 792)" d="M223.3004 715.2855L182.4694 714.9605L182.3234 733.0245L223.1574 733.3495z" stroke="none" fill="#FFFFFF" fill-rule="nonzero" /><path id="709" transform="matrix(1 0 0 -1 0 792)" d="M518.694 726.5825L477.863 726.2575L477.717 744.3215L518.551 744.6465z" stroke="none" fill="#FFFFFF" fill-rule="nonzero" /><path id="715" transform="matrix(1 0 0 -1 0 792)" d="M512.9904 473.386L476.4474 473.096L476.3154 489.485L512.8614 489.775z" stroke="none" fill="#FFFFFF" fill-rule="nonzero" /><path id="719" transform="matrix(1 0 0 -1 0 792)" d="M241.2253 464.287L200.3933 463.962L200.2483 482.026L241.0823 482.352z" stroke="none" fill="#FFFFFF" fill-rule="nonzero" /><path id="725" transform="matrix(1 0 0 -1 0 792)" d="M195.6985 716.6062L174.7785 686.9302" stroke="#221E1F" stroke-width="1.224" fill="none" /><path id="726" transform="matrix(1 0 0 -1 0 792)" d="M173.4522 690.5368L169.1842 678.9278L178.6852 686.8478z" stroke="none" fill="#221E1F" fill-rule="nonzero" /><path id="727" transform="matrix(1 0 0 -1 0 792)" d="M480.8947 729.5498L459.2957 704.8898" stroke="#221E1F" stroke-width="1.224" fill="none" /><path id="728" transform="matrix(1 0 0 -1 0 792)" d="M458.3547 708.6161L452.8907 697.5211L463.1717 704.3971z" stroke="none" fill="#221E1F" fill-rule="nonzero" /><path id="729" transform="matrix(1 0 0 -1 0 792)" d="M477.7062 478.1136L462.6432 464.7236" stroke="#221E1F" stroke-width="1.224" fill="none" /><path id="730" transform="matrix(1 0 0 -1 0 792)" d="M462.1738 468.5384L455.3718 458.2104L466.4278 463.7534z" stroke="none" fill="#221E1F" fill-rule="nonzero" /><path id="731" transform="matrix(1 0 0 -1 0 792)" d="M205.7415 465.5617L169.7585 435.8547" stroke="#221E1F" stroke-width="1.224" fill="none" /><path id="732" transform="matrix(1 0 0 -1 0 792)" d="M169.4298 439.6826L162.2548 429.6086L173.5058 434.7456z" stroke="none" fill="#221E1F" fill-rule="nonzero" /><path id="733" transform="matrix(1 0 0 -1 0 792)" d="M131.968 682.744L65.439 682.744L65.439 697.03L131.968 697.03z" stroke="none" fill="#FFFFFF" fill-rule="nonzero" /><path id="747" transform="matrix(1 0 0 -1 0 792)" d="M59.316 634.174L103.397 634.174L103.397 661.112L59.316 661.112z" stroke="none" fill="#FFFFFF" fill-rule="nonzero" /><path id="760" transform="matrix(1 0 0 -1 0 792)" d="M142.988 567.237L155.64 567.237L155.64 557.032L142.988 557.032z" stroke="none" fill="#FFFFFF" fill-rule="nonzero" /><path id="776" transform="matrix(1 0 0 -1 0 792)" d="M129.112 434.176L67.481 434.176L67.481 446.828L129.112 446.828z" stroke="none" fill="#FFFFFF" fill-rule="nonzero" /><path id="790" transform="matrix(1 0 0 -1 0 792)" d="M147.071 377.852L190.744 377.852L190.744 400.3L147.071 400.3z" stroke="none" fill="#FFFFFF" fill-rule="nonzero" /><path id="804" transform="matrix(1 0 0 -1 0 792)" d="M197.274 315.404L147.071 315.404L147.071 325.2L197.274 325.2z" stroke="none" fill="#FFFFFF" fill-rule="nonzero" /><path id="819" transform="matrix(1 0 0 -1 0 792)" d="M134.8206 713.3376L67.6716 712.8026L67.4176 744.4736L134.5706 745.0086z" stroke="none" fill="#FFFFFF" fill-rule="nonzero" /><path id="836" transform="matrix(1 0 0 -1 0 792)" d="M390.7349 712.1132L323.5849 711.5782L323.3309 743.2492L390.4839 743.7842z" stroke="none" fill="#FFFFFF" fill-rule="nonzero" /><path id="853" transform="matrix(1 0 0 -1 0 792)" d="M396.8572 459.8728L329.7072 459.3378L329.4532 491.0098L396.6062 491.5448z" stroke="none" fill="#FFFFFF" fill-rule="nonzero" /><path id="870" transform="matrix(1 0 0 -1 0 792)" d="M131.9987 458.1855L64.8497 457.6505L64.5947 489.3215L131.7477 489.8565z" stroke="none" fill="#FFFFFF" fill-rule="nonzero" /></g></g></svg>