<svg xmlns="http://www.w3.org/2000/svg" xmlns:xlink="http://www.w3.org/1999/xlink" id="body_39" preserveAspectRatio="xMinYMin meet" viewBox="0 0 816 1056"><defs><clipPath id="1"><path id="" clip-rule="evenodd" transform="matrix(1 0 0 1 0 0)" d="M0 792L0 0L0 0L612 0L612 0L612 792L612 792L0 792z" /></clipPath><clipPath id="2"><path id="" clip-rule="evenodd" transform="matrix(1 0 0 1 0 0)" d="M46.5 742L588.8 742L588.8 742L588.8 38.20001L588.8 38.20001L46.5 38.20001z" /></clipPath><clipPath id="3"><path id="" clip-rule="evenodd" transform="matrix(1 0 0 1 0 0)" d="M114.5 497.714L504 497.714L504 497.714L504 330.714L504 330.714L114.5 330.714z" /></clipPath><clipPath id="4"><path id="" clip-rule="evenodd" transform="matrix(1 0 0 1 0 0)" d="M355.08 96.901L444.08 96.901L444.08 96.901L444.08 62.04999L444.08 62.04999L355.08 62.04999z" /></clipPath><clipPath id="5"><path id="" clip-rule="evenodd" transform="matrix(1 0 0 1 0 0)" d="M319.08 248.932L560.16 248.932L560.16 248.932L560.16 136.182L560.16 136.182L319.08 136.182z" /></clipPath></defs><g transform="matrix(1.333333 0 0 1.333333 0 0)"><g clip-path="url(#1)"><path id="1" transform="matrix(1 0 0 -1 0 792)" d="M54 39.5055L558 39.5055" stroke="#221E1F" stroke-width="0.5" fill="none" /><path id="30" transform="matrix(1 0 0 -1 0 792)" d="M46.5 50L588.8 50L588.8 753.8L46.5 753.8z" stroke="none" fill="#FFFFFF" fill-rule="nonzero" /><g clip-path="url(#2)"></g><path id="43" transform="matrix(1 0 0 -1 0 792)" d="M247.2015 351.8824L270.7815 351.8824" stroke="#221E1F" stroke-width="1" fill="none" /><path id="44" transform="matrix(1 0 0 -1 0 792)" d="M247.6168 354.5172L242.8268 351.8822L247.6168 349.2472z" stroke="none" fill="#221E1F" fill-rule="nonzero" /><path id="45" transform="matrix(1 0 0 -1 0 792)" d="M270.3665 354.5172L275.1565 351.8822L270.3665 349.2472z" stroke="none" fill="#221E1F" fill-rule="nonzero" /><path id="46" transform="matrix(1 0 0 -1 0 792)" d="M338.4978 335.7816L359.3318 335.7816" stroke="#221E1F" stroke-width="1" fill="none" /><path id="47" transform="matrix(1 0 0 -1 0 792)" d="M338.9131 338.4164L334.1231 335.7814L338.9131 333.1464z" stroke="none" fill="#221E1F" fill-rule="nonzero" /><path id="48" transform="matrix(1 0 0 -1 0 792)" d="M358.9164 338.4164L363.7064 335.7814L358.9164 333.1464z" stroke="none" fill="#221E1F" fill-rule="nonzero" /><path id="49" transform="matrix(1 0 0 -1 0 792)" d="M317.8539 384.3178L317.8539 391.5728L317.8539 391.5728L307.4549 391.5728M392.3399 376.7318L381.4179 376.7318L381.4179 376.7318L381.4179 367.3168" stroke="#221E1F" stroke-width="1" fill="none" /><path id="66" transform="matrix(1 0 0 -1 0 792)" d="M116.9277 381.1805L450.2637 381.1805" stroke="#EE1C23" stroke-width="1" stroke-dasharray="5,3" fill="none" /><path id="67" transform="matrix(1 0 0 -1 0 792)" d="M208.5977 364.6976L208.5977 309.3626M184.3687 452.3686L184.3687 334.0836M364.4887 449.8706L364.4887 331.5866M333.5897 409.4146L333.5897 331.8356M242.1697 393.4346L242.1697 329.8416M276.2267 428.3966L276.2267 311.6096M116.9277 351.8136L460.2737 351.8136" stroke="#221E1F" stroke-width="1" stroke-dasharray="5,3" fill="none" /><g clip-path="url(#3)"><path id="68" transform="matrix(1 0 0 -1 0 792)" d="M184.3246 295.1508L208.5976 295.1508L208.5976 295.1508L208.5976 309.6608L208.5976 309.6608L276.2266 309.6608L276.2266 309.6608L276.2266 295.1508L276.2266 295.1508L364.4896 295.1508L364.4896 295.1508L364.4896 309.6608L364.4896 309.6608L388.8306 309.6608" stroke="#221E1F" stroke-width="1" fill="none" /></g><path id="69" transform="matrix(1 0 0 -1 0 792)" d="M158.9667 414.2884L462.3267 414.2884" stroke="#0060AF" stroke-width="1" stroke-dasharray="5,3" fill="none" /><path id="70" transform="matrix(1 0 0 -1 0 792)" d="M116.7579 435.0972L483.1549 435.0972" stroke="#0060AF" stroke-width="1" fill="none" /><path id="71" transform="matrix(1 0 0 -1 0 792)" d="M116.7579 437.8443L401.8869 437.8443" stroke="#221E1F" stroke-width="1" stroke-dasharray="5,3" fill="none" /><path id="72" transform="matrix(1 0 0 -1 0 792)" d="M364.5436 351.9662L421.9956 401.6772M208.4656 352.0452L129.9466 404.4022M364.4216 352.1302L276.0506 410.8812M208.6526 352.1702L276.0506 410.8812" stroke="#EE1C23" stroke-width="2" stroke-linecap="round" fill="none" /><path id="85" transform="matrix(1 0 0 -1 0 792)" d="M490.3095 389.4055L364.5355 437.3845L364.5355 437.3845L333.5885 391.8885L333.5885 391.8885L212.3285 437.3685" stroke="#221E1F" stroke-width="2" stroke-linecap="round" fill="none" /><path id="86" transform="matrix(1 0 0 -1 0 792)" d="M264.8531 419.3646L264.8531 423.7416L264.8531 423.7416L253.4551 423.7416" stroke="#221E1F" stroke-width="1" fill="none" /><path id="89" transform="matrix(1 0 0 -1 0 792)" d="M213.3819 318.0507L271.1759 318.0507" stroke="#221E1F" stroke-width="1" fill="none" /><path id="90" transform="matrix(1 0 0 -1 0 792)" d="M213.7972 320.6855L209.0072 318.0505L213.7972 315.4155z" stroke="none" fill="#221E1F" fill-rule="nonzero" /><path id="91" transform="matrix(1 0 0 -1 0 792)" d="M270.7609 320.6855L275.5509 318.0505L270.7609 315.4155z" stroke="none" fill="#221E1F" fill-rule="nonzero" /><path id="92" transform="matrix(1 0 0 -1 0 792)" d="M175.4232 414.3967L175.4232 433.0737" stroke="#221E1F" stroke-width="1" fill="none" /><path id="93" transform="matrix(1 0 0 -1 0 792)" d="M172.7884 432.658L175.4234 437.448L178.0584 432.658z" stroke="none" fill="#221E1F" fill-rule="nonzero" /><path id="94" transform="matrix(1 0 0 -1 0 792)" d="M441.8762 434.7422L441.8762 419.8212" stroke="#0060AF" stroke-width="1" fill="none" /><path id="95" transform="matrix(1 0 0 -1 0 792)" d="M444.511 420.2363L441.876 415.4463L439.241 420.2363z" stroke="none" fill="#0060AF" fill-rule="nonzero" /><path id="154" transform="matrix(1 0 0 -1 0 792)" d="M240.2019 432.5211L242.1629 449.9881" stroke="#221E1F" stroke-width="1" fill="none" /><path id="155" transform="matrix(1 0 0 -1 0 792)" d="M237.6301 433.228L239.7141 428.174L242.8671 432.64z" stroke="none" fill="#221E1F" fill-rule="nonzero" /><path id="169" transform="matrix(1 0 0 -1 0 792)" d="M134.9445 423.4796L171.7235 423.4796" stroke="#221E1F" stroke-width="0.6" fill="none" /><path id="170" transform="matrix(1 0 0 -1 0 792)" d="M247.1987 336.6077L271.3497 336.6077" stroke="#221E1F" stroke-width="1" fill="none" /><path id="1019" transform="matrix(1 0 0 -1 0 792)" d="M382.955 713.5493L413.143 713.5493" stroke="#060606" stroke-width="0.594" stroke-linecap="square" fill="none" /><path id="1020" transform="matrix(1 0 0 -1 0 792)" d="M425.8925 713.5493L438.4235 713.5493" stroke="#060606" stroke-width="0.594" stroke-linecap="square" fill="none" /><g clip-path="url(#4)"></g><g clip-path="url(#5)"></g><path id="1111" transform="matrix(1 0 0 -1 0 792)" d="M396.7134 636.6002L462.8895 636.6002" stroke="#060606" stroke-width="0.2609892" stroke-linecap="square" fill="none" /><path id="1114" transform="matrix(1 0 0 -1 0 792)" d="M383.5651 601.4943L449.7412 601.4943" stroke="#060606" stroke-width="0.2609892" stroke-linecap="square" fill="none" /><path id="1115" transform="matrix(1 0 0 -1 0 792)" d="M382.6944 619.2394L476.9087 619.2394" stroke="#060606" stroke-width="0.5516996" stroke-linecap="square" fill="none" /><path id="1122" transform="matrix(1 0 0 -1 0 792)" d="M382.6944 563.121L550.2244 563.121" stroke="#060606" stroke-width="0.5516996" stroke-linecap="square" fill="none" /><path id="1329" transform="matrix(1 0 0 -1 0 792)" d="M173.5312 187.5491L203.7192 187.5491" stroke="#060606" stroke-width="0.594" stroke-linecap="square" fill="none" /><path id="1330" transform="matrix(1 0 0 -1 0 792)" d="M331.4062 187.5491L371.9372 187.5491" stroke="#060606" stroke-width="0.594" stroke-linecap="square" fill="none" /><path id="1398" transform="matrix(1 0 0 -1 0 792)" d="M114.3247 101.3321L193.1057 101.3321" stroke="#060606" stroke-width="0.594" stroke-linecap="square" fill="none" /><path id="1399" transform="matrix(1 0 0 -1 0 792)" d="M205.856 101.3321L264.512 101.3321" stroke="#060606" stroke-width="0.594" stroke-linecap="square" fill="none" /><path id="1400" transform="matrix(1 0 0 -1 0 792)" d="M279.9497 120.8009L319.6377 120.8009" stroke="#060606" stroke-width="0.594" stroke-linecap="square" fill="none" /><path id="1401" transform="matrix(1 0 0 -1 0 792)" d="M330.8872 120.8009L345.7002 120.8009" stroke="#060606" stroke-width="0.594" stroke-linecap="square" fill="none" /><path id="1402" transform="matrix(1 0 0 -1 0 792)" d="M355.8247 120.8009L414.4807 120.8009" stroke="#060606" stroke-width="0.594" stroke-linecap="square" fill="none" /><path id="1403" transform="matrix(1 0 0 -1 0 792)" d="M445.981 120.8009L485.731 120.8009" stroke="#060606" stroke-width="0.594" stroke-linecap="square" fill="none" /><path id="1404" transform="matrix(1 0 0 -1 0 792)" d="M288.3872 82.6134L305.0752 82.6134" stroke="#060606" stroke-width="0.594" stroke-linecap="square" fill="none" /><path id="1405" transform="matrix(1 0 0 -1 0 792)" d="M321.0747 82.6134L361.6057 82.6134" stroke="#060606" stroke-width="0.594" stroke-linecap="square" fill="none" /><path id="1406" transform="matrix(1 0 0 -1 0 792)" d="M372.856 82.6134L431.512 82.6134" stroke="#060606" stroke-width="0.594" stroke-linecap="square" fill="none" /><path id="1529" transform="matrix(1 0 0 -1 0 792)" d="M54 232.1196L560.16 232.1196" stroke="#221E1F" stroke-width="0.5" fill="none" /></g></g></svg>