<svg xmlns="http://www.w3.org/2000/svg" xmlns:xlink="http://www.w3.org/1999/xlink" id="body_15" preserveAspectRatio="xMinYMin meet" viewBox="0 0 816 1056"><defs><clipPath id="1"><path id="" clip-rule="evenodd" transform="matrix(1 0 0 1 0 0)" d="M0 792L0 0L0 0L612 0L612 0L612 792L612 792L0 792z" /></clipPath><clipPath id="2"><path id="" clip-rule="evenodd" transform="matrix(1 0 0 1 0 0)" d="M45 723.5L547.5 723.5L547.5 723.5L547.5 44L547.5 44L45 44z" /></clipPath><clipPath id="3"><path id="" clip-rule="evenodd" transform="matrix(1 0 0 1 0 0)" d="M92.225 383.5L521.935 383.5L521.935 383.5L521.935 44L521.935 44L92.225 44z" /></clipPath><clipPath id="4"><path id="" clip-rule="evenodd" transform="matrix(1 0 0 1 0 0)" d="M92.225 383.5L521.935 383.5L521.935 383.5L521.935 44L521.935 44L92.225 44z" /></clipPath><clipPath id="5"><path id="" clip-rule="evenodd" transform="matrix(1 0 0 1 0 0)" d="M92.225 383.5L521.935 383.5L521.935 383.5L521.935 44L521.935 44L92.225 44z" /></clipPath><clipPath id="6"><path id="" clip-rule="evenodd" transform="matrix(1 0 0 1 0 0)" d="M92.225 383.5L521.935 383.5L521.935 383.5L521.935 44L521.935 44L92.225 44z" /></clipPath><clipPath id="7"><path id="" clip-rule="evenodd" transform="matrix(1 0 0 1 0 0)" d="M92.225 383.5L521.935 383.5L521.935 383.5L521.935 44L521.935 44L92.225 44z" /></clipPath><clipPath id="8"><path id="" clip-rule="evenodd" transform="matrix(1 0 0 1 0 0)" d="M92.225 383.5L521.935 383.5L521.935 383.5L521.935 44L521.935 44L92.225 44z" /></clipPath><clipPath id="9"><path id="" clip-rule="evenodd" transform="matrix(1 0 0 1 0 0)" d="M92.225 383.5L521.935 383.5L521.935 383.5L521.935 44L521.935 44L92.225 44z" /></clipPath><clipPath id="10"><path id="" clip-rule="evenodd" transform="matrix(1 0 0 1 0 0)" d="M340.7 617.501L538.578 617.501L538.578 617.501L538.578 463.79L538.578 463.79L340.7 463.79z" /></clipPath><clipPath id="11"><path id="" clip-rule="evenodd" transform="matrix(1 0 0 1 0 0)" d="M340.7 617.501L538.578 617.501L538.578 617.501L538.578 463.79L538.578 463.79L340.7 463.79z" /></clipPath></defs><g transform="matrix(1.333333 0 0 1.333333 0 0)"><g clip-path="url(#1)"><path id="1" transform="matrix(1 0 0 -1 0 792)" d="M54 39.5055L558 39.5055" stroke="#221E1F" stroke-width="0.5" fill="none" /><path id="30" transform="matrix(1 0 0 -1 0 792)" d="M45 68.5L547.5 68.5L547.5 748L45 748z" stroke="none" fill="#FFFFFF" fill-rule="nonzero" /><g clip-path="url(#2)"></g><g clip-path="url(#3)"><path id="732" transform="matrix(1 0 0 -1 0 792)" d="M225.4 599.215L93.498 599.215L93.498 599.215L93.498 667.311L93.498 667.311L225.4 667.311z" stroke="#48B84D" stroke-width="0.97" stroke-dasharray="4.85,0.97" fill="none" /></g><path id="733" transform="matrix(1 0 0 -1 0 792)" d="M387.0879 443.1474L387.0879 430.4134" stroke="#221E1F" stroke-width="0.97" fill="none" /><g clip-path="url(#4)"><path id="734" transform="matrix(1 0 0 -1 0 792)" d="M389.0434 443.1474C 389.0434 444.2234 388.1654 445.1034 387.0874 445.1034C 386.0104 445.1034 385.1324 444.2234 385.1324 443.1474C 385.1324 442.0714 386.0104 441.1914 387.0874 441.1914C 388.1654 441.1914 389.0434 442.0714 389.0434 443.1474" stroke="none" fill="#221E1F" fill-rule="evenodd" /><path id="735" transform="matrix(1 0 0 -1 0 792)" d="M209.7377 500.0918L209.7377 512.9428" stroke="#221E1F" stroke-width="0.97" fill="none" /><path id="736" transform="matrix(1 0 0 -1 0 792)" d="M219.7779 506.5176L219.7779 501.4976L219.7779 501.4976L209.7379 506.5176L209.7379 506.5176L219.7779 511.5376z" stroke="none" fill="#221E1F" fill-rule="evenodd" /><path id="737" transform="matrix(1 0 0 -1 0 792)" d="M219.7779 506.5176L219.7779 501.4976L219.7779 501.4976L209.7379 506.5176L209.7379 506.5176L219.7779 511.5376L219.7779 511.5376L219.7779 506.5176z" stroke="#221E1F" stroke-width="0.97" fill="none" /><path id="738" transform="matrix(1 0 0 -1 0 792)" d="M209.7372 506.5176L176.9392 506.5176M279.8972 506.5176L219.7772 506.5176" stroke="#221E1F" stroke-width="0.97" fill="none" /><path id="739" transform="matrix(1 0 0 -1 0 792)" d="M273.5803 533.7563L273.5803 516.9313" stroke="#B9681C" stroke-width="0.97" fill="none" /><path id="740" transform="matrix(1 0 0 -1 0 792)" d="M276.1361 517.3344L273.5801 512.6884L273.5801 512.6884L271.0241 517.3344z" stroke="none" fill="#B9681C" fill-rule="evenodd" /><path id="741" transform="matrix(1 0 0 -1 0 792)" d="M315.1048 529.9434L315.1048 512.6334" stroke="#46785D" stroke-width="0.97" fill="none" /><path id="742" transform="matrix(1 0 0 -1 0 792)" d="M317.6606 529.5406L315.1046 534.1866L315.1046 534.1866L312.5486 529.5406z" stroke="none" fill="#46785D" fill-rule="evenodd" /><path id="743" transform="matrix(1 0 0 -1 0 792)" d="M225.6993 722.9956L225.6993 710.1436M331.4243 640.7546L331.4243 627.9036M331.4243 723.1166L331.4243 710.2656M296.1813 721.5766L296.1823 538.0436M292.9263 721.5756L292.9263 538.0436" stroke="#221E1F" stroke-width="0.97" fill="none" /><path id="744" transform="matrix(1 0 0 -1 0 792)" d="M321.3839 716.5092L321.3839 721.5292L321.3839 721.5292L331.4239 716.5092L331.4239 716.5092L321.3839 711.4892z" stroke="none" fill="#221E1F" fill-rule="evenodd" /><path id="745" transform="matrix(1 0 0 -1 0 792)" d="M321.3839 634.1475L321.3839 639.1675L321.3839 639.1675L331.4239 634.1475L331.4239 634.1475L321.3839 629.1275z" stroke="none" fill="#221E1F" fill-rule="evenodd" /><path id="746" transform="matrix(1 0 0 -1 0 792)" d="M235.7394 716.5637L235.7394 721.5837L235.7394 721.5837L225.6994 716.5637L225.6994 716.5637L235.7394 711.5437z" stroke="none" fill="#221E1F" fill-rule="evenodd" /><path id="747" transform="matrix(1 0 0 -1 0 792)" d="M376.9831 698.4492L391.6441 702.6532" stroke="#221E1F" stroke-width="0.97" fill="none" /><path id="748" transform="matrix(1 0 0 -1 0 792)" d="M390.5527 704.9985L395.7237 703.8224L395.7237 703.8224L391.9617 700.0845z" stroke="none" fill="#221E1F" fill-rule="evenodd" /><path id="749" transform="matrix(1 0 0 -1 0 792)" d="M376.9831 616.0875L391.6441 620.2915" stroke="#221E1F" stroke-width="0.97" fill="none" /><path id="750" transform="matrix(1 0 0 -1 0 792)" d="M390.5527 622.6368L395.7237 621.4608L395.7237 621.4608L391.9617 617.7228z" stroke="none" fill="#221E1F" fill-rule="evenodd" /><path id="751" transform="matrix(1 0 0 -1 0 792)" d="M331.424 716.557L384.168 716.557L384.168 716.557L384.168 716.423" stroke="#221E1F" stroke-width="0.97" fill="none" /><path id="752" transform="matrix(1 0 0 -1 0 792)" d="M386.1239 716.4232C 386.1239 715.3472 385.2459 714.4672 384.1679 714.4672C 383.0909 714.4672 382.2129 715.3472 382.2129 716.4232C 382.2129 717.4992 383.0909 718.3782 384.1679 718.3782C 385.2459 718.3782 386.1239 717.4992 386.1239 716.4232" stroke="none" fill="#221E1F" fill-rule="evenodd" /><path id="753" transform="matrix(1 0 0 -1 0 792)" d="M331.424 634.1953L384.168 634.1953L384.168 634.1953L384.168 634.0613" stroke="#221E1F" stroke-width="0.97" fill="none" /><path id="754" transform="matrix(1 0 0 -1 0 792)" d="M386.1239 634.0615C 386.1239 632.9855 385.2459 632.1055 384.1679 632.1055C 383.0909 632.1055 382.2129 632.9855 382.2129 634.0615C 382.2129 635.1375 383.0909 636.0175 384.1679 636.0175C 385.2459 636.0175 386.1239 635.1375 386.1239 634.0615" stroke="none" fill="#221E1F" fill-rule="evenodd" /><path id="755" transform="matrix(1 0 0 -1 0 792)" d="M397.5742 488.4645L419.0602 488.4645L419.0602 488.4645L419.0602 458.2105L419.0602 458.2105L465.0732 458.2105M309.2822 461.2825L309.2812 443.2645L309.2812 443.2645L397.5402 443.2645L397.5402 443.2645L397.5352 461.2165M433.6592 583.3745L449.5222 583.3745M205.4022 584.5855L189.5392 584.5855M195.5422 727.1325L179.6792 727.1325M391.9992 644.7705L376.1362 644.7705M391.9992 727.1325L376.1362 727.1325M412.6152 591.8925L412.6152 601.9325L412.6152 601.9325L344.3352 601.9325M412.6152 674.2545L412.6152 684.2945L412.6152 684.2945L344.3352 684.2945" stroke="#221E1F" stroke-width="0.97" fill="none" /><path id="756" transform="matrix(1 0 0 -1 0 792)" d="M397.5743 490.4198C 396.4983 490.4198 395.6183 489.5418 395.6183 488.4638C 395.6183 487.3868 396.4983 486.5088 397.5743 486.5088C 398.6503 486.5088 399.5303 487.3868 399.5303 488.4638C 399.5303 489.5418 398.6503 490.4198 397.5743 490.4198" stroke="none" fill="#221E1F" fill-rule="evenodd" /><path id="757" transform="matrix(1 0 0 -1 0 792)" d="M464.6708 460.7658L469.3168 458.2098L469.3168 458.2098L464.6708 455.6538z" stroke="none" fill="#221E1F" fill-rule="evenodd" /><path id="758" transform="matrix(1 0 0 -1 0 792)" d="M430.5283 465.598L452.9243 465.598M217.3013 622.916L217.3013 574.107L217.3013 574.107L176.9943 574.107L176.9943 574.107L176.9943 565.955" stroke="#221E1F" stroke-width="0.97" fill="none" /><path id="759" transform="matrix(1 0 0 -1 0 792)" d="M452.5217 468.154L457.1677 465.598L457.1677 465.598L452.5217 463.042z" stroke="none" fill="#221E1F" fill-rule="evenodd" /><path id="760" transform="matrix(1 0 0 -1 0 792)" d="M256.6587 464.4541L181.9867 464.4541" stroke="#221E1F" stroke-width="0.97" fill="none" /><path id="761" transform="matrix(1 0 0 -1 0 792)" d="M256.6587 462.4986C 257.7347 462.4986 258.6147 463.3766 258.6147 464.4546C 258.6147 465.5316 257.7347 466.4096 256.6587 466.4096C 255.5827 466.4096 254.7027 465.5316 254.7027 464.4546C 254.7027 463.3766 255.5827 462.4986 256.6587 462.4986" stroke="none" fill="#221E1F" fill-rule="evenodd" /><path id="762" transform="matrix(1 0 0 -1 0 792)" d="M182.3896 461.8984L177.7436 464.4544L177.7436 464.4544L182.3896 467.0104z" stroke="none" fill="#221E1F" fill-rule="evenodd" /></g><g clip-path="url(#5)"><path id="965" transform="matrix(1 0 0 -1 0 792)" d="M176.995 565.8956L176.995 538.0696M371.498 464.1046L382.107 464.1046M335.402 484.9376L324.793 484.9376M182.18 538.0696L171.571 538.0696M382.107 460.5676L371.498 460.5676M324.793 481.3996L335.402 481.3996M171.571 534.5316L182.18 534.5316" stroke="#221E1F" stroke-width="0.97" fill="none" /><path id="966" transform="matrix(1 0 0 -1 0 792)" d="M178.9504 565.8958C 178.9504 566.9718 178.0724 567.8508 176.9944 567.8508C 175.9174 567.8508 175.0394 566.9718 175.0394 565.8958C 175.0394 564.8198 175.9174 563.9398 176.9944 563.9398C 178.0724 563.9398 178.9504 564.8198 178.9504 565.8958" stroke="none" fill="#221E1F" fill-rule="evenodd" /><path id="967" transform="matrix(1 0 0 -1 0 792)" d="M309.2424 495.7966L330.0974 495.7966L330.0974 495.7966L330.0974 484.9376" stroke="#221E1F" stroke-width="0.97" fill="none" /><path id="968" transform="matrix(1 0 0 -1 0 792)" d="M309.2424 497.7522C 308.1664 497.7522 307.2864 496.8742 307.2864 495.7962C 307.2864 494.7192 308.1664 493.8412 309.2424 493.8412C 310.3184 493.8412 311.1984 494.7192 311.1984 495.7962C 311.1984 496.8742 310.3184 497.7522 309.2424 497.7522" stroke="none" fill="#221E1F" fill-rule="evenodd" /><path id="969" transform="matrix(1 0 0 -1 0 792)" d="M397.6579 481.2622L376.8029 481.2622L376.8029 481.2622L376.8029 463.8622" stroke="#221E1F" stroke-width="0.97" fill="none" /><path id="970" transform="matrix(1 0 0 -1 0 792)" d="M397.6579 479.3067C 398.7339 479.3067 399.6139 480.1847 399.6139 481.2627C 399.6139 482.3397 398.7339 483.2177 397.6579 483.2177C 396.5819 483.2177 395.7019 482.3397 395.7019 481.2627C 395.7019 480.1847 396.5819 479.3067 397.6579 479.3067" stroke="none" fill="#221E1F" fill-rule="evenodd" /><path id="971" transform="matrix(1 0 0 -1 0 792)" d="M176.9949 534.5316L176.9949 506.5176" stroke="#221E1F" stroke-width="0.97" fill="none" /><path id="972" transform="matrix(1 0 0 -1 0 792)" d="M178.9501 506.5176C 178.9501 505.4416 178.0721 504.5616 176.9941 504.5616C 175.9171 504.5616 175.0391 505.4416 175.0391 506.5176C 175.0391 507.5936 175.9171 508.4736 176.9941 508.4736C 178.0721 508.4736 178.9501 507.5936 178.9501 506.5176" stroke="none" fill="#221E1F" fill-rule="evenodd" /><path id="973" transform="matrix(1 0 0 -1 0 792)" d="M330.0977 443.2646L330.0997 455.5046L330.0997 455.5046L334.3457 456.7626L334.3457 456.7626L325.8437 459.2826L325.8437 459.2826L334.3457 461.8036L334.3457 461.8036L325.8437 464.3226L325.8437 464.3226L334.3457 466.8426L334.3457 466.8426L325.8437 469.3616L325.8437 469.3616L330.0977 470.6206L330.0977 470.6206L330.0977 481.3996" stroke="#221E1F" stroke-width="0.97" fill="none" /><path id="974" transform="matrix(1 0 0 -1 0 792)" d="M328.1421 443.2649C 328.1421 442.1899 329.0201 441.3089 330.0971 441.3089C 331.1751 441.3089 332.0531 442.1889 332.0531 443.2639C 332.0531 444.3399 331.1751 445.2199 330.0981 445.2199C 329.0201 445.2209 328.1421 444.3409 328.1421 443.2649" stroke="none" fill="#221E1F" fill-rule="evenodd" /><path id="975" transform="matrix(1 0 0 -1 0 792)" d="M176.9946 506.5176L134.3676 506.5176L134.3676 506.5176L134.3266 530.7976L134.3266 530.7976L138.5726 532.0556L138.5726 532.0556L130.0716 534.5756L130.0716 534.5756L138.5726 537.0966L138.5726 537.0966L130.0716 539.6156L130.0716 539.6156L138.5726 542.1356L138.5726 542.1356L130.0716 544.6546L130.0716 544.6546L134.3246 545.9136L134.3246 545.9136L134.3696 565.8956L134.3696 565.8956L176.9946 565.8956" stroke="#221E1F" stroke-width="0.97" fill="none" /><path id="976" transform="matrix(1 0 0 -1 0 792)" d="M176.9946 504.5621C 178.0706 504.5621 178.9506 505.4401 178.9506 506.5181C 178.9506 507.5951 178.0706 508.4731 176.9946 508.4731C 175.9186 508.4731 175.0386 507.5951 175.0386 506.5181C 175.0386 505.4401 175.9186 504.5621 176.9946 504.5621" stroke="none" fill="#221E1F" fill-rule="evenodd" /><path id="977" transform="matrix(1 0 0 -1 0 792)" d="M384.1612 684.1679L384.1622 692.8639L384.1622 692.8639L388.4092 694.1219L388.4092 694.1219L379.9072 696.6419L379.9072 696.6419L388.4092 699.1629L388.4092 699.1629L379.9072 701.6819L379.9072 701.6819L388.4092 704.2019L388.4092 704.2019L379.9072 706.7209L379.9072 706.7209L384.1612 707.9809L384.1612 707.9809L384.1612 727.3579M273.1352 716.5569L268.0732 716.5569L268.0732 716.5569L266.8152 720.8099L266.8152 720.8099L264.2952 712.3089L264.2952 712.3089L261.7742 720.8099L261.7742 720.8099L259.2552 712.3089L259.2552 712.3089L256.7352 720.8099L256.7352 720.8099L254.2162 712.3089L254.2162 712.3089L252.9582 716.5569L252.9582 716.5569L235.7392 716.5569M256.9202 425.7229L256.9222 440.3849L256.9222 440.3849L261.1682 441.6439L261.1682 441.6439L252.6662 444.1629L252.6662 444.1629L261.1682 446.6849L261.1682 446.6849L252.6662 449.2029L252.6662 449.2029L261.1682 451.7239L261.1682 451.7239L252.6662 454.2429L252.6662 454.2429L256.9202 455.5019L256.9202 455.5019L256.9202 473.1839" stroke="#221E1F" stroke-width="0.97" fill="none" /><path id="978" transform="matrix(1 0 0 -1 0 792)" d="M382.2051 684.1686C 382.2051 683.0926 383.0831 682.2126 384.1601 682.2126C 385.2381 682.2126 386.1161 683.0926 386.1161 684.1676C 386.1161 685.2436 385.2381 686.1236 384.1611 686.1236C 383.0841 686.1236 382.2051 685.2436 382.2051 684.1686" stroke="none" fill="#221E1F" fill-rule="evenodd" /><path id="979" transform="matrix(1 0 0 -1 0 792)" d="M384.1607 601.8065L384.1627 610.5025L384.1627 610.5025L388.4087 611.7605L388.4087 611.7605L379.9067 614.2805L379.9067 614.2805L388.4087 616.8015L388.4087 616.8015L379.9067 619.3205L379.9067 619.3205L388.4087 621.8405L388.4087 621.8405L379.9067 624.3595L379.9067 624.3595L384.1607 625.6185L384.1607 625.6185L384.1607 644.9955" stroke="#221E1F" stroke-width="0.97" fill="none" /><path id="980" transform="matrix(1 0 0 -1 0 792)" d="M382.2051 601.8069C 382.2051 600.7309 383.0831 599.8509 384.1601 599.8509C 385.2381 599.8509 386.1161 600.7309 386.1161 601.8059C 386.1161 602.8819 385.2381 603.7619 384.1611 603.7619C 383.0841 603.7619 382.2051 602.8819 382.2051 601.8069" stroke="none" fill="#221E1F" fill-rule="evenodd" /><path id="981" transform="matrix(1 0 0 -1 0 792)" d="M393.2423 430.3791L380.9663 430.3791L380.9663 430.3791L387.1043 420.4211z" stroke="none" fill="#FFFFFF" fill-rule="evenodd" /><path id="982" transform="matrix(1 0 0 -1 0 792)" d="M393.2423 430.3791L380.9663 430.3791L380.9663 430.3791L387.1043 420.4211L387.1043 420.4211L393.2423 430.3791z" stroke="#221E1F" stroke-width="0.97" fill="none" /><path id="983" transform="matrix(1 0 0 -1 0 792)" d="M418.7169 674.2304L406.4409 674.2304L406.4409 674.2304L412.5789 664.2724z" stroke="none" fill="#FFFFFF" fill-rule="evenodd" /><path id="984" transform="matrix(1 0 0 -1 0 792)" d="M418.7169 674.2304L406.4409 674.2304L406.4409 674.2304L412.5789 664.2724L412.5789 664.2724L418.7169 674.2304z" stroke="#221E1F" stroke-width="0.97" fill="none" /><path id="985" transform="matrix(1 0 0 -1 0 792)" d="M418.7169 591.8687L406.4409 591.8687L406.4409 591.8687L412.5789 581.9107z" stroke="none" fill="#FFFFFF" fill-rule="evenodd" /><path id="986" transform="matrix(1 0 0 -1 0 792)" d="M418.7169 591.8687L406.4409 591.8687L406.4409 591.8687L412.5789 581.9107L412.5789 581.9107L418.7169 591.8687z" stroke="#221E1F" stroke-width="0.97" fill="none" /><path id="987" transform="matrix(1 0 0 -1 0 792)" d="M230.4971 684.2946L285.4691 684.2946C 287.7011 684.2946 289.5121 686.0596 289.5121 688.2916C 289.5121 690.5246 287.7011 692.3286 285.4691 692.3286C 287.7011 692.3286 289.5121 694.1336 289.5121 696.3656C 289.5121 698.5986 287.7011 700.4026 285.4691 700.4026C 287.7011 700.4026 289.5121 702.2076 289.5121 704.4396C 289.5121 706.6726 287.7011 708.4866 285.4691 708.4866C 287.7011 708.4866 289.5121 710.3006 289.5121 712.5336C 289.5121 714.7656 287.7011 716.5576 285.4691 716.5576L285.4691 716.5576L273.0731 716.5576M279.8971 506.5176L279.8971 538.0416L279.8971 538.0416L285.7111 538.0416C 287.9431 538.0416 289.7541 539.8076 289.7541 542.0396C 289.7541 544.2716 287.9431 546.0756 285.7111 546.0756C 287.9431 546.0756 289.7541 547.8816 289.7541 550.1126C 289.7541 552.3456 287.9431 554.1496 285.7111 554.1496C 287.9431 554.1496 289.7541 555.9546 289.7541 558.1866C 289.7541 560.4196 287.9431 562.2336 285.7111 562.2336C 287.9431 562.2336 289.7541 564.0476 289.7541 566.2806C 289.7541 568.5126 287.9431 570.3046 285.7111 570.3046L285.7111 570.3046L279.8971 570.3056L279.8971 570.3056L279.8971 574.1076L279.8971 574.1076L235.4961 574.1066L235.4961 574.1066L235.4961 634.5016L235.4961 634.5016L206.6641 634.5016C 203.9301 634.5016 202.5661 632.6296 202.5661 630.5486C 202.5661 628.3626 204.2721 626.6246 206.6641 626.6236L206.6641 626.6236L217.3011 626.6236L217.3011 626.6236L217.3011 617.0476M309.2421 495.7966L309.2421 538.0416L309.2421 538.0416L303.5291 538.0416C 301.2961 538.0416 299.4851 539.8076 299.4851 542.0396C 299.4851 544.2716 301.2961 546.0756 303.5291 546.0756C 301.2961 546.0756 299.4851 547.8816 299.4851 550.1126C 299.4851 552.3456 301.2961 554.1496 303.5291 554.1496C 301.2961 554.1496 299.4851 555.9546 299.4851 558.1866C 299.4851 560.4196 301.2961 562.2336 303.5291 562.2336C 301.2961 562.2336 299.4851 564.0476 299.4851 566.2806C 299.4851 568.5126 301.2961 570.3046 303.5291 570.3046L303.5291 570.3046L397.5361 570.3056L397.5361 570.3056L397.5361 565.8956M344.7431 601.9326L303.5291 601.9326C 301.2961 601.9326 299.4851 603.6986 299.4851 605.9306C 299.4851 608.1626 301.2961 609.9666 303.5291 609.9666C 301.2961 609.9666 299.4851 611.7716 299.4851 614.0036C 299.4851 616.2366 301.2961 618.0406 303.5291 618.0406C 301.2961 618.0406 299.4851 619.8456 299.4851 622.0776C 299.4851 624.3106 301.2961 626.1246 303.5291 626.1246C 301.2961 626.1246 299.4851 627.9386 299.4851 630.1716C 299.4851 632.4036 301.2961 634.1956 303.5291 634.1956L303.5291 634.1956L321.3841 634.1956M344.7431 684.2946L303.5291 684.2946C 301.2961 684.2946 299.4851 686.0596 299.4851 688.2916C 299.4851 690.5246 301.2961 692.3286 303.5291 692.3286C 301.2961 692.3286 299.4851 694.1336 299.4851 696.3656C 299.4851 698.5986 301.2961 700.4026 303.5291 700.4026C 301.2961 700.4026 299.4851 702.2076 299.4851 704.4396C 299.4851 706.6726 301.2961 708.4866 303.5291 708.4866C 301.2961 708.4866 299.4851 710.3006 299.4851 712.5336C 299.4851 714.7656 301.2961 716.5576 303.5291 716.5576L303.5291 716.5576L321.3841 716.5566" stroke="#221E1F" stroke-width="0.97" stroke-linecap="round" fill="none" /><path id="988" transform="matrix(1 0 0 -1 0 792)" d="M230.475 674.2866L230.475 684.2946M253.221 422.9666L260.648 422.9666M255.873 420.3126L257.996 420.3126M250.569 425.6176L263.3 425.6176M226.777 671.6196L234.204 671.6196M229.43 668.9656L231.553 668.9656M224.125 674.2706L236.856 674.2706" stroke="#221E1F" stroke-width="0.97" fill="none" /><path id="989" transform="matrix(1 0 0 -1 0 792)" d="M228.52 684.2946C 228.52 685.3706 229.398 686.2506 230.476 686.2506C 231.553 686.2506 232.431 685.3706 232.431 684.2946C 232.431 683.2186 231.553 682.3386 230.476 682.3386C 229.398 682.3386 228.52 683.2186 228.52 684.2946" stroke="none" fill="#221E1F" fill-rule="evenodd" /><path id="990" transform="matrix(1 0 0 -1 0 792)" d="M344.6913 716.6287L344.6913 702.8467M192.5393 703.5727L181.9293 703.5727M349.9953 620.7267L339.3853 620.7267M349.9953 703.0887L339.3853 703.0887M402.8643 459.7747C 401.2973 460.6907 399.4723 461.2157 397.5243 461.2157C 395.5933 461.2157 393.7843 460.7007 392.2243 459.7987M402.8393 464.7517L392.2293 464.7517" stroke="#221E1F" stroke-width="0.97" fill="none" /><path id="991" transform="matrix(1 0 0 -1 0 792)" d="M346.6464 716.6292C 346.6464 717.7052 345.7684 718.5842 344.6904 718.5842C 343.6134 718.5842 342.7354 717.7052 342.7354 716.6292C 342.7354 715.5532 343.6134 714.6732 344.6904 714.6732C 345.7684 714.6732 346.6464 715.5532 346.6464 716.6292" stroke="none" fill="#221E1F" fill-rule="evenodd" /><path id="992" transform="matrix(1 0 0 -1 0 792)" d="M344.6909 634.2675L344.6909 620.4855" stroke="#221E1F" stroke-width="0.97" fill="none" /><path id="993" transform="matrix(1 0 0 -1 0 792)" d="M346.6464 634.2675C 346.6464 635.3435 345.7684 636.2225 344.6904 636.2225C 343.6134 636.2225 342.7354 635.3435 342.7354 634.2675C 342.7354 633.1915 343.6134 632.3115 344.6904 632.3115C 345.7684 632.3115 346.6464 633.1915 346.6464 634.2675" stroke="none" fill="#221E1F" fill-rule="evenodd" /><path id="994" transform="matrix(1 0 0 -1 0 792)" d="M197.0944 584.5853L197.0944 573.8643M187.2344 727.1323L187.2344 703.5733" stroke="#221E1F" stroke-width="0.97" fill="none" /><path id="995" transform="matrix(1 0 0 -1 0 792)" d="M199.0497 573.8646C 199.0497 572.7886 198.1717 571.9086 197.0937 571.9086C 196.0167 571.9086 195.1387 572.7886 195.1387 573.8646C 195.1387 574.9406 196.0167 575.8206 197.0937 575.8206C 198.1717 575.8206 199.0497 574.9406 199.0497 573.8646" stroke="none" fill="#221E1F" fill-rule="evenodd" /><path id="996" transform="matrix(1 0 0 -1 0 792)" d="M441.9675 583.3741L442.0085 565.8961L442.0085 565.8961L397.5365 565.8961" stroke="#221E1F" stroke-width="0.97" fill="none" /><path id="997" transform="matrix(1 0 0 -1 0 792)" d="M397.5361 563.9402C 396.4601 563.9402 395.5811 564.8182 395.5811 565.8962C 395.5811 566.9732 396.4601 567.8512 397.5361 567.8512C 398.6121 567.8512 399.4921 566.9732 399.4921 565.8962C 399.4921 564.8182 398.6121 563.9402 397.5361 563.9402" stroke="none" fill="#221E1F" fill-rule="evenodd" /><path id="998" transform="matrix(1 0 0 -1 0 792)" d="M344.6909 699.5963L344.6909 684.6023" stroke="#221E1F" stroke-width="0.97" fill="none" /><path id="999" transform="matrix(1 0 0 -1 0 792)" d="M346.6464 684.6024C 346.6464 683.5264 345.7684 682.6464 344.6904 682.6464C 343.6134 682.6464 342.7354 683.5264 342.7354 684.6024C 342.7354 685.6784 343.6134 686.5584 344.6904 686.5584C 345.7684 686.5584 346.6464 685.6784 346.6464 684.6024" stroke="none" fill="#221E1F" fill-rule="evenodd" /><path id="1000" transform="matrix(1 0 0 -1 0 792)" d="M344.6909 617.2346L344.6909 602.2406" stroke="#221E1F" stroke-width="0.97" fill="none" /><path id="1001" transform="matrix(1 0 0 -1 0 792)" d="M346.6464 602.2408C 346.6464 601.1648 345.7684 600.2848 344.6904 600.2848C 343.6134 600.2848 342.7354 601.1648 342.7354 602.2408C 342.7354 603.3168 343.6134 604.1958 344.6904 604.1958C 345.7684 604.1958 346.6464 603.3168 346.6464 602.2408" stroke="none" fill="#221E1F" fill-rule="evenodd" /><path id="1002" transform="matrix(1 0 0 -1 0 792)" d="M192.5644 698.5968C 190.9974 699.5118 189.1724 700.0368 187.2244 700.0368C 185.2934 700.0368 183.4844 699.5218 181.9234 698.6198M350.0204 615.7498C 348.4534 616.6658 346.6284 617.1908 344.6804 617.1908C 342.7494 617.1908 340.9404 616.6758 339.3804 615.7728M350.0204 698.1118C 348.4534 699.0278 346.6284 699.5528 344.6804 699.5528C 342.7494 699.5528 340.9404 699.0368 339.3804 698.1348M187.2344 700.0368L187.2344 684.2748L187.2344 684.2748L230.4754 684.2948" stroke="#221E1F" stroke-width="0.97" fill="none" /><path id="1003" transform="matrix(1 0 0 -1 0 792)" d="M308.2506 648.2189C 309.9936 648.2189 311.4086 643.3348 311.4086 637.3109C 311.4086 631.2869 309.9936 626.4029 308.2506 626.4029C 306.5066 626.4029 305.0926 631.2869 305.0926 637.3109C 305.0926 643.3348 306.5066 648.2189 308.2506 648.2189zM308.2506 730.5809C 309.9936 730.5809 311.4086 725.6959 311.4086 719.6729C 311.4086 713.6489 309.9936 708.7639 308.2506 708.7639C 306.5066 708.7639 305.0926 713.6489 305.0926 719.6729C 305.0926 725.6959 306.5066 730.5809 308.2506 730.5809z" stroke="#221E1F" stroke-width="0.97" stroke-dasharray="1.94,0.97" fill="none" /><path id="1004" transform="matrix(1 0 0 -1 0 792)" d="M308.8674 725.3253L336.2834 725.3253" stroke="#EE1C23" stroke-width="0.97" fill="none" /><path id="1005" transform="matrix(1 0 0 -1 0 792)" d="M335.8809 727.8811L340.5269 725.3251L340.5269 725.3251L335.8809 722.7691z" stroke="none" fill="#EE1C23" fill-rule="evenodd" /><path id="1006" transform="matrix(1 0 0 -1 0 792)" d="M308.8674 642.9636L336.2834 642.9636" stroke="#EE1C23" stroke-width="0.97" fill="none" /><path id="1007" transform="matrix(1 0 0 -1 0 792)" d="M335.8809 645.5193L340.5269 642.9633L340.5269 642.9633L335.8809 640.4073z" stroke="none" fill="#EE1C23" fill-rule="evenodd" /><path id="1008" transform="matrix(1 0 0 -1 0 792)" d="M303.4655 689.86C 304.3655 689.86 305.0955 689.13 305.0955 688.23C 305.0955 687.331 304.3655 686.601 303.4655 686.601C 302.5655 686.601 301.8355 687.331 301.8355 688.23C 301.8355 689.13 302.5655 689.86 303.4655 689.86" stroke="none" fill="#221E1F" fill-rule="evenodd" /><path id="1009" transform="matrix(1 0 0 -1 0 792)" d="M303.4655 689.86C 304.3655 689.86 305.0955 689.13 305.0955 688.23C 305.0955 687.331 304.3655 686.601 303.4655 686.601C 302.5655 686.601 301.8355 687.331 301.8355 688.23C 301.8355 689.13 302.5655 689.86 303.4655 689.86z" stroke="#221E1F" stroke-width="0.97" fill="none" /><path id="1010" transform="matrix(1 0 0 -1 0 792)" d="M285.5397 689.86C 286.4397 689.86 287.1697 689.13 287.1697 688.23C 287.1697 687.331 286.4397 686.601 285.5397 686.601C 284.6397 686.601 283.9097 687.331 283.9097 688.23C 283.9097 689.13 284.6397 689.86 285.5397 689.86" stroke="none" fill="#221E1F" fill-rule="evenodd" /><path id="1011" transform="matrix(1 0 0 -1 0 792)" d="M285.5397 689.86C 286.4397 689.86 287.1697 689.13 287.1697 688.23C 287.1697 687.331 286.4397 686.601 285.5397 686.601C 284.6397 686.601 283.9097 687.331 283.9097 688.23C 283.9097 689.13 284.6397 689.86 285.5397 689.86z" stroke="#221E1F" stroke-width="0.97" fill="none" /><path id="1012" transform="matrix(1 0 0 -1 0 792)" d="M303.284 607.8007C 304.184 607.8007 304.914 607.0707 304.914 606.1707C 304.914 605.2717 304.184 604.5417 303.284 604.5417C 302.384 604.5417 301.654 605.2717 301.654 606.1707C 301.654 607.0707 302.384 607.8007 303.284 607.8007" stroke="none" fill="#221E1F" fill-rule="evenodd" /><path id="1013" transform="matrix(1 0 0 -1 0 792)" d="M303.284 607.8007C 304.184 607.8007 304.914 607.0707 304.914 606.1707C 304.914 605.2717 304.184 604.5417 303.284 604.5417C 302.384 604.5417 301.654 605.2717 301.654 606.1707C 301.654 607.0707 302.384 607.8007 303.284 607.8007z" stroke="#221E1F" stroke-width="0.97" fill="none" /><path id="1014" transform="matrix(1 0 0 -1 0 792)" d="M204.1615 624.0363C 205.0615 624.0363 205.7915 623.3063 205.7915 622.4063C 205.7915 621.5073 205.0615 620.7773 204.1615 620.7773C 203.2615 620.7773 202.5315 621.5073 202.5315 622.4063C 202.5315 623.3063 203.2615 624.0363 204.1615 624.0363" stroke="none" fill="#221E1F" fill-rule="evenodd" /><path id="1015" transform="matrix(1 0 0 -1 0 792)" d="M204.1615 624.0363C 205.0615 624.0363 205.7915 623.3063 205.7915 622.4063C 205.7915 621.5073 205.0615 620.7773 204.1615 620.7773C 203.2615 620.7773 202.5315 621.5073 202.5315 622.4063C 202.5315 623.3063 203.2615 624.0363 204.1615 624.0363z" stroke="#221E1F" stroke-width="0.97" fill="none" /><path id="1016" transform="matrix(1 0 0 -1 0 792)" d="M303.405 543.6057C 304.305 543.6057 305.035 542.8757 305.035 541.9757C 305.035 541.0767 304.305 540.3467 303.405 540.3467C 302.505 540.3467 301.775 541.0767 301.775 541.9757C 301.775 542.8757 302.505 543.6057 303.405 543.6057" stroke="none" fill="#221E1F" fill-rule="evenodd" /><path id="1017" transform="matrix(1 0 0 -1 0 792)" d="M303.405 543.6057C 304.305 543.6057 305.035 542.8757 305.035 541.9757C 305.035 541.0767 304.305 540.3467 303.405 540.3467C 302.505 540.3467 301.775 541.0767 301.775 541.9757C 301.775 542.8757 302.505 543.6057 303.405 543.6057z" stroke="#221E1F" stroke-width="0.97" fill="none" /><path id="1018" transform="matrix(1 0 0 -1 0 792)" d="M285.7743 567.8297C 284.8743 567.8297 284.1443 567.0997 284.1443 566.1997C 284.1443 565.3007 284.8743 564.5707 285.7743 564.5707C 286.6743 564.5707 287.4043 565.3007 287.4043 566.1997C 287.4043 567.0997 286.6743 567.8297 285.7743 567.8297" stroke="none" fill="#221E1F" fill-rule="evenodd" /><path id="1019" transform="matrix(1 0 0 -1 0 792)" d="M285.7743 567.8297C 284.8743 567.8297 284.1443 567.0997 284.1443 566.1997C 284.1443 565.3007 284.8743 564.5707 285.7743 564.5707C 286.6743 564.5707 287.4043 565.3007 287.4043 566.1997C 287.4043 567.0997 286.6743 567.8297 285.7743 567.8297z" stroke="#221E1F" stroke-width="0.97" fill="none" /><path id="1020" transform="matrix(1 0 0 -1 0 792)" d="M311.2653 736.1505L313.5183 740.3045" stroke="#221E1F" stroke-width="0.97" fill="none" /><path id="1021" transform="matrix(1 0 0 -1 0 792)" d="M309.2108 737.7232L309.2428 732.4202L309.2428 732.4202L313.7038 735.2862z" stroke="none" fill="#221E1F" fill-rule="evenodd" /><path id="1022" transform="matrix(1 0 0 -1 0 792)" d="M311.2653 653.7888L313.5183 657.9428" stroke="#221E1F" stroke-width="0.97" fill="none" /><path id="1023" transform="matrix(1 0 0 -1 0 792)" d="M309.2108 655.3615L309.2428 650.0585L309.2428 650.0585L313.7038 652.9245z" stroke="none" fill="#221E1F" fill-rule="evenodd" /><path id="1024" transform="matrix(1 0 0 -1 0 792)" d="M242.4385 711.85L244.6915 707.696" stroke="#221E1F" stroke-width="0.97" fill="none" /><path id="1025" transform="matrix(1 0 0 -1 0 792)" d="M244.8774 712.7144L240.4154 715.5804L240.4154 715.5804L240.3844 710.2774z" stroke="none" fill="#221E1F" fill-rule="evenodd" /><path id="1026" transform="matrix(1 0 0 -1 0 792)" d="M187.2347 716.557L225.7127 716.557" stroke="#221E1F" stroke-width="0.97" fill="none" /><path id="1027" transform="matrix(1 0 0 -1 0 792)" d="M187.2347 718.5125C 186.1587 718.5125 185.2787 717.6345 185.2787 716.5565C 185.2787 715.4795 186.1587 714.6015 187.2347 714.6015C 188.3107 714.6015 189.1907 715.4795 189.1907 716.5565C 189.1907 717.6345 188.3107 718.5125 187.2347 718.5125" stroke="none" fill="#221E1F" fill-rule="evenodd" /><path id="1028" transform="matrix(1 0 0 -1 0 792)" d="M247.2183 486.6895L256.9183 486.6895L256.9183 486.6895L256.9183 495.7965L256.9183 495.7965L256.8843 495.7965L256.8843 495.7965L256.8843 506.5175M299.5423 474.8195L309.2423 474.8195L309.2423 474.8195L309.2423 495.7965M247.2183 475.2195L247.2183 470.8545M299.5423 463.3495L299.5423 458.9845M265.8693 483.0855L261.5043 483.0855M318.1933 471.2155L313.8283 471.2155M247.2183 482.1055L247.2183 477.7405M299.5423 470.2365L299.5423 465.8715M247.2183 488.7265L247.2183 484.3615M299.5423 476.8575L299.5423 472.4925M247.2183 479.8695L256.9183 479.8695L256.9183 479.8695L256.9183 472.6705M299.5423 467.9995L309.2423 467.9995L309.2423 467.9995L309.2423 460.8015" stroke="#221E1F" stroke-width="0.97" fill="none" /><path id="1029" transform="matrix(1 0 0 -1 0 792)" d="M254.9292 506.5176C 254.9292 507.5936 255.8072 508.4736 256.8852 508.4736C 257.9622 508.4736 258.8402 507.5936 258.8402 506.5176C 258.8402 505.4416 257.9622 504.5616 256.8852 504.5616C 255.8072 504.5616 254.9292 505.4416 254.9292 506.5176" stroke="none" fill="#221E1F" fill-rule="evenodd" /><path id="1030" transform="matrix(1 0 0 -1 0 792)" d="M256.9179 473.1588L247.2189 473.1588M309.2419 461.2898L299.5419 461.2898M263.6869 483.1968L263.6869 486.6888L263.6869 486.6888L256.9179 486.6888M316.0109 471.3268L316.0109 474.8198L316.0109 474.8198L309.2419 474.8198M263.6869 482.8438L263.6869 473.1588L263.6869 473.1588L256.9179 473.1588M316.0109 470.9738L316.0109 461.2738L316.0109 461.2738L309.2429 461.2738" stroke="#221E1F" stroke-width="0.97" fill="none" /><path id="1031" transform="matrix(1 0 0 -1 0 792)" d="M300.1907 468.0309L306.5737 469.4539L306.5737 469.4539L306.5757 466.5759z" stroke="none" fill="#221E1F" fill-rule="evenodd" /><path id="1032" transform="matrix(1 0 0 -1 0 792)" d="M300.1907 468.0309L306.5737 469.4539L306.5737 469.4539L306.5757 466.5759L306.5757 466.5759L300.1907 468.0309z" stroke="#221E1F" stroke-width="0.97" fill="none" /><path id="1033" transform="matrix(1 0 0 -1 0 792)" d="M247.8668 479.9006L254.2498 481.3236L254.2498 481.3236L254.2518 478.4456z" stroke="none" fill="#221E1F" fill-rule="evenodd" /><path id="1034" transform="matrix(1 0 0 -1 0 792)" d="M247.8668 479.9006L254.2498 481.3236L254.2498 481.3236L254.2518 478.4456L254.2518 478.4456L247.8668 479.9006z" stroke="#221E1F" stroke-width="0.97" fill="none" /><path id="1035" transform="matrix(1 0 0 -1 0 792)" d="M316.0485 470.5676L317.4715 466.6526L317.4715 466.6526L314.5935 466.6526z" stroke="none" fill="#221E1F" fill-rule="evenodd" /><path id="1036" transform="matrix(1 0 0 -1 0 792)" d="M316.0485 470.5676L317.4715 466.6526L317.4715 466.6526L314.5935 466.6526L314.5935 466.6526L316.0485 470.5676z" stroke="#221E1F" stroke-width="0.97" fill="none" /><path id="1037" transform="matrix(1 0 0 -1 0 792)" d="M263.7246 482.4374L265.1476 478.8174L265.1476 478.8174L262.2696 478.8164z" stroke="none" fill="#221E1F" fill-rule="evenodd" /><path id="1038" transform="matrix(1 0 0 -1 0 792)" d="M263.7246 482.4374L265.1476 478.8174L265.1476 478.8174L262.2696 478.8164L262.2696 478.8164L263.7246 482.4374z" stroke="#221E1F" stroke-width="0.97" fill="none" /><path id="1039" transform="matrix(1 0 0 -1 0 792)" d="M244.7902 486.6651L244.7902 473.1591L244.7902 473.1591L232.2652 473.1591M297.1142 474.7951L297.1142 461.2891L297.1142 461.2891L284.5892 461.2891" stroke="#221E1F" stroke-width="0.97" fill="none" /></g><g clip-path="url(#6)"><path id="1049" transform="matrix(1 0 0 -1 0 792)" d="M184.3413 557.4887L185.6193 557.3537L185.6193 557.3537L186.8293 557.1527L186.8293 557.1527L187.9723 556.8837L187.9723 556.8837L189.0483 556.5467L189.0483 556.5467L190.1243 556.2107L190.1243 556.2107L190.5953 556.0087L190.5953 556.0087L191.0663 555.8077L191.0663 555.8077L191.5363 555.6057L191.5363 555.6057L191.9403 555.3367L191.9403 555.3367L192.4113 555.1347L192.4113 555.1347L192.8143 554.8657L192.8143 554.8657L193.1503 554.6647L193.1503 554.6647L193.5543 554.3947L193.5543 554.3947L193.8903 554.1267L193.8903 554.1267L194.1593 553.7897L194.1593 553.7897L194.4963 553.5207L194.4963 553.5207L194.7643 553.2517L194.7643 553.2517L195.0333 552.9157L195.0333 552.9157L195.2353 552.6467L195.2353 552.6467L195.4373 552.3107L195.4373 552.3107L195.6393 551.9747L195.6393 551.9747L195.8403 551.6377L195.8403 551.6377L195.9753 551.3017L195.9753 551.3017L196.0423 550.9657L196.0423 550.9657L196.1773 550.6297L196.1773 550.6297L196.2443 550.2927L196.2443 550.2927L196.2443 549.8897" stroke="#221E1F" stroke-width="0.97" fill="none" /><path id="1050" transform="matrix(1 0 0 -1 0 792)" d="M185.0094 559.9884L180.1214 557.9324L180.1214 557.9324L184.4744 554.9044z" stroke="none" fill="#221E1F" fill-rule="evenodd" /><path id="1051" transform="matrix(1 0 0 -1 0 792)" d="M194.5822 525.049L194.5822 524.646L194.5822 524.646L194.5152 524.242L194.5152 524.242L194.3802 523.906L194.3802 523.906L194.3132 523.502L194.3132 523.502L194.1782 523.166L194.1782 523.166L193.9772 522.763L193.9772 522.763L193.8422 522.426L193.8422 522.426L193.6402 522.09L193.6402 522.09L193.4382 521.754L193.4382 521.754L193.1702 521.418L193.1702 521.418L192.9012 521.082L192.9012 521.082L192.6322 520.745L192.6322 520.745L192.3632 520.409L192.3632 520.409L192.0272 520.14L192.0272 520.14L191.6902 519.871L191.6902 519.871L191.3542 519.602L191.3542 519.602L190.6142 519.064L190.6142 519.064L189.8742 518.593L189.8742 518.593L189.0002 518.122L189.0002 518.122L188.0592 517.719L188.0592 517.719L187.1172 517.383L187.1172 517.383L186.0412 517.114L186.0412 517.114L185.0332 516.912L185.0332 516.912L183.8892 516.71" stroke="#221E1F" stroke-width="0.97" fill="none" /><path id="1052" transform="matrix(1 0 0 -1 0 792)" d="M184.7306 514.2635L179.7106 515.9725L179.7106 515.9725L183.8416 519.2975z" stroke="none" fill="#221E1F" fill-rule="evenodd" /><path id="1053" transform="matrix(1 0 0 -1 0 792)" d="M186.6241 637.2718L173.7731 637.2718M162.7001 653.0898L162.7001 640.2388M197.5371 646.8148L197.5371 614.2468M199.8221 646.8148L199.8221 614.2468" stroke="#221E1F" stroke-width="0.97" fill="none" /><path id="1054" transform="matrix(1 0 0 -1 0 792)" d="M172.9887 646.744L172.9887 651.764L172.9887 651.764L162.9487 646.744L162.9487 646.744L172.9887 641.724z" stroke="none" fill="#221E1F" fill-rule="evenodd" /><path id="1055" transform="matrix(1 0 0 -1 0 792)" d="M180.5201 626.9837L185.5401 626.9837L185.5401 626.9837L180.5201 637.0237L180.5201 637.0237L175.5001 626.9837z" stroke="none" fill="#221E1F" fill-rule="evenodd" /></g><g clip-path="url(#7)"><path id="1063" transform="matrix(1 0 0 -1 0 792)" d="M180.4619 604.713L180.4599 608.807L180.4599 608.807L176.2139 610.065L176.2139 610.065L184.7149 612.585L184.7149 612.585L176.2139 615.106L176.2139 615.106L184.7149 617.624L184.7149 617.624L176.2139 620.145L176.2139 620.145L184.7149 622.664L184.7149 622.664L180.4619 623.923L180.4619 623.923L180.4619 627.07M180.4619 604.813L148.2569 604.813L148.2569 604.813L148.2569 623.099L148.2569 623.099L143.9959 624.357L143.9959 624.357L152.4969 626.877L152.4969 626.877L143.9959 629.398L143.9959 629.398L152.4969 631.916L152.4969 631.916L143.9959 634.437L143.9959 634.437L152.4969 636.956L152.4969 636.956L148.2569 638.211L148.2569 638.211L148.2589 646.784" stroke="#221E1F" stroke-width="0.97" fill="none" /><path id="1064" transform="matrix(1 0 0 -1 0 792)" d="M178.506 604.7124C 178.507 603.6364 179.385 602.7574 180.462 602.7574C 181.54 602.7584 182.418 603.6384 182.417 604.7144C 182.417 605.7894 181.538 606.6694 180.461 606.6684C 179.383 606.6684 178.505 605.7874 178.506 604.7124" stroke="none" fill="#221E1F" fill-rule="evenodd" /><path id="1065" transform="matrix(1 0 0 -1 0 792)" d="M180.4619 604.813L187.6819 604.795L187.6819 604.795L187.6819 614.503L187.6819 614.503L190.8439 614.503C 193.0759 614.503 194.8869 616.295 194.8869 618.527C 194.8869 620.759 193.0759 622.563 190.8439 622.563C 193.0759 622.563 194.8869 624.368 194.8869 626.6C 194.8869 628.833 193.0759 630.637 190.8439 630.637C 193.0759 630.637 194.8869 632.442 194.8869 634.674C 194.8869 636.907 193.0759 638.721 190.8439 638.721C 193.0759 638.721 194.8869 640.535 194.8869 642.768C 194.8869 645 193.0759 646.792 190.8439 646.792L190.8439 646.792L172.9889 646.792" stroke="#221E1F" stroke-width="0.97" stroke-linecap="round" fill="none" /><path id="1066" transform="matrix(1 0 0 -1 0 792)" d="M191.028 644.3793C 190.128 644.3793 189.398 643.6493 189.398 642.7493C 189.398 641.8503 190.128 641.1203 191.028 641.1203C 191.928 641.1203 192.658 641.8503 192.658 642.7493C 192.658 643.6493 191.928 644.3793 191.028 644.3793" stroke="none" fill="#221E1F" fill-rule="evenodd" /><path id="1067" transform="matrix(1 0 0 -1 0 792)" d="M191.028 644.3793C 190.128 644.3793 189.398 643.6493 189.398 642.7493C 189.398 641.8503 190.128 641.1203 191.028 641.1203C 191.928 641.1203 192.658 641.8503 192.658 642.7493C 192.658 643.6493 191.928 644.3793 191.028 644.3793z" stroke="#221E1F" stroke-width="0.97" fill="none" /><path id="1068" transform="matrix(1 0 0 -1 0 792)" d="M180.4617 636.9068L180.4617 646.7918M148.2587 646.7838L148.2577 653.1348L148.2577 653.1348L128.3297 653.1348" stroke="#221E1F" stroke-width="0.97" fill="none" /><path id="1069" transform="matrix(1 0 0 -1 0 792)" d="M178.506 646.7918C 178.506 647.8678 179.384 648.7478 180.462 648.7478C 181.539 648.7478 182.417 647.8678 182.417 646.7918C 182.417 645.7158 181.539 644.8358 180.462 644.8358C 179.384 644.8358 178.506 645.7158 178.506 646.7918" stroke="none" fill="#221E1F" fill-rule="evenodd" /><path id="1070" transform="matrix(1 0 0 -1 0 792)" d="M148.2587 646.7915L162.7007 646.7915" stroke="#221E1F" stroke-width="0.97" fill="none" /><path id="1071" transform="matrix(1 0 0 -1 0 792)" d="M148.2587 648.7471C 147.1827 648.7471 146.3027 647.8691 146.3027 646.7911C 146.3027 645.7141 147.1827 644.8361 148.2587 644.8361C 149.3347 644.8361 150.2147 645.7141 150.2147 646.7911C 150.2147 647.8691 149.3347 648.7471 148.2587 648.7471" stroke="none" fill="#221E1F" fill-rule="evenodd" /><path id="1072" transform="matrix(1 0 0 -1 0 792)" d="M389.437 493.114L521.339 493.114L521.339 493.114L521.339 561.21L521.339 561.21L389.437 561.21z" stroke="#48B84D" stroke-width="0.97" stroke-dasharray="4.85,0.97" fill="none" /></g><g clip-path="url(#8)"><path id="1102" transform="matrix(1 0 0 -1 0 792)" d="M397.5359 565.8958L397.4789 531.0648L397.4789 531.0648L408.1739 531.0648C 410.9079 531.0648 412.2719 529.1928 412.2719 527.1118C 412.2719 524.9258 410.5649 523.1878 408.1739 523.1878L408.1739 523.1878L397.5359 523.1878L397.5359 523.1878L397.5359 464.5088" stroke="#221E1F" stroke-width="0.97" fill="none" /><path id="1103" transform="matrix(1 0 0 -1 0 792)" d="M410.6762 536.5876C 409.7762 536.5876 409.0462 535.8576 409.0462 534.9576C 409.0462 534.0586 409.7762 533.3286 410.6762 533.3286C 411.5762 533.3286 412.3062 534.0586 412.3062 534.9576C 412.3062 535.8576 411.5762 536.5876 410.6762 536.5876" stroke="none" fill="#221E1F" fill-rule="evenodd" /><path id="1104" transform="matrix(1 0 0 -1 0 792)" d="M410.6762 536.5876C 409.7762 536.5876 409.0462 535.8576 409.0462 534.9576C 409.0462 534.0586 409.7762 533.3286 410.6762 533.3286C 411.5762 533.3286 412.3062 534.0586 412.3062 534.9576C 412.3062 535.8576 411.5762 536.5876 410.6762 536.5876z" stroke="#221E1F" stroke-width="0.97" fill="none" /><path id="1105" transform="matrix(1 0 0 -1 0 792)" d="M428.2137 531.1703L441.0647 531.1703M452.1377 546.9883L452.1377 534.1373M417.3007 540.7133L417.3007 508.1453M415.0157 540.7133L415.0157 508.1453" stroke="#221E1F" stroke-width="0.97" fill="none" /><path id="1106" transform="matrix(1 0 0 -1 0 792)" d="M441.8491 540.6428L441.8491 545.6628L441.8491 545.6628L451.8891 540.6428L451.8891 540.6428L441.8491 535.6228z" stroke="none" fill="#221E1F" fill-rule="evenodd" /><path id="1107" transform="matrix(1 0 0 -1 0 792)" d="M434.3176 520.8824L429.2976 520.8824L429.2976 520.8824L434.3176 530.9224L434.3176 530.9224L439.3376 520.8824z" stroke="none" fill="#221E1F" fill-rule="evenodd" /></g><g clip-path="url(#9)"><path id="1122" transform="matrix(1 0 0 -1 0 792)" d="M434.3759 498.6118L434.3779 502.7058L434.3779 502.7058L438.6239 503.9638L438.6239 503.9638L430.1229 506.4838L430.1229 506.4838L438.6239 509.0048L438.6239 509.0048L430.1229 511.5228L430.1229 511.5228L438.6239 514.0438L438.6239 514.0438L430.1229 516.5628L430.1229 516.5628L434.3759 517.8218L434.3759 517.8218L434.3759 520.9688M434.3759 498.7118L466.5809 498.7118L466.5809 498.7118L466.5809 516.9978L466.5809 516.9978L470.8419 518.2558L470.8419 518.2558L462.3409 520.7758L462.3409 520.7758L470.8419 523.2968L470.8419 523.2968L462.3409 525.8148L462.3409 525.8148L470.8419 528.3358L470.8419 528.3358L462.3409 530.8548L462.3409 530.8548L466.5809 532.1098L466.5809 532.1098L466.5789 540.6828" stroke="#221E1F" stroke-width="0.97" fill="none" /><path id="1123" transform="matrix(1 0 0 -1 0 792)" d="M432.4206 498.6128C 432.4206 497.5378 433.2976 496.6568 434.3756 496.6568C 435.4526 496.6558 436.3316 497.5358 436.3316 498.6108C 436.3326 499.6868 435.4546 500.5668 434.3766 500.5678C 433.2996 500.5678 432.4216 499.6888 432.4206 498.6128" stroke="none" fill="#221E1F" fill-rule="evenodd" /><path id="1124" transform="matrix(1 0 0 -1 0 792)" d="M434.3759 498.7118L427.1559 498.6938L427.1559 498.6938L427.1559 508.4018L427.1559 508.4018L423.9939 508.4018C 421.7619 508.4018 419.9509 510.1938 419.9509 512.4258C 419.9509 514.6578 421.7619 516.4618 423.9939 516.4618C 421.7619 516.4618 419.9509 518.2668 419.9509 520.4988C 419.9509 522.7318 421.7619 524.5358 423.9939 524.5358C 421.7619 524.5358 419.9509 526.3408 419.9509 528.5728C 419.9509 530.8058 421.7619 532.6198 423.9939 532.6198C 421.7619 532.6198 419.9509 534.4338 419.9509 536.6668C 419.9509 538.8988 421.7619 540.6908 423.9939 540.6908L423.9939 540.6908L441.8489 540.6908" stroke="#221E1F" stroke-width="0.97" stroke-linecap="round" fill="none" /><path id="1125" transform="matrix(1 0 0 -1 0 792)" d="M423.8097 538.278C 424.7097 538.278 425.4397 537.548 425.4397 536.648C 425.4397 535.749 424.7097 535.019 423.8097 535.019C 422.9097 535.019 422.1797 535.749 422.1797 536.648C 422.1797 537.548 422.9097 538.278 423.8097 538.278" stroke="none" fill="#221E1F" fill-rule="evenodd" /><path id="1126" transform="matrix(1 0 0 -1 0 792)" d="M423.8097 538.278C 424.7097 538.278 425.4397 537.548 425.4397 536.648C 425.4397 535.749 424.7097 535.019 423.8097 535.019C 422.9097 535.019 422.1797 535.749 422.1797 536.648C 422.1797 537.548 422.9097 538.278 423.8097 538.278z" stroke="#221E1F" stroke-width="0.97" fill="none" /><path id="1127" transform="matrix(1 0 0 -1 0 792)" d="M434.376 530.8056L434.376 540.6906M466.579 540.6826L466.58 547.0336L466.58 547.0336L486.508 547.0336" stroke="#221E1F" stroke-width="0.97" fill="none" /><path id="1128" transform="matrix(1 0 0 -1 0 792)" d="M432.4206 540.6906C 432.4206 541.7666 433.2986 542.6466 434.3766 542.6466C 435.4536 542.6466 436.3316 541.7666 436.3316 540.6906C 436.3316 539.6146 435.4536 538.7346 434.3766 538.7346C 433.2986 538.7346 432.4206 539.6146 432.4206 540.6906" stroke="none" fill="#221E1F" fill-rule="evenodd" /><path id="1129" transform="matrix(1 0 0 -1 0 792)" d="M452.1373 540.6903L466.5793 540.6903" stroke="#221E1F" stroke-width="0.97" fill="none" /><path id="1130" transform="matrix(1 0 0 -1 0 792)" d="M466.579 542.6458C 467.655 542.6458 468.535 541.7678 468.535 540.6898C 468.535 539.6128 467.655 538.7348 466.579 538.7348C 465.503 538.7348 464.623 539.6128 464.623 540.6898C 464.623 541.7678 465.503 542.6458 466.579 542.6458" stroke="none" fill="#221E1F" fill-rule="evenodd" /><path id="1131" transform="matrix(1 0 0 -1 0 792)" d="M376.7254 443.2228L376.7254 460.6488" stroke="#221E1F" stroke-width="0.97" fill="none" /><path id="1132" transform="matrix(1 0 0 -1 0 792)" d="M374.7699 443.2228C 374.7699 442.1468 375.6479 441.2668 376.7259 441.2668C 377.8029 441.2668 378.6809 442.1468 378.6809 443.2228C 378.6809 444.2988 377.8029 445.1788 376.7259 445.1788C 375.6479 445.1788 374.7699 444.2988 374.7699 443.2228" stroke="none" fill="#221E1F" fill-rule="evenodd" /></g><path id="1215" transform="matrix(1 0 0 -1 0 792)" d="M498.1064 248.1933L493.0167 249.5537L493.0167 249.5537L498.1064 250.8951L498.1064 250.8951L498.1064 252.3697L498.1064 252.3697L491.2947 254.006L491.2947 254.006L491.2947 252.6266L491.2947 252.6266L496.0515 251.5896L496.0515 251.5896L491.2947 250.3909L491.2947 250.3909L491.2947 248.7545L491.2947 248.7545L495.9754 247.5178L495.9754 247.5178L491.2947 246.4998L491.2947 246.4998L491.2947 245.0823L491.2947 245.0823L498.1064 246.6806z" stroke="none" fill="#221E1F" fill-rule="evenodd" /><path id="1216" transform="matrix(1 0 0 -1 0 792)" d="M497.6973 255.1001C 498.0525 255.506 498.2301 256.0102 498.2301 256.6317C 498.2301 257.2787 498.0208 257.8146 497.6022 258.2585C 497.1836 258.6898 496.6794 258.915 496.0705 258.915C 495.6519 258.915 495.3063 258.7913 495.0145 258.563C 494.7228 258.3347 494.5293 258.0112 494.4532 257.6306C 494.0981 258.2776 493.616 258.6105 493.0072 258.6105C 492.5886 258.6105 492.2176 258.4393 491.8751 258.1349C 491.4692 257.7416 491.2567 257.2279 491.2567 256.5937C 491.2567 256.2131 491.3264 255.8802 491.466 255.5757C 491.6182 255.2713 491.8148 255.0366 492.0558 254.8717C 492.3095 254.6942 492.6393 254.5673 493.0452 254.4912L493.0452 254.4912L493.2545 255.6899C 492.9628 255.728 492.7345 255.8231 492.5695 255.9753C 492.4173 256.1275 492.3412 256.3178 492.3412 256.5461C 492.3412 256.7744 492.411 256.9457 492.5505 257.0979C 492.6901 257.2247 492.8645 257.2977 493.0928 257.2977C 493.3719 257.2977 493.597 257.1994 493.7492 257.0218C 493.9141 256.8315 493.9902 256.5556 493.9776 256.2131L493.9776 256.2131L495.0336 256.0704C 494.9701 256.2988 494.9384 256.4922 494.9384 256.6698C 494.9384 256.9108 495.0336 257.1296 495.2238 257.3072C 495.4268 257.4848 495.6837 257.5736 496.0135 257.5736C 496.3559 257.5736 496.6382 257.4753 496.8411 257.2977C 497.0441 257.1074 497.1455 256.8886 497.1455 256.6222C 497.1455 256.3685 497.0663 256.1497 496.8887 255.9848C 496.7238 255.8072 496.4764 255.6994 496.1466 255.6614L496.1466 255.6614L496.2989 254.3961C 496.8824 254.4595 497.3549 254.6942 497.6973 255.1001z" stroke="none" fill="#221E1F" fill-rule="evenodd" /><path id="1217" transform="matrix(1 0 0 -1 0 792)" d="M413.2079 244.7589L408.1182 246.1193L408.1182 246.1193L413.2079 247.4607L413.2079 247.4607L413.2079 248.9353L413.2079 248.9353L406.3963 250.5716L406.3963 250.5716L406.3963 249.1922L406.3963 249.1922L411.153 248.1552L411.153 248.1552L406.3963 246.9565L406.3963 246.9565L406.3963 245.3202L406.3963 245.3202L411.0769 244.0834L411.0769 244.0834L406.3963 243.0655L406.3963 243.0655L406.3963 241.648L406.3963 241.648L413.2079 243.2462z" stroke="none" fill="#221E1F" fill-rule="evenodd" /><path id="1218" transform="matrix(1 0 0 -1 0 792)" d="M406.3582 254.339L406.3582 253.283C 406.7768 253.1308 407.1383 252.8454 407.4428 252.4648C 407.7599 252.0589 407.966 251.6942 408.0802 251.3517L408.0802 251.3517L409.2693 251.3517C 409.0537 251.9987 408.7366 252.5536 408.28 253.0356L408.28 253.0356L413.2079 253.0356L413.2079 253.0356L413.2079 254.339z" stroke="none" fill="#221E1F" fill-rule="evenodd" /><path id="1219" transform="matrix(1 0 0 -1 0 792)" d="M406.3963 259.99L406.3963 258.5344L406.3963 258.5344L413.2079 255.8897L413.2079 255.8897L413.2079 257.3452L413.2079 257.3452L411.6573 257.916L411.6573 257.916L411.6573 260.6464L411.6573 260.6464L413.2079 261.2363L413.2079 261.2363L413.2079 262.7204zM410.5061 258.3347L407.985 259.2574L407.985 259.2574L410.5061 260.1993z" stroke="none" fill="#221E1F" fill-rule="evenodd" /><path id="1220" transform="matrix(1 0 0 -1 0 792)" d="M438.0762 244.7589L432.9865 246.1193L432.9865 246.1193L438.0762 247.4607L438.0762 247.4607L438.0762 248.9353L438.0762 248.9353L431.2646 250.5716L431.2646 250.5716L431.2646 249.1922L431.2646 249.1922L436.0213 248.1552L436.0213 248.1552L431.2646 246.9565L431.2646 246.9565L431.2646 245.3202L431.2646 245.3202L435.9452 244.0834L435.9452 244.0834L431.2646 243.0655L431.2646 243.0655L431.2646 241.648L431.2646 241.648L438.0762 243.2462z" stroke="none" fill="#221E1F" fill-rule="evenodd" /><path id="1221" transform="matrix(1 0 0 -1 0 792)" d="M431.2265 254.339L431.2265 253.283C 431.6451 253.1308 432.0066 252.8454 432.3111 252.4648C 432.6282 252.0589 432.8343 251.6942 432.9485 251.3517L432.9485 251.3517L434.1376 251.3517C 433.922 251.9987 433.6049 252.5536 433.1483 253.0356L433.1483 253.0356L438.0762 253.0356L438.0762 253.0356L438.0762 254.339z" stroke="none" fill="#221E1F" fill-rule="evenodd" /><path id="1222" transform="matrix(1 0 0 -1 0 792)" d="M438.0762 256.5842L438.0762 258.9055C 438.0762 259.7807 438.0667 260.3325 438.0287 260.5608C 437.9906 260.9286 437.8955 261.2299 437.7052 261.4836C 437.5403 261.7246 437.3056 261.9212 437.0012 262.0735C 436.7095 262.213 436.4146 262.2923 436.0974 262.2923C 435.7169 262.2923 435.3617 262.1749 435.07 261.9593C 434.7782 261.731 434.5658 261.4138 434.4516 261.0079C 434.3247 261.287 434.1186 261.5248 433.8522 261.7024C 433.5858 261.8673 433.2941 261.9593 432.977 261.9593C 432.6852 261.9593 432.4189 261.8895 432.1779 261.75C 431.9495 261.5978 431.7561 261.4297 431.6166 261.2267C 431.477 261.0111 431.3819 260.7796 431.3312 260.5132C 431.2931 260.2469 431.2646 259.8378 431.2646 259.305L431.2646 259.305L431.2646 256.5842zM432.3967 258.7532C 432.3967 259.4001 432.4157 259.7839 432.4157 259.9234C 432.4538 260.1517 432.5394 260.3325 432.6535 260.4467C 432.7931 260.5608 432.9643 260.6179 433.1673 260.6179C 433.3956 260.6179 433.5732 260.545 433.7 260.4181C 433.8396 260.2786 433.922 260.0946 433.9474 259.8663C 433.9601 259.7268 433.9664 259.4001 433.9664 258.8674L433.9664 258.8674L433.9664 257.9636L433.9664 257.9636L432.3967 257.9636zM435.0985 259.0767C 435.0985 259.6982 435.1302 260.1042 435.1936 260.2944C 435.2697 260.4847 435.368 260.6211 435.5076 260.7225C 435.6598 260.824 435.8279 260.8748 436.0308 260.8748C 436.2719 260.8748 436.4716 260.7986 436.6111 260.6845C 436.7634 260.545 436.849 260.3832 436.8871 260.1803C 436.9251 260.0407 436.9251 259.7331 436.9251 259.2384L436.9251 259.2384L436.9251 257.9636L436.9251 257.9636L435.0985 257.9636z" stroke="none" fill="#221E1F" fill-rule="evenodd" /><path id="1223" transform="matrix(1 0 0 -1 0 792)" d="M464.7045 248.1933L459.6148 249.5537L459.6148 249.5537L464.7045 250.8951L464.7045 250.8951L464.7045 252.3697L464.7045 252.3697L457.8929 254.006L457.8929 254.006L457.8929 252.6266L457.8929 252.6266L462.6496 251.5896L462.6496 251.5896L457.8929 250.3909L457.8929 250.3909L457.8929 248.7545L457.8929 248.7545L462.5735 247.5178L462.5735 247.5178L457.8929 246.4998L457.8929 246.4998L457.8929 245.0823L457.8929 245.0823L464.7045 246.6806z" stroke="none" fill="#221E1F" fill-rule="evenodd" /><path id="1224" transform="matrix(1 0 0 -1 0 792)" d="M463.4963 256.2512C 463.3821 256.3146 463.2617 256.4034 463.1348 256.5176C 463.0206 256.6317 462.7543 256.8886 462.3737 257.3072C 462.0059 257.7131 461.7109 257.9985 461.508 258.1634C 461.2036 258.3917 460.9118 258.5725 460.6328 258.6866C 460.3664 258.7881 460.062 258.8484 459.7575 258.8484C 459.2248 258.8484 458.7649 258.6486 458.3971 258.2681C 458.0419 257.8875 457.8548 257.3611 457.8548 256.6888C 457.8548 256.0673 458.0165 255.563 458.321 255.1571C 458.6381 254.7385 459.1613 254.5007 459.8717 254.4246L459.8717 254.4246L460.0049 255.728C 459.6243 255.7533 459.3516 255.8389 459.1867 256.0038C 459.0345 256.1561 458.9394 256.3844 458.9394 256.6508C 458.9394 256.9171 459.025 257.1454 459.1772 257.2977C 459.3294 257.4499 459.5641 257.5355 459.8431 257.5355C 460.1095 257.5355 460.3759 257.4467 460.6423 257.2691C 460.8452 257.1296 461.2194 256.7681 461.7649 256.1846C 462.4498 255.4489 462.9953 254.9605 463.4012 254.7195C 463.8198 254.4658 464.2479 254.3104 464.7045 254.2724L464.7045 254.2724L464.7045 258.8484L464.7045 258.8484L463.4963 258.8484z" stroke="none" fill="#221E1F" fill-rule="evenodd" /><path id="1225" transform="matrix(1 0 0 -1 0 792)" d="M484.0645 248.1933L478.9748 249.5537L478.9748 249.5537L484.0645 250.8951L484.0645 250.8951L484.0645 252.3697L484.0645 252.3697L477.2528 254.006L477.2528 254.006L477.2528 252.6266L477.2528 252.6266L482.0096 251.5896L482.0096 251.5896L477.2528 250.3909L477.2528 250.3909L477.2528 248.7545L477.2528 248.7545L481.9335 247.5178L481.9335 247.5178L477.2528 246.4998L477.2528 246.4998L477.2528 245.0823L477.2528 245.0823L484.0645 246.6806z" stroke="none" fill="#221E1F" fill-rule="evenodd" /><path id="1226" transform="matrix(1 0 0 -1 0 792)" d="M484.0645 258.2585L482.6946 258.2585L482.6946 258.2585L482.6946 259.1053L482.6946 259.1053L481.5529 259.1053L481.5529 259.1053L481.5529 258.2585L481.5529 258.2585L477.2243 258.2585L477.2243 258.2585L477.2243 257.1645L477.2243 257.1645L481.5529 254.2153L481.5529 254.2153L482.6946 254.2153L482.6946 254.2153L482.6946 256.9933L482.6946 256.9933L484.0645 256.9933zM481.5529 255.433L479.2317 256.9933L479.2317 256.9933L481.5529 256.9933z" stroke="none" fill="#221E1F" fill-rule="evenodd" /><path id="1227" transform="matrix(1 0 0 -1 0 792)" d="M512.9855 248.1933L507.8958 249.5537L507.8958 249.5537L512.9855 250.8951L512.9855 250.8951L512.9855 252.3697L512.9855 252.3697L506.1739 254.006L506.1739 254.006L506.1739 252.6266L506.1739 252.6266L510.9306 251.5896L510.9306 251.5896L506.1739 250.3909L506.1739 250.3909L506.1739 248.7545L506.1739 248.7545L510.8545 247.5178L510.8545 247.5178L506.1739 246.4998L506.1739 246.4998L506.1739 245.0823L506.1739 245.0823L512.9855 246.6806z" stroke="none" fill="#221E1F" fill-rule="evenodd" /><path id="1228" transform="matrix(1 0 0 -1 0 792)" d="M506.5734 258.211C 506.2817 257.8685 506.1358 257.4341 506.1358 256.9266C 506.1358 256.1783 506.4181 255.5853 506.9635 255.1286C 507.5216 254.6593 508.4191 254.4341 509.6748 254.4341C 510.8926 254.4341 511.7773 254.6434 512.3101 255.1001C 512.8428 255.5313 513.1092 256.1085 513.1092 256.7935C 513.1092 257.4277 512.9031 257.9541 512.4718 258.3727C 512.0532 258.7786 511.4951 258.9816 510.7974 258.9816C 510.1505 258.9816 509.6082 258.7818 509.1896 258.4012C 508.7711 258.008 508.5618 257.5355 508.5618 257.0027C 508.5618 256.5081 508.7615 256.1021 509.1421 255.785C 508.3556 255.8231 507.8451 255.9563 507.5914 256.1465C 507.3504 256.3368 507.2204 256.5746 507.2204 256.841C 507.2204 257.044 507.2964 257.2152 507.4106 257.3548C 507.5375 257.4689 507.7278 257.5545 507.9814 257.5926L507.9814 257.5926L507.8387 258.8579C 507.2933 258.7564 506.8779 258.5535 506.5734 258.211zM509.8175 256.1561C 509.6273 256.3336 509.5226 256.5398 509.5226 256.7935C 509.5226 257.0598 509.6336 257.2596 509.8366 257.4499C 510.0395 257.6148 510.363 257.7068 510.8069 257.7068C 511.2509 257.7068 511.549 257.6211 511.7393 257.4689C 511.9295 257.304 512.0247 257.1011 512.0247 256.86C 512.0247 256.6064 511.9105 256.3844 511.6822 256.1941C 511.4539 255.9911 511.1241 255.8992 510.6928 255.8992C 510.3123 255.8992 510.0205 255.9785 509.8175 256.1561z" stroke="none" fill="#221E1F" fill-rule="evenodd" /><path id="1229" transform="matrix(1 0 0 -1 0 792)" d="M363.1625 253.8371L389.6535 253.8371L389.6535 309.1811L522.1155 309.1811L522.1155 251.3541L538.0265 251.3541L538.0265 327.6571L341.9605 327.6571L347.2505 321.5121L341.4315 314.7171L346.3965 308.9791L363.1625 308.9791z" stroke="none" fill="#D2D3D5" fill-rule="nonzero" /><g clip-path="url(#10)"><path id="1230" transform="matrix(1 0 0 -1 0 792)" d="M363.1625 253.8371L389.6535 253.8371L389.6535 253.8371L389.6535 309.1811L389.6535 309.1811L522.1155 309.1811L522.1155 309.1811L522.1155 251.3541L522.1155 251.3541L538.0265 251.3541L538.0265 251.3541L538.0265 327.6571L538.0265 327.6571L341.9605 327.6571L341.9605 327.6571L347.2505 321.5121L347.2505 321.5121L341.4315 314.7171L341.4315 314.7171L346.3965 308.9791L346.3965 308.9791L363.1625 308.9791L363.1625 308.9791L363.1625 253.8371z" stroke="#221E1F" stroke-width="1.106" fill="none" /></g><path id="1231" transform="matrix(1 0 0 -1 0 792)" d="M363.1625 248.9126L389.6535 248.9126L389.6535 193.5286L522.1155 193.5286L522.1155 251.3556L538.0265 251.3556L538.0265 175.0526L341.9605 175.0526L347.2505 181.2396L341.4315 187.9936L346.3965 193.7316L363.1625 193.7316z" stroke="none" fill="#D2D3D5" fill-rule="nonzero" /><g clip-path="url(#11)"><path id="1232" transform="matrix(1 0 0 -1 0 792)" d="M488.7515 199.0616L500.1335 199.0616L500.1335 199.0616L500.1335 303.6466L500.1335 303.6466L488.7515 303.6466zM474.6245 199.0616L486.2135 199.0616L486.2135 199.0616L486.2135 303.6466L486.2135 303.6466L474.6245 303.6466zM423.5935 199.0616L444.5105 199.0616L444.5105 199.0616L444.5105 303.6466L444.5105 303.6466L423.5935 303.6466zM397.7525 199.0616L419.8905 199.0616L419.8905 199.0616L419.8905 303.6466L419.8905 303.6466L397.7525 303.6466zM448.1735 199.0616L471.5715 199.0616L471.5715 199.0616L471.5715 303.6466L471.5715 303.6466L448.1735 303.6466zM502.7445 199.0616L515.8485 199.0616L515.8485 199.0616L515.8485 303.6466L515.8485 303.6466L502.7445 303.6466zM363.1625 248.9126L389.6535 248.9126L389.6535 248.9126L389.6535 193.5286L389.6535 193.5286L522.1155 193.5286L522.1155 193.5286L522.1155 251.3556L522.1155 251.3556L538.0265 251.3556L538.0265 251.3556L538.0265 175.0526L538.0265 175.0526L341.9605 175.0526L341.9605 175.0526L347.2505 181.2396L347.2505 181.2396L341.4315 187.9936L341.4315 187.9936L346.3965 193.7316L346.3965 193.7316L363.1625 193.7316L363.1625 193.7316L363.1625 248.9126z" stroke="#221E1F" stroke-width="1.106" fill="none" /></g></g></g></svg>