<svg xmlns="http://www.w3.org/2000/svg" xmlns:xlink="http://www.w3.org/1999/xlink" id="body_43" preserveAspectRatio="xMinYMin meet" viewBox="0 0 816 1056"><defs><clipPath id="1"><path id="" clip-rule="evenodd" transform="matrix(1 0 0 1 0 0)" d="M0 792L0 0L0 0L612 0L612 0L612 792L612 792L0 792z" /></clipPath><clipPath id="2"><path id="" clip-rule="evenodd" transform="matrix(1 0 0 1 0 0)" d="M0 0L612 0L612 0L612 792L612 792L0 792z" /></clipPath><clipPath id="3"><path id="" clip-rule="evenodd" transform="matrix(1 0 0 1 0 0)" d="M236.143 765L380.143 765L380.143 765L380.143 716.344L380.143 716.344L236.143 716.344z" /></clipPath></defs><g transform="matrix(1.333333 0 0 1.333333 0 0)"><g clip-path="url(#1)"><path id="1" transform="matrix(1 0 0 -1 0 792)" d="M54 686.2012L558 686.2012" stroke="#221E1F" stroke-width="1" fill="none" /><path id="32" transform="matrix(1 0 0 -1 0 792)" d="M54 655.3282L103.743 655.3282" stroke="#221E1F" stroke-width="0.8" fill="none" /><path id="33" transform="matrix(1 0 0 -1 0 792)" d="M54 544.8282L233.661 544.8282" stroke="#221E1F" stroke-width="0.8" fill="none" /><path id="943" transform="matrix(1 0 0 -1 0 792)" d="M411.7535 485.3111L472.8325 485.3111" stroke="#221E1F" stroke-width="0.5" fill="none" /><path id="2067" transform="matrix(1 0 0 -1 0 792)" d="M318.25 157.821L557.75 157.821L557.75 157.821L557.75 242.622L557.75 242.622L318.25 242.622z" stroke="#221E1F" stroke-width="0.5" fill="none" /><g clip-path="url(#2)"><g clip-path="url(#3)"><path id="2068" transform="matrix(1 0 0 -1 0 792)" d="M281.4334 58.1117L281.4334 50.2827C 281.4334 49.4527 281.0114 49.3227 280.6034 49.1927L280.6034 49.1927L280.6034 48.9157L280.6034 48.9157L284.2174 48.9157L284.2174 48.9157L284.2174 49.1927C 283.8104 49.3227 283.3864 49.4527 283.3864 50.2827L283.3864 50.2827L283.3864 58.1117C 283.3864 58.5837 283.5334 58.6977 284.1514 58.6977C 285.8444 58.6977 286.6744 58.6647 287.2764 57.7217L287.2764 57.7217L287.4874 57.8507L287.4874 57.8507L286.8054 59.8527L286.8054 59.8527L277.9994 59.8527L277.9994 59.8527L277.3164 57.8507L277.3164 57.8507L277.5274 57.7217C 278.2604 58.6487 278.8304 58.6977 280.6684 58.6977C 281.2874 58.6977 281.4334 58.5837 281.4334 58.1117" stroke="none" fill="#221E1F" fill-rule="nonzero" /><path id="2069" transform="matrix(1 0 0 -1 0 792)" d="M285.5515 56.9888C 286.0875 56.8428 286.3655 56.7128 286.3655 55.8988L286.3655 55.8988L286.3655 50.2828C 286.3655 49.4528 286.0875 49.3228 285.5515 49.1928L285.5515 49.1928L285.5515 48.9158L285.5515 48.9158L292.3705 48.9158L292.3705 48.9158L293.1515 50.8698L293.1515 50.8698L292.9395 51.0158C 292.2565 50.1208 291.5405 49.9088 290.5965 49.9088L290.5965 49.9088L288.8385 49.9088C 288.2855 49.9088 288.1555 49.9258 288.1555 50.4628L288.1555 50.4628L288.1555 52.8058L288.1555 52.8058L290.2875 52.8058C 291.1175 52.8058 291.2475 52.6108 291.3785 52.1228L291.3785 52.1228L291.7035 52.1228L291.7035 52.1228L291.7035 54.4668L291.7035 54.4668L291.3785 54.4668C 291.2475 53.9778 291.1175 53.7658 290.2875 53.7658L290.2875 53.7658L288.1555 53.7658L288.1555 53.7658L288.1555 55.7358C 288.1555 56.1418 288.2855 56.2728 288.8385 56.2728L288.8385 56.2728L290.3365 56.2728C 291.2965 56.2728 291.8005 56.0288 292.5325 55.2468L292.5325 55.2468L292.7445 55.3938L292.7445 55.3938L292.0615 57.2658L292.0615 57.2658L285.5515 57.2658z" stroke="none" fill="#221E1F" fill-rule="nonzero" /><path id="2070" transform="matrix(1 0 0 -1 0 792)" d="M294.3231 56.0284L296.4071 53.0824L296.4071 53.0824L294.4371 50.2834C 293.8351 49.4374 293.4771 49.3234 292.9231 49.1934L292.9231 49.1934L292.9231 48.9164L292.9231 48.9164L296.0811 48.9164L296.0811 48.9164L296.0811 49.1934C 295.4791 49.3074 295.2181 49.5354 295.6251 50.1694L295.6251 50.1694L297.0051 52.3264L297.0051 52.3264L298.4581 50.2344C 298.9941 49.4704 298.4241 49.2574 297.9361 49.1934L297.9361 49.1934L297.9361 48.9164L297.9361 48.9164L303.6481 48.9164L303.6481 48.9164L303.6481 49.1934C 303.0791 49.2904 302.8181 49.4864 303.1111 50.2674L303.1111 50.2674L303.4841 51.2434L303.4841 51.2434L306.9031 51.2434L306.9031 51.2434L307.2621 50.2674C 307.4891 49.6324 307.4081 49.2904 306.7401 49.1934L306.7401 49.1934L306.7401 48.9164L306.7401 48.9164L310.2561 48.9164L310.2561 48.9164L310.2561 49.1934C 309.8491 49.3234 309.4751 49.6654 309.2961 50.1364L309.2961 50.1364L306.5781 57.2654L306.5781 57.2654L304.7221 57.2654L304.7221 57.2654L302.1181 50.6244C 301.8401 49.9354 301.5881 49.6104 301.3131 49.4234C 301.0971 49.5594 300.9001 49.7664 300.6371 50.1364L300.6371 50.1364L298.3491 53.3814L298.3491 53.3814L300.1991 55.9954C 300.6871 56.6954 301.0941 56.8424 301.5821 56.9884L301.5821 56.9884L301.5821 57.2654L301.5821 57.2654L298.6031 57.2654L298.6031 57.2654L298.6031 56.9884C 299.2221 56.9404 299.4011 56.5984 299.0431 56.0614L299.0431 56.0614L297.7521 54.1484L297.7521 54.1484L296.5861 55.8984C 296.0971 56.6144 296.4551 56.9074 296.9931 56.9884L296.9931 56.9884L296.9931 57.2654L296.9931 57.2654L293.0381 57.2654L293.0381 57.2654L293.0381 56.9884C 293.5901 56.8424 293.8671 56.6794 294.3231 56.0284M305.2271 55.8174L306.5641 52.1714L303.8371 52.1714z" stroke="none" fill="#221E1F" fill-rule="nonzero" /><path id="2071" transform="matrix(1 0 0 -1 0 792)" d="M311.0206 48.9162C 311.0206 49.0462 311.1516 49.3232 311.3136 49.3232C 311.6876 49.1442 312.3226 48.7702 313.4946 48.7702C 315.4636 48.7702 316.8476 49.7472 316.8476 51.4062C 316.8476 52.9692 315.9846 53.6032 314.3246 53.9782L314.3246 53.9782L312.8106 54.3202C 311.9476 54.5152 311.6716 54.7592 311.6716 55.2962C 311.6716 55.9152 312.1596 56.3212 313.2346 56.3212C 314.4376 56.3212 315.3816 55.7512 316.0656 54.9712L316.0656 54.9712L316.2776 55.1172L316.2776 55.1172L315.6586 57.2652L315.6586 57.2652L315.2676 57.2652C 315.2676 57.0872 315.1876 56.8912 315.0246 56.8912C 314.6656 57.0872 314.1126 57.3952 313.1686 57.3952C 311.4766 57.3952 310.1586 56.5172 310.1586 54.9212C 310.1586 53.7012 310.8906 52.9362 312.4846 52.5782L312.4846 52.5782L313.9176 52.2522C 314.8786 52.0412 315.2186 51.6992 315.2186 51.0972C 315.2186 50.2672 314.5526 49.8272 313.4616 49.8272C 311.9316 49.8272 310.9556 50.6252 310.1586 51.5522L310.1586 51.5522L309.9466 51.4062L309.9466 51.4062L310.6136 48.9162z" stroke="none" fill="#221E1F" fill-rule="nonzero" /><path id="2072" transform="matrix(1 0 0 -1 0 792)" d="M280.5245 46.8784C 281.0285 46.7314 281.4355 46.6014 281.4355 45.7874L281.4355 45.7874L281.4355 37.5844C 281.4355 36.7544 281.0285 36.6254 280.5245 36.4944L280.5245 36.4944L280.5245 36.2184L280.5245 36.2184L284.3005 36.2184L284.3005 36.2184L284.3005 36.4944C 283.7955 36.6254 283.3885 36.7544 283.3885 37.5844L283.3885 37.5844L283.3885 45.7874C 283.3885 46.6014 283.7955 46.7314 284.3005 46.8784L284.3005 46.8784L284.3005 47.1544L284.3005 47.1544L280.5245 47.1544z" stroke="none" fill="#221E1F" fill-rule="nonzero" /><path id="2073" transform="matrix(1 0 0 -1 0 792)" d="M290.8908 44.2907C 291.3798 44.1437 291.6568 44.0147 291.6568 43.2007L291.6568 43.2007L291.6568 39.7827L291.6568 39.7827L291.6068 39.7827L291.6068 39.7827L287.4078 44.5667L287.4078 44.5667L284.9508 44.5667L284.9508 44.5667L284.9508 44.2907C 285.4388 44.0787 285.7638 43.9157 285.7638 43.2007L285.7638 43.2007L285.7638 37.5847C 285.7638 36.8037 285.4878 36.6247 284.9508 36.4947L284.9508 36.4947L284.9508 36.2177L284.9508 36.2177L287.7338 36.2177L287.7338 36.2177L287.7338 36.4947C 287.2938 36.6247 286.8708 36.8037 286.8708 37.5847L286.8708 37.5847L286.8708 42.4347L286.8708 42.4347L286.9208 42.4347L286.9208 42.4347L292.4698 36.1037L292.4698 36.1037L292.7628 36.1037L292.7628 36.1037L292.7628 43.2007C 292.7628 44.0147 293.1698 44.1437 293.4958 44.2907L293.4958 44.2907L293.4958 44.5667L293.4958 44.5667L290.8908 44.5667z" stroke="none" fill="#221E1F" fill-rule="nonzero" /><path id="2074" transform="matrix(1 0 0 -1 0 792)" d="M298.1655 41.2794L296.6525 41.6214C 295.7895 41.8164 295.5125 42.0604 295.5125 42.5974C 295.5125 43.2164 296.0015 43.6234 297.0755 43.6234C 298.2805 43.6234 299.2235 43.0534 299.9075 42.2724L299.9075 42.2724L300.1195 42.4184L300.1195 42.4184L299.5005 44.5674L299.5005 44.5674L299.1095 44.5674C 299.1095 44.3884 299.0285 44.1934 298.8655 44.1934C 298.5075 44.3884 297.9545 44.6974 297.0105 44.6974C 295.3185 44.6974 293.9995 43.8184 293.9995 42.2234C 293.9995 41.0034 294.7325 40.2384 296.3265 39.8804L296.3265 39.8804L297.7595 39.5544C 298.7195 39.3424 299.0615 39.0014 299.0615 38.3984C 299.0615 37.5694 298.3945 37.1294 297.3035 37.1294C 295.7735 37.1294 294.7975 37.9264 293.9995 38.8544L293.9995 38.8544L293.7885 38.7084L293.7885 38.7084L294.4555 36.2184L294.4555 36.2184L294.8625 36.2184C 294.8625 36.3484 294.9925 36.6254 295.1545 36.6254C 295.5295 36.4464 296.1645 36.0714 297.3365 36.0714C 299.3055 36.0714 300.6895 37.0484 300.6895 38.7084C 300.6895 40.2704 299.8255 40.9054 298.1655 41.2794" stroke="none" fill="#221E1F" fill-rule="nonzero" /><path id="2075" transform="matrix(1 0 0 -1 0 792)" d="M301.1766 44.5672L300.5096 42.4192L300.5096 42.4192L300.7206 42.2732C 301.6156 43.4602 301.8606 43.5742 303.0476 43.5742C 303.4546 43.5742 303.5856 43.5422 303.5856 43.0372L303.5856 43.0372L303.5856 37.5852C 303.5856 36.7542 303.3416 36.6252 302.6746 36.4942L302.6746 36.4942L302.6746 36.2182L302.6746 36.2182L306.2546 36.2182L306.2546 36.2182L306.2546 36.4942C 305.6036 36.6252 305.3426 36.7542 305.3426 37.5852L305.3426 37.5852L305.3426 43.0372C 305.3426 43.5422 305.4736 43.5742 305.8806 43.5742C 307.0676 43.5742 307.3776 43.4602 308.2726 42.2732L308.2726 42.2732L308.4846 42.4192L308.4846 42.4192L307.8176 44.5672z" stroke="none" fill="#221E1F" fill-rule="nonzero" /><path id="2076" transform="matrix(1 0 0 -1 0 792)" d="M315.678 38.6923C 315.173 39.5063 314.652 39.8633 314.05 40.0103L314.05 40.0103L314.05 40.0583C 315.482 40.2873 316.296 41.0353 316.296 42.2563C 316.296 43.8843 314.994 44.5673 312.894 44.5673L312.894 44.5673L308.614 44.5673L308.614 44.5673L308.614 44.2903C 309.152 44.1443 309.428 44.0143 309.428 43.2003L309.428 43.2003L309.428 37.5843C 309.428 36.7543 309.152 36.6253 308.614 36.4943L308.614 36.4943L308.614 36.2183L308.614 36.2183L312.114 36.2183L312.114 36.2183L312.114 36.4943C 311.609 36.6253 311.267 36.7543 311.267 37.5843L311.267 37.5843L311.267 39.6683L311.267 39.6683L312.13 39.6683C 313.139 39.6683 313.286 39.2613 313.937 37.8953C 314.474 36.7713 315.19 36.0713 316.54 36.0713C 317.224 36.0713 317.501 36.2013 317.777 36.3483L317.777 36.3483L317.777 36.5763C 316.687 36.7393 316.328 37.6343 315.678 38.6923M312.7 40.6453L311.267 40.6453L311.267 40.6453L311.267 42.8583C 311.267 43.3953 311.397 43.5413 311.804 43.5413L311.804 43.5413L312.732 43.5413C 313.741 43.5413 314.326 43.1513 314.326 42.1743C 314.326 41.1493 313.66 40.6453 312.7 40.6453" stroke="none" fill="#221E1F" fill-rule="nonzero" /><path id="2077" transform="matrix(1 0 0 -1 0 792)" d="M323.0826 44.2907C 323.5046 44.1927 323.9126 44.0147 323.9126 43.2007L323.9126 43.2007L323.9126 39.0827C 323.9126 37.7157 323.3916 37.1127 321.8446 37.1127C 320.2016 37.1127 319.6146 37.7157 319.6146 39.0827L319.6146 39.0827L319.6146 43.2007C 319.6146 44.0147 319.9246 44.1927 320.4286 44.2907L320.4286 44.2907L320.4286 44.5667L320.4286 44.5667L317.0126 44.5667L317.0126 44.5667L317.0126 44.2907C 317.5156 44.2097 317.8416 44.0147 317.8416 43.2007L317.8416 43.2007L317.8416 38.9517C 317.8416 36.7227 319.7786 36.0717 321.6016 36.0717C 323.6356 36.0717 325.0846 36.7547 325.0846 39.0827L325.0846 39.0827L325.0846 43.2007C 325.0846 44.0147 325.3286 44.1767 325.8336 44.2907L325.8336 44.2907L325.8336 44.5667L325.8336 44.5667L323.0826 44.5667z" stroke="none" fill="#221E1F" fill-rule="nonzero" /><path id="2078" transform="matrix(1 0 0 -1 0 792)" d="M331.7408 39.1474L329.3318 44.5674L329.3318 44.5674L326.3378 44.5674L326.3378 44.5674L326.3378 44.2904C 326.8748 44.1434 327.1508 44.0144 327.1508 43.2004L327.1508 43.2004L327.1508 37.5844C 327.1508 36.8534 326.8418 36.6574 326.3378 36.4944L326.3378 36.4944L326.3378 36.2184L326.3378 36.2184L328.9898 36.2184L328.9898 36.2184L328.9898 36.4944C 328.4368 36.6414 328.1928 36.8534 328.1928 37.5844L328.1928 37.5844L328.1928 42.8254L328.1928 42.8254L331.2038 36.0874L331.2038 36.0874L331.4318 36.0874L331.4318 36.0874L334.3608 42.8254L334.3608 42.8254L334.3608 37.5844C 334.3608 36.7544 334.0028 36.6084 333.5958 36.4944L333.5958 36.4944L333.5958 36.2184L333.5958 36.2184L337.0138 36.2184L337.0138 36.2184L337.0138 36.4944C 336.4768 36.6254 336.1998 36.7544 336.1998 37.5844L336.1998 37.5844L336.1998 43.2004C 336.1998 44.0144 336.4768 44.1434 337.0138 44.2904L337.0138 44.2904L337.0138 44.5674L337.0138 44.5674L334.0678 44.5674z" stroke="none" fill="#221E1F" fill-rule="nonzero" /><path id="2079" transform="matrix(1 0 0 -1 0 792)" d="M342.7104 37.2107L340.9524 37.2107C 340.3994 37.2107 340.2694 37.2267 340.2694 37.7647L340.2694 37.7647L340.2694 40.1067L340.2694 40.1067L342.4004 40.1067C 343.2314 40.1067 343.3614 39.9127 343.4914 39.4247L343.4914 39.4247L343.8164 39.4247L343.8164 39.4247L343.8164 41.7677L343.8164 41.7677L343.4914 41.7677C 343.3614 41.2797 343.2314 41.0677 342.4004 41.0677L342.4004 41.0677L340.2694 41.0677L340.2694 41.0677L340.2694 43.0377C 340.2694 43.4437 340.3994 43.5747 340.9524 43.5747L340.9524 43.5747L342.4504 43.5747C 343.4094 43.5747 343.9134 43.3297 344.6464 42.5497L344.6464 42.5497L344.8584 42.6957L344.8584 42.6957L344.1744 44.5667L344.1744 44.5667L337.6644 44.5667L337.6644 44.5667L337.6644 44.2907C 338.2014 44.1437 338.4794 44.0147 338.4794 43.2007L338.4794 43.2007L338.4794 37.5847C 338.4794 36.7547 338.2014 36.6247 337.6644 36.4947L337.6644 36.4947L337.6644 36.2177L337.6644 36.2177L344.4834 36.2177L344.4834 36.2177L345.2654 38.1717L345.2654 38.1717L345.0534 38.3177C 344.3694 37.4227 343.6544 37.2107 342.7104 37.2107" stroke="none" fill="#221E1F" fill-rule="nonzero" /><path id="2080" transform="matrix(1 0 0 -1 0 792)" d="M351.4017 44.2907C 351.8897 44.1437 352.1657 44.0147 352.1657 43.2007L352.1657 43.2007L352.1657 39.7827L352.1657 39.7827L352.1167 39.7827L352.1167 39.7827L347.9177 44.5667L347.9177 44.5667L345.4597 44.5667L345.4597 44.5667L345.4597 44.2907C 345.9487 44.0787 346.2747 43.9157 346.2747 43.2007L346.2747 43.2007L346.2747 37.5847C 346.2747 36.8037 345.9977 36.6247 345.4597 36.4947L345.4597 36.4947L345.4597 36.2177L345.4597 36.2177L348.2437 36.2177L348.2437 36.2177L348.2437 36.4947C 347.8037 36.6247 347.3807 36.8037 347.3807 37.5847L347.3807 37.5847L347.3807 42.4347L347.3807 42.4347L347.4287 42.4347L347.4287 42.4347L352.9787 36.1037L352.9787 36.1037L353.2727 36.1037L353.2727 36.1037L353.2727 43.2007C 353.2727 44.0147 353.6797 44.1437 354.0047 44.2907L354.0047 44.2907L354.0047 44.5667L354.0047 44.5667L351.4017 44.5667z" stroke="none" fill="#221E1F" fill-rule="nonzero" /><path id="2081" transform="matrix(1 0 0 -1 0 792)" d="M354.7702 44.5672L354.1022 42.4192L354.1022 42.4192L354.3132 42.2732C 355.2082 43.4602 355.4532 43.5742 356.6412 43.5742C 357.0482 43.5742 357.1782 43.5422 357.1782 43.0372L357.1782 43.0372L357.1782 37.5852C 357.1782 36.7542 356.9332 36.6252 356.2672 36.4942L356.2672 36.4942L356.2672 36.2182L356.2672 36.2182L359.8482 36.2182L359.8482 36.2182L359.8482 36.4942C 359.1962 36.6252 358.9362 36.7542 358.9362 37.5852L358.9362 37.5852L358.9362 43.0372C 358.9362 43.5422 359.0662 43.5742 359.4732 43.5742C 360.6612 43.5742 360.9702 43.4602 361.8662 42.2732L361.8662 42.2732L362.0772 42.4192L362.0772 42.4192L361.4102 44.5672z" stroke="none" fill="#221E1F" fill-rule="nonzero" /><path id="2082" transform="matrix(1 0 0 -1 0 792)" d="M366.6832 41.2794L365.1702 41.6214C 364.3072 41.8164 364.0302 42.0604 364.0302 42.5974C 364.0302 43.2164 364.5182 43.6234 365.5922 43.6234C 366.7962 43.6234 367.7412 43.0534 368.4242 42.2724L368.4242 42.2724L368.6362 42.4184L368.6362 42.4184L368.0172 44.5674L368.0172 44.5674L367.6272 44.5674C 367.6272 44.3884 367.5452 44.1934 367.3822 44.1934C 367.0242 44.3884 366.4712 44.6974 365.5262 44.6974C 363.8342 44.6974 362.5172 43.8184 362.5172 42.2234C 362.5172 41.0034 363.2492 40.2384 364.8442 39.8804L364.8442 39.8804L366.2762 39.5544C 367.2352 39.3424 367.5782 39.0014 367.5782 38.3984C 367.5782 37.5694 366.9112 37.1294 365.8202 37.1294C 364.2902 37.1294 363.3132 37.9264 362.5172 38.8544L362.5172 38.8544L362.3042 38.7084L362.3042 38.7084L362.9712 36.2184L362.9712 36.2184L363.3792 36.2184C 363.3792 36.3484 363.5092 36.6254 363.6712 36.6254C 364.0462 36.4464 364.6812 36.0714 365.8522 36.0714C 367.8212 36.0714 369.2062 37.0484 369.2062 38.7084C 369.2062 40.2704 368.3422 40.9054 366.6832 41.2794" stroke="none" fill="#221E1F" fill-rule="nonzero" /><path id="2083" transform="matrix(1 0 0 -1 0 792)" d="M272.0488 56.6577L272.0488 59.8567L272.0488 59.8567L266.9198 59.8567L266.9198 59.8567L266.2738 56.6297L266.2738 56.6297L268.1188 56.6297L268.1188 56.6297L267.5268 53.6637L267.5268 53.6637L265.6818 53.6637L265.6818 53.6637L265.0418 50.4497C 264.9928 50.2317 264.9568 50.0737 264.9338 49.9227C 264.7828 48.9397 265.2128 48.9877 266.5928 48.9877L266.5928 48.9877L265.9618 45.8267L265.9618 45.8267L263.5478 45.8267C 261.2658 45.8267 259.4088 45.8507 259.8918 48.1837C 259.9668 48.5477 260.0588 48.9017 260.1248 49.2497L260.1248 49.2497L260.9878 53.6637L260.9878 53.6637L259.2138 53.6637L259.2138 53.6637L259.8068 56.6297L259.8068 56.6297L261.5798 56.6297L261.5798 56.6297L262.2258 59.8567L262.2258 59.8567L260.5658 59.8567L260.5658 59.8567L260.5658 64.7197L260.5658 64.7197L254.4258 64.7197L254.4258 64.7197L254.4258 54.8237L254.4258 54.8237L247.0798 54.8237C 247.2618 52.2587 249.5328 51.8857 250.3598 50.0627C 250.9298 48.8067 251.4288 46.5987 253.0938 46.5777C 254.3698 46.5627 254.3698 48.2277 256.0098 48.2277C 257.6498 48.2277 258.3788 45.1117 259.8368 42.5477C 260.9308 40.5317 262.7478 39.1807 264.3938 39.0667C 265.7438 38.9727 266.3978 39.4327 266.3978 39.4327C 266.0338 40.1657 265.8508 40.8977 265.8508 41.9977C 265.8508 43.6467 267.1268 45.2937 268.5848 46.3937C 270.5898 47.8627 272.7768 48.4117 273.5058 48.5927L273.5058 48.5927L273.5058 53.7247C 273.5058 53.7247 272.0488 54.5047 272.0488 56.6577M263.6838 48.9877L265.8398 59.8567L263.3548 59.8567L261.1998 48.9877zM266.5068 63.2917L264.0218 63.2917L263.5468 60.8937L266.0308 60.8937z" stroke="none" fill="#221E1F" fill-rule="nonzero" /></g></g></g></g></svg>