<svg xmlns="http://www.w3.org/2000/svg" xmlns:xlink="http://www.w3.org/1999/xlink" id="body_34" preserveAspectRatio="xMinYMin meet" viewBox="0 0 816 1056"><defs><clipPath id="1"><path id="" clip-rule="evenodd" transform="matrix(1 0 0 1 0 0)" d="M0 792L0 0L0 0L612 0L612 0L612 792L612 792L0 792z" /></clipPath><clipPath id="2"><path id="" clip-rule="evenodd" transform="matrix(1 0 0 1 0 0)" d="M41 708L566 708L566 708L566 28.19897L566 28.19897L41 28.19897z" /></clipPath><clipPath id="3"><path id="" clip-rule="evenodd" transform="matrix(1 0 0 1 0 0)" d="M47.244 266.47L566 266.47L566 266.47L566 40.46997L566 40.46997L47.244 40.46997z" /></clipPath><clipPath id="4"><path id="" clip-rule="evenodd" transform="matrix(1 0 0 1 0 0)" d="M47.244 266.47L566 266.47L566 266.47L566 40.46997L566 40.46997L47.244 40.46997z" /></clipPath><clipPath id="5"><path id="" clip-rule="evenodd" transform="matrix(1 0 0 1 0 0)" d="M47.244 266.47L566 266.47L566 266.47L566 40.46997L566 40.46997L47.244 40.46997z" /></clipPath><clipPath id="6"><path id="" clip-rule="evenodd" transform="matrix(1 0 0 1 0 0)" d="M47.244 266.47L566 266.47L566 266.47L566 40.46997L566 40.46997L47.244 40.46997z" /></clipPath><clipPath id="7"><path id="" clip-rule="evenodd" transform="matrix(1 0 0 1 0 0)" d="M47.244 266.47L566 266.47L566 266.47L566 40.46997L566 40.46997L47.244 40.46997z" /></clipPath><clipPath id="8"><path id="" clip-rule="evenodd" transform="matrix(1 0 0 1 0 0)" d="M47.244 266.47L566 266.47L566 266.47L566 40.46997L566 40.46997L47.244 40.46997z" /></clipPath><clipPath id="9"><path id="" clip-rule="evenodd" transform="matrix(1 0 0 1 0 0)" d="M47.244 266.47L566 266.47L566 266.47L566 40.46997L566 40.46997L47.244 40.46997z" /></clipPath><clipPath id="10"><path id="" clip-rule="evenodd" transform="matrix(1 0 0 1 0 0)" d="M47.244 266.47L566 266.47L566 266.47L566 40.46997L566 40.46997L47.244 40.46997z" /></clipPath><clipPath id="11"><path id="" clip-rule="evenodd" transform="matrix(1 0 0 1 0 0)" d="M47.244 266.47L566 266.47L566 266.47L566 40.46997L566 40.46997L47.244 40.46997z" /></clipPath><clipPath id="12"><path id="" clip-rule="evenodd" transform="matrix(1 0 0 1 0 0)" d="M47.244 266.47L566 266.47L566 266.47L566 40.46997L566 40.46997L47.244 40.46997z" /></clipPath><clipPath id="13"><path id="" clip-rule="evenodd" transform="matrix(1 0 0 1 0 0)" d="M47.244 266.47L566 266.47L566 266.47L566 40.46997L566 40.46997L47.244 40.46997z" /></clipPath><clipPath id="14"><path id="" clip-rule="evenodd" transform="matrix(1 0 0 1 0 0)" d="M47.244 266.47L566 266.47L566 266.47L566 40.46997L566 40.46997L47.244 40.46997z" /></clipPath><clipPath id="15"><path id="" clip-rule="evenodd" transform="matrix(1 0 0 1 0 0)" d="M47.244 266.47L566 266.47L566 266.47L566 40.46997L566 40.46997L47.244 40.46997z" /></clipPath><clipPath id="16"><path id="" clip-rule="evenodd" transform="matrix(1 0 0 1 0 0)" d="M47.244 266.47L566 266.47L566 266.47L566 40.46997L566 40.46997L47.244 40.46997z" /></clipPath><clipPath id="17"><path id="" clip-rule="evenodd" transform="matrix(1 0 0 1 0 0)" d="M47.244 266.47L566 266.47L566 266.47L566 40.46997L566 40.46997L47.244 40.46997z" /></clipPath><clipPath id="18"><path id="" clip-rule="evenodd" transform="matrix(1 0 0 1 0 0)" d="M47.244 266.47L566 266.47L566 266.47L566 40.46997L566 40.46997L47.244 40.46997z" /></clipPath><clipPath id="19"><path id="" clip-rule="evenodd" transform="matrix(1 0 0 1 0 0)" d="M47.244 266.47L566 266.47L566 266.47L566 40.46997L566 40.46997L47.244 40.46997z" /></clipPath><clipPath id="20"><path id="" clip-rule="evenodd" transform="matrix(1 0 0 1 0 0)" d="M47.244 266.47L566 266.47L566 266.47L566 40.46997L566 40.46997L47.244 40.46997z" /></clipPath></defs><g transform="matrix(1.333333 0 0 1.333333 0 0)"><g clip-path="url(#1)"><path id="1" transform="matrix(1 0 0 -1 0 792)" d="M54 39.5055L558 39.5055" stroke="#221E1F" stroke-width="0.5" fill="none" /><path id="30" transform="matrix(1 0 0 -1 0 792)" d="M41 84L566 84L566 763.801L41 763.801z" stroke="none" fill="#FFFFFF" fill-rule="nonzero" /><g clip-path="url(#2)"></g><g clip-path="url(#3)"><path id="1861" transform="matrix(1 0 0 -1 0 792)" d="M293.0468 672.2788C 292.9158 662.3068 295.7258 641.3538 276.5108 641.5148C 264.7838 640.4828 260.9598 641.3638 253.1938 634.8378C 248.1278 629.3248 248.4398 624.8588 248.0148 619.5708" stroke="#EE1C23" stroke-width="1.44" fill="none" /></g><path id="1862" transform="matrix(1 0 0 -1 0 792)" d="M296.7888 671.6385L293.1288 678.5045L293.1288 678.5045L289.2888 671.7365z" stroke="none" fill="#EE1C23" fill-rule="evenodd" /><g clip-path="url(#4)"><path id="1863" transform="matrix(1 0 0 -1 0 792)" d="M273.1702 731.3785C 278.6072 716.1315 293.9922 721.4305 292.6922 696.9645" stroke="#EE1C23" stroke-width="1.44" fill="none" /></g><path id="1864" transform="matrix(1 0 0 -1 0 792)" d="M276.9089 732.0828L271.0749 737.2558L271.0749 737.2558L269.8299 729.5588z" stroke="none" fill="#EE1C23" fill-rule="evenodd" /><g clip-path="url(#5)"><path id="1865" transform="matrix(1 0 0 -1 0 792)" d="M448.1825 731.3785C 451.2375 718.7125 459.1765 718.9005 463.8745 714.6055C 470.9935 708.0995 466.8425 708.4445 467.5115 697.9635" stroke="#EE1C23" stroke-width="1.44" stroke-dasharray="5,3" fill="none" /></g><path id="1866" transform="matrix(1 0 0 -1 0 792)" d="M451.9684 731.6833L446.7224 737.4333L446.7224 737.4333L444.6744 729.9243z" stroke="none" fill="#EE1C23" fill-rule="evenodd" /><g clip-path="url(#6)"><path id="1867" transform="matrix(1 0 0 -1 0 792)" d="M289.4648 557.1433C 280.4088 557.3693 285.2758 571.3503 265.8618 568.0113C 254.1628 565.7683 247.6908 571.2723 247.8218 584.3123" stroke="#EE1C23" stroke-width="1.44" fill="none" /></g><path id="1868" transform="matrix(1 0 0 -1 0 792)" d="M244.0663 583.7589L247.8843 590.5379L247.8843 590.5379L251.5663 583.6839z" stroke="none" fill="#EE1C23" fill-rule="evenodd" /><g clip-path="url(#7)"><path id="1869" transform="matrix(1 0 0 -1 0 792)" d="M353.4943 569.4453C 316.9383 567.4133 324.4013 570.8663 322.2223 604.2003C 320.8923 624.5413 315.8203 645.0003 320.3213 669.3793M333.8273 708.7113C 350.5943 719.1753 373.6063 705.0353 378.7993 691.0803C 382.4083 680.5053 386.5533 575.6573 372.3413 572.0323" stroke="#EE1C23" stroke-width="1.44" stroke-dasharray="5,3" fill="none" /></g><path id="1870" transform="matrix(1 0 0 -1 0 792)" d="M373.8462 568.5338L366.2892 570.4888L366.2892 570.4888L371.9862 575.8248z" stroke="none" fill="#EE1C23" fill-rule="evenodd" /><path id="1871" transform="matrix(1 0 0 -1 0 792)" d="M316.5245 669.4783L321.4515 675.5043L321.4515 675.5043L323.9025 668.1163z" stroke="none" fill="#EE1C23" fill-rule="evenodd" /><g clip-path="url(#8)"><path id="1872" transform="matrix(1 0 0 -1 0 792)" d="M479.4805 537.2227C 480.9645 551.6647 483.1755 565.7527 480.8905 580.0297C 479.4915 588.7717 475.2645 596.6957 475.1085 599.5177C 472.5635 612.9077 476.3825 621.1067 478.4845 637.8167C 478.7065 645.2307 478.9275 651.3177 474.1685 658.0687C 467.4525 667.4437 464.8525 661.1597 464.4175 673.6477" stroke="#EE1C23" stroke-width="1.44" stroke-dasharray="5,3" fill="none" /></g><path id="1873" transform="matrix(1 0 0 -1 0 792)" d="M460.6884 672.9262L464.2014 679.8742L464.2014 679.8742L468.1884 673.1882z" stroke="none" fill="#EE1C23" fill-rule="evenodd" /><g clip-path="url(#9)"><path id="1874" transform="matrix(1 0 0 -1 0 792)" d="M71.3572 658.3015C 68.2972 663.7465 67.4642 670.1685 67.2452 679.0215C 67.1152 688.2205 66.7242 700.1785 71.2642 708.7845C 75.8282 717.4955 81.9192 722.1555 91.1232 722.5705" stroke="#0060AF" stroke-width="1.44" fill="none" /></g><path id="1875" transform="matrix(1 0 0 -1 0 792)" d="M90.3633 726.2936L97.3493 722.8506L97.3493 722.8506L90.70129 718.7936z" stroke="none" fill="#0060AF" fill-rule="evenodd" /><g clip-path="url(#10)"><path id="1876" transform="matrix(1 0 0 -1 0 792)" d="M421.5964 621.8552C 426.1604 630.5662 429.7294 638.8692 438.9334 639.2842" stroke="#0060AF" stroke-width="1.44" fill="none" /></g><path id="1877" transform="matrix(1 0 0 -1 0 792)" d="M438.1732 643.0078L445.1592 639.5648L445.1592 639.5648L438.5112 635.5078z" stroke="none" fill="#0060AF" fill-rule="evenodd" /><g clip-path="url(#11)"><path id="1878" transform="matrix(1 0 0 -1 0 792)" d="M95.7715 721.9727C 101.4105 720.1697 106.5405 716.6197 110.3305 707.7667C 113.9035 700.0457 114.8495 691.4837 114.3515 683.3207C 113.2715 665.0557 109.6465 653.8027 103.8775 644.9347C 99.5325 638.8367 94.7095 636.5447 89.9475 637.0697C 82.8635 638.1677 79.4665 642.4087 75.8055 648.3017" stroke="#0060AF" stroke-width="1.44" fill="none" /></g><path id="1879" transform="matrix(1 0 0 -1 0 792)" d="M72.926 645.8156L72.513 653.6016L72.513 653.6016L79.31001 649.7816z" stroke="none" fill="#0060AF" fill-rule="evenodd" /><g clip-path="url(#12)"><path id="1880" transform="matrix(1 0 0 -1 0 792)" d="M448.3464 640.6487C 453.9854 638.8467 458.8354 635.8557 462.6254 627.0037C 466.1984 619.2817 464.3414 610.4397 463.8434 602.2767C 462.3584 577.2767 465.4264 553.7507 442.2424 556.3067C 435.1574 557.4037 431.7614 561.6447 428.1004 567.5387" stroke="#0060AF" stroke-width="1.44" fill="none" /></g><path id="1881" transform="matrix(1 0 0 -1 0 792)" d="M425.2205 565.0526L424.8075 572.8386L424.8075 572.8386L431.6045 569.0186z" stroke="none" fill="#0060AF" fill-rule="evenodd" /><path id="1882" transform="matrix(1 0 0 -1 0 792)" d="M63.0285 673.2249L67.2235 664.5759L67.2235 664.5759L58.8335 664.5759z" stroke="none" fill="#221E1F" fill-rule="evenodd" /><path id="1883" transform="matrix(1 0 0 -1 0 792)" d="M63.0285 635.1058L67.2235 626.4568L67.2235 626.4568L58.8335 626.4568z" stroke="none" fill="#221E1F" fill-rule="evenodd" /><path id="1884" transform="matrix(1 0 0 -1 0 792)" d="M113.9717 534.0381L121.3217 534.0381M116.5967 531.4121L118.6977 531.4121M111.3467 536.6621L123.9467 536.6621M67.2307 634.8491L58.8307 634.8491M67.2307 672.9681L58.8307 672.9681" stroke="#221E1F" stroke-width="0.96" fill="none" /><path id="1913" transform="matrix(1 0 0 -1 0 792)" d="M117.543 552.2639L117.543 536.3249" stroke="#221E1F" stroke-width="0.96" fill="none" /><g clip-path="url(#13)"><path id="1914" transform="matrix(1 0 0 -1 0 792)" d="M119.4783 552.2639C 119.4783 553.3289 118.6093 554.1989 117.5433 554.1989C 116.4763 554.1989 115.6073 553.3289 115.6073 552.2639C 115.6073 551.1989 116.4763 550.3289 117.5433 550.3289C 118.6093 550.3289 119.4783 551.1989 119.4783 552.2639" stroke="none" fill="#221E1F" fill-rule="evenodd" /><path id="1915" transform="matrix(1 0 0 -1 0 792)" d="M199.2082 650.7134C 197.6572 651.6194 195.8512 652.1394 193.9232 652.1394C 192.0122 652.1394 190.2222 651.6295 188.6772 650.7365M199.1832 655.6384L188.6832 655.6384M75.4302 616.3054L75.4302 589.6344M138.7482 703.9834L138.7482 677.3134M72.8752 616.3054L72.8752 589.6344M136.1932 703.9834L136.1932 677.3134M113.4862 575.1714L122.7302 575.1945L122.7302 575.1945L122.7302 552.3134L122.7302 552.3134L104.8132 552.3134L104.8132 552.3134L104.8132 552.2134L104.8132 552.2134L63.0992 552.2694L63.0992 552.2694L63.1012 589.7384L63.1012 589.7384L67.89619 589.7384C 69.7212 589.7384 71.20119 591.3374 71.20119 593.1624C 71.20119 594.9874 69.7212 596.4624 67.89619 596.4624C 69.7212 596.4624 71.20119 597.9374 71.20119 599.7625C 71.20119 601.5874 69.7212 603.0624 67.89619 603.0624C 69.7212 603.0624 71.20119 604.5374 71.20119 606.3624C 71.20119 608.1874 69.7212 609.6704 67.89619 609.6704C 69.7212 609.6704 71.20119 611.1534 71.20119 612.9794C 71.20119 614.8034 69.7212 616.3795 67.89619 616.3795L67.89619 616.3795L63.1012 616.3795L63.1012 616.3795L63.1012 626.2124M122.8232 649.8044L122.8232 677.4164L122.8232 677.4164L130.0152 677.4164C 131.8402 677.4164 133.3212 679.0164 133.3212 680.8405C 133.3212 682.6654 131.8402 684.1404 130.0152 684.1404C 131.8402 684.1404 133.3212 685.6165 133.3212 687.4404C 133.3212 689.2664 131.8402 690.7404 130.0152 690.7404C 131.8402 690.7404 133.3212 692.2164 133.3212 694.0404C 133.3212 695.8654 131.8402 697.3494 130.0152 697.3494C 131.8402 697.3494 133.3212 698.8324 133.3212 700.6574C 133.3212 702.4814 131.8402 704.0574 130.0152 704.0574L130.0152 704.0574L122.8232 704.0574L122.8232 704.0574L122.8232 728.2755L122.8232 728.2755L63.0832 728.2755L63.0832 728.2755L63.0832 672.8214M113.4002 586.6824C 116.6902 586.6824 119.3862 586.6874 122.7302 586.6874L122.7302 586.6874L122.8232 649.8044M142.2112 606.3024L151.8112 606.3024L151.8112 606.3024L151.8112 634.8164L151.8112 634.8164L151.9032 634.7574L151.9032 634.7574L151.9032 677.4164L151.9032 677.4164L144.7112 677.4164C 142.8862 677.4164 141.4062 679.0164 141.4062 680.8405C 141.4062 682.6654 142.8862 684.1404 144.7112 684.1404C 142.8862 684.1404 141.4062 685.6165 141.4062 687.4404C 141.4062 689.2664 142.8862 690.7404 144.7112 690.7404C 142.8862 690.7404 141.4062 692.2164 141.4062 694.0404C 141.4062 695.8654 142.8862 697.3494 144.7112 697.3494C 142.8862 697.3494 141.4062 698.8324 141.4062 700.6574C 141.4062 702.4814 142.8862 704.0574 144.7112 704.0574L144.7112 704.0574L193.8682 704.0574L193.8682 704.0574L193.8682 655.6384" stroke="#221E1F" stroke-width="0.96" fill="none" /><path id="1916" transform="matrix(1 0 0 -1 0 792)" d="M144.9986 682.3502C 145.8916 682.3502 146.6156 681.6262 146.6156 680.7332C 146.6156 679.8402 145.8916 679.1162 144.9986 679.1162C 144.1056 679.1162 143.3816 679.8402 143.3816 680.7332C 143.3816 681.6262 144.1056 682.3502 144.9986 682.3502" stroke="none" fill="#221E1F" fill-rule="evenodd" /><path id="1917" transform="matrix(1 0 0 -1 0 792)" d="M144.9986 682.3502C 145.8916 682.3502 146.6156 681.6262 146.6156 680.7332C 146.6156 679.8402 145.8916 679.1162 144.9986 679.1162C 144.1056 679.1162 143.3816 679.8402 143.3816 680.7332C 143.3816 681.6262 144.1056 682.3502 144.9986 682.3502z" stroke="#221E1F" stroke-width="0.96" fill="none" /><path id="1918" transform="matrix(1 0 0 -1 0 792)" d="M129.7279 702.3087C 128.8349 702.3087 128.1109 701.5847 128.1109 700.6917C 128.1109 699.7987 128.8349 699.0747 129.7279 699.0747C 130.6209 699.0747 131.3449 699.7987 131.3449 700.6917C 131.3449 701.5847 130.6209 702.3087 129.7279 702.3087" stroke="none" fill="#221E1F" fill-rule="evenodd" /><path id="1919" transform="matrix(1 0 0 -1 0 792)" d="M129.7279 702.3087C 128.8349 702.3087 128.1109 701.5847 128.1109 700.6917C 128.1109 699.7987 128.8349 699.0747 129.7279 699.0747C 130.6209 699.0747 131.3449 699.7987 131.3449 700.6917C 131.3449 701.5847 130.6209 702.3087 129.7279 702.3087z" stroke="#221E1F" stroke-width="0.96" fill="none" /><path id="1920" transform="matrix(1 0 0 -1 0 792)" d="M67.6092 594.7316C 66.7162 594.7316 65.9922 594.0076 65.9922 593.1146C 65.9922 592.2216 66.7162 591.4976 67.6092 591.4976C 68.5022 591.4976 69.2262 592.2216 69.2262 593.1146C 69.2262 594.0076 68.5022 594.7316 67.6092 594.7316" stroke="none" fill="#221E1F" fill-rule="evenodd" /><path id="1921" transform="matrix(1 0 0 -1 0 792)" d="M67.6092 594.7316C 66.7162 594.7316 65.9922 594.0076 65.9922 593.1146C 65.9922 592.2216 66.7162 591.4976 67.6092 591.4976C 68.5022 591.4976 69.2262 592.2216 69.2262 593.1146C 69.2262 594.0076 68.5022 594.7316 67.6092 594.7316z" stroke="#221E1F" stroke-width="0.96" fill="none" /></g><g clip-path="url(#14)"><path id="1928" transform="matrix(1 0 0 -1 0 792)" d="M95.0675 649.5051L122.8175 649.5042" stroke="#221E1F" stroke-width="0.96" stroke-dasharray="4.8,0.96" fill="none" /><path id="1929" transform="matrix(1 0 0 -1 0 792)" d="M122.8176 651.4399C 123.8826 651.4399 124.7526 650.5709 124.7526 649.5049C 124.7526 648.4379 123.8816 647.5689 122.8176 647.5689C 121.7526 647.5689 120.8826 648.4379 120.8826 649.5049C 120.8826 650.5709 121.7536 651.4399 122.8176 651.4399" stroke="none" fill="#221E1F" fill-rule="evenodd" /><path id="1930" transform="matrix(1 0 0 -1 0 792)" d="M62.942 649.5051L91.411 649.5042" stroke="#221E1F" stroke-width="0.96" stroke-dasharray="4.8,0.96" fill="none" /><path id="1931" transform="matrix(1 0 0 -1 0 792)" d="M62.942 651.4406C 61.878 651.4406 61.007 650.5716 61.007 649.5056C 61.007 648.4386 61.877 647.5696 62.942 647.5696C 64.006 647.5696 64.877 648.4386 64.877 649.5056C 64.877 650.5716 64.007 651.4406 62.942 651.4406" stroke="none" fill="#221E1F" fill-rule="evenodd" /><path id="1932" transform="matrix(1 0 0 -1 0 792)" d="M194.2809 721.8597L207.5749 721.8597M88.7939 736.4837L102.0879 736.4837" stroke="#221E1F" stroke-width="0.96" fill="none" /><path id="1933" transform="matrix(1 0 0 -1 0 792)" d="M188.9415 562.5462L176.7915 562.5462L176.7915 562.5462L182.8665 552.6912z" stroke="none" fill="#FFFFFF" fill-rule="evenodd" /><path id="1934" transform="matrix(1 0 0 -1 0 792)" d="M188.9415 562.5462L176.7915 562.5462L176.7915 562.5462L182.8665 552.6912L182.8665 552.6912L188.9415 562.5462z" stroke="#221E1F" stroke-width="0.96" fill="none" /><path id="1935" transform="matrix(1 0 0 -1 0 792)" d="M182.8663 562.9702L182.8663 577.6642" stroke="#221E1F" stroke-width="0.96" fill="none" /><path id="1936" transform="matrix(1 0 0 -1 0 792)" d="M180.9309 577.6643C 180.9309 578.7293 181.7999 579.5993 182.8659 579.5993C 183.9329 579.5993 184.8019 578.7293 184.8019 577.6643C 184.8019 576.5993 183.9329 575.7293 182.8659 575.7293C 181.7999 575.7293 180.9309 576.5993 180.9309 577.6643" stroke="none" fill="#221E1F" fill-rule="evenodd" /><path id="1937" transform="matrix(1 0 0 -1 0 792)" d="M193.868 652.1384L193.868 577.6644L193.868 577.6644L151.772 577.6644L151.772 577.6644L151.772 595.0914L151.772 595.0914L141.813 595.0914M113.143 580.9283L122.743 580.9283L122.743 580.9283L122.743 575.1894M142.211 600.8274L151.811 600.8274L151.811 600.8274L151.811 595.0874M113.143 576.6324L113.143 572.3124M142.211 596.4114L142.211 592.0914M113.143 583.0884L113.143 578.7684M142.211 602.9874L142.211 598.6674M113.143 589.4014L113.143 585.0814M142.211 609.3004L142.211 604.9803M110.023 586.6894L110.023 575.1934L110.023 575.1934L101.743 575.1934M139.091 606.2814L139.091 595.0914L139.091 595.0914L130.811 595.0914" stroke="#221E1F" stroke-width="0.96" fill="none" /><path id="1938" transform="matrix(1 0 0 -1 0 792)" d="M142.3734 600.8047L148.6914 602.2127L148.6914 602.2127L148.6924 599.3647z" stroke="none" fill="#221E1F" fill-rule="evenodd" /><path id="1939" transform="matrix(1 0 0 -1 0 792)" d="M142.3734 600.8047L148.6914 602.2127L148.6914 602.2127L148.6924 599.3647L148.6924 599.3647L142.3734 600.8047z" stroke="#221E1F" stroke-width="0.576" fill="none" /><path id="1940" transform="matrix(1 0 0 -1 0 792)" d="M113.3049 580.906L119.6229 582.314L119.6229 582.314L119.6239 579.466z" stroke="none" fill="#221E1F" fill-rule="evenodd" /><path id="1941" transform="matrix(1 0 0 -1 0 792)" d="M113.3049 580.906L119.6229 582.314L119.6229 582.314L119.6239 579.466L119.6239 579.466L113.3049 580.906z" stroke="#221E1F" stroke-width="0.576" fill="none" /><path id="1942" transform="matrix(1 0 0 -1 0 792)" d="M151.9033 606.2805L157.1913 606.2805L157.1913 606.2805L157.2763 595.0415L157.2763 595.0415L151.7723 595.0625M159.3513 602.3985L155.0313 602.3985" stroke="#221E1F" stroke-width="0.96" fill="none" /><path id="1943" transform="matrix(1 0 0 -1 0 792)" d="M157.1689 602.2362L158.5769 598.5922L158.5769 598.5922L155.7289 598.5922z" stroke="none" fill="#221E1F" fill-rule="evenodd" /><path id="1944" transform="matrix(1 0 0 -1 0 792)" d="M157.1689 602.2362L158.5769 598.5922L158.5769 598.5922L155.7289 598.5922L155.7289 598.5922L157.1689 602.2362z" stroke="#221E1F" stroke-width="0.576" fill="none" /><path id="1945" transform="matrix(1 0 0 -1 0 792)" d="M122.8615 586.7726L128.1495 586.7726L128.1495 586.7726L128.1495 575.1656L128.1495 575.1656L122.7305 575.2746M130.3095 583.4066L125.9895 583.4066" stroke="#221E1F" stroke-width="0.96" fill="none" /><path id="1946" transform="matrix(1 0 0 -1 0 792)" d="M128.127 583.2444L129.535 579.6004L129.535 579.6004L126.687 579.6004z" stroke="none" fill="#221E1F" fill-rule="evenodd" /><path id="1947" transform="matrix(1 0 0 -1 0 792)" d="M128.127 583.2444L129.535 579.6004L129.535 579.6004L126.687 579.6004L126.687 579.6004L128.127 583.2444z" stroke="#221E1F" stroke-width="0.576" fill="none" /><path id="1948" transform="matrix(1 0 0 -1 0 792)" d="M95.3677 736.4834L95.3677 728.2724" stroke="#221E1F" stroke-width="0.96" fill="none" /><path id="1949" transform="matrix(1 0 0 -1 0 792)" d="M97.3031 728.2719C 97.3031 727.2069 96.4341 726.3369 95.3681 726.3369C 94.3011 726.3369 93.4321 727.2069 93.4321 728.2719C 93.4321 729.3369 94.3011 730.2069 95.3681 730.2069C 96.4341 730.2069 97.3031 729.3369 97.3031 728.2719" stroke="none" fill="#221E1F" fill-rule="evenodd" /><path id="1950" transform="matrix(1 0 0 -1 0 792)" d="M200.8546 721.859L200.8546 704.052L200.8546 704.052L193.9266 704.058" stroke="#221E1F" stroke-width="0.96" fill="none" /><path id="1951" transform="matrix(1 0 0 -1 0 792)" d="M193.9247 702.1225C 192.8607 702.1235 191.9897 702.9935 191.9907 704.0595C 191.9917 705.1255 192.8637 705.9945 193.9277 705.9935C 194.9927 705.9925 195.8627 705.1225 195.8617 704.0565C 195.8607 702.9895 194.9897 702.1215 193.9247 702.1225" stroke="none" fill="#221E1F" fill-rule="evenodd" /><path id="1952" transform="matrix(1 0 0 -1 0 792)" d="M173.7892 577.9558L173.7892 587.7218L173.7892 587.7218L169.4932 589.0558L169.4932 589.0558L177.9072 591.5498L177.9072 591.5498L169.4932 594.0448L169.4932 594.0448L177.9072 596.5378L177.9072 596.5378L169.4932 599.0318L169.4932 599.0318L177.9072 601.5248L177.9072 601.5248L173.7892 602.7438L173.7892 602.7438L173.7892 611.9928" stroke="#221E1F" stroke-width="0.96" fill="none" /><path id="1953" transform="matrix(1 0 0 -1 0 792)" d="M171.8539 577.9558C 171.8539 576.8918 172.7229 576.0208 173.7889 576.0208C 174.8559 576.0208 175.7249 576.8908 175.7249 577.9558C 175.7249 579.0198 174.8559 579.8908 173.7889 579.8908C 172.7229 579.8908 171.8539 579.0208 171.8539 577.9558" stroke="none" fill="#221E1F" fill-rule="evenodd" /><path id="1954" transform="matrix(1 0 0 -1 0 792)" d="M173.7892 615.8352L173.7892 627.6122L173.7892 627.6122L151.9032 627.6122" stroke="#221E1F" stroke-width="0.96" fill="none" /><path id="1955" transform="matrix(1 0 0 -1 0 792)" d="M151.9032 625.677C 150.8382 625.677 149.9682 626.546 149.9682 627.612C 149.9682 628.679 150.8382 629.548 151.9032 629.548C 152.9682 629.548 153.8382 628.679 153.8382 627.612C 153.8382 626.546 152.9682 625.677 151.9032 625.677" stroke="none" fill="#221E1F" fill-rule="evenodd" /><path id="1956" transform="matrix(1 0 0 -1 0 792)" d="M106.6192 664.8124L107.0182 664.8124L107.0182 664.8124L107.4172 664.7454L107.4172 664.7454L107.7502 664.6124L107.7502 664.6124L108.1492 664.5454L108.1492 664.5454L108.4822 664.4124L108.4822 664.4124L108.8812 664.2134L108.8812 664.2134L109.2142 664.0794L109.2142 664.0794L109.5472 663.8804L109.5472 663.8804L109.8802 663.6804L109.8802 663.6804L110.2122 663.4144L110.2122 663.4144L110.5452 663.1484L110.5452 663.1484L110.8782 662.8814L110.8782 662.8814L111.2112 662.6154L111.2112 662.6154L111.4772 662.2834L111.4772 662.2834L111.7432 661.9504L111.7432 661.9504L112.0092 661.6174L112.0092 661.6174L112.5422 660.8854L112.5422 660.8854L113.0072 660.1534L113.0072 660.1534L113.4742 659.2874L113.4742 659.2874L113.8732 658.3564L113.8732 658.3564L114.2062 657.4244L114.2062 657.4244L114.4722 656.3594L114.4722 656.3594L114.6722 655.3614L114.6722 655.3614L114.8712 654.2294M63.0832 664.5754L63.0832 634.9924M94.7232 644.4124L94.7232 654.9114M179.2652 615.2104L168.7652 615.2104M91.2222 654.9114L91.2222 644.4124M168.7652 611.7094L179.2652 611.7094" stroke="#221E1F" stroke-width="0.96" fill="none" /><path id="1957" transform="matrix(1 0 0 -1 0 792)" d="M117.2929 655.062L115.6009 650.094L115.6009 650.094L112.3109 654.182z" stroke="none" fill="#221E1F" fill-rule="evenodd" /><path id="1958" transform="matrix(1 0 0 -1 0 792)" d="M78.9103 664.812L78.5113 664.812L78.5113 664.812L78.1123 664.745L78.1123 664.745L77.7793 664.612L77.7793 664.612L77.3793 664.546L77.3793 664.546L77.0473 664.413L77.0473 664.413L76.6473 664.213L76.6473 664.213L76.3143 664.08L76.3143 664.08L75.9823 663.88L75.9823 663.88L75.6493 663.68L75.6493 663.68L75.3163 663.414L75.3163 663.414L74.9833 663.148L74.9833 663.148L74.6513 662.882L74.6513 662.882L74.3183 662.615L74.3183 662.615L74.0523 662.283L74.0523 662.283L73.7853 661.95L73.7853 661.95L73.5193 661.617L73.5193 661.617L72.9873 660.885L72.9873 660.885L72.5213 660.153L72.5213 660.153L72.0553 659.288L72.0553 659.288L71.6563 658.356L71.6563 658.356L71.3233 657.424L71.3233 657.424L71.0573 656.359L71.0573 656.359L70.8573 655.361L70.8573 655.361L70.6573 654.23" stroke="#221E1F" stroke-width="0.96" fill="none" /><path id="1959" transform="matrix(1 0 0 -1 0 792)" d="M73.218 654.1824L69.928 650.0934L69.928 650.0934L68.236 655.0624z" stroke="none" fill="#221E1F" fill-rule="evenodd" /></g><g clip-path="url(#15)"><path id="1964" transform="matrix(1 0 0 -1 0 792)" d="M238.0409 673.2249L242.2359 664.5759L242.2359 664.5759L233.8459 664.5759z" stroke="none" fill="#221E1F" fill-rule="evenodd" /><path id="1965" transform="matrix(1 0 0 -1 0 792)" d="M238.0409 635.1058L242.2359 626.4568L242.2359 626.4568L233.8459 626.4568z" stroke="none" fill="#221E1F" fill-rule="evenodd" /><path id="1966" transform="matrix(1 0 0 -1 0 792)" d="M288.984 534.0381L296.334 534.0381M291.609 531.4121L293.71 531.4121M286.359 536.6621L298.959 536.6621M242.243 634.8491L233.843 634.8491M242.243 672.9681L233.843 672.9681" stroke="#221E1F" stroke-width="0.96" fill="none" /></g><g clip-path="url(#16)"><path id="1995" transform="matrix(1 0 0 -1 0 792)" d="M292.5554 552.2639L292.5554 536.3249" stroke="#221E1F" stroke-width="0.96" fill="none" /><path id="1996" transform="matrix(1 0 0 -1 0 792)" d="M294.4907 552.2639C 294.4907 553.3289 293.6217 554.1989 292.5557 554.1989C 291.4887 554.1989 290.6197 553.3289 290.6197 552.2639C 290.6197 551.1989 291.4887 550.3289 292.5557 550.3289C 293.6217 550.3289 294.4907 551.1989 294.4907 552.2639" stroke="none" fill="#221E1F" fill-rule="evenodd" /><path id="1997" transform="matrix(1 0 0 -1 0 792)" d="M374.2206 650.7134C 372.6696 651.6194 370.8636 652.1394 368.9356 652.1394C 367.0246 652.1394 365.2346 651.6295 363.6896 650.7365M374.1956 655.6384L363.6956 655.6384M250.4426 616.3054L250.4426 589.6344M313.7606 703.9834L313.7606 677.3134M247.8876 616.3054L247.8876 589.6344M311.2056 703.9834L311.2056 677.3134M288.4986 575.1714L297.7426 575.1945L297.7426 575.1945L297.7426 552.3134L297.7426 552.3134L279.8256 552.3134L279.8256 552.3134L279.8256 552.2134L279.8256 552.2134L238.1116 552.2694L238.1116 552.2694L238.1136 589.7384L238.1136 589.7384L242.9086 589.7384C 244.7336 589.7384 246.2136 591.3374 246.2136 593.1624C 246.2136 594.9874 244.7336 596.4624 242.9086 596.4624C 244.7336 596.4624 246.2136 597.9374 246.2136 599.7625C 246.2136 601.5874 244.7336 603.0624 242.9086 603.0624C 244.7336 603.0624 246.2136 604.5374 246.2136 606.3624C 246.2136 608.1874 244.7336 609.6704 242.9086 609.6704C 244.7336 609.6704 246.2136 611.1534 246.2136 612.9794C 246.2136 614.8034 244.7336 616.3795 242.9086 616.3795L242.9086 616.3795L238.1136 616.3795L238.1136 616.3795L238.1136 626.2124M297.8356 649.8044L297.8356 677.4164L297.8356 677.4164L305.0276 677.4164C 306.8526 677.4164 308.3336 679.0164 308.3336 680.8405C 308.3336 682.6654 306.8526 684.1404 305.0276 684.1404C 306.8526 684.1404 308.3336 685.6165 308.3336 687.4404C 308.3336 689.2664 306.8526 690.7404 305.0276 690.7404C 306.8526 690.7404 308.3336 692.2164 308.3336 694.0404C 308.3336 695.8654 306.8526 697.3494 305.0276 697.3494C 306.8526 697.3494 308.3336 698.8324 308.3336 700.6574C 308.3336 702.4814 306.8526 704.0574 305.0276 704.0574L305.0276 704.0574L297.8356 704.0574L297.8356 704.0574L297.8356 728.2755L297.8356 728.2755L238.0956 728.2755L238.0956 728.2755L238.0956 672.8214M288.4126 586.6824C 291.7026 586.6824 294.3986 586.6874 297.7426 586.6874L297.7426 586.6874L297.8356 649.8044M317.2236 606.3024L326.8236 606.3024L326.8236 606.3024L326.8236 634.8164L326.8236 634.8164L326.9156 634.7574L326.9156 634.7574L326.9156 677.4164L326.9156 677.4164L319.7236 677.4164C 317.8986 677.4164 316.4176 679.0164 316.4176 680.8405C 316.4176 682.6654 317.8986 684.1404 319.7236 684.1404C 317.8986 684.1404 316.4176 685.6165 316.4176 687.4404C 316.4176 689.2664 317.8986 690.7404 319.7236 690.7404C 317.8986 690.7404 316.4176 692.2164 316.4176 694.0404C 316.4176 695.8654 317.8986 697.3494 319.7236 697.3494C 317.8986 697.3494 316.4176 698.8324 316.4176 700.6574C 316.4176 702.4814 317.8986 704.0574 319.7236 704.0574L319.7236 704.0574L368.8806 704.0574L368.8806 704.0574L368.8806 655.6384" stroke="#221E1F" stroke-width="0.96" fill="none" /><path id="1998" transform="matrix(1 0 0 -1 0 792)" d="M320.0109 682.3502C 320.9039 682.3502 321.6279 681.6262 321.6279 680.7332C 321.6279 679.8402 320.9039 679.1162 320.0109 679.1162C 319.1179 679.1162 318.3939 679.8402 318.3939 680.7332C 318.3939 681.6262 319.1179 682.3502 320.0109 682.3502" stroke="none" fill="#221E1F" fill-rule="evenodd" /><path id="1999" transform="matrix(1 0 0 -1 0 792)" d="M320.0109 682.3502C 320.9039 682.3502 321.6279 681.6262 321.6279 680.7332C 321.6279 679.8402 320.9039 679.1162 320.0109 679.1162C 319.1179 679.1162 318.3939 679.8402 318.3939 680.7332C 318.3939 681.6262 319.1179 682.3502 320.0109 682.3502z" stroke="#221E1F" stroke-width="0.96" fill="none" /><path id="2000" transform="matrix(1 0 0 -1 0 792)" d="M304.7403 702.3087C 303.8473 702.3087 303.1233 701.5847 303.1233 700.6917C 303.1233 699.7987 303.8473 699.0747 304.7403 699.0747C 305.6333 699.0747 306.3573 699.7987 306.3573 700.6917C 306.3573 701.5847 305.6333 702.3087 304.7403 702.3087" stroke="none" fill="#221E1F" fill-rule="evenodd" /><path id="2001" transform="matrix(1 0 0 -1 0 792)" d="M304.7403 702.3087C 303.8473 702.3087 303.1233 701.5847 303.1233 700.6917C 303.1233 699.7987 303.8473 699.0747 304.7403 699.0747C 305.6333 699.0747 306.3573 699.7987 306.3573 700.6917C 306.3573 701.5847 305.6333 702.3087 304.7403 702.3087z" stroke="#221E1F" stroke-width="0.96" fill="none" /><path id="2002" transform="matrix(1 0 0 -1 0 792)" d="M242.6216 594.7316C 241.7286 594.7316 241.0046 594.0076 241.0046 593.1146C 241.0046 592.2216 241.7286 591.4976 242.6216 591.4976C 243.5146 591.4976 244.2386 592.2216 244.2386 593.1146C 244.2386 594.0076 243.5146 594.7316 242.6216 594.7316" stroke="none" fill="#221E1F" fill-rule="evenodd" /><path id="2003" transform="matrix(1 0 0 -1 0 792)" d="M242.6216 594.7316C 241.7286 594.7316 241.0046 594.0076 241.0046 593.1146C 241.0046 592.2216 241.7286 591.4976 242.6216 591.4976C 243.5146 591.4976 244.2386 592.2216 244.2386 593.1146C 244.2386 594.0076 243.5146 594.7316 242.6216 594.7316z" stroke="#221E1F" stroke-width="0.96" fill="none" /></g><g clip-path="url(#17)"><path id="2010" transform="matrix(1 0 0 -1 0 792)" d="M270.0799 649.5051L297.8299 649.5042" stroke="#221E1F" stroke-width="0.96" stroke-dasharray="4.8,0.96" fill="none" /><path id="2011" transform="matrix(1 0 0 -1 0 792)" d="M297.83 651.4399C 298.895 651.4399 299.765 650.5709 299.765 649.5049C 299.765 648.4379 298.894 647.5689 297.83 647.5689C 296.765 647.5689 295.895 648.4379 295.895 649.5049C 295.895 650.5709 296.766 651.4399 297.83 651.4399" stroke="none" fill="#221E1F" fill-rule="evenodd" /><path id="2012" transform="matrix(1 0 0 -1 0 792)" d="M237.9544 649.5051L266.4234 649.5042" stroke="#221E1F" stroke-width="0.96" stroke-dasharray="4.8,0.96" fill="none" /><path id="2013" transform="matrix(1 0 0 -1 0 792)" d="M237.9544 651.4406C 236.8904 651.4406 236.0194 650.5716 236.0194 649.5056C 236.0194 648.4386 236.8894 647.5696 237.9544 647.5696C 239.0184 647.5696 239.8894 648.4386 239.8894 649.5056C 239.8894 650.5716 239.0194 651.4406 237.9544 651.4406" stroke="none" fill="#221E1F" fill-rule="evenodd" /><path id="2014" transform="matrix(1 0 0 -1 0 792)" d="M369.2933 721.8597L382.5873 721.8597M263.8063 736.4837L277.1003 736.4837" stroke="#221E1F" stroke-width="0.96" fill="none" /><path id="2015" transform="matrix(1 0 0 -1 0 792)" d="M363.9539 562.5462L351.8039 562.5462L351.8039 562.5462L357.8789 552.6912z" stroke="none" fill="#FFFFFF" fill-rule="evenodd" /><path id="2016" transform="matrix(1 0 0 -1 0 792)" d="M363.9539 562.5462L351.8039 562.5462L351.8039 562.5462L357.8789 552.6912L357.8789 552.6912L363.9539 562.5462z" stroke="#221E1F" stroke-width="0.96" fill="none" /><path id="2017" transform="matrix(1 0 0 -1 0 792)" d="M357.8786 562.9702L357.8786 577.6642" stroke="#221E1F" stroke-width="0.96" fill="none" /><path id="2018" transform="matrix(1 0 0 -1 0 792)" d="M355.9433 577.6643C 355.9433 578.7293 356.8123 579.5993 357.8783 579.5993C 358.9453 579.5993 359.8143 578.7293 359.8143 577.6643C 359.8143 576.5993 358.9453 575.7293 357.8783 575.7293C 356.8123 575.7293 355.9433 576.5993 355.9433 577.6643" stroke="none" fill="#221E1F" fill-rule="evenodd" /><path id="2019" transform="matrix(1 0 0 -1 0 792)" d="M368.8803 652.1384L368.8803 577.6644L368.8803 577.6644L326.7843 577.6644L326.7843 577.6644L326.7843 595.0914L326.7843 595.0914L316.8253 595.0914M288.1553 580.9283L297.7543 580.9283L297.7543 580.9283L297.7543 575.1894M317.2233 600.8274L326.8233 600.8274L326.8233 600.8274L326.8233 595.0874M288.1553 576.6324L288.1553 572.3124M317.2233 596.4114L317.2233 592.0914M288.1553 583.0884L288.1553 578.7684M317.2233 602.9874L317.2233 598.6674M288.1553 589.4014L288.1553 585.0814M317.2233 609.3004L317.2233 604.9803M285.0353 586.6894L285.0353 575.1934L285.0353 575.1934L276.7553 575.1934M314.1033 606.2814L314.1033 595.0914L314.1033 595.0914L305.8233 595.0914" stroke="#221E1F" stroke-width="0.96" fill="none" /><path id="2020" transform="matrix(1 0 0 -1 0 792)" d="M317.3857 600.8047L323.7037 602.2127L323.7037 602.2127L323.7047 599.3647z" stroke="none" fill="#221E1F" fill-rule="evenodd" /><path id="2021" transform="matrix(1 0 0 -1 0 792)" d="M317.3857 600.8047L323.7037 602.2127L323.7037 602.2127L323.7047 599.3647L323.7047 599.3647L317.3857 600.8047z" stroke="#221E1F" stroke-width="0.576" fill="none" /><path id="2022" transform="matrix(1 0 0 -1 0 792)" d="M288.3173 580.906L294.6353 582.314L294.6353 582.314L294.6363 579.466z" stroke="none" fill="#221E1F" fill-rule="evenodd" /><path id="2023" transform="matrix(1 0 0 -1 0 792)" d="M288.3173 580.906L294.6353 582.314L294.6353 582.314L294.6363 579.466L294.6363 579.466L288.3173 580.906z" stroke="#221E1F" stroke-width="0.576" fill="none" /><path id="2024" transform="matrix(1 0 0 -1 0 792)" d="M326.9157 606.2805L332.2037 606.2805L332.2037 606.2805L332.2887 595.0415L332.2887 595.0415L326.7847 595.0625M334.3637 602.3985L330.0437 602.3985" stroke="#221E1F" stroke-width="0.96" fill="none" /><path id="2025" transform="matrix(1 0 0 -1 0 792)" d="M332.1813 602.2362L333.5893 598.5922L333.5893 598.5922L330.7413 598.5922z" stroke="none" fill="#221E1F" fill-rule="evenodd" /><path id="2026" transform="matrix(1 0 0 -1 0 792)" d="M332.1813 602.2362L333.5893 598.5922L333.5893 598.5922L330.7413 598.5922L330.7413 598.5922L332.1813 602.2362z" stroke="#221E1F" stroke-width="0.576" fill="none" /><path id="2027" transform="matrix(1 0 0 -1 0 792)" d="M297.8739 586.7726L303.1619 586.7726L303.1619 586.7726L303.1619 575.1656L303.1619 575.1656L297.7429 575.2746M305.3219 583.4066L301.0019 583.4066" stroke="#221E1F" stroke-width="0.96" fill="none" /><path id="2028" transform="matrix(1 0 0 -1 0 792)" d="M303.1394 583.2444L304.5474 579.6004L304.5474 579.6004L301.6994 579.6004z" stroke="none" fill="#221E1F" fill-rule="evenodd" /><path id="2029" transform="matrix(1 0 0 -1 0 792)" d="M303.1394 583.2444L304.5474 579.6004L304.5474 579.6004L301.6994 579.6004L301.6994 579.6004L303.1394 583.2444z" stroke="#221E1F" stroke-width="0.576" fill="none" /><path id="2030" transform="matrix(1 0 0 -1 0 792)" d="M270.3801 736.4834L270.3801 728.2724" stroke="#221E1F" stroke-width="0.96" fill="none" /><path id="2031" transform="matrix(1 0 0 -1 0 792)" d="M272.3154 728.2719C 272.3154 727.2069 271.4464 726.3369 270.3804 726.3369C 269.3134 726.3369 268.4444 727.2069 268.4444 728.2719C 268.4444 729.3369 269.3134 730.2069 270.3804 730.2069C 271.4464 730.2069 272.3154 729.3369 272.3154 728.2719" stroke="none" fill="#221E1F" fill-rule="evenodd" /><path id="2032" transform="matrix(1 0 0 -1 0 792)" d="M375.867 721.859L375.867 704.052L375.867 704.052L368.939 704.058" stroke="#221E1F" stroke-width="0.96" fill="none" /><path id="2033" transform="matrix(1 0 0 -1 0 792)" d="M368.937 702.1225C 367.873 702.1235 367.002 702.9935 367.003 704.0595C 367.004 705.1255 367.876 705.9945 368.94 705.9935C 370.005 705.9925 370.875 705.1225 370.874 704.0565C 370.873 702.9895 370.002 702.1215 368.937 702.1225" stroke="none" fill="#221E1F" fill-rule="evenodd" /><path id="2034" transform="matrix(1 0 0 -1 0 792)" d="M348.8016 577.9558L348.8016 587.7218L348.8016 587.7218L344.5056 589.0558L344.5056 589.0558L352.9196 591.5498L352.9196 591.5498L344.5056 594.0448L344.5056 594.0448L352.9196 596.5378L352.9196 596.5378L344.5056 599.0318L344.5056 599.0318L352.9196 601.5248L352.9196 601.5248L348.8016 602.7438L348.8016 602.7438L348.8016 611.9928" stroke="#221E1F" stroke-width="0.96" fill="none" /><path id="2035" transform="matrix(1 0 0 -1 0 792)" d="M346.8662 577.9558C 346.8662 576.8918 347.7352 576.0208 348.8012 576.0208C 349.8682 576.0208 350.7372 576.8908 350.7372 577.9558C 350.7372 579.0198 349.8682 579.8908 348.8012 579.8908C 347.7352 579.8908 346.8662 579.0208 346.8662 577.9558" stroke="none" fill="#221E1F" fill-rule="evenodd" /><path id="2036" transform="matrix(1 0 0 -1 0 792)" d="M348.8016 615.8352L348.8016 627.6122L348.8016 627.6122L326.9156 627.6122" stroke="#221E1F" stroke-width="0.96" fill="none" /><path id="2037" transform="matrix(1 0 0 -1 0 792)" d="M326.9156 625.677C 325.8506 625.677 324.9806 626.546 324.9806 627.612C 324.9806 628.679 325.8506 629.548 326.9156 629.548C 327.9806 629.548 328.8506 628.679 328.8506 627.612C 328.8506 626.546 327.9806 625.677 326.9156 625.677" stroke="none" fill="#221E1F" fill-rule="evenodd" /><path id="2038" transform="matrix(1 0 0 -1 0 792)" d="M281.6306 664.8124L282.0306 664.8124L282.0306 664.8124L282.4296 664.7454L282.4296 664.7454L282.7626 664.6124L282.7626 664.6124L283.1616 664.5454L283.1616 664.5454L283.4946 664.4124L283.4946 664.4124L283.8936 664.2134L283.8936 664.2134L284.2266 664.0794L284.2266 664.0794L284.5596 663.8804L284.5596 663.8804L284.8926 663.6804L284.8926 663.6804L285.2246 663.4144L285.2246 663.4144L285.5576 663.1484L285.5576 663.1484L285.8906 662.8814L285.8906 662.8814L286.2236 662.6154L286.2236 662.6154L286.4896 662.2834L286.4896 662.2834L286.7556 661.9504L286.7556 661.9504L287.0216 661.6174L287.0216 661.6174L287.5546 660.8854L287.5546 660.8854L288.0196 660.1534L288.0196 660.1534L288.4866 659.2874L288.4866 659.2874L288.8856 658.3564L288.8856 658.3564L289.2186 657.4244L289.2186 657.4244L289.4846 656.3594L289.4846 656.3594L289.6846 655.3614L289.6846 655.3614L289.8836 654.2294M238.0956 664.5754L238.0956 634.9924M269.7356 644.4124L269.7356 654.9114M354.2776 615.2104L343.7776 615.2104M266.2346 654.9114L266.2346 644.4124M343.7776 611.7094L354.2776 611.7094" stroke="#221E1F" stroke-width="0.96" fill="none" /><path id="2039" transform="matrix(1 0 0 -1 0 792)" d="M292.3053 655.062L290.6133 650.094L290.6133 650.094L287.3233 654.182z" stroke="none" fill="#221E1F" fill-rule="evenodd" /><path id="2040" transform="matrix(1 0 0 -1 0 792)" d="M253.9227 664.812L253.5237 664.812L253.5237 664.812L253.1247 664.745L253.1247 664.745L252.7917 664.612L252.7917 664.612L252.3917 664.546L252.3917 664.546L252.0597 664.413L252.0597 664.413L251.6597 664.213L251.6597 664.213L251.3267 664.08L251.3267 664.08L250.9947 663.88L250.9947 663.88L250.6617 663.68L250.6617 663.68L250.3287 663.414L250.3287 663.414L249.9957 663.148L249.9957 663.148L249.6637 662.882L249.6637 662.882L249.3307 662.615L249.3307 662.615L249.0647 662.283L249.0647 662.283L248.7977 661.95L248.7977 661.95L248.5317 661.617L248.5317 661.617L247.9997 660.885L247.9997 660.885L247.5337 660.153L247.5337 660.153L247.0677 659.288L247.0677 659.288L246.6687 658.356L246.6687 658.356L246.3357 657.424L246.3357 657.424L246.0697 656.359L246.0697 656.359L245.8697 655.361L245.8697 655.361L245.6697 654.23" stroke="#221E1F" stroke-width="0.96" fill="none" /><path id="2041" transform="matrix(1 0 0 -1 0 792)" d="M248.2304 654.1824L244.9404 650.0934L244.9404 650.0934L243.2484 655.0624z" stroke="none" fill="#221E1F" fill-rule="evenodd" /></g><g clip-path="url(#18)"><path id="2046" transform="matrix(1 0 0 -1 0 792)" d="M410.6558 673.2249L414.8508 664.5759L414.8508 664.5759L406.4608 664.5759z" stroke="none" fill="#221E1F" fill-rule="evenodd" /><path id="2047" transform="matrix(1 0 0 -1 0 792)" d="M410.6558 635.1058L414.8508 626.4568L414.8508 626.4568L406.4608 626.4568z" stroke="none" fill="#221E1F" fill-rule="evenodd" /><path id="2048" transform="matrix(1 0 0 -1 0 792)" d="M461.599 534.0381L468.949 534.0381M464.224 531.4121L466.325 531.4121M458.974 536.6621L471.574 536.6621M414.858 634.8491L406.458 634.8491M414.858 672.9681L406.458 672.9681" stroke="#221E1F" stroke-width="0.96" fill="none" /></g><g clip-path="url(#19)"><path id="2077" transform="matrix(1 0 0 -1 0 792)" d="M465.1703 552.2639L465.1703 536.3249" stroke="#221E1F" stroke-width="0.96" fill="none" /><path id="2078" transform="matrix(1 0 0 -1 0 792)" d="M467.1057 552.2639C 467.1057 553.3289 466.2367 554.1989 465.1707 554.1989C 464.1037 554.1989 463.2347 553.3289 463.2347 552.2639C 463.2347 551.1989 464.1037 550.3289 465.1707 550.3289C 466.2367 550.3289 467.1057 551.1989 467.1057 552.2639" stroke="none" fill="#221E1F" fill-rule="evenodd" /><path id="2079" transform="matrix(1 0 0 -1 0 792)" d="M546.8355 650.7134C 545.2845 651.6194 543.4785 652.1394 541.5505 652.1394C 539.6395 652.1394 537.8495 651.6295 536.3045 650.7365M546.8105 655.6384L536.3105 655.6384M423.0575 616.3054L423.0575 589.6344M486.3755 703.9834L486.3755 677.3134M420.5025 616.3054L420.5025 589.6344M483.8205 703.9834L483.8205 677.3134M461.1135 575.1714L470.3575 575.1945L470.3575 575.1945L470.3575 552.3134L470.3575 552.3134L452.4405 552.3134L452.4405 552.3134L452.4405 552.2134L452.4405 552.2134L410.7265 552.2694L410.7265 552.2694L410.7285 589.7384L410.7285 589.7384L415.5235 589.7384C 417.3485 589.7384 418.8285 591.3374 418.8285 593.1624C 418.8285 594.9874 417.3485 596.4624 415.5235 596.4624C 417.3485 596.4624 418.8285 597.9374 418.8285 599.7625C 418.8285 601.5874 417.3485 603.0624 415.5235 603.0624C 417.3485 603.0624 418.8285 604.5374 418.8285 606.3624C 418.8285 608.1874 417.3485 609.6704 415.5235 609.6704C 417.3485 609.6704 418.8285 611.1534 418.8285 612.9794C 418.8285 614.8034 417.3485 616.3795 415.5235 616.3795L415.5235 616.3795L410.7285 616.3795L410.7285 616.3795L410.7285 626.2124M470.4505 649.8044L470.4505 677.4164L470.4505 677.4164L477.6425 677.4164C 479.4675 677.4164 480.9485 679.0164 480.9485 680.8405C 480.9485 682.6654 479.4675 684.1404 477.6425 684.1404C 479.4675 684.1404 480.9485 685.6165 480.9485 687.4404C 480.9485 689.2664 479.4675 690.7404 477.6425 690.7404C 479.4675 690.7404 480.9485 692.2164 480.9485 694.0404C 480.9485 695.8654 479.4675 697.3494 477.6425 697.3494C 479.4675 697.3494 480.9485 698.8324 480.9485 700.6574C 480.9485 702.4814 479.4675 704.0574 477.6425 704.0574L477.6425 704.0574L470.4505 704.0574L470.4505 704.0574L470.4505 728.2755L470.4505 728.2755L410.7105 728.2755L410.7105 728.2755L410.7105 672.8214M461.0275 586.6824C 464.3175 586.6824 467.0135 586.6874 470.3575 586.6874L470.3575 586.6874L470.4505 649.8044M489.8385 606.3024L499.4385 606.3024L499.4385 606.3024L499.4385 634.8164L499.4385 634.8164L499.5305 634.7574L499.5305 634.7574L499.5305 677.4164L499.5305 677.4164L492.3385 677.4164C 490.5135 677.4164 489.0335 679.0164 489.0335 680.8405C 489.0335 682.6654 490.5135 684.1404 492.3385 684.1404C 490.5135 684.1404 489.0335 685.6165 489.0335 687.4404C 489.0335 689.2664 490.5135 690.7404 492.3385 690.7404C 490.5135 690.7404 489.0335 692.2164 489.0335 694.0404C 489.0335 695.8654 490.5135 697.3494 492.3385 697.3494C 490.5135 697.3494 489.0335 698.8324 489.0335 700.6574C 489.0335 702.4814 490.5135 704.0574 492.3385 704.0574L492.3385 704.0574L541.4955 704.0574L541.4955 704.0574L541.4955 655.6384" stroke="#221E1F" stroke-width="0.96" fill="none" /><path id="2080" transform="matrix(1 0 0 -1 0 792)" d="M492.6259 682.3502C 493.5189 682.3502 494.2429 681.6262 494.2429 680.7332C 494.2429 679.8402 493.5189 679.1162 492.6259 679.1162C 491.7329 679.1162 491.0089 679.8402 491.0089 680.7332C 491.0089 681.6262 491.7329 682.3502 492.6259 682.3502" stroke="none" fill="#221E1F" fill-rule="evenodd" /><path id="2081" transform="matrix(1 0 0 -1 0 792)" d="M492.6259 682.3502C 493.5189 682.3502 494.2429 681.6262 494.2429 680.7332C 494.2429 679.8402 493.5189 679.1162 492.6259 679.1162C 491.7329 679.1162 491.0089 679.8402 491.0089 680.7332C 491.0089 681.6262 491.7329 682.3502 492.6259 682.3502z" stroke="#221E1F" stroke-width="0.96" fill="none" /><path id="2082" transform="matrix(1 0 0 -1 0 792)" d="M477.3553 702.3087C 476.4623 702.3087 475.7383 701.5847 475.7383 700.6917C 475.7383 699.7987 476.4623 699.0747 477.3553 699.0747C 478.2483 699.0747 478.9723 699.7987 478.9723 700.6917C 478.9723 701.5847 478.2483 702.3087 477.3553 702.3087" stroke="none" fill="#221E1F" fill-rule="evenodd" /><path id="2083" transform="matrix(1 0 0 -1 0 792)" d="M477.3553 702.3087C 476.4623 702.3087 475.7383 701.5847 475.7383 700.6917C 475.7383 699.7987 476.4623 699.0747 477.3553 699.0747C 478.2483 699.0747 478.9723 699.7987 478.9723 700.6917C 478.9723 701.5847 478.2483 702.3087 477.3553 702.3087z" stroke="#221E1F" stroke-width="0.96" fill="none" /><path id="2084" transform="matrix(1 0 0 -1 0 792)" d="M415.2366 594.7316C 414.3436 594.7316 413.6196 594.0076 413.6196 593.1146C 413.6196 592.2216 414.3436 591.4976 415.2366 591.4976C 416.1296 591.4976 416.8536 592.2216 416.8536 593.1146C 416.8536 594.0076 416.1296 594.7316 415.2366 594.7316" stroke="none" fill="#221E1F" fill-rule="evenodd" /><path id="2085" transform="matrix(1 0 0 -1 0 792)" d="M415.2366 594.7316C 414.3436 594.7316 413.6196 594.0076 413.6196 593.1146C 413.6196 592.2216 414.3436 591.4976 415.2366 591.4976C 416.1296 591.4976 416.8536 592.2216 416.8536 593.1146C 416.8536 594.0076 416.1296 594.7316 415.2366 594.7316z" stroke="#221E1F" stroke-width="0.96" fill="none" /></g><g clip-path="url(#20)"><path id="2092" transform="matrix(1 0 0 -1 0 792)" d="M442.6949 649.5051L470.4449 649.5042" stroke="#221E1F" stroke-width="0.96" stroke-dasharray="4.8,0.96" fill="none" /><path id="2093" transform="matrix(1 0 0 -1 0 792)" d="M470.4449 651.4399C 471.5099 651.4399 472.3799 650.5709 472.3799 649.5049C 472.3799 648.4379 471.5089 647.5689 470.4449 647.5689C 469.3799 647.5689 468.5099 648.4379 468.5099 649.5049C 468.5099 650.5709 469.3809 651.4399 470.4449 651.4399" stroke="none" fill="#221E1F" fill-rule="evenodd" /><path id="2094" transform="matrix(1 0 0 -1 0 792)" d="M410.5693 649.5051L439.0383 649.5042" stroke="#221E1F" stroke-width="0.96" stroke-dasharray="4.8,0.96" fill="none" /><path id="2095" transform="matrix(1 0 0 -1 0 792)" d="M410.5693 651.4406C 409.5053 651.4406 408.6343 650.5716 408.6343 649.5056C 408.6343 648.4386 409.5043 647.5696 410.5693 647.5696C 411.6333 647.5696 412.5043 648.4386 412.5043 649.5056C 412.5043 650.5716 411.6343 651.4406 410.5693 651.4406" stroke="none" fill="#221E1F" fill-rule="evenodd" /><path id="2096" transform="matrix(1 0 0 -1 0 792)" d="M541.9083 721.8597L555.2023 721.8597M436.4213 736.4837L449.7153 736.4837" stroke="#221E1F" stroke-width="0.96" fill="none" /><path id="2097" transform="matrix(1 0 0 -1 0 792)" d="M536.5688 562.5462L524.4188 562.5462L524.4188 562.5462L530.4938 552.6912z" stroke="none" fill="#FFFFFF" fill-rule="evenodd" /><path id="2098" transform="matrix(1 0 0 -1 0 792)" d="M536.5688 562.5462L524.4188 562.5462L524.4188 562.5462L530.4938 552.6912L530.4938 552.6912L536.5688 562.5462z" stroke="#221E1F" stroke-width="0.96" fill="none" /><path id="2099" transform="matrix(1 0 0 -1 0 792)" d="M530.4936 562.9702L530.4936 577.6642" stroke="#221E1F" stroke-width="0.96" fill="none" /><path id="2100" transform="matrix(1 0 0 -1 0 792)" d="M528.5583 577.6643C 528.5583 578.7293 529.4273 579.5993 530.4933 579.5993C 531.5603 579.5993 532.4293 578.7293 532.4293 577.6643C 532.4293 576.5993 531.5603 575.7293 530.4933 575.7293C 529.4273 575.7293 528.5583 576.5993 528.5583 577.6643" stroke="none" fill="#221E1F" fill-rule="evenodd" /><path id="2101" transform="matrix(1 0 0 -1 0 792)" d="M541.4953 652.1384L541.4953 577.6644L541.4953 577.6644L499.3993 577.6644L499.3993 577.6644L499.3993 595.0914L499.3993 595.0914L489.4403 595.0914M460.7703 580.9283L470.3693 580.9283L470.3693 580.9283L470.3693 575.1894M489.8383 600.8274L499.4383 600.8274L499.4383 600.8274L499.4383 595.0874M460.7703 576.6324L460.7703 572.3124M489.8383 596.4114L489.8383 592.0914M460.7703 583.0884L460.7703 578.7684M489.8383 602.9874L489.8383 598.6674M460.7703 589.4014L460.7703 585.0814M489.8383 609.3004L489.8383 604.9803M457.6493 586.6894L457.6493 575.1934L457.6493 575.1934L449.3703 575.1934M486.7183 606.2814L486.7183 595.0914L486.7183 595.0914L478.4383 595.0914" stroke="#221E1F" stroke-width="0.96" fill="none" /><path id="2102" transform="matrix(1 0 0 -1 0 792)" d="M490.0007 600.8047L496.3187 602.2127L496.3187 602.2127L496.3197 599.3647z" stroke="none" fill="#221E1F" fill-rule="evenodd" /><path id="2103" transform="matrix(1 0 0 -1 0 792)" d="M490.0007 600.8047L496.3187 602.2127L496.3187 602.2127L496.3197 599.3647L496.3197 599.3647L490.0007 600.8047z" stroke="#221E1F" stroke-width="0.576" fill="none" /><path id="2104" transform="matrix(1 0 0 -1 0 792)" d="M460.9322 580.906L467.2502 582.314L467.2502 582.314L467.2512 579.466z" stroke="none" fill="#221E1F" fill-rule="evenodd" /><path id="2105" transform="matrix(1 0 0 -1 0 792)" d="M460.9322 580.906L467.2502 582.314L467.2502 582.314L467.2512 579.466L467.2512 579.466L460.9322 580.906z" stroke="#221E1F" stroke-width="0.576" fill="none" /><path id="2106" transform="matrix(1 0 0 -1 0 792)" d="M499.5306 606.2805L504.8186 606.2805L504.8186 606.2805L504.9036 595.0415L504.9036 595.0415L499.3996 595.0625M506.9786 602.3985L502.6586 602.3985" stroke="#221E1F" stroke-width="0.96" fill="none" /><path id="2107" transform="matrix(1 0 0 -1 0 792)" d="M504.7962 602.2362L506.2042 598.5922L506.2042 598.5922L503.3562 598.5922z" stroke="none" fill="#221E1F" fill-rule="evenodd" /><path id="2108" transform="matrix(1 0 0 -1 0 792)" d="M504.7962 602.2362L506.2042 598.5922L506.2042 598.5922L503.3562 598.5922L503.3562 598.5922L504.7962 602.2362z" stroke="#221E1F" stroke-width="0.576" fill="none" /><path id="2109" transform="matrix(1 0 0 -1 0 792)" d="M470.4888 586.7726L475.7768 586.7726L475.7768 586.7726L475.7768 575.1656L475.7768 575.1656L470.3578 575.2746M477.9368 583.4066L473.6168 583.4066" stroke="#221E1F" stroke-width="0.96" fill="none" /><path id="2110" transform="matrix(1 0 0 -1 0 792)" d="M475.7544 583.2444L477.1624 579.6004L477.1624 579.6004L474.3144 579.6004z" stroke="none" fill="#221E1F" fill-rule="evenodd" /><path id="2111" transform="matrix(1 0 0 -1 0 792)" d="M475.7544 583.2444L477.1624 579.6004L477.1624 579.6004L474.3144 579.6004L474.3144 579.6004L475.7544 583.2444z" stroke="#221E1F" stroke-width="0.576" fill="none" /><path id="2112" transform="matrix(1 0 0 -1 0 792)" d="M442.995 736.4834L442.995 728.2724" stroke="#221E1F" stroke-width="0.96" fill="none" /><path id="2113" transform="matrix(1 0 0 -1 0 792)" d="M444.9304 728.2719C 444.9304 727.2069 444.0614 726.3369 442.9954 726.3369C 441.9284 726.3369 441.0594 727.2069 441.0594 728.2719C 441.0594 729.3369 441.9284 730.2069 442.9954 730.2069C 444.0614 730.2069 444.9304 729.3369 444.9304 728.2719" stroke="none" fill="#221E1F" fill-rule="evenodd" /><path id="2114" transform="matrix(1 0 0 -1 0 792)" d="M548.482 721.859L548.482 704.052L548.482 704.052L541.554 704.058" stroke="#221E1F" stroke-width="0.96" fill="none" /><path id="2115" transform="matrix(1 0 0 -1 0 792)" d="M541.5519 702.1225C 540.4879 702.1235 539.6169 702.9935 539.6179 704.0595C 539.6189 705.1255 540.4909 705.9945 541.5549 705.9935C 542.6199 705.9925 543.4899 705.1225 543.4889 704.0565C 543.4879 702.9895 542.6169 702.1215 541.5519 702.1225" stroke="none" fill="#221E1F" fill-rule="evenodd" /><path id="2116" transform="matrix(1 0 0 -1 0 792)" d="M521.4166 577.9558L521.4166 587.7218L521.4166 587.7218L517.1206 589.0558L517.1206 589.0558L525.5346 591.5498L525.5346 591.5498L517.1206 594.0448L517.1206 594.0448L525.5346 596.5378L525.5346 596.5378L517.1206 599.0318L517.1206 599.0318L525.5346 601.5248L525.5346 601.5248L521.4166 602.7438L521.4166 602.7438L521.4166 611.9928" stroke="#221E1F" stroke-width="0.96" fill="none" /><path id="2117" transform="matrix(1 0 0 -1 0 792)" d="M519.4812 577.9558C 519.4812 576.8918 520.3502 576.0208 521.4162 576.0208C 522.4832 576.0208 523.3522 576.8908 523.3522 577.9558C 523.3522 579.0198 522.4832 579.8908 521.4162 579.8908C 520.3502 579.8908 519.4812 579.0208 519.4812 577.9558" stroke="none" fill="#221E1F" fill-rule="evenodd" /><path id="2118" transform="matrix(1 0 0 -1 0 792)" d="M521.4166 615.8352L521.4166 627.6122L521.4166 627.6122L499.5306 627.6122" stroke="#221E1F" stroke-width="0.96" fill="none" /><path id="2119" transform="matrix(1 0 0 -1 0 792)" d="M499.5306 625.677C 498.4656 625.677 497.5956 626.546 497.5956 627.612C 497.5956 628.679 498.4656 629.548 499.5306 629.548C 500.5956 629.548 501.4656 628.679 501.4656 627.612C 501.4656 626.546 500.5956 625.677 499.5306 625.677" stroke="none" fill="#221E1F" fill-rule="evenodd" /><path id="2120" transform="matrix(1 0 0 -1 0 792)" d="M454.2456 664.8124L454.6456 664.8124L454.6456 664.8124L455.0446 664.7454L455.0446 664.7454L455.3776 664.6124L455.3776 664.6124L455.7766 664.5454L455.7766 664.5454L456.1096 664.4124L456.1096 664.4124L456.5086 664.2134L456.5086 664.2134L456.8416 664.0794L456.8416 664.0794L457.1746 663.8804L457.1746 663.8804L457.5076 663.6804L457.5076 663.6804L457.8396 663.4144L457.8396 663.4144L458.1726 663.1484L458.1726 663.1484L458.5056 662.8814L458.5056 662.8814L458.8386 662.6154L458.8386 662.6154L459.1046 662.2834L459.1046 662.2834L459.3706 661.9504L459.3706 661.9504L459.6366 661.6174L459.6366 661.6174L460.1696 660.8854L460.1696 660.8854L460.6346 660.1534L460.6346 660.1534L461.1016 659.2874L461.1016 659.2874L461.5006 658.3564L461.5006 658.3564L461.8336 657.4244L461.8336 657.4244L462.0996 656.3594L462.0996 656.3594L462.2996 655.3614L462.2996 655.3614L462.4986 654.2294M410.7106 664.5754L410.7106 634.9924M442.3506 644.4124L442.3506 654.9114M526.8926 615.2104L516.3926 615.2104M438.8496 654.9114L438.8496 644.4124M516.3926 611.7094L526.8926 611.7094" stroke="#221E1F" stroke-width="0.96" fill="none" /><path id="2121" transform="matrix(1 0 0 -1 0 792)" d="M464.9202 655.062L463.2292 650.094L463.2292 650.094L459.9382 654.182z" stroke="none" fill="#221E1F" fill-rule="evenodd" /><path id="2122" transform="matrix(1 0 0 -1 0 792)" d="M426.5377 664.812L426.1387 664.812L426.1387 664.812L425.7397 664.745L425.7397 664.745L425.4067 664.612L425.4067 664.612L425.0067 664.546L425.0067 664.546L424.6747 664.413L424.6747 664.413L424.2747 664.213L424.2747 664.213L423.9417 664.08L423.9417 664.08L423.6097 663.88L423.6097 663.88L423.2767 663.68L423.2767 663.68L422.9437 663.414L422.9437 663.414L422.6107 663.148L422.6107 663.148L422.2787 662.882L422.2787 662.882L421.9457 662.615L421.9457 662.615L421.6797 662.283L421.6797 662.283L421.4127 661.95L421.4127 661.95L421.1467 661.617L421.1467 661.617L420.6147 660.885L420.6147 660.885L420.1487 660.153L420.1487 660.153L419.6827 659.288L419.6827 659.288L419.2837 658.356L419.2837 658.356L418.9507 657.424L418.9507 657.424L418.6847 656.359L418.6847 656.359L418.4847 655.361L418.4847 655.361L418.2847 654.23" stroke="#221E1F" stroke-width="0.96" fill="none" /><path id="2123" transform="matrix(1 0 0 -1 0 792)" d="M420.8453 654.1824L417.5553 650.0934L417.5553 650.0934L415.8633 655.0624z" stroke="none" fill="#221E1F" fill-rule="evenodd" /></g></g></g></svg>