<svg xmlns="http://www.w3.org/2000/svg" xmlns:xlink="http://www.w3.org/1999/xlink" id="body_26" preserveAspectRatio="xMinYMin meet" viewBox="0 0 816 1056"><defs><clipPath id="1"><path id="" clip-rule="evenodd" transform="matrix(1 0 0 1 0 0)" d="M0 792L0 0L0 0L612 0L612 0L612 792L612 792L0 792z" /></clipPath><clipPath id="2"><path id="" clip-rule="evenodd" transform="matrix(1 0 0 1 0 0)" d="M42 734.8L567 734.8L567 734.8L567 38.50098L567 38.50098L42 38.50098z" /></clipPath><clipPath id="3"><path id="" clip-rule="evenodd" transform="matrix(1 0 0 1 0 0)" d="M305.501 259.972L558.501 259.972L558.501 259.972L558.501 44.625L558.501 44.625L305.501 44.625z" /></clipPath><clipPath id="4"><path id="" clip-rule="evenodd" transform="matrix(1 0 0 1 0 0)" d="M305.501 259.972L558.501 259.972L558.501 259.972L558.501 44.625L558.501 44.625L305.501 44.625z" /></clipPath><clipPath id="5"><path id="" clip-rule="evenodd" transform="matrix(1 0 0 1 0 0)" d="M54.528 725.823L521.448 725.823L521.448 725.823L521.448 647.823L521.448 647.823L54.528 647.823z" /></clipPath></defs><g transform="matrix(1.333333 0 0 1.333333 0 0)"><g clip-path="url(#1)"><path id="1" transform="matrix(1 0 0 -1 0 792)" d="M54 39.5055L558 39.5055" stroke="#221E1F" stroke-width="0.5" fill="none" /><path id="30" transform="matrix(1 0 0 -1 0 792)" d="M42 57.2L567 57.2L567 753.499L42 753.499z" stroke="none" fill="#FFFFFF" fill-rule="nonzero" /><g clip-path="url(#2)"></g><path id="1033" transform="matrix(1 0 0 -1 0 792)" d="M308.9665 605.7566C 308.3185 605.7567 307.7635 605.8411 307.3195 606.046C 306.9955 606.1907 306.7016 606.3986 306.4376 606.6517C 306.1856 606.9049 305.9846 607.1822 305.8526 607.4835C 305.6846 607.8813 305.6006 608.3425 305.6007 608.8849C 305.6007 609.8252 305.9067 610.5936 306.4827 611.1722C 307.0827 611.7388 307.8957 612.0311 308.9397 612.0311C 309.9837 612.031 310.8026 611.7357 311.3786 611.1812C 311.9786 610.6025 312.2606 609.843 312.2605 608.9028C 312.2605 607.9263 311.9755 607.1609 311.3875 606.6064C 310.8115 606.0278 309.9985 605.7566 308.9665 605.7566zM308.9305 607.0947C 309.6625 607.0947 310.2145 607.2634 310.5865 607.601C 310.9705 607.9384 311.1535 608.3754 311.1535 608.8937C 311.1536 609.4121 310.9706 609.8401 310.5866 610.1776C 310.2266 610.5031 309.6686 610.6749 308.9127 610.6749C 308.1807 610.6749 307.6167 610.5122 307.2567 610.1868C 306.8967 609.8613 306.7167 609.4364 306.7166 608.8939C 306.7166 608.3514 306.9056 607.9175 307.2656 607.592C 307.6376 607.2665 308.1866 607.0947 308.9305 607.0947z" stroke="none" fill="#221E1F" fill-rule="evenodd" /><path id="1034" transform="matrix(1 0 0 -1 0 792)" d="M312.1528 616.1265L311.4508 616.1266C 311.7028 615.9457 311.9008 615.7227 312.0447 615.4575C 312.1887 615.1682 312.2607 614.8729 312.2607 614.5715C 312.2607 614.246 312.1857 613.9717 312.0537 613.7307C 311.9217 613.4775 311.7207 613.2877 311.4687 613.1792C 311.2287 613.0707 310.8747 613.0165 310.4427 613.0165L310.4427 613.0165L307.4908 613.0166L307.4908 613.0166L307.4908 614.2552L307.4908 614.2552L309.6328 614.2551C 310.2928 614.2551 310.6947 614.2672 310.8387 614.3274C 310.9827 614.3636 311.1057 614.451 311.1897 614.5715C 311.2737 614.68 311.3157 614.8518 311.3157 615.0326C 311.3158 615.2496 311.2648 615.4214 311.1448 615.6022C 311.0368 615.7709 310.8928 615.8734 310.7128 615.9457C 310.5448 616.006 310.1248 616.0362 309.4528 616.0362L309.4528 616.0362L307.4909 616.0363L307.4909 616.0363L307.4909 617.2749L307.4909 617.2749L312.1528 617.2747z" stroke="none" fill="#221E1F" fill-rule="evenodd" /><path id="1035" transform="matrix(1 0 0 -1 0 792)" d="M307.491 620.7195L308.472 620.7195L308.472 620.7195L308.472 619.8696L308.472 619.8696L310.3529 619.8696C 310.7369 619.8696 310.9589 619.8755 311.0189 619.8876C 311.0909 619.8997 311.1359 619.9329 311.1719 620.0051C 311.2199 620.0533 311.2349 620.1287 311.2349 620.2131C 311.2349 620.3216 311.2019 620.4933 311.118 620.7103L311.118 620.7103L312.0719 620.8188C 312.1919 620.5295 312.2609 620.195 312.2609 619.8333C 312.2609 619.6163 312.2159 619.4054 312.1439 619.2366C 312.0719 619.0558 311.9759 618.9112 311.8559 618.8389C 311.7479 618.7424 311.5829 618.6942 311.3789 618.658C 311.2349 618.6339 310.9379 618.6219 310.5059 618.6219L310.5059 618.6219L308.4719 618.6219L308.4719 618.6219L308.4719 618.0524L308.4719 618.0524L307.4909 618.0524L307.4909 618.0524L307.4909 618.622L307.4909 618.622L306.555 618.622L306.555 618.622L305.835 619.8698L305.835 619.8698L307.491 619.8697z" stroke="none" fill="#221E1F" fill-rule="evenodd" /><path id="1036" transform="matrix(1 0 0 -1 0 792)" d="M307.4911 621.5422L307.4911 622.6995L307.4911 622.6995L308.1751 622.6995C 307.9471 622.8441 307.7431 623.0521 307.5991 623.3052C 307.4551 623.5584 307.3831 623.8387 307.3831 624.1641C 307.3831 624.7066 307.5932 625.1617 308.0132 625.5474C 308.4452 625.9211 309.0392 626.1169 309.7951 626.1169C 310.5751 626.1169 311.1811 625.9119 311.6131 625.5382C 312.0451 625.1525 312.261 624.6884 312.261 624.1459C 312.261 623.8928 312.204 623.6577 312.108 623.4407C 312 623.2238 311.829 623.0098 311.577 622.7808L311.577 622.7808L313.9259 622.7806L313.9259 622.7806L313.9259 621.5421zM309.741 622.7717C 310.269 622.7717 310.65 622.8621 310.902 623.0791C 311.154 623.284 311.28 623.5462 311.28 623.8476C 311.2801 624.1369 311.1691 624.369 310.9291 624.5618C 310.7131 624.7547 310.3321 624.8511 309.8041 624.8512C 309.3121 624.8512 308.9551 624.7457 308.7151 624.5529C 308.4751 624.36 308.3551 624.1099 308.3551 623.8206C 308.3551 623.5192 308.4781 623.263 308.7061 623.0701C 308.946 622.8652 309.285 622.7718 309.741 622.7717z" stroke="none" fill="#221E1F" fill-rule="evenodd" /><path id="1037" transform="matrix(1 0 0 -1 0 792)" d="M312.1532 630.1853L311.4512 630.1853C 311.7032 630.0045 311.9012 629.7815 312.0452 629.5162C 312.1892 629.2269 312.2612 628.9316 312.2612 628.6302C 312.2612 628.3047 312.1862 628.0305 312.0541 627.7894C 311.9221 627.5363 311.7211 627.3464 311.4691 627.2379C 311.2292 627.1295 310.8752 627.0753 310.4432 627.0753L310.4432 627.0753L307.4912 627.0753L307.4912 627.0753L307.4913 628.314L307.4913 628.314L309.6332 628.3139C 310.2932 628.3138 310.6952 628.3259 310.8392 628.3862C 310.9832 628.4224 311.1062 628.5097 311.1902 628.6302C 311.2742 628.7388 311.3162 628.9105 311.3162 629.0914C 311.3162 629.3083 311.2652 629.4801 311.1452 629.6609C 311.0372 629.8297 310.8932 629.9322 310.7133 630.0045C 310.5453 630.0648 310.1253 630.095 309.4533 630.095L309.4533 630.095L307.4913 630.095L307.4913 630.095L307.4914 631.3337L307.4914 631.3337L312.1533 631.3335z" stroke="none" fill="#221E1F" fill-rule="evenodd" /><path id="1038" transform="matrix(1 0 0 -1 0 792)" d="M307.4915 634.7783L308.4725 634.7783L308.4725 634.7783L308.4724 633.9284L308.4724 633.9284L310.3534 633.9283C 310.7374 633.9283 310.9594 633.9343 311.0194 633.9464C 311.0914 633.9584 311.1364 633.9916 311.1724 634.0639C 311.2204 634.1121 311.2354 634.1875 311.2354 634.2719C 311.2354 634.3804 311.2024 634.5521 311.1184 634.7691L311.1184 634.7691L312.0724 634.8776C 312.1924 634.5883 312.2614 634.2537 312.2614 633.8921C 312.2614 633.6751 312.2163 633.4642 312.1443 633.2954C 312.0723 633.1146 311.9763 632.9699 311.8563 632.8976C 311.7483 632.8011 311.5833 632.7529 311.3793 632.7168C 311.2353 632.6927 310.9383 632.6807 310.5063 632.6807L310.5063 632.6807L308.4724 632.6807L308.4724 632.6807L308.4724 632.1111L308.4724 632.1111L307.4914 632.1112L307.4914 632.1112L307.4914 632.6808L307.4914 632.6808L306.5555 632.6808L306.5555 632.6808L305.8355 633.9285L305.8355 633.9285L307.4915 633.9284z" stroke="none" fill="#221E1F" fill-rule="evenodd" /><path id="1040" transform="matrix(1 0 0 -1 0 792)" d="M312.1535 638.1956L305.7636 638.1958L305.7636 638.1958L305.7637 639.4977L305.7637 639.4977L311.0646 639.4976L311.0646 639.4976L311.0647 642.7433L311.0647 642.7433L312.1537 642.7432z" stroke="none" fill="#221E1F" fill-rule="evenodd" /><path id="1041" transform="matrix(1 0 0 -1 0 792)" d="M309.7507 643.3853C 309.3547 643.3853 308.9587 643.4756 308.5627 643.6927C 308.1788 643.8856 307.8938 644.1779 307.6898 644.5516C 307.4858 644.9132 307.3839 645.3291 307.3839 645.7993C 307.3839 646.5105 307.6119 647.0861 308.0679 647.5441C 308.5359 647.9902 309.1209 648.2222 309.8049 648.2222C 310.5249 648.2222 311.1039 647.9931 311.5598 647.535C 312.0278 647.0769 312.2618 646.4952 312.2617 645.8081C 312.2617 645.3741 312.1657 644.9643 311.9737 644.5786C 311.7817 644.1808 311.4907 643.8854 311.1187 643.6926C 310.7587 643.4756 310.2907 643.3852 309.7507 643.3853zM309.8228 644.66C 310.2907 644.66 310.6447 644.7685 310.8847 644.9855C 311.1367 645.2025 311.2538 645.4827 311.2538 645.8082C 311.2538 646.1337 311.1368 646.4049 310.8848 646.6219C 310.6448 646.8389 310.2818 646.9474 309.8138 646.9474C 309.3578 646.9474 309.0038 646.8389 308.7519 646.6219C 308.5118 646.405 308.3918 646.1337 308.3918 645.8083C 308.3918 645.4828 308.5118 645.2025 308.7518 644.9855C 309.0038 644.7686 309.3548 644.66 309.8228 644.66z" stroke="none" fill="#221E1F" fill-rule="evenodd" /><path id="1042" transform="matrix(1 0 0 -1 0 792)" d="M308.914 650.1208L308.7069 648.9998C 308.2629 649.1203 307.924 649.3373 307.708 649.6507C 307.492 649.9521 307.384 650.4102 307.384 651.025C 307.384 651.5795 307.45 651.9863 307.5821 652.2635C 307.7141 652.5287 307.8731 652.7247 308.0771 652.8331C 308.2811 652.9417 308.6441 653.0049 309.1841 653.0049L309.1841 653.0049L310.624 652.9868C 311.032 652.9868 311.344 653.0018 311.524 653.05C 311.728 653.0862 311.938 653.1585 312.154 653.267L312.154 653.267L312.154 652.0464C 312.0819 652.0103 311.95 651.9651 311.7939 651.9289C 311.722 651.8928 311.677 651.8837 311.641 651.8837C 311.8569 651.6667 312.0009 651.4347 312.1089 651.2056C 312.2049 650.9525 312.2619 650.6933 312.2619 650.4281C 312.2619 649.9459 312.1299 649.5541 311.8659 649.2889C 311.6139 648.9996 311.2839 648.873 310.8759 648.873C 310.6239 648.8731 310.3899 648.9304 310.1739 649.063C 309.9699 649.1835 309.8169 649.3553 309.6969 649.5964C 309.5889 649.8134 309.493 650.1479 309.409 650.5819C 309.301 651.1605 309.208 651.5553 309.112 651.7844L309.112 651.7844L308.986 651.7844C 308.758 651.7844 308.59 651.712 308.482 651.6035C 308.374 651.483 308.329 651.269 308.329 650.9435C 308.329 650.7145 308.383 650.5367 308.455 650.4282C 308.551 650.2956 308.698 650.1931 308.914 650.1208zM309.913 651.7843C 309.973 651.6155 310.03 651.3624 310.102 651.0248C 310.174 650.6753 310.2459 650.4643 310.3179 650.3558C 310.4379 650.1871 310.5819 650.1117 310.7499 650.1117C 310.9299 650.1117 311.0799 650.1689 311.1999 650.3015C 311.3319 650.4341 311.3889 650.5939 311.3889 650.7988C 311.3889 651.0158 311.317 651.2238 311.1729 651.4407C 311.065 651.5854 310.927 651.6818 310.759 651.73C 310.663 651.7662 310.456 651.7843 310.156 651.7843L310.156 651.7843L309.913 651.7843z" stroke="none" fill="#221E1F" fill-rule="evenodd" /><path id="1043" transform="matrix(1 0 0 -1 0 792)" d="M312.1542 658.5198L312.1541 657.3716L312.1541 657.3716L311.4702 657.3716C 311.7461 657.1787 311.9441 656.9467 312.0641 656.6935C 312.1841 656.4283 312.2621 656.1601 312.2621 655.9069C 312.2621 655.3645 312.0461 654.8973 311.614 654.5237C 311.182 654.1259 310.5851 653.9451 309.8051 653.9451C 309.0131 653.9451 308.4161 654.132 307.9961 654.5057C 307.6002 654.8674 307.3842 655.3466 307.3842 655.9252C 307.3842 656.4435 307.6002 656.8956 308.0322 657.2813L308.0322 657.2813L305.7103 657.2814L305.7103 657.2814L305.7103 658.52zM309.7241 655.2109C 310.2281 655.2109 310.5881 655.2741 310.8041 655.4188C 311.1281 655.6116 311.2811 655.8979 311.2811 656.2596C 311.2811 656.5368 311.1731 656.7749 310.9211 656.9919C 310.6812 657.1848 310.3212 657.2903 309.8412 657.2903C 309.3012 657.2903 308.9202 657.1848 308.6802 656.9919C 308.4522 656.7991 308.3292 656.552 308.3292 656.2506C 308.3292 655.9493 308.4521 655.7021 308.6801 655.5093C 308.9081 655.3043 309.2561 655.2109 309.7241 655.2109z" stroke="none" fill="#221E1F" fill-rule="evenodd" /><path id="1045" transform="matrix(1 0 0 -1 0 792)" d="M309.7875 666.4127L310.1835 667.6784C 310.8915 667.4734 311.4135 667.157 311.7495 666.7109C 312.0974 666.2529 312.2624 665.6802 312.2624 664.9932C 312.2624 664.1252 311.9773 663.4109 311.3893 662.8685C 310.8133 662.314 310.0063 662.0368 308.9864 662.0369C 307.9184 662.0369 307.0934 662.3112 306.4934 662.8777C 305.9055 663.4202 305.6025 664.1616 305.6025 665.0657C 305.6026 665.8613 305.8366 666.4941 306.3046 667.0004C 306.5806 667.2897 306.9766 667.5157 307.4926 667.6604L307.4926 667.6604L307.7985 666.3675C 307.4625 666.2952 307.1985 666.1295 307.0065 665.8884C 306.8145 665.6353 306.7185 665.3399 306.7185 665.0024C 306.7185 664.5202 306.8835 664.1254 307.2314 663.8361C 307.5794 663.5347 308.1284 663.384 308.8964 663.384C 309.7124 663.3839 310.2974 663.5256 310.6334 663.8269C 310.9934 664.1162 311.1554 664.5049 311.1554 664.9751C 311.1554 665.3126 311.0384 665.617 310.8224 665.8702C 310.6064 666.1233 310.2555 666.3041 309.7875 666.4127z" stroke="none" fill="#221E1F" fill-rule="evenodd" /><path id="1046" transform="matrix(1 0 0 -1 0 792)" d="M312.1546 671.8734L311.4526 671.8734C 311.7046 671.6925 311.9026 671.4695 312.0466 671.2043C 312.1906 670.915 312.2626 670.6196 312.2625 670.3183C 312.2625 669.9928 312.1875 669.7186 312.0555 669.4775C 311.9235 669.2244 311.7225 669.0345 311.4705 668.926C 311.2305 668.8175 310.8765 668.7633 310.4445 668.7633L310.4445 668.7633L307.4926 668.7634L307.4926 668.7634L307.4926 670.002L307.4926 670.002L309.6346 670.002C 310.2946 670.0019 310.6966 670.014 310.8406 670.0742C 310.9846 670.1104 311.1076 670.1978 311.1916 670.3183C 311.2756 670.4268 311.3176 670.5986 311.3176 670.7794C 311.3176 670.9964 311.2666 671.1682 311.1466 671.349C 311.0386 671.5178 310.8946 671.6202 310.7146 671.6926C 310.5466 671.7529 310.1266 671.783 309.4547 671.783L309.4547 671.783L307.4927 671.7831L307.4927 671.7831L307.4928 673.0217L307.4928 673.0217L312.1547 673.0215z" stroke="none" fill="#221E1F" fill-rule="evenodd" /><path id="1047" transform="matrix(1 0 0 -1 0 792)" d="M312.1547 675.4988L312.1547 674.2601L312.1547 674.2601L307.4928 674.2603L307.4928 674.2603L307.4928 675.4085L307.4928 675.4085L308.1498 675.4085C 307.8378 675.6014 307.6368 675.7852 307.5288 675.942C 307.4329 676.0986 307.3849 676.2675 307.3849 676.4844C 307.3849 676.7617 307.4629 677.0329 307.6189 677.2981L307.6189 677.2981L308.6898 676.9093C 308.5579 676.6923 308.4919 676.5115 308.4919 676.3307C 308.4918 676.1498 308.5398 676.0082 308.6358 675.8876C 308.7318 675.7671 308.8968 675.6677 309.1488 675.6074C 309.4008 675.535 309.9228 675.4988 310.7148 675.4988z" stroke="none" fill="#221E1F" fill-rule="evenodd" /><path id="1048" transform="matrix(1 0 0 -1 0 792)" d="M312.1548 679.0157L312.1548 677.7771L312.1548 677.7771L307.4929 677.7773L307.4929 677.7773L307.493 678.9255L307.493 678.9255L308.1499 678.9255C 307.838 679.1183 307.637 679.3022 307.529 679.4589C 307.433 679.6156 307.385 679.7844 307.385 680.0013C 307.385 680.2786 307.463 680.5499 307.619 680.8151L307.619 680.8151L308.69 680.4263C 308.558 680.2092 308.492 680.0284 308.4919 679.8477C 308.4919 679.6668 308.5399 679.5251 308.6359 679.4046C 308.7319 679.2841 308.8969 679.1846 309.1489 679.1243C 309.4009 679.052 309.9229 679.0158 310.7149 679.0157z" stroke="none" fill="#221E1F" fill-rule="evenodd" /><path id="1049" transform="matrix(1 0 0 -1 0 792)" d="M310.67 684.0607L310.8771 685.2993C 311.3331 685.1305 311.675 684.8864 311.903 684.5488C 312.155 684.1992 312.263 683.7623 312.263 683.256C 312.263 682.4363 312.002 681.8335 311.4619 681.4478C 311.0419 681.1344 310.508 680.9867 309.86 680.9868C 309.092 680.9868 308.474 681.1827 308.042 681.5925C 307.61 681.9904 307.3851 682.5117 307.3851 683.1386C 307.3851 683.8257 307.6131 684.3862 308.0691 684.7841C 308.5371 685.1818 309.2391 685.3747 310.1751 685.3626L310.1751 685.3626L310.175 682.2525C 310.547 682.2524 310.838 682.3549 311.03 682.5598C 311.246 682.7407 311.336 682.9847 311.336 683.274C 311.336 683.4549 311.291 683.6176 311.183 683.7623C 311.075 683.8949 310.91 683.9883 310.67 684.0607zM309.4191 684.1331C 309.0591 684.121 308.7891 684.0336 308.6091 683.8528C 308.4291 683.672 308.3301 683.4641 308.3301 683.2109C 308.3301 682.9337 308.4351 682.7106 308.627 682.5419C 308.819 682.361 309.095 682.2676 309.419 682.2797L309.419 682.2797L309.4191 684.1331z" stroke="none" fill="#221E1F" fill-rule="evenodd" /><path id="1050" transform="matrix(1 0 0 -1 0 792)" d="M312.1552 690.6425L312.1552 689.3948L312.1552 689.3948L309.7702 689.3949C 309.2663 689.3949 308.9423 689.3588 308.7983 689.3226C 308.6543 689.2623 308.5433 689.1689 308.4473 689.0604C 308.3753 688.9399 308.3303 688.7952 308.3303 688.6265C 308.3302 688.4095 308.3932 688.2166 308.5012 688.0478C 308.6212 687.867 308.7772 687.7675 308.9692 687.6952C 309.1732 687.6349 309.5242 687.6047 310.0402 687.6047L310.0402 687.6047L312.1551 687.6047L312.1551 687.6047L312.1551 686.3661L312.1551 686.3661L307.4932 686.3662L307.4932 686.3662L307.4932 687.5144L307.4932 687.5144L308.1772 687.5144C 307.6492 687.9243 307.3853 688.4336 307.3853 689.0604C 307.3853 689.3257 307.4333 689.5818 307.5293 689.8109C 307.6373 690.0278 307.7633 690.2056 307.9073 690.3262C 308.0633 690.4346 308.2373 690.522 308.4293 690.5703C 308.6213 690.6064 308.8973 690.6426 309.2573 690.6426z" stroke="none" fill="#221E1F" fill-rule="evenodd" /><path id="1051" transform="matrix(1 0 0 -1 0 792)" d="M307.4934 694.0511L308.4744 694.051L308.4744 694.051L308.4744 693.2012L308.4744 693.2012L310.3553 693.2011C 310.7393 693.2011 310.9613 693.2072 311.0213 693.2192C 311.0934 693.2313 311.1383 693.2644 311.1743 693.3367C 311.2224 693.3849 311.2373 693.4603 311.2374 693.5447C 311.2374 693.6531 311.2044 693.825 311.1204 694.0419L311.1204 694.0419L312.0743 694.1504C 312.1943 693.8611 312.2633 693.5266 312.2633 693.1649C 312.2633 692.9479 312.2183 692.7369 312.1463 692.5682C 312.0743 692.3874 311.9783 692.2427 311.8583 692.1704C 311.7503 692.074 311.5853 692.0258 311.3813 691.9896C 311.2373 691.9655 310.9403 691.9534 310.5083 691.9535L310.5083 691.9535L308.4744 691.9536L308.4744 691.9536L308.4743 691.384L308.4743 691.384L307.4934 691.384L307.4934 691.384L307.4934 691.9536L307.4934 691.9536L306.5574 691.9536L306.5574 691.9536L305.8375 693.2013L305.8375 693.2013L307.4934 693.2012z" stroke="none" fill="#221E1F" fill-rule="evenodd" /><path id="1053" transform="matrix(1 0 0 -1 0 792)" d="M312.1555 697.4684L305.7656 697.4686L305.7656 697.4686L305.7657 698.7705L305.7657 698.7705L311.0665 698.7704L311.0665 698.7704L311.0667 702.0161L311.0667 702.0161L312.1556 702.0161z" stroke="none" fill="#221E1F" fill-rule="evenodd" /><path id="1054" transform="matrix(1 0 0 -1 0 792)" d="M306.8548 702.9474L305.7118 702.9474L305.7118 702.9474L305.7118 704.1861L305.7118 704.1861L306.8548 704.186zM312.1556 702.9473L307.4937 702.9474L307.4937 702.9474L307.4938 704.186L307.4938 704.186L312.1557 704.1859L312.1557 704.1859L312.1556 702.9473z" stroke="none" fill="#221E1F" fill-rule="evenodd" /><path id="1055" transform="matrix(1 0 0 -1 0 792)" d="M307.4938 705.3704L307.4939 706.5096L307.4939 706.5096L308.1238 706.5095C 307.6319 706.9073 307.3859 707.3956 307.3859 707.9742C 307.3859 708.2635 307.4459 708.5348 307.5659 708.7517C 307.6979 708.9687 307.8719 709.1495 308.1239 709.2942C 307.8719 709.4991 307.698 709.7221 307.566 709.9633C 307.446 710.1923 307.386 710.4454 307.386 710.7227C 307.386 711.0602 307.461 711.3586 307.593 711.5997C 307.737 711.8287 307.941 712.0125 308.205 712.1331C 308.409 712.2174 308.736 712.2596 309.168 712.2596L309.168 712.2596L312.1559 712.2595L312.1559 712.2595L312.1559 711.0209L312.1559 711.0209L309.492 711.021C 309.024 711.021 308.736 710.9667 308.592 710.8944C 308.412 710.7739 308.331 710.6021 308.331 710.361C 308.331 710.1802 308.376 710.0175 308.4839 709.8728C 308.5919 709.7161 308.7479 709.6075 308.9519 709.5473C 309.1559 709.475 309.4829 709.4388 309.9149 709.4388L309.9149 709.4388L312.1559 709.4387L312.1559 709.4387L312.1558 708.2001L312.1558 708.2001L309.5999 708.2002C 309.1439 708.2002 308.8619 708.1731 308.7179 708.1369C 308.5979 708.0887 308.5019 708.0134 308.4299 707.929C 308.3579 707.8325 308.3309 707.706 308.3309 707.5493C 308.3309 707.3564 308.3759 707.1786 308.4839 707.0339C 308.5919 706.8772 308.7448 706.7687 308.9248 706.7084C 309.1288 706.6361 309.4438 706.6089 309.8878 706.6089L309.8878 706.6089L312.1558 706.6089L312.1558 706.6089L312.1557 705.3702z" stroke="none" fill="#221E1F" fill-rule="evenodd" /><path id="1056" transform="matrix(1 0 0 -1 0 792)" d="M306.8551 713.4983L305.7121 713.4983L305.7121 713.4983L305.7122 714.7369L305.7122 714.7369L306.8552 714.7369zM312.156 713.4981L307.4941 713.4983L307.4941 713.4983L307.4941 714.7369L307.4941 714.7369L312.156 714.7367L312.156 714.7367L312.156 713.4981z" stroke="none" fill="#221E1F" fill-rule="evenodd" /><path id="1057" transform="matrix(1 0 0 -1 0 792)" d="M307.4943 718.1725L308.4753 718.1725L308.4753 718.1725L308.4752 717.3226L308.4752 717.3226L310.3562 717.3226C 310.7402 717.3225 310.9622 717.3286 311.0222 717.3406C 311.0941 717.3527 311.1392 717.3858 311.1752 717.4581C 311.2231 717.5063 311.2382 717.5817 311.2382 717.6661C 311.2382 717.7745 311.2052 717.9464 311.1212 718.1633L311.1212 718.1633L312.0752 718.2718C 312.1952 717.9825 312.2641 717.6479 312.2641 717.2863C 312.2641 717.0693 312.2191 716.8584 312.1471 716.6896C 312.0751 716.5088 311.9791 716.3641 311.8591 716.2918C 311.7511 716.1954 311.5861 716.1472 311.3821 716.111C 311.2381 716.0869 310.9411 716.0749 310.5091 716.0749L310.5091 716.0749L308.4752 716.075L308.4752 716.075L308.4752 715.5054L308.4752 715.5054L307.4942 715.5054L307.4942 715.5054L307.4942 716.075L307.4942 716.075L306.5582 716.075L306.5582 716.075L305.8383 717.3227L305.8383 717.3227L307.4942 717.3226z" stroke="none" fill="#221E1F" fill-rule="evenodd" /><path id="1058" transform="matrix(1 0 0 -1 0 792)" d="M502.5304 745.9262L502.5304 576.9112M465.8194 745.9262L465.8194 576.9112M429.1094 745.9262L429.1094 576.9112M392.3984 745.9262L392.3984 576.9112M539.2414 745.9262L539.2404 576.9112M339.5044 745.9262L557.2254 745.9262" stroke="#221E1F" stroke-width="0.6" fill="none" /><path id="1059" transform="matrix(1 0 0 -1 0 792)" d="M375.902 651.988L444.813 651.988L444.813 651.988L444.813 631.056L444.813 631.056L375.902 631.056z" stroke="none" fill="#FFFFFF" fill-rule="evenodd" /><path id="1084" transform="matrix(1 0 0 -1 0 792)" d="M318.9771 618.5626L557.7021 618.5626M318.9771 661.0176L557.7021 661.0176M318.9771 703.6616L557.7021 703.6616" stroke="#221E1F" stroke-width="0.6" fill="none" /><g clip-path="url(#3)"><path id="1085" transform="matrix(1 0 0 -1 0 792)" d="M320.1047 664.5215C 359.1827 680.9875 399.9297 683.0815 444.0197 677.5045C 481.9077 673.1205 520.0197 660.9475 556.8237 646.8025" stroke="#0060AF" stroke-width="2" stroke-linecap="round" stroke-dasharray="6.0005,2" fill="none" /><path id="1086" transform="matrix(1 0 0 -1 0 792)" d="M320.1098 628.2874C 388.3118 670.6154 468.2178 678.8454 556.9048 660.5374" stroke="#EE1C23" stroke-width="2" stroke-linecap="round" fill="none" /></g><path id="1087" transform="matrix(1 0 0 -1 0 792)" d="M355.7359 745.9259L355.7359 576.9119" stroke="#221E1F" stroke-width="0.6" fill="none" /><g clip-path="url(#4)"><path id="1088" transform="matrix(1 0 0 -1 0 792)" d="M318.9772 745.9261L557.7012 745.9261L557.7012 745.9261L557.7012 576.9111L557.7012 576.9111L318.9772 576.9111z" stroke="#221E1F" stroke-width="1" fill="none" /></g><path id="1089" transform="matrix(1 0 0 -1 0 792)" d="M360.537 702.628L424.414 702.628L424.414 702.628L424.414 681.941L424.414 681.941L360.537 681.941z" stroke="none" fill="#FFFFFF" fill-rule="evenodd" /><path id="1114" transform="matrix(1 0 0 -1 0 792)" d="M277.1759 371.079L285.5669 371.079" stroke="#221E1F" stroke-width="1" fill="none" /><path id="1115" transform="matrix(1 0 0 -1 0 792)" d="M277.5911 373.7138L272.8011 371.0788L277.5911 368.4438z" stroke="none" fill="#221E1F" fill-rule="nonzero" /><path id="1116" transform="matrix(1 0 0 -1 0 792)" d="M257.9674 371.079L249.5764 371.079" stroke="#221E1F" stroke-width="1" fill="none" /><path id="1117" transform="matrix(1 0 0 -1 0 792)" d="M257.5521 368.4442L262.3421 371.0792L257.5521 373.7142z" stroke="none" fill="#221E1F" fill-rule="nonzero" /><path id="1118" transform="matrix(1 0 0 -1 0 792)" d="M224.2201 250.3738L282.0141 250.3738" stroke="#221E1F" stroke-width="1" fill="none" /><path id="1119" transform="matrix(1 0 0 -1 0 792)" d="M224.6354 253.0086L219.8454 250.3736L224.6354 247.7386z" stroke="none" fill="#221E1F" fill-rule="nonzero" /><path id="1120" transform="matrix(1 0 0 -1 0 792)" d="M281.599 253.0086L286.389 250.3736L281.599 247.7386z" stroke="none" fill="#221E1F" fill-rule="nonzero" /><path id="1121" transform="matrix(1 0 0 -1 0 792)" d="M256.5699 268.0907L282.4399 268.0907M195.1629 400.4877L195.1629 268.2697M409.9209 341.0207L400.2479 341.0207L400.2479 341.0207L400.2479 332.3547" stroke="#221E1F" stroke-width="1" fill="none" /><path id="1122" transform="matrix(1 0 0 -1 0 792)" d="M256.9849 270.7255L252.1949 268.0905L256.9849 265.4555z" stroke="none" fill="#221E1F" fill-rule="nonzero" /><path id="1123" transform="matrix(1 0 0 -1 0 792)" d="M282.0245 270.7255L286.8145 268.0905L282.0245 265.4555z" stroke="none" fill="#221E1F" fill-rule="nonzero" /><path id="1124" transform="matrix(1 0 0 -1 0 792)" d="M331.4012 250.308L353.0522 250.308" stroke="#221E1F" stroke-width="1" fill="none" /><path id="1125" transform="matrix(1 0 0 -1 0 792)" d="M331.8165 252.9428L327.0265 250.3078L331.8165 247.6728z" stroke="none" fill="#221E1F" fill-rule="nonzero" /><path id="1126" transform="matrix(1 0 0 -1 0 792)" d="M352.6373 252.9428L357.4273 250.3078L352.6373 247.6728z" stroke="none" fill="#221E1F" fill-rule="nonzero" /><path id="1127" transform="matrix(1 0 0 -1 0 792)" d="M200.0417 275.2813L214.4517 275.2813" stroke="#221E1F" stroke-width="1" fill="none" /><path id="1128" transform="matrix(1 0 0 -1 0 792)" d="M200.457 277.9161L195.667 275.2811L200.457 272.6461z" stroke="none" fill="#221E1F" fill-rule="nonzero" /><path id="1129" transform="matrix(1 0 0 -1 0 792)" d="M214.0361 277.9161L218.8261 275.2811L214.0361 272.6461z" stroke="none" fill="#221E1F" fill-rule="nonzero" /><path id="1130" transform="matrix(1 0 0 -1 0 792)" d="M186.6984 357.7083L186.6984 376.3843M317.1854 354.4093L317.1854 361.6643L317.1854 361.6643L306.7864 361.6643" stroke="#221E1F" stroke-width="1" fill="none" /><path id="1131" transform="matrix(1 0 0 -1 0 792)" d="M184.0637 375.9693L186.6987 380.7593L189.3337 375.9693z" stroke="none" fill="#221E1F" fill-rule="nonzero" /><path id="1132" transform="matrix(1 0 0 -1 0 792)" d="M139.5413 381.0368L385.3413 381.0368" stroke="#221E1F" stroke-width="1" stroke-dasharray="5,5" fill="none" /><path id="1133" transform="matrix(1 0 0 -1 0 792)" d="M452.7143 378.3035L452.7143 363.3825M320.1023 378.8675L488.8323 378.8675" stroke="#0060AF" stroke-width="1" fill="none" /><path id="1134" transform="matrix(1 0 0 -1 0 792)" d="M455.3492 363.7974L452.7142 359.0074L450.0792 363.7974z" stroke="none" fill="#0060AF" fill-rule="nonzero" /><path id="1135" transform="matrix(1 0 0 -1 0 792)" d="M277.2249 303.6915L282.3829 303.6915" stroke="#221E1F" stroke-width="1" fill="none" /><path id="1136" transform="matrix(1 0 0 -1 0 792)" d="M277.6402 306.3264L272.8502 303.6914L277.6402 301.0564z" stroke="none" fill="#221E1F" fill-rule="nonzero" /><path id="1137" transform="matrix(1 0 0 -1 0 792)" d="M281.9678 306.3264L286.7578 303.6914L281.9678 301.0564z" stroke="none" fill="#221E1F" fill-rule="nonzero" /><path id="1138" transform="matrix(1 0 0 -1 0 792)" d="M232.2379 370.1676L232.2379 373.7956L232.2379 373.7956L221.8389 373.7956" stroke="#221E1F" stroke-width="1" fill="none" /><path id="1294" transform="matrix(1 0 0 -1 0 792)" d="M210.003 386.2625L227.256 408.4245" stroke="#221E1F" stroke-width="1" fill="none" /><path id="1295" transform="matrix(1 0 0 -1 0 792)" d="M208.1791 388.209L207.3161 382.811L212.3371 384.972z" stroke="none" fill="#221E1F" fill-rule="nonzero" /><path id="1309" transform="matrix(1 0 0 -1 0 792)" d="M145.7826 365.5424L182.7576 365.5424" stroke="#221E1F" stroke-width="0.6" fill="none" /><path id="1310" transform="matrix(1 0 0 -1 0 792)" d="M181.161 358.2976L463.045 358.2976" stroke="#221E1F" stroke-width="1" stroke-dasharray="5,3" fill="none" /><path id="1311" transform="matrix(1 0 0 -1 0 792)" d="M127.7659 344.6578L492.7949 344.6578" stroke="#EE1C23" stroke-width="1" stroke-dasharray="5,3" fill="none" /><path id="1312" transform="matrix(1 0 0 -1 0 792)" d="M358.3459 425.2009L358.3459 244.9319M326.0889 322.2389L326.0889 245.3989M251.8439 355.7919L251.8439 268.9769M219.4359 321.4949L219.4359 244.9319M287.0649 394.1839L287.0649 244.9319M262.8119 374.6189L262.8119 344.0689M272.3019 374.6189L272.3019 297.2389M127.7659 316.6019L494.8249 316.6019" stroke="#221E1F" stroke-width="1" stroke-dasharray="5,3" fill="none" /><path id="1313" transform="matrix(1 0 0 -1 0 792)" d="M195.1627 217.4846L219.4357 217.4846L219.4357 217.4846L219.3467 231.9946L219.3467 231.9946L287.0647 231.9946L287.0647 231.9946L287.0647 217.4846L287.0647 217.4846L375.3277 217.4846L375.3277 217.4846L375.3277 231.9946L375.3277 231.9946L399.6687 231.9946" stroke="#221E1F" stroke-width="1" fill="none" /><path id="1314" transform="matrix(1 0 0 -1 0 792)" d="M382.3446 316.4826L432.5986 359.9166M229.1876 316.6416L286.6216 366.2976" stroke="#EE1C23" stroke-width="1" fill="none" /><path id="1315" transform="matrix(1 0 0 -1 0 792)" d="M357.9749 380.4176L481.3779 332.3956M203.5819 380.4176L326.5559 332.6576M326.8249 332.5556L357.9349 380.4176" stroke="#221E1F" stroke-width="2" stroke-linecap="round" fill="none" /><path id="1316" transform="matrix(1 0 0 -1 0 792)" d="M168.6268 350.94L219.6758 316.602L219.6758 316.602L286.6558 374.763L286.6558 374.763L374.2618 316.602L374.2618 316.602L426.3138 362.089" stroke="#EE1C23" stroke-width="1" stroke-dasharray="5,1" fill="none" /><path id="1317" transform="matrix(1 0 0 -1 0 792)" d="M194.3832 380.767L321.1002 331.314" stroke="#221E1F" stroke-width="1" stroke-dasharray="5,3" fill="none" /><path id="1318" transform="matrix(1 0 0 -1 0 792)" d="M272.3017 358.4796L272.3017 362.8376L272.3017 362.8376L287.0647 362.8376L287.0647 362.8376L287.0647 347.5506L287.0647 347.5506L272.3017 347.5506L272.3017 347.5506L272.3017 349.5056" stroke="#0060AF" stroke-width="1" stroke-dasharray="2,1" fill="none" /><path id="1319" transform="matrix(1 0 0 -1 0 792)" d="M269.6669 358.8948L272.3019 354.1048L274.9369 358.8948z" stroke="none" fill="#0060AF" fill-rule="nonzero" /><path id="1320" transform="matrix(1 0 0 -1 0 792)" d="M269.6669 349.0904L272.3019 353.8804L274.9369 349.0904z" stroke="none" fill="#0060AF" fill-rule="nonzero" /><path id="1321" transform="matrix(1 0 0 -1 0 792)" d="M269.1586 378.5406L284.9086 408.1186" stroke="#221E1F" stroke-width="1" fill="none" /><path id="1322" transform="matrix(1 0 0 -1 0 792)" d="M267.0281 380.1456L267.1031 374.6796L271.6801 377.6686z" stroke="none" fill="#221E1F" fill-rule="nonzero" /><path id="1323" transform="matrix(1 0 0 -1 0 792)" d="M207.0385 267.3491L207.0385 254.3111" stroke="#221E1F" stroke-width="1" fill="none" /><path id="1324" transform="matrix(1 0 0 -1 0 792)" d="M209.6733 266.9338L207.0383 271.7238L204.4033 266.9338z" stroke="none" fill="#221E1F" fill-rule="nonzero" /><path id="1325" transform="matrix(1 0 0 -1 0 792)" d="M258.6044 278.11L280.3374 278.11" stroke="#221E1F" stroke-width="1" fill="none" /><path id="1461" transform="matrix(1 0 0 -1 0 792)" d="M109.6219 104.1778L168.2779 104.1778" stroke="#060606" stroke-width="0.594" stroke-linecap="square" fill="none" /><path id="1462" transform="matrix(1 0 0 -1 0 792)" d="M183.7157 123.7403L223.4037 123.7403" stroke="#060606" stroke-width="0.594" stroke-linecap="square" fill="none" /><path id="1463" transform="matrix(1 0 0 -1 0 792)" d="M240.5282 123.7403L255.3412 123.7403" stroke="#060606" stroke-width="0.594" stroke-linecap="square" fill="none" /><path id="1464" transform="matrix(1 0 0 -1 0 792)" d="M265.4657 123.7403L324.1217 123.7403" stroke="#060606" stroke-width="0.594" stroke-linecap="square" fill="none" /><path id="1465" transform="matrix(1 0 0 -1 0 792)" d="M362.6532 123.7403L375.1842 123.7403" stroke="#060606" stroke-width="0.594" stroke-linecap="square" fill="none" /><path id="1466" transform="matrix(1 0 0 -1 0 792)" d="M464.3719 123.7403L504.1219 123.7403" stroke="#060606" stroke-width="0.594" stroke-linecap="square" fill="none" /><path id="1467" transform="matrix(1 0 0 -1 0 792)" d="M192.1532 84.6153L208.6842 84.6153" stroke="#060606" stroke-width="0.594" stroke-linecap="square" fill="none" /><path id="1468" transform="matrix(1 0 0 -1 0 792)" d="M216.8094 84.6153L257.3404 84.6153" stroke="#060606" stroke-width="0.594" stroke-linecap="square" fill="none" /><path id="1469" transform="matrix(1 0 0 -1 0 792)" d="M268.5907 84.6153L327.2467 84.6153" stroke="#060606" stroke-width="0.594" stroke-linecap="square" fill="none" /><g clip-path="url(#5)"></g><path id="1620" transform="matrix(1 0 0 -1 0 792)" d="M53.4482 177.815L559.6082 176.815" stroke="#221E1F" stroke-width="0.5" fill="none" /></g></g></svg>