<svg xmlns="http://www.w3.org/2000/svg" xmlns:xlink="http://www.w3.org/1999/xlink" id="body_25" preserveAspectRatio="xMinYMin meet" viewBox="0 0 816 1056"><defs><clipPath id="1"><path id="" clip-rule="evenodd" transform="matrix(1 0 0 1 0 0)" d="M0 792L0 0L0 0L612 0L612 0L612 792L612 792L0 792z" /></clipPath><clipPath id="2"><path id="" clip-rule="evenodd" transform="matrix(1 0 0 1 0 0)" d="M45.5 733L587.92 733L587.92 733L587.92 38.20001L587.92 38.20001L45.5 38.20001z" /></clipPath><clipPath id="3"><path id="" clip-rule="evenodd" transform="matrix(1 0 0 1 0 0)" d="M306.08 245.326L560.08 245.326L560.08 245.326L560.08 44.32599L560.08 44.32599L306.08 44.32599z" /></clipPath><clipPath id="4"><path id="" clip-rule="evenodd" transform="matrix(1 0 0 1 0 0)" d="M306.08 245.326L560.08 245.326L560.08 245.326L560.08 44.32599L560.08 44.32599L306.08 44.32599z" /></clipPath><clipPath id="5"><path id="" clip-rule="evenodd" transform="matrix(1 0 0 1 0 0)" d="M117.58 677.626L503.001 677.626L503.001 677.626L503.001 510.626L503.001 510.626L117.58 510.626z" /></clipPath></defs><g transform="matrix(1.333333 0 0 1.333333 0 0)"><g clip-path="url(#1)"><path id="1" transform="matrix(1 0 0 -1 0 792)" d="M54 39.5055L558 39.5055" stroke="#221E1F" stroke-width="0.5" fill="none" /><path id="30" transform="matrix(1 0 0 -1 0 792)" d="M45.5 59L587.92 59L587.92 753.8L45.5 753.8z" stroke="none" fill="#FFFFFF" fill-rule="nonzero" /><g clip-path="url(#2)"></g><path id="890" transform="matrix(1 0 0 -1 0 792)" d="M92.9375 396.9537L133.6565 396.9537" stroke="#060606" stroke-width="0.594" stroke-linecap="square" fill="none" /><path id="891" transform="matrix(1 0 0 -1 0 792)" d="M91.2812 411.8287L91.2812 382.0787" stroke="#060606" stroke-width="0.594" stroke-linecap="square" fill="none" /><path id="892" transform="matrix(1 0 0 -1 0 792)" d="M135.125 411.8287L135.125 382.0787" stroke="#060606" stroke-width="0.594" stroke-linecap="square" fill="none" /><path id="893" transform="matrix(1 0 0 -1 0 792)" d="M148.4375 404.1412L148.4375 389.7662" stroke="#060606" stroke-width="0.594" stroke-linecap="square" fill="none" /><path id="894" transform="matrix(1 0 0 -1 0 792)" d="M166.2187 404.1412L166.2187 389.7662" stroke="#060606" stroke-width="0.594" stroke-linecap="square" fill="none" /><path id="895" transform="matrix(1 0 0 -1 0 792)" d="M179.5312 404.1412L179.5312 389.7662" stroke="#060606" stroke-width="0.594" stroke-linecap="square" fill="none" /><path id="896" transform="matrix(1 0 0 -1 0 792)" d="M221.5 404.1412L221.5 389.7662" stroke="#060606" stroke-width="0.594" stroke-linecap="square" fill="none" /><path id="1695" transform="matrix(1 0 0 -1 0 792)" d="M310.5452 595.5256C 309.8972 595.5256 309.3422 595.61 308.8983 595.8149C 308.5742 595.9597 308.2803 596.1676 308.0163 596.4207C 307.7643 596.6739 307.5633 596.9512 307.4313 597.2525C 307.2633 597.6503 307.1794 598.1115 307.1794 598.6539C 307.1794 599.5942 307.4854 600.3626 308.0614 600.9412C 308.6614 601.5078 309.4744 601.8001 310.5184 601.8C 311.5624 601.8 312.3813 601.5046 312.9573 600.9501C 313.5573 600.3715 313.8393 599.612 313.8392 598.6718C 313.8392 597.6953 313.5542 596.9299 312.9662 596.3754C 312.3902 595.7968 311.5772 595.5256 310.5452 595.5256zM310.5092 596.8636C 311.2412 596.8636 311.7932 597.0324 312.1652 597.3699C 312.5492 597.7074 312.7322 598.1444 312.7322 598.6627C 312.7323 599.1811 312.5493 599.6091 312.1653 599.9466C 311.8053 600.2721 311.2473 600.4438 310.4914 600.4439C 309.7594 600.4439 309.1954 600.2812 308.8354 599.9557C 308.4754 599.6302 308.2954 599.2054 308.2953 598.6629C 308.2953 598.1204 308.4843 597.6865 308.8443 597.361C 309.2163 597.0355 309.7653 596.8637 310.5092 596.8636z" stroke="none" fill="#221E1F" fill-rule="evenodd" /><path id="1696" transform="matrix(1 0 0 -1 0 792)" d="M313.7315 605.8955L313.0295 605.8956C 313.2815 605.7147 313.4795 605.4917 313.6234 605.2265C 313.7674 604.9372 313.8394 604.6418 313.8394 604.3405C 313.8394 604.015 313.7644 603.7407 313.6324 603.4996C 313.5004 603.2465 313.2994 603.0566 313.0474 602.9482C 312.8074 602.8397 312.4534 602.7855 312.0214 602.7855L312.0214 602.7855L309.0695 602.7856L309.0695 602.7856L309.0695 604.0242L309.0695 604.0242L311.2115 604.0241C 311.8715 604.0241 312.2734 604.0361 312.4174 604.0964C 312.5614 604.1326 312.6844 604.22 312.7684 604.3405C 312.8524 604.449 312.8944 604.6208 312.8944 604.8016C 312.8945 605.0186 312.8435 605.1904 312.7235 605.3712C 312.6155 605.5399 312.4715 605.6424 312.2915 605.7147C 312.1235 605.775 311.7035 605.8052 311.0315 605.8052L311.0315 605.8052L309.0696 605.8052L309.0696 605.8052L309.0696 607.0439L309.0696 607.0439L313.7315 607.0437z" stroke="none" fill="#221E1F" fill-rule="evenodd" /><path id="1697" transform="matrix(1 0 0 -1 0 792)" d="M309.0697 610.4885L310.0507 610.4885L310.0507 610.4885L310.0507 609.6386L310.0507 609.6386L311.9316 609.6385C 312.3156 609.6385 312.5376 609.6445 312.5976 609.6566C 312.6696 609.6686 312.7146 609.7018 312.7506 609.7741C 312.7986 609.8224 312.8136 609.8977 312.8136 609.9821C 312.8136 610.0906 312.7806 610.2623 312.6967 610.4794L312.6967 610.4794L313.6506 610.5878C 313.7706 610.2985 313.8396 609.964 313.8396 609.6023C 313.8396 609.3853 313.7946 609.1744 313.7226 609.0056C 313.6506 608.8248 313.5546 608.6802 313.4346 608.6078C 313.3266 608.5114 313.1616 608.4632 312.9576 608.427C 312.8136 608.4029 312.5166 608.3909 312.0846 608.3909L312.0846 608.3909L310.0506 608.3909L310.0506 608.3909L310.0506 607.8214L310.0506 607.8214L309.0696 607.8214L309.0696 607.8214L309.0696 608.391L309.0696 608.391L308.1337 608.391L308.1337 608.391L307.4137 609.6387L307.4137 609.6387L309.0697 609.6387z" stroke="none" fill="#221E1F" fill-rule="evenodd" /><path id="1698" transform="matrix(1 0 0 -1 0 792)" d="M309.0698 611.3112L309.0698 612.4685L309.0698 612.4685L309.7538 612.4684C 309.5258 612.6131 309.3218 612.821 309.1778 613.0742C 309.0338 613.3274 308.9618 613.6077 308.9619 613.9331C 308.9619 614.4756 309.1719 614.9307 309.5919 615.3164C 310.0239 615.6901 310.6179 615.8859 311.3738 615.8859C 312.1538 615.8859 312.7598 615.6809 313.1918 615.3072C 313.6238 614.9214 313.8398 614.4573 313.8397 613.9149C 313.8397 613.6617 313.7827 613.4267 313.6867 613.2097C 313.5787 612.9927 313.4077 612.7787 313.1557 612.5497L313.1557 612.5497L315.5046 612.5496L315.5046 612.5496L315.5046 611.311zM311.3197 612.5407C 311.8477 612.5407 312.2287 612.6311 312.4807 612.8481C 312.7327 613.053 312.8587 613.3152 312.8587 613.6166C 312.8588 613.9059 312.7478 614.1379 312.5078 614.3308C 312.2918 614.5237 311.9108 614.6201 311.3828 614.6202C 310.8908 614.6202 310.5338 614.5147 310.2938 614.3218C 310.0538 614.129 309.9338 613.8788 309.9338 613.5895C 309.9338 613.2881 310.0568 613.032 310.2848 612.8391C 310.5247 612.6342 310.8637 612.5408 311.3197 612.5407z" stroke="none" fill="#221E1F" fill-rule="evenodd" /><path id="1699" transform="matrix(1 0 0 -1 0 792)" d="M313.7319 619.9543L313.0299 619.9543C 313.282 619.7734 313.4799 619.5505 313.6239 619.2852C 313.7679 618.9959 313.8399 618.7006 313.8399 618.3992C 313.8399 618.0737 313.7649 617.7995 313.6328 617.5584C 313.5009 617.3052 313.2998 617.1154 313.0479 617.007C 312.8079 616.8984 312.4539 616.8442 312.0219 616.8442L312.0219 616.8442L309.0699 616.8443L309.0699 616.8443L309.07 618.0829L309.07 618.0829L311.2119 618.0829C 311.8719 618.0828 312.2739 618.0949 312.4179 618.1552C 312.5619 618.1913 312.6849 618.2787 312.7689 618.3992C 312.8529 618.5078 312.8949 618.6795 312.8949 618.8604C 312.8949 619.0773 312.8439 619.2491 312.7239 619.4299C 312.6159 619.5987 312.472 619.7012 312.292 619.7735C 312.124 619.8338 311.704 619.864 311.032 619.864L311.032 619.864L309.07 619.864L309.07 619.864L309.0701 621.1027L309.0701 621.1027L313.732 621.1025z" stroke="none" fill="#221E1F" fill-rule="evenodd" /><path id="1700" transform="matrix(1 0 0 -1 0 792)" d="M309.0702 624.5472L310.0512 624.5472L310.0512 624.5472L310.0511 623.6974L310.0511 623.6974L311.9321 623.6973C 312.3161 623.6973 312.5381 623.7033 312.5981 623.7154C 312.6701 623.7274 312.7151 623.7606 312.7511 623.8329C 312.7991 623.8811 312.8141 623.9564 312.8141 624.0408C 312.8141 624.1494 312.7811 624.3211 312.6971 624.5381L312.6971 624.5381L313.6511 624.6465C 313.7711 624.3572 313.8401 624.0227 313.8401 623.6611C 313.8401 623.4441 313.795 623.2332 313.723 623.0644C 313.651 622.8835 313.555 622.7389 313.435 622.6666C 313.327 622.5701 313.162 622.5219 312.958 622.4858C 312.814 622.4617 312.517 622.4496 312.0851 622.4496L312.0851 622.4496L310.0511 622.4497L310.0511 622.4497L310.0511 621.8801L310.0511 621.8801L309.0701 621.8802L309.0701 621.8802L309.0701 622.4498L309.0701 622.4498L308.1342 622.4498L308.1342 622.4498L307.4142 623.6974L307.4142 623.6974L309.0702 623.6974z" stroke="none" fill="#221E1F" fill-rule="evenodd" /><path id="1702" transform="matrix(1 0 0 -1 0 792)" d="M313.7322 627.9646L307.3423 627.9648L307.3423 627.9648L307.3424 629.2667L307.3424 629.2667L312.6433 629.2665L312.6433 629.2665L312.6434 632.5123L312.6434 632.5123L313.7324 632.5122z" stroke="none" fill="#221E1F" fill-rule="evenodd" /><path id="1703" transform="matrix(1 0 0 -1 0 792)" d="M311.3294 633.1542C 310.9334 633.1542 310.5374 633.2446 310.1414 633.4617C 309.7575 633.6545 309.4725 633.9468 309.2685 634.3206C 309.0645 634.6822 308.9626 635.0981 308.9626 635.5682C 308.9626 636.2795 309.1906 636.855 309.6466 637.3131C 310.1146 637.7592 310.6996 637.9911 311.3836 637.9911C 312.1036 637.9911 312.6826 637.7621 313.1385 637.304C 313.6065 636.8459 313.8405 636.2642 313.8405 635.5771C 313.8404 635.1431 313.7444 634.7333 313.5524 634.3475C 313.3604 633.9498 313.0694 633.6544 312.6974 633.4615C 312.3374 633.2446 311.8694 633.1542 311.3294 633.1542zM311.4015 634.429C 311.8694 634.429 312.2234 634.5375 312.4634 634.7545C 312.7155 634.9714 312.8325 635.2516 312.8325 635.5771C 312.8325 635.9026 312.7155 636.1739 312.4635 636.3909C 312.2235 636.6078 311.8605 636.7164 311.3925 636.7164C 310.9366 636.7164 310.5826 636.6079 310.3306 636.3909C 310.0905 636.174 309.9706 635.9027 309.9706 635.5773C 309.9705 635.2518 310.0905 634.9715 310.3305 634.7545C 310.5825 634.5375 310.9335 634.429 311.4015 634.429z" stroke="none" fill="#221E1F" fill-rule="evenodd" /><path id="1704" transform="matrix(1 0 0 -1 0 792)" d="M310.4927 639.8898L310.2856 638.7687C 309.8416 638.8893 309.5027 639.1063 309.2867 639.4197C 309.0707 639.7211 308.9627 640.1791 308.9627 640.7939C 308.9627 641.3484 309.0287 641.7553 309.1608 642.0325C 309.2928 642.2977 309.4518 642.4937 309.6558 642.6021C 309.8598 642.7106 310.2228 642.7739 310.7628 642.7739L310.7628 642.7739L312.2027 642.7557C 312.6107 642.7557 312.9227 642.7708 313.1027 642.819C 313.3067 642.8552 313.5167 642.9275 313.7327 643.0359L313.7327 643.0359L313.7327 641.8154C 313.6606 641.7792 313.5287 641.7341 313.3727 641.6979C 313.3007 641.6617 313.2557 641.6527 313.2197 641.6527C 313.4356 641.4357 313.5797 641.2036 313.6876 640.9746C 313.7836 640.7214 313.8406 640.4623 313.8406 640.1971C 313.8406 639.7149 313.7086 639.3231 313.4446 639.0579C 313.1926 638.7686 312.8626 638.642 312.4546 638.6421C 312.2026 638.6421 311.9686 638.6993 311.7526 638.832C 311.5486 638.9525 311.3956 639.1243 311.2756 639.3654C 311.1676 639.5824 311.0717 639.9169 310.9877 640.3508C 310.8797 640.9295 310.7867 641.3243 310.6907 641.5533L310.6907 641.5533L310.5647 641.5533C 310.3367 641.5533 310.1687 641.481 310.0607 641.3725C 309.9527 641.252 309.9077 641.038 309.9077 640.7125C 309.9077 640.4835 309.9617 640.3057 310.0337 640.1972C 310.1297 640.0646 310.2767 639.9621 310.4927 639.8898zM311.4917 641.5533C 311.5517 641.3845 311.6087 641.1313 311.6807 640.7938C 311.7527 640.4443 311.8246 640.2333 311.8966 640.1248C 312.0166 639.9561 312.1606 639.8807 312.3286 639.8807C 312.5086 639.8807 312.6586 639.9379 312.7786 640.0706C 312.9106 640.2031 312.9676 640.3629 312.9676 640.5677C 312.9677 640.7848 312.8957 640.9927 312.7516 641.2097C 312.6437 641.3544 312.5057 641.4508 312.3377 641.499C 312.2417 641.5352 312.0347 641.5533 311.7347 641.5533L311.7347 641.5533L311.4917 641.5533z" stroke="none" fill="#221E1F" fill-rule="evenodd" /><path id="1705" transform="matrix(1 0 0 -1 0 792)" d="M313.7329 648.2888L313.7328 647.1406L313.7328 647.1406L313.0489 647.1406C 313.3248 646.9477 313.5228 646.7156 313.6428 646.4625C 313.7628 646.1973 313.8408 645.9291 313.8408 645.6759C 313.8408 645.1335 313.6248 644.6663 313.1927 644.2927C 312.7607 643.8949 312.1638 643.7141 311.3838 643.7141C 310.5918 643.7141 309.9948 643.901 309.5748 644.2747C 309.1789 644.6364 308.9629 645.1155 308.9629 645.6942C 308.9629 646.2125 309.1789 646.6646 309.6109 647.0503L309.6109 647.0503L307.289 647.0504L307.289 647.0504L307.289 648.289zM311.3028 644.9799C 311.8068 644.9799 312.1668 645.0431 312.3828 645.1877C 312.7068 645.3806 312.8598 645.6669 312.8598 646.0286C 312.8598 646.3058 312.7518 646.5439 312.4998 646.7609C 312.2599 646.9537 311.8999 647.0593 311.4199 647.0593C 310.8799 647.0593 310.4989 646.9538 310.2589 646.7609C 310.0309 646.5681 309.9079 646.321 309.9079 646.0196C 309.9079 645.7183 310.0309 645.4711 310.2589 645.2783C 310.4868 645.0733 310.8348 644.9799 311.3028 644.9799z" stroke="none" fill="#221E1F" fill-rule="evenodd" /><path id="1707" transform="matrix(1 0 0 -1 0 792)" d="M311.3662 656.1816L311.7622 657.4474C 312.4702 657.2424 312.9922 656.926 313.3282 656.4799C 313.6761 656.0219 313.8411 655.4492 313.8411 654.7621C 313.8411 653.8942 313.556 653.1799 312.968 652.6375C 312.392 652.083 311.5851 651.8058 310.5651 651.8058C 309.4971 651.8058 308.6721 652.0801 308.0721 652.6467C 307.4842 653.1892 307.1812 653.9305 307.1812 654.8347C 307.1813 655.6302 307.4153 656.2631 307.8833 656.7694C 308.1593 657.0587 308.5553 657.2847 309.0713 657.4294L309.0713 657.4294L309.3772 656.1365C 309.0412 656.0642 308.7772 655.8984 308.5852 655.6573C 308.3932 655.4042 308.2972 655.1089 308.2972 654.7714C 308.2972 654.2892 308.4622 653.8943 308.8102 653.605C 309.1581 653.3036 309.7071 653.153 310.4751 653.153C 311.2911 653.1529 311.8761 653.2946 312.2121 653.5959C 312.5721 653.8852 312.7341 654.2739 312.7341 654.7441C 312.7341 655.0816 312.6171 655.386 312.4012 655.6392C 312.1852 655.8923 311.8342 656.0731 311.3662 656.1816z" stroke="none" fill="#221E1F" fill-rule="evenodd" /><path id="1708" transform="matrix(1 0 0 -1 0 792)" d="M313.7333 661.6423L313.0313 661.6423C 313.2833 661.4615 313.4813 661.2385 313.6253 660.9733C 313.7693 660.684 313.8413 660.3887 313.8412 660.0873C 313.8412 659.7618 313.7662 659.4875 313.6342 659.2465C 313.5022 658.9933 313.3012 658.8035 313.0492 658.695C 312.8092 658.5865 312.4552 658.5322 312.0233 658.5323L312.0233 658.5323L309.0713 658.5323L309.0713 658.5323L309.0714 659.771L309.0714 659.771L311.2133 659.7709C 311.8733 659.7709 312.2753 659.783 312.4193 659.8432C 312.5633 659.8794 312.6863 659.9668 312.7703 660.0873C 312.8543 660.1958 312.8963 660.3676 312.8963 660.5484C 312.8963 660.7654 312.8453 660.9371 312.7253 661.118C 312.6173 661.2867 312.4733 661.3892 312.2933 661.4615C 312.1253 661.5219 311.7054 661.552 311.0334 661.552L311.0334 661.552L309.0714 661.5521L309.0714 661.5521L309.0715 662.7906L309.0715 662.7906L313.7334 662.7905z" stroke="none" fill="#221E1F" fill-rule="evenodd" /><path id="1709" transform="matrix(1 0 0 -1 0 792)" d="M313.7334 665.2678L313.7334 664.0292L313.7334 664.0292L309.0715 664.0293L309.0715 664.0293L309.0715 665.1775L309.0715 665.1775L309.7285 665.1775C 309.4165 665.3704 309.2155 665.5542 309.1075 665.7109C 309.0116 665.8677 308.9636 666.0364 308.9636 666.2534C 308.9636 666.5306 309.0416 666.8019 309.1976 667.0671L309.1976 667.0671L310.2686 666.6783C 310.1366 666.4613 310.0706 666.2805 310.0706 666.0997C 310.0705 665.9188 310.1185 665.7772 310.2145 665.6566C 310.3105 665.5361 310.4755 665.4366 310.7275 665.3763C 310.9795 665.304 311.5015 665.2678 312.2935 665.2678z" stroke="none" fill="#221E1F" fill-rule="evenodd" /><path id="1710" transform="matrix(1 0 0 -1 0 792)" d="M313.7336 668.7847L313.7335 667.5461L313.7335 667.5461L309.0716 667.5463L309.0716 667.5463L309.0717 668.6945L309.0717 668.6945L309.7286 668.6945C 309.4167 668.8873 309.2157 669.0712 309.1077 669.2279C 309.0117 669.3846 308.9637 669.5533 308.9637 669.7703C 308.9637 670.0476 309.0417 670.3188 309.1977 670.584L309.1977 670.584L310.2687 670.1952C 310.1367 669.9783 310.0707 669.7974 310.0706 669.6166C 310.0706 669.4358 310.1187 669.2941 310.2146 669.1736C 310.3106 669.053 310.4756 668.9536 310.7276 668.8933C 310.9796 668.821 311.5016 668.7848 312.2936 668.7847z" stroke="none" fill="#221E1F" fill-rule="evenodd" /><path id="1711" transform="matrix(1 0 0 -1 0 792)" d="M312.2487 673.8297L312.4558 675.0682C 312.9118 674.8995 313.2538 674.6553 313.4818 674.3178C 313.7337 673.9682 313.8417 673.5313 313.8417 673.025C 313.8417 672.2052 313.5807 671.6025 313.0406 671.2168C 312.6206 670.9034 312.0867 670.7557 311.4387 670.7557C 310.6707 670.7557 310.0527 670.9517 309.6207 671.3616C 309.1888 671.7593 308.9638 672.2808 308.9638 672.9076C 308.9638 673.5947 309.1918 674.1552 309.6478 674.553C 310.1158 674.9508 310.8178 675.1437 311.7538 675.1316L311.7538 675.1316L311.7537 672.0215C 312.1257 672.0214 312.4167 672.1239 312.6087 672.3289C 312.8247 672.5096 312.9147 672.7537 312.9147 673.0431C 312.9147 673.2239 312.8697 673.3866 312.7617 673.5313C 312.6537 673.6639 312.4887 673.7573 312.2487 673.8297zM310.9978 673.902C 310.6378 673.89 310.3678 673.8026 310.1878 673.6218C 310.0078 673.441 309.9088 673.233 309.9088 672.9799C 309.9088 672.7026 310.0138 672.4796 310.2057 672.3109C 310.3977 672.13 310.6737 672.0366 310.9977 672.0486L310.9977 672.0486L310.9978 673.902z" stroke="none" fill="#221E1F" fill-rule="evenodd" /><path id="1712" transform="matrix(1 0 0 -1 0 792)" d="M313.7339 680.4114L313.7339 679.1638L313.7339 679.1638L311.3489 679.1639C 310.845 679.1639 310.521 679.1277 310.377 679.0916C 310.233 679.0313 310.122 678.9379 310.026 678.8294C 309.954 678.7089 309.909 678.5642 309.909 678.3954C 309.9089 678.1785 309.972 677.9855 310.0799 677.8168C 310.1999 677.636 310.3559 677.5365 310.5479 677.4642C 310.7519 677.4039 311.1029 677.3738 311.6189 677.3737L311.6189 677.3737L313.7338 677.3737L313.7338 677.3737L313.7338 676.1351L313.7338 676.1351L309.0719 676.1352L309.0719 676.1352L309.0719 677.2834L309.0719 677.2834L309.7559 677.2834C 309.2279 677.6932 308.964 678.2026 308.964 678.8294C 308.964 679.0946 309.012 679.3508 309.108 679.5798C 309.216 679.7968 309.342 679.9746 309.486 680.0952C 309.642 680.2036 309.816 680.291 310.008 680.3392C 310.2 680.3754 310.476 680.4116 310.836 680.4116z" stroke="none" fill="#221E1F" fill-rule="evenodd" /><path id="1713" transform="matrix(1 0 0 -1 0 792)" d="M309.0721 683.8201L310.0531 683.82L310.0531 683.82L310.0531 682.9702L310.0531 682.9702L311.9341 682.9701C 312.3181 682.9701 312.54 682.9761 312.6 682.9882C 312.6721 683.0002 312.717 683.0333 312.7531 683.1057C 312.8011 683.1539 312.816 683.2292 312.8161 683.3136C 312.8161 683.4221 312.7831 683.5939 312.6991 683.8109L312.6991 683.8109L313.653 683.9194C 313.773 683.63 313.842 683.2955 313.842 682.9339C 313.842 682.7169 313.797 682.5059 313.725 682.3372C 313.653 682.1564 313.557 682.0117 313.437 681.9394C 313.329 681.843 313.164 681.7947 312.96 681.7585C 312.816 681.7345 312.519 681.7224 312.087 681.7224L312.087 681.7224L310.0531 681.7225L310.0531 681.7225L310.053 681.153L310.053 681.153L309.0721 681.153L309.0721 681.153L309.0721 681.7225L309.0721 681.7225L308.1361 681.7226L308.1361 681.7226L307.4162 682.9703L307.4162 682.9703L309.0721 682.9702z" stroke="none" fill="#221E1F" fill-rule="evenodd" /><path id="1715" transform="matrix(1 0 0 -1 0 792)" d="M313.7342 687.2374L307.3443 687.2376L307.3443 687.2376L307.3444 688.5395L307.3444 688.5395L312.6452 688.5393L312.6452 688.5393L312.6454 691.785L312.6454 691.785L313.7343 691.785z" stroke="none" fill="#221E1F" fill-rule="evenodd" /><path id="1716" transform="matrix(1 0 0 -1 0 792)" d="M308.4335 692.7164L307.2905 692.7164L307.2905 692.7164L307.2905 693.9551L307.2905 693.9551L308.4335 693.955zM313.7343 692.7162L309.0724 692.7164L309.0724 692.7164L309.0725 693.955L309.0725 693.955L313.7344 693.9548L313.7344 693.9548L313.7343 692.7162z" stroke="none" fill="#221E1F" fill-rule="evenodd" /><path id="1717" transform="matrix(1 0 0 -1 0 792)" d="M309.0725 695.1394L309.0726 696.2786L309.0726 696.2786L309.7025 696.2786C 309.2106 696.6764 308.9646 697.1646 308.9646 697.7432C 308.9646 698.0325 309.0246 698.3037 309.1447 698.5207C 309.2766 698.7377 309.4507 698.9185 309.7026 699.0632C 309.4507 699.2681 309.2767 699.4911 309.1447 699.7322C 309.0247 699.9612 308.9647 700.2144 308.9647 700.4917C 308.9647 700.8292 309.0397 701.1276 309.1717 701.3687C 309.3157 701.5977 309.5197 701.7815 309.7838 701.902C 309.9877 701.9864 310.3147 702.0286 310.7467 702.0286L310.7467 702.0286L313.7346 702.0285L313.7346 702.0285L313.7346 700.7899L313.7346 700.7899L311.0707 700.7899C 310.6027 700.79 310.3147 700.7357 310.1707 700.6634C 309.9907 700.5428 309.9097 700.3711 309.9097 700.13C 309.9097 699.9492 309.9547 699.7864 310.0627 699.6418C 310.1707 699.485 310.3266 699.3766 310.5306 699.3163C 310.7346 699.244 311.0616 699.2078 311.4936 699.2078L311.4936 699.2078L313.7346 699.2077L313.7346 699.2077L313.7345 697.9691L313.7345 697.9691L311.1786 697.9691C 310.7226 697.9692 310.4406 697.942 310.2966 697.9059C 310.1766 697.8577 310.0806 697.7823 310.0086 697.6979C 309.9366 697.6015 309.9096 697.475 309.9096 697.3182C 309.9096 697.1254 309.9546 696.9476 310.0626 696.8029C 310.1706 696.6462 310.3235 696.5377 310.5035 696.4774C 310.7076 696.4051 311.0225 696.3779 311.4665 696.3779L311.4665 696.3779L313.7345 696.3779L313.7345 696.3779L313.7344 695.1392z" stroke="none" fill="#221E1F" fill-rule="evenodd" /><path id="1718" transform="matrix(1 0 0 -1 0 792)" d="M308.4338 703.2673L307.2908 703.2673L307.2908 703.2673L307.2909 704.5059L307.2909 704.5059L308.4339 704.5059zM313.7347 703.2671L309.0728 703.2672L309.0728 703.2672L309.0728 704.5059L309.0728 704.5059L313.7347 704.5057L313.7347 704.5057L313.7347 703.2671z" stroke="none" fill="#221E1F" fill-rule="evenodd" /><path id="1719" transform="matrix(1 0 0 -1 0 792)" d="M309.073 707.9414L310.054 707.9414L310.054 707.9414L310.0539 707.0916L310.0539 707.0916L311.9349 707.0915C 312.3189 707.0914 312.5409 707.0975 312.6009 707.1095C 312.6729 707.1216 312.7179 707.1547 312.7539 707.2271C 312.8018 707.2753 312.8169 707.3506 312.8169 707.435C 312.8169 707.5435 312.7839 707.7153 312.6999 707.9323L312.6999 707.9323L313.6539 708.0407C 313.7739 707.7514 313.8428 707.4169 313.8428 707.0552C 313.8428 706.8383 313.7978 706.6273 313.7258 706.4586C 313.6538 706.2777 313.5578 706.1331 313.4378 706.0607C 313.3298 705.9643 313.1648 705.9161 312.9608 705.8799C 312.8168 705.8558 312.5198 705.8438 312.0878 705.8438L312.0878 705.8438L310.0539 705.8439L310.0539 705.8439L310.0539 705.2743L310.0539 705.2743L309.0729 705.2743L309.0729 705.2743L309.0729 705.8439L309.0729 705.8439L308.1369 705.8439L308.1369 705.8439L307.417 707.0916L307.417 707.0916L309.0729 707.0916z" stroke="none" fill="#221E1F" fill-rule="evenodd" /><path id="1720" transform="matrix(1 0 0 -1 0 792)" d="M314.815 713.3387L314.815 712.4888C 314.131 712.0308 313.429 711.6873 312.709 711.4583C 311.989 711.2172 311.278 711.1057 310.594 711.1057C 309.754 711.1057 308.9471 711.2474 308.1911 711.5488C 307.5431 711.7899 306.9371 712.1094 306.3732 712.5072L306.3732 712.5072L306.3732 713.3571C 307.2732 712.9471 308.0171 712.6699 308.6411 712.5252C 309.2651 712.3685 309.9251 712.2991 310.6211 712.2991C 311.101 712.2991 311.593 712.3292 312.097 712.4257C 312.601 712.51 313.072 712.6396 313.528 712.7963C 313.828 712.9048 314.251 713.0856 314.815 713.3387z" stroke="none" fill="#221E1F" fill-rule="evenodd" /><path id="1721" transform="matrix(1 0 0 -1 0 792)" d="M313.7353 720.1376L313.7352 718.7181L313.7352 718.7181L312.2682 718.1486L312.2682 718.1486L312.2681 715.5629L312.2681 715.5629L313.7351 715.0294L313.7351 715.0294L313.735 713.6461L313.735 713.6461L307.2913 716.1688L307.2913 716.1688L307.2913 717.5521zM311.1882 717.7327L308.7943 716.8468L308.7943 716.8468L311.1882 715.9697L311.1882 715.9697L311.1882 717.7327z" stroke="none" fill="#221E1F" fill-rule="evenodd" /><path id="1722" transform="matrix(1 0 0 -1 0 792)" d="M314.8152 720.4811C 314.2873 720.7222 313.8943 720.888 313.6183 720.9965C 313.3303 721.0929 313.0153 721.1804 312.6553 721.2768C 312.2953 721.3491 311.9564 721.4214 311.6204 721.4576C 311.2964 721.4938 310.9694 721.5209 310.6214 721.5209C 309.9254 721.521 309.2654 721.4396 308.6414 721.295C 308.0174 721.1503 307.2734 720.8701 306.3734 720.4724L306.3734 720.4724L306.3735 721.3132C 307.0095 721.7471 307.6725 722.0906 308.3805 722.3438C 309.0885 722.5969 309.8025 722.7144 310.5224 722.7144C 311.1464 722.7144 311.7974 722.6058 312.4934 722.425C 313.2733 722.208 314.0593 721.8373 314.8153 721.3309z" stroke="none" fill="#221E1F" fill-rule="evenodd" /><path id="1730" transform="matrix(1 0 0 -1 0 792)" d="M338.8702 743.2262L341.0752 743.2262" stroke="#221E1F" stroke-width="1" fill="none" /><path id="1731" transform="matrix(1 0 0 -1 0 792)" d="M338.8699 675.6521L341.0749 675.6521M338.8699 709.4641L341.0749 709.4641M338.8699 608.024L341.0749 608.024M338.8699 641.8381L341.0749 641.8381" stroke="#221E1F" stroke-width="0.6" fill="none" /><path id="1732" transform="matrix(1 0 0 -1 0 792)" d="M341.0752 571.9286L341.0752 574.2117M338.8702 574.2117L341.0752 574.2117" stroke="#221E1F" stroke-width="1" fill="none" /><path id="1733" transform="matrix(1 0 0 -1 0 792)" d="M546.9332 571.827L546.9332 574.024M517.5132 571.827L517.5132 574.024M488.0992 571.89L488.0992 574.087M458.4732 571.945L458.4732 574.142M370.3762 571.795L370.3762 573.992M399.8812 571.827L399.8812 574.024M429.2282 571.809L429.2282 574.006" stroke="#221E1F" stroke-width="0.6" fill="none" /><path id="1734" transform="matrix(1 0 0 -1 0 792)" d="M558.8049 571.8589L558.8049 574.2109" stroke="#221E1F" stroke-width="1" fill="none" /><g clip-path="url(#3)"><path id="1735" transform="matrix(1 0 0 -1 0 792)" d="M546.9319 743.1922C 546.9319 686.8532 546.9329 630.5172 546.9329 574.1802M517.5049 743.1922C 517.5049 686.8532 517.5069 630.5172 517.5069 574.1802M488.0789 743.1922C 488.0789 686.8542 488.0809 630.5172 488.0809 574.1802M458.6529 743.1922C 458.6529 686.8542 458.6549 630.5172 458.6539 574.1802M429.2269 743.1922C 429.2269 686.8542 429.2289 630.5172 429.2289 574.1802M399.8009 743.1922C 399.8009 686.8542 399.8029 630.5172 399.8019 574.1802M370.3749 743.1932C 370.3749 686.8542 370.3769 630.5182 370.3769 574.1812M341.0839 743.2262L558.8049 743.2262M558.8049 743.2212L558.8049 574.2112" stroke="#221E1F" stroke-width="0.6" fill="none" /></g><path id="1736" transform="matrix(1 0 0 -1 0 792)" d="M341.075 743.2261L558.805 743.2261L558.805 743.2261L558.805 574.2111L558.805 574.2111L341.075 574.2111z" stroke="#221E1F" stroke-width="1" fill="none" /><path id="1737" transform="matrix(1 0 0 -1 0 792)" d="M416.666 621.248L494.355 621.248L494.355 621.248L494.355 612.031L494.355 612.031L416.666 612.031z" stroke="none" fill="#FFFFFF" fill-rule="evenodd" /><path id="1753" transform="matrix(1 0 0 -1 0 792)" d="M422.301 704.174L513.646 704.174L513.646 704.174L513.646 694.957L513.646 694.957L422.301 694.957z" stroke="none" fill="#FFFFFF" fill-rule="evenodd" /><path id="1772" transform="matrix(1 0 0 -1 0 792)" d="M341.0851 608.0249L558.8051 608.0249M341.0841 641.838L558.8051 641.838M341.0841 675.6509L558.8051 675.6509M341.0841 709.4639L558.8051 709.4639" stroke="#221E1F" stroke-width="0.6" fill="none" /><g clip-path="url(#4)"><path id="1773" transform="matrix(1 0 0 -1 0 792)" d="M351.8464 590.7716C 402.5734 614.6456 473.4744 614.4396 558.1804 597.7586" stroke="#EE1A2E" stroke-width="2" stroke-linecap="round" fill="none" /><path id="1774" transform="matrix(1 0 0 -1 0 792)" d="M351.4354 617.8992C 405.6734 659.2582 473.8004 687.3792 557.3584 703.8032" stroke="#0060AF" stroke-width="2" stroke-linecap="round" stroke-dasharray="6.0005,2" fill="none" /></g><path id="1775" transform="matrix(1 0 0 -1 0 792)" d="M250.2815 171.9708L273.8615 171.9708" stroke="#221E1F" stroke-width="1" fill="none" /><path id="1776" transform="matrix(1 0 0 -1 0 792)" d="M250.6968 174.6056L245.9068 171.9706L250.6968 169.3356z" stroke="none" fill="#221E1F" fill-rule="nonzero" /><path id="1777" transform="matrix(1 0 0 -1 0 792)" d="M273.4465 174.6056L278.2365 171.9706L273.4465 169.3356z" stroke="none" fill="#221E1F" fill-rule="nonzero" /><path id="1778" transform="matrix(1 0 0 -1 0 792)" d="M341.5778 155.87L362.4118 155.87" stroke="#221E1F" stroke-width="1" fill="none" /><path id="1779" transform="matrix(1 0 0 -1 0 792)" d="M341.9931 158.5048L337.2031 155.8698L341.9931 153.2348z" stroke="none" fill="#221E1F" fill-rule="nonzero" /><path id="1780" transform="matrix(1 0 0 -1 0 792)" d="M361.9963 158.5048L366.7863 155.8698L361.9963 153.2348z" stroke="none" fill="#221E1F" fill-rule="nonzero" /><path id="1781" transform="matrix(1 0 0 -1 0 792)" d="M320.9339 204.4062L320.9339 211.6612L320.9339 211.6612L310.5349 211.6612M395.4199 196.8202L384.4979 196.8202L384.4979 196.8202L384.4979 187.4052" stroke="#221E1F" stroke-width="1" fill="none" /><path id="1798" transform="matrix(1 0 0 -1 0 792)" d="M120.0077 201.2689L453.3437 201.2689" stroke="#EE1C23" stroke-width="1" stroke-dasharray="5,3" fill="none" /><path id="1799" transform="matrix(1 0 0 -1 0 792)" d="M211.6777 184.7859L211.6777 129.4509M187.4487 272.4569L187.4487 154.1719M367.5687 269.9589L367.5687 151.6749M336.6697 229.5029L336.6697 151.9239M245.2497 213.5229L245.2497 149.9299M279.3067 248.4849L279.3067 131.6979M120.0077 171.9019L463.3537 171.9019" stroke="#221E1F" stroke-width="1" stroke-dasharray="5,3" fill="none" /><g clip-path="url(#5)"><path id="1800" transform="matrix(1 0 0 -1 0 792)" d="M187.4045 115.2391L211.6775 115.2391L211.6775 115.2391L211.6775 129.7491L211.6775 129.7491L279.3065 129.7491L279.3065 129.7491L279.3065 115.2391L279.3065 115.2391L367.5695 115.2391L367.5695 115.2391L367.5695 129.7491L367.5695 129.7491L391.9105 129.7491" stroke="#221E1F" stroke-width="1" fill="none" /></g><path id="1801" transform="matrix(1 0 0 -1 0 792)" d="M162.0466 234.3767L465.4066 234.3767" stroke="#0060AF" stroke-width="1" stroke-dasharray="5,3" fill="none" /><path id="1802" transform="matrix(1 0 0 -1 0 792)" d="M119.8379 255.1855L486.2349 255.1855" stroke="#0060AF" stroke-width="1" fill="none" /><path id="1803" transform="matrix(1 0 0 -1 0 792)" d="M119.8379 257.9326L404.9669 257.9326" stroke="#221E1F" stroke-width="1" stroke-dasharray="5,3" fill="none" /><path id="1804" transform="matrix(1 0 0 -1 0 792)" d="M367.6236 172.0545L425.0756 221.7655M211.5456 172.1335L133.0266 224.4905M367.5016 172.2185L279.1306 230.9695M211.7326 172.2585L279.1306 230.9695" stroke="#EE1C23" stroke-width="2" stroke-linecap="round" fill="none" /><path id="1817" transform="matrix(1 0 0 -1 0 792)" d="M493.3895 209.4939L367.6155 257.4729L367.6155 257.4729L336.6685 211.9769L336.6685 211.9769L215.4085 257.4569" stroke="#221E1F" stroke-width="2" stroke-linecap="round" fill="none" /><path id="1818" transform="matrix(1 0 0 -1 0 792)" d="M267.9331 239.453L267.9331 243.83L267.9331 243.83L256.5351 243.83" stroke="#221E1F" stroke-width="1" fill="none" /><path id="1821" transform="matrix(1 0 0 -1 0 792)" d="M216.4619 138.139L274.2559 138.139" stroke="#221E1F" stroke-width="1" fill="none" /><path id="1822" transform="matrix(1 0 0 -1 0 792)" d="M216.8772 140.7738L212.0872 138.1388L216.8772 135.5038z" stroke="none" fill="#221E1F" fill-rule="nonzero" /><path id="1823" transform="matrix(1 0 0 -1 0 792)" d="M273.8409 140.7738L278.6309 138.1388L273.8409 135.5038z" stroke="none" fill="#221E1F" fill-rule="nonzero" /><path id="1824" transform="matrix(1 0 0 -1 0 792)" d="M178.5032 234.485L178.5032 253.162" stroke="#221E1F" stroke-width="1" fill="none" /><path id="1825" transform="matrix(1 0 0 -1 0 792)" d="M175.8684 252.7463L178.5034 257.5363L181.1384 252.7463z" stroke="none" fill="#221E1F" fill-rule="nonzero" /><path id="1826" transform="matrix(1 0 0 -1 0 792)" d="M444.9562 254.8306L444.9562 239.9096" stroke="#0060AF" stroke-width="1" fill="none" /><path id="1827" transform="matrix(1 0 0 -1 0 792)" d="M447.591 240.3246L444.956 235.5346L442.321 240.3246z" stroke="none" fill="#0060AF" fill-rule="nonzero" /><path id="1886" transform="matrix(1 0 0 -1 0 792)" d="M243.2819 252.6094L245.2429 270.0764" stroke="#221E1F" stroke-width="1" fill="none" /><path id="1887" transform="matrix(1 0 0 -1 0 792)" d="M240.7101 253.3163L242.7941 248.2623L245.9471 252.7283z" stroke="none" fill="#221E1F" fill-rule="nonzero" /><path id="1901" transform="matrix(1 0 0 -1 0 792)" d="M138.0244 243.568L174.8034 243.568" stroke="#221E1F" stroke-width="0.6" fill="none" /><path id="1902" transform="matrix(1 0 0 -1 0 792)" d="M250.2787 156.696L274.4297 156.696" stroke="#221E1F" stroke-width="1" fill="none" /></g></g></svg>