<svg xmlns="http://www.w3.org/2000/svg" xmlns:xlink="http://www.w3.org/1999/xlink" id="body_35" preserveAspectRatio="xMinYMin meet" viewBox="0 0 816 1056"><defs><clipPath id="1"><path id="" clip-rule="evenodd" transform="matrix(1 0 0 1 0 0)" d="M0 792L0 0L0 0L612 0L612 0L612 792L612 792L0 792z" /></clipPath><clipPath id="2"><path id="" clip-rule="evenodd" transform="matrix(1 0 0 1 0 0)" d="M44.089 732.014L587.999 732.014L587.999 732.014L587.999 38.5L587.999 38.5L44.089 38.5z" /></clipPath><clipPath id="3"><path id="" clip-rule="evenodd" transform="matrix(1 0 0 1 0 0)" d="M343.209 210.626L534.21 210.626L534.21 210.626L534.21 44.62598L534.21 44.62598L343.209 44.62598z" /></clipPath><clipPath id="4"><path id="" clip-rule="evenodd" transform="matrix(1 0 0 1 0 0)" d="M343.209 210.626L534.21 210.626L534.21 210.626L534.21 44.62598L534.21 44.62598L343.209 44.62598z" /></clipPath><clipPath id="5"><path id="" clip-rule="evenodd" transform="matrix(1 0 0 1 0 0)" d="M343.209 210.626L534.21 210.626L534.21 210.626L534.21 44.62598L534.21 44.62598L343.209 44.62598z" /></clipPath></defs><g transform="matrix(1.333333 0 0 1.333333 0 0)"><g clip-path="url(#1)"><path id="1" transform="matrix(1 0 0 -1 0 792)" d="M54 39.5055L558 39.5055" stroke="#221E1F" stroke-width="0.5" fill="none" /><path id="30" transform="matrix(1 0 0 -1 0 792)" d="M44.089 59.986L587.999 59.986L587.999 753.5L44.089 753.5z" stroke="none" fill="#FFFFFF" fill-rule="nonzero" /><g clip-path="url(#2)"></g><path id="1089" transform="matrix(1 0 0 -1 0 792)" d="M371.3329 606.4573L378.9899 606.4573M374.0679 603.7223L376.2559 603.7223M368.5989 609.1913L381.7239 609.1913" stroke="#221E1F" stroke-width="1" fill="none" /><path id="1133" transform="matrix(1 0 0 -1 0 792)" d="M375.0537 625.4431L375.0537 608.8401" stroke="#221E1F" stroke-width="1" fill="none" /><g clip-path="url(#3)"><path id="1134" transform="matrix(1 0 0 -1 0 792)" d="M375.0494 645.7233L375.0494 653.7353L375.0494 653.7353L411.9534 653.7353L411.9534 653.7353L411.9574 689.8813L411.9574 689.8813L419.4494 689.8813C 421.3504 689.8813 422.8924 691.5473 422.8924 693.4483C 422.8924 695.3493 421.3504 696.8853 419.4494 696.8853C 421.3504 696.8853 422.8924 698.4223 422.8924 700.3233C 422.8924 702.2243 421.3504 703.7603 419.4494 703.7603C 421.3504 703.7603 422.8924 705.2973 422.8924 707.1983C 422.8924 709.0993 421.3504 710.6443 419.4494 710.6443C 421.3504 710.6443 422.8924 712.1893 422.8924 714.0903C 422.8924 715.9903 421.3504 717.6323 419.4494 717.6323C 396.5314 717.6323 376.8954 717.6333 350.6434 717.6343M432.1534 639.2303L442.2494 639.2303L442.2494 639.2303L442.2494 689.8813L442.2494 689.8813L434.7574 689.8813C 432.8564 689.8813 431.3144 691.5473 431.3144 693.4483C 431.3144 695.3493 432.8564 696.8853 434.7574 696.8853C 432.8564 696.8853 431.3144 698.4223 431.3144 700.3233C 431.3144 702.2243 432.8564 703.7603 434.7574 703.7603C 432.8564 703.7603 431.3144 705.2973 431.3144 707.1983C 431.3144 709.0993 432.8564 710.6443 434.7574 710.6443C 432.8564 710.6443 431.3144 712.1893 431.3144 714.0903C 431.3144 715.9903 432.8564 717.6323 434.7574 717.6323L434.7574 717.6323L513.9934 717.6323L513.9934 717.6323L513.9934 667.1953" stroke="#221E1F" stroke-width="1" stroke-linecap="round" fill="none" /></g><path id="1135" transform="matrix(1 0 0 -1 0 792)" d="M428.5456 717.5554L428.5456 689.7734M425.8846 717.5554L425.8846 689.7734" stroke="#221E1F" stroke-width="1" fill="none" /><path id="1136" transform="matrix(1 0 0 -1 0 792)" d="M447.7627 685.9473L447.7627 675.9693" stroke="#EE1C23" stroke-width="1" fill="none" /><path id="1137" transform="matrix(1 0 0 -1 0 792)" d="M450.3975 676.3848L447.7625 671.5948L447.7625 671.5948L445.1275 676.3848z" stroke="none" fill="#EE1C23" fill-rule="evenodd" /><g clip-path="url(#4)"><path id="1138" transform="matrix(1 0 0 -1 0 792)" d="M519.3699 662.0659C 517.7538 663.0099 515.8729 663.5509 513.8649 663.5509C 511.8739 663.5509 510.0089 663.0199 508.3999 662.0889M519.3439 667.1959L508.4059 667.1959" stroke="#221E1F" stroke-width="1" fill="none" /><path id="1139" transform="matrix(1 0 0 -1 0 792)" d="M435.0569 695.0204C 435.9869 695.0204 436.7409 694.2664 436.7409 693.3364C 436.7409 692.4054 435.9869 691.6514 435.0569 691.6514C 434.1269 691.6514 433.3729 692.4054 433.3729 693.3364C 433.3729 694.2664 434.1269 695.0204 435.0569 695.0204" stroke="none" fill="#221E1F" fill-rule="evenodd" /><path id="1140" transform="matrix(1 0 0 -1 0 792)" d="M435.0569 695.0204C 435.9869 695.0204 436.7409 694.2664 436.7409 693.3364C 436.7409 692.4054 435.9869 691.6514 435.0569 691.6514C 434.1269 691.6514 433.3729 692.4054 433.3729 693.3364C 433.3729 694.2664 434.1269 695.0204 435.0569 695.0204z" stroke="#221E1F" stroke-width="1" fill="none" /><path id="1141" transform="matrix(1 0 0 -1 0 792)" d="M419.1501 715.8107C 418.2201 715.8107 417.4661 715.0567 417.4661 714.1267C 417.4661 713.1957 418.2201 712.4417 419.1501 712.4417C 420.0801 712.4417 420.8341 713.1957 420.8341 714.1267C 420.8341 715.0567 420.0801 715.8107 419.1501 715.8107" stroke="none" fill="#221E1F" fill-rule="evenodd" /><path id="1142" transform="matrix(1 0 0 -1 0 792)" d="M419.1501 715.8107C 418.2201 715.8107 417.4661 715.0567 417.4661 714.1267C 417.4661 713.1957 418.2201 712.4417 419.1501 712.4417C 420.0801 712.4417 420.8341 713.1957 420.8341 714.1267C 420.8341 715.0567 420.0801 715.8107 419.1501 715.8107z" stroke="#221E1F" stroke-width="1" fill="none" /><path id="1143" transform="matrix(1 0 0 -1 0 792)" d="M360.5991 677.6852L392.5241 677.6852L392.5241 677.6852L392.5241 690.9722L392.5241 690.9722L360.5991 690.9722z" stroke="#BCBDC0" stroke-width="1" stroke-dasharray="5,1" fill="none" /></g><g clip-path="url(#5)"><path id="1149" transform="matrix(1 0 0 -1 0 792)" d="M361.0765 683.2817L350.6435 683.2817L350.6435 683.2817L350.6435 717.6327M392.7725 683.2827L411.9515 683.2817" stroke="#BCBDC0" stroke-width="1" stroke-dasharray="5,1" fill="none" /><path id="1150" transform="matrix(1 0 0 -1 0 792)" d="M370.1113 634.6352C 376.7413 634.7852 382.2343 637.3962 386.9503 641.6932M373.3353 643.9552L373.3353 643.9552M373.3353 643.9552C 373.3353 642.9802 374.1273 642.1882 375.1043 642.1882C 376.0803 642.1882 376.8723 642.9802 376.8723 643.9552C 376.8723 644.9322 376.0803 645.7242 375.1043 645.7242C 374.1273 645.7242 373.3353 644.9322 373.3353 643.9552M373.3983 627.2072L373.3983 627.2072M373.3983 627.2072C 373.3983 626.2322 374.1903 625.4402 375.1663 625.4402C 376.1423 625.4402 376.9343 626.2322 376.9343 627.2072C 376.9343 628.1832 376.1423 628.9762 375.1663 628.9762C 374.1903 628.9762 373.3983 628.1832 373.3983 627.2072M375.8993 642.5182L380.1763 629.3962" stroke="#221E1F" stroke-width="1" fill="none" /><path id="1151" transform="matrix(1 0 0 -1 0 792)" d="M370.4676 637.2791L365.7386 634.5371L365.7386 634.5371L370.5866 632.0101z" stroke="none" fill="#221E1F" fill-rule="evenodd" /><path id="1152" transform="matrix(1 0 0 -1 0 792)" d="M517.0156 726.1865L530.8636 726.1865M343.7956 726.1865L357.6436 726.1865" stroke="#221E1F" stroke-width="1" fill="none" /><path id="1153" transform="matrix(1 0 0 -1 0 792)" d="M510.7986 593.4496L498.1426 593.4496L498.1426 593.4496L504.4706 583.1836z" stroke="none" fill="#FFFFFF" fill-rule="evenodd" /><path id="1154" transform="matrix(1 0 0 -1 0 792)" d="M510.7986 593.4496L498.1426 593.4496L498.1426 593.4496L504.4706 583.1836L504.4706 583.1836L510.7986 593.4496z" stroke="#221E1F" stroke-width="1" fill="none" /><path id="1155" transform="matrix(1 0 0 -1 0 792)" d="M504.4702 593.8914L504.4702 609.1984" stroke="#221E1F" stroke-width="1" fill="none" /><path id="1156" transform="matrix(1 0 0 -1 0 792)" d="M502.4543 609.1978C 502.4543 610.3068 503.3593 611.2138 504.4703 611.2138C 505.5813 611.2138 506.4863 610.3068 506.4863 609.1978C 506.4863 608.0888 505.5813 607.1818 504.4703 607.1818C 503.3593 607.1818 502.4543 608.0888 502.4543 609.1978" stroke="none" fill="#221E1F" fill-rule="evenodd" /><path id="1157" transform="matrix(1 0 0 -1 0 792)" d="M513.9931 663.5503L513.9931 609.1983L513.9931 609.1983L442.2631 609.1983L442.2631 609.1983L442.2631 627.3513L442.2631 627.3513L432.1531 627.3513M442.2491 642.2143L447.7581 642.2143L447.7581 642.2143L447.7581 627.2103L447.7581 627.2103L441.7191 627.1633M432.1531 633.3253L442.1531 633.3253L442.1531 633.3253L442.1531 627.3473M432.1531 628.7263L432.1531 624.2263M450.0071 637.2103L445.5071 637.2103M432.1531 635.5753L432.1531 631.0753M432.1531 642.1513L432.1531 637.6513M428.9031 642.2263L428.9031 627.3513L428.9031 627.3513L420.2781 627.3513" stroke="#221E1F" stroke-width="1" fill="none" /><path id="1158" transform="matrix(1 0 0 -1 0 792)" d="M432.3222 633.3022L438.9032 634.7692L438.9032 634.7692L438.9042 631.8022z" stroke="none" fill="#221E1F" fill-rule="evenodd" /><path id="1159" transform="matrix(1 0 0 -1 0 792)" d="M432.3222 633.3022L438.9032 634.7692L438.9032 634.7692L438.9042 631.8022L438.9042 631.8022L432.3222 633.3022z" stroke="#221E1F" stroke-width="0.6" fill="none" /><path id="1160" transform="matrix(1 0 0 -1 0 792)" d="M447.7343 637.0411L449.2013 633.0141L449.2013 633.0141L446.2343 633.0141z" stroke="none" fill="#221E1F" fill-rule="evenodd" /><path id="1161" transform="matrix(1 0 0 -1 0 792)" d="M447.7343 637.0411L449.2013 633.0141L449.2013 633.0141L446.2343 633.0141L446.2343 633.0141L447.7343 637.0411z" stroke="#221E1F" stroke-width="0.6" fill="none" /><path id="1162" transform="matrix(1 0 0 -1 0 792)" d="M350.6432 726.1862L350.6432 717.6322" stroke="#221E1F" stroke-width="1" fill="none" /><path id="1163" transform="matrix(1 0 0 -1 0 792)" d="M352.6591 717.6326C 352.6591 716.5236 351.7541 715.6166 350.6431 715.6166C 349.5321 715.6166 348.6271 716.5236 348.6271 717.6326C 348.6271 718.7416 349.5321 719.6486 350.6431 719.6486C 351.7541 719.6486 352.6591 718.7416 352.6591 717.6326" stroke="none" fill="#221E1F" fill-rule="evenodd" /><path id="1164" transform="matrix(1 0 0 -1 0 792)" d="M523.3298 726.1862L523.3298 707.6372L523.3298 707.6372L513.9938 707.6432" stroke="#221E1F" stroke-width="1" fill="none" /><path id="1165" transform="matrix(1 0 0 -1 0 792)" d="M513.9918 705.6273C 512.8828 705.6283 511.9768 706.5333 511.9768 707.6443C 511.9778 708.7553 512.8858 709.6603 513.9948 709.6593C 515.1028 709.6583 516.0098 708.7523 516.0089 707.6423C 516.0089 706.5313 515.1008 705.6263 513.9918 705.6273" stroke="none" fill="#221E1F" fill-rule="evenodd" /><path id="1166" transform="matrix(1 0 0 -1 0 792)" d="M465.0471 609.5015L465.0471 618.1755L465.0471 618.1755L460.5721 619.5656L460.5721 619.5656L469.3361 622.1635L469.3361 622.1635L460.5721 624.7625L460.5721 624.7625L469.3361 627.3585L469.3361 627.3585L460.5721 629.9575L460.5721 629.9575L469.3361 632.5545L469.3361 632.5545L465.0471 633.8235L465.0471 633.8235L465.0471 642.2095" stroke="#46785D" stroke-width="1" fill="none" /><path id="1167" transform="matrix(1 0 0 -1 0 792)" d="M463.0312 609.5015C 463.0312 608.3925 463.9362 607.4855 465.0472 607.4855C 466.1582 607.4855 467.0632 608.3925 467.0632 609.5015C 467.0632 610.6105 466.1582 611.5175 465.0472 611.5175C 463.9362 611.5175 463.0312 610.6105 463.0312 609.5015" stroke="none" fill="#46785D" fill-rule="evenodd" /><path id="1168" transform="matrix(1 0 0 -1 0 792)" d="M465.0471 645.7125L465.0471 653.7345L465.0471 653.7345L442.2491 653.7345" stroke="#46785D" stroke-width="1" fill="none" /><path id="1169" transform="matrix(1 0 0 -1 0 792)" d="M442.2492 651.7189C 441.1402 651.7189 440.2332 652.6239 440.2332 653.7349C 440.2332 654.8459 441.1402 655.7509 442.2492 655.7509C 443.3582 655.7509 444.2652 654.8459 444.2652 653.7349C 444.2652 652.6239 443.3582 651.7189 442.2492 651.7189" stroke="none" fill="#46785D" fill-rule="evenodd" /><path id="1170" transform="matrix(1 0 0 -1 0 792)" d="M470.7508 645.8108L459.8138 645.8108M459.8138 642.1638L470.7508 642.1638" stroke="#46785D" stroke-width="1" fill="none" /></g><g transform="matrix(0.4799934 0 0 -0.4797207 70.78221 656.472)"><g transform="matrix(1 0 0 1 0 0)"><image x="0" y="0" xlink:href="img_46.png" width="1012" height="388" /></g></g><path id="1172" transform="matrix(1 0 0 -1 0 792)" d="M54.8502 166.4132L63.8402 160.8602L54.8502 155.2222z" stroke="none" fill="#2A899A" fill-rule="nonzero" /><path id="1173" transform="matrix(1 0 0 -1 0 792)" d="M54.8502 166.4132L63.8402 160.8602L63.8402 160.8602L54.8502 155.2222L54.8502 155.2222L54.8502 166.4132z" stroke="#2A899A" stroke-width="0.552" fill="none" /><path id="1174" transform="matrix(1 0 0 -1 0 792)" d="M308.9579 166.6429L317.9479 161.0899L308.9579 155.4519z" stroke="none" fill="#2A899A" fill-rule="nonzero" /><path id="1175" transform="matrix(1 0 0 -1 0 792)" d="M308.9579 166.6429L317.9479 161.0899L317.9479 161.0899L308.9579 155.4519L308.9579 155.4519L308.9579 166.6429z" stroke="#2A899A" stroke-width="0.552" fill="none" /><path id="1176" transform="matrix(1 0 0 -1 0 792)" d="M60.4061 188.0656L69.3961 182.5126L60.4061 176.8746z" stroke="none" fill="#E7108B" fill-rule="nonzero" /><path id="1177" transform="matrix(1 0 0 -1 0 792)" d="M60.4061 188.0656L69.3961 182.5126L69.3961 182.5126L60.4061 176.8746L60.4061 176.8746L60.4061 188.0656z" stroke="#E7108B" stroke-width="0.552" fill="none" /><path id="1178" transform="matrix(1 0 0 -1 0 792)" d="M314.5136 188.7548L323.5036 183.2018L314.5136 177.5638z" stroke="none" fill="#E7108B" fill-rule="nonzero" /><path id="1179" transform="matrix(1 0 0 -1 0 792)" d="M314.5136 188.7548L323.5036 183.2018L323.5036 183.2018L314.5136 177.5638L314.5136 177.5638L314.5136 188.7548z" stroke="#E7108B" stroke-width="0.552" fill="none" /><path id="1212" transform="matrix(1 0 0 -1 0 792)" d="M323.8371 322.0762L555.8841 322.0762L555.8841 322.0762L555.8841 136.5362L555.8841 136.5362L323.8371 136.5362zM70.4191 322.0762L302.4661 322.0762L302.4661 322.0762L302.4661 136.5362L302.4661 136.5362L70.4191 136.5362z" stroke="#221E1F" stroke-width="0.92" fill="none" /><path id="1213" transform="matrix(1 0 0 -1 0 792)" d="M60.1805 164.7363L69.1705 159.1833L60.1805 153.5453z" stroke="none" fill="#F47421" fill-rule="nonzero" /><path id="1214" transform="matrix(1 0 0 -1 0 792)" d="M60.1805 164.7363L69.1705 159.1833L69.1705 159.1833L60.1805 153.5453L60.1805 153.5453L60.1805 164.7363z" stroke="#F47421" stroke-width="0.552" fill="none" /><path id="1215" transform="matrix(1 0 0 -1 0 792)" d="M314.2881 164.9661L323.2781 159.4131L314.2881 153.7751z" stroke="none" fill="#F47421" fill-rule="nonzero" /><path id="1216" transform="matrix(1 0 0 -1 0 792)" d="M314.2881 164.9661L323.2781 159.4131L323.2781 159.4131L314.2881 153.7751L314.2881 153.7751L314.2881 164.9661z" stroke="#F47421" stroke-width="0.552" fill="none" /><path id="1219" transform="matrix(1 0 0 -1 0 792)" d="M167.1116 251.0082L161.0336 252.2112" stroke="#221E1F" stroke-width="0.92" fill="none" /><path id="1220" transform="matrix(1 0 0 -1 0 792)" d="M166.2661 248.7044L171.0601 250.2274L167.2071 253.4604z" stroke="none" fill="#221E1F" fill-rule="nonzero" /><path id="1221" transform="matrix(1 0 0 -1 0 792)" d="M465.0403 254.6842L471.1183 255.8862" stroke="#221E1F" stroke-width="0.92" fill="none" /><path id="1222" transform="matrix(1 0 0 -1 0 792)" d="M464.9449 257.1364L461.0919 253.9034L465.8859 252.3804z" stroke="none" fill="#221E1F" fill-rule="nonzero" /><path id="1223" transform="matrix(1 0 0 -1 0 792)" d="M117.3719 208.0643L119.7509 213.7853" stroke="#221E1F" stroke-width="0.92" fill="none" /><path id="1224" transform="matrix(1 0 0 -1 0 792)" d="M115.2807 209.3479L115.8267 204.3479L119.7567 207.4859z" stroke="none" fill="#221E1F" fill-rule="nonzero" /><path id="1225" transform="matrix(1 0 0 -1 0 792)" d="M472.077 260.018L511.217 260.018L511.217 250.035L472.077 250.035z" stroke="none" fill="#FFFFFF" fill-rule="nonzero" /><path id="1235" transform="matrix(1 0 0 -1 0 792)" d="M351.686 224.636L390.826 224.636L390.826 214.653L351.686 214.653z" stroke="none" fill="#FFFFFF" fill-rule="nonzero" /><path id="1245" transform="matrix(1 0 0 -1 0 792)" d="M350.078 179.374L389.218 179.374L389.218 169.391L350.078 169.391z" stroke="none" fill="#FFFFFF" fill-rule="nonzero" /><path id="1254" transform="matrix(1 0 0 -1 0 792)" d="M116.2232 163.0325L118.6022 168.7535" stroke="#221E1F" stroke-width="0.92" fill="none" /><path id="1255" transform="matrix(1 0 0 -1 0 792)" d="M114.1319 164.3162L114.6779 159.3162L118.6079 162.4552z" stroke="none" fill="#221E1F" fill-rule="nonzero" /><path id="1256" transform="matrix(1 0 0 -1 0 792)" d="M367.8034 163.7218L370.1824 169.4428" stroke="#221E1F" stroke-width="0.92" fill="none" /><path id="1257" transform="matrix(1 0 0 -1 0 792)" d="M365.7122 165.0054L366.2582 160.0054L370.1882 163.1444z" stroke="none" fill="#221E1F" fill-rule="nonzero" /><path id="1258" transform="matrix(1 0 0 -1 0 792)" d="M369.6414 209.9024L372.0204 215.6234" stroke="#221E1F" stroke-width="0.92" fill="none" /><path id="1259" transform="matrix(1 0 0 -1 0 792)" d="M367.5503 211.186L368.0963 206.186L372.0263 209.324z" stroke="none" fill="#221E1F" fill-rule="nonzero" /><path id="1260" transform="matrix(1 0 0 -1 0 792)" d="M118.578 259.63L160.212 259.63L160.212 245.752L118.578 245.752z" stroke="none" fill="#FFFFFF" fill-rule="nonzero" /><path id="1261" transform="matrix(1 0 0 -1 0 792)" d="M140.578 298.645L182.212 298.645L182.212 284.767L140.578 284.767z" stroke="none" fill="#FFFFFF" fill-rule="nonzero" /><path id="1262" transform="matrix(1 0 0 -1 0 792)" d="M119.89 257.031L159.03 257.031L159.03 247.048L119.89 247.048z" stroke="none" fill="#FFFFFF" fill-rule="nonzero" /><path id="1275" transform="matrix(1 0 0 -1 0 792)" d="M237.156 319.485L299.93 319.485L299.93 299.02L237.156 299.02z" stroke="none" fill="#FFFFFF" fill-rule="nonzero" /><path id="1276" transform="matrix(1 0 0 -1 0 792)" d="M490.779 320.351L553.553 320.351L553.553 299.886L490.779 299.886z" stroke="none" fill="#FFFFFF" fill-rule="nonzero" /><path id="1317" transform="matrix(1 0 0 -1 0 792)" d="M100.106 223.946L139.246 223.946L139.246 213.963L100.106 213.963z" stroke="none" fill="#FFFFFF" fill-rule="nonzero" /><path id="1327" transform="matrix(1 0 0 -1 0 792)" d="M98.497 178.685L137.637 178.685L137.637 168.702L98.497 168.702z" stroke="none" fill="#FFFFFF" fill-rule="nonzero" /><path id="1336" transform="matrix(1 0 0 -1 0 792)" d="M171.888 266.4706L162.466 282.5686" stroke="#221E1F" stroke-width="0.92" fill="none" /><path id="1337" transform="matrix(1 0 0 -1 0 792)" d="M169.6026 265.5758L173.9206 262.9968L173.7866 268.0248z" stroke="none" fill="#221E1F" fill-rule="nonzero" /><path id="1338" transform="matrix(1 0 0 -1 0 792)" d="M448.786 312.954L480.179 312.954L480.179 299.076L448.786 299.076z" stroke="none" fill="#FFFFFF" fill-rule="nonzero" /><path id="1344" transform="matrix(1 0 0 -1 0 792)" d="M457.0963 291.4554L462.7633 300.7174" stroke="#221E1F" stroke-width="0.92" fill="none" /><path id="1345" transform="matrix(1 0 0 -1 0 792)" d="M455.2279 293.0463L454.9959 288.0223L459.3639 290.5163z" stroke="none" fill="#221E1F" fill-rule="nonzero" /></g></g></svg>