<svg xmlns="http://www.w3.org/2000/svg" xmlns:xlink="http://www.w3.org/1999/xlink" id="body_18" preserveAspectRatio="xMinYMin meet" viewBox="0 0 816 1056"><defs><clipPath id="1"><path id="" clip-rule="evenodd" transform="matrix(1 0 0 1 0 0)" d="M0 792L0 0L0 0L612 0L612 0L612 792L612 792L0 792z" /></clipPath><clipPath id="2"><path id="" clip-rule="evenodd" transform="matrix(1 0 0 1 0 0)" d="M42 740L565.499 740L565.499 740L565.499 39L565.499 39L42 39z" /></clipPath><clipPath id="3"><path id="" clip-rule="evenodd" transform="matrix(1 0 0 1 0 0)" d="M307.801 272.545L560.881 272.545L560.881 272.545L560.881 52.71497L560.881 52.71497L307.801 52.71497z" /></clipPath><clipPath id="4"><path id="" clip-rule="evenodd" transform="matrix(1 0 0 1 0 0)" d="M309.244 610.738L559.602 610.738L559.602 610.738L559.602 360.362L559.602 360.362L309.244 360.362z" /></clipPath></defs><g transform="matrix(1.333333 0 0 1.333333 0 0)"><g clip-path="url(#1)"><path id="1" transform="matrix(1 0 0 -1 0 792)" d="M54 39.5055L558 39.5055" stroke="#221E1F" stroke-width="0.5" fill="none" /><path id="30" transform="matrix(1 0 0 -1 0 792)" d="M42 52L565.499 52L565.499 753L42 753z" stroke="none" fill="#FFFFFF" fill-rule="nonzero" /><g clip-path="url(#2)"></g><g transform="matrix(0.5795135 0 0 0.5796865 325.5265 53.42236)"><g transform="matrix(1 0 0 1 0 0)"><image x="0" y="0" xlink:href="img_27.png" width="400" height="350" /></g></g><g clip-path="url(#3)"><path id="1887" transform="matrix(1 0 0 -1 0 792)" d="M557.3307 536.034L325.2057 536.034L325.2057 536.034L325.2057 738.805L325.2057 738.805L557.3307 738.805z" stroke="#1F1C1D" stroke-width="0.96" fill="none" /></g><path id="1888" transform="matrix(1 0 0 -1 0 792)" d="M316.1403 693.2544L316.1403 681.9704L325.0523 687.6534z" stroke="none" fill="#4C56A6" fill-rule="nonzero" /><path id="1890" transform="matrix(1 0 0 -1 0 792)" d="M316.3601 566.7741L316.3601 555.4901L325.2721 561.1731z" stroke="none" fill="#65BD45" fill-rule="nonzero" /><path id="1891" transform="matrix(1 0 0 -1 0 792)" d="M319.1522 560.1015C 319.192 560.1698 319.2473 560.2416 319.318 560.317C 319.3886 560.3846 319.5475 560.5426 319.8057 560.7676C 320.0561 560.9851 320.2326 561.16 320.335 561.2808C 320.4771 561.4621 320.5902 561.6364 320.6628 561.8039C 320.7277 561.9638 320.768 562.1473 320.7719 562.3316C 320.7787 562.6541 320.6636 562.935 320.4379 563.1625C 320.2121 563.3823 319.8958 563.5023 319.4889 563.5109C 319.1126 563.5187 318.8054 563.4273 318.5558 563.2482C 318.2984 563.0615 318.1477 562.7479 318.0927 562.3188L318.0927 562.3188L318.8799 562.2216C 318.9001 562.4517 318.9554 562.6157 319.0573 562.7134C 319.1514 562.8035 319.2908 562.8582 319.4521 562.8549C 319.6133 562.8514 319.7504 562.7967 319.8406 562.7026C 319.9308 562.6086 319.9796 562.4655 319.9761 562.2965C 319.9727 562.1353 319.9156 561.9752 319.8047 561.8162C 319.7177 561.6951 319.494 561.4732 319.1339 561.1505C 318.6798 560.7452 318.3773 560.4213 318.2262 560.1786C 318.0673 559.9285 317.9678 559.6713 317.939 559.3953L317.939 559.3953L320.7089 559.3371L320.7089 559.3371L320.7243 560.0685z" stroke="none" fill="#FFFFFF" fill-rule="evenodd" /><path id="1892" transform="matrix(1 0 0 -1 0 792)" d="M315.9346 670.5186L315.9346 659.2346L324.8466 664.9176z" stroke="none" fill="#EE1E23" fill-rule="nonzero" /><path id="1893" transform="matrix(1 0 0 -1 0 792)" d="M318.0196 663.378C 318.2607 663.1578 318.5637 663.0439 318.9399 663.036C 319.3315 663.0278 319.6586 663.1476 319.9327 663.3954C 320.1991 663.6432 320.3418 663.9456 320.3495 664.3141C 320.3548 664.5676 320.2844 664.7783 320.1499 664.9578C 320.0154 665.1374 319.8221 665.2585 319.5927 665.3095C 319.9888 665.5162 320.1965 665.8038 320.2042 666.1724C 320.2096 666.4257 320.1106 666.6525 319.9307 666.8636C 319.6978 667.1144 319.3896 667.2495 319.0057 667.2576C 318.7753 667.2625 318.5729 667.2245 318.3868 667.1439C 318.2006 667.0556 318.0561 666.9396 317.9532 666.7958C 317.8424 666.6445 317.7615 666.4465 317.7102 666.2017L317.7102 666.2017L318.4332 666.0598C 318.4599 666.2359 318.5204 666.3729 318.6147 666.4708C 318.7087 666.561 318.8249 666.6046 318.9631 666.6017C 319.1013 666.5988 319.204 666.5544 319.2944 666.468C 319.3694 666.382 319.4113 666.2755 319.4084 666.1372C 319.4049 665.9683 319.3425 665.8333 319.2331 665.7434C 319.1158 665.646 318.9478 665.6035 318.7407 665.6155L318.7407 665.6155L318.6409 664.9781C 318.7799 665.0135 318.8974 665.0303 319.0049 665.028C 319.1508 665.025 319.282 664.9646 319.3871 664.8472C 319.492 664.722 319.5424 664.5654 319.5383 664.3658C 319.5339 664.1584 319.4708 663.9889 319.3607 663.8683C 319.243 663.7479 319.1092 663.6892 318.948 663.6926C 318.7944 663.6959 318.663 663.7466 318.5654 663.8562C 318.46 663.9583 318.3979 664.1094 318.3791 664.3095L318.3791 664.3095L317.6112 664.2335C 317.6422 663.8795 317.7782 663.5905 318.0196 663.378z" stroke="none" fill="#FFFFFF" fill-rule="evenodd" /><path id="1898" transform="matrix(1 0 0 -1 0 792)" d="M467.3665 709.4796L414.7455 709.0606L414.6445 721.5146L467.2685 721.9336z" stroke="none" fill="#FFFFFF" fill-rule="nonzero" /><path id="1912" transform="matrix(1 0 0 -1 0 792)" d="M460.561 652.7741L401.611 652.3051L401.509 664.7591L460.463 665.2281z" stroke="none" fill="#FFFFFF" fill-rule="nonzero" /><path id="1928" transform="matrix(1 0 0 -1 0 792)" d="M458.9617 594.8541L400.0107 594.3851L399.9097 606.8391L458.8627 607.3081z" stroke="none" fill="#FFFFFF" fill-rule="nonzero" /><path id="1942" transform="matrix(1 0 0 -1 0 792)" d="M413.45 710.0323L402.095 700.6113" stroke="#1F1C1D" stroke-width="0.96" fill="none" /><path id="1943" transform="matrix(1 0 0 -1 0 792)" d="M401.8302 703.6123L396.2252 695.7003L405.0342 699.7493z" stroke="none" fill="#1F1C1D" fill-rule="nonzero" /><path id="1944" transform="matrix(1 0 0 -1 0 792)" d="M408.7729 607.5665L405.2119 616.6655" stroke="#1F1C1D" stroke-width="0.96" fill="none" /><path id="1945" transform="matrix(1 0 0 -1 0 792)" d="M408.145 615.9741L402.395 623.7831L403.471 614.1451z" stroke="none" fill="#1F1C1D" fill-rule="nonzero" /><path id="1946" transform="matrix(1 0 0 -1 0 792)" d="M398.8839 658.9925L390.1229 665.8335" stroke="#1F1C1D" stroke-width="0.96" fill="none" /><path id="1947" transform="matrix(1 0 0 -1 0 792)" d="M392.9972 666.7334L384.0702 670.5204L389.9092 662.7774z" stroke="none" fill="#1F1C1D" fill-rule="nonzero" /><path id="1948" transform="matrix(1 0 0 -1 0 792)" d="M510.0423 609.1495L483.1423 631.3025" stroke="#1F1C1D" stroke-width="0.96" fill="none" /><path id="1949" transform="matrix(1 0 0 -1 0 792)" d="M486.0394 632.127L477.2144 636.145L482.8494 628.252z" stroke="none" fill="#1F1C1D" fill-rule="nonzero" /><path id="1950" transform="matrix(1 0 0 -1 0 792)" d="M555.534 599.26L511.229 599.26L511.229 607.963L555.534 607.963z" stroke="none" fill="#FFFFFF" fill-rule="nonzero" /><path id="1961" transform="matrix(1 0 0 -1 0 792)" d="M339.818 265.169L554.597 265.209M339.818 254.017L554.597 254.058M339.813 260.709L554.592 260.75M339.819 235.431L554.598 235.472M339.818 246.583L554.597 246.624" stroke="#949699" stroke-width="0.48" fill="none" /><path id="1962" transform="matrix(1 0 0 -1 0 792)" d="M339.8196 279.7177L554.5966 279.7177" stroke="#221E1F" stroke-width="0.96" fill="none" /><path id="1963" transform="matrix(1 0 0 -1 0 792)" d="M339.5794 309.8151L554.5974 309.8151M339.3394 298.6641L554.5974 298.6641M339.8204 269.6701L554.5974 269.6701M339.8194 273.3871L554.5964 273.3871" stroke="#949699" stroke-width="0.48" fill="none" /><path id="1964" transform="matrix(1 0 0 -1 0 792)" d="M339.818 342.9086L554.597 342.9086" stroke="#221E1F" stroke-width="0.96" fill="none" /><path id="1965" transform="matrix(1 0 0 -1 0 792)" d="M423.1326 406.3946L423.1326 216.1786M430.7076 406.3936L430.7076 216.1776M442.4126 406.3986L442.4126 216.1826M436.6596 406.3986L436.6596 216.1826M415.0166 406.3946L415.0166 216.1786M404.7356 406.3916L404.7356 216.1756M391.2086 406.3916L391.2086 216.1756M372.2716 406.3946L372.2716 216.1786M339.7286 400.5136L554.5966 400.5136M339.7296 403.4886L554.5976 403.4886M339.7276 396.7966L554.5976 396.7966M339.7286 387.8766L554.5966 387.8766M339.7286 392.3366L554.5966 392.3366M339.7276 373.7506L554.5966 373.7506M339.7266 381.1856L554.5976 381.1856M339.8196 362.5986L554.5976 362.5986M339.8176 317.2496L554.5966 317.2496M339.8176 323.9396L554.5966 323.9396M339.8176 328.4006L554.5966 328.4006M339.8186 332.8616L554.5976 332.8616M339.8186 336.5786L554.5976 336.5786" stroke="#949699" stroke-width="0.48" fill="none" /><path id="1966" transform="matrix(1 0 0 -1 0 792)" d="M447.4811 406.3974L447.4811 216.1814" stroke="#221E1F" stroke-width="0.96" fill="none" /><path id="1967" transform="matrix(1 0 0 -1 0 792)" d="M550.0883 406.3947L550.0883 216.1787M544.3353 406.3947L544.3353 216.1787M538.3833 406.3927L538.3833 216.1767M530.7763 406.3947L530.7763 216.1787M522.6913 406.3937L522.6913 216.1777M512.4113 406.3947L512.4113 216.1787M498.9183 406.3707L498.9183 216.1547M479.9463 406.3947L479.9463 216.1787" stroke="#949699" stroke-width="0.48" fill="none" /><path id="2009" transform="matrix(1 0 0 -1 0 792)" d="M318.8031 243.7883L312.6169 243.7885L312.6169 243.7885L312.617 245.0067L312.617 245.0067L316.7469 247.538L316.7469 247.538L312.6171 247.5382L312.6171 247.5382L312.6171 248.6959L312.6171 248.6959L318.8033 248.6957L318.8033 248.6957L318.8033 247.4429L318.8033 247.4429L314.7683 244.9461L314.7683 244.9461L318.8032 244.946z" stroke="none" fill="#221E1F" fill-rule="evenodd" /><path id="2010" transform="matrix(1 0 0 -1 0 792)" d="M316.4965 249.7326C 316.1163 249.7326 315.7362 249.819 315.356 250.0264C 314.9874 250.2107 314.7138 250.4901 314.518 250.8472C 314.3221 251.1928 314.2242 251.5902 314.2243 252.0395C 314.2243 252.7192 314.4432 253.2693 314.881 253.707C 315.3302 254.1332 315.8918 254.3549 316.5485 254.3549C 317.2397 254.3549 317.7955 254.136 318.2332 253.6982C 318.6825 253.2605 318.9071 252.7046 318.9071 252.048C 318.9071 251.6333 318.8149 251.2416 318.6306 250.873C 318.4462 250.4928 318.1669 250.2106 317.8098 250.0263C 317.4641 249.8189 317.0149 249.7326 316.4965 249.7326zM316.5656 250.9508C 317.0149 250.9508 317.3548 251.0545 317.5851 251.2618C 317.8271 251.4691 317.9394 251.737 317.9394 252.048C 317.9394 252.3591 317.8271 252.6183 317.5852 252.8256C 317.3548 253.033 317.0063 253.1367 316.5571 253.1367C 316.1193 253.1367 315.7795 253.0331 315.5376 252.8257C 315.3072 252.6183 315.192 252.3592 315.1919 252.0481C 315.1919 251.7371 315.3071 251.4692 315.5375 251.2619C 315.7794 251.0545 316.1164 250.9508 316.5656 250.9508z" stroke="none" fill="#221E1F" fill-rule="evenodd" /><path id="2011" transform="matrix(1 0 0 -1 0 792)" d="M318.8036 256.4198L318.8035 255.2361L318.8035 255.2361L314.3281 255.2363L314.3281 255.2363L314.3281 256.3335L314.3281 256.3335L314.9588 256.3335C 314.6593 256.5179 314.4663 256.6935 314.3627 256.8433C 314.2705 256.993 314.2244 257.1543 314.2245 257.3617C 314.2245 257.6266 314.2993 257.8858 314.4491 258.1393L314.4491 258.1393L315.4772 257.7677C 315.3505 257.5604 315.2872 257.3876 315.2871 257.2148C 315.2871 257.042 315.3332 256.9066 315.4254 256.7914C 315.5175 256.6762 315.6759 256.5812 315.9178 256.5236C 316.1598 256.4544 316.6609 256.4199 317.4212 256.4198z" stroke="none" fill="#221E1F" fill-rule="evenodd" /><path id="2012" transform="matrix(1 0 0 -1 0 792)" d="M314.3282 258.5626L314.3282 259.6512L314.3282 259.6512L314.933 259.6512C 314.4607 260.0314 314.2245 260.498 314.2246 261.0509C 314.2246 261.3274 314.2822 261.5866 314.3974 261.7939C 314.5241 262.0013 314.6912 262.1741 314.9331 262.3123C 314.6912 262.5082 314.5241 262.7213 314.3974 262.9517C 314.2823 263.1706 314.2247 263.4125 314.2247 263.6775C 314.2247 264 314.2967 264.2851 314.4234 264.5155C 314.5616 264.7344 314.7575 264.9101 315.011 265.0253C 315.2068 265.1059 315.5207 265.1462 315.9354 265.1462L315.9354 265.1462L318.8039 265.1461L318.8039 265.1461L318.8038 263.9624L318.8038 263.9624L316.2464 263.9625C 315.7971 263.9625 315.5207 263.9107 315.3824 263.8416C 315.2096 263.7264 315.1319 263.5622 315.1318 263.3318C 315.1318 263.159 315.175 263.0035 315.2787 262.8653C 315.3824 262.7155 315.5321 262.6118 315.728 262.5542C 315.9238 262.4851 316.2377 262.4505 316.6524 262.4505L316.6524 262.4505L318.8038 262.4504L318.8038 262.4504L318.8037 261.2668L318.8037 261.2668L316.35 261.2668C 315.9122 261.2669 315.6415 261.241 315.5033 261.2064C 315.3881 261.1603 315.2959 261.0883 315.2268 261.0077C 315.1577 260.9155 315.1317 260.7946 315.1317 260.6448C 315.1317 260.4605 315.1749 260.2906 315.2786 260.1523C 315.3823 260.0026 315.5292 259.8989 315.702 259.8413C 315.8978 259.7722 316.2002 259.7462 316.6264 259.7462L316.6264 259.7462L318.8037 259.7462L318.8037 259.7462L318.8036 258.5625z" stroke="none" fill="#221E1F" fill-rule="evenodd" /><path id="2013" transform="matrix(1 0 0 -1 0 792)" d="M315.6936 267.2111L315.4948 266.1398C 315.0686 266.255 314.7432 266.4624 314.5358 266.7619C 314.3285 267.0499 314.2248 267.4876 314.2248 268.0752C 314.2248 268.6051 314.2882 268.9939 314.4149 269.2588C 314.5417 269.5123 314.6943 269.6995 314.8901 269.8031C 315.086 269.9068 315.4345 269.9673 315.9529 269.9673L315.9529 269.9673L317.3352 269.9499C 317.7269 269.9499 318.0264 269.9643 318.1992 270.0104C 318.3951 270.0449 318.5967 270.114 318.804 270.2177L318.804 270.2177L318.804 269.0513C 318.7349 269.0168 318.6082 268.9736 318.4584 268.939C 318.3893 268.9044 318.3461 268.8958 318.3115 268.8958C 318.5189 268.6884 318.6571 268.4667 318.7608 268.2478C 318.8529 268.0059 318.9076 267.7582 318.9076 267.5048C 318.9076 267.044 318.7809 266.6696 318.5274 266.4162C 318.2855 266.1397 317.9687 266.0187 317.577 266.0187C 317.3351 266.0188 317.1105 266.0735 316.9031 266.2002C 316.7073 266.3154 316.5604 266.4796 316.4452 266.71C 316.3416 266.9174 316.2494 267.237 316.1688 267.6517C 316.0651 268.2047 315.9759 268.582 315.8837 268.8009L315.8837 268.8009L315.7628 268.8009C 315.5439 268.8009 315.3826 268.7318 315.2789 268.6281C 315.1752 268.5129 315.132 268.3084 315.132 267.9974C 315.132 267.7785 315.1838 267.6086 315.253 267.5049C 315.3451 267.3782 315.4862 267.2802 315.6936 267.2111zM316.6526 268.8008C 316.7102 268.6396 316.765 268.3976 316.8341 268.0751C 316.9032 267.741 316.9723 267.5394 317.0414 267.4357C 317.1566 267.2744 317.2948 267.2024 317.4561 267.2024C 317.6289 267.2024 317.7729 267.2571 317.8881 267.3839C 318.0148 267.5106 318.0695 267.6632 318.0696 267.859C 318.0696 268.0664 318.0005 268.2651 317.8622 268.4725C 317.7585 268.6107 317.6261 268.7029 317.4648 268.749C 317.3727 268.7835 317.1739 268.8008 316.8859 268.8008L316.8859 268.8008L316.6526 268.8008z" stroke="none" fill="#221E1F" fill-rule="evenodd" /><path id="2014" transform="matrix(1 0 0 -1 0 792)" d="M318.8041 271.1335L312.6179 271.1338L312.6179 271.1338L312.618 272.3174L312.618 272.3174L318.8041 272.3172z" stroke="none" fill="#221E1F" fill-rule="evenodd" /><path id="2015" transform="matrix(1 0 0 -1 0 792)" d="M313.7152 273.5356L312.618 273.5356L312.618 273.5356L312.618 274.7193L312.618 274.7193L313.7153 274.7193zM318.8042 273.5354L314.3287 273.5356L314.3287 273.5356L314.3287 274.7192L314.3287 274.7192L318.8042 274.7191L318.8042 274.7191L318.8042 273.5354z" stroke="none" fill="#221E1F" fill-rule="evenodd" /><path id="2016" transform="matrix(1 0 0 -1 0 792)" d="M318.8042 275.4621L317.8798 275.4622L317.8798 275.4622L315.9531 277.1384C 315.6421 277.4149 315.4174 277.6136 315.2792 277.7518C 315.2907 277.6136 315.2965 277.4264 315.2965 277.2075L315.2965 277.2075L315.3051 275.6264L315.3051 275.6264L314.3288 275.6264L314.3288 275.6264L314.3289 279.3243L314.3289 279.3243L315.167 279.3243L315.167 279.3243L317.1368 277.6135L317.1368 277.6135L317.7934 277.0087C 317.7704 277.3313 317.7589 277.5415 317.7589 277.6221L317.7589 277.6221L317.7589 279.4624L317.7589 279.4624L318.8044 279.4624z" stroke="none" fill="#221E1F" fill-rule="evenodd" /><path id="2017" transform="matrix(1 0 0 -1 0 792)" d="M317.3789 282.8493L317.5777 284.033C 318.0154 283.8716 318.3437 283.6384 318.5626 283.3158C 318.8045 282.9817 318.9081 282.5641 318.9081 282.0803C 318.9081 281.2969 318.6575 280.7209 318.1391 280.3523C 317.7359 280.0528 317.2233 279.9117 316.6012 279.9117C 315.8639 279.9118 315.2707 280.099 314.856 280.4907C 314.4413 280.8708 314.2253 281.3691 314.2253 281.9681C 314.2253 282.6248 314.4442 283.1604 314.882 283.5406C 315.3313 283.9207 316.0052 284.105 316.9037 284.0934L316.9037 284.0934L316.9037 281.1213C 317.2607 281.1213 317.5401 281.2192 317.7245 281.415C 317.9318 281.5878 318.0182 281.8211 318.0182 282.0976C 318.0182 282.2704 317.975 282.4259 317.8714 282.5641C 317.7677 282.6909 317.6093 282.7802 317.3789 282.8493zM316.1779 282.9185C 315.8324 282.907 315.5732 282.8234 315.4004 282.6506C 315.2275 282.4778 315.1325 282.2791 315.1325 282.0372C 315.1325 281.7722 315.2333 281.5591 315.4176 281.3979C 315.6019 281.225 315.8669 281.1357 316.1779 281.1473L316.1779 281.1473L316.1779 282.9185z" stroke="none" fill="#221E1F" fill-rule="evenodd" /><path id="2018" transform="matrix(1 0 0 -1 0 792)" d="M318.8047 289.165L318.8047 288.0677L318.8047 288.0677L318.148 288.0677C 318.413 287.8834 318.6031 287.6617 318.7182 287.4197C 318.8334 287.1663 318.9083 286.91 318.9083 286.6681C 318.9083 286.1497 318.7009 285.7033 318.2862 285.3462C 317.8714 284.966 317.2983 284.7933 316.5495 284.7933C 315.7892 284.7933 315.2161 284.9719 314.8129 285.329C 314.4328 285.6746 314.2254 286.1326 314.2255 286.6855C 314.2255 287.1808 314.4329 287.6129 314.8476 287.9815L314.8476 287.9815L312.6185 287.9815L312.6185 287.9815L312.6185 289.1652zM316.4718 286.0029C 316.9557 286.0029 317.3012 286.0633 317.5086 286.2016C 317.8196 286.3859 317.9666 286.6595 317.9666 287.0051C 317.9666 287.27 317.8629 287.4975 317.621 287.7049C 317.3906 287.8892 317.045 287.9901 316.5842 287.9901C 316.0658 287.9901 315.7 287.8893 315.4696 287.705C 315.2508 287.5207 315.1327 287.2845 315.1327 286.9965C 315.1327 286.7085 315.2507 286.4724 315.4696 286.288C 315.6885 286.0922 316.0226 286.0029 316.4718 286.0029z" stroke="none" fill="#221E1F" fill-rule="evenodd" /><path id="2020" transform="matrix(1 0 0 -1 0 792)" d="M318.8048 292.7505L312.6187 292.7508L312.6187 292.7508L312.6187 294.7552C 312.6187 295.504 312.6562 296.0023 312.7138 296.2327C 312.8175 296.5898 313.0076 296.8893 313.3186 297.1312C 313.6297 297.3616 314.0358 297.4854 314.5196 297.4854C 314.8997 297.4854 315.2252 297.4162 315.4786 297.278C 315.7436 297.1397 315.9538 296.9583 316.092 296.7509C 316.2418 296.5436 316.3397 296.3189 316.3858 296.1116C 316.4434 295.8005 316.4721 295.3685 316.4721 294.8156L316.4721 294.8156L316.4721 293.9948L316.4721 293.9948L318.8049 293.9947zM313.6641 293.9949L315.418 293.9948L315.418 293.9948L315.4181 294.6774C 315.4181 295.1612 315.3922 295.4982 315.3231 295.671C 315.2654 295.8322 315.1589 295.9561 315.0207 296.0598C 314.8824 296.1519 314.7327 296.198 314.5368 296.198C 314.318 296.198 314.1336 296.126 313.9839 295.9993C 313.8456 295.8611 313.7419 295.6941 313.7074 295.4982C 313.6843 295.3485 313.6642 295.049 313.6642 294.5997L313.6642 294.5997L313.6641 293.9949z" stroke="none" fill="#221E1F" fill-rule="evenodd" /><path id="2021" transform="matrix(1 0 0 -1 0 792)" d="M316.4982 298.2283C 316.118 298.2284 315.7379 298.3148 315.3577 298.5221C 314.9891 298.7065 314.7155 298.9858 314.5197 299.343C 314.3238 299.6886 314.2259 300.086 314.226 300.5353C 314.226 301.2149 314.4449 301.765 314.8826 302.2028C 315.3319 302.629 315.8935 302.8507 316.5502 302.8507C 317.2414 302.8506 317.7972 302.6318 318.2349 302.194C 318.6842 301.7562 318.9088 301.2004 318.9088 300.5438C 318.9088 300.129 318.8166 299.7374 318.6323 299.3687C 318.4479 298.9886 318.1685 298.7064 317.8114 298.522C 317.4658 298.3147 317.0165 298.2283 316.4982 298.2283zM316.5673 299.4466C 317.0166 299.4465 317.3564 299.5502 317.5869 299.7576C 317.8288 299.9649 317.9411 300.2328 317.9411 300.5438C 317.9411 300.8548 317.8288 301.114 317.5869 301.3214C 317.3565 301.5287 317.008 301.6324 316.5587 301.6324C 316.121 301.6325 315.7812 301.5288 315.5392 301.3215C 315.3088 301.1141 315.1936 300.8549 315.1936 300.5439C 315.1936 300.2328 315.3088 299.965 315.5392 299.7576C 315.7811 299.5503 316.118 299.4466 316.5673 299.4466z" stroke="none" fill="#221E1F" fill-rule="evenodd" /><path id="2022" transform="matrix(1 0 0 -1 0 792)" d="M318.8052 304.6132L314.3297 303.1964L314.3297 303.1964L314.3298 304.3541L314.3298 304.3541L317.2587 305.1921L317.2587 305.1921L314.3298 305.9611L314.3298 305.9611L314.3299 307.1016L314.3299 307.1016L317.2588 307.8531L317.2588 307.8531L314.3299 308.7086L314.3299 308.7086L314.33 309.875L314.33 309.875L318.8054 308.4406L318.8054 308.4406L318.8053 307.3002L318.8053 307.3002L315.9196 306.5313L315.9196 306.5313L318.8053 305.7709z" stroke="none" fill="#221E1F" fill-rule="evenodd" /><path id="2023" transform="matrix(1 0 0 -1 0 792)" d="M317.3799 313.0976L317.5787 314.2813C 318.0164 314.1199 318.3448 313.8867 318.5636 313.5641C 318.8055 313.23 318.9092 312.8124 318.9092 312.3286C 318.9091 311.5452 318.6586 310.9692 318.1402 310.6006C 317.737 310.3011 317.2243 310.16 316.6023 310.16C 315.865 310.1601 315.2717 310.3473 314.857 310.739C 314.4423 311.1191 314.2263 311.6174 314.2263 312.2164C 314.2264 312.873 314.4453 313.4087 314.883 313.7888C 315.3323 314.169 316.0063 314.3533 316.9048 314.3417L316.9048 314.3417L316.9047 311.3696C 317.2618 311.3696 317.5412 311.4675 317.7255 311.6633C 317.9329 311.8361 318.0193 312.0694 318.0193 312.3459C 318.0193 312.5187 317.9761 312.6742 317.8724 312.8124C 317.7687 312.9391 317.6104 313.0284 317.3799 313.0976zM316.179 313.1667C 315.8334 313.1552 315.5742 313.0717 315.4014 312.8989C 315.2286 312.7261 315.1335 312.5274 315.1335 312.2855C 315.1335 312.0206 315.2343 311.8074 315.4186 311.6461C 315.6029 311.4733 315.8679 311.384 316.179 311.3956L316.179 311.3956L316.179 313.1667z" stroke="none" fill="#221E1F" fill-rule="evenodd" /><path id="2024" transform="matrix(1 0 0 -1 0 792)" d="M318.8056 316.4412L318.8056 315.2575L318.8056 315.2575L314.3301 315.2577L314.3301 315.2577L314.3302 316.3549L314.3302 316.3549L314.9609 316.3549C 314.6614 316.5392 314.4684 316.7149 314.3647 316.8647C 314.2726 317.0144 314.2265 317.1757 314.2265 317.3831C 314.2265 317.648 314.3014 317.9072 314.4512 318.1606L314.4512 318.1606L315.4793 317.7891C 315.3526 317.5818 315.2892 317.4089 315.2892 317.2361C 315.2892 317.0634 315.3353 316.928 315.4275 316.8128C 315.5196 316.6976 315.678 316.6025 315.9199 316.545C 316.1618 316.4758 316.663 316.4413 317.4232 316.4412z" stroke="none" fill="#221E1F" fill-rule="evenodd" /><path id="2026" transform="matrix(1 0 0 -1 0 792)" d="M312.6196 321.0724L312.6197 323.3533C 312.6197 323.8717 312.6716 324.2605 312.7407 324.537C 312.8444 324.8941 313.0345 325.208 313.311 325.4614C 313.5875 325.7148 313.9215 325.9193 314.3132 326.0575C 314.7164 326.1842 315.1974 326.2562 315.7734 326.2562C 316.2918 326.2562 316.7295 326.1928 317.0866 326.0661C 317.5359 325.9048 317.9074 325.6859 318.1839 325.4094C 318.3912 325.1905 318.5611 324.8968 318.6763 324.5281C 318.7685 324.2516 318.8059 323.883 318.8059 323.4222L318.8059 323.4222L318.8058 321.0721zM313.6651 322.3251L317.7604 322.325L317.7604 322.325L317.7605 323.2581C 317.7605 323.6037 317.7461 323.8485 317.7 324.0098C 317.6654 324.2171 317.5762 324.3727 317.4495 324.5109C 317.3343 324.6491 317.1298 324.7471 316.8533 324.8392C 316.5768 324.9199 316.1967 324.9688 315.7129 324.9688C 315.2405 324.9689 314.8806 324.9199 314.6156 324.8393C 314.3737 324.7471 314.1577 324.6348 314.0194 324.4851C 313.8812 324.3353 313.7833 324.1366 313.7256 323.9062C 313.6911 323.7334 313.6652 323.3936 313.6651 322.8867L313.6651 322.8867L313.6651 322.3251z" stroke="none" fill="#221E1F" fill-rule="evenodd" /><path id="2027" transform="matrix(1 0 0 -1 0 792)" d="M313.7171 327.3103L312.6198 327.3104L312.6198 327.3104L312.6199 328.494L312.6199 328.494L313.7172 328.494zM318.806 327.3102L314.3306 327.3103L314.3306 327.3103L314.3306 328.494L314.3306 328.494L318.8061 328.4938L318.8061 328.4938L318.806 327.3102z" stroke="none" fill="#221E1F" fill-rule="evenodd" /><path id="2028" transform="matrix(1 0 0 -1 0 792)" d="M317.5274 329.2974L317.346 330.481C 317.5879 330.5271 317.7578 330.6308 317.873 330.7921C 317.9998 330.9418 318.0545 331.1636 318.0545 331.4401C 318.0545 331.7511 317.9969 331.97 317.8817 332.1313C 317.8126 332.2349 317.7003 332.2868 317.562 332.2868C 317.4814 332.2868 317.4065 332.258 317.3374 332.2004C 317.2913 332.1428 317.2395 332.0103 317.1819 331.803C 316.9745 330.8468 316.7844 330.242 316.6116 329.9886C 316.3697 329.6315 316.0385 329.4529 315.6007 329.453C 315.2206 329.453 314.8893 329.6085 314.6244 329.9196C 314.3595 330.2191 314.227 330.6885 314.227 331.3452C 314.2271 331.9557 314.325 332.3992 314.5208 332.7102C 314.7282 333.0098 315.0306 333.2085 315.4107 333.3236L315.4107 333.3236L315.6181 332.2091C 315.4453 332.1515 315.3157 332.0709 315.212 331.9326C 315.1313 331.7944 315.0737 331.6043 315.0737 331.3624C 315.0737 331.0514 315.1198 330.8239 315.2119 330.6971C 315.2811 330.5934 315.3531 330.5589 315.4452 330.5589C 315.5374 330.5589 315.6036 330.5877 315.6612 330.6798C 315.7419 330.7835 315.86 331.1521 315.9982 331.7857C 316.1365 332.4078 316.3179 332.8542 316.5253 333.1076C 316.7327 333.3495 317.0264 333.4791 317.4066 333.4791C 317.8213 333.4791 318.1726 333.3063 318.4606 332.9607C 318.7716 332.6151 318.9099 332.1082 318.9099 331.44C 318.9098 330.818 318.7802 330.3456 318.5383 329.9885C 318.2964 329.6314 317.9536 329.4011 317.5274 329.2974z" stroke="none" fill="#221E1F" fill-rule="evenodd" /><path id="2029" transform="matrix(1 0 0 -1 0 792)" d="M317.5276 334.1012L317.3462 335.2849C 317.5881 335.3309 317.758 335.4346 317.8732 335.5959C 317.9999 335.7456 318.0547 335.9674 318.0547 336.2438C 318.0547 336.5549 317.9971 336.7738 317.8819 336.9351C 317.8128 337.0387 317.7005 337.0906 317.5622 337.0906C 317.4816 337.0906 317.4067 337.0618 317.3376 337.0042C 317.2915 336.9466 317.2397 336.8141 317.182 336.6068C 316.9746 335.6506 316.7845 335.0458 316.6118 334.7924C 316.3698 334.4353 316.0386 334.2567 315.6009 334.2568C 315.2207 334.2568 314.8895 334.4123 314.6246 334.7233C 314.3596 335.0229 314.2272 335.4923 314.2272 336.1489C 314.2272 336.7595 314.3251 337.203 314.521 337.514C 314.7284 337.8135 315.0308 338.0123 315.4109 338.1274L315.4109 338.1274L315.6182 337.0129C 315.4454 336.9553 315.3158 336.8747 315.2122 336.7364C 315.1315 336.5982 315.0739 336.4081 315.0739 336.1662C 315.0739 335.8552 315.12 335.6276 315.2121 335.5009C 315.2812 335.3972 315.3532 335.3627 315.4454 335.3627C 315.5375 335.3627 315.6038 335.3915 315.6614 335.4836C 315.742 335.5873 315.8601 335.9559 315.9984 336.5895C 316.1366 337.2116 316.3181 337.658 316.5255 337.9114C 316.7328 338.1533 317.0266 338.2829 317.4067 338.2829C 317.8214 338.2829 318.1728 338.11 318.4608 337.7645C 318.7718 337.4189 318.91 336.912 318.91 336.2438C 318.91 335.6218 318.7804 335.1494 318.5385 334.7923C 318.2965 334.4352 317.9538 334.2048 317.5276 334.1012z" stroke="none" fill="#221E1F" fill-rule="evenodd" /><path id="2030" transform="matrix(1 0 0 -1 0 792)" d="M313.7175 339.3198L312.6203 339.3198L312.6203 339.3198L312.6203 340.5035L312.6203 340.5035L313.7176 340.5035zM318.8064 339.3196L314.331 339.3198L314.331 339.3198L314.331 340.5034L314.331 340.5034L318.8065 340.5033L318.8065 340.5033L318.8064 339.3196z" stroke="none" fill="#221E1F" fill-rule="evenodd" /><path id="2031" transform="matrix(1 0 0 -1 0 792)" d="M314.3311 341.6871L314.3311 342.793L314.3311 342.793L314.9877 342.793C 314.7689 342.9312 314.573 343.1299 314.4348 343.3719C 314.2966 343.6138 314.2274 343.8817 314.2274 344.1927C 314.2275 344.7111 314.4291 345.1459 314.8323 345.5146C 315.247 345.8717 315.8173 346.0588 316.543 346.0588C 317.2918 346.0588 317.8736 345.8629 318.2883 345.5058C 318.703 345.1371 318.9103 344.6936 318.9103 344.1752C 318.9103 343.9333 318.8556 343.7087 318.7634 343.5013C 318.6597 343.294 318.4955 343.0895 318.2536 342.8706L318.2536 342.8706L320.5086 342.8705L320.5086 342.8705L320.5086 341.6869zM316.4911 342.8621C 316.998 342.8621 317.3637 342.9484 317.6056 343.1558C 317.8476 343.3516 317.9685 343.6022 317.9685 343.8902C 317.9685 344.1666 317.862 344.3884 317.6316 344.5727C 317.4243 344.757 317.0585 344.8492 316.5516 344.8492C 316.0793 344.8492 315.7366 344.7485 315.5062 344.5641C 315.2758 344.3799 315.1606 344.1408 315.1606 343.8643C 315.1606 343.5764 315.2786 343.3315 315.4975 343.1472C 315.7279 342.9514 316.0533 342.8621 316.4911 342.8621z" stroke="none" fill="#221E1F" fill-rule="evenodd" /><path id="2032" transform="matrix(1 0 0 -1 0 792)" d="M315.6964 347.8819L315.4976 346.8105C 315.0714 346.9258 314.746 347.1331 314.5386 347.4326C 314.3313 347.7206 314.2276 348.1584 314.2276 348.7459C 314.2276 349.2758 314.291 349.6646 314.4177 349.9296C 314.5445 350.183 314.6971 350.3702 314.8929 350.4739C 315.0888 350.5775 315.4373 350.638 315.9557 350.638L315.9557 350.638L317.338 350.6207C 317.7297 350.6207 318.0292 350.635 318.202 350.6811C 318.3979 350.7157 318.5995 350.7848 318.8069 350.8885L318.8069 350.8885L318.8068 349.722C 318.7377 349.6875 318.611 349.6443 318.4612 349.6097C 318.3921 349.5752 318.3489 349.5666 318.3143 349.5666C 318.5217 349.3592 318.6599 349.1375 318.7636 348.9185C 318.8557 348.6766 318.9104 348.429 318.9104 348.1755C 318.9104 347.7147 318.7837 347.3403 318.5302 347.0869C 318.2883 346.8104 317.9715 346.6895 317.5798 346.6895C 317.3379 346.6895 317.1133 346.7442 316.9059 346.871C 316.7101 346.9862 316.5632 347.1503 316.448 347.3807C 316.3444 347.5881 316.2522 347.9078 316.1716 348.3225C 316.0679 348.8754 315.9787 349.2527 315.8865 349.4716L315.8865 349.4716L315.7655 349.4716C 315.5467 349.4716 315.3854 349.4025 315.2817 349.2988C 315.178 349.1837 315.1348 348.9792 315.1348 348.6681C 315.1348 348.4492 315.1866 348.2793 315.2557 348.1757C 315.3479 348.0489 315.489 347.951 315.6964 347.8819zM316.6555 349.4716C 316.713 349.3103 316.7678 349.0684 316.8369 348.7458C 316.906 348.4117 316.9751 348.2101 317.0442 348.1064C 317.1594 347.9452 317.2976 347.8732 317.4589 347.8732C 317.6317 347.8732 317.7757 347.9279 317.8909 348.0546C 318.0176 348.1813 318.0724 348.334 318.0724 348.5298C 318.0724 348.7371 318.0033 348.9359 317.865 349.1432C 317.7614 349.2815 317.6289 349.3736 317.4676 349.4197C 317.3755 349.4543 317.1767 349.4716 316.8887 349.4716L316.8887 349.4716L316.6555 349.4716z" stroke="none" fill="#221E1F" fill-rule="evenodd" /><path id="2033" transform="matrix(1 0 0 -1 0 792)" d="M314.3315 353.8607L315.2732 353.8607L315.2732 353.8607L315.2732 353.0486L315.2732 353.0486L317.0789 353.0485C 317.4476 353.0485 317.6607 353.0542 317.7183 353.0657C 317.7874 353.0773 317.8306 353.1089 317.8652 353.178C 317.9113 353.2241 317.9257 353.2961 317.9257 353.3768C 317.9257 353.4804 317.894 353.6446 317.8134 353.852L317.8134 353.852L318.7292 353.9556C 318.8444 353.6791 318.9106 353.3595 318.9106 353.0139C 318.9106 352.8065 318.8674 352.6049 318.7982 352.4436C 318.7291 352.2708 318.637 352.1326 318.5218 352.0635C 318.4181 351.9713 318.2597 351.9253 318.0638 351.8907C 317.9256 351.8677 317.6405 351.8561 317.2258 351.8562L317.2258 351.8562L315.2732 351.8562L315.2732 351.8562L315.2731 351.3119L315.2731 351.3119L314.3314 351.312L314.3314 351.312L314.3314 351.8563L314.3314 351.8563L313.4329 351.8563L313.4329 351.8563L312.7417 353.0486L312.7417 353.0486L314.3315 353.0486z" stroke="none" fill="#221E1F" fill-rule="evenodd" /><path id="2034" transform="matrix(1 0 0 -1 0 792)" d="M313.7181 354.6815L312.6208 354.6816L312.6208 354.6816L312.6208 355.8652L312.6208 355.8652L313.7181 355.8652zM318.807 354.6814L314.3315 354.6815L314.3315 354.6815L314.3315 355.8652L314.3315 355.8652L318.807 355.865L318.807 355.865L318.807 354.6814z" stroke="none" fill="#221E1F" fill-rule="evenodd" /><path id="2035" transform="matrix(1 0 0 -1 0 792)" d="M316.5002 356.8069C 316.12 356.8069 315.7399 356.8933 315.3597 357.1006C 314.9911 357.285 314.7175 357.5644 314.5217 357.9215C 314.3259 358.2671 314.228 358.6645 314.228 359.1138C 314.228 359.7935 314.4469 360.3435 314.8847 360.7813C 315.334 361.2075 315.8956 361.4292 316.5522 361.4292C 317.2434 361.4292 317.7992 361.2103 318.2369 360.7725C 318.6862 360.3347 318.9108 359.7789 318.9108 359.1223C 318.9108 358.7076 318.8186 358.3159 318.6343 357.9473C 318.45 357.5671 318.1706 357.2849 317.8135 357.1006C 317.4679 356.8932 317.0186 356.8068 316.5002 356.8069zM316.5694 358.0251C 317.0186 358.0251 317.3585 358.1287 317.5889 358.3361C 317.8308 358.5434 317.9431 358.8113 317.9431 359.1223C 317.9431 359.4333 317.8308 359.6925 317.5889 359.8999C 317.3586 360.1073 317.0101 360.211 316.5608 360.211C 316.123 360.211 315.7832 360.1073 315.5413 359.9C 315.3109 359.6926 315.1956 359.4334 315.1956 359.1224C 315.1956 358.8114 315.3108 358.5435 315.5412 358.3362C 315.7831 358.1288 316.1201 358.0251 316.5694 358.0251z" stroke="none" fill="#221E1F" fill-rule="evenodd" /><path id="2036" transform="matrix(1 0 0 -1 0 792)" d="M318.8074 366.4403L318.8073 365.248L318.8073 365.248L316.5178 365.248C 316.0339 365.248 315.7229 365.2135 315.5847 365.179C 315.4464 365.1214 315.3398 365.0321 315.2477 364.9284C 315.1786 364.8132 315.1354 364.675 315.1353 364.5137C 315.1353 364.3063 315.1958 364.122 315.2995 363.9608C 315.4147 363.7879 315.5645 363.6929 315.7487 363.6238C 315.9446 363.5662 316.2816 363.5374 316.7769 363.5373L316.7769 363.5373L318.8073 363.5373L318.8073 363.5373L318.8073 362.3536L318.8073 362.3536L314.3318 362.3538L314.3318 362.3538L314.3318 363.451L314.3318 363.451L314.9884 363.451C 314.4816 363.8427 314.2281 364.3294 314.2282 364.9285C 314.2282 365.1819 314.2743 365.4267 314.3665 365.6455C 314.4701 365.8529 314.5911 366.0228 314.7293 366.138C 314.8791 366.2417 315.0461 366.3252 315.2305 366.3713C 315.4148 366.4058 315.6797 366.4404 316.0253 366.4404z" stroke="none" fill="#221E1F" fill-rule="evenodd" /><path id="2037" transform="matrix(1 0 0 -1 0 792)" d="M317.6237 367.6067L317.6238 368.799L317.6238 368.799L318.4705 368.799C 318.8161 368.799 319.0753 368.7615 319.2827 368.7039C 319.4785 368.6348 319.6455 368.5397 319.8183 368.3669C 319.9681 368.2057 320.0862 367.9868 320.1898 367.7448L320.1898 367.7448L319.6973 367.5116C 319.6167 367.7535 319.5044 367.9177 319.3777 368.0214C 319.2394 368.125 319.0493 368.174 318.8074 368.1855L318.8074 368.1855L318.8074 367.6067z" stroke="none" fill="#221E1F" fill-rule="evenodd" /><path id="2039" transform="matrix(1 0 0 -1 0 792)" d="M318.0129 377.4303C 318.2318 377.7298 318.4132 378.0638 318.5399 378.4325L318.5399 378.4325L319.4212 377.9745C 319.3521 377.7787 319.2801 377.5944 319.1879 377.4216C 319.1649 377.3755 318.9892 377.1019 318.6436 376.5835C 318.8163 376.1688 318.9027 375.7282 318.9027 375.2443C 318.9027 374.2882 318.6291 373.5365 318.0646 373.0066C 317.5116 372.4652 316.7196 372.2032 315.7058 372.2032C 314.7036 372.2032 313.9117 372.4653 313.3472 373.0068C 312.7943 373.5482 312.5092 374.2769 312.5092 375.21C 312.5092 376.1201 312.7944 376.8458 313.3474 377.3872C 313.9118 377.9171 314.7038 378.1907 315.7061 378.1906C 316.2475 378.1906 316.7112 378.1129 317.1143 377.9746C 317.4254 377.8479 317.7364 377.6722 318.0129 377.4303zM317.313 376.4281C 317.1287 376.5778 316.8983 376.7017 316.6218 376.7823C 316.3684 376.863 316.0516 376.9033 315.706 376.9033C 314.9918 376.9033 314.4648 376.7478 314.1076 376.4368C 313.762 376.1143 313.5806 375.7082 313.5805 375.2013C 313.5805 374.6829 313.7619 374.2682 314.1075 373.9572C 314.4646 373.6461 315.0032 373.4819 315.7059 373.4819C 316.4316 373.4819 316.9731 373.646 317.3302 373.957C 317.6873 374.2681 317.8659 374.6741 317.8659 375.158C 317.8659 375.3308 317.8487 375.5064 317.7795 375.6677C 317.6183 375.4143 317.4944 375.1522 317.3907 374.8988L317.3907 374.8988L316.6736 375.2444C 316.8234 375.6591 317.0365 376.0479 317.313 376.4281z" stroke="none" fill="#221E1F" fill-rule="evenodd" /><path id="2040" transform="matrix(1 0 0 -1 0 792)" d="M315.421 379.046L314.1682 379.1757C 313.8226 379.2102 313.5893 379.2534 313.4511 379.288C 313.2783 379.3341 313.1516 379.409 313.071 379.5126C 313.0018 379.6048 312.9586 379.7142 312.9586 379.841C 312.9586 379.9446 312.9903 380.0138 313.0364 380.0829C 313.1055 380.1405 313.1689 380.1693 313.261 380.1693C 313.3302 380.1693 313.3993 380.1491 313.4684 380.1261C 313.5836 380.0915 313.8198 379.9878 314.1768 379.815L314.1768 379.815L315.421 379.2274z" stroke="none" fill="#221E1F" fill-rule="evenodd" /><path id="2041" transform="matrix(1 0 0 -1 0 792)" d="M339.82 276.6973L554.597 276.6973" stroke="#949699" stroke-width="0.48" fill="none" /><path id="2042" transform="matrix(1 0 0 -1 0 792)" d="M339.8189 339.913L554.5969 339.913" stroke="#949699" stroke-width="0.48" fill="none" /><path id="2043" transform="matrix(1 0 0 -1 0 792)" d="M392.661 389.66L448.835 389.66L448.835 379.645L392.661 379.645z" stroke="none" fill="#FFFFFF" fill-rule="nonzero" /><path id="2057" transform="matrix(1 0 0 -1 0 792)" d="M483.11 380.091L529.93 380.091L529.93 370.076L483.11 370.076z" stroke="none" fill="#FFFFFF" fill-rule="nonzero" /><path id="2069" transform="matrix(1 0 0 -1 0 792)" d="M481.343 337.947L521.896 337.947L521.896 327.932L481.343 327.932z" stroke="none" fill="#FFFFFF" fill-rule="nonzero" /><path id="2079" transform="matrix(1 0 0 -1 0 792)" d="M490.125 292.624L527.428 292.624L527.428 282.609L490.125 282.609z" stroke="none" fill="#FFFFFF" fill-rule="nonzero" /><path id="2086" transform="matrix(1 0 0 -1 0 792)" d="M491.907 256.975L518.532 256.975L518.532 246.96L491.907 246.96z" stroke="none" fill="#FFFFFF" fill-rule="nonzero" /><g clip-path="url(#4)"><path id="2091" transform="matrix(1 0 0 -1 0 792)" d="M341.2478 342.8285L471.9898 266.3455C 483.2188 260.7035 498.5908 256.5395 512.6888 259.3665C 518.9588 260.4695 525.2298 261.1405 531.4998 261.3795L531.4998 261.3795L554.1508 260.7215" stroke="#EE1C23" stroke-width="1.92" stroke-linecap="round" fill="none" /><path id="2092" transform="matrix(1 0 0 -1 0 792)" d="M340.1405 343.2343L372.6135 325.1073L372.6135 325.1073L391.3895 319.5223L391.3895 319.5223L404.9735 321.0293L404.9735 321.0293L414.7525 328.3893C 431.2035 345.2223 447.3365 375.0203 457.9525 390.4533C 461.6835 395.9943 464.9545 400.6713 468.9515 405.9473" stroke="#B9681C" stroke-width="1.92" stroke-linecap="round" fill="none" /><path id="2093" transform="matrix(1 0 0 -1 0 792)" d="M340.2532 343.0593C 356.1752 333.6183 372.3942 324.6743 388.3162 315.2333C 404.2792 308.1813 417.4702 303.7353 436.0472 320.3763C 447.6402 336.0073 459.0872 351.7853 470.8282 367.2693C 481.2892 379.4293 491.8952 387.1273 506.8922 384.0903L506.8922 384.0903L522.5502 382.4903L522.5502 382.4903L536.5712 381.9833C 542.3622 381.8303 548.7612 382.1853 554.5522 382.0333" stroke="#A2576C" stroke-width="1.92" stroke-linecap="round" stroke-dasharray="6.000521,2" fill="none" /><path id="2094" transform="matrix(1 0 0 -1 0 792)" d="M340.1846 343.1507L414.5856 299.9587C 433.1166 290.5947 448.3496 290.6997 464.6046 306.6467L464.6046 306.6467L480.6276 320.3007C 488.1226 325.3977 497.4686 327.4647 509.0506 325.8737L509.0506 325.8737L522.9836 324.8987L522.9836 324.8987L554.3326 324.2017" stroke="#46785D" stroke-width="1.92" stroke-linecap="round" stroke-dasharray="6.000521,2" fill="none" /><path id="2095" transform="matrix(1 0 0 -1 0 792)" d="M340.3854 343.1342L442.2554 284.9052C 456.1564 277.7462 468.9694 276.8002 482.4034 278.7682C 506.4704 281.1512 530.2224 280.3932 554.6034 280.2632" stroke="#0072BC" stroke-width="1.92" stroke-linecap="round" stroke-dasharray="3,2" fill="none" /></g><path id="2096" transform="matrix(1 0 0 -1 0 792)" d="M339.8187 406.395L554.5967 406.395L554.5967 406.395L554.5967 216.179L554.5967 216.179L339.8187 216.179z" stroke="#221E1F" stroke-width="0.96" fill="none" /></g></g></svg>